<?xml version="1.0" encoding="UTF-8"?>
<!DOCTYPE svg PUBLIC "-//W3C//DTD SVG 1.1//EN" "http://www.w3.org/Graphics/SVG/1.1/DTD/svg11.dtd">
<!-- Creator: CorelDRAW 2019 (64 Bit) -->
<svg xmlns="http://www.w3.org/2000/svg" xml:space="preserve" width="97.2197mm" height="97.4431mm" version="1.1" style="shape-rendering:geometricPrecision; text-rendering:geometricPrecision; image-rendering:optimizeQuality; fill-rule:evenodd; clip-rule:evenodd"
viewBox="0 0 1197.07 1199.82"
 xmlns:xlink="http://www.w3.org/1999/xlink">
 <defs>
  <style type="text/css">
   <![CDATA[
    .fil2 {fill:#094561}
    .fil0 {fill:#094561;fill-rule:nonzero}
    .fil3 {fill:#094561;fill-rule:nonzero}
    .fil1 {fill:#F59B2C;fill-rule:nonzero}
   ]]>
  </style>
 </defs>
 <g id="Camada_x0020_1">
  <metadata id="CorelCorpID_0Corel-Layer"/>
  <path class="fil0" d="M1081.47 238.41c40.46,534.83 -536.96,908.65 -1007.93,646.96 476.15,356.71 1429.95,-90.78 1007.93,-646.96z"/>
  <path class="fil0" d="M73.54 885.37c130.65,140.21 318.57,233.12 525.34,233.12 279.45,0 563.97,-148.59 598.19,-447.36 -240.93,383.5 -758.63,477.75 -1123.53,214.24z"/>
  <path class="fil0" d="M73.54 885.37c162.26,282.73 527.13,399.88 812.24,246.84 -334.84,93.24 -604.8,-26.31 -812.24,-246.84z"/>
  <path class="fil0" d="M539.26 122.03c35.12,0 69.37,3.57 102.58,10.1 -68.4,-47.15 -145.83,-82.12 -229.19,-101.76 -326.2,107.93 -494.09,467.07 -373.63,784.67 -17.32,-52.22 -26.71,-108.02 -26.71,-166.03 0,-291.04 235.92,-526.98 526.95,-526.98z"/>
  <path class="fil1" d="M1047.87 197.98c-54.53,-60.21 -121.09,-109.31 -195.91,-143.58 48.31,79.46 79.22,167.19 92.12,257.39 36.19,43.38 65.58,92.62 86.42,146.19 22.59,-85.26 28.2,-173.62 17.36,-260zm-445.37 -197.96l0 0c-0.22,-0.02 -0.47,-0.02 -0.69,-0.02 -39.98,0 -79.02,3.94 -116.85,11.39 18.54,8.17 36.93,17.01 55.1,26.71 57.33,30.55 109.53,66.88 156.45,107.86 20.09,6.27 39.61,13.76 58.58,22.28 -40.37,-63.19 -91.52,-120.29 -152.59,-168.21zm44.46 1.73l0 0c60.58,54.21 110.44,117.58 148.57,186.79 41.74,23.29 80,52.04 113.77,85.35 -18.49,-84.64 -52.98,-165.52 -101.98,-237.83 -50.65,-18.4 -104.45,-30.17 -160.37,-34.31z"/>
  <polygon class="fil2" points="286.13,981.4 306.23,891.15 498.99,891.15 478.89,981.4 "/>
  <path class="fil3" d="M415.28 345.09l1.04 20.33c-10.86,2.55 -20.07,3.82 -27.66,3.82 -13.26,0 -24.9,-2.23 -34.92,-6.69 -9.99,-4.49 -17.78,-11.27 -23.31,-20.39 -5.53,-9.09 -8.28,-20.27 -8.28,-33.53 0,-10.25 1.54,-19.43 4.58,-27.54 3.07,-8.14 7.47,-14.94 13.26,-20.47 5.79,-5.53 12.77,-9.73 20.94,-12.57 8.17,-2.84 17.43,-4.26 27.74,-4.26 9.76,0 18.91,1.68 27.45,5.07l-1.74 20.5c-7.59,-4.32 -16.33,-6.46 -26.24,-6.46 -6.14,0 -11.73,1.1 -16.71,3.27 -5.01,2.2 -9.3,5.3 -12.86,9.3 -3.59,4 -6.31,8.69 -8.22,14.04 -1.88,5.36 -2.84,11.15 -2.84,17.35 0,8.2 1.65,15.58 4.95,22.18 3.27,6.57 8.05,11.76 14.25,15.49 6.2,3.74 13.52,5.59 21.95,5.59 4.72,0 9.61,-0.49 14.71,-1.45 5.07,-0.96 9.04,-2.14 11.9,-3.59zm13.06 -38.92c0,-12.45 2.29,-23.37 6.86,-32.75 4.55,-9.41 11.29,-16.68 20.24,-21.86 8.92,-5.18 19.69,-7.76 32.29,-7.76 12.37,0 23.05,2.63 32.06,7.88 8.98,5.24 15.81,12.6 20.44,22.04 4.63,9.44 6.95,20.27 6.95,32.46 0,12.25 -2.32,23.17 -6.92,32.72 -4.61,9.53 -11.41,17 -20.39,22.33 -8.98,5.36 -19.69,8.02 -32.14,8.02 -12.63,0 -23.43,-2.63 -32.37,-7.9 -8.92,-5.27 -15.67,-12.68 -20.21,-22.18 -4.55,-9.5 -6.81,-20.5 -6.81,-32.98zm25.37 0c0,7.73 1.16,14.94 3.5,21.6 2.32,6.69 6.05,12.08 11.15,16.19 5.07,4.11 11.55,6.17 19.37,6.17 7.85,0 14.33,-2.06 19.43,-6.17 5.13,-4.11 8.86,-9.5 11.18,-16.19 2.32,-6.66 3.47,-13.87 3.47,-21.6 0,-7.5 -1.22,-14.54 -3.62,-21.14 -2.43,-6.6 -6.2,-11.96 -11.35,-16.01 -5.12,-4.08 -11.5,-6.11 -19.11,-6.11 -7.62,0 -13.96,2.03 -19.08,6.11 -5.13,4.05 -8.89,9.41 -11.32,16.01 -2.4,6.6 -3.62,13.64 -3.62,21.14zm115.72 60.99l0 -121.28 38.89 0 28.84 91.91 0.35 0 28.84 -91.91 38.95 0 0 121.28 -23.28 0 0 -100.08 -0.35 0 -32.67 100.08 -23.28 0 -32.67 -100.08 -0.35 0.35 0 99.73 -23.28 0zm158.14 -60.99c0,-12.45 2.29,-23.37 6.86,-32.75 4.55,-9.41 11.29,-16.68 20.24,-21.86 8.92,-5.18 19.69,-7.76 32.29,-7.76 12.37,0 23.05,2.63 32.06,7.88 8.98,5.24 15.81,12.6 20.44,22.04 4.63,9.44 6.95,20.27 6.95,32.46 0,12.25 -2.32,23.17 -6.92,32.72 -4.61,9.53 -11.41,17 -20.39,22.33 -8.98,5.36 -19.69,8.02 -32.14,8.02 -12.63,0 -23.43,-2.63 -32.37,-7.9 -8.92,-5.27 -15.67,-12.68 -20.21,-22.18 -4.55,-9.5 -6.81,-20.5 -6.81,-32.98zm25.37 0c0,7.73 1.16,14.94 3.5,21.6 2.32,6.69 6.05,12.08 11.15,16.19 5.07,4.11 11.55,6.17 19.37,6.17 7.85,0 14.33,-2.06 19.43,-6.17 5.13,-4.11 8.86,-9.5 11.18,-16.19 2.32,-6.66 3.47,-13.87 3.47,-21.6 0,-7.5 -1.22,-14.54 -3.62,-21.14 -2.43,-6.6 -6.2,-11.96 -11.35,-16.01 -5.12,-4.08 -11.5,-6.11 -19.11,-6.11 -7.62,0 -13.96,2.03 -19.08,6.11 -5.13,4.05 -8.89,9.41 -11.32,16.01 -2.4,6.6 -3.62,13.64 -3.62,21.14z"/>
  <path class="fil3" d="M302.18 343.18l1.89 19.29c-12.66,3.82 -23.97,5.73 -33.94,5.73 -6.94,0 -13.4,-1.1 -19.34,-3.3 -5.94,-2.17 -10.71,-5.62 -14.31,-10.28 -3.63,-4.66 -5.43,-10.48 -5.43,-17.52 0,-5.3 1.23,-10.02 3.69,-14.1 2.46,-4.11 6.09,-8.92 10.94,-14.42 4.83,-5.5 8.46,-10.28 10.88,-14.33 2.43,-4.05 3.63,-8.69 3.63,-13.93l21.08 0c0,7.41 -1.12,13.58 -3.34,18.53 -2.2,4.92 -5.28,9.64 -9.17,14.13 -1.54,1.68 -3.12,3.39 -4.74,5.13 -1.6,1.77 -2.97,3.42 -4.11,4.98 -1.14,1.59 -2.06,3.3 -2.77,5.15 -0.71,1.88 -1.06,3.91 -1.06,6.08 0,5.39 1.89,9.38 5.69,11.96 3.8,2.58 8.46,3.85 14.03,3.85 7.63,0 16.43,-2.32 26.4,-6.95zm-19.54 -98.34l0 24.33 -24 0 0 -24.33 24 0z"/>
  <path class="fil3" d="M169.12 522.35l0 -72.43 12.79 0 0 7.31 0.18 0c3.4,-5.68 8.72,-8.51 15.98,-8.51 3.85,0 7.14,0.7 9.89,2.1 2.76,1.4 5.01,3.33 6.74,5.81 1.73,2.48 3,5.33 3.78,8.54 0.78,3.21 1.18,6.64 1.18,10.32 0,3.66 -0.4,7.11 -1.22,10.36 -0.8,3.25 -2.06,6.13 -3.81,8.64 -1.73,2.53 -4.01,4.5 -6.81,5.93 -2.8,1.43 -6.14,2.15 -10.04,2.15 -3.11,0 -5.84,-0.5 -8.21,-1.52 -2.36,-1 -4.65,-2.86 -6.88,-5.58l-0.22 0 0 26.87 -13.37 0zm25.46 -63.24c-2.06,0 -3.85,0.48 -5.38,1.47 -1.52,0.97 -2.76,2.27 -3.73,3.86 -0.97,1.6 -1.68,3.38 -2.16,5.33 -0.47,1.95 -0.7,3.86 -0.7,5.73 0,2.7 0.38,5.33 1.16,7.88 0.78,2.53 2.05,4.65 3.81,6.31 1.75,1.66 4.03,2.5 6.81,2.5 2.75,0 4.96,-0.85 6.63,-2.53 1.68,-1.7 2.88,-3.8 3.6,-6.33 0.72,-2.51 1.07,-5.13 1.07,-7.82 0,-2.6 -0.35,-5.15 -1.03,-7.63 -0.7,-2.5 -1.87,-4.58 -3.53,-6.24 -1.66,-1.68 -3.83,-2.51 -6.54,-2.51zm32.3 16.9c0,-5.51 1.16,-10.34 3.5,-14.47 2.33,-4.13 5.56,-7.29 9.67,-9.51 4.11,-2.21 8.68,-3.31 13.7,-3.31 5.08,0 9.67,1.1 13.79,3.31 4.13,2.22 7.36,5.38 9.69,9.51 2.33,4.13 3.5,8.96 3.5,14.47 0,4.94 -1.07,9.44 -3.21,13.49 -2.15,4.05 -5.26,7.24 -9.34,9.57 -4.06,2.33 -8.87,3.5 -14.42,3.5 -5.49,0 -10.27,-1.17 -14.32,-3.48 -4.06,-2.33 -7.18,-5.53 -9.32,-9.57 -2.15,-4.06 -3.23,-8.56 -3.23,-13.5zm13.99 -1.62c0,5 0.98,9.21 2.95,12.64 1.97,3.43 5.28,5.14 9.92,5.14 4.71,0 8.04,-1.71 10.02,-5.13 1.98,-3.41 2.98,-7.63 2.98,-12.66 0,-2.73 -0.48,-5.24 -1.45,-7.56 -0.97,-2.33 -2.43,-4.2 -4.4,-5.61 -1.95,-1.42 -4.35,-2.12 -7.16,-2.12 -2.76,0 -5.11,0.72 -7.06,2.16 -1.93,1.43 -3.4,3.31 -4.36,5.65 -0.97,2.35 -1.45,4.83 -1.45,7.48zm61.06 1.1c0,4.33 0.88,8.19 2.66,11.59 1.78,3.4 4.66,5.09 8.62,5.09 2.78,0 5.06,-0.83 6.81,-2.51 1.76,-1.67 3.03,-3.78 3.81,-6.31 0.78,-2.53 1.16,-5.16 1.16,-7.86 0,-1.85 -0.23,-3.76 -0.7,-5.73 -0.48,-1.97 -1.2,-3.75 -2.15,-5.35 -0.97,-1.58 -2.22,-2.88 -3.75,-3.85 -1.51,-0.98 -3.31,-1.47 -5.38,-1.47 -2.72,0 -4.91,0.83 -6.56,2.51 -1.65,1.67 -2.81,3.76 -3.51,6.24 -0.68,2.5 -1.03,5.05 -1.03,7.63zm23.59 25.87l0 -5.79 -0.22 0c-3.71,4.66 -8.97,6.99 -15.79,6.99 -3.81,0 -7.11,-0.72 -9.87,-2.16 -2.76,-1.45 -5.01,-3.43 -6.73,-5.96 -1.73,-2.51 -2.98,-5.38 -3.78,-8.61 -0.8,-3.21 -1.2,-6.66 -1.2,-10.34 0,-3.7 0.4,-7.14 1.2,-10.34 0.8,-3.18 2.05,-6.01 3.78,-8.49 1.72,-2.48 3.96,-4.43 6.71,-5.83 2.76,-1.42 6.06,-2.12 9.89,-2.12 6.33,0 11.46,2.4 15.39,7.19l0.2 0 0 -29.47 13.39 0 0 74.93 -12.97 0zm36.28 -30.77l22.78 0c-0.22,-3.58 -1.2,-6.49 -2.96,-8.73 -1.77,-2.25 -4.41,-3.36 -7.94,-3.36 -3.6,0 -6.39,1.1 -8.39,3.31 -2.01,2.21 -3.18,5.14 -3.48,8.77zm31.75 16.98l0 10.89c-4.93,2.73 -10.82,4.1 -17.68,4.1 -4.21,0 -7.98,-0.6 -11.3,-1.78 -3.33,-1.18 -6.14,-2.93 -8.46,-5.21 -2.31,-2.3 -4.08,-5.11 -5.29,-8.42 -1.22,-3.33 -1.81,-7.08 -1.81,-11.24 0,-5.05 0.9,-9.62 2.7,-13.77 1.8,-4.15 4.5,-7.43 8.11,-9.82 3.63,-2.4 7.98,-3.6 13.07,-3.6 8.99,0 15.32,2.72 18.98,8.14 3.66,5.43 5.5,13.07 5.5,22.93l-35.55 0c0.28,4.08 1.76,7.26 4.4,9.56 2.65,2.28 6.08,3.43 10.27,3.43 5.16,0 10.86,-1.73 17.08,-5.19zm14.07 13.79l0 -51.45 12.49 0 0 7.19 0.22 0c1.93,-2.91 4.26,-5.05 6.99,-6.38 2.72,-1.35 5.48,-2.02 8.28,-2.02 7.38,0 12.44,3.03 15.19,9.09 1.48,-2.93 3.71,-5.19 6.66,-6.74 2.96,-1.56 6.09,-2.35 9.42,-2.35 5.96,0 10.17,1.78 12.62,5.35 2.45,3.58 3.66,8.53 3.66,14.85l0 32.45 -13.39 0 0 -30.65c0,-2.28 -0.13,-4.2 -0.38,-5.76 -0.27,-1.56 -0.97,-2.93 -2.1,-4.1 -1.13,-1.16 -2.86,-1.75 -5.19,-1.75 -6.68,0 -10.01,5.76 -10.01,17.28l0 24.98 -13.39 0 0 -30.65c0,-2.28 -0.13,-4.2 -0.38,-5.76 -0.27,-1.56 -0.97,-2.93 -2.1,-4.1 -1.13,-1.16 -2.86,-1.75 -5.2,-1.75 -6.68,0 -10.01,5.76 -10.01,17.28l0 24.98 -13.39 0zm85.7 -25.36c0,-5.51 1.16,-10.34 3.5,-14.47 2.33,-4.13 5.56,-7.29 9.67,-9.51 4.11,-2.21 8.68,-3.31 13.7,-3.31 5.08,0 9.67,1.1 13.79,3.31 4.13,2.22 7.36,5.38 9.69,9.51 2.33,4.13 3.5,8.96 3.5,14.47 0,4.94 -1.07,9.44 -3.21,13.49 -2.15,4.05 -5.26,7.24 -9.34,9.57 -4.06,2.33 -8.87,3.5 -14.42,3.5 -5.49,0 -10.27,-1.17 -14.32,-3.48 -4.06,-2.33 -7.18,-5.53 -9.32,-9.57 -2.15,-4.06 -3.23,-8.56 -3.23,-13.5zm13.99 -1.62c0,5 0.98,9.21 2.95,12.64 1.97,3.43 5.28,5.14 9.92,5.14 4.71,0 8.04,-1.71 10.02,-5.13 1.98,-3.41 2.98,-7.63 2.98,-12.66 0,-2.73 -0.48,-5.24 -1.45,-7.56 -0.97,-2.33 -2.43,-4.2 -4.4,-5.61 -1.95,-1.42 -4.35,-2.12 -7.16,-2.12 -2.76,0 -5.11,0.72 -7.06,2.16 -1.93,1.43 -3.4,3.31 -4.36,5.65 -0.97,2.35 -1.45,4.83 -1.45,7.48zm81.84 -23.78l-0.9 10.09c-4.31,-1.47 -8.31,-2.2 -12.01,-2.2 -2.13,0 -3.98,0.45 -5.53,1.35 -1.56,0.92 -2.35,2.35 -2.35,4.33 0,1.76 1.37,3.16 4.08,4.2 2.73,1.03 5.56,2.05 8.51,3.06 2.95,1.02 5.46,2.6 7.56,4.76 2.08,2.15 3.13,5.35 3.13,9.57 0,3.81 -1,6.98 -3,9.49 -2,2.51 -4.65,4.36 -7.96,5.54 -3.3,1.16 -6.83,1.75 -10.61,1.75 -4.58,0 -9.64,-0.73 -15.19,-2.2l0.8 -11.01c4.55,2.28 8.94,3.41 13.17,3.41 2.16,0 4.18,-0.5 6.03,-1.48 1.85,-0.98 2.76,-2.58 2.76,-4.81 0,-2.2 -0.72,-3.63 -2.16,-4.33 -1.43,-0.7 -4.26,-1.73 -8.51,-3.08 -4.25,-1.35 -7.41,-3.03 -9.49,-5.06 -2.08,-2.01 -3.11,-5.13 -3.11,-9.29 0,-3.51 0.93,-6.48 2.78,-8.91 1.85,-2.41 4.31,-4.21 7.36,-5.36 3.06,-1.15 6.41,-1.73 10.06,-1.73 3.81,0 8.67,0.63 14.57,1.9zm40.68 50.75l0 -74.93 13.39 0 0 30.47 0.22 0c1.75,-2.56 4.01,-4.58 6.83,-6.03 2.81,-1.45 5.93,-2.16 9.34,-2.16 3.91,0 7.19,0.85 9.81,2.56 2.63,1.72 4.56,4.1 5.81,7.14 1.25,3.03 1.87,6.53 1.87,10.49l0 32.45 -13.39 0 0 -27.46c0,-4.53 -0.5,-8.13 -1.51,-10.79 -1,-2.68 -3.4,-4.01 -7.16,-4.01 -2.98,0 -5.35,0.9 -7.11,2.72 -1.76,1.8 -2.98,4 -3.66,6.61 -0.68,2.61 -1.03,5.19 -1.03,7.78l0 25.16 -13.39 0zm63.76 -37.26l-0.4 -11.49c2.6,-1.18 5.49,-2.13 8.72,-2.83 3.23,-0.72 6.28,-1.07 9.16,-1.07 5.26,0 9.51,0.75 12.75,2.25 3.25,1.51 5.63,3.85 7.14,7.03 1.52,3.16 2.28,7.29 2.28,12.41l0 6.61c0,4.01 0.07,8.31 0.22,12.87 0.08,3.53 0.28,7.36 0.58,11.49l-11.77 0c-0.17,-0.88 -0.28,-1.8 -0.35,-2.76 -0.08,-0.98 -0.13,-1.73 -0.15,-2.28 -0.03,-0.53 -0.07,-1.42 -0.12,-2.65l-0.18 0c-1.48,2.75 -3.71,4.91 -6.69,6.49 -2.96,1.6 -6.04,2.4 -9.19,2.4 -3.1,0 -6.03,-0.62 -8.79,-1.83 -2.78,-1.22 -5,-2.98 -6.68,-5.29 -1.68,-2.31 -2.53,-5.04 -2.53,-8.16 0,-6.89 2.93,-11.79 8.81,-14.69 4.1,-2 9.86,-3 17.28,-3l7.39 0c0,-4.05 -0.92,-6.89 -2.76,-8.57 -1.85,-1.68 -4.79,-2.51 -8.84,-2.51 -1.85,0 -3.7,0.23 -5.58,0.68 -1.88,0.45 -3.7,1.1 -5.43,1.95 -1.75,0.83 -3.36,1.81 -4.88,2.96zm6.79 22.38c0,2.08 0.78,3.65 2.35,4.71 1.58,1.05 3.63,1.58 6.14,1.58 3.98,0 7.11,-1.53 9.39,-4.61 1.88,-2.45 2.81,-5.98 2.81,-10.57l-5.81 0c-9.92,0 -14.89,2.96 -14.89,8.89zm80.6 -36.05l-1.2 10.57c-2.8,-1.27 -5.83,-1.9 -9.09,-1.9 -2.7,0 -5.08,0.68 -7.14,2.03 -2.06,1.37 -3.66,3.28 -4.78,5.75 -1.12,2.48 -1.66,5.31 -1.66,8.51 0,4.96 1.18,9.01 3.55,12.12 2.36,3.11 5.81,4.66 10.32,4.66 3.21,0 6.64,-0.8 10.29,-2.4l0.62 11.11c-3.66,1.12 -8.13,1.68 -13.39,1.68 -5.46,0 -10.09,-1.15 -13.92,-3.46 -3.81,-2.31 -6.68,-5.51 -8.59,-9.59 -1.91,-4.1 -2.86,-8.79 -2.86,-14.12 0,-4.98 0.97,-9.51 2.91,-13.57 1.95,-4.08 4.78,-7.28 8.53,-9.61 3.75,-2.33 8.23,-3.5 13.42,-3.5 4.83,0 9.16,0.57 13,1.72zm19.32 20.16l22.78 0c-0.22,-3.58 -1.2,-6.49 -2.96,-8.73 -1.77,-2.25 -4.41,-3.36 -7.94,-3.36 -3.6,0 -6.39,1.1 -8.39,3.31 -2.01,2.21 -3.18,5.14 -3.48,8.77zm31.75 16.98l0 10.89c-4.93,2.73 -10.82,4.1 -17.68,4.1 -4.21,0 -7.98,-0.6 -11.3,-1.78 -3.33,-1.18 -6.14,-2.93 -8.46,-5.21 -2.31,-2.3 -4.08,-5.11 -5.29,-8.42 -1.22,-3.33 -1.81,-7.08 -1.81,-11.24 0,-5.05 0.9,-9.62 2.7,-13.77 1.8,-4.15 4.5,-7.43 8.11,-9.82 3.63,-2.4 7.98,-3.6 13.07,-3.6 8.99,0 15.32,2.72 18.98,8.14 3.66,5.43 5.5,13.07 5.5,22.93l-35.55 0c0.28,4.08 1.76,7.26 4.4,9.56 2.65,2.28 6.08,3.43 10.27,3.43 5.16,0 10.86,-1.73 17.08,-5.19zm14.57 13.79l0 -51.45 11.87 0 0 11.69 0.22 0c0.22,-1.73 0.97,-3.6 2.23,-5.61 1.27,-2.03 2.95,-3.75 5.05,-5.16 2.08,-1.42 4.36,-2.12 6.81,-2.12 1.81,0 3.18,0.13 4.1,0.4l0 13.49c-1.23,-0.73 -3.23,-1.1 -5.99,-1.1 -3.33,0 -5.78,1.13 -7.39,3.4 -1.6,2.25 -2.58,4.83 -2.95,7.69 -0.37,2.86 -0.55,6.16 -0.55,9.89l0 18.88 -13.39 0z"/>
  <path class="fil3" d="M167.62 621.18l-0.92 10.27c-4.39,-1.49 -8.46,-2.24 -12.22,-2.24 -2.17,0 -4.05,0.46 -5.63,1.37 -1.59,0.93 -2.39,2.39 -2.39,4.41 0,1.8 1.39,3.22 4.15,4.27 2.78,1.05 5.66,2.09 8.66,3.12 3,1.03 5.56,2.64 7.7,4.85 2.12,2.19 3.19,5.44 3.19,9.75 0,3.88 -1.02,7.1 -3.05,9.66 -2.03,2.56 -4.73,4.44 -8.1,5.65 -3.36,1.19 -6.95,1.78 -10.8,1.78 -4.66,0 -9.81,-0.74 -15.46,-2.24l0.81 -11.21c4.63,2.32 9.1,3.48 13.41,3.48 2.2,0 4.26,-0.51 6.14,-1.51 1.88,-1 2.81,-2.63 2.81,-4.9 0,-2.24 -0.73,-3.7 -2.2,-4.41 -1.46,-0.71 -4.34,-1.76 -8.66,-3.14 -4.32,-1.37 -7.54,-3.08 -9.66,-5.15 -2.12,-2.05 -3.17,-5.22 -3.17,-9.46 0,-3.58 0.95,-6.59 2.83,-9.07 1.88,-2.46 4.39,-4.29 7.49,-5.46 3.12,-1.17 6.53,-1.76 10.24,-1.76 3.88,0 8.83,0.64 14.83,1.93zm61.25 -0.71l0 52.38 -12.92 0 0 -7.12 -0.19 0c-4.56,5.56 -10.29,8.34 -17.22,8.34 -3.97,0 -7.29,-0.86 -9.97,-2.61 -2.68,-1.73 -4.64,-4.15 -5.92,-7.26 -1.27,-3.09 -1.9,-6.65 -1.9,-10.68l0 -33.06 13.63 0 0 27.97c0,2.88 0.15,5.37 0.47,7.46 0.31,2.08 1.12,3.87 2.42,5.36 1.29,1.49 3.29,2.24 5.97,2.24 3.02,0 5.44,-0.92 7.24,-2.76 1.8,-1.83 3.04,-4.05 3.71,-6.65 0.69,-2.61 1.03,-5.27 1.03,-7.99l0 -25.63 13.63 0zm72.23 52.38l-35.44 -103.08 22.13 0 26.48 80.96 0.27 0 26.14 -80.96 20.53 0 -34.68 103.08 -25.43 0zm71.78 0l0 -103.08 20.68 0 0 103.08 -20.68 0zm42.83 0l0 -103.08 28.21 0c39.68,0 59.52,17.18 59.52,51.52 0,9.92 -1.55,18.24 -4.68,24.96 -3.1,6.72 -7.41,12.04 -12.87,15.92 -5.49,3.87 -11.77,6.62 -18.8,8.25 -7.06,1.62 -14.79,2.44 -23.16,2.44l-28.21 0zm20.68 -86.84l0 70.59 11.54 0c5.86,0 11.4,-1.4 16.62,-4.23 5.19,-2.83 9.4,-6.92 12.58,-12.28 3.17,-5.37 4.75,-11.64 4.75,-18.8 0,-5.46 -0.94,-10.39 -2.81,-14.79 -1.87,-4.43 -4.41,-8.15 -7.58,-11.2 -3.2,-3.03 -6.82,-5.34 -10.88,-6.92 -4.06,-1.58 -8.29,-2.36 -12.68,-2.36l-11.54 0zm141.78 46.96l-14.92 -42.56 -0.3 0 -14.94 42.56 30.15 0zm-66.46 39.87l40.17 -103.08 23.33 0 40.47 103.08 -22.87 0 -8.86 -23.63 -41.8 0 -9.03 23.63 -21.41 0zm139.77 0l0 -51.45 12.49 0 0 7.19 0.22 0c1.93,-2.91 4.26,-5.04 6.99,-6.38 2.71,-1.35 5.48,-2.01 8.28,-2.01 7.38,0 12.44,3.03 15.18,9.09 1.48,-2.93 3.71,-5.19 6.66,-6.74 2.96,-1.57 6.09,-2.35 9.42,-2.35 5.96,0 10.17,1.78 12.62,5.35 2.45,3.58 3.66,8.52 3.66,14.85l0 32.45 -13.39 0 0 -30.65c0,-2.28 -0.13,-4.2 -0.38,-5.76 -0.27,-1.56 -0.97,-2.93 -2.1,-4.1 -1.13,-1.17 -2.86,-1.75 -5.19,-1.75 -6.68,0 -10.01,5.76 -10.01,17.28l0 24.98 -13.39 0 0 -30.65c0,-2.28 -0.13,-4.2 -0.38,-5.76 -0.27,-1.56 -0.97,-2.93 -2.1,-4.1 -1.13,-1.17 -2.86,-1.75 -5.19,-1.75 -6.68,0 -10.01,5.76 -10.01,17.28l0 24.98 -13.39 0zm91.69 -37.26l-0.4 -11.49c2.6,-1.18 5.5,-2.13 8.73,-2.83 3.23,-0.72 6.28,-1.07 9.16,-1.07 5.26,0 9.51,0.75 12.75,2.25 3.25,1.52 5.63,3.85 7.14,7.03 1.52,3.16 2.28,7.29 2.28,12.4l0 6.61c0,4.01 0.07,8.31 0.22,12.87 0.08,3.53 0.28,7.36 0.58,11.49l-11.77 0c-0.17,-0.88 -0.28,-1.8 -0.35,-2.76 -0.08,-0.98 -0.13,-1.73 -0.15,-2.28 -0.03,-0.53 -0.07,-1.42 -0.12,-2.65l-0.18 0c-1.48,2.75 -3.71,4.91 -6.69,6.49 -2.96,1.6 -6.04,2.4 -9.19,2.4 -3.1,0 -6.03,-0.62 -8.79,-1.83 -2.78,-1.22 -5,-2.98 -6.68,-5.29 -1.68,-2.31 -2.53,-5.04 -2.53,-8.16 0,-6.89 2.93,-11.79 8.81,-14.69 4.1,-2 9.86,-3 17.28,-3l7.39 0c0,-4.05 -0.92,-6.89 -2.76,-8.57 -1.85,-1.68 -4.8,-2.51 -8.84,-2.51 -1.85,0 -3.7,0.23 -5.58,0.68 -1.88,0.45 -3.7,1.1 -5.43,1.95 -1.75,0.83 -3.36,1.81 -4.88,2.96zm6.79 22.38c0,2.08 0.78,3.65 2.35,4.71 1.58,1.05 3.63,1.58 6.14,1.58 3.98,0 7.11,-1.53 9.39,-4.61 1.88,-2.45 2.81,-5.98 2.81,-10.57l-5.81 0c-9.92,0 -14.89,2.96 -14.89,8.89zm77.51 -35.87l-0.9 10.09c-4.31,-1.47 -8.31,-2.2 -12.01,-2.2 -2.13,0 -3.98,0.45 -5.53,1.35 -1.56,0.92 -2.35,2.35 -2.35,4.33 0,1.77 1.37,3.16 4.08,4.2 2.73,1.03 5.56,2.05 8.51,3.06 2.95,1.02 5.46,2.6 7.56,4.76 2.08,2.15 3.13,5.34 3.13,9.57 0,3.81 -1,6.98 -3,9.49 -2,2.51 -4.65,4.36 -7.96,5.54 -3.3,1.16 -6.83,1.75 -10.61,1.75 -4.58,0 -9.64,-0.73 -15.19,-2.2l0.8 -11.01c4.55,2.28 8.94,3.41 13.17,3.41 2.16,0 4.18,-0.5 6.03,-1.48 1.85,-0.98 2.76,-2.58 2.76,-4.81 0,-2.2 -0.72,-3.63 -2.16,-4.33 -1.43,-0.7 -4.26,-1.73 -8.51,-3.08 -4.25,-1.35 -7.41,-3.03 -9.49,-5.06 -2.08,-2.02 -3.11,-5.13 -3.11,-9.29 0,-3.51 0.93,-6.48 2.78,-8.91 1.85,-2.41 4.31,-4.21 7.36,-5.36 3.06,-1.15 6.41,-1.73 10.06,-1.73 3.81,0 8.67,0.63 14.57,1.9z"/>
  <path class="fil3" d="M200.44 830.3l0 -41.66 -9.87 0 0 -9.79 9.87 0 0 -7.19c0,-5.24 1.43,-9.47 4.31,-12.69 2.88,-3.2 6.91,-4.8 12.07,-4.8 3.43,0 6.68,0.37 9.79,1.1l-1.1 11.09c-2.03,-1.2 -3.96,-1.8 -5.78,-1.8 -3.95,0 -5.91,2.63 -5.91,7.88l0 6.41 11.69 0 0 9.79 -11.69 0 0 41.66 -13.39 0zm36.65 -37.26l-0.4 -11.49c2.6,-1.18 5.49,-2.13 8.72,-2.83 3.23,-0.72 6.28,-1.07 9.16,-1.07 5.26,0 9.51,0.75 12.75,2.25 3.25,1.51 5.63,3.85 7.14,7.03 1.52,3.16 2.28,7.29 2.28,12.41l0 6.61c0,4.01 0.07,8.31 0.22,12.87 0.08,3.53 0.28,7.36 0.58,11.49l-11.77 0c-0.17,-0.88 -0.28,-1.8 -0.35,-2.76 -0.08,-0.98 -0.13,-1.73 -0.15,-2.28 -0.03,-0.53 -0.07,-1.42 -0.12,-2.65l-0.18 0c-1.48,2.75 -3.71,4.91 -6.69,6.49 -2.96,1.6 -6.04,2.4 -9.19,2.4 -3.1,0 -6.03,-0.62 -8.79,-1.83 -2.78,-1.22 -5,-2.98 -6.68,-5.29 -1.68,-2.31 -2.53,-5.04 -2.53,-8.16 0,-6.89 2.93,-11.79 8.81,-14.69 4.1,-2 9.86,-3 17.28,-3l7.39 0c0,-4.05 -0.92,-6.89 -2.76,-8.57 -1.85,-1.68 -4.79,-2.51 -8.84,-2.51 -1.85,0 -3.7,0.23 -5.58,0.68 -1.88,0.45 -3.7,1.1 -5.43,1.95 -1.75,0.83 -3.36,1.81 -4.88,2.96zm6.79 22.38c0,2.08 0.78,3.65 2.35,4.71 1.58,1.05 3.63,1.58 6.14,1.58 3.98,0 7.11,-1.53 9.39,-4.61 1.88,-2.45 2.81,-5.98 2.81,-10.57l-5.81 0c-9.92,0 -14.89,2.96 -14.89,8.89zm80.6 -36.05l-1.2 10.57c-2.8,-1.27 -5.83,-1.9 -9.09,-1.9 -2.7,0 -5.08,0.68 -7.14,2.03 -2.06,1.37 -3.66,3.28 -4.78,5.75 -1.12,2.48 -1.66,5.31 -1.66,8.51 0,4.96 1.18,9.01 3.55,12.12 2.36,3.11 5.81,4.66 10.32,4.66 3.21,0 6.64,-0.8 10.29,-2.4l0.62 11.11c-3.66,1.12 -8.13,1.68 -13.39,1.68 -5.46,0 -10.09,-1.15 -13.92,-3.46 -3.81,-2.31 -6.68,-5.51 -8.59,-9.59 -1.91,-4.1 -2.86,-8.79 -2.86,-14.12 0,-4.98 0.97,-9.51 2.91,-13.57 1.95,-4.08 4.78,-7.28 8.53,-9.61 3.75,-2.33 8.23,-3.5 13.42,-3.5 4.83,0 9.16,0.57 13,1.72zm10.11 50.93l0 -51.45 13.39 0 0 51.45 -13.39 0zm0 -60.84l0 -12.79 13.39 0 0 12.79 -13.39 0zm27.77 60.84l0 -74.93 13.39 0 0 74.93 -13.39 0zm58.91 0l0 -90.96 18.24 0 0 36.75 36.49 0 0 -36.75 18.24 0 0 90.96 -18.24 0 0 -39.87 -36.49 0 0 39.87 -18.24 0zm89.65 -45.74c0,-9.34 1.72,-17.53 5.15,-24.56 3.41,-7.06 8.47,-12.51 15.18,-16.4 6.69,-3.89 14.77,-5.82 24.22,-5.82 9.27,0 17.29,1.98 24.04,5.91 6.73,3.93 11.86,9.45 15.33,16.53 3.47,7.08 5.21,15.2 5.21,24.35 0,9.19 -1.74,17.37 -5.19,24.54 -3.45,7.15 -8.56,12.75 -15.29,16.74 -6.73,4.02 -14.77,6.02 -24.11,6.02 -9.47,0 -17.57,-1.98 -24.28,-5.93 -6.69,-3.95 -11.75,-9.51 -15.16,-16.64 -3.41,-7.12 -5.1,-15.38 -5.1,-24.74zm19.02 0c0,5.8 0.87,11.21 2.63,16.2 1.74,5.02 4.54,9.06 8.36,12.14 3.8,3.08 8.67,4.63 14.53,4.63 5.89,0 10.75,-1.54 14.57,-4.63 3.84,-3.08 6.65,-7.12 8.38,-12.14 1.74,-5 2.61,-10.4 2.61,-16.2 0,-5.63 -0.91,-10.9 -2.72,-15.85 -1.82,-4.95 -4.65,-8.97 -8.51,-12.01 -3.84,-3.06 -8.62,-4.58 -14.33,-4.58 -5.71,0 -10.47,1.52 -14.31,4.58 -3.84,3.04 -6.67,7.06 -8.49,12.01 -1.8,4.95 -2.72,10.23 -2.72,15.85zm110.89 45.74l0 -35.94 -33.23 -55.01 21.37 0 21.5 38.18 21.89 -38.18 19.28 0 -32.58 55.01 0 35.94 -18.24 0zm60.2 -73.76l-1.43 -14.46c9.62,-2.87 18.22,-4.3 25.8,-4.3 5.28,0 10.19,0.82 14.7,2.47 4.52,1.63 8.14,4.21 10.88,7.71 2.76,3.5 4.13,7.86 4.13,13.14 0,3.97 -0.93,7.51 -2.8,10.58 -1.87,3.08 -4.63,6.69 -8.32,10.82 -3.67,4.13 -6.43,7.71 -8.27,10.75 -1.85,3.04 -2.76,6.52 -2.76,10.45l-16.03 0c0,-5.56 0.85,-10.19 2.54,-13.9 1.67,-3.69 4.02,-7.23 6.97,-10.6 1.17,-1.26 2.37,-2.54 3.61,-3.84 1.22,-1.32 2.26,-2.56 3.13,-3.74 0.87,-1.19 1.56,-2.48 2.11,-3.87 0.54,-1.41 0.8,-2.93 0.8,-4.56 0,-4.04 -1.43,-7.04 -4.32,-8.97 -2.89,-1.93 -6.43,-2.89 -10.66,-2.89 -5.8,0 -12.49,1.74 -20.07,5.21zm14.85 73.76l0 -18.24 18.24 0 0 18.24 -18.24 0z"/>
  <polygon class="fil3" points="497.71,197.13 477.36,232.9 497.71,232.9 531.29,197.13 "/>
  <polygon class="fil3" points="260.59,758.36 252.29,772.94 260.59,772.94 274.28,758.36 "/>
  <polygon class="fil0" points="766.59,601.02 758.29,615.6 766.59,615.6 780.28,601.02 "/>
 </g>
</svg>
