<?xml version="1.0" encoding="UTF-8"?><svg id="Camada_2" xmlns="http://www.w3.org/2000/svg" viewBox="0 0 206.33 206.33"><defs><style>.cls-1,.cls-2{fill:#094561;}.cls-1,.cls-3{fill-rule:evenodd;}.cls-3{fill:#fefefe;}.cls-4{fill:#f59b2c;}</style></defs><g id="Camada_1-2"><g><g><path class="cls-3" d="M103.17,0c56.98,0,103.17,46.19,103.17,103.17s-46.19,103.17-103.17,103.17S0,160.14,0,103.17,46.19,0,103.17,0h0Z"/><g><path class="cls-2" d="M179.25,46.21c6.37,84.26-84.6,143.16-158.8,101.93,75.02,56.2,225.29-14.3,158.8-101.93Z"/><path class="cls-2" d="M20.45,148.14c20.58,22.09,50.19,36.73,82.77,36.73,44.03,0,88.85-23.41,94.24-70.48-37.96,60.42-119.52,75.27-177.01,33.75h0Z"/><path class="cls-2" d="M20.45,148.14c25.57,44.54,83.05,63,127.97,38.89-52.75,14.69-95.29-4.14-127.97-38.89Z"/><path class="cls-2" d="M93.83,27.88c5.53,0,10.93,.56,16.16,1.59-10.78-7.43-22.98-12.94-36.11-16.03C22.49,30.44-3.96,87.02,15.02,137.06c-2.73-8.23-4.21-17.02-4.21-26.16,0-45.85,37.17-83.03,83.02-83.03h0Z"/><path class="cls-4" d="M173.96,39.84c-8.59-9.49-19.08-17.22-30.86-22.62,7.61,12.52,12.48,26.34,14.51,40.55,5.7,6.83,10.33,14.59,13.62,23.03,3.56-13.43,4.44-27.35,2.74-40.96h0ZM103.79,8.65h0s-.07,0-.11,0c-6.3,0-12.45,.62-18.41,1.79,2.92,1.29,5.82,2.68,8.68,4.21,9.03,4.81,17.26,10.54,24.65,16.99,3.17,.99,6.24,2.17,9.23,3.51-6.36-9.96-14.42-18.95-24.04-26.5h0Zm7,.27h0c9.54,8.54,17.4,18.52,23.41,29.43,6.58,3.67,12.6,8.2,17.92,13.45-2.91-13.34-8.35-26.08-16.07-37.47-7.98-2.9-16.46-4.75-25.27-5.41h0Z"/><polygon class="cls-1" points="53.95 163.27 57.11 149.05 87.48 149.05 84.32 163.27 53.95 163.27"/></g></g><g id="Camada_1-3"><g id="_2739085328544"><path class="cls-2" d="M179.24,46.22c6.37,84.25-84.59,143.14-158.78,101.92,75.01,56.19,225.26-14.3,158.78-101.92Z"/><path class="cls-2" d="M20.46,148.14c20.58,22.09,50.18,36.72,82.76,36.72,44.02,0,88.84-23.41,94.23-70.47-37.95,60.41-119.51,75.26-176.99,33.75h0Z"/><path class="cls-2" d="M20.46,148.14c25.56,44.54,83.04,62.99,127.95,38.88-52.75,14.69-95.28-4.14-127.95-38.88Z"/><path class="cls-2" d="M93.83,27.89c5.53,0,10.93,.56,16.16,1.59-10.77-7.43-22.97-12.94-36.1-16.03C22.5,30.45-3.95,87.03,15.03,137.06c-2.73-8.23-4.21-17.02-4.21-26.16,0-45.85,37.16-83.02,83.01-83.02h0Z"/><path class="cls-4" d="M173.95,39.85c-8.59-9.49-19.08-17.22-30.86-22.62,7.61,12.52,12.48,26.34,14.51,40.55,5.7,6.83,10.33,14.59,13.61,23.03,3.56-13.43,4.44-27.35,2.74-40.96ZM103.79,8.67h0s-.07,0-.11,0c-6.3,0-12.45,.62-18.41,1.79,2.92,1.29,5.82,2.68,8.68,4.21,9.03,4.81,17.25,10.54,24.65,16.99,3.16,.99,6.24,2.17,9.23,3.51-6.36-9.95-14.42-18.95-24.04-26.5h0Zm7,.27h0c9.54,8.54,17.4,18.52,23.4,29.43,6.57,3.67,12.6,8.2,17.92,13.44-2.91-13.33-8.35-26.07-16.06-37.47-7.98-2.9-16.45-4.75-25.26-5.41h0Z"/><polygon class="cls-1" points="53.95 163.26 57.12 149.05 87.49 149.05 84.32 163.26 53.95 163.26"/><path class="cls-2" d="M44.14,72.33v-18.72h3.75v7.56h7.51v-7.56h3.75v18.72h-3.75v-8.21h-7.51v8.21h-3.75Zm18.15-6.81c0-1.48,.31-2.78,.94-3.88,.63-1.11,1.49-1.96,2.6-2.55,1.1-.59,2.33-.89,3.68-.89s2.6,.29,3.7,.89c1.11,.59,1.98,1.44,2.6,2.55,.63,1.11,.94,2.4,.94,3.88,0,1.33-.29,2.53-.86,3.62-.58,1.09-1.41,1.94-2.51,2.57-1.09,.63-2.38,.94-3.87,.94s-2.76-.31-3.84-.93c-1.09-.63-1.93-1.48-2.5-2.57-.58-1.09-.87-2.3-.87-3.63h0Zm3.75-.43c0,1.34,.26,2.47,.79,3.39,.53,.92,1.42,1.38,2.66,1.38s2.16-.46,2.69-1.38,.8-2.05,.8-3.4c0-.73-.13-1.41-.39-2.03-.26-.63-.65-1.13-1.18-1.51-.52-.38-1.17-.57-1.92-.57s-1.37,.19-1.89,.58c-.52,.38-.91,.89-1.17,1.52-.26,.63-.39,1.3-.39,2.01h0Zm16.63,7.24l-4.67-13.81h3.81l3.06,10.22h.05l2.79-10.22h4.19l3,10.22h.05l2.87-10.22h3.43l-4.24,13.81h-4.24l-3-10.54h-.05l-2.95,10.54h-4.1Zm37.46-13.67l-.32,2.84c-.75-.34-1.56-.51-2.44-.51-.72,0-1.36,.18-1.92,.54-.55,.37-.98,.88-1.28,1.54-.3,.67-.45,1.43-.45,2.28,0,1.33,.32,2.42,.95,3.25,.63,.84,1.56,1.25,2.77,1.25,.86,0,1.78-.21,2.76-.64l.16,2.98c-.98,.3-2.18,.45-3.59,.45s-2.71-.31-3.74-.93c-1.02-.62-1.79-1.48-2.31-2.57-.51-1.1-.77-2.36-.77-3.79,0-1.34,.26-2.55,.78-3.64,.52-1.1,1.28-1.95,2.29-2.58s2.21-.94,3.6-.94c1.3,0,2.46,.15,3.49,.46h0Zm3.36,3.67l-.11-3.08c.7-.32,1.48-.57,2.34-.76,.87-.19,1.68-.29,2.46-.29,1.41,0,2.55,.2,3.42,.6,.87,.41,1.51,1.03,1.92,1.89,.41,.85,.61,1.96,.61,3.33v1.77c0,1.08,.02,2.23,.06,3.45,.02,.95,.08,1.98,.16,3.08h-3.16c-.04-.24-.08-.48-.09-.74-.02-.26-.04-.47-.04-.61,0-.14-.02-.38-.03-.71h-.05c-.4,.74-1,1.32-1.8,1.74-.8,.43-1.62,.64-2.47,.64s-1.62-.16-2.36-.49c-.75-.33-1.34-.8-1.79-1.42-.45-.62-.68-1.35-.68-2.19,0-1.85,.79-3.16,2.36-3.94,1.1-.54,2.65-.8,4.64-.8h1.98c0-1.09-.25-1.85-.74-2.3-.5-.45-1.29-.67-2.37-.67-.5,0-.99,.06-1.5,.18-.5,.12-.99,.29-1.46,.52-.47,.22-.9,.49-1.31,.8h0Zm1.82,6.01c0,.56,.21,.98,.63,1.26,.42,.28,.97,.42,1.65,.42,1.07,0,1.91-.41,2.52-1.24,.5-.66,.76-1.6,.76-2.84h-1.56c-2.66,0-4,.8-4,2.39Zm12.36,4v-13.81h3.41v1.88h.05c1.05-1.47,2.56-2.2,4.53-2.2,1.05,0,1.93,.23,2.63,.69,.71,.46,1.23,1.1,1.56,1.92,.34,.81,.5,1.75,.5,2.82v8.71h-3.59v-7.37c0-1.22-.13-2.18-.41-2.9-.27-.72-.91-1.08-1.92-1.08-.8,0-1.43,.24-1.91,.73-.47,.48-.8,1.07-.98,1.77-.18,.7-.28,1.39-.28,2.09v6.75h-3.59Zm-92.96,19.42l-2.58-7.63h2.11l1.69,5.65h.03l1.54-5.65h2.31l1.66,5.65h.03l1.58-5.65h1.9l-2.34,7.63h-2.34l-1.66-5.82h-.03l-1.63,5.82h-2.27Zm12.86-4.56h3.38c-.03-.53-.18-.96-.44-1.29-.26-.33-.65-.5-1.18-.5s-.95,.16-1.25,.49c-.3,.33-.47,.76-.52,1.3Zm4.71,2.52v1.62c-.73,.41-1.6,.61-2.62,.61-.62,0-1.18-.09-1.68-.26-.49-.18-.91-.43-1.25-.77-.34-.34-.6-.76-.79-1.25-.18-.49-.27-1.05-.27-1.67,0-.75,.13-1.43,.4-2.04s.67-1.1,1.2-1.46c.54-.36,1.18-.53,1.94-.53,1.33,0,2.27,.4,2.82,1.21,.54,.81,.82,1.94,.82,3.4h-5.27c.04,.6,.26,1.08,.65,1.42,.39,.34,.9,.51,1.52,.51,.77,0,1.61-.26,2.53-.77h0Zm6.21,2.04v-7.63h1.85v1.07h.03c.29-.43,.63-.75,1.04-.95,.4-.2,.81-.3,1.23-.3,1.09,0,1.85,.45,2.25,1.35,.22-.43,.55-.77,.99-1,.44-.23,.9-.35,1.4-.35,.88,0,1.51,.26,1.87,.79,.36,.53,.54,1.26,.54,2.2v4.81h-1.99v-4.55c0-.34-.02-.62-.06-.85-.04-.23-.14-.43-.31-.61-.17-.17-.42-.26-.77-.26-.99,0-1.48,.85-1.48,2.56v3.7h-1.99v-4.55c0-.34-.02-.62-.06-.85-.04-.23-.14-.43-.31-.61-.17-.17-.42-.26-.77-.26-.99,0-1.48,.85-1.48,2.56v3.7h-1.98Zm13.6-5.53l-.06-1.7c.39-.18,.82-.32,1.29-.42,.48-.11,.93-.16,1.36-.16,.78,0,1.41,.11,1.89,.33,.48,.22,.83,.57,1.06,1.04,.22,.47,.34,1.08,.34,1.84v.98c0,.59,0,1.23,.03,1.91,.01,.52,.04,1.09,.09,1.7h-1.75c-.02-.13-.04-.27-.05-.41-.01-.15-.02-.26-.02-.34,0-.08,0-.21-.02-.39h-.03c-.22,.41-.55,.73-.99,.96-.44,.24-.9,.36-1.36,.36s-.89-.09-1.3-.27c-.41-.18-.74-.44-.99-.79-.25-.34-.38-.75-.38-1.21,0-1.02,.43-1.75,1.31-2.18,.61-.3,1.46-.44,2.56-.44h1.1c0-.6-.14-1.02-.41-1.27-.27-.25-.71-.37-1.31-.37-.27,0-.55,.03-.83,.1s-.55,.16-.81,.29c-.26,.12-.5,.27-.72,.44h0Zm1.01,3.32c0,.31,.12,.54,.35,.7,.23,.16,.54,.24,.91,.24,.59,0,1.05-.23,1.39-.68,.28-.36,.42-.89,.42-1.57h-.86c-1.47,0-2.21,.44-2.21,1.32h0Zm6.87,2.21v-11.11h1.99v6.53h.03l2.37-3.05h2.34l-2.84,3.41,3.2,4.22h-2.52l-2.55-3.7h-.03v3.7h-1.99Zm9.6-4.56h3.38c-.03-.53-.18-.96-.44-1.29-.26-.33-.65-.5-1.18-.5s-.95,.16-1.25,.49c-.3,.33-.47,.76-.52,1.3Zm4.71,2.52v1.62c-.73,.41-1.6,.61-2.62,.61-.62,0-1.18-.09-1.68-.26-.49-.18-.91-.43-1.25-.77-.34-.34-.6-.76-.79-1.25-.18-.49-.27-1.05-.27-1.67,0-.75,.13-1.43,.4-2.04s.67-1.1,1.2-1.46c.54-.36,1.18-.53,1.94-.53,1.33,0,2.27,.4,2.82,1.21,.54,.81,.82,1.94,.82,3.4h-5.27c.04,.6,.26,1.08,.65,1.42,.39,.34,.9,.51,1.52,.51,.77,0,1.61-.26,2.53-.77h0Zm7.57-5.59l1.84,5.57h.03l1.84-5.57h2.02l-2.86,7.57c-.29,.75-.48,1.26-.59,1.51-.11,.26-.27,.54-.49,.84-.22,.3-.5,.54-.85,.72-.34,.18-.76,.27-1.25,.27s-.94-.07-1.41-.21l.13-1.47c.25,.09,.59,.13,1.02,.13,.4,0,.71-.13,.94-.38,.23-.25,.35-.58,.35-.99l-2.92-8.02h2.19Zm6.41,3.87c0-.82,.17-1.53,.52-2.15,.35-.61,.82-1.08,1.43-1.41s1.29-.49,2.03-.49,1.43,.16,2.04,.49c.61,.33,1.09,.8,1.44,1.41,.35,.61,.52,1.33,.52,2.15,0,.73-.16,1.4-.48,2-.32,.6-.78,1.07-1.39,1.42-.6,.35-1.32,.52-2.14,.52s-1.52-.17-2.12-.52c-.6-.35-1.06-.82-1.38-1.42-.32-.6-.48-1.27-.48-2h0Zm2.07-.24c0,.74,.15,1.37,.44,1.87,.29,.51,.78,.76,1.47,.76s1.19-.25,1.49-.76,.44-1.13,.44-1.88c0-.41-.07-.78-.21-1.12-.14-.35-.36-.62-.65-.83-.29-.21-.64-.31-1.06-.31s-.76,.11-1.05,.32c-.29,.21-.5,.49-.65,.84-.14,.35-.21,.72-.21,1.11h0Zm14.48-3.63v7.63h-1.88v-1.04h-.03c-.66,.81-1.5,1.22-2.51,1.22-.58,0-1.06-.13-1.45-.38-.39-.25-.68-.61-.86-1.06-.19-.45-.28-.97-.28-1.56v-4.82h1.99v4.08c0,.42,.02,.78,.07,1.09,.04,.3,.16,.56,.35,.78,.19,.22,.48,.33,.87,.33,.44,0,.79-.13,1.05-.4,.26-.27,.44-.59,.54-.97,.1-.38,.15-.77,.15-1.16v-3.73h1.98Zm2.09,7.63v-7.63h1.76v1.73h.03c.03-.26,.14-.53,.33-.83,.19-.3,.44-.56,.75-.77,.31-.21,.65-.31,1.01-.31,.27,0,.47,.02,.61,.06v2c-.18-.11-.48-.16-.89-.16-.49,0-.86,.17-1.1,.5-.24,.33-.38,.72-.44,1.14s-.08,.91-.08,1.47v2.8h-1.98Zm-93.06,24.33v-16.25h3.26v13.69h6.31v2.56h-9.57Zm11.36,0v-16.25h3.26v16.25h-3.26Zm6.75,0v-16.25h9.04v2.56h-5.78v4.01h5.5v2.56h-5.5v7.13h-3.26Zm11.64,0v-16.25h9.59v2.56h-6.33v4.01h5.8v2.56h-5.8v4.56h6.38v2.56h-9.64Zm20.9-6.32h4.68c-.04-.74-.25-1.33-.61-1.79-.36-.46-.91-.69-1.63-.69s-1.31,.23-1.72,.68c-.41,.46-.65,1.06-.72,1.8h0Zm6.52,3.49v2.24c-1.01,.56-2.22,.84-3.63,.84-.87,0-1.64-.12-2.32-.37s-1.26-.6-1.74-1.07c-.48-.47-.84-1.05-1.09-1.73-.25-.68-.37-1.45-.37-2.31,0-1.04,.18-1.98,.55-2.83,.37-.85,.92-1.53,1.67-2.02,.75-.49,1.64-.74,2.69-.74,1.85,0,3.15,.56,3.9,1.67s1.13,2.69,1.13,4.71h-7.3c.06,.84,.36,1.49,.9,1.96,.54,.47,1.25,.7,2.11,.7,1.06,0,2.23-.36,3.51-1.07h0Zm3.49-4.82l-.08-2.36c.53-.24,1.13-.44,1.79-.58,.66-.15,1.29-.22,1.88-.22,1.08,0,1.95,.15,2.62,.46,.67,.31,1.16,.79,1.47,1.44,.31,.65,.47,1.5,.47,2.55v1.36c0,.82,.01,1.71,.04,2.64,.02,.73,.06,1.51,.12,2.36h-2.42c-.03-.18-.06-.37-.07-.57-.02-.2-.03-.36-.03-.47,0-.11-.01-.29-.02-.54h-.04c-.3,.56-.76,1.01-1.38,1.33-.61,.33-1.24,.49-1.89,.49s-1.24-.13-1.81-.38c-.57-.25-1.03-.61-1.37-1.09-.35-.48-.52-1.04-.52-1.68,0-1.42,.6-2.42,1.81-3.02,.84-.41,2.03-.62,3.55-.62h1.52c0-.83-.19-1.42-.57-1.76s-.99-.52-1.82-.52c-.38,0-.76,.05-1.15,.14-.39,.09-.76,.23-1.12,.4-.36,.17-.69,.37-1,.61h0Zm1.4,4.6c0,.43,.16,.75,.48,.97,.32,.21,.75,.32,1.26,.32,.82,0,1.46-.32,1.93-.95,.39-.5,.58-1.23,.58-2.17h-1.19c-2.04,0-3.06,.61-3.06,1.83h0Zm15.93-7.37l-.19,2.07c-.89-.3-1.71-.45-2.47-.45-.44,0-.82,.09-1.14,.28-.32,.19-.48,.48-.48,.89,0,.36,.28,.65,.84,.86,.56,.21,1.14,.42,1.75,.63,.61,.21,1.12,.53,1.55,.98,.43,.44,.64,1.1,.64,1.97,0,.78-.21,1.43-.62,1.95-.41,.52-.95,.9-1.64,1.14-.68,.24-1.4,.36-2.18,.36-.94,0-1.98-.15-3.12-.45l.16-2.26c.93,.47,1.84,.7,2.71,.7,.44,0,.86-.1,1.24-.3,.38-.2,.57-.53,.57-.99s-.15-.75-.44-.89c-.29-.14-.88-.36-1.75-.63-.87-.28-1.52-.62-1.95-1.04-.43-.41-.64-1.05-.64-1.91,0-.72,.19-1.33,.57-1.83,.38-.5,.89-.87,1.51-1.1,.63-.24,1.32-.36,2.07-.36s1.78,.13,2.99,.39h0Zm2.71,10.43v-10.57h2.75v10.57h-2.75Zm0-12.5v-2.63h2.75v2.63h-2.75Zm7.6,6.18h4.68c-.04-.74-.25-1.33-.61-1.79-.36-.46-.91-.69-1.63-.69s-1.31,.23-1.72,.68c-.41,.46-.65,1.06-.72,1.8h0Zm6.52,3.49v2.24c-1.01,.56-2.22,.84-3.63,.84-.87,0-1.64-.12-2.32-.37-.68-.24-1.26-.6-1.74-1.07-.48-.47-.84-1.05-1.09-1.73-.25-.68-.37-1.45-.37-2.31,0-1.04,.18-1.98,.55-2.83,.37-.85,.92-1.53,1.67-2.02,.75-.49,1.64-.74,2.69-.74,1.85,0,3.15,.56,3.9,1.67,.75,1.12,1.13,2.69,1.13,4.71h-7.3c.06,.84,.36,1.49,.9,1.96,.54,.47,1.25,.7,2.11,.7,1.06,0,2.23-.36,3.51-1.07h0Zm2.99,2.83v-10.57h2.44v2.4h.04c.04-.36,.2-.74,.46-1.15,.26-.42,.61-.77,1.04-1.06,.43-.29,.9-.43,1.4-.43,.37,0,.65,.03,.84,.08v2.77c-.25-.15-.66-.23-1.23-.23-.68,0-1.19,.23-1.52,.7-.33,.46-.53,.99-.61,1.58-.08,.59-.11,1.27-.11,2.03v3.88h-2.75Zm-95.31,24.34v-12.45h-4.23v-2.33h11.44v2.33h-4.24v12.45h-2.96Zm8.36-7.43c0-1.52,.28-2.85,.84-3.99,.55-1.15,1.38-2.03,2.47-2.66,1.09-.63,2.4-.95,3.93-.95s2.81,.32,3.91,.96c1.09,.64,1.93,1.53,2.49,2.69,.57,1.15,.85,2.47,.85,3.96s-.28,2.82-.84,3.99c-.56,1.16-1.39,2.07-2.48,2.72-1.09,.65-2.4,.98-3.92,.98s-2.85-.32-3.94-.96c-1.09-.64-1.91-1.55-2.46-2.7-.55-1.16-.83-2.5-.83-4.02Zm3.09,0c0,.94,.14,1.82,.43,2.63,.28,.82,.74,1.47,1.36,1.97,.62,.5,1.41,.75,2.36,.75s1.75-.25,2.37-.75c.62-.5,1.08-1.16,1.36-1.97,.28-.81,.42-1.69,.42-2.63s-.15-1.77-.44-2.58c-.3-.8-.75-1.46-1.38-1.95-.62-.5-1.4-.75-2.33-.75s-1.7,.25-2.33,.75c-.62,.49-1.08,1.15-1.38,1.95-.29,.8-.44,1.66-.44,2.58Zm14.1,7.43v-14.78h4.04c5.69,0,8.53,2.46,8.53,7.39,0,1.42-.22,2.62-.67,3.58-.44,.96-1.06,1.73-1.85,2.28-.79,.55-1.69,.95-2.7,1.18-1.01,.23-2.12,.35-3.32,.35h-4.04Zm2.96-12.45v10.12h1.66c.84,0,1.63-.2,2.38-.61,.74-.41,1.35-.99,1.8-1.76,.46-.77,.68-1.67,.68-2.7,0-.78-.13-1.49-.4-2.12-.27-.64-.63-1.17-1.09-1.6-.46-.43-.98-.77-1.56-.99-.58-.23-1.19-.34-1.82-.34h-1.66Zm20.32,6.73l-2.14-6.1h-.04l-2.14,6.1h4.32Zm-9.53,5.72l5.76-14.78h3.35l5.8,14.78h-3.28l-1.27-3.39h-5.99l-1.3,3.39h-3.07Zm18.65,0v-5.84l-5.4-8.94h3.47l3.49,6.2,3.56-6.2h3.13l-5.29,8.94v5.84h-2.96Zm9.78-11.98l-.23-2.35c1.56-.47,2.96-.7,4.19-.7,.86,0,1.66,.13,2.39,.4,.73,.27,1.32,.68,1.77,1.25,.45,.57,.67,1.28,.67,2.14,0,.65-.15,1.22-.46,1.72-.3,.5-.75,1.09-1.35,1.76-.6,.67-1.04,1.25-1.34,1.75s-.45,1.06-.45,1.7h-2.6c0-.9,.14-1.66,.41-2.26,.27-.6,.65-1.18,1.13-1.72,.19-.2,.38-.41,.59-.62,.2-.21,.37-.42,.51-.61,.14-.19,.25-.4,.34-.63,.09-.23,.13-.48,.13-.74,0-.66-.23-1.14-.7-1.46s-1.04-.47-1.73-.47c-.94,0-2.03,.28-3.26,.85h0Zm2.41,11.98v-2.96h2.96v2.96h-2.96Z"/></g></g></g></g></svg>