<?xml version="1.0" encoding="UTF-8"?><svg id="Camada_2" xmlns="http://www.w3.org/2000/svg" viewBox="0 0 211.32 211.32"><defs><style>.cls-1,.cls-2{fill:#094561;}.cls-1,.cls-3{fill-rule:evenodd;}.cls-3{fill:#fefefe;}.cls-4{fill:#f59b2c;}</style></defs><g id="Camada_1-2"><g id="_2019342202048"><g><path class="cls-3" d="M105.66,0c58.36,0,105.66,47.31,105.66,105.66s-47.31,105.66-105.66,105.66S0,164.02,0,105.66,47.31,0,105.66,0h0Z"/><g><path class="cls-2" d="M183.59,47.33c6.53,86.3-86.64,146.62-162.64,104.39,76.83,57.56,230.73-14.65,162.64-104.39Z"/><path class="cls-2" d="M20.95,151.72c21.08,22.62,51.4,37.62,84.77,37.62,45.09,0,91-23.98,96.52-72.19-38.88,61.88-122.41,77.09-181.29,34.57h0Z"/><path class="cls-2" d="M20.95,151.72c26.18,45.62,85.06,64.52,131.06,39.83-54.03,15.04-97.59-4.24-131.06-39.83Z"/><path class="cls-2" d="M96.1,28.55c5.67,0,11.19,.58,16.55,1.63-11.04-7.61-23.53-13.25-36.98-16.42C23.03,31.18-4.06,89.13,15.38,140.38c-2.8-8.43-4.31-17.43-4.31-26.79,0-46.96,38.07-85.03,85.03-85.03h0Z"/><path class="cls-4" d="M178.17,40.81c-8.8-9.72-19.54-17.64-31.61-23.17,7.79,12.82,12.78,26.98,14.86,41.53,5.84,7,10.58,14.95,13.95,23.59,3.64-13.76,4.55-28.01,2.8-41.95h0ZM106.3,8.86h0s-.08,0-.11,0c-6.45,0-12.75,.63-18.85,1.84,2.99,1.32,5.96,2.75,8.89,4.31,9.25,4.93,17.67,10.79,25.24,17.4,3.24,1.01,6.39,2.22,9.45,3.6-6.51-10.2-14.77-19.41-24.62-27.14h0Zm7.17,.28h0c9.78,8.75,17.82,18.97,23.97,30.14,6.73,3.76,12.91,8.4,18.36,13.77-2.98-13.66-8.55-26.71-16.45-38.37-8.17-2.97-16.85-4.87-25.88-5.54h0Z"/><polygon class="cls-1" points="55.25 167.22 58.5 152.65 89.6 152.65 86.36 167.22 55.25 167.22"/></g></g><path class="cls-2" d="M53.43,70.58l.16,3.21c-1.72,.4-3.17,.6-4.37,.6-2.1,0-3.94-.35-5.52-1.06-1.58-.71-2.81-1.78-3.69-3.22-.87-1.44-1.31-3.2-1.31-5.3,0-1.62,.24-3.07,.72-4.35,.49-1.29,1.18-2.36,2.1-3.24,.91-.87,2.02-1.54,3.31-1.99,1.29-.45,2.76-.67,4.39-.67,1.54,0,2.99,.26,4.34,.8l-.27,3.24c-1.2-.68-2.58-1.02-4.15-1.02-.97,0-1.85,.17-2.64,.52-.79,.35-1.47,.84-2.03,1.47-.57,.63-1,1.37-1.3,2.22-.3,.85-.45,1.76-.45,2.74,0,1.3,.26,2.46,.78,3.51,.52,1.04,1.27,1.86,2.25,2.45,.98,.59,2.14,.88,3.47,.88,.75,0,1.52-.08,2.33-.23,.8-.15,1.43-.34,1.88-.57h0Zm2.06-6.15c0-1.97,.36-3.69,1.08-5.18,.72-1.49,1.79-2.64,3.2-3.46,1.41-.82,3.11-1.23,5.1-1.23s3.64,.42,5.07,1.25c1.42,.83,2.5,1.99,3.23,3.48,.73,1.49,1.1,3.2,1.1,5.13s-.37,3.66-1.09,5.17c-.73,1.51-1.8,2.69-3.22,3.53-1.42,.85-3.11,1.27-5.08,1.27s-3.7-.42-5.12-1.25c-1.41-.83-2.48-2-3.2-3.51-.72-1.5-1.08-3.24-1.08-5.21h0Zm4.01,0c0,1.22,.18,2.36,.55,3.41,.37,1.06,.96,1.91,1.76,2.56,.8,.65,1.83,.98,3.06,.98s2.27-.33,3.07-.98c.81-.65,1.4-1.5,1.77-2.56,.37-1.05,.55-2.19,.55-3.41s-.19-2.3-.57-3.34c-.38-1.04-.98-1.89-1.79-2.53-.81-.65-1.82-.97-3.02-.97s-2.21,.32-3.02,.97c-.81,.64-1.41,1.49-1.79,2.53-.38,1.04-.57,2.16-.57,3.34h0Zm18.29,9.64v-19.17h6.15l4.56,14.53h.05l4.56-14.53h6.16v19.17h-3.68v-15.82h-.06l-5.16,15.82h-3.68l-5.16-15.82-.05,.05v15.77h-3.68Zm25-9.64c0-1.97,.36-3.69,1.08-5.18,.72-1.49,1.79-2.64,3.2-3.46,1.41-.82,3.11-1.23,5.1-1.23s3.64,.42,5.07,1.25c1.42,.83,2.5,1.99,3.23,3.48,.73,1.49,1.1,3.2,1.1,5.13s-.37,3.66-1.09,5.17c-.73,1.51-1.8,2.69-3.22,3.53-1.42,.85-3.11,1.27-5.08,1.27s-3.7-.42-5.12-1.25c-1.41-.83-2.48-2-3.2-3.51-.72-1.5-1.08-3.24-1.08-5.21h0Zm4.01,0c0,1.22,.18,2.36,.55,3.41,.37,1.06,.96,1.91,1.76,2.56,.8,.65,1.83,.98,3.06,.98s2.27-.33,3.07-.98c.81-.65,1.4-1.5,1.77-2.56,.37-1.05,.55-2.19,.55-3.41s-.19-2.3-.57-3.34c-.38-1.04-.98-1.89-1.79-2.53-.81-.65-1.82-.97-3.02-.97s-2.21,.32-3.02,.97c-.81,.64-1.41,1.49-1.79,2.53-.38,1.04-.57,2.16-.57,3.34h0Zm-66.22,20.61v3.23h.74c1.35,0,2.02-.53,2.02-1.58,0-.58-.18-1-.56-1.26-.37-.26-.86-.39-1.46-.39h-.74Zm-2.13,8.93v-10.59h2.69c1.32,0,2.38,.24,3.2,.72,.81,.48,1.22,1.31,1.22,2.48s-.37,2.02-1.12,2.56c-.75,.54-1.73,.81-2.97,.81h-.9v4.02h-2.13Zm8.1-5.33c0-1.09,.2-2.04,.6-2.86,.4-.82,.99-1.46,1.77-1.91,.78-.45,1.72-.68,2.82-.68s2.01,.23,2.8,.69c.78,.46,1.38,1.1,1.79,1.93,.4,.82,.61,1.77,.61,2.84s-.2,2.02-.6,2.86c-.4,.83-1,1.48-1.78,1.95-.78,.47-1.72,.7-2.81,.7s-2.05-.23-2.83-.69c-.78-.46-1.37-1.11-1.77-1.94-.4-.83-.59-1.79-.59-2.88h0Zm2.22,0c0,.68,.1,1.31,.31,1.89,.2,.59,.53,1.06,.97,1.41,.44,.36,1.01,.54,1.69,.54s1.25-.18,1.7-.54c.45-.36,.77-.83,.98-1.41,.2-.58,.3-1.21,.3-1.89s-.11-1.27-.32-1.85c-.21-.58-.54-1.04-.99-1.4-.45-.36-1-.53-1.67-.53s-1.22,.18-1.67,.53c-.45,.35-.78,.82-.99,1.4-.21,.58-.32,1.19-.32,1.85h0Zm10.11,5.33v-10.59h2.9c4.08,0,6.12,1.77,6.12,5.29,0,1.02-.16,1.87-.48,2.57-.32,.69-.76,1.24-1.32,1.64-.56,.4-1.21,.68-1.93,.85-.73,.17-1.52,.25-2.38,.25h-2.9Zm2.13-8.93v7.26h1.19c.6,0,1.17-.14,1.71-.43,.53-.29,.97-.71,1.29-1.26,.33-.55,.49-1.2,.49-1.93,0-.56-.1-1.07-.29-1.52-.19-.46-.45-.84-.78-1.15-.33-.31-.7-.55-1.12-.71-.42-.16-.85-.24-1.3-.24h-1.19Zm8.83,8.92v-10.59h6.25v1.67h-4.13v2.61h3.78v1.67h-3.78v2.98h4.16v1.67h-6.29Zm8.44,0v-10.59h3.4l2.52,8.03h.03l2.52-8.03h3.4v10.59h-2.03v-8.74h-.03l-2.85,8.74h-2.03l-2.85-8.74-.03,.03v8.71h-2.03Zm13.82-5.33c0-1.09,.2-2.04,.6-2.86,.4-.82,.99-1.46,1.77-1.91,.78-.45,1.72-.68,2.82-.68s2.01,.23,2.8,.69c.78,.46,1.38,1.1,1.79,1.93,.4,.82,.61,1.77,.61,2.84s-.2,2.02-.6,2.86c-.4,.83-1,1.48-1.78,1.95-.78,.47-1.72,.7-2.81,.7s-2.05-.23-2.83-.69c-.78-.46-1.37-1.11-1.77-1.94-.4-.83-.59-1.79-.59-2.88h0Zm2.22,0c0,.68,.1,1.31,.31,1.89,.2,.59,.53,1.06,.97,1.41,.44,.36,1.01,.54,1.69,.54s1.25-.18,1.7-.54c.45-.36,.77-.83,.98-1.41,.2-.58,.3-1.21,.3-1.89s-.11-1.27-.32-1.85c-.21-.58-.54-1.04-.99-1.4-.45-.36-1-.53-1.67-.53s-1.22,.18-1.67,.53c-.45,.35-.78,.82-.99,1.4-.21,.58-.32,1.19-.32,1.85h0Zm16-5.07l-.2,1.75c-.7-.3-1.42-.46-2.16-.46-.44,0-.83,.11-1.17,.34s-.5,.61-.5,1.13c0,.39,.12,.66,.38,.8,.25,.14,.82,.39,1.7,.76,.88,.37,1.53,.77,1.95,1.2,.41,.43,.62,1.05,.62,1.85,0,.74-.18,1.35-.53,1.83-.35,.48-.83,.83-1.43,1.05-.6,.22-1.27,.33-2.02,.33-.52,0-.93-.02-1.22-.08-.29-.05-.79-.16-1.49-.33l.2-1.92c.8,.44,1.6,.66,2.4,.66,.47,0,.9-.12,1.29-.36,.39-.23,.59-.57,.59-1.01s-.15-.75-.46-.94c-.3-.18-.87-.44-1.7-.79-.83-.34-1.45-.73-1.86-1.15-.41-.42-.62-1.02-.62-1.82,0-.75,.17-1.36,.52-1.85,.34-.49,.79-.84,1.36-1.06,.56-.22,1.17-.33,1.83-.33,.93,0,1.77,.13,2.53,.38h0Zm7.33,10.4v-6.33h-1.5v-1.49h1.5v-1.09c0-.8,.22-1.44,.66-1.93,.44-.49,1.05-.73,1.83-.73,.52,0,1.01,.06,1.49,.17l-.17,1.68c-.31-.18-.6-.27-.88-.27-.6,0-.9,.4-.9,1.2v.97h1.78v1.49h-1.78v6.33h-2.03Zm5.57-5.66l-.06-1.75c.39-.18,.83-.32,1.33-.43,.49-.11,.95-.16,1.39-.16,.8,0,1.44,.11,1.94,.34,.49,.23,.86,.59,1.09,1.07,.23,.48,.35,1.11,.35,1.88v1c0,.61,.01,1.26,.03,1.96,.01,.54,.04,1.12,.09,1.75h-1.79c-.02-.13-.04-.27-.05-.42-.01-.15-.02-.26-.02-.35,0-.08-.01-.22-.02-.4h-.03c-.22,.42-.56,.75-1.02,.99-.45,.24-.92,.36-1.4,.36s-.92-.09-1.34-.28c-.42-.18-.76-.45-1.01-.8-.26-.35-.38-.77-.38-1.24,0-1.05,.45-1.79,1.34-2.23,.62-.3,1.5-.46,2.63-.46h1.12c0-.61-.14-1.05-.42-1.3-.28-.26-.73-.38-1.34-.38-.28,0-.56,.04-.85,.1-.29,.07-.56,.17-.82,.3-.26,.13-.51,.28-.74,.45h0Zm1.03,3.4c0,.32,.12,.55,.36,.72,.24,.16,.55,.24,.93,.24,.6,0,1.08-.23,1.43-.7,.29-.37,.43-.91,.43-1.61h-.88c-1.51,0-2.26,.45-2.26,1.35Zm12.25-5.48l-.18,1.61c-.42-.19-.88-.29-1.38-.29-.41,0-.77,.1-1.08,.31-.31,.21-.56,.5-.73,.87-.17,.38-.25,.81-.25,1.29,0,.75,.18,1.37,.54,1.84,.36,.47,.88,.71,1.57,.71,.49,0,1.01-.12,1.56-.36l.09,1.69c-.56,.17-1.23,.26-2.03,.26s-1.53-.17-2.12-.53c-.58-.35-1.01-.84-1.31-1.46-.29-.62-.43-1.34-.43-2.15,0-.76,.15-1.44,.44-2.06,.3-.62,.73-1.11,1.29-1.46,.57-.35,1.25-.53,2.04-.53,.73,0,1.39,.09,1.98,.26h0Zm1.54,7.74v-7.82h2.03v7.82h-2.03Zm0-9.24v-1.94h2.03v1.94h-2.03Zm4.22,9.24v-11.38h2.03v11.38h-2.03Zm4.22,0v-7.82h2.03v7.82h-2.03Zm0-9.24v-1.94h2.03v1.94h-2.03Zm4.84,6.89v-3.98h-1.51v-1.49h1.51v-1.56l2.03-.65v2.21h1.81v1.49h-1.81v3.64c0,.86,.32,1.29,.96,1.29,.4,0,.71-.07,.93-.21l.06,1.61c-.42,.12-.92,.18-1.51,.18-.52,0-.97-.1-1.34-.31s-.65-.5-.84-.88c-.19-.38-.29-.83-.29-1.35h0Zm5.64-3.31l-.06-1.75c.39-.18,.83-.32,1.33-.43,.49-.11,.95-.16,1.39-.16,.8,0,1.44,.11,1.94,.34,.49,.23,.86,.59,1.09,1.07,.23,.48,.35,1.11,.35,1.88v1c0,.61,.01,1.26,.03,1.96,.01,.54,.04,1.12,.09,1.75h-1.79c-.02-.13-.04-.27-.05-.42-.01-.15-.02-.26-.02-.35,0-.08-.01-.22-.02-.4h-.03c-.23,.42-.56,.75-1.02,.99-.45,.24-.92,.36-1.4,.36s-.92-.09-1.34-.28c-.42-.18-.76-.45-1.01-.8-.26-.35-.38-.77-.38-1.24,0-1.05,.45-1.79,1.34-2.23,.62-.3,1.5-.46,2.63-.46h1.12c0-.61-.14-1.05-.42-1.3-.28-.26-.73-.38-1.34-.38-.28,0-.56,.04-.85,.1s-.56,.17-.82,.3c-.27,.13-.51,.28-.74,.45h0Zm1.03,3.4c0,.32,.12,.55,.36,.72,.24,.16,.55,.24,.93,.24,.6,0,1.08-.23,1.43-.7,.29-.37,.43-.91,.43-1.61h-.88c-1.51,0-2.26,.45-2.26,1.35Zm7.04,2.26v-7.82h1.8v1.78h.03c.03-.26,.15-.55,.34-.85,.19-.31,.45-.57,.77-.79,.32-.21,.66-.32,1.03-.32,.28,0,.48,.02,.62,.06v2.05c-.19-.11-.49-.17-.91-.17-.51,0-.88,.17-1.12,.52-.24,.34-.39,.73-.45,1.17-.06,.44-.08,.94-.08,1.5v2.87h-2.03Zm-75.23,24.92l-5.72-16.65h3.57l4.28,13.08h.04l4.22-13.08h3.31l-5.6,16.65h-4.11Zm11.59,0v-16.65h3.34v16.65h-3.34Zm6.92,0v-16.65h4.56c6.41,0,9.61,2.77,9.61,8.32,0,1.6-.25,2.95-.75,4.03-.5,1.09-1.2,1.94-2.08,2.57-.89,.62-1.9,1.07-3.04,1.33-1.14,.26-2.39,.39-3.74,.39h-4.56Zm3.34-14.03v11.4h1.86c.95,0,1.84-.23,2.68-.68,.84-.46,1.52-1.12,2.03-1.98,.51-.87,.77-1.88,.77-3.04,0-.88-.15-1.68-.45-2.39-.3-.72-.71-1.32-1.23-1.81-.52-.49-1.1-.86-1.76-1.12-.66-.25-1.34-.38-2.05-.38h-1.86Zm22.9,7.58l-2.41-6.87h-.05l-2.41,6.87h4.87Zm-10.73,6.44l6.49-16.65h3.77l6.54,16.65h-3.69l-1.43-3.82h-6.75l-1.46,3.82h-3.46Zm-84.64,24.93v-15.13h3.04v6.11h6.07v-6.11h3.04v15.13h-3.04v-6.63h-6.07v6.63h-3.04Zm14.92-7.61c0-1.55,.29-2.92,.86-4.09,.57-1.17,1.41-2.08,2.53-2.73,1.11-.65,2.46-.97,4.03-.97s2.88,.33,4,.98c1.12,.65,1.97,1.57,2.55,2.75,.58,1.18,.87,2.53,.87,4.05s-.29,2.89-.86,4.08c-.57,1.19-1.42,2.12-2.54,2.79-1.12,.67-2.46,1-4.01,1s-2.92-.33-4.04-.99c-1.11-.66-1.96-1.58-2.52-2.77-.57-1.19-.85-2.56-.85-4.12h0Zm3.17,0c0,.96,.14,1.86,.44,2.7,.29,.83,.76,1.51,1.39,2.02,.63,.51,1.44,.77,2.42,.77s1.79-.26,2.42-.77c.64-.51,1.11-1.19,1.4-2.02,.29-.83,.43-1.73,.43-2.7s-.15-1.81-.45-2.64c-.3-.82-.77-1.49-1.42-2-.64-.51-1.43-.76-2.39-.76s-1.74,.25-2.38,.76c-.64,.51-1.11,1.17-1.41,2-.3,.82-.45,1.7-.45,2.64h0Zm13.16,7.59v-2.62c.47,.17,.95,.26,1.46,.26,.86,0,1.41-.24,1.63-.73,.23-.49,.34-1.13,.34-1.94v-10.09h3.04v11.54c0,.59-.14,1.19-.42,1.78-.28,.59-.73,1.09-1.35,1.48-.62,.4-1.41,.6-2.37,.6-.81,0-1.59-.09-2.32-.28h0Zm9.71,.02v-15.13h8.93v2.38h-5.9v3.73h5.4v2.39h-5.4v4.25h5.95v2.38h-8.98Zm11.62-12.27l-.24-2.41c1.6-.48,3.03-.72,4.29-.72,.88,0,1.69,.14,2.45,.41,.75,.27,1.36,.7,1.81,1.28,.46,.58,.69,1.31,.69,2.19,0,.66-.16,1.25-.47,1.76-.31,.51-.77,1.11-1.38,1.8-.61,.69-1.07,1.28-1.38,1.79-.31,.51-.46,1.08-.46,1.74h-2.67c0-.92,.14-1.69,.42-2.31,.28-.61,.67-1.2,1.16-1.76,.2-.21,.39-.42,.6-.64,.2-.22,.38-.43,.52-.62,.14-.2,.26-.41,.35-.64,.09-.24,.13-.49,.13-.76,0-.67-.24-1.17-.72-1.49-.48-.32-1.07-.48-1.77-.48-.97,0-2.08,.29-3.34,.87h0Zm2.47,12.27v-3.04h3.04v3.04h-3.04Z"/><path class="cls-2" d="M37.74,110.09l-.07-2.02c.46-.21,.96-.37,1.53-.5,.57-.13,1.1-.19,1.61-.19,.92,0,1.67,.13,2.24,.39,.57,.27,.99,.67,1.25,1.23,.27,.56,.4,1.28,.4,2.18v1.16c0,.7,.01,1.46,.04,2.26,.01,.62,.05,1.29,.1,2.02h-2.07c-.03-.16-.05-.32-.06-.49-.01-.17-.02-.3-.03-.4,0-.09-.01-.25-.02-.46h-.03c-.26,.48-.65,.86-1.17,1.14-.52,.28-1.06,.42-1.61,.42s-1.06-.11-1.54-.32c-.49-.21-.88-.52-1.17-.93-.3-.41-.44-.88-.44-1.43,0-1.21,.51-2.07,1.55-2.58,.72-.35,1.73-.53,3.03-.53h1.3c0-.71-.16-1.21-.49-1.5-.32-.3-.84-.44-1.55-.44-.32,0-.65,.04-.98,.12-.33,.08-.65,.19-.95,.34-.31,.15-.59,.32-.86,.52h0Zm1.19,3.92c0,.36,.14,.64,.41,.83,.28,.18,.64,.28,1.08,.28,.7,0,1.25-.27,1.65-.81,.33-.43,.49-1.05,.49-1.85h-1.02c-1.74,0-2.61,.52-2.61,1.56h0Zm18.47-6.29l-.16,1.77c-.76-.26-1.46-.39-2.11-.39-.37,0-.7,.08-.97,.24-.27,.16-.41,.41-.41,.76,0,.31,.24,.56,.72,.74,.48,.18,.98,.36,1.49,.54,.52,.18,.96,.46,1.33,.83,.37,.38,.55,.94,.55,1.68,0,.67-.18,1.22-.53,1.66-.35,.44-.81,.77-1.4,.97-.58,.2-1.2,.31-1.86,.31-.8,0-1.69-.13-2.66-.39l.14-1.93c.8,.4,1.57,.6,2.31,.6,.38,0,.73-.09,1.06-.26s.49-.45,.49-.84-.13-.64-.38-.76c-.25-.12-.75-.3-1.49-.54-.75-.24-1.3-.53-1.66-.89-.37-.35-.55-.9-.55-1.63,0-.62,.16-1.14,.49-1.56,.32-.42,.76-.74,1.29-.94,.54-.2,1.12-.3,1.76-.3s1.52,.11,2.56,.33h0Zm10.55-.12v9.02h-2.23v-1.23h-.03c-.79,.96-1.77,1.44-2.97,1.44-.68,0-1.26-.15-1.72-.45-.46-.3-.8-.72-1.02-1.25-.22-.53-.33-1.15-.33-1.84v-5.69h2.35v4.82c0,.5,.03,.93,.08,1.29,.05,.36,.19,.67,.42,.92,.22,.26,.57,.38,1.03,.38,.52,0,.94-.16,1.25-.48,.31-.32,.52-.7,.64-1.15,.12-.45,.18-.91,.18-1.38v-4.42h2.35Zm2.89,2.49l-.07-2.02c.46-.21,.96-.37,1.53-.5,.57-.13,1.1-.19,1.61-.19,.92,0,1.67,.13,2.24,.39,.57,.27,.99,.67,1.25,1.23,.27,.56,.4,1.28,.4,2.18v1.16c0,.7,.01,1.46,.04,2.26,.02,.62,.05,1.29,.1,2.02h-2.07c-.03-.16-.05-.32-.06-.49-.01-.17-.02-.3-.03-.4,0-.09-.01-.25-.02-.46h-.03c-.26,.48-.65,.86-1.17,1.14-.52,.28-1.06,.42-1.61,.42s-1.06-.11-1.54-.32c-.49-.21-.88-.52-1.17-.93-.3-.41-.44-.88-.44-1.43,0-1.21,.51-2.07,1.55-2.58,.72-.35,1.73-.53,3.03-.53h1.3c0-.71-.16-1.21-.48-1.5-.32-.3-.84-.44-1.55-.44-.32,0-.65,.04-.98,.12-.33,.08-.65,.19-.95,.34-.31,.15-.59,.32-.86,.52h0Zm1.19,3.92c0,.36,.14,.64,.41,.83,.28,.18,.64,.28,1.08,.28,.7,0,1.25-.27,1.65-.81,.33-.43,.49-1.05,.49-1.85h-1.02c-1.74,0-2.61,.52-2.61,1.56h0Z"/></g></g></svg>