<?xml version="1.0" encoding="UTF-8"?><svg id="Camada_2" xmlns="http://www.w3.org/2000/svg" viewBox="0 0 206.33 206.33"><defs><style>.cls-1,.cls-2{fill:#094561;}.cls-1,.cls-3{fill-rule:evenodd;}.cls-3{fill:#fefefe;}.cls-4{fill:#f59b2c;}</style></defs><g id="Camada_1-2"><g><g><path class="cls-3" d="M103.17,0c56.98,0,103.17,46.19,103.17,103.17s-46.19,103.17-103.17,103.17S0,160.14,0,103.17,46.19,0,103.17,0h0Z"/><g><path class="cls-2" d="M179.25,46.21c6.37,84.26-84.6,143.16-158.8,101.93,75.02,56.2,225.29-14.3,158.8-101.93Z"/><path class="cls-2" d="M20.45,148.14c20.58,22.09,50.19,36.73,82.77,36.73,44.03,0,88.85-23.41,94.24-70.48-37.96,60.42-119.52,75.27-177.01,33.75h0Z"/><path class="cls-2" d="M20.45,148.14c25.57,44.54,83.05,63,127.97,38.89-52.75,14.69-95.29-4.14-127.97-38.89Z"/><path class="cls-2" d="M93.83,27.88c5.53,0,10.93,.56,16.16,1.59-10.78-7.43-22.98-12.94-36.11-16.03C22.49,30.44-3.96,87.02,15.02,137.06c-2.73-8.23-4.21-17.02-4.21-26.16,0-45.85,37.17-83.03,83.02-83.03h0Z"/><path class="cls-4" d="M173.96,39.84c-8.59-9.49-19.08-17.22-30.86-22.62,7.61,12.52,12.48,26.34,14.51,40.55,5.7,6.83,10.33,14.59,13.62,23.03,3.56-13.43,4.44-27.35,2.74-40.96h0ZM103.79,8.65h0s-.07,0-.11,0c-6.3,0-12.45,.62-18.41,1.79,2.92,1.29,5.82,2.68,8.68,4.21,9.03,4.81,17.26,10.54,24.65,16.99,3.17,.99,6.24,2.17,9.23,3.51-6.36-9.96-14.42-18.95-24.04-26.5h0Zm7,.27h0c9.54,8.54,17.4,18.52,23.41,29.43,6.58,3.67,12.6,8.2,17.92,13.45-2.91-13.34-8.35-26.08-16.07-37.47-7.98-2.9-16.46-4.75-25.27-5.41h0Z"/><polygon class="cls-1" points="53.95 163.27 57.11 149.05 87.48 149.05 84.32 163.27 53.95 163.27"/></g></g><g id="Camada_1-3"><path class="cls-2" d="M179.03,46.38c6.36,84.01-84.34,142.73-158.32,101.62,74.79,56.03,224.61-14.26,158.32-101.62Z"/><path class="cls-2" d="M20.7,148.01c20.52,22.02,50.04,36.62,82.52,36.62,43.9,0,88.59-23.34,93.96-70.27-37.84,60.24-119.16,75.04-176.48,33.65Z"/><path class="cls-2" d="M20.7,148.01c25.49,44.41,82.8,62.81,127.59,38.77-52.6,14.65-95-4.13-127.59-38.77Z"/><path class="cls-2" d="M93.86,28.1c5.52,0,10.9,.56,16.11,1.59-10.74-7.41-22.91-12.9-36-15.98C22.73,30.66-3.64,87.07,15.28,136.96c-2.72-8.2-4.2-16.97-4.2-26.08,0-45.72,37.06-82.78,82.77-82.78Z"/><path class="cls-4" d="M173.75,40.03c-8.57-9.46-19.02-17.17-30.77-22.55,7.59,12.48,12.44,26.26,14.47,40.43,5.68,6.81,10.3,14.55,13.57,22.96,3.55-13.39,4.43-27.27,2.73-40.84h0ZM103.79,8.94h0s-.07,0-.11,0c-6.28,0-12.41,.62-18.35,1.79,2.91,1.28,5.8,2.67,8.66,4.2,9.01,4.8,17.2,10.51,24.57,16.94,3.16,.98,6.22,2.16,9.2,3.5-6.34-9.93-14.38-18.89-23.97-26.42h0Zm6.98,.27h0c9.52,8.52,17.35,18.47,23.34,29.34,6.56,3.66,12.57,8.17,17.87,13.41-2.9-13.3-8.32-26-16.02-37.36-7.96-2.89-16.41-4.74-25.19-5.39h0Z"/><polygon class="cls-1" points="54.09 163.09 57.25 148.91 87.53 148.91 84.37 163.09 54.09 163.09"/><path class="cls-2" d="M74.38,63.14l.16,3.19c-1.71,.4-3.15,.6-4.34,.6-2.08,0-3.91-.35-5.49-1.05-1.57-.71-2.79-1.77-3.66-3.2-.87-1.43-1.3-3.18-1.3-5.27,0-1.61,.24-3.05,.72-4.33,.48-1.28,1.17-2.35,2.08-3.22s2.01-1.53,3.29-1.97c1.28-.45,2.74-.67,4.36-.67,1.53,0,2.97,.26,4.31,.8l-.27,3.22c-1.19-.68-2.57-1.01-4.12-1.01-.96,0-1.84,.17-2.62,.51-.79,.35-1.46,.83-2.02,1.46-.56,.63-.99,1.37-1.29,2.21-.3,.84-.45,1.75-.45,2.73,0,1.29,.26,2.45,.78,3.48,.51,1.03,1.26,1.85,2.24,2.43,.97,.59,2.12,.88,3.45,.88,.74,0,1.51-.08,2.31-.23,.8-.15,1.42-.34,1.87-.56h0Zm2.05-6.11c0-1.96,.36-3.67,1.08-5.14,.71-1.48,1.77-2.62,3.18-3.43,1.4-.81,3.09-1.22,5.07-1.22s3.62,.41,5.04,1.24c1.41,.82,2.48,1.98,3.21,3.46s1.09,3.18,1.09,5.1-.36,3.64-1.09,5.14c-.72,1.5-1.79,2.67-3.2,3.51-1.41,.84-3.09,1.26-5.05,1.26s-3.68-.41-5.08-1.24c-1.4-.83-2.46-1.99-3.17-3.48-.71-1.49-1.07-3.22-1.07-5.18h0Zm3.99,0c0,1.21,.18,2.35,.55,3.39,.36,1.05,.95,1.9,1.75,2.54,.8,.65,1.81,.97,3.04,.97s2.25-.32,3.05-.97c.81-.65,1.39-1.49,1.76-2.54,.36-1.05,.55-2.18,.55-3.39s-.19-2.28-.57-3.32c-.38-1.04-.97-1.88-1.78-2.51-.8-.64-1.81-.96-3-.96s-2.19,.32-3,.96c-.81,.64-1.4,1.48-1.78,2.51-.38,1.04-.57,2.14-.57,3.32h0Zm18.18,9.58v-19.05h6.11l4.53,14.44h.05l4.53-14.44h6.12v19.05h-3.66v-15.72h-.05l-5.13,15.72h-3.66l-5.13-15.72-.05,.05v15.67h-3.66Zm24.84-9.58c0-1.96,.36-3.67,1.08-5.14,.71-1.48,1.77-2.62,3.18-3.43,1.4-.81,3.09-1.22,5.07-1.22s3.62,.41,5.04,1.24c1.41,.82,2.48,1.98,3.21,3.46s1.09,3.18,1.09,5.1-.36,3.64-1.09,5.14c-.72,1.5-1.79,2.67-3.2,3.51-1.41,.84-3.09,1.26-5.05,1.26s-3.68-.41-5.08-1.24c-1.4-.83-2.46-1.99-3.17-3.48-.71-1.49-1.07-3.22-1.07-5.18h0Zm3.99,0c0,1.21,.18,2.35,.55,3.39,.36,1.05,.95,1.9,1.75,2.54,.8,.65,1.81,.97,3.04,.97s2.25-.32,3.05-.97c.81-.65,1.39-1.49,1.76-2.54,.36-1.05,.55-2.18,.55-3.39s-.19-2.28-.57-3.32c-.38-1.04-.97-1.88-1.78-2.51-.8-.64-1.81-.96-3-.96s-2.19,.32-3,.96c-.81,.64-1.4,1.48-1.78,2.51-.38,1.04-.57,2.14-.57,3.32Z"/><path class="cls-2" d="M56.62,62.84l.3,3.03c-1.99,.6-3.77,.9-5.33,.9-1.09,0-2.1-.17-3.04-.52-.93-.34-1.68-.88-2.25-1.61-.57-.73-.85-1.65-.85-2.75,0-.83,.19-1.57,.58-2.21,.39-.65,.96-1.4,1.72-2.27,.76-.86,1.33-1.61,1.71-2.25,.38-.64,.57-1.37,.57-2.19h3.31c0,1.16-.18,2.13-.52,2.91-.35,.77-.83,1.51-1.44,2.22-.24,.26-.49,.53-.74,.81-.25,.28-.47,.54-.65,.78-.18,.25-.32,.52-.44,.81-.11,.3-.17,.61-.17,.96,0,.85,.3,1.47,.89,1.88s1.33,.6,2.2,.6c1.2,0,2.58-.36,4.15-1.09h0Zm-3.07-15.45v3.82h-3.77v-3.82h3.77Z"/><path class="cls-2" d="M35.72,90.98v-11.38h2.01v1.15h.03c.53-.89,1.37-1.34,2.51-1.34,.6,0,1.12,.11,1.55,.33,.43,.22,.79,.52,1.06,.91,.27,.39,.47,.84,.59,1.34,.12,.5,.19,1.04,.19,1.62s-.06,1.12-.19,1.63c-.13,.51-.32,.96-.6,1.36-.27,.4-.63,.71-1.07,.93s-.96,.34-1.58,.34c-.49,0-.92-.08-1.29-.24-.37-.16-.73-.45-1.08-.88h-.03v4.22h-2.1Zm4-9.93c-.32,0-.6,.08-.85,.23-.24,.15-.43,.36-.59,.61-.15,.25-.26,.53-.34,.84-.07,.31-.11,.61-.11,.9,0,.42,.06,.84,.18,1.24,.12,.4,.32,.73,.6,.99,.27,.26,.63,.39,1.07,.39s.78-.13,1.04-.4c.26-.27,.45-.6,.57-.99,.11-.39,.17-.81,.17-1.23s-.05-.81-.16-1.2c-.11-.39-.29-.72-.55-.98-.26-.26-.6-.39-1.03-.39h0Zm5.07,2.65c0-.87,.18-1.62,.55-2.27,.37-.65,.87-1.15,1.52-1.49,.65-.35,1.36-.52,2.15-.52s1.52,.17,2.17,.52c.65,.35,1.16,.85,1.52,1.49,.37,.65,.55,1.41,.55,2.27,0,.78-.17,1.48-.5,2.12-.34,.64-.83,1.14-1.47,1.5-.64,.37-1.39,.55-2.27,.55s-1.61-.18-2.25-.55c-.64-.37-1.13-.87-1.46-1.5-.34-.64-.51-1.34-.51-2.12h0Zm2.2-.26c0,.79,.15,1.45,.46,1.99,.31,.54,.83,.81,1.56,.81s1.26-.27,1.57-.81c.31-.54,.47-1.2,.47-1.99,0-.43-.08-.82-.23-1.19-.15-.37-.38-.66-.69-.88-.31-.22-.68-.33-1.12-.33s-.8,.11-1.11,.34c-.3,.22-.53,.52-.68,.89-.15,.37-.23,.76-.23,1.17h0Zm9.59,.17c0,.68,.14,1.29,.42,1.82s.73,.8,1.35,.8c.44,0,.79-.13,1.07-.39,.28-.26,.48-.59,.6-.99s.18-.81,.18-1.23c0-.29-.04-.59-.11-.9-.08-.31-.19-.59-.34-.84-.15-.25-.35-.45-.59-.6-.24-.15-.52-.23-.85-.23-.43,0-.77,.13-1.03,.39-.26,.26-.44,.59-.55,.98-.11,.39-.16,.79-.16,1.2h0Zm3.71,4.07v-.91h-.03c-.58,.73-1.41,1.1-2.48,1.1-.6,0-1.12-.11-1.55-.34-.43-.23-.79-.54-1.06-.94-.27-.39-.47-.85-.59-1.35-.13-.5-.19-1.05-.19-1.62s.06-1.12,.19-1.62c.13-.5,.32-.94,.59-1.33,.27-.39,.62-.7,1.05-.92,.43-.22,.95-.33,1.55-.33,.99,0,1.8,.38,2.42,1.13h.03v-4.63h2.1v11.77h-2.04Zm5.7-4.83h3.58c-.03-.56-.19-1.02-.46-1.37-.28-.35-.69-.53-1.25-.53s-1,.17-1.32,.52c-.32,.35-.5,.81-.55,1.38h0Zm4.99,2.67v1.71c-.77,.43-1.7,.64-2.78,.64-.66,0-1.25-.09-1.77-.28-.52-.19-.96-.46-1.33-.82-.36-.36-.64-.8-.83-1.32-.19-.52-.28-1.11-.28-1.77,0-.79,.14-1.51,.42-2.16,.28-.65,.71-1.17,1.27-1.54,.57-.38,1.25-.57,2.05-.57,1.41,0,2.41,.43,2.98,1.28,.57,.85,.86,2.05,.86,3.6h-5.58c.04,.64,.28,1.14,.69,1.5,.42,.36,.96,.54,1.61,.54,.81,0,1.71-.27,2.68-.82h0Zm2.21,2.16v-8.08h1.96v1.13h.03c.3-.46,.67-.79,1.1-1,.43-.21,.86-.32,1.3-.32,1.16,0,1.95,.48,2.39,1.43,.23-.46,.58-.82,1.05-1.06,.46-.25,.96-.37,1.48-.37,.94,0,1.6,.28,1.98,.84,.38,.56,.57,1.34,.57,2.33v5.1h-2.1v-4.81c0-.36-.02-.66-.06-.9-.04-.25-.15-.46-.33-.64-.18-.18-.45-.27-.82-.27-1.05,0-1.57,.9-1.57,2.71v3.92h-2.1v-4.81c0-.36-.02-.66-.06-.9-.04-.25-.15-.46-.33-.64-.18-.18-.45-.27-.82-.27-1.05,0-1.57,.9-1.57,2.71v3.92h-2.1Zm13.46-3.98c0-.87,.18-1.62,.55-2.27,.37-.65,.87-1.15,1.52-1.49,.65-.35,1.36-.52,2.15-.52s1.52,.17,2.17,.52c.65,.35,1.16,.85,1.52,1.49s.55,1.41,.55,2.27c0,.78-.17,1.48-.5,2.12-.34,.64-.83,1.14-1.47,1.5-.64,.37-1.39,.55-2.27,.55s-1.61-.18-2.25-.55c-.64-.37-1.13-.87-1.46-1.5-.34-.64-.51-1.34-.51-2.12h0Zm2.2-.26c0,.79,.15,1.45,.46,1.99,.31,.54,.83,.81,1.56,.81s1.26-.27,1.57-.81c.31-.54,.47-1.2,.47-1.99,0-.43-.08-.82-.23-1.19-.15-.37-.38-.66-.69-.88-.31-.22-.68-.33-1.12-.33s-.8,.11-1.11,.34c-.3,.22-.53,.52-.68,.89-.15,.37-.23,.76-.23,1.17h0Zm12.86-3.73l-.14,1.58c-.68-.23-1.31-.35-1.89-.35-.33,0-.63,.07-.87,.21-.25,.14-.37,.37-.37,.68,0,.28,.22,.5,.64,.66,.43,.16,.87,.32,1.34,.48,.46,.16,.86,.41,1.19,.75,.33,.34,.49,.84,.49,1.5,0,.6-.16,1.1-.47,1.49-.31,.39-.73,.68-1.25,.87-.52,.18-1.07,.27-1.67,.27-.72,0-1.51-.11-2.39-.35l.13-1.73c.71,.36,1.4,.54,2.07,.54,.34,0,.66-.08,.95-.23,.29-.15,.43-.41,.43-.76s-.11-.57-.34-.68c-.22-.11-.67-.27-1.34-.48-.67-.21-1.16-.48-1.49-.79-.33-.32-.49-.81-.49-1.46,0-.55,.15-1.02,.44-1.4,.29-.38,.68-.66,1.16-.84,.48-.18,1.01-.27,1.58-.27s1.36,.1,2.29,.3h0Zm6.39,7.97v-11.77h2.1v4.79h.03c.27-.4,.63-.72,1.07-.95,.44-.23,.93-.34,1.47-.34,.61,0,1.13,.13,1.54,.4,.41,.27,.72,.64,.91,1.12,.2,.48,.29,1.03,.29,1.65v5.1h-2.1v-4.31c0-.71-.08-1.28-.24-1.69-.16-.42-.53-.63-1.12-.63-.47,0-.84,.14-1.12,.43-.28,.28-.47,.63-.57,1.04s-.16,.82-.16,1.22v3.95h-2.11Zm10.02-5.85l-.06-1.8c.41-.19,.86-.33,1.37-.44,.51-.11,.99-.17,1.44-.17,.83,0,1.49,.12,2,.35,.51,.24,.88,.6,1.12,1.1,.24,.5,.36,1.15,.36,1.95v1.04c0,.63,.01,1.31,.03,2.02,.01,.55,.04,1.16,.09,1.8h-1.85c-.03-.14-.04-.28-.05-.43-.01-.15-.02-.27-.02-.36,0-.08-.01-.22-.02-.42h-.03c-.23,.43-.58,.77-1.05,1.02-.46,.25-.95,.38-1.44,.38s-.95-.1-1.38-.29c-.44-.19-.79-.47-1.05-.83s-.4-.79-.4-1.28c0-1.08,.46-1.85,1.38-2.31,.64-.31,1.55-.47,2.71-.47h1.16c0-.64-.14-1.08-.43-1.35-.29-.26-.75-.39-1.39-.39-.29,0-.58,.04-.88,.11-.3,.07-.58,.17-.85,.31-.27,.13-.53,.28-.77,.46h0Zm1.07,3.51c0,.33,.12,.57,.37,.74,.25,.16,.57,.25,.96,.25,.63,0,1.12-.24,1.47-.72,.3-.38,.44-.94,.44-1.66h-.91c-1.56,0-2.34,.46-2.34,1.4h0Zm12.66-5.66l-.19,1.66c-.44-.2-.92-.3-1.43-.3-.42,0-.8,.11-1.12,.32-.32,.22-.57,.52-.75,.9-.18,.39-.26,.83-.26,1.34,0,.78,.19,1.42,.56,1.9,.37,.49,.91,.73,1.62,.73,.5,0,1.04-.13,1.62-.38l.1,1.75c-.57,.18-1.28,.26-2.1,.26s-1.58-.18-2.19-.54c-.6-.36-1.05-.87-1.35-1.51-.3-.64-.45-1.38-.45-2.22,0-.78,.15-1.49,.46-2.13,.31-.64,.75-1.14,1.34-1.51s1.29-.55,2.11-.55c.76,0,1.44,.09,2.04,.27h0Zm3.03,3.17h3.58c-.03-.56-.19-1.02-.46-1.37-.28-.35-.69-.53-1.25-.53s-1,.17-1.32,.52c-.32,.35-.5,.81-.55,1.38h0Zm4.99,2.67v1.71c-.77,.43-1.7,.64-2.78,.64-.66,0-1.25-.09-1.77-.28-.52-.19-.96-.46-1.33-.82-.36-.36-.64-.8-.83-1.32-.19-.52-.28-1.11-.28-1.77,0-.79,.14-1.51,.42-2.16s.71-1.17,1.27-1.54c.57-.38,1.25-.57,2.05-.57,1.41,0,2.41,.43,2.98,1.28,.57,.85,.86,2.05,.86,3.6h-5.58c.04,.64,.28,1.14,.69,1.5,.42,.36,.96,.54,1.61,.54,.81,0,1.71-.27,2.68-.82h0Zm2.29,2.16v-8.08h1.86v1.84h.03c.03-.27,.15-.57,.35-.88,.2-.32,.46-.59,.79-.81,.33-.22,.68-.33,1.07-.33,.28,0,.5,.02,.64,.06v2.12c-.19-.11-.51-.17-.94-.17-.52,0-.91,.18-1.16,.53-.25,.35-.41,.76-.46,1.21-.06,.45-.09,.97-.09,1.55v2.97h-2.1Z"/><path class="cls-2" d="M35.48,106.51l-.14,1.61c-.69-.23-1.33-.35-1.92-.35-.34,0-.64,.07-.88,.22-.25,.15-.38,.38-.38,.69,0,.28,.22,.51,.65,.67,.44,.16,.89,.33,1.36,.49,.47,.16,.87,.41,1.21,.76,.33,.34,.5,.85,.5,1.53,0,.61-.16,1.12-.48,1.52s-.74,.7-1.27,.89c-.53,.19-1.09,.28-1.7,.28-.73,0-1.54-.12-2.43-.35l.13-1.76c.73,.36,1.43,.55,2.11,.55,.35,0,.67-.08,.96-.24s.44-.41,.44-.77-.11-.58-.35-.69c-.23-.11-.68-.28-1.36-.49-.68-.22-1.18-.48-1.52-.81-.33-.32-.5-.82-.5-1.49,0-.56,.15-1.04,.44-1.42,.3-.39,.69-.67,1.18-.86,.49-.18,1.03-.28,1.61-.28s1.39,.1,2.33,.3h0Zm9.62-.11v8.23h-2.03v-1.12h-.03c-.72,.87-1.62,1.31-2.7,1.31-.62,0-1.15-.14-1.57-.41-.42-.27-.73-.65-.93-1.14-.2-.49-.3-1.04-.3-1.68v-5.19h2.14v4.39c0,.45,.02,.84,.07,1.17,.05,.33,.18,.61,.38,.84,.2,.23,.52,.35,.94,.35,.47,0,.85-.14,1.14-.43,.28-.29,.48-.64,.58-1.04,.11-.41,.16-.83,.16-1.26v-4.03h2.14Zm11.35,8.23l-5.57-16.19h3.48l4.16,12.72h.04l4.11-12.72h3.22l-5.45,16.19h-3.99Zm11.28,0v-16.19h3.25v16.19h-3.25Zm6.73,0v-16.19h4.43c6.23,0,9.35,2.7,9.35,8.09,0,1.56-.24,2.87-.74,3.92-.49,1.06-1.16,1.89-2.02,2.5-.86,.61-1.85,1.04-2.95,1.3-1.11,.25-2.32,.38-3.64,.38h-4.43Zm3.25-13.64v11.09h1.81c.92,0,1.79-.22,2.61-.66,.82-.44,1.48-1.09,1.98-1.93,.5-.84,.75-1.83,.75-2.95,0-.86-.15-1.63-.44-2.32-.29-.7-.69-1.28-1.19-1.76-.5-.48-1.07-.84-1.71-1.09-.64-.25-1.3-.37-1.99-.37h-1.81Zm22.27,7.37l-2.34-6.69h-.05l-2.35,6.69h4.74Zm-10.44,6.26l6.31-16.19h3.66l6.36,16.19h-3.59l-1.39-3.71h-6.57l-1.42,3.71h-3.36Zm21.95,0v-8.08h1.96v1.13h.03c.3-.46,.67-.79,1.1-1,.43-.21,.86-.32,1.3-.32,1.16,0,1.95,.48,2.38,1.43,.23-.46,.58-.82,1.05-1.06,.46-.25,.96-.37,1.48-.37,.94,0,1.6,.28,1.98,.84,.38,.56,.57,1.34,.57,2.33v5.1h-2.1v-4.81c0-.36-.02-.66-.06-.9-.04-.25-.15-.46-.33-.64s-.45-.27-.82-.27c-1.05,0-1.57,.9-1.57,2.71v3.92h-2.1v-4.81c0-.36-.02-.66-.06-.9-.04-.25-.15-.46-.33-.64s-.45-.27-.82-.27c-1.05,0-1.57,.9-1.57,2.71v3.92h-2.1Zm14.4-5.85l-.06-1.8c.41-.19,.86-.33,1.37-.44,.51-.11,.99-.17,1.44-.17,.83,0,1.49,.12,2,.35,.51,.24,.88,.6,1.12,1.1,.24,.5,.36,1.15,.36,1.95v1.04c0,.63,.01,1.31,.03,2.02,.01,.55,.04,1.16,.09,1.8h-1.85c-.03-.14-.04-.28-.05-.43-.01-.15-.02-.27-.02-.36,0-.08-.01-.22-.02-.42h-.03c-.23,.43-.58,.77-1.05,1.02-.46,.25-.95,.38-1.44,.38s-.95-.1-1.38-.29c-.44-.19-.79-.47-1.05-.83s-.4-.79-.4-1.28c0-1.08,.46-1.85,1.38-2.31,.64-.31,1.55-.47,2.71-.47h1.16c0-.64-.14-1.08-.43-1.35-.29-.26-.75-.39-1.39-.39-.29,0-.58,.04-.88,.11s-.58,.17-.85,.31c-.27,.13-.53,.28-.77,.46h0Zm1.07,3.52c0,.33,.12,.57,.37,.74,.25,.16,.57,.25,.96,.25,.63,0,1.12-.24,1.47-.72,.3-.38,.44-.94,.44-1.66h-.91c-1.56,0-2.34,.46-2.34,1.4h0Zm12.18-5.63l-.14,1.58c-.68-.23-1.31-.35-1.89-.35-.33,0-.63,.07-.87,.21-.25,.14-.37,.37-.37,.68,0,.28,.22,.5,.64,.66,.43,.16,.87,.32,1.34,.48,.46,.16,.86,.41,1.19,.75,.33,.34,.49,.84,.49,1.5,0,.6-.16,1.1-.47,1.49s-.73,.68-1.25,.87c-.52,.18-1.07,.27-1.67,.27-.72,0-1.51-.11-2.39-.35l.13-1.73c.71,.36,1.4,.54,2.07,.54,.34,0,.66-.08,.95-.23,.29-.15,.43-.41,.43-.76s-.11-.57-.34-.68c-.22-.11-.67-.27-1.34-.48-.67-.21-1.16-.48-1.49-.79-.33-.32-.49-.81-.49-1.46,0-.55,.15-1.02,.44-1.4,.29-.38,.68-.66,1.16-.84,.48-.18,1.01-.27,1.58-.27s1.36,.1,2.29,.3h0Z"/><path class="cls-2" d="M40.63,139.36v-6.54h-1.55v-1.54h1.55v-1.13c0-.82,.22-1.49,.68-1.99,.45-.5,1.09-.75,1.9-.75,.54,0,1.05,.06,1.54,.17l-.17,1.74c-.32-.19-.62-.28-.91-.28-.62,0-.93,.41-.93,1.24v1.01h1.84v1.54h-1.84v6.54h-2.1Zm5.76-5.85l-.06-1.8c.41-.19,.86-.33,1.37-.44,.51-.11,.99-.17,1.44-.17,.83,0,1.49,.12,2,.35,.51,.24,.88,.6,1.12,1.1,.24,.5,.36,1.15,.36,1.95v1.04c0,.63,.01,1.31,.03,2.02,.01,.55,.04,1.16,.09,1.8h-1.85c-.03-.14-.04-.28-.05-.43-.01-.15-.02-.27-.02-.36,0-.08-.01-.22-.02-.42h-.03c-.23,.43-.58,.77-1.05,1.02-.46,.25-.95,.38-1.44,.38s-.95-.1-1.38-.29c-.44-.19-.79-.47-1.05-.83s-.4-.79-.4-1.28c0-1.08,.46-1.85,1.38-2.31,.64-.31,1.55-.47,2.71-.47h1.16c0-.64-.14-1.08-.43-1.35-.29-.26-.75-.39-1.39-.39-.29,0-.58,.04-.88,.11s-.58,.17-.85,.31c-.27,.13-.53,.28-.77,.46h0Zm1.07,3.51c0,.33,.12,.57,.37,.74,.25,.16,.57,.25,.96,.25,.63,0,1.12-.24,1.47-.72,.3-.38,.44-.94,.44-1.66h-.91c-1.56,0-2.34,.46-2.34,1.4h0Zm12.66-5.66l-.19,1.66c-.44-.2-.92-.3-1.43-.3-.42,0-.8,.11-1.12,.32-.32,.22-.57,.52-.75,.9-.18,.39-.26,.83-.26,1.34,0,.78,.19,1.42,.56,1.9,.37,.49,.91,.73,1.62,.73,.5,0,1.04-.13,1.62-.38l.1,1.75c-.57,.18-1.28,.26-2.1,.26s-1.58-.18-2.19-.54c-.6-.36-1.05-.87-1.35-1.51-.3-.64-.45-1.38-.45-2.22,0-.78,.15-1.49,.46-2.13,.31-.64,.75-1.14,1.34-1.51,.59-.37,1.29-.55,2.11-.55,.76,0,1.44,.09,2.04,.27h0Zm1.59,8v-8.08h2.1v8.08h-2.1Zm0-9.56v-2.01h2.1v2.01h-2.1Zm4.36,9.56v-11.77h2.1v11.77h-2.1Zm9.25,0v-14.29h2.87v5.77h5.73v-5.77h2.87v14.29h-2.87v-6.26h-5.73v6.26h-2.87Zm14.08-7.18c0-1.47,.27-2.75,.81-3.86,.54-1.11,1.33-1.97,2.38-2.58,1.05-.61,2.32-.91,3.8-.91s2.72,.31,3.78,.93c1.06,.62,1.86,1.48,2.41,2.6,.55,1.11,.82,2.39,.82,3.82s-.27,2.73-.82,3.85c-.54,1.12-1.34,2-2.4,2.63-1.06,.63-2.32,.95-3.79,.95s-2.76-.31-3.81-.93c-1.05-.62-1.85-1.49-2.38-2.61-.54-1.12-.8-2.42-.8-3.89h0Zm2.99,0c0,.91,.14,1.76,.41,2.54,.27,.79,.71,1.42,1.31,1.91,.6,.48,1.36,.73,2.28,.73s1.69-.24,2.29-.73c.6-.48,1.04-1.12,1.32-1.91,.27-.79,.41-1.63,.41-2.54s-.14-1.71-.43-2.49c-.29-.78-.73-1.41-1.34-1.89-.6-.48-1.35-.72-2.25-.72s-1.64,.24-2.25,.72c-.6,.48-1.05,1.11-1.33,1.89-.28,.78-.43,1.61-.43,2.49h0Zm17.42,7.18v-5.65l-5.22-8.64h3.36l3.38,6,3.44-6h3.03l-5.12,8.64v5.65h-2.86Zm9.46-11.59l-.22-2.27c1.51-.45,2.86-.68,4.05-.68,.83,0,1.6,.13,2.31,.39,.71,.26,1.28,.66,1.71,1.21,.43,.55,.65,1.23,.65,2.06,0,.62-.15,1.18-.44,1.66-.29,.48-.73,1.05-1.31,1.7-.58,.65-1.01,1.21-1.3,1.69-.29,.48-.43,1.02-.43,1.64h-2.52c0-.87,.13-1.6,.4-2.18,.26-.58,.63-1.14,1.09-1.67,.18-.2,.37-.4,.57-.6,.19-.21,.35-.4,.49-.59,.14-.19,.25-.39,.33-.61,.08-.22,.13-.46,.13-.72,0-.63-.22-1.11-.68-1.41s-1.01-.45-1.67-.45c-.91,0-1.96,.27-3.15,.82h0Zm2.33,11.59v-2.87h2.87v2.87h-2.87Z"/><polygon class="cls-2" points="87.33 39.9 84.13 45.52 87.33 45.52 92.6 39.9 87.33 39.9"/><polygon class="cls-2" points="50.08 128.06 48.78 130.35 50.08 130.35 52.23 128.06 50.08 128.06"/><polygon class="cls-2" points="129.56 103.34 128.26 105.63 129.56 105.63 131.72 103.34 129.56 103.34"/></g></g></g></svg>