<?xml version="1.0" encoding="UTF-8"?><svg id="Camada_2" xmlns="http://www.w3.org/2000/svg" viewBox="0 0 232.74 354.94"><defs><style>.cls-1{fill:#f3992b;}.cls-2{fill:#f49f36;}.cls-3{fill:#fbe1c2;}</style></defs><g id="Camada_1-2"><g><path class="cls-1" d="M0,338.89c0-.4,0-.8,0-1.2,.08-.46,.23-.93,.23-1.39,.01-57.43,.01-114.87,0-172.3,0-.46-.15-.93-.23-1.39,0-.48,0-.96,0-1.44,.15-.39,.33-.78,.43-1.18,1.91-7.6,6.62-12.51,14.28-14.16,2.96-.64,6.11-.37,9.18-.49,1.74-.07,1.62,.26,1.62-1.59,0-17.3,0-34.6,0-51.9,0-5.4,.37-10.77,1.3-16.1,3.67-20.9,13.37-38.49,29.19-52.58C72.32,8.62,91.55,1.08,113.39,.2c1.93,0,3.86,0,5.78,0,6.04,.13,12.01,.9,17.87,2.31,20.33,4.89,37.16,15.44,50.22,31.77,12.97,16.21,19.68,34.8,19.84,55.59,.14,17.79,.04,35.58,.04,53.36,0,2.1,0,2.05,2.05,2.11,2.95,.08,5.97-.16,8.82,.44,8.96,1.89,14.71,9.37,14.71,18.7,0,57.08,0,114.16-.02,171.24,0,1.66-.18,3.36-.58,4.97-2.12,8.59-9.45,14.25-18.37,14.25-36.28,0-72.56-.03-108.84-.04-16.22,0-32.45,0-48.67,0-12.43,0-24.85,.02-37.28,0-9.34-.02-16.62-5.92-18.63-15.03-.07-.33-.23-.64-.35-.97ZM116.16,145.33h0c17.74,0,35.47-.02,53.21,.01,1.06,0,1.41-.22,1.41-1.36-.04-15.46-.04-30.93-.02-46.39,0-4.33-.46-8.59-1.48-12.8-6.98-28.81-35.46-46.75-64.37-40.53-25.48,5.48-43.02,27.49-43.05,53.55-.02,15.38,0,30.77-.03,46.15,0,1.07,.24,1.39,1.36,1.39,17.66-.04,35.31-.03,52.97-.03Zm.13,155.66c5.75,0,11.51,0,17.26,0,.52,0,1.06,.12,.92-.76-.51-3.19-.98-6.38-1.47-9.57-1.09-7.09-2.19-14.17-3.27-21.26-1-6.58-1.94-13.16-3-19.73-.16-1.01,0-1.46,.93-1.92,10.31-5.1,15.88-16.19,13.84-27.46-2.68-14.82-17.64-24.21-32.06-20.13-9.94,2.81-17.37,11.43-18.54,21.49-1.22,10.53,3.81,20.46,13,25.55,.81,.45,1.02,.9,.9,1.77-.47,3.32-.86,6.65-1.29,9.98-1.75,13.63-3.48,27.26-5.27,40.88-.13,1.01,.1,1.18,1.04,1.18,5.67-.04,11.35-.02,17.02-.02Z"/><path class="cls-2" d="M0,162.61c.08,.46,.23,.93,.23,1.39,.01,57.43,.01,114.87,0,172.3,0,.46-.15,.93-.23,1.39,0-58.36,0-116.72,0-175.08Z"/><path class="cls-3" d="M113.39,.2c0-.07,.01-.14,.01-.2h5.75c0,.06,.01,.13,.02,.2-1.93,0-3.86,0-5.78,0Z"/></g></g></svg>