<?xml version="1.0" encoding="utf-8"?>
<!-- Generator: Adobe Illustrator 26.2.1, SVG Export Plug-In . SVG Version: 6.00 Build 0)  -->
<svg version="1.1" id="Layer_1" xmlns="http://www.w3.org/2000/svg" xmlns:xlink="http://www.w3.org/1999/xlink" x="0px" y="0px"
	 viewBox="0 0 1632.9 1711.8" style="enable-background:new 0 0 1632.9 1711.8;" xml:space="preserve">
<style type="text/css">
	.st0{fill-rule:evenodd;clip-rule:evenodd;fill:#A78C72;}
	.st1{fill-rule:evenodd;clip-rule:evenodd;fill:#F59B2C;}
	.st2{fill-rule:evenodd;clip-rule:evenodd;fill:#EDCD8B;}
	.st3{fill-rule:evenodd;clip-rule:evenodd;fill:#DB6D3A;}
	.st4{fill-rule:evenodd;clip-rule:evenodd;fill:#6E879A;}
	.st5{fill-rule:evenodd;clip-rule:evenodd;fill:#FBF9D9;}
	.st6{fill-rule:evenodd;clip-rule:evenodd;fill:#094561;}
	.st7{fill-rule:evenodd;clip-rule:evenodd;fill:#D2D4D4;}
	.st8{fill-rule:evenodd;clip-rule:evenodd;fill:#A9ACAF;}
	.st9{fill-rule:evenodd;clip-rule:evenodd;fill:#CE753F;}
	.st10{fill-rule:evenodd;clip-rule:evenodd;fill:#FEFEFE;}
	.st11{fill:#808080;}
	.st12{fill-rule:evenodd;clip-rule:evenodd;fill:#D9B362;}
	.st13{fill-rule:evenodd;clip-rule:evenodd;fill:#E8E9EA;}
	.st14{fill-rule:evenodd;clip-rule:evenodd;fill:#848588;}
	.st15{fill-rule:evenodd;clip-rule:evenodd;fill:#737576;}
	.st16{fill-rule:evenodd;clip-rule:evenodd;fill:#E68039;}
	.st17{fill-rule:evenodd;clip-rule:evenodd;fill:#A7C5D1;}
	.st18{fill-rule:evenodd;clip-rule:evenodd;fill:#959798;}
	.st19{fill-rule:evenodd;clip-rule:evenodd;fill:#C3CED4;}
	.st20{fill-rule:evenodd;clip-rule:evenodd;fill:#9FA6AD;}
	.st21{fill-rule:evenodd;clip-rule:evenodd;fill:#D8E0E7;}
	.st22{fill-rule:evenodd;clip-rule:evenodd;fill:#8B9598;}
	.st23{fill-rule:evenodd;clip-rule:evenodd;fill:#7C8588;}
	.st24{fill-rule:evenodd;clip-rule:evenodd;fill:#626163;}
	.st25{fill-rule:evenodd;clip-rule:evenodd;fill:#BFBEC0;}
	.st26{fill-rule:evenodd;clip-rule:evenodd;fill:#BCBFC1;}
	.st27{fill-rule:evenodd;clip-rule:evenodd;fill:#616163;}
	.st28{fill-rule:evenodd;clip-rule:evenodd;fill:#E8E7E8;}
	.st29{fill-rule:evenodd;clip-rule:evenodd;fill:#D2D2D3;}
	.st30{fill-rule:evenodd;clip-rule:evenodd;fill:#A8AAAE;}
	.st31{fill-rule:evenodd;clip-rule:evenodd;fill:#4D4E4F;}
	.st32{fill-rule:evenodd;clip-rule:evenodd;fill:#808080;}
	.st33{fill:#094561;}
	.st34{fill:#F59B2C;}
</style>
<g id="Camada_x0020_1">
	<g id="_2539199275520">
		<g>
			<g>
				<polygon class="st0" points="696.8,1632.4 912,1632.4 912,1407.9 696.8,1407.9 				"/>
				<polygon class="st1" points="923.3,1400.3 704.1,1400.3 703.9,1624.2 923.3,1625.4 				"/>
				<polygon class="st2" points="727.5,1449.8 778.4,1432.9 799,1411.3 827,1404.6 893.8,1400.3 923.3,1400.3 923.3,1537.4 
					923,1541.8 909.2,1558 891.5,1546.8 839.8,1570.8 833.5,1585 827.8,1610.9 778.1,1617 736.9,1621 729.9,1608.9 717.7,1593 
					714.6,1538.6 720,1520 704.1,1501 719.6,1481.6 				"/>
				<polygon class="st3" points="892.7,1460.4 904.3,1476.4 893.5,1484.1 882.5,1494.8 869.8,1514.5 850.7,1503.9 838.6,1527.8 
					817.4,1518.4 817.4,1505.4 808.1,1502 795.1,1482.5 795.5,1471.1 785.6,1468.6 776.4,1461.7 795.2,1450.8 811.5,1454.3 
					816.7,1464.7 835.1,1465.9 870.5,1463.6 				"/>
				<polygon class="st3" points="771.5,1605.1 777.5,1613.3 771.9,1617.2 766.3,1622.8 765.2,1624.5 726.7,1624.3 721.5,1616.4 
					721.7,1610.6 716.6,1609.3 711.9,1605.8 721.5,1600.2 729.9,1602 732.6,1607.3 742,1607.9 760.1,1606.8 				"/>
				<path class="st4" d="M704,1552.1c5.4-1.8,11-3,16.7-3.6c7.1-0.7,13.3-4.2,19-8.9c5.9-4.9,11.2-11.1,16.1-16.8
					c5.8-6.8,12.9-11.4,19.6-15.7c6.4-4.1,12.3-7.9,15.8-13v0l0,0v0c2.2-3.2,4.7-6,7.5-8.6c2.8-2.6,5.9-4.9,9.1-7
					c16.6-10.7,38.6-15.4,56.2-16.8v0h0v0c2-0.2,5.3-3.5,8.5-6.7c4.2-4.2,8.2-8.3,12.2-7.5c10.5,2.1,18.7,2.8,26.6,1.6
					c3.9-0.5,7.8-1.5,12-3v5.5c-3.9,1.3-7.6,2.1-11.3,2.7c-8.6,1.2-17.2,0.5-28.3-1.7c-1.2-0.2-4.3,2.9-7.5,6.1
					c-3.8,3.8-7.8,7.8-11.6,8.2h-0.1l0,0c-16.9,1.4-38,5.9-53.8,16c-3,1.9-5.9,4.1-8.4,6.5c-2.6,2.4-4.8,5-6.8,7.8v0l0,0l0,0
					c-4.1,5.9-10.4,10-17.3,14.4c-6.4,4.1-13.2,8.5-18.5,14.7c-5.1,5.9-10.5,12.4-16.7,17.5c-6.4,5.3-13.6,9.3-21.8,10
					c-5.9,0.6-11.6,2-17.2,3.9L704,1552.1L704,1552.1z"/>
				<path class="st5" d="M923.3,1593.2l-9.5-0.3l-1.1,0l-1-0.4l-45.4-20l-30.6-6.6c-3.7,4.8-6.9,10.1-10.2,15.3
					c-6.8,10.9-13.5,21.7-24,29c-7.4,5.1-16.5,5.5-25.6,5.8c-7.4,0.3-14.8,0.6-21,3.5c-3.3,1.5-6.5,3.2-9.6,4.9l-7.5,0
					c5.1-2.9,10.2-5.7,15.5-8.2c6.9-3.3,14.7-3.6,22.4-3.9c8.6-0.3,17.1-0.7,23.6-5.2c9.9-6.8,16.4-17.3,22.9-27.9
					c3-4.8,6-9.7,9.4-14.2l-15.8-3.4l-3.2-0.7l-0.9-3.2l-4.8-16.9l-11.3-10l-1.4-1.3l-0.3-1.9l-4-21.5l-28.2-33.3l-0.8-1l-0.3-1.3
					l-11.6-46.3h0l-6.1-24.1h11.4l5.4,21.4v0l2.8,11.1l0.7,1.3c4.6,8,9.1,16.1,16.1,21.6c3.9,3.1,9.3,3.6,14.8,4.2
					c5.3,0.6,10.7,1.1,15.2,3.9c9.8,5.9,17.7,14.1,25.6,22.4c11.2,5,22.2,8.4,33.1,10.3c11.2,2,22.4,2.4,33.7,1.2
					c7.3-0.7,14.5-3.8,21.6-7.5v4.1c-6.9,3.5-13.9,6.3-21.3,7c-11.7,1.2-23.2,0.8-34.7-1.3c-8.6-1.5-17.3-4-26.1-7.3
					c0.5,0.5,1,1,1.5,1.5h0v0c1,1,2.1,2,3.2,3.1c4.3,4,8.8,8.1,10.5,13.9c1.7,5.7,3.3,11.7,3.9,17.8c0.7,6.2,0.4,12.4-1.6,18.2
					c-1.6,4.8-6.2,6.8-10.9,8.8c-0.6,0.3-1.2,0.5-1.8,0.8l23.1,4.9l0.6,0.1l0.5,0.2l44.9,19.8l8.1,0.2L923.3,1593.2L923.3,1593.2z
					 M765.5,1445.4l5.3,21.4l28.4,33.5l0.9,1.1l0.3,1.5l3.9,21.1l11.1,9.8l1.2,1.1l0.4,1.5l4.4,15.2l19,4.1c1.9-1.2,4-2.1,6-3
					c3.9-1.7,7.7-3.3,8.8-6.6c1.8-5.2,2-10.9,1.4-16.6c-0.6-5.8-2.1-11.7-3.8-17.1c-1.5-4.8-5.5-8.6-9.5-12.3
					c-1.1-1-2.2-2.1-3.3-3.2l0,0v0c-2.4-2.4-4.8-4.9-7.2-7.4l-0.3-0.3l-0.4-0.2l0.1-0.1c-7.8-8.1-15.6-16.3-25-22
					c-3.9-2.3-8.8-2.9-13.7-3.4c-6-0.6-11.9-1.3-16.7-5C772.3,1454.9,768.7,1450.3,765.5,1445.4L765.5,1445.4L765.5,1445.4z"/>
				<path class="st0" d="M923.3,1593.9l-9.5-0.3l-1.1,0h-0.1l-0.1-0.1l-1-0.4l-45.3-20l-30.9-6.6c0.3-0.4,0.7-0.9,1-1.3l30.3,6.5
					l0.1,0l0.1,0l45.4,20l0.8,0.4l1,0l9.5,0.3L923.3,1593.9L923.3,1593.9z M831.2,1565.7l-15.5-3.3l-3.3-0.7l-0.4-0.1l-0.1-0.4
					l-0.9-3.2l-4.8-16.6l-11.1-9.8l-1.4-1.3l-0.2-0.2l0-0.3l-0.3-1.9l-3.9-21.3l-28.1-33.2l-0.8-1l-0.1-0.1l0-0.2l-0.3-1.3
					l-11.4-45.6l0,0l-0.2-0.7l-6.1-24.1l0,0l0-0.2h1.5l5.9,23.2l0,0l0.2,0.7l11.5,46.3l0.3,1.1l0.7,0.8l28.2,33.3l0.1,0.1l0,0.2
					l4,21.5l0.3,1.6l1.2,1.1l11.3,10l0.2,0.1l0.1,0.2l4.8,16.9l0.8,2.8l2.8,0.6l16.1,3.5C831.9,1564.8,831.6,1565.2,831.2,1565.7
					L831.2,1565.7L831.2,1565.7z M755,1400.3h-1.5l0,0.1l0,0.1v0l5.4,21.3v0l0,0.1l2.1,8.5c0.7,1.2,1.4,2.4,2.1,3.6l0.7,1.2
					l-3.4-13.6v0l0-0.1L755,1400.3L755,1400.3L755,1400.3z M766.8,1447.3c-0.9-1.3-1.7-2.5-2.5-3.9l5.9,23.6l0,0.2l0.1,0.1
					l28.4,33.5l0.8,1l0.2,1.3l3.9,21.1l0,0.3l0.2,0.2l11.1,9.8l1.1,0.9l0.4,1.3l4.4,15.2l0.1,0.4l0.4,0.1l18.3,3.9
					c0.6-0.4,1.2-0.8,1.8-1.1l-19.3-4.1l-4.2-14.8l-0.4-1.5l-0.1-0.2l-0.2-0.1l-1.2-1.1l-10.9-9.6l-3.9-20.9l-0.3-1.5l0-0.2
					l-0.1-0.1l-0.9-1.1l-28.2-33.3L766.8,1447.3L766.8,1447.3L766.8,1447.3z M847.2,1556.3c-0.8,0.3-1.5,0.7-2.3,1l24.1,5.2l0.5,0.1
					l0.4,0.2l44.9,19.8l0.1,0.1h0.2l8.1,0.2h0v-1.5l-8-0.2l-44.8-19.7l-0.5-0.2l-0.1,0l-0.1,0l-0.6-0.1L847.2,1556.3L847.2,1556.3
					L847.2,1556.3z"/>
				<path class="st6" d="M851.1,1427.6c5,1,9,4.6,9,7.9c0,3.3-4,5.1-9,4.1c-5-1-9-4.6-9-7.9C842.1,1428.3,846.2,1426.5,851.1,1427.6
					L851.1,1427.6z"/>
				<path class="st7" d="M864.1,1377.4l9.3,3.6l-20.4,52.4c-2,3.3-11.5,1.8-9.3-3.6L864.1,1377.4z"/>
				<path class="st8" d="M869.2,1379.4L869.2,1379.4l4.2,1.6l-20.4,52.4c-0.9,1.5-3.2,2-5.4,1.6L869.2,1379.4z"/>
				<path class="st9" d="M870.7,1395.5c11.3,0,20.6-9.2,20.6-20.6c0-11.3-9.2-20.6-20.6-20.6c-11.3,0-20.6,9.2-20.6,20.6
					C850.1,1386.2,859.4,1395.5,870.7,1395.5z"/>
				<path class="st3" d="M870.7,1354.3c5.2,0,10,1.9,13.6,5.2c0.5,2.1,0.8,4.2,0.8,6.5c0,14-11.4,25.4-25.4,25.4c-0.5,0-0.9,0-1.4,0
					c-5-3.8-8.2-9.7-8.2-16.5C850.1,1363.5,859.3,1354.3,870.7,1354.3L870.7,1354.3z"/>
				<path class="st10" d="M860.8,1360.8c2-1.8,4.4-2.3,5.4-1.2c1,1.1,0.2,3.5-1.8,5.2c-2,1.8-4.4,2.3-5.4,1.2
					C858,1364.9,858.8,1362.6,860.8,1360.8z"/>
			</g>
			<path class="st11" d="M732.3,1679.4c0,8-4.4,12-13.2,12h-15.4v19.8h-4.2v-43.6H721c3.9,0,6.9,1.3,8.9,3.9
				C731.5,1673.5,732.3,1676.2,732.3,1679.4z M728.1,1679.4c0-2.1-0.4-3.8-1.2-5c-1.4-2.1-4-3.1-7.7-3.1h-15.6v16.2h13.9
				C724.6,1687.6,728.1,1684.9,728.1,1679.4z M742,1711.2h-4.2v-43.6h4.2V1711.2z M785.1,1701.4c-2.8,7.3-8.5,10.9-17,10.9
				c-6.4,0-11.2-2.3-14.5-6.9c-2.8-4-4.2-9.3-4.2-16.1c0-7.8,1.9-13.6,5.6-17.7c3.3-3.5,7.5-5.3,12.7-5.3c4.4,0,8,0.9,10.7,2.6
				c2.7,1.8,5,4.7,6.7,8.7l-4.2,2.1c-1-3.4-2.5-5.8-4.5-7.3c-2-1.5-4.7-2.2-8.3-2.2c-5.1,0-8.9,2-11.4,6c-2.1,3.4-3.2,7.7-3.2,13.1
				c0,12.7,5.1,19.1,15.3,19.1c6,0,10.1-3.1,12.3-9.3L785.1,1701.4L785.1,1701.4z M825.6,1711.2h-5.1l-16.4-23.5l-9.5,9.6v13.9h-4.2
				v-43.6h4.2v24.2l23.7-24.2h5.8l-17,17.2L825.6,1711.2L825.6,1711.2z M878.6,1697c0,4.9-1.5,8.7-4.4,11.4
				c-2.8,2.6-6.7,3.9-11.7,3.9c-5,0-8.8-1.3-11.7-3.9c-2.9-2.7-4.4-6.5-4.4-11.4v-29.5h4.2v29.4c0,3.8,1,6.7,3.1,8.6
				c2.1,2,5,3,8.8,3c7.9,0,11.9-3.9,11.9-11.6v-29.4h4.2L878.6,1697L878.6,1697z M920.7,1679.4c0,8-4.4,12-13.2,12H892v19.8h-4.2
				v-43.6h21.5c3.9,0,6.9,1.3,8.9,3.9C919.9,1673.5,920.7,1676.2,920.7,1679.4z M916.5,1679.4c0-2.1-0.4-3.8-1.2-5
				c-1.4-2.1-4-3.1-7.7-3.1H892v16.2h13.9C913,1687.6,916.5,1684.9,916.5,1679.4L916.5,1679.4z"/>
		</g>
		<g>
			<g>
				<polygon class="st0" points="1161.3,1435 1346.2,1435 1346.2,1246.2 1161.3,1246.2 				"/>
				<polygon class="st12" points="1167.2,1429.4 1352,1429.4 1352,1240.7 1167.2,1240.7 				"/>
				<polygon class="st2" points="1174.5,1422.5 1359.3,1422.5 1359.3,1233.7 1174.5,1233.7 				"/>
				<path class="st6" d="M1196.8,1266.7c6.1,0,11-5,11-11c0-6.1-5-11-11-11c-6.1,0-11,5-11,11
					C1185.8,1261.7,1190.7,1266.7,1196.8,1266.7z"/>
				<path class="st13" d="M1196.8,1205.4L1196.8,1205.4c3.8,0,7,3.1,7,7v42.6c0,3.8-3.1,7-7,7l0,0c-3.8,0-7-3.1-7-7v-42.6
					C1189.9,1208.5,1193,1205.4,1196.8,1205.4z"/>
				<path class="st8" d="M1196.8,1205.4L1196.8,1205.4c3.8,0,7,3.1,7,7v1.1l-0.2,0.2c-5.2-7.9-11.5-0.8-13.5,30.7l-0.3-0.1v-31.8
					C1189.9,1208.5,1193,1205.4,1196.8,1205.4z"/>
				<path class="st6" d="M1231.1,1266.7c6.1,0,11-5,11-11c0-6.1-5-11-11-11c-6.1,0-11,5-11,11
					C1220,1261.7,1225,1266.7,1231.1,1266.7z"/>
				<path class="st13" d="M1231.1,1205.4L1231.1,1205.4c3.8,0,7,3.1,7,7v42.6c0,3.8-3.1,7-7,7l0,0c-3.8,0-7-3.1-7-7v-42.6
					C1224.1,1208.5,1227.2,1205.4,1231.1,1205.4z"/>
				<path class="st8" d="M1231.1,1205.4L1231.1,1205.4c3.8,0,7,3.1,7,7v1.1l-0.2,0.2c-5.2-7.9-11.5-0.8-13.5,30.7l-0.3-0.1v-31.8
					C1224.1,1208.5,1227.2,1205.4,1231.1,1205.4L1231.1,1205.4z"/>
				<path class="st6" d="M1265.3,1266.7c6.1,0,11-5,11-11c0-6.1-5-11-11-11c-6.1,0-11,5-11,11
					C1254.3,1261.7,1259.2,1266.7,1265.3,1266.7z"/>
				<path class="st13" d="M1265.3,1205.4L1265.3,1205.4c3.8,0,7,3.1,7,7v42.6c0,3.8-3.1,7-7,7l0,0c-3.8,0-7-3.1-7-7v-42.6
					C1258.3,1208.5,1261.5,1205.4,1265.3,1205.4z"/>
				<path class="st8" d="M1265.3,1205.4L1265.3,1205.4c3.8,0,7,3.1,7,7v1.1l-0.2,0.2c-5.2-7.9-11.5-0.8-13.5,30.7l-0.3-0.1v-31.8
					C1258.3,1208.5,1261.5,1205.4,1265.3,1205.4L1265.3,1205.4z"/>
				<path class="st6" d="M1299.5,1266.7c6.1,0,11-5,11-11c0-6.1-5-11-11-11c-6.1,0-11,5-11,11
					C1288.5,1261.7,1293.5,1266.7,1299.5,1266.7z"/>
				<path class="st13" d="M1299.6,1205.4L1299.6,1205.4c3.8,0,7,3.1,7,7v42.6c0,3.8-3.1,7-7,7l0,0c-3.8,0-7-3.1-7-7v-42.6
					C1292.6,1208.5,1295.7,1205.4,1299.6,1205.4z"/>
				<path class="st8" d="M1299.6,1205.4L1299.6,1205.4c3.8,0,7,3.1,7,7v1.1l-0.2,0.2c-5.2-7.9-11.5-0.8-13.5,30.7l-0.3-0.1v-31.8
					C1292.6,1208.5,1295.7,1205.4,1299.6,1205.4z"/>
				<path class="st6" d="M1333.8,1266.7c6.1,0,11-5,11-11c0-6.1-5-11-11-11c-6.1,0-11,5-11,11
					C1322.7,1261.7,1327.7,1266.7,1333.8,1266.7z"/>
				<path class="st13" d="M1333.8,1205.4L1333.8,1205.4c3.8,0,7,3.1,7,7v42.6c0,3.8-3.1,7-7,7h0c-3.8,0-7-3.1-7-7v-42.6
					C1326.8,1208.5,1330,1205.4,1333.8,1205.4z"/>
				<path class="st8" d="M1333.8,1205.4L1333.8,1205.4c3.8,0,7,3.1,7,7v1.1l-0.2,0.2c-5.2-7.9-11.5-0.8-13.5,30.7l-0.3-0.1v-31.8
					C1326.8,1208.5,1330,1205.4,1333.8,1205.4z"/>
				<path class="st3" d="M1309.1,1381.4v-62.3c-11.6,8.9-19.4,13.4-23.4,13.4c-1.9,0-3.6-0.8-5.1-2.3c-1.5-1.5-2.2-3.3-2.2-5.3
					c0-2.3,0.7-4.1,2.2-5.2c1.5-1.1,4-2.5,7.7-4.2c5.5-2.6,10-5.4,13.3-8.2c3.3-2.9,6.2-6.1,8.8-9.7c2.6-3.6,4.2-5.8,5-6.6
					c0.8-0.8,2.2-1.2,4.4-1.2c2.4,0,4.4,0.9,5.8,2.8c1.5,1.9,2.2,4.5,2.2,7.7v78.5c0,9.2-3.1,13.8-9.4,13.8c-2.8,0-5-0.9-6.7-2.8
					C1309.9,1387.8,1309.1,1385.1,1309.1,1381.4L1309.1,1381.4z"/>
				<path class="st3" d="M1232,1330.2c4.2,0,7.8-1.2,10.9-3.7c3-2.5,4.6-6,4.6-10.6c0-3.5-1.2-6.5-3.6-9.1c-2.4-2.5-5.7-3.8-9.8-3.8
					c-2.8,0-5.1,0.4-6.9,1.2c-1.8,0.8-3.2,1.8-4.3,3.1c-1.1,1.3-2.1,2.9-3,4.9c-0.9,2-1.8,3.9-2.6,5.7c-0.4,1-1.3,1.7-2.4,2.2
					c-1.2,0.6-2.6,0.8-4.1,0.8c-1.8,0-3.5-0.7-5-2.2c-1.5-1.5-2.3-3.5-2.3-5.9c0-2.4,0.7-4.9,2.2-7.5c1.4-2.6,3.5-5.1,6.3-7.5
					c2.8-2.4,6.2-4.3,10.3-5.7c4.1-1.4,8.7-2.2,13.8-2.2c4.4,0,8.5,0.6,12.1,1.8c3.6,1.2,6.8,3,9.5,5.2c2.7,2.3,4.7,4.9,6.1,7.9
					c1.4,3,2.1,6.3,2.1,9.7c0,4.6-1,8.5-3,11.8c-2,3.2-4.8,6.4-8.5,9.5c3.6,1.9,6.6,4.1,9,6.6c2.4,2.5,4.3,5.2,5.5,8.2
					c1.2,3,1.8,6.2,1.8,9.7c0,4.2-0.8,8.2-2.5,12.1c-1.7,3.9-4.1,7.4-7.4,10.4c-3.3,3-7.1,5.4-11.6,7.1c-4.4,1.7-9.4,2.6-14.8,2.6
					c-5.5,0-10.4-1-14.7-2.9c-4.3-2-7.9-4.4-10.7-7.4c-2.8-2.9-4.9-6-6.4-9.1c-1.5-3.2-2.2-5.8-2.2-7.8c0-2.6,0.8-4.8,2.6-6.4
					c1.7-1.6,3.8-2.4,6.4-2.4c1.3,0,2.5,0.4,3.7,1.1c1.2,0.8,2,1.6,2.3,2.7c2.4,6.4,4.9,11.1,7.6,14.1c2.7,3.1,6.6,4.6,11.5,4.6
					c2.8,0,5.6-0.7,8.2-2.1c2.6-1.4,4.8-3.5,6.5-6.2c1.7-2.8,2.6-5.9,2.6-9.5c0-5.3-1.4-9.5-4.4-12.6c-2.9-3-7-4.6-12.2-4.6
					c-0.9,0-2.3,0.1-4.3,0.3c-1.9,0.2-3.1,0.3-3.7,0.3c-2.5,0-4.4-0.6-5.8-1.9c-1.4-1.3-2.1-3-2.1-5.2c0-2.2,0.8-4,2.5-5.3
					c1.6-1.3,4.1-2,7.3-2L1232,1330.2L1232,1330.2z"/>
			</g>
			<path class="st11" d="M1155.9,1493.3c0,5.6-1.3,10.4-3.9,14.3c-3.3,5-8.1,7.5-14.5,7.5h-16v-43.6h17.2c6,0,10.6,2.4,13.6,7.3
				C1154.7,1482.7,1155.9,1487.5,1155.9,1493.3L1155.9,1493.3z M1151.7,1493.3c0-4.8-1-8.8-3-12c-2.4-4-6-6-10.6-6h-12.4v36h11.6
				c5,0,8.8-1.9,11.3-5.7C1150.7,1502.4,1151.7,1498.3,1151.7,1493.3z M1192.4,1515.1h-29.9v-43.6h28.6v3.8h-24.4v15.4h22v3.8h-22
				v16.8h25.7V1515.1L1192.4,1515.1z M1232.7,1515.1h-4.5l-5-13.1h-19.2l-5.2,13.1h-4.3l17.8-43.6h3.4L1232.7,1515.1L1232.7,1515.1z
				 M1222,1498.6l-8.1-21.5l-8.4,21.5H1222L1222,1498.6z M1271.7,1493.3c0,5.6-1.3,10.4-3.9,14.3c-3.3,5-8.1,7.5-14.5,7.5h-16v-43.6
				h17.2c6,0,10.6,2.4,13.6,7.3C1270.5,1482.7,1271.7,1487.5,1271.7,1493.3L1271.7,1493.3z M1267.5,1493.3c0-4.8-1-8.8-3-12
				c-2.4-4-6-6-10.6-6h-12.4v36h11.6c5,0,8.8-1.9,11.3-5.7C1266.4,1502.4,1267.5,1498.3,1267.5,1493.3z M1307.5,1515.1h-28.3v-43.6
				h4.2v39.8h24.1V1515.1z M1317.3,1515.1h-4.2v-43.6h4.2V1515.1z M1360.3,1515.1h-4.1l-25.1-36.7v36.7h-4.2v-43.6h4.1l25.1,36.7
				v-36.7h4.2V1515.1z M1399.1,1515.1h-29.9v-43.6h28.6v3.8h-24.4v15.4h22v3.8h-22v16.8h25.7V1515.1L1399.1,1515.1z"/>
		</g>
		<g>
			<g>
				<path class="st14" d="M228.7,264.4c-0.8-3,1.1-3.1,2.7-1.9c2.2,1.6,3.7,4.1,5.8,5.9c6.3,5.5,12.9-2.5,8-7.1
					c-3.5-3.2-6.7-5.9-6.8-10.3c0-1.2,0-2.4,0-3.6l6.3,0l0,0.5c0,0.6,0,1.5,0.5,2.3c1.9,3.3,4.7,4.6,7.1,6.2
					c10.2,7,5.2,21.2-6.4,23.2c-5.2,0.9-10.2-0.6-13.8-5.4c-1-1.4-1.7-3.7-2.1-6.2C229.8,266.6,229.1,266,228.7,264.4z"/>
				<polygon class="st15" points="247,239.9 247,247.4 235.6,247.4 235.6,239.9 				"/>
				<polygon class="st1" points="259,214.6 241.4,204.8 241.4,204.8 241.4,204.8 223.8,214.6 233.4,239.9 249.5,239.9 				"/>
				<polygon class="st6" points="225.3,218.6 236.3,207.6 241.4,204.8 241.4,204.8 241.4,204.8 245.1,206.8 227.5,224.4 				"/>
				<polygon class="st6" points="229.7,230 250.1,209.6 255.2,212.4 231.8,235.8 				"/>
				<polygon class="st6" points="235.6,239.9 257.9,217.5 253.1,230.3 243.5,239.9 				"/>
				<path class="st8" d="M235.4,266.7c0.9-0.4,2-0.8,3.1-1c1.9-0.4,4-0.5,6,0.3l0,0l132.3,56.3h-12.3l-121.8-51.9
					c-0.6-0.2-1.3-0.3-2-0.3c-1.1-0.2-2.3-0.7-3.5-1.8C236.6,268,236,267.3,235.4,266.7z"/>
				<path class="st8" d="M105.4,322.4l124.8-53.2c0.4,1.8,0.8,3.4,1.5,4.6l-114,48.6H105.4L105.4,322.4z"/>
				<polygon class="st1" points="100,322.4 385,322.4 385,458.3 300.8,458.3 300.8,454 281.9,454 281.9,458.3 251.9,458.3 
					251.9,454 233.1,454 233.1,458.3 203,458.3 203,454 184.2,454 184.2,458.3 100,458.3 				"/>
				<polygon class="st3" points="109.9,450.6 116.6,450.6 116.6,326.3 109.9,326.3 				"/>
				<polygon class="st3" points="122.8,450.6 129.5,450.6 129.5,326.3 122.8,326.3 				"/>
				<polygon class="st3" points="135.8,450.6 142.4,450.6 142.4,326.3 135.8,326.3 				"/>
				<polygon class="st3" points="148.7,450.6 155.4,450.6 155.4,326.3 148.7,326.3 				"/>
				<polygon class="st3" points="161.6,450.6 168.3,450.6 168.3,326.3 161.6,326.3 				"/>
				<polygon class="st3" points="174.5,450.6 181.2,450.6 181.2,326.3 174.5,326.3 				"/>
				<polygon class="st3" points="187.5,450.6 194.1,450.6 194.1,326.3 187.5,326.3 				"/>
				<polygon class="st3" points="200.4,450.6 207.1,450.6 207.1,326.3 200.4,326.3 				"/>
				<polygon class="st3" points="213.3,450.6 220,450.6 220,326.3 213.3,326.3 				"/>
				<polygon class="st3" points="226.2,450.6 232.9,450.6 232.9,326.3 226.2,326.3 				"/>
				<polygon class="st3" points="239.2,450.6 245.8,450.6 245.8,326.3 239.2,326.3 				"/>
				<polygon class="st3" points="252.1,450.6 258.7,450.6 258.7,326.3 252.1,326.3 				"/>
				<polygon class="st3" points="265,450.6 271.7,450.6 271.7,326.3 265,326.3 				"/>
				<polygon class="st3" points="277.9,450.6 284.6,450.6 284.6,326.3 277.9,326.3 				"/>
				<polygon class="st3" points="290.9,450.6 297.5,450.6 297.5,326.3 290.9,326.3 				"/>
				<polygon class="st3" points="303.8,450.6 310.4,450.6 310.4,326.3 303.8,326.3 				"/>
				<polygon class="st3" points="316.7,450.6 323.4,450.6 323.4,326.3 316.7,326.3 				"/>
				<polygon class="st3" points="329.6,450.6 336.3,450.6 336.3,326.3 329.6,326.3 				"/>
				<polygon class="st3" points="342.5,450.6 349.2,450.6 349.2,326.3 342.5,326.3 				"/>
				<polygon class="st3" points="355.5,450.6 362.1,450.6 362.1,326.3 355.5,326.3 				"/>
				<polygon class="st3" points="368.4,450.6 375.1,450.6 375.1,326.3 368.4,326.3 				"/>
			</g>
			<path class="st11" d="M129.6,525c0,4.6-1.6,8-4.8,10.3c-2.8,2-6.6,3.1-11.3,3.1c-9.5,0-15-4-16.4-12.1l4.2-2.1
				c0,6.9,4.1,10.4,12.3,10.4c3.1,0,5.7-0.7,8-2.1c2.6-1.6,4-3.9,4-6.8c0-3.8-2.2-6.4-6.7-7.8l-12.5-3.9c-4.5-2.1-6.8-5.5-6.8-10.3
				c0-3.6,1.5-6.5,4.6-8.5c2.6-1.7,5.7-2.6,9.3-2.6c8.1,0,13.3,3.3,15.6,9.8l-3.9,2.1c-1.7-5.4-5.6-8-11.7-8c-2.5,0-4.7,0.6-6.6,1.8
				c-2.1,1.4-3.2,3.2-3.2,5.5c0,3.7,2.3,6.2,6.7,7.5l12.5,3.7C127.4,516.9,129.6,520.3,129.6,525L129.6,525z M171.4,537.3h-4.2
				v-20.6h-26.1v20.6H137v-43.6h4.2v19.2h26.1v-19.2h4.2V537.3z M185.2,537.3h-4.2v-43.6h4.2V537.3z M227.7,505.5
				c0,8-4.4,12-13.2,12H199v19.8h-4.2v-43.6h21.5c3.9,0,6.9,1.3,8.9,3.9C226.9,499.6,227.7,502.3,227.7,505.5L227.7,505.5z
				 M223.5,505.5c0-2.1-0.4-3.8-1.2-5c-1.4-2.1-4-3.1-7.7-3.1H199v16.2h13.9C220,513.7,223.5,511,223.5,505.5z M271.7,537.3h-4.2
				v-35.7l-13.7,35.7H251l-13.7-35.6v35.6h-4.2v-43.6h5.1l14.1,36.5l14.3-36.5h5.1V537.3z M310.1,537.3h-29.9v-43.6h28.6v3.8h-24.4
				v15.4h22v3.8h-22v16.8h25.7V537.3z M350.8,537.3h-4.1l-25.1-36.7v36.7h-4.2v-43.6h4.1l25.1,36.7v-36.7h4.2V537.3z M387.9,497.4
				h-13.7v39.8h-4.2v-39.8h-13.7v-3.8h31.5V497.4z"/>
		</g>
		<g>
			<g>
				<polygon class="st6" points="671.9,-0.5 646.3,-0.5 624,42.6 655.1,42.6 655.1,26.9 671.9,26.9 				"/>
				<polygon class="st1" points="642.6,6.7 636.7,17.9 671.9,17.9 671.9,6.7 				"/>
				<polygon class="st16" points="706.9,64.3 854.3,64.3 854.3,134.5 810.7,134.5 810.7,132.3 801,132.3 801,134.5 785.5,134.5 
					785.5,132.3 775.7,132.3 775.7,134.5 760.2,134.5 760.2,132.3 750.4,132.3 750.4,134.5 706.9,134.5 				"/>
				<polygon class="st3" points="712,130.6 715.5,130.6 715.5,66.3 712,66.3 				"/>
				<polygon class="st3" points="718.7,130.6 722.2,130.6 722.2,66.3 718.7,66.3 				"/>
				<polygon class="st3" points="725.4,130.6 728.9,130.6 728.9,66.3 725.4,66.3 				"/>
				<polygon class="st3" points="732.1,130.6 735.5,130.6 735.5,66.3 732.1,66.3 				"/>
				<polygon class="st3" points="738.8,130.6 742.2,130.6 742.2,66.3 738.8,66.3 				"/>
				<polygon class="st3" points="745.5,130.6 748.9,130.6 748.9,66.3 745.5,66.3 				"/>
				<polygon class="st3" points="752.1,130.6 755.6,130.6 755.6,66.3 752.1,66.3 				"/>
				<polygon class="st3" points="758.8,130.6 762.3,130.6 762.3,66.3 758.8,66.3 				"/>
				<polygon class="st3" points="765.5,130.6 769,130.6 769,66.3 765.5,66.3 				"/>
				<polygon class="st3" points="772.2,130.6 775.6,130.6 775.6,66.3 772.2,66.3 				"/>
				<polygon class="st3" points="778.9,130.6 782.3,130.6 782.3,66.3 778.9,66.3 				"/>
				<polygon class="st3" points="785.5,130.6 789,130.6 789,66.3 785.5,66.3 				"/>
				<polygon class="st3" points="792.2,130.6 795.7,130.6 795.7,66.3 792.2,66.3 				"/>
				<polygon class="st3" points="798.9,130.6 802.4,130.6 802.4,66.3 798.9,66.3 				"/>
				<polygon class="st3" points="805.6,130.6 809,130.6 809,66.3 805.6,66.3 				"/>
				<polygon class="st3" points="812.3,130.6 815.7,130.6 815.7,66.3 812.3,66.3 				"/>
				<polygon class="st3" points="819,130.6 822.4,130.6 822.4,66.3 819,66.3 				"/>
				<polygon class="st3" points="825.6,130.6 829.1,130.6 829.1,66.3 825.6,66.3 				"/>
				<polygon class="st3" points="832.3,130.6 835.8,130.6 835.8,66.3 832.3,66.3 				"/>
				<polygon class="st3" points="839,130.6 842.5,130.6 842.5,66.3 839,66.3 				"/>
				<polygon class="st3" points="845.7,130.6 849.1,130.6 849.1,66.3 845.7,66.3 				"/>
				<path class="st6" d="M800.6,123.1h153.9l-6.6,13.2c-28.7,10.3-71,43.9-92.1,78.1h-264l-42.4-68.5v-11.3h243.1
					c4.5,0,8.1-3.7,8.1-8.1V123.1z"/>
				<path class="st1" d="M873.3,191.2c-6.7,7.5-12.6,15.4-17.5,23.2h-264l-14.4-23.2H873.3z"/>
				<path class="st16" d="M888.5,138.1c2.4,0,3.7,2.4,3,5.4c-0.7,3-3.2,5.4-5.6,5.4c-2.4,0-3.7-2.4-3-5.4
					C883.6,140.5,886.1,138.1,888.5,138.1L888.5,138.1z"/>
				<polygon class="st1" points="587,134.6 655.1,134.6 655.1,42.6 587,42.6 				"/>
				<polygon class="st7" points="698.2,134.6 624.5,134.6 624.5,63.2 655.1,63.2 655.1,26.9 698.2,26.9 				"/>
				<polygon class="st17" points="663.8,50.4 698.2,50.4 698.2,38.8 663.8,38.8 				"/>
				<polygon class="st18" points="637,79.1 641.6,79.1 641.6,72.7 637,72.7 				"/>
				<polygon class="st18" points="637,93.3 641.6,93.3 641.6,86.8 637,86.8 				"/>
				<polygon class="st18" points="637,107.4 641.6,107.4 641.6,100.9 637,100.9 				"/>
				<polygon class="st18" points="649.9,79.1 654.5,79.1 654.5,72.7 649.9,72.7 				"/>
				<polygon class="st18" points="649.9,93.3 654.5,93.3 654.5,86.8 649.9,86.8 				"/>
				<polygon class="st18" points="649.9,107.4 654.5,107.4 654.5,100.9 649.9,100.9 				"/>
				<polygon class="st18" points="662.8,79.1 667.4,79.1 667.4,72.7 662.8,72.7 				"/>
				<polygon class="st18" points="662.8,93.3 667.4,93.3 667.4,86.8 662.8,86.8 				"/>
				<polygon class="st18" points="662.8,107.4 667.4,107.4 667.4,100.9 662.8,100.9 				"/>
				<polygon class="st18" points="675.7,79.1 680.3,79.1 680.3,72.7 675.7,72.7 				"/>
				<polygon class="st18" points="675.7,93.3 680.3,93.3 680.3,86.8 675.7,86.8 				"/>
				<polygon class="st18" points="675.7,107.4 680.3,107.4 680.3,100.9 675.7,100.9 				"/>
				<path class="st17" d="M633.4,165.5c4.1,0,7.4-3.3,7.4-7.4c0-4.1-3.3-7.4-7.4-7.4c-4.1,0-7.4,3.3-7.4,7.4
					C626,162.2,629.3,165.5,633.4,165.5z"/>
				<path class="st17" d="M664.3,165.5c4.1,0,7.4-3.3,7.4-7.4c0-4.1-3.3-7.4-7.4-7.4c-4.1,0-7.4,3.3-7.4,7.4
					C656.9,162.2,660.2,165.5,664.3,165.5z"/>
				<path class="st17" d="M695.2,165.5c4.1,0,7.4-3.3,7.4-7.4c0-4.1-3.3-7.4-7.4-7.4c-4.1,0-7.4,3.3-7.4,7.4
					C687.8,162.2,691.1,165.5,695.2,165.5z"/>
				<path class="st17" d="M726.1,165.5c4.1,0,7.4-3.3,7.4-7.4c0-4.1-3.3-7.4-7.4-7.4c-4.1,0-7.4,3.3-7.4,7.4
					C718.7,162.2,722,165.5,726.1,165.5z"/>
				<path class="st17" d="M757,165.5c4.1,0,7.4-3.3,7.4-7.4c0-4.1-3.3-7.4-7.4-7.4c-4.1,0-7.4,3.3-7.4,7.4
					C749.6,162.2,752.9,165.5,757,165.5z"/>
				<path class="st17" d="M787.9,165.5c4.1,0,7.4-3.3,7.4-7.4c0-4.1-3.3-7.4-7.4-7.4c-4.1,0-7.4,3.3-7.4,7.4
					C780.5,162.2,783.8,165.5,787.9,165.5z"/>
				<path class="st17" d="M818.8,165.5c4.1,0,7.4-3.3,7.4-7.4c0-4.1-3.3-7.4-7.4-7.4c-4.1,0-7.4,3.3-7.4,7.4
					C811.4,162.2,814.7,165.5,818.8,165.5z"/>
			</g>
			<path class="st11" d="M623.9,278.7c0,4.6-1.6,8-4.8,10.3c-2.8,2-6.6,3.1-11.3,3.1c-9.5,0-15-4-16.4-12.1l4.2-2.1
				c0,6.9,4.1,10.4,12.3,10.4c3.1,0,5.7-0.7,8-2.1c2.6-1.6,4-3.9,4-6.8c0-3.8-2.2-6.4-6.7-7.8l-12.5-3.9c-4.5-2.1-6.8-5.5-6.8-10.3
				c0-3.6,1.5-6.5,4.6-8.5c2.6-1.7,5.7-2.6,9.3-2.6c8.1,0,13.3,3.3,15.6,9.8l-3.9,2.1c-1.7-5.4-5.6-8-11.7-8c-2.5,0-4.7,0.6-6.6,1.8
				c-2.1,1.4-3.2,3.2-3.2,5.5c0,3.7,2.3,6.2,6.7,7.5l12.5,3.7C621.6,270.6,623.9,274,623.9,278.7z M665.7,291h-4.2v-20.6h-26.1V291
				h-4.2v-43.6h4.2v19.2h26.1v-19.2h4.2V291z M679.5,291h-4.2v-43.6h4.2V291z M722,259.3c0,8-4.4,12-13.2,12h-15.4V291h-4.2v-43.6
				h21.5c3.9,0,6.9,1.3,8.9,3.9C721.2,253.4,722,256,722,259.3L722,259.3z M717.8,259.3c0-2.1-0.4-3.8-1.2-5c-1.4-2.1-4-3.1-7.7-3.1
				h-15.6v16.2h13.9C714.2,267.4,717.8,264.7,717.8,259.3z M760.6,259.3c0,8-4.4,12-13.2,12h-15.4V291h-4.2v-43.6h21.5
				c3.9,0,6.9,1.3,8.9,3.9C759.8,253.4,760.6,256,760.6,259.3z M756.4,259.3c0-2.1-0.4-3.8-1.2-5c-1.4-2.1-4-3.1-7.7-3.1h-15.6v16.2
				h13.9C752.9,267.4,756.4,264.7,756.4,259.3z M770.3,291h-4.2v-43.6h4.2V291z M813.3,291h-4.1l-25.1-36.7V291h-4.2v-43.6h4.1
				l25.1,36.7v-36.7h4.2V291z M857.1,257.3l-4,2.1c-2-6.2-6.1-9.3-12.2-9.3c-5.2,0-9.2,2-12.1,6.1c-2.5,3.5-3.7,7.9-3.7,13
				c0,5.1,1.1,9.4,3.4,12.9c2.7,4.1,6.5,6.2,11.3,6.2c4.4,0,7.8-1.5,10.2-4.6c2-2.6,3-5.7,3-9.4v-2.4h-16.2v-3.8h19.9V291H853v-6.3
				c-1,2.5-2.8,4.4-5.4,5.7c-2.3,1.1-4.9,1.7-7.8,1.7c-6.3,0-11.1-2.3-14.5-7c-3-4.1-4.4-9.4-4.4-15.9c0-6.4,1.6-11.7,4.8-15.9
				c3.6-4.7,8.5-7,14.9-7C848.4,246.3,853.8,249.9,857.1,257.3L857.1,257.3z"/>
		</g>
		<path class="st19" d="M1229.2,260.1l173.8-4.8c29.4-0.8,66,0.2,90.4,9.8c19.5,7.7,37.4,25.3,57.7,35.1
			c22.9,9.4,21.5,23.7,5.5,34.9c-29.2,20.6-80.4,19.2-120.6,18.6c-40.5-0.6-81,0.6-121.4-1.9c-54.2-3.4-117.4-22.2-156-57.1
			l-33.4-92.7l27.9-0.5c22.9-0.4,29.3,8,34.2,13.3C1187.3,214.8,1229.2,260.1,1229.2,260.1z"/>
		<path class="st10" d="M1265.4,307c7,0,12.7-5.7,12.7-12.7c0-7-5.7-12.7-12.7-12.7c-7,0-12.7,5.7-12.7,12.7
			C1252.6,301.3,1258.4,307,1265.4,307z"/>
		<path class="st10" d="M1449.3,307c7,0,12.7-5.7,12.7-12.7c0-7-5.7-12.7-12.7-12.7c-7,0-12.7,5.7-12.7,12.7
			C1436.6,301.3,1442.3,307,1449.3,307z"/>
		<path class="st1" d="M1138.8,240.1l-10-27.9h56.1c0.9,0.9,1.7,1.8,2.4,2.6l23.4,25.2C1210.7,240.1,1138.8,240.1,1138.8,240.1z"/>
		<path class="st10" d="M1550.6,299.9l-3.5-0.1l-69.2-1.5l-0.8,0l-0.5-0.6l-19.6-24.7l-2-2.5l3.3-0.2l40.2-3
			C1515.7,275.6,1532.2,290.9,1550.6,299.9z"/>
		<path class="st17" d="M1501.2,268.7c15.3,8,29.9,20.9,45.8,29.4l-69.2-1.5l-19.6-24.7C1458.2,271.9,1501.2,268.7,1501.2,268.7z"/>
		<path class="st4" d="M1501.2,268.7c3.1,1.6,6.1,3.4,9.2,5.4c-17.2-2.7-42.9-2.8-35.7,18.6l-16.6-20.8L1501.2,268.7L1501.2,268.7z"
			/>
		<path class="st17" d="M1265.4,305.2c6,0,10.9-4.9,10.9-10.9c0-6-4.9-10.9-10.9-10.9c-6,0-10.9,4.9-10.9,10.9
			C1254.5,300.3,1259.4,305.2,1265.4,305.2z"/>
		<path class="st4" d="M1265.4,283.4c4.1,0,7.7,2.3,9.5,5.6c-1.9-1.1-4.1-1.8-6.5-1.8c-6.8,0-12.4,5.5-12.6,12.3
			c-0.9-1.6-1.4-3.4-1.4-5.3C1254.5,288.3,1259.4,283.4,1265.4,283.4L1265.4,283.4z"/>
		<path class="st17" d="M1449.3,305.2c6,0,10.9-4.9,10.9-10.9c0-6-4.9-10.9-10.9-10.9c-6,0-10.9,4.9-10.9,10.9
			C1438.4,300.3,1443.3,305.2,1449.3,305.2z"/>
		<path class="st4" d="M1449.3,283.4c4.1,0,7.7,2.3,9.5,5.6c-1.9-1.1-4.1-1.8-6.5-1.8c-6.8,0-12.4,5.5-12.6,12.3
			c-0.9-1.6-1.4-3.4-1.4-5.3C1438.4,288.3,1443.3,283.4,1449.3,283.4L1449.3,283.4z"/>
		<path class="st20" d="M1220.8,331.5c46.2,9.8,96,12.9,160.4,12.1c122-1.4,151.3-5.4,183.7-16.2c-2,2.7-4.8,5.3-8.3,7.7
			c-29.2,20.6-80.4,19.2-120.6,18.6c-40.5-0.6-81,0.6-121.4-1.9C1284.2,350,1251,343.2,1220.8,331.5z"/>
		<path class="st10" d="M1175.3,271.4c26.7-5,58.7-7,91-8.8c-5.6,2.3-8.5,5.3-16.7,7C1224.8,270.2,1200.1,270.8,1175.3,271.4
			L1175.3,271.4z"/>
		<path class="st10" d="M1510.6,305.3c13.6-0.5,27.2-0.8,40.5,0c6.6,1.8,9.2,5,12,8.2C1547.1,306.2,1528.7,306.3,1510.6,305.3z"/>
		<path class="st21" d="M1313,264.2c40.4-3.1,52.4-1.8,91.9-3.6c8.8-0.4,16.2,6.7,17.1,11.6c0.6,3-29.8,30.8-37.7,36.3h0l0,0
			c-10.8,4.2-104.4-1.7-107.4-3.2c0-0.3,0.1-0.6,0.3-0.9c3.2-5.9,30.6-36.2,31.5-37.9C1309.2,265.5,1310.6,264.5,1313,264.2
			L1313,264.2z"/>
		<path class="st22" d="M1419.2,276.4c4.8,0.6,9.5,1.4,14.3,2.4V315c-26.3,5.5-53.1,6.4-80.4-0.3v-4.8c15.2,0.3,27.6,0,31.1-1.4l0,0
			h0c4.9-3.4,18.6-15.5,28-24.9c-0.9-2.9-6-3.9-36.2-6.3C1388.5,275.3,1405.2,274.2,1419.2,276.4L1419.2,276.4L1419.2,276.4z"/>
		<path class="st23" d="M1429.6,315.8c-25,4.8-50.6,5.3-76.5-1.1v-4.8c15.2,0.3,27.6,0,31.1-1.4l0,0h0c0.4-0.3,0.9-0.6,1.4-1h43.9
			C1429.6,307.4,1429.6,315.8,1429.6,315.8z"/>
		<path class="st6" d="M1422.5,276.8c3.7,0.5,7.4,1.2,11.1,2V315c-3.7,0.8-7.4,1.5-11.1,2V276.8z"/>
		<path class="st1" d="M1433.6,307.4v7.6c-3.7,0.8-7.4,1.5-11.1,2v-9.6C1422.5,307.4,1433.6,307.4,1433.6,307.4z"/>
		<path class="st10" d="M1280.7,302.9c33.1-4.8,51.5-6.2,84.7-6c9,0.1,18.4,7.3,18.9,11.5c-10.8,4.2-104.4-1.7-107.4-3.2
			C1276.9,304.3,1278.1,303.3,1280.7,302.9z"/>
		<path class="st11" d="M1222.4,433.7h-4.5l-5-13.1h-19.2l-5.2,13.1h-4.3l17.8-43.6h3.4L1222.4,433.7z M1211.6,417.2l-8.1-21.5
			l-8.4,21.5H1211.6z M1230.9,433.7h-4.2v-43.6h4.2V433.7z M1272.9,433.7h-5.3l-13.9-19.4h-9.9v19.4h-4.2v-43.6h19.3
			c3.8,0,6.9,1.1,9.2,3.2c2.4,2.2,3.5,5.2,3.5,8.9c0,3.8-1.2,6.8-3.6,8.9c-2.3,2-5.4,3-9.2,3L1272.9,433.7z M1267.5,402.2
			c0-5.5-3.4-8.3-10.1-8.3h-13.6v16.7h13C1264,410.5,1267.5,407.7,1267.5,402.2L1267.5,402.2z M1322.6,393.9h-24.3v14.6h21.7v3.8
			h-21.7v21.5h-4.2v-43.6h28.4V393.9L1322.6,393.9z M1361.4,433.7h-5.3l-13.9-19.4h-9.9v19.4h-4.2v-43.6h19.3c3.8,0,6.9,1.1,9.2,3.2
			c2.4,2.2,3.5,5.2,3.5,8.9c0,3.8-1.2,6.8-3.6,8.9c-2.3,2-5.4,3-9.2,3L1361.4,433.7L1361.4,433.7z M1356.1,402.2
			c0-5.5-3.4-8.3-10.1-8.3h-13.6v16.7h13C1352.5,410.5,1356.1,407.7,1356.1,402.2z M1395.5,433.7h-29.9v-43.6h28.6v3.8h-24.4v15.4
			h22v3.8h-22v16.8h25.7V433.7z M1406.9,433.7h-4.2v-43.6h4.2V433.7z M1450.5,399.9l-4,2.1c-2-6.2-6.1-9.3-12.2-9.3
			c-5.2,0-9.2,2-12.1,6.1c-2.5,3.5-3.7,7.9-3.7,13c0,5.1,1.1,9.4,3.4,12.9c2.7,4.1,6.5,6.2,11.3,6.2c4.4,0,7.8-1.5,10.2-4.6
			c2-2.6,3-5.7,3-9.4v-2.4h-16.2v-3.8h19.9v22.9h-3.7v-6.3c-1,2.5-2.8,4.4-5.4,5.7c-2.3,1.1-4.9,1.7-7.8,1.7c-6.3,0-11.1-2.3-14.5-7
			c-3-4.1-4.4-9.4-4.4-15.9c0-6.4,1.6-11.7,4.8-15.9c3.6-4.7,8.5-7,14.9-7C1441.8,389,1447.3,392.6,1450.5,399.9L1450.5,399.9z
			 M1493,433.7h-4.2v-20.6h-26.1v20.6h-4.2v-43.6h4.2v19.2h26.1v-19.2h4.2V433.7z M1530,393.9h-13.7v39.8h-4.2v-39.8h-13.7v-3.8
			h31.5V393.9z"/>
		<g>
			<g>
				<polygon class="st2" points="196,870.5 196.1,737.4 39,737.4 39,870.5 				"/>
				<polygon class="st12" points="196.1,870.5 196.1,737.4 159.2,737.4 159.2,870.5 				"/>
				<path class="st24" d="M101,824.7c7.3,0.3,13.5,5.4,15.8,12.4c-1.5-1.3-3.4-2.1-5.6-2.1c-2.1,0-4,0.8-5.5,2
					c-1.3-1.1-2.9-1.8-4.7-2v19.3h0c0,0.6,0.2,1.2,0.6,1.6c0.4,0.4,0.9,0.7,1.5,0.7v0v0c0.6,0,1.1-0.3,1.5-0.7
					c0.4-0.4,0.6-1,0.6-1.6v0h1.5v0h0c0,1.1-0.4,2-1.1,2.7c-0.7,0.7-1.6,1.1-2.6,1.1l0,0c-1,0-1.9-0.4-2.6-1.1
					c-0.7-0.7-1.1-1.7-1.1-2.7h0V835c-1.8,0.2-3.4,0.9-4.7,2c-1.5-1.3-3.4-2-5.5-2c-2.1,0-4,0.8-5.6,2.1c2.3-7,8.4-12,15.7-12.4V822
					h1.6L101,824.7L101,824.7z"/>
				<path class="st24" d="M131.2,852.8v-21.7h1.9l-3.7-7.1l-3.7,7.1h1.9v21.7H131.2L131.2,852.8z M145.6,852.8v-21.7h1.9l-3.7-7.1
					l-3.7,7.1h1.9v21.7H145.6L145.6,852.8L145.6,852.8z M123.5,854.3h26.3v3.9h-26.3V854.3z"/>
				<path class="st24" d="M75.9,824.5c-1.4,10.2-6.5,18-12.7,18.7v12.2h6.1v2.7H55.1v-2.7h6.1v-12.2c-6.2-0.8-11.3-8.5-12.7-18.7
					h19.7l1.6,3.7l-1.8-0.2l1.8,6.9l-0.6-5.8l1.4,0.1l-0.3-4.7H75.9L75.9,824.5z"/>
				<polygon class="st0" points="89.4,737.4 106.5,737.4 106.5,762.9 103.8,763.6 100.8,761.4 96.4,764 93.2,761.5 89.4,763.7 				
					"/>
				<polygon class="st0" points="173.3,737.4 182,737.4 182,762.9 180.6,763.6 179.1,761.4 176.9,764 175.2,761.5 173.3,763.7 				
					"/>
				<polygon class="st1" points="5.7,904 283.9,904 283.9,870.5 5.7,870.5 				"/>
				<polygon class="st6" points="26.1,928.8 55.2,928.8 55.2,923.4 234.5,923.4 234.5,928.8 263.5,928.8 263.5,904 26.1,904 				"/>
				<polygon class="st25" points="243.7,870.5 254.7,870.5 254.7,764.3 243.7,764.3 				"/>
				<polygon class="st14" points="254.7,870.5 263,870.5 263,764.3 254.7,764.3 				"/>
				<polygon class="st3" points="230.8,764.3 279.2,764.3 279.2,757.3 230.8,757.3 				"/>
				<path class="st1" d="M253.3,690.8c24.2,0,43.9,19.6,43.9,43.9c0,8.3-2.3,16-6.3,22.6h-75.1c-4-6.6-6.3-14.4-6.3-22.6
					C209.5,710.4,229.1,690.8,253.3,690.8L253.3,690.8z"/>
				<path class="st5" d="M253.3,733.6l-32,11.6c-1.4-3.7-2.1-7.7-2.1-11.6c0-18.8,15.2-34,34-34c18.8,0,34,15.2,34,34
					c0,4-0.7,7.9-2.1,11.6L253.3,733.6L253.3,733.6z"/>
				<polygon class="st3" points="232.1,709.4 231.7,709.8 249.3,734 254.1,729.9 				"/>
			</g>
			<g>
				<polygon class="st11" points="0,964.1 4.4,964.1 16.6,1000.5 28.7,964.1 33.1,964.1 45.3,1000.5 57.5,964.1 61.8,964.1 
					47.5,1007 43.1,1007 31,970.7 18.8,1007 14.4,1007 				"/>
				<polygon class="st11" points="65.1,964.1 90,964.1 90,968.3 69.5,968.3 69.5,980.3 88.8,980.3 88.8,984.5 69.5,984.5 
					69.5,1002.8 90,1002.8 90,1007 65.1,1007 				"/>
				<polygon class="st11" points="99,1007 103.4,1007 103.4,964.1 99,964.1 				"/>
				<path class="st11" d="M110,985.3c0-11.8,10.1-21.8,22.4-21.8c8.4,0,15.3,4.6,19.2,11.2h-4.9c-3.2-4.1-8.5-6.8-14.2-6.8
					c-9.9,0-17.9,7.9-17.9,17.4c0,9.9,7.9,17.8,17.9,17.8c6.3,0,11.8-3.2,15-8.2v-9.7h4.4v21.7h-4.4v-5.2c-4,3.6-9.3,5.8-15,5.8
					C120.1,1007.6,110,997.6,110,985.3L110,985.3z"/>
				<polygon class="st11" points="160.8,964.1 165.2,964.1 165.2,981.8 190.1,981.8 190.1,964.1 194.4,964.1 194.4,1007 190.1,1007 
					190.1,986 165.2,986 165.2,1007 160.8,1007 				"/>
				<polygon class="st11" points="203.9,1007 208.3,1007 208.3,964.1 203.9,964.1 				"/>
				<polygon class="st11" points="217.9,964.1 223.2,964.1 250.1,1001 250.1,964.1 254.5,964.1 254.5,1007 249.2,1007 222.3,970.1 
					222.3,1007 217.9,1007 				"/>
				<path class="st11" d="M261.1,985.3c0-11.8,10.1-21.8,22.4-21.8c8.4,0,15.3,4.6,19.2,11.2h-4.9c-3.2-4.1-8.5-6.8-14.2-6.8
					c-9.9,0-17.8,7.9-17.8,17.4c0,9.9,7.9,17.8,17.8,17.8c6.3,0,11.8-3.2,15-8.2v-9.7h4.4v21.7h-4.4v-5.2c-4,3.6-9.3,5.8-15,5.8
					C271.2,1007.6,261.1,997.6,261.1,985.3L261.1,985.3z"/>
			</g>
		</g>
		<g>
			<g>
				<polygon class="st26" points="1447.2,580.2 1632.9,580.2 1632.9,951.7 1622.2,951.7 1622.2,591 1457.9,591 1457.9,951.7 
					1447.2,951.7 				"/>
				<polygon class="st27" points="1457.9,951.7 1622.2,951.7 1622.2,591 1457.9,591 				"/>
				<path class="st28" d="M1457.9,591c25.8,2.4,51.2,4.7,76.3,7.1c24.8,2.3,49.3,4.6,73.5,6.8c0,57.8,0.1,115.6,0.1,173.4
					c0,57.8,0.1,115.6,0.1,173.5c-24.2,0-48.7,0-73.5,0c-25.2,0-50.6,0-76.4,0c0-60.1,0-120.3,0-180.4
					C1457.9,711.2,1457.9,651.1,1457.9,591L1457.9,591z"/>
				<polygon class="st29" points="1584.1,837 1584.1,912.6 1483.2,911.5 1483.2,833.9 				"/>
				<polygon class="st30" points="1584.1,837 1584.1,912.6 1579,912.5 1579,841.7 				"/>
				<path class="st29" d="M1584,733.8c0,25,0,50.1,0,75c-16.4-0.6-33.1-1.3-49.8-1.9c-16.9-0.6-33.9-1.3-51.1-1.9
					c0-25.7,0-51.4,0-77.1c17.2,1,34.2,2,51.1,3C1551,731.9,1567.6,732.8,1584,733.8L1584,733.8z"/>
				<polygon class="st30" points="1584,733.8 1584.1,808.8 1579,808.7 1579,739.4 				"/>
				<path class="st29" d="M1483.2,622.7c17.2,1.5,34.2,2.9,51.1,4.3c16.7,1.4,33.3,2.8,49.8,4.2c0,24.9,0,49.6,0,74.5
					c-16.4-1.1-33-2.2-49.8-3.2c-16.9-1.1-33.9-2.2-51.1-3.3C1483.2,673.6,1483.2,648.2,1483.2,622.7z"/>
				<polygon class="st30" points="1584,631.2 1584,705.7 1579,705.4 1579,635.7 				"/>
				<polygon class="st2" points="1354.8,951.7 1556.8,951.7 1556.9,779.9 1354.8,779.9 				"/>
				<polygon class="st12" points="1509.4,951.7 1556.9,951.7 1556.9,779.9 1509.4,779.9 				"/>
				<path class="st6" d="M1434.5,892.3c9.4,0.4,17.4,6.9,20.3,15.9c-1.9-1.7-4.4-2.7-7.2-2.7c-2.7,0-5.1,1-7,2.6
					c-1.7-1.4-3.8-2.3-6.1-2.5v24.9c0,0.8,0.3,1.5,0.8,2.1c0.5,0.5,1.2,0.9,2,0.9v0v0c0.8,0,1.5-0.3,2-0.9c0.5-0.5,0.8-1.3,0.8-2.1
					v0h2v0h0c0,1.4-0.5,2.6-1.4,3.5c-0.9,0.9-2.1,1.5-3.4,1.5v0v0c-1.3,0-2.5-0.6-3.4-1.5c-0.9-0.9-1.4-2.2-1.4-3.5h0v-24.9
					c-2.3,0.2-4.4,1.1-6,2.5c-1.9-1.6-4.4-2.6-7.1-2.6c-2.7,0-5.2,1-7.1,2.7c2.9-9,10.8-15.5,20.2-15.9v-3.4h2L1434.5,892.3
					L1434.5,892.3z"/>
				<path class="st6" d="M1473.5,928.5v-27.9h2.5l-4.7-9.1l-4.7,9.1h2.5v27.9H1473.5z M1492,928.5v-27.9h2.5l-4.7-9.1l-4.7,9.1h2.5
					v27.9H1492L1492,928.5z M1463.5,930.4h33.9v5h-33.9V930.4z"/>
				<path class="st6" d="M1402.2,892.1c-1.8,13.2-8.3,23.2-16.3,24.1v15.7h7.8v3.5h-18.2v-3.5h7.8v-15.7c-8-1-14.6-11-16.3-24.1
					h25.4l2,4.8l-2.3-0.2l2.3,8.9l-0.8-7.5l1.8,0.1l-0.4-6L1402.2,892.1L1402.2,892.1z"/>
				<polygon class="st3" points="1419.7,779.9 1441.6,779.9 1441.6,812.8 1438.1,813.6 1434.3,810.9 1428.7,814.2 1424.4,811 
					1419.7,813.8 				"/>
				<polygon class="st3" points="1527.6,779.9 1538.7,779.9 1538.7,812.8 1536.9,813.6 1535,810.9 1532.2,814.2 1530,811 
					1527.6,813.8 				"/>
				<path class="st23" d="M1597.5,777.2c2.8,0,5-2.8,5-6.3c0-3.5-2.2-6.3-5-6.3c-2.8,0-5,2.8-5,6.3
					C1592.5,774.4,1594.7,777.2,1597.5,777.2z"/>
				<path class="st10" d="M1603.1,779.9c4.1,0,7.4-4.2,7.4-9.3c0-5.1-3.3-9.3-7.4-9.3c-4.1,0-7.4,4.2-7.4,9.3
					C1595.7,775.7,1599,779.9,1603.1,779.9z"/>
			</g>
			<path class="st11" d="M1393.4,1007.6c0,5.7-1.3,10.5-3.9,14.4c-3.3,5-8.2,7.5-14.6,7.5h-16.1v-43.9h17.3c6.1,0,10.7,2.4,13.7,7.4
				C1392.1,996.8,1393.4,1001.7,1393.4,1007.6L1393.4,1007.6z M1389.2,1007.6c0-4.8-1-8.8-3-12.1c-2.4-4-6-6.1-10.7-6.1h-12.5v36.3
				h11.7c5,0,8.8-1.9,11.4-5.7C1388.1,1016.7,1389.2,1012.6,1389.2,1007.6L1389.2,1007.6z M1430.1,1029.5h-30v-43.9h28.8v3.8h-24.6
				v15.6h22.2v3.8h-22.2v16.9h25.9L1430.1,1029.5L1430.1,1029.5z M1466,1029.5h-28.4v-43.9h4.2v40.1h24.3V1029.5z M1475.9,1029.5
				h-4.2v-43.9h4.2V1029.5z M1517.3,985.6l-16.5,43.9h-3.7l-16.4-43.9h4.5l13.8,37.2l13.9-37.2H1517.3L1517.3,985.6z M1551.3,1029.5
				h-30v-43.9h28.8v3.8h-24.6v15.6h22.2v3.8h-22.2v16.9h25.9V1029.5L1551.3,1029.5z M1591.3,1029.5h-5.3L1572,1010h-10v19.5h-4.2
				v-43.9h19.4c3.9,0,7,1.1,9.3,3.2c2.4,2.2,3.6,5.2,3.6,9c0,3.9-1.2,6.9-3.6,9c-2.3,2-5.4,3.1-9.3,3.1L1591.3,1029.5z
				 M1585.9,997.8c0-5.6-3.4-8.4-10.2-8.4H1562v16.8h13C1582.3,1006.2,1585.9,1003.4,1585.9,997.8z M1629,985.6l-16.5,25.6v18.3
				h-4.2v-18.3l-16.5-25.6h5.1l13.7,21.7l13.7-21.7H1629L1629,985.6z"/>
		</g>
		<g>
			<g>
				<path class="st15" d="M232.6,1364h175.9l11.4-1.9l0-38.8c0-1.7-1.9-3.6-3.6-3.6H232.6L232.6,1364L232.6,1364z"/>
				<polygon class="st24" points="102.2,1321.7 112.9,1311.9 115.3,1364 110.1,1365.2 106,1364 102.3,1353.5 				"/>
				<path class="st6" d="M232.6,1218.8l-55.2-5.3c-6.2-0.6-11.9,0.5-18.6,6.2c-21.7,18-56,56.9-52.6,115.6l1,21h48.2l77.2-2.3
					L232.6,1218.8L232.6,1218.8z"/>
				<path class="st1" d="M110,1294.6c-2.3,8.8-3.7,18.3-4,28.4l0,0l96.7-38.3l7.6-19.8l-92.5,32.8L110,1294.6L110,1294.6L110,1294.6
					z"/>
				<path class="st17" d="M117.9,1297.7c5.7-27.2,23.5-56.5,47.5-74.2c1.8-1.9,6.8-4.6,12.1-4l48.2,4.6l-0.5,35.7l-0.1,0l-11.1-2.5
					l-3.5,7.6L117.9,1297.7L117.9,1297.7z"/>
				<path class="st4" d="M144.6,1243.3c6.2-7.5,13.1-14.2,20.7-19.8c1.8-1.9,6.8-4.6,12.1-4l48.2,4.6l-0.3,26.6
					C217.9,1232.9,179.7,1234.6,144.6,1243.3L144.6,1243.3z"/>
				<path class="st18" d="M361.4,1319.7l14.1,0.2l0,0.2c7.3,0.2,14.5,1.1,21.6,2.4c3.5,0.6,6.7,2.8,9.2,5.3
					c9.5,9.2,13.1,20.6,13.6,33.4c0,0.3,0,0.6,0,0.9c0,0.9-4.6,1.5-11.7,1.9l-80.6,0.1H109.9l-2.6-7.8h38.3l8.4-23.7
					c1.2-3.4,3.7-6.8,6.8-7.9L229,1300c2-0.6,3.6,0,3.6,2.6v6.2c0,7.7,0,16.8,0,25.1v9.2l74.6-5.1
					C322.9,1326.4,335.5,1319.7,361.4,1319.7z"/>
				<path class="st31" d="M356.1,1328.9c12.5-3.1,24.9-2.2,37,0.1c2.9,0.5,5.5,2.4,7.6,4.5c8.4,8.3,11.2,18.6,11.3,30.2
					c-1.1,0.3-3,0.3-3.7,0.3h-73.1c-0.1-10,3.5-22.5,10.8-29.8C349.7,1330.8,352.6,1329.8,356.1,1328.9z"/>
				<path class="st15" d="M374.3,1401.3c18.9,0,34.3-15.4,34.3-34.3c0-18.9-15.4-34.3-34.3-34.3c-18.9,0-34.3,15.4-34.3,34.3
					C340.1,1385.9,355.5,1401.3,374.3,1401.3L374.3,1401.3z"/>
				<path class="st7" d="M374.3,1386.7c10.8,0,19.7-8.8,19.7-19.7c0-10.8-8.8-19.7-19.7-19.7c-10.8,0-19.7,8.8-19.7,19.7
					S363.5,1386.7,374.3,1386.7z"/>
				<polygon class="st2" points="256.8,1307.6 436.1,1307.6 436.1,1189.9 256.8,1189.9 				"/>
				<polygon class="st1" points="232.6,1278.8 232.6,1278.8 232.6,1201.1 240,1201.1 240,1278.8 457.5,1278.8 457.5,1319.7 
					232.6,1319.7 				"/>
				<path class="st31" d="M151,1364h81.5c0.8-15.8-4.8-30.4-11.9-41.8c-3.1-4.9-7.2-7.5-12.6-7.2l-42.4,15.2
					c-2.6,0.9-4.6,3.9-5.6,6.8L151,1364L151,1364z"/>
				<path class="st15" d="M193.9,1399.6c18.9,0,34.3-15.4,34.3-34.3c0-18.9-15.4-34.3-34.3-34.3c-18.9,0-34.3,15.4-34.3,34.3
					C159.6,1384.3,175,1399.6,193.9,1399.6z"/>
				<path class="st7" d="M193.9,1385.1c10.8,0,19.7-8.8,19.7-19.7c0-10.8-8.8-19.7-19.7-19.7c-10.8,0-19.7,8.8-19.7,19.7
					C174.2,1376.2,183,1385.1,193.9,1385.1z"/>
			</g>
			<path class="st11" d="M63.4,1436.8H49.8v39.8h-4.2v-39.8H31.9v-3.8h31.5V1436.8z M101.3,1476.6H96l-13.8-19.4h-9.9v19.4h-4.2
				V1433h19.3c3.8,0,6.9,1.1,9.2,3.2c2.4,2.2,3.5,5.2,3.5,8.9c0,3.8-1.2,6.8-3.6,8.9c-2.3,2-5.4,3-9.2,3L101.3,1476.6L101.3,1476.6z
				 M96,1445.1c0-5.5-3.4-8.3-10.1-8.3H72.3v16.7h12.9C92.4,1453.5,96,1450.7,96,1445.1L96,1445.1z M139.3,1476.6h-4.5l-5-13.1
				h-19.2l-5.2,13.1h-4.3L119,1433h3.4L139.3,1476.6z M128.5,1460.1l-8.1-21.5l-8.4,21.5H128.5z M177.2,1476.6h-4.1L148,1440v36.7
				h-4.2V1433h4.1l25.1,36.7V1433h4.2V1476.6z M217.1,1464.4c0,4.6-1.6,8-4.8,10.3c-2.8,2-6.6,3.1-11.3,3.1c-9.5,0-15-4-16.4-12.1
				l4.2-2.1c0,6.9,4.1,10.4,12.3,10.4c3.1,0,5.7-0.7,8-2.1c2.6-1.6,4-3.9,4-6.8c0-3.8-2.2-6.4-6.7-7.8l-12.5-3.9
				c-4.5-2.1-6.8-5.5-6.8-10.3c0-3.6,1.5-6.5,4.6-8.5c2.6-1.7,5.7-2.6,9.3-2.6c8.1,0,13.3,3.3,15.6,9.8l-3.9,2.1
				c-1.7-5.3-5.6-8-11.7-8c-2.5,0-4.7,0.6-6.6,1.8c-2.1,1.4-3.2,3.2-3.2,5.5c0,3.7,2.2,6.2,6.7,7.5l12.5,3.7
				C214.8,1456.2,217.1,1459.6,217.1,1464.4L217.1,1464.4z M257.3,1444.9c0,8-4.4,11.9-13.2,11.9h-15.4v19.8h-4.2V1433h21.5
				c3.9,0,6.9,1.3,8.9,3.9C256.5,1439,257.3,1441.7,257.3,1444.9L257.3,1444.9z M253.1,1444.9c0-2.1-0.4-3.8-1.2-5
				c-1.4-2.1-4-3.1-7.7-3.1h-15.6v16.2h13.9C249.6,1453,253.1,1450.3,253.1,1444.9L253.1,1444.9z M298.6,1454.8
				c0,6.3-1.5,11.6-4.5,15.8c-3.4,4.7-8.2,7.1-14.3,7.1c-6.1,0-10.8-2.4-14.3-7.1c-3.1-4.2-4.6-9.5-4.6-15.8
				c0-6.3,1.5-11.6,4.5-15.8c3.4-4.7,8.2-7.1,14.3-7.1c6.1,0,10.8,2.4,14.3,7.1C297,1443.2,298.6,1448.5,298.6,1454.8z
				 M294.4,1454.8c0-5.1-1.1-9.4-3.4-12.9c-2.7-4.1-6.5-6.2-11.3-6.2c-4.8,0-8.5,2-11.2,6.1c-2.3,3.6-3.5,7.9-3.5,13
				c0,5.1,1.1,9.4,3.4,12.9c2.7,4.1,6.5,6.2,11.3,6.2c4.8,0,8.5-2,11.2-6.1C293.3,1464.2,294.4,1459.9,294.4,1454.8z M338.5,1476.6
				h-5.3l-13.8-19.4h-9.9v19.4h-4.2V1433h19.3c3.8,0,6.9,1.1,9.2,3.2c2.4,2.2,3.5,5.2,3.5,8.9c0,3.8-1.2,6.8-3.6,8.9
				c-2.3,2-5.4,3-9.2,3L338.5,1476.6z M333.1,1445.1c0-5.5-3.4-8.3-10.1-8.3h-13.6v16.7h12.9
				C329.6,1453.5,333.1,1450.7,333.1,1445.1L333.1,1445.1z M370.9,1436.8h-13.7v39.8H353v-39.8h-13.7v-3.8h31.5L370.9,1436.8
				L370.9,1436.8z M404.8,1476.6h-4.5l-5-13.1h-19.2l-5.2,13.1h-4.3l17.8-43.6h3.4L404.8,1476.6z M394,1460.1l-8.1-21.5l-8.4,21.5
				H394z M432.1,1436.8h-13.7v39.8h-4.2v-39.8h-13.7v-3.8h31.5L432.1,1436.8L432.1,1436.8z M441.6,1476.6h-4.2V1433h4.2V1476.6z
				 M486.8,1454.8c0,6.3-1.5,11.6-4.5,15.8c-3.4,4.7-8.2,7.1-14.3,7.1c-6.1,0-10.8-2.4-14.3-7.1c-3.1-4.2-4.6-9.5-4.6-15.8
				c0-6.3,1.5-11.6,4.5-15.8c3.4-4.7,8.2-7.1,14.3-7.1c6.1,0,10.8,2.4,14.3,7.1C485.3,1443.2,486.8,1448.5,486.8,1454.8z
				 M482.6,1454.8c0-5.1-1.1-9.4-3.4-12.9c-2.7-4.1-6.5-6.2-11.3-6.2c-4.8,0-8.5,2-11.2,6.1c-2.3,3.6-3.5,7.9-3.5,13
				c0,5.1,1.1,9.4,3.4,12.9c2.7,4.1,6.5,6.2,11.3,6.2c4.8,0,8.5-2,11.2-6.1C481.5,1464.2,482.6,1459.9,482.6,1454.8z M527.7,1476.6
				h-4.1l-25.1-36.7v36.7h-4.2V1433h4.1l25.1,36.7V1433h4.2L527.7,1476.6L527.7,1476.6z"/>
		</g>
		<g>
			<g>
				<path class="st32" d="M1234,698.8c-2.7-6.5-10.1-9.5-16.6-6.8c-6.5,2.7-9.5,10.2-6.8,16.6c2.7,6.5,10.2,9.5,16.6,6.8
					C1233.7,712.7,1236.7,705.3,1234,698.8z"/>
				<path class="st32" d="M1244.7,744.2c-2.7-6.5-10.2-9.5-16.6-6.8c-6.5,2.7-9.5,10.2-6.8,16.6c2.7,6.5,10.2,9.5,16.6,6.8
					C1244.3,758.1,1247.4,750.7,1244.7,744.2L1244.7,744.2z"/>
				<path class="st32" d="M1250.2,790.6c-2.7-6.5-10.2-9.5-16.6-6.8c-6.5,2.7-9.5,10.2-6.8,16.6c2.7,6.5,10.2,9.5,16.6,6.8
					C1249.8,804.6,1252.9,797.1,1250.2,790.6z"/>
				<path class="st32" d="M1250.5,837.5c-2.7-6.5-10.2-9.5-16.6-6.8c-6.5,2.7-9.5,10.2-6.8,16.6c2.7,6.5,10.1,9.6,16.6,6.8
					C1250.2,851.5,1253.2,844,1250.5,837.5z"/>
				<path class="st32" d="M1245.4,884.3c-2.7-6.5-10.2-9.5-16.6-6.8c-6.5,2.7-9.5,10.2-6.8,16.6c2.7,6.5,10.2,9.5,16.6,6.8
					C1245,898.2,1248.1,890.7,1245.4,884.3z"/>
				<path class="st32" d="M1235.1,930.2c-2.7-6.5-10.2-9.5-16.6-6.8c-6.5,2.7-9.5,10.2-6.8,16.6c2.7,6.5,10.2,9.5,16.6,6.8
					C1234.7,944.1,1237.8,936.7,1235.1,930.2L1235.1,930.2z"/>
				<path class="st32" d="M1219.7,974.9c-2.7-6.5-10.2-9.5-16.6-6.8c-6.5,2.7-9.5,10.2-6.8,16.6c2.7,6.5,10.2,9.5,16.6,6.8
					C1219.3,988.8,1222.4,981.4,1219.7,974.9z"/>
				<path class="st32" d="M1199.2,1017.5c-2.7-6.5-10.2-9.5-16.6-6.8c-6.5,2.7-9.5,10.2-6.8,16.6c2.7,6.5,10.2,9.5,16.6,6.8
					C1198.8,1031.5,1201.9,1024,1199.2,1017.5z"/>
				<path class="st32" d="M1174,1057.8c-2.7-6.5-10.2-9.6-16.6-6.8c-6.5,2.7-9.5,10.2-6.8,16.6c2.7,6.5,10.2,9.5,16.6,6.8
					C1173.6,1071.7,1176.7,1064.2,1174,1057.8L1174,1057.8z"/>
				<path class="st32" d="M1144.3,1095c-2.7-6.5-10.2-9.5-16.6-6.8c-6.5,2.7-9.5,10.2-6.8,16.6c2.7,6.5,10.2,9.6,16.6,6.8
					C1144,1108.9,1147.1,1101.5,1144.3,1095z"/>
				<path class="st32" d="M1110.4,1128.5c-2.7-6.5-10.2-9.5-16.6-6.8c-6.5,2.7-9.6,10.2-6.8,16.6c2.7,6.5,10.2,9.6,16.6,6.8
					C1110.1,1142.5,1113.2,1135,1110.4,1128.5L1110.4,1128.5z"/>
				<path class="st32" d="M1072.9,1158.1c-2.7-6.5-10.2-9.5-16.6-6.8c-6.5,2.7-9.5,10.2-6.8,16.6c2.7,6.5,10.2,9.5,16.6,6.8
					C1072.5,1172.1,1075.6,1164.6,1072.9,1158.1L1072.9,1158.1z"/>
				<path class="st32" d="M1032.1,1183.3c-2.7-6.5-10.1-9.5-16.6-6.8c-6.5,2.7-9.5,10.2-6.8,16.6c2.7,6.5,10.2,9.5,16.6,6.8
					C1031.7,1197.2,1034.8,1189.8,1032.1,1183.3L1032.1,1183.3z"/>
				<path class="st32" d="M988.5,1203.5c-2.7-6.5-10.2-9.6-16.6-6.8c-6.5,2.7-9.5,10.2-6.8,16.6c2.7,6.5,10.2,9.5,16.6,6.8
					C988.2,1217.5,991.2,1210,988.5,1203.5z"/>
				<path class="st32" d="M895.6,1228.8c-2.7-6.5-10.2-9.6-16.6-6.8c-6.5,2.7-9.5,10.2-6.8,16.6c2.7,6.5,10.2,9.6,16.6,6.8
					C895.2,1242.7,898.3,1235.2,895.6,1228.8z"/>
				<path class="st32" d="M847.4,1233.1c-2.7-6.5-10.1-9.5-16.6-6.8c-6.5,2.7-9.5,10.2-6.8,16.6c2.7,6.5,10.2,9.5,16.6,6.8
					C847,1247,850.1,1239.5,847.4,1233.1z"/>
				<path class="st32" d="M798.9,1231.7c-2.7-6.5-10.2-9.5-16.6-6.8c-6.5,2.7-9.6,10.2-6.8,16.6c2.7,6.5,10.2,9.5,16.6,6.8
					C798.5,1245.7,801.6,1238.2,798.9,1231.7z"/>
				<path class="st32" d="M750.7,1224.8c-2.7-6.5-10.2-9.6-16.6-6.8c-6.5,2.7-9.5,10.2-6.8,16.6c2.7,6.5,10.2,9.5,16.6,6.8
					C750.3,1238.7,753.4,1231.3,750.7,1224.8L750.7,1224.8z"/>
				<path class="st32" d="M703.6,1212.1c-2.7-6.5-10.2-9.5-16.6-6.8c-6.5,2.7-9.5,10.2-6.8,16.6c2.7,6.5,10.2,9.5,16.6,6.8
					C703.2,1226.1,706.3,1218.6,703.6,1212.1z"/>
				<path class="st32" d="M658.1,1194.2c-2.7-6.5-10.2-9.6-16.6-6.8c-6.5,2.7-9.6,10.2-6.8,16.6c2.7,6.5,10.2,9.5,16.6,6.8
					C657.8,1208.1,660.8,1200.7,658.1,1194.2L658.1,1194.2z"/>
				<path class="st32" d="M615,1170.9c-2.7-6.5-10.2-9.5-16.6-6.8c-6.5,2.7-9.5,10.2-6.8,16.6c2.7,6.5,10.2,9.5,16.6,6.8
					C614.6,1184.8,617.7,1177.3,615,1170.9z"/>
				<path class="st32" d="M574.7,1142.7c-2.7-6.5-10.2-9.5-16.6-6.8c-6.5,2.7-9.5,10.2-6.8,16.6c2.7,6.5,10.2,9.5,16.6,6.8
					C574.4,1156.6,577.5,1149.2,574.7,1142.7L574.7,1142.7z"/>
				<path class="st32" d="M538.1,1109.8c-2.7-6.5-10.2-9.5-16.6-6.8c-6.5,2.7-9.5,10.2-6.8,16.6c2.7,6.5,10.2,9.5,16.6,6.8
					C537.7,1123.7,540.8,1116.2,538.1,1109.8L538.1,1109.8z"/>
				<path class="st32" d="M505.5,1072.7c-2.7-6.5-10.2-9.5-16.6-6.8c-6.5,2.7-9.5,10.2-6.8,16.6c2.7,6.5,10.2,9.5,16.6,6.8
					C505.1,1086.6,508.2,1079.1,505.5,1072.7z"/>
				<path class="st32" d="M477.4,1031.9c-2.7-6.5-10.2-9.5-16.6-6.8c-6.5,2.7-9.5,10.2-6.8,16.6c2.7,6.5,10.2,9.5,16.6,6.8
					C477,1045.8,480.1,1038.4,477.4,1031.9L477.4,1031.9z"/>
				<path class="st32" d="M436.6,941.4c-2.7-6.5-10.2-9.6-16.6-6.8c-6.5,2.7-9.5,10.2-6.8,16.6c2.7,6.5,10.2,9.5,16.6,6.8
					C436.3,955.3,439.3,947.8,436.6,941.4L436.6,941.4z"/>
				<path class="st32" d="M424.5,893c-2.7-6.5-10.2-9.5-16.6-6.8c-6.5,2.7-9.5,10.2-6.8,16.6c2.7,6.5,10.2,9.5,16.6,6.8
					C424.1,906.9,427.2,899.4,424.5,893z"/>
				<path class="st32" d="M418.3,843.3c-2.7-6.5-10.2-9.6-16.6-6.8c-6.5,2.7-9.5,10.2-6.8,16.6c2.7,6.5,10.2,9.5,16.6,6.8
					C417.9,857.2,421,849.8,418.3,843.3z"/>
				<path class="st32" d="M418,793.1c-2.7-6.5-10.2-9.5-16.6-6.8c-6.5,2.7-9.5,10.2-6.8,16.6c2.7,6.5,10.2,9.5,16.6,6.8
					C417.6,807.1,420.7,799.6,418,793.1L418,793.1z"/>
				<path class="st32" d="M424,743.2c-2.7-6.5-10.2-9.5-16.6-6.8c-6.5,2.7-9.5,10.2-6.8,16.6c2.7,6.5,10.2,9.5,16.6,6.8
					C423.6,757.1,426.7,749.7,424,743.2L424,743.2z"/>
				<path class="st32" d="M435.8,694.2c-2.7-6.5-10.2-9.5-16.6-6.8c-6.5,2.7-9.5,10.2-6.8,16.6c2.7,6.5,10.1,9.5,16.6,6.8
					C435.4,708.1,438.5,700.7,435.8,694.2L435.8,694.2z"/>
				<path class="st32" d="M453.6,646.9c-2.7-6.5-10.2-9.5-16.6-6.8c-6.5,2.7-9.5,10.2-6.8,16.6c2.7,6.5,10.2,9.5,16.6,6.8
					C453.2,660.8,456.3,653.3,453.6,646.9z"/>
				<path class="st32" d="M476.9,601.9c-2.7-6.5-10.2-9.5-16.6-6.8c-6.5,2.7-9.5,10.2-6.8,16.6c2.7,6.5,10.2,9.5,16.6,6.8
					C476.6,615.8,479.6,608.3,476.9,601.9z"/>
				<path class="st32" d="M505.7,560c-2.7-6.5-10.2-9.5-16.6-6.8c-6.5,2.7-9.5,10.2-6.8,16.6c2.7,6.5,10.2,9.5,16.6,6.8
					C505.4,573.9,508.4,566.4,505.7,560z"/>
				<path class="st32" d="M539.4,521.7c-2.7-6.5-10.2-9.5-16.6-6.8c-6.5,2.7-9.5,10.2-6.8,16.6c2.7,6.5,10.2,9.5,16.6,6.8
					C539.1,535.7,542.1,528.2,539.4,521.7z"/>
				<path class="st32" d="M577.7,487.9c-2.7-6.5-10.2-9.5-16.6-6.8c-6.5,2.7-9.5,10.2-6.8,16.6c2.7,6.5,10.2,9.6,16.6,6.8
					C577.4,501.9,580.4,494.4,577.7,487.9L577.7,487.9z"/>
				<path class="st32" d="M620,458.9c-2.7-6.5-10.2-9.5-16.6-6.8c-6.5,2.7-9.5,10.2-6.8,16.6c2.7,6.5,10.2,9.5,16.6,6.8
					C619.6,472.9,622.7,465.4,620,458.9z"/>
				<path class="st32" d="M665.6,435.4c-2.7-6.5-10.2-9.5-16.6-6.8c-6.5,2.7-9.5,10.2-6.8,16.6c2.7,6.5,10.2,9.5,16.6,6.8
					C665.2,449.3,668.3,441.9,665.6,435.4L665.6,435.4z"/>
				<path class="st32" d="M764.1,405.6c-2.7-6.5-10.2-9.5-16.6-6.8c-6.5,2.7-9.5,10.2-6.8,16.6c2.7,6.5,10.2,9.5,16.6,6.8
					C763.8,419.6,766.8,412.1,764.1,405.6L764.1,405.6z"/>
				<path class="st32" d="M815.6,400c-2.7-6.5-10.2-9.6-16.6-6.8c-6.5,2.7-9.6,10.2-6.8,16.6c2.7,6.5,10.2,9.6,16.6,6.8
					C815.2,413.9,818.3,406.4,815.6,400z"/>
				<path class="st32" d="M867.5,401c-2.7-6.5-10.2-9.6-16.6-6.8c-6.5,2.7-9.5,10.2-6.8,16.6c2.7,6.5,10.2,9.5,16.6,6.8
					C867.1,415,870.2,407.5,867.5,401L867.5,401z"/>
				<path class="st32" d="M919,408.4c-2.7-6.5-10.2-9.5-16.6-6.8c-6.5,2.7-9.6,10.2-6.8,16.6c2.7,6.5,10.1,9.5,16.6,6.8
					C918.7,422.3,921.7,414.9,919,408.4L919,408.4z"/>
				<path class="st32" d="M969.4,422.3c-2.7-6.5-10.2-9.5-16.6-6.8c-6.5,2.7-9.5,10.2-6.8,16.6c2.7,6.5,10.2,9.5,16.6,6.8
					C969,436.2,972.1,428.8,969.4,422.3z"/>
				<path class="st32" d="M1017.7,442.3c-2.7-6.5-10.2-9.5-16.6-6.8c-6.5,2.7-9.5,10.1-6.8,16.6c2.7,6.5,10.2,9.5,16.6,6.8
					C1017.3,456.3,1020.4,448.8,1017.7,442.3L1017.7,442.3z"/>
				<path class="st32" d="M1063.3,468.3c-2.7-6.5-10.2-9.5-16.6-6.8c-6.5,2.7-9.6,10.2-6.8,16.6c2.7,6.5,10.2,9.5,16.6,6.8
					C1063,482.2,1066,474.7,1063.3,468.3z"/>
				<path class="st32" d="M1105.3,499.9c-2.7-6.5-10.2-9.5-16.6-6.8c-6.5,2.7-9.5,10.2-6.8,16.6c2.7,6.5,10.1,9.5,16.6,6.8
					C1105,513.9,1108.1,506.4,1105.3,499.9L1105.3,499.9z"/>
				<path class="st32" d="M1143.2,536.7c-2.7-6.5-10.2-9.5-16.6-6.8c-6.5,2.7-9.5,10.2-6.8,16.6c2.7,6.5,10.2,9.5,16.6,6.8
					C1142.8,550.6,1145.9,543.2,1143.2,536.7z"/>
				<path class="st32" d="M1176.1,578.1c-2.7-6.5-10.2-9.5-16.6-6.8c-6.5,2.7-9.5,10.2-6.8,16.6c2.7,6.5,10.2,9.5,16.6,6.8
					C1175.8,592,1178.8,584.6,1176.1,578.1z"/>
				<path class="st32" d="M1203.6,623.5c-2.7-6.5-10.2-9.5-16.6-6.8c-6.5,2.7-9.6,10.2-6.8,16.6c2.7,6.5,10.2,9.5,16.6,6.8
					C1203.2,637.5,1206.3,630,1203.6,623.5L1203.6,623.5z"/>
				<polygon class="st32" points="1213.2,680.1 1227.5,658.8 1241.8,637.5 1203.1,650.7 1164.4,663.9 1188.8,672 				"/>
				<polygon class="st32" points="438,975 423.7,996.3 409.3,1017.6 448,1004.4 486.7,991.2 462.4,983.1 				"/>
				<polygon class="st32" points="719.2,417.6 697.9,403.3 676.5,389 689.8,427.7 703,466.4 711.1,442 				"/>
				<polygon class="st32" points="914.5,1230.7 935.8,1245 957.1,1259.3 943.9,1220.6 930.7,1181.9 922.6,1206.3 				"/>
			</g>
			<g>
				<path class="st33" d="M1113.9,606c24.4,322.7-324,548.2-608.1,390.3C793,1211.6,1368.5,941.6,1113.9,606z"/>
				<path class="st33" d="M505.8,996.4C584.6,1081,698,1137,822.7,1137c168.6,0,340.3-89.6,360.9-269.9
					C1038.3,1098.5,725.9,1155.4,505.8,996.4L505.8,996.4z"/>
				<path class="st33" d="M505.8,996.4c97.9,170.6,318,241.3,490.1,148.9C793.8,1201.5,630.9,1129.4,505.8,996.4z"/>
				<path class="st33" d="M786.8,535.8c21.2,0,41.9,2.2,61.9,6.1c-41.3-28.4-88-49.5-138.3-61.4
					c-196.8,65.1-298.1,281.8-225.4,473.4c-10.4-31.5-16.1-65.2-16.1-100.2C468.8,678.2,611.2,535.8,786.8,535.8L786.8,535.8z"/>
				<path class="st34" d="M1093.6,581.6c-32.9-36.3-73.1-66-118.2-86.6c29.1,47.9,47.8,100.9,55.6,155.3
					c21.8,26.2,39.6,55.9,52.1,88.2C1096.8,687.1,1100.2,633.8,1093.6,581.6L1093.6,581.6z M824.9,462.2L824.9,462.2
					c-0.1,0-0.3,0-0.4,0c-24.1,0-47.7,2.4-70.5,6.9c11.2,4.9,22.3,10.3,33.2,16.1c34.6,18.4,66.1,40.4,94.4,65.1
					c12.1,3.8,23.9,8.3,35.3,13.4C892.6,525.6,861.8,491.1,824.9,462.2L824.9,462.2z M851.7,463.2L851.7,463.2
					c36.5,32.7,66.6,70.9,89.6,112.7c25.2,14.1,48.3,31.4,68.6,51.5c-11.2-51.1-32-99.9-61.5-143.5
					C917.9,472.8,885.5,465.7,851.7,463.2L851.7,463.2z"/>
				<polygon class="st1" points="651,973.9 707.2,709.7 600.2,709.7 618.5,624.8 949.1,624.8 930.6,709.7 823.5,709.7 767.3,973.9 
									"/>
				<polygon class="st6" points="634,1054.3 646.2,999.8 762.5,999.8 750.3,1054.3 				"/>
			</g>
		</g>
	</g>
</g>
</svg>
