<?xml version="1.0" encoding="UTF-8"?>
<!DOCTYPE svg PUBLIC "-//W3C//DTD SVG 1.1//EN" "http://www.w3.org/Graphics/SVG/1.1/DTD/svg11.dtd">
<!-- Creator: CorelDRAW Standard 2021 (64 Bit) -->
<svg xmlns="http://www.w3.org/2000/svg" xml:space="preserve" width="427.986mm" height="447.12mm" version="1.1" style="shape-rendering:geometricPrecision; text-rendering:geometricPrecision; image-rendering:optimizeQuality; fill-rule:evenodd; clip-rule:evenodd"
viewBox="0 0 1905.12 1990.29"
 xmlns:xlink="http://www.w3.org/1999/xlink"
 xmlns:xodm="http://www.corel.com/coreldraw/odm/2003">
 <defs>
  <style type="text/css">
   <![CDATA[
    .fil10 {fill:#FEFEFE}
    .fil5 {fill:#FBF9D9}
    .fil2 {fill:#EDCD8B}
    .fil16 {fill:#E68039}
    .fil13 {fill:#E8E9EA}
    .fil27 {fill:#E8E7E8}
    .fil3 {fill:#DB6D3A}
    .fil21 {fill:#D8E0E7}
    .fil12 {fill:#D9B362}
    .fil9 {fill:#CE753F}
    .fil7 {fill:#D2D4D4}
    .fil28 {fill:#D2D2D3}
    .fil19 {fill:#C3CED4}
    .fil24 {fill:#BFBEC0}
    .fil25 {fill:#BCBFC1}
    .fil17 {fill:#A7C5D1}
    .fil0 {fill:#A78C72}
    .fil8 {fill:#A9ACAF}
    .fil29 {fill:#A8AAAE}
    .fil20 {fill:#9FA6AD}
    .fil18 {fill:#959798}
    .fil22 {fill:#8B9598}
    .fil14 {fill:#848588}
    .fil23 {fill:#7C8588}
    .fil15 {fill:#737576}
    .fil30 {fill:#626163}
    .fil4 {fill:#6E879A}
    .fil26 {fill:#616163}
    .fil31 {fill:#4D4E4F}
    .fil6 {fill:#094561}
    .fil32 {fill:gray}
    .fil1 {fill:#F59B2C}
    .fil33 {fill:#094561;fill-rule:nonzero}
    .fil11 {fill:gray;fill-rule:nonzero}
    .fil34 {fill:#F59B2C;fill-rule:nonzero}
   ]]>
  </style>
 </defs>
 <g id="Camada_x0020_1">
  <metadata id="CorelCorpID_0Corel-Layer"/>
  <g id="_2615136703200">
   <polygon class="fil0" points="817.41,1897.5 1067.44,1897.5 1067.44,1636.6 817.41,1636.6 "/>
   <polygon class="fil1" points="1080.59,1627.76 825.86,1627.76 825.66,1887.92 1080.59,1889.29 "/>
   <polygon class="fil2" points="853.04,1685.26 912.25,1665.67 936.17,1640.58 968.68,1632.81 1046.32,1627.76 1080.59,1627.76 1080.59,1787.12 1080.17,1792.2 1064.18,1811 1043.68,1797.94 983.52,1825.83 976.17,1842.39 969.57,1872.53 911.86,1879.55 863.96,1884.26 855.81,1870.12 841.62,1851.71 838.08,1788.42 844.34,1766.81 825.85,1744.8 843.89,1722.22 "/>
   <polygon class="fil3" points="1045.02,1697.62 1058.49,1716.18 1045.9,1725.09 1033.16,1737.58 1018.41,1760.49 996.25,1748.17 982.16,1775.88 957.55,1764.96 957.56,1749.87 946.68,1745.97 931.57,1723.25 932.11,1710.01 920.6,1707.11 909.89,1699.05 931.72,1686.39 950.62,1690.54 956.69,1702.54 978.11,1704.02 1019.2,1701.36 "/>
   <polygon class="fil3" points="904.22,1865.76 911.12,1875.28 904.66,1879.84 898.14,1886.25 896.82,1888.3 852.13,1888.06 846.04,1878.91 846.32,1872.12 840.42,1870.62 834.94,1866.5 846.11,1859.99 855.82,1862.13 858.93,1868.28 869.91,1869.05 890.98,1867.68 "/>
   <path class="fil4" d="M825.72 1804.17c6.28,-2.05 12.73,-3.54 19.38,-4.17 8.2,-0.78 15.49,-4.85 22.1,-10.33 6.87,-5.69 13,-12.86 18.68,-19.53 6.76,-7.92 15.05,-13.27 22.82,-18.28 7.42,-4.79 14.34,-9.24 18.38,-15.09l0 -0.01 0.05 -0.05 0 0c2.53,-3.66 5.47,-6.99 8.72,-10.02 3.26,-3.01 6.82,-5.73 10.62,-8.19 19.31,-12.42 44.82,-17.91 65.26,-19.55l0 0 0.02 0 0 -0c2.33,-0.22 6.13,-4.04 9.83,-7.75 4.85,-4.88 9.56,-9.62 14.13,-8.72 12.23,2.41 21.69,3.2 30.93,1.91 4.56,-0.63 9.1,-1.79 13.95,-3.51l0 6.35c-4.49,1.47 -8.79,2.5 -13.14,3.1 -10,1.4 -20.03,0.58 -32.91,-1.96 -1.43,-0.28 -5.02,3.34 -8.72,7.06 -4.44,4.47 -9.02,9.07 -13.51,9.5l-0.08 0 -0.03 0.02c-19.66,1.58 -44.15,6.81 -62.47,18.61 -3.52,2.26 -6.81,4.77 -9.79,7.53 -2.97,2.76 -5.62,5.76 -7.88,9.04l0 0 -0.04 0.06 0 0c-4.73,6.83 -12.13,11.62 -20.06,16.72 -7.43,4.79 -15.38,9.9 -21.51,17.1 -5.89,6.91 -12.24,14.36 -19.42,20.29 -7.43,6.16 -15.75,10.75 -25.36,11.66 -6.8,0.65 -13.45,2.29 -19.94,4.54l0 -6.33z"/>
   <path class="fil5" d="M1080.59 1851.89l-11.07 -0.33 -1.3 -0.05 -1.11 -0.48 -52.73 -23.24 -35.61 -7.63c-4.27,5.59 -8.06,11.7 -11.85,17.79 -7.85,12.65 -15.67,25.25 -27.87,33.68 -8.61,5.95 -19.12,6.37 -29.7,6.78 -8.56,0.33 -17.17,0.67 -24.39,4.09 -3.78,1.78 -7.51,3.69 -11.17,5.69l-8.67 -0.06c5.87,-3.4 11.87,-6.58 18,-9.51 8.01,-3.79 17.07,-4.15 26.07,-4.49 9.95,-0.38 19.83,-0.78 27.42,-6.02 11.45,-7.91 19.03,-20.14 26.66,-32.41 3.48,-5.62 6.98,-11.24 10.86,-16.52l-18.35 -3.93 -3.77 -0.81 -1.06 -3.7 -5.62 -19.58 -13.12 -11.61 -1.66 -1.46 -0.4 -2.16 -4.62 -25.02 -32.82 -38.71 -0.96 -1.14 -0.36 -1.47 -13.43 -53.82 -0.01 0 -7.11 -28.01 13.22 0 6.32 24.85 0 0.06 3.21 12.87 0.82 1.46c5.29,9.35 10.57,18.7 18.7,25.06 4.54,3.57 10.85,4.24 17.19,4.92 6.19,0.66 12.41,1.31 17.72,4.55 11.35,6.89 20.61,16.42 29.74,25.99 13.07,5.79 25.81,9.77 38.48,12 13.04,2.29 26.01,2.75 39.2,1.44 8.53,-0.84 16.88,-4.37 25.14,-8.68l0 4.81c-8.01,4.05 -16.19,7.28 -24.72,8.13 -13.61,1.35 -26.96,0.89 -40.36,-1.47 -10.03,-1.77 -20.09,-4.59 -30.32,-8.52 0.58,0.59 1.17,1.17 1.74,1.75l0.01 0 0 0.01c1.17,1.16 2.44,2.35 3.73,3.55 5.01,4.67 10.17,9.46 12.2,16.13 2.01,6.59 3.82,13.64 4.56,20.71 0.77,7.19 0.44,14.39 -1.83,21.12 -1.9,5.63 -7.2,7.92 -12.62,10.25 -0.7,0.3 -1.41,0.61 -2.1,0.92l26.83 5.74 0.67 0.15 0.59 0.25 52.21 23.02 9.43 0.27 0 12.79zm-183.33 -171.69l6.19 24.86 32.96 38.88 1.09 1.28 0.3 1.69 4.53 24.54 12.89 11.4 1.42 1.25 0.5 1.78 5.07 17.64 22.05 4.73c2.17,-1.36 4.6,-2.41 7,-3.44 4.54,-1.95 8.98,-3.86 10.26,-7.67 2.06,-6.09 2.34,-12.68 1.64,-19.31 -0.72,-6.76 -2.46,-13.55 -4.4,-19.91 -1.7,-5.55 -6.43,-9.95 -11.04,-14.24 -1.28,-1.2 -2.58,-2.4 -3.83,-3.66l-0.01 0 0 -0.01c-2.83,-2.84 -5.58,-5.71 -8.33,-8.6l-0.29 -0.31 -0.42 -0.18 0.07 -0.17c-9.03,-9.46 -18.16,-18.9 -29.11,-25.55 -4.48,-2.73 -10.24,-3.33 -15.95,-3.94 -6.95,-0.73 -13.85,-1.47 -19.38,-5.79 -5.39,-4.23 -9.55,-9.54 -13.21,-15.25l0 0z"/>
   <path class="fil0" d="M1080.56 1852.73l-11.07 -0.32 -1.29 -0.04 -0.17 0 -0.15 -0.07 -1.11 -0.49 -52.65 -23.2 -35.92 -7.69c0.38,-0.5 0.77,-1 1.15,-1.5l35.22 7.54 0.08 0.02 0.1 0.05 52.72 23.23 0.96 0.42 1.13 0.04 11.05 0.33 0 1.7 -0.03 0zm-106.97 -32.8l-17.97 -3.85 -3.78 -0.8 -0.5 -0.11 -0.13 -0.5 -1.06 -3.71 -5.56 -19.34 -12.94 -11.43 -1.65 -1.46 -0.23 -0.19 -0.05 -0.29 -0.4 -2.18 -4.59 -24.78 -32.66 -38.54 -0.95 -1.13 -0.13 -0.15 -0.05 -0.19 -0.37 -1.48 -13.21 -53.02 -0.02 0.01 -0.19 -0.81 -7.11 -28 0 0 -0.05 -0.21 1.77 0 6.86 27 0.01 -0 0.2 0.81 13.41 53.82 0.33 1.28 0.83 0.97 32.82 38.72 0.15 0.17 0.04 0.22 4.62 25.01 0.36 1.88 1.42 1.26 13.12 11.61 0.19 0.17 0.06 0.23 5.63 19.58 0.92 3.2 3.25 0.7 18.74 4.01c-0.37,0.5 -0.74,1.01 -1.12,1.52l0 0zm-88.63 -192.17l-1.75 0 0.02 0.14 0.01 0.07 0 0 6.28 24.74 0 0.04 0.02 0.11 2.48 9.93c0.81,1.4 1.59,2.8 2.38,4.21l0.77 1.34 -3.93 -15.77 0 -0.06 -0.03 -0.11 -6.25 -24.64 0 0zm13.71 54.58c-0.99,-1.47 -1.95,-2.96 -2.88,-4.49l6.83 27.41 0.04 0.2 0.13 0.14 32.96 38.87 0.93 1.11 0.28 1.47 4.53 24.53 0.05 0.29 0.22 0.19 12.89 11.39 1.23 1.08 0.44 1.55 5.08 17.65 0.13 0.49 0.51 0.11 21.24 4.54c0.66,-0.47 1.35,-0.9 2.06,-1.31l-22.45 -4.81 -4.93 -17.16 -0.5 -1.78 -0.07 -0.24 -0.19 -0.16 -1.41 -1.25 -12.67 -11.21 -4.47 -24.24 -0.32 -1.7 -0.04 -0.23 -0.14 -0.17 -1.1 -1.28 -32.82 -38.72 -5.56 -22.31 0 0zm93.54 126.74c-0.89,0.38 -1.78,0.78 -2.64,1.18l27.96 6 0.57 0.12 0.5 0.22 52.22 23.01 0.14 0.07 0.18 0 9.42 0.28 0.03 0 0 -1.71 -9.24 -0.27 -52.06 -22.94 -0.58 -0.26 -0.08 -0.04 -0.1 -0.01 -0.67 -0.15 -25.66 -5.49 0 0z"/>
   <path class="fil6" d="M996.72 1659.43c5.77,1.21 10.45,5.32 10.45,9.16 0,3.85 -4.68,5.97 -10.45,4.76 -5.76,-1.22 -10.45,-5.31 -10.45,-9.16 0,-3.84 4.69,-5.97 10.45,-4.76z"/>
   <path class="fil7" d="M1011.77 1601.15l10.8 4.21 -23.75 60.91c-2.35,3.87 -13.41,2.06 -10.8,-4.21l23.75 -60.92z"/>
   <path class="fil8" d="M1017.69 1603.46l0 0 4.89 1.9 -23.75 60.91c-1.04,1.7 -3.77,2.31 -6.26,1.91l25.12 -64.73z"/>
   <path class="fil9" d="M1019.46 1622.15c13.17,0 23.89,-10.74 23.89,-23.9 0,-13.17 -10.73,-23.89 -23.89,-23.89 -13.16,0 -23.89,10.73 -23.89,23.89 0,13.16 10.73,23.9 23.89,23.9z"/>
   <path class="fil3" d="M1019.46 1574.36c6.07,0 11.61,2.26 15.83,6 0.62,2.41 0.97,4.93 0.97,7.53 0,16.31 -13.22,29.53 -29.53,29.53 -0.54,0 -1.07,-0.02 -1.59,-0.04 -5.81,-4.36 -9.57,-11.31 -9.57,-19.13 0,-13.2 10.7,-23.89 23.89,-23.89z"/>
   <path class="fil10" d="M1008 1581.88c2.33,-2.06 5.16,-2.66 6.31,-1.35 1.16,1.3 0.21,4.04 -2.11,6.09 -2.32,2.05 -5.15,2.66 -6.32,1.35 -1.14,-1.31 -0.2,-4.04 2.12,-6.09z"/>
   <path class="fil11" d="M858.63 1952.11c0,9.26 -5.12,13.89 -15.39,13.89l-17.94 0 0 23.01 -4.84 0 0 -50.71 25 0c4.57,0 8.01,1.49 10.33,4.48 1.9,2.46 2.85,5.57 2.85,9.33zm-4.84 -0.01c0,-2.45 -0.48,-4.38 -1.43,-5.78 -1.65,-2.41 -4.64,-3.61 -8.98,-3.61l-18.09 0 0 18.87 16.11 0c8.25,0 12.38,-3.16 12.38,-9.48zm16.15 36.91l-4.84 0 0 -50.71 4.84 0 0 50.71zm50.08 -11.42c-3.27,8.46 -9.87,12.7 -19.79,12.7 -7.47,0 -13.06,-2.66 -16.8,-7.97 -3.24,-4.62 -4.87,-10.84 -4.87,-18.67 0,-9.02 2.16,-15.86 6.47,-20.51 3.8,-4.08 8.74,-6.12 14.81,-6.12 5.16,0 9.31,1 12.42,2.99 3.19,2.04 5.78,5.42 7.75,10.14l-4.84 2.4c-1.2,-3.96 -2.94,-6.79 -5.21,-8.51 -2.27,-1.73 -5.47,-2.6 -9.59,-2.6 -5.91,0 -10.34,2.32 -13.28,6.96 -2.46,3.89 -3.68,8.99 -3.68,15.27 0,14.81 5.91,22.22 17.72,22.22 7.03,0 11.78,-3.58 14.25,-10.75l4.63 2.47zm47.08 11.42l-5.94 0 -19.06 -27.26 -11.04 11.17 0 16.1 -4.84 0 0 -50.71 4.84 0 0 28.08 27.55 -28.08 6.77 0 -19.79 19.95 21.5 30.75zm61.51 -16.45c0,5.75 -1.69,10.16 -5.07,13.25 -3.26,2.99 -7.78,4.49 -13.59,4.49 -5.77,0 -10.28,-1.5 -13.56,-4.49 -3.4,-3.13 -5.1,-7.55 -5.1,-13.25l0 -34.25 4.84 0 0 34.11c0,4.38 1.21,7.73 3.62,10.02 2.41,2.29 5.81,3.44 10.2,3.44 9.21,0 13.82,-4.49 13.82,-13.46l0 -34.11 4.84 0 0 34.25zm48.93 -20.44c0,9.26 -5.12,13.89 -15.39,13.89l-17.94 0 0 23.01 -4.84 0 0 -50.71 25 0c4.57,0 8.01,1.49 10.33,4.48 1.9,2.46 2.85,5.57 2.85,9.33zm-4.84 -0.01c0,-2.45 -0.48,-4.38 -1.43,-5.78 -1.65,-2.41 -4.64,-3.61 -8.98,-3.61l-18.09 0 0 18.87 16.11 0c8.25,0 12.38,-3.16 12.38,-9.48z"/>
   <polygon class="fil0" points="1357.18,1668.06 1571.93,1668.06 1571.93,1448.75 1357.18,1448.75 "/>
   <polygon class="fil12" points="1364.02,1661.59 1578.77,1661.59 1578.77,1442.27 1364.02,1442.27 "/>
   <polygon class="fil2" points="1372.43,1653.51 1587.19,1653.51 1587.19,1434.18 1372.43,1434.18 "/>
   <path class="fil6" d="M1398.38 1472.51c7.08,0 12.84,-5.77 12.84,-12.83 0,-7.07 -5.76,-12.84 -12.84,-12.84 -7.06,0 -12.83,5.77 -12.83,12.84 0,7.07 5.77,12.83 12.83,12.83z"/>
   <path class="fil13" d="M1398.42 1401.31l0 0c4.45,0 8.1,3.65 8.1,8.11l0 49.53c0,4.45 -3.65,8.11 -8.1,8.11l0 0c-4.46,0 -8.11,-3.66 -8.11,-8.11l0 -49.53c0,-4.46 3.65,-8.11 8.11,-8.11z"/>
   <path class="fil8" d="M1398.42 1401.31l0 0c4.45,0 8.1,3.65 8.1,8.11l0 1.26 -0.19 0.19c-6.02,-9.18 -13.32,-0.94 -15.7,35.62l-0.32 -0.1 0 -36.97c0,-4.46 3.65,-8.11 8.11,-8.11z"/>
   <path class="fil6" d="M1438.18 1472.51c7.07,0 12.84,-5.77 12.84,-12.83 0,-7.07 -5.77,-12.84 -12.84,-12.84 -7.07,0 -12.84,5.77 -12.84,12.84 0,7.07 5.77,12.83 12.84,12.83z"/>
   <path class="fil13" d="M1438.22 1401.31l0 0c4.46,0 8.11,3.65 8.11,8.11l0 49.53c0,4.45 -3.65,8.11 -8.11,8.11l0 0c-4.46,0 -8.11,-3.66 -8.11,-8.11l0 -49.53c0,-4.46 3.65,-8.11 8.11,-8.11z"/>
   <path class="fil8" d="M1438.22 1401.31l0 0c4.46,0 8.11,3.65 8.11,8.11l0 1.26 -0.2 0.19c-6.01,-9.18 -13.32,-0.94 -15.69,35.62l-0.32 -0.1 0 -36.97c0,-4.46 3.65,-8.11 8.11,-8.11z"/>
   <path class="fil6" d="M1477.98 1472.51c7.07,0 12.84,-5.77 12.84,-12.83 0,-7.07 -5.77,-12.84 -12.84,-12.84 -7.07,0 -12.84,5.77 -12.84,12.84 0,7.07 5.77,12.83 12.84,12.83z"/>
   <path class="fil13" d="M1478.01 1401.31l0 0c4.47,0 8.11,3.65 8.11,8.11l0 49.53c0,4.45 -3.65,8.11 -8.11,8.11l0 0c-4.46,0 -8.11,-3.66 -8.11,-8.11l0 -49.53c0,-4.46 3.65,-8.11 8.11,-8.11z"/>
   <path class="fil8" d="M1478.01 1401.31l0 0c4.47,0 8.11,3.65 8.11,8.11l0 1.26 -0.19 0.19c-6.02,-9.18 -13.32,-0.94 -15.71,35.62l-0.32 -0.1 0 -36.97c0,-4.46 3.65,-8.11 8.11,-8.11z"/>
   <path class="fil6" d="M1517.77 1472.51c7.07,0 12.84,-5.77 12.84,-12.83 0,-7.07 -5.77,-12.84 -12.84,-12.84 -7.07,0 -12.84,5.77 -12.84,12.84 0,7.07 5.77,12.83 12.84,12.83z"/>
   <path class="fil13" d="M1517.81 1401.31l0 0c4.46,0 8.11,3.65 8.11,8.11l0 49.53c0,4.45 -3.66,8.11 -8.11,8.11l0 0c-4.46,0 -8.11,-3.66 -8.11,-8.11l0 -49.53c0,-4.46 3.65,-8.11 8.11,-8.11z"/>
   <path class="fil8" d="M1517.81 1401.31l0 0c4.46,0 8.11,3.65 8.11,8.11l0 1.26 -0.2 0.19c-6.01,-9.18 -13.32,-0.94 -15.7,35.62l-0.32 -0.1 0 -36.97c0,-4.46 3.65,-8.11 8.11,-8.11z"/>
   <path class="fil6" d="M1557.57 1472.51c7.07,0 12.83,-5.77 12.83,-12.83 0,-7.07 -5.76,-12.84 -12.83,-12.84 -7.07,0 -12.84,5.77 -12.84,12.84 0,7.07 5.77,12.83 12.84,12.83z"/>
   <path class="fil13" d="M1557.61 1401.31l0 0c4.46,0 8.1,3.65 8.1,8.11l0 49.53c0,4.45 -3.64,8.11 -8.1,8.11l0.01 0c-4.46,0 -8.11,-3.66 -8.11,-8.11l0 -49.53c0,-4.46 3.65,-8.11 8.11,-8.11z"/>
   <path class="fil8" d="M1557.61 1401.31l0 0c4.46,0 8.1,3.65 8.1,8.11l0 1.26 -0.19 0.19c-6.01,-9.18 -13.32,-0.94 -15.7,35.62l-0.32 -0.1 0 -36.97c0,-4.46 3.65,-8.11 8.11,-8.11z"/>
   <path class="fil3" d="M1528.86 1605.82l0 -72.44c-13.48,10.36 -22.57,15.53 -27.24,15.53 -2.22,0 -4.21,-0.9 -5.92,-2.67 -1.75,-1.79 -2.59,-3.83 -2.59,-6.16 0,-2.71 0.84,-4.71 2.53,-5.99 1.71,-1.28 4.7,-2.91 8.99,-4.92 6.44,-3.04 11.58,-6.22 15.41,-9.56 3.86,-3.34 7.26,-7.1 10.25,-11.23 2.96,-4.13 4.9,-6.69 5.81,-7.63 0.89,-0.96 2.59,-1.45 5.08,-1.45 2.83,0 5.08,1.1 6.78,3.27 1.71,2.17 2.55,5.19 2.55,9l0 91.16c0,10.69 -3.64,16.02 -10.9,16.02 -3.26,0 -5.85,-1.09 -7.83,-3.26 -1.96,-2.18 -2.93,-5.39 -2.93,-9.65z"/>
   <path class="fil3" d="M1439.25 1546.26c4.89,0 9.11,-1.44 12.64,-4.29 3.53,-2.86 5.29,-6.99 5.29,-12.34 0,-4.08 -1.41,-7.59 -4.24,-10.55 -2.8,-2.94 -6.6,-4.4 -11.39,-4.4 -3.24,0 -5.9,0.45 -7.99,1.36 -2.1,0.9 -3.75,2.1 -4.98,3.56 -1.23,1.49 -2.39,3.39 -3.48,5.74 -1.09,2.33 -2.07,4.53 -2.99,6.6 -0.52,1.11 -1.47,1.99 -2.85,2.61 -1.39,0.65 -2.97,0.95 -4.79,0.95 -2.12,0 -4.07,-0.84 -5.85,-2.59 -1.79,-1.7 -2.67,-4.02 -2.67,-6.87 0,-2.74 0.82,-5.65 2.51,-8.73 1.68,-3.04 4.1,-5.96 7.34,-8.7 3.21,-2.77 7.2,-4.97 11.96,-6.65 4.78,-1.66 10.13,-2.5 16.01,-2.5 5.16,0 9.86,0.71 14.11,2.12 4.23,1.39 7.93,3.43 11.06,6.09 3.12,2.64 5.49,5.73 7.09,9.22 1.61,3.5 2.4,7.28 2.4,11.31 0,5.32 -1.16,9.86 -3.48,13.67 -2.31,3.77 -5.6,7.47 -9.9,11.08 4.14,2.23 7.61,4.79 10.47,7.63 2.83,2.88 4.98,6.06 6.41,9.54 1.44,3.46 2.14,7.23 2.14,11.25 0,4.84 -0.97,9.52 -2.9,14.02 -1.93,4.52 -4.78,8.54 -8.56,12.05 -3.78,3.54 -8.23,6.3 -13.43,8.29 -5.17,1.99 -10.9,2.99 -17.15,2.99 -6.39,0 -12.07,-1.15 -17.12,-3.42 -5.05,-2.28 -9.19,-5.14 -12.48,-8.57 -3.26,-3.42 -5.71,-6.96 -7.39,-10.62 -1.69,-3.68 -2.5,-6.69 -2.5,-9.07 0,-3.08 0.98,-5.55 2.99,-7.45 1.99,-1.88 4.45,-2.83 7.45,-2.83 1.47,0 2.9,0.44 4.29,1.33 1.39,0.87 2.28,1.9 2.69,3.13 2.77,7.39 5.73,12.85 8.89,16.44 3.15,3.59 7.61,5.38 13.35,5.38 3.28,0 6.47,-0.82 9.51,-2.42 3.05,-1.63 5.58,-4.02 7.56,-7.2 1.98,-3.21 2.99,-6.88 2.99,-11.09 0,-6.19 -1.68,-11.06 -5.08,-14.59 -3.4,-3.54 -8.13,-5.3 -14.18,-5.3 -1.07,0 -2.72,0.11 -4.95,0.32 -2.22,0.21 -3.64,0.3 -4.29,0.3 -2.91,-0.01 -5.16,-0.71 -6.77,-2.18 -1.57,-1.47 -2.39,-3.51 -2.39,-6.09 0,-2.56 0.95,-4.63 2.88,-6.19 1.9,-1.55 4.75,-2.35 8.5,-2.35l3.26 0z"/>
   <path class="fil11" d="M1350.86 1735.85c0,6.54 -1.5,12.09 -4.49,16.66 -3.8,5.8 -9.44,8.69 -16.9,8.69l-18.57 0 0 -50.71 19.93 0c7.01,0 12.29,2.82 15.82,8.49 2.8,4.5 4.2,10.13 4.2,16.87zm-4.84 0c0,-5.54 -1.15,-10.2 -3.44,-13.95 -2.8,-4.66 -6.92,-6.99 -12.37,-6.99l-14.46 0 0 41.88 13.45 0c5.82,0 10.18,-2.21 13.11,-6.61 2.48,-3.73 3.71,-8.51 3.71,-14.32zm47.29 25.35l-34.69 0 0 -50.71 33.19 0 0 4.41 -28.35 0 0 17.95 25.57 0 0 4.41 -25.57 0 0 19.52 29.85 0 0 4.42zm46.78 0l-5.21 0 -5.76 -15.24 -22.29 0 -6 15.24 -4.97 0 20.66 -50.71 3.92 0 19.65 50.71zm-12.47 -19.23l-9.4 -24.94 -9.74 24.94 19.14 0zm57.76 -6.12c0,6.54 -1.5,12.09 -4.49,16.66 -3.8,5.8 -9.44,8.69 -16.9,8.69l-18.57 0 0 -50.71 19.93 0c7.01,0 12.29,2.82 15.82,8.49 2.8,4.5 4.2,10.13 4.2,16.87zm-4.84 0c0,-5.54 -1.15,-10.2 -3.44,-13.95 -2.8,-4.66 -6.92,-6.99 -12.37,-6.99l-14.46 0 0 41.88 13.45 0c5.82,0 10.18,-2.21 13.11,-6.61 2.48,-3.73 3.71,-8.51 3.71,-14.32zm46.51 25.35l-32.84 0 0 -50.71 4.84 0 0 46.29 27.99 0 0 4.42zm11.41 0l-4.84 0 0 -50.71 4.84 0 0 50.71zm49.94 0l-4.77 0 -29.13 -42.6 0 42.6 -4.84 0 0 -50.71 4.77 0 29.13 42.6 0 -42.6 4.84 0 0 50.71zm45.03 0l-34.69 0 0 -50.71 33.19 0 0 4.41 -28.35 0 0 17.95 25.57 0 0 4.41 -25.57 0 0 19.52 29.85 0 0 4.42z"/>
   <path class="fil14" d="M273.45 307.92c-0.92,-3.46 1.25,-3.62 3.18,-2.18 2.56,1.91 4.28,4.79 6.7,6.89 7.32,6.35 14.99,-2.94 9.27,-8.26 -4.04,-3.75 -7.83,-6.87 -7.88,-11.99 0.04,-1.41 0.02,-2.82 0.01,-4.23l7.35 -0 0.02 0.63c0.02,0.74 -0.01,1.71 0.55,2.71 2.18,3.85 5.5,5.39 8.24,7.26 11.88,8.14 6.04,24.63 -7.39,26.99 -6.05,1.07 -11.91,-0.7 -16.03,-6.22 -1.2,-1.61 -1.96,-4.35 -2.45,-7.23 -0.31,-1.87 -1.07,-2.53 -1.55,-4.36z"/>
   <polygon class="fil15" points="294.75,279.34 294.75,288.14 281.51,288.14 281.51,279.34 "/>
   <polygon class="fil1" points="308.69,249.98 288.24,238.56 288.24,238.57 288.24,238.56 267.79,249.98 278.87,279.34 297.61,279.34 "/>
   <polygon class="fil6" points="269.55,254.63 282.3,241.88 288.24,238.56 288.24,238.57 288.24,238.56 292.49,240.93 272.07,261.34 "/>
   <polygon class="fil6" points="274.57,267.91 298.3,244.18 304.23,247.49 277.09,274.62 "/>
   <polygon class="fil6" points="281.44,279.34 307.42,253.35 301.82,268.19 290.67,279.34 "/>
   <path class="fil8" d="M281.29 310.56c1.06,-0.45 2.27,-0.87 3.57,-1.15 2.22,-0.5 4.65,-0.56 6.96,0.36l0.05 0.02 153.68 65.46 -14.3 0 -141.55 -60.3c-0.72,-0.28 -1.53,-0.35 -2.34,-0.29 -1.3,-0.22 -2.68,-0.86 -4.04,-2.04 -0.73,-0.63 -1.4,-1.34 -2.03,-2.06z"/>
   <path class="fil8" d="M130.22 375.26l145.01 -61.81c0.41,2.06 0.97,3.96 1.77,5.34l-132.48 56.46 -14.29 0z"/>
   <polygon class="fil1" points="123.86,375.26 455.11,375.26 455.11,533.12 357.23,533.12 357.23,528.2 335.31,528.2 335.31,533.12 300.45,533.12 300.45,528.2 278.53,528.2 278.53,533.12 243.65,533.12 243.65,528.2 221.73,528.2 221.73,533.12 123.86,533.12 "/>
   <polygon class="fil3" points="135.44,524.21 143.19,524.21 143.19,379.76 135.44,379.76 "/>
   <polygon class="fil3" points="150.46,524.21 158.21,524.21 158.21,379.76 150.46,379.76 "/>
   <polygon class="fil3" points="165.47,524.21 173.22,524.21 173.22,379.76 165.47,379.76 "/>
   <polygon class="fil3" points="180.49,524.21 188.24,524.21 188.24,379.76 180.49,379.76 "/>
   <polygon class="fil3" points="195.51,524.21 203.26,524.21 203.26,379.76 195.51,379.76 "/>
   <polygon class="fil3" points="210.52,524.21 218.27,524.21 218.27,379.76 210.52,379.76 "/>
   <polygon class="fil3" points="225.54,524.21 233.29,524.21 233.29,379.76 225.54,379.76 "/>
   <polygon class="fil3" points="240.56,524.21 248.31,524.21 248.31,379.76 240.56,379.76 "/>
   <polygon class="fil3" points="255.58,524.21 263.33,524.21 263.33,379.76 255.58,379.76 "/>
   <polygon class="fil3" points="270.6,524.21 278.35,524.21 278.35,379.76 270.6,379.76 "/>
   <polygon class="fil3" points="285.61,524.21 293.36,524.21 293.36,379.76 285.61,379.76 "/>
   <polygon class="fil3" points="300.63,524.21 308.38,524.21 308.38,379.76 300.63,379.76 "/>
   <polygon class="fil3" points="315.64,524.21 323.4,524.21 323.4,379.76 315.64,379.76 "/>
   <polygon class="fil3" points="330.66,524.21 338.41,524.21 338.41,379.76 330.66,379.76 "/>
   <polygon class="fil3" points="345.68,524.21 353.43,524.21 353.43,379.76 345.68,379.76 "/>
   <polygon class="fil3" points="360.69,524.21 368.44,524.21 368.44,379.76 360.69,379.76 "/>
   <polygon class="fil3" points="375.71,524.21 383.46,524.21 383.46,379.76 375.71,379.76 "/>
   <polygon class="fil3" points="390.73,524.21 398.48,524.21 398.48,379.76 390.73,379.76 "/>
   <polygon class="fil3" points="405.74,524.21 413.5,524.21 413.5,379.76 405.74,379.76 "/>
   <polygon class="fil3" points="420.76,524.21 428.51,524.21 428.51,379.76 420.76,379.76 "/>
   <polygon class="fil3" points="435.78,524.21 443.53,524.21 443.53,379.76 435.78,379.76 "/>
   <path class="fil11" d="M158.33 610.66c0,5.29 -1.85,9.28 -5.57,11.97 -3.26,2.38 -7.65,3.58 -13.15,3.58 -11.04,0 -17.41,-4.69 -19.1,-14.06l4.84 -2.47c0,8.07 4.75,12.11 14.26,12.11 3.57,0 6.67,-0.81 9.28,-2.43 3.06,-1.9 4.59,-4.54 4.59,-7.89 0,-4.45 -2.61,-7.49 -7.83,-9.12l-14.52 -4.55c-5.28,-2.43 -7.92,-6.42 -7.92,-11.97 0,-4.24 1.79,-7.55 5.39,-9.91 3.04,-1.99 6.64,-2.99 10.78,-2.99 9.41,0 15.45,3.78 18.09,11.35l-4.48 2.4c-2,-6.22 -6.53,-9.33 -13.59,-9.33 -2.9,0 -5.44,0.71 -7.62,2.13 -2.48,1.61 -3.72,3.74 -3.72,6.35 0,4.29 2.61,7.21 7.83,8.76l14.52 4.25c5.28,2.39 7.92,6.33 7.92,11.82zm48.56 14.27l-4.84 0 0 -23.93 -30.34 0 0 23.93 -4.84 0 0 -50.71 4.84 0 0 22.36 30.34 0 0 -22.36 4.84 0 0 50.71zm16.04 0l-4.84 0 0 -50.71 4.84 0 0 50.71zm49.37 -36.89c0,9.26 -5.12,13.89 -15.39,13.89l-17.94 0 0 23.01 -4.84 0 0 -50.71 25 0c4.57,0 8.01,1.49 10.33,4.48 1.9,2.46 2.85,5.57 2.85,9.33zm-4.84 -0.01c0,-2.45 -0.48,-4.38 -1.43,-5.78 -1.65,-2.41 -4.64,-3.61 -8.98,-3.61l-18.09 0 0 18.87 16.11 0c8.25,0 12.38,-3.16 12.38,-9.48zm55.97 36.91l-4.84 0 0 -41.43 -15.95 41.43 -3.28 0 -15.95 -41.37 0 41.37 -4.84 0 0 -50.71 5.92 0 16.44 42.44 16.58 -42.44 5.92 0 0 50.71zm44.57 0l-34.69 0 0 -50.71 33.19 0 0 4.41 -28.35 0 0 17.95 25.57 0 0 4.41 -25.57 0 0 19.52 29.85 0 0 4.42zm47.35 0l-4.77 0 -29.13 -42.6 0 42.6 -4.84 0 0 -50.71 4.77 0 29.13 42.6 0 -42.6 4.84 0 0 50.71zm43.1 -46.3l-15.88 0 0 46.3 -4.84 0 0 -46.3 -15.88 0 0 -4.41 36.61 0 0 4.41z"/>
   <polygon class="fil6" points="788.51,0 758.74,0 732.75,50.09 768.9,50.09 768.9,31.94 788.51,31.94 "/>
   <polygon class="fil1" points="754.38,8.4 747.59,21.48 788.51,21.48 788.51,8.4 "/>
   <polygon class="fil16" points="829.11,75.32 1000.39,75.32 1000.39,156.94 949.78,156.94 949.78,154.4 938.45,154.4 938.45,156.94 920.41,156.94 920.41,154.4 909.08,154.4 909.08,156.94 891.05,156.94 891.05,154.4 879.72,154.4 879.72,156.94 829.11,156.94 "/>
   <polygon class="fil3" points="835.1,152.34 839.1,152.34 839.1,77.63 835.1,77.63 "/>
   <polygon class="fil3" points="842.86,152.34 846.87,152.34 846.87,77.63 842.86,77.63 "/>
   <polygon class="fil3" points="850.62,152.34 854.63,152.34 854.63,77.63 850.62,77.63 "/>
   <polygon class="fil3" points="858.39,152.34 862.4,152.34 862.4,77.63 858.39,77.63 "/>
   <polygon class="fil3" points="866.15,152.34 870.16,152.34 870.16,77.63 866.15,77.63 "/>
   <polygon class="fil3" points="873.92,152.34 877.93,152.34 877.93,77.63 873.92,77.63 "/>
   <polygon class="fil3" points="881.69,152.34 885.69,152.34 885.69,77.63 881.69,77.63 "/>
   <polygon class="fil3" points="889.45,152.34 893.46,152.34 893.46,77.63 889.45,77.63 "/>
   <polygon class="fil3" points="897.21,152.34 901.23,152.34 901.23,77.63 897.21,77.63 "/>
   <polygon class="fil3" points="904.98,152.34 908.99,152.34 908.99,77.63 904.98,77.63 "/>
   <polygon class="fil3" points="912.75,152.34 916.75,152.34 916.75,77.63 912.75,77.63 "/>
   <polygon class="fil3" points="920.51,152.34 924.52,152.34 924.52,77.63 920.51,77.63 "/>
   <polygon class="fil3" points="928.28,152.34 932.28,152.34 932.28,77.63 928.28,77.63 "/>
   <polygon class="fil3" points="936.04,152.34 940.05,152.34 940.05,77.63 936.04,77.63 "/>
   <polygon class="fil3" points="943.81,152.34 947.81,152.34 947.81,77.63 943.81,77.63 "/>
   <polygon class="fil3" points="951.57,152.34 955.58,152.34 955.58,77.63 951.57,77.63 "/>
   <polygon class="fil3" points="959.34,152.34 963.35,152.34 963.35,77.63 959.34,77.63 "/>
   <polygon class="fil3" points="967.1,152.34 971.11,152.34 971.11,77.63 967.1,77.63 "/>
   <polygon class="fil3" points="974.87,152.34 978.88,152.34 978.88,77.63 974.87,77.63 "/>
   <polygon class="fil3" points="982.63,152.34 986.64,152.34 986.64,77.63 982.63,77.63 "/>
   <polygon class="fil3" points="990.4,152.34 994.4,152.34 994.4,77.63 990.4,77.63 "/>
   <path class="fil6" d="M938.03 143.64l178.8 0 -7.66 15.38c-33.33,11.97 -82.53,51.07 -106.99,90.78l-306.79 0 -49.31 -79.62 0 -13.11 282.52 0c5.19,0 9.42,-4.24 9.42,-9.43l0 -4.01z"/>
   <path class="fil1" d="M1022.5 222.8c-7.75,8.75 -14.7,17.87 -20.32,27l-306.79 0 -16.72 -27 343.83 0z"/>
   <path class="fil16" d="M1040.15 161.05c2.76,0 4.31,2.83 3.47,6.31 -0.85,3.49 -3.77,6.32 -6.53,6.32 -2.76,0 -4.31,-2.83 -3.48,-6.32 0.84,-3.48 3.77,-6.31 6.54,-6.31z"/>
   <polygon class="fil1" points="689.77,157.07 768.9,157.07 768.9,50.09 689.77,50.09 "/>
   <polygon class="fil7" points="819,157.07 733.33,157.07 733.33,74.05 768.9,74.05 768.9,31.94 819,31.94 "/>
   <polygon class="fil17" points="779.07,59.2 819,59.2 819,45.73 779.07,45.73 "/>
   <polygon class="fil18" points="747.91,92.58 753.27,92.58 753.27,85.08 747.91,85.08 "/>
   <polygon class="fil18" points="747.91,109 753.27,109 753.27,101.51 747.91,101.51 "/>
   <polygon class="fil18" points="747.91,125.43 753.27,125.43 753.27,117.92 747.91,117.92 "/>
   <polygon class="fil18" points="762.9,92.58 768.26,92.58 768.26,85.08 762.9,85.08 "/>
   <polygon class="fil18" points="762.9,109 768.26,109 768.26,101.51 762.9,101.51 "/>
   <polygon class="fil18" points="762.9,125.43 768.26,125.43 768.26,117.92 762.9,117.92 "/>
   <polygon class="fil18" points="777.9,92.58 783.26,92.58 783.26,85.08 777.9,85.08 "/>
   <polygon class="fil18" points="777.9,109 783.26,109 783.26,101.51 777.9,101.51 "/>
   <polygon class="fil18" points="777.9,125.43 783.26,125.43 783.26,117.92 777.9,117.92 "/>
   <polygon class="fil18" points="792.89,92.58 798.25,92.58 798.25,85.08 792.89,85.08 "/>
   <polygon class="fil18" points="792.89,109 798.25,109 798.25,101.51 792.89,101.51 "/>
   <polygon class="fil18" points="792.89,125.43 798.25,125.43 798.25,117.92 792.89,117.92 "/>
   <path class="fil17" d="M743.69 192.95c4.75,0 8.63,-3.87 8.63,-8.63 0,-4.74 -3.88,-8.63 -8.63,-8.63 -4.75,0 -8.63,3.88 -8.63,8.63 0,4.75 3.87,8.63 8.63,8.63z"/>
   <path class="fil17" d="M779.61 192.95c4.75,0 8.63,-3.87 8.63,-8.63 0,-4.74 -3.87,-8.63 -8.63,-8.63 -4.75,0 -8.63,3.88 -8.63,8.63 0,4.75 3.88,8.63 8.63,8.63z"/>
   <path class="fil17" d="M815.52 192.95c4.75,0 8.63,-3.87 8.63,-8.63 0,-4.74 -3.88,-8.63 -8.63,-8.63 -4.75,0 -8.63,3.88 -8.63,8.63 0,4.75 3.88,8.63 8.63,8.63z"/>
   <path class="fil17" d="M851.44 192.95c4.75,0 8.63,-3.87 8.63,-8.63 0,-4.74 -3.88,-8.63 -8.63,-8.63 -4.76,0 -8.63,3.88 -8.63,8.63 0,4.75 3.87,8.63 8.63,8.63z"/>
   <path class="fil17" d="M887.36 192.95c4.75,0 8.63,-3.87 8.63,-8.63 0,-4.74 -3.88,-8.63 -8.63,-8.63 -4.75,0 -8.62,3.88 -8.62,8.63 0,4.75 3.87,8.63 8.62,8.63z"/>
   <path class="fil17" d="M923.27 192.95c4.76,0 8.63,-3.87 8.63,-8.63 0,-4.74 -3.88,-8.63 -8.63,-8.63 -4.75,0 -8.63,3.88 -8.63,8.63 0,4.75 3.88,8.63 8.63,8.63z"/>
   <path class="fil17" d="M959.19 192.95c4.75,0 8.62,-3.87 8.62,-8.63 0,-4.74 -3.87,-8.63 -8.62,-8.63 -4.76,0 -8.63,3.88 -8.63,8.63 0,4.75 3.87,8.63 8.63,8.63z"/>
   <path class="fil11" d="M732.67 324.54c0,5.29 -1.85,9.28 -5.57,11.97 -3.26,2.38 -7.65,3.58 -13.15,3.58 -11.04,0 -17.41,-4.69 -19.1,-14.06l4.84 -2.47c0,8.07 4.75,12.11 14.26,12.11 3.57,0 6.67,-0.81 9.28,-2.43 3.06,-1.9 4.59,-4.54 4.59,-7.89 0,-4.45 -2.61,-7.49 -7.83,-9.12l-14.52 -4.54c-5.28,-2.43 -7.92,-6.42 -7.92,-11.97 0,-4.24 1.79,-7.55 5.39,-9.91 3.04,-1.99 6.64,-2.99 10.78,-2.99 9.41,0 15.45,3.78 18.09,11.35l-4.48 2.4c-2,-6.22 -6.53,-9.33 -13.59,-9.33 -2.9,0 -5.44,0.71 -7.62,2.13 -2.48,1.61 -3.72,3.74 -3.72,6.35 0,4.29 2.61,7.21 7.83,8.76l14.52 4.25c5.28,2.39 7.92,6.33 7.92,11.82zm48.56 14.27l-4.84 0 0 -23.93 -30.34 0 0 23.93 -4.84 0 0 -50.71 4.84 0 0 22.36 30.34 0 0 -22.36 4.84 0 0 50.71zm16.04 0l-4.84 0 0 -50.71 4.84 0 0 50.71zm49.37 -36.89c0,9.26 -5.12,13.89 -15.39,13.89l-17.94 0 0 23.01 -4.84 0 0 -50.71 25 0c4.57,0 8.01,1.49 10.33,4.48 1.9,2.46 2.85,5.57 2.85,9.33zm-4.84 -0.01c0,-2.45 -0.48,-4.38 -1.43,-5.78 -1.65,-2.41 -4.64,-3.61 -8.98,-3.61l-18.09 0 0 18.87 16.11 0c8.25,0 12.38,-3.16 12.38,-9.48zm49.7 0.01c0,9.26 -5.12,13.89 -15.39,13.89l-17.94 0 0 23.01 -4.84 0 0 -50.71 25 0c4.57,0 8.01,1.49 10.33,4.48 1.9,2.46 2.85,5.57 2.85,9.33zm-4.84 -0.01c0,-2.45 -0.48,-4.38 -1.43,-5.78 -1.65,-2.41 -4.64,-3.61 -8.98,-3.61l-18.09 0 0 18.87 16.11 0c8.25,0 12.38,-3.16 12.38,-9.48zm16.15 36.91l-4.84 0 0 -50.71 4.84 0 0 50.71zm49.94 0l-4.77 0 -29.13 -42.6 0 42.6 -4.84 0 0 -50.71 4.77 0 29.13 42.6 0 -42.6 4.84 0 0 50.71zm50.87 -39.23l-4.63 2.47c-2.36,-7.2 -7.08,-10.81 -14.15,-10.81 -6.03,0 -10.72,2.37 -14.05,7.13 -2.9,4.12 -4.35,9.15 -4.35,15.09 0,5.93 1.33,10.94 4,15.03 3.12,4.79 7.5,7.19 13.11,7.19 5.12,0 9.07,-1.78 11.82,-5.35 2.32,-2.99 3.48,-6.65 3.48,-10.96l0 -2.78 -18.8 0 0 -4.42 23.08 0 0 26.64 -4.27 0 0 -7.34c-1.18,2.9 -3.26,5.11 -6.26,6.64 -2.62,1.32 -5.64,1.98 -9.04,1.98 -7.33,0 -12.93,-2.71 -16.8,-8.11 -3.43,-4.74 -5.15,-10.92 -5.15,-18.53 0,-7.4 1.85,-13.56 5.57,-18.47 4.13,-5.45 9.9,-8.17 17.32,-8.17 9.02,0 15.39,4.25 19.14,12.76z"/>
   <path class="fil19" d="M1436.08 302.91l201.93 -5.6c34.16,-0.96 76.73,0.19 105.06,11.37 22.66,8.96 43.43,29.44 67.01,40.79 26.66,10.93 24.94,27.53 6.37,40.61 -33.89,23.88 -93.43,22.32 -140.16,21.59 -47.04,-0.73 -94.16,0.71 -141.12,-2.2 -62.93,-3.9 -136.43,-25.84 -181.31,-66.32l-38.76 -107.7 32.46 -0.59c26.6,-0.49 34.02,9.25 39.73,15.42l48.8 52.64z"/>
   <path class="fil10" d="M1478.04 357.36c8.14,0 14.78,-6.63 14.78,-14.78 0,-8.14 -6.64,-14.77 -14.78,-14.77 -8.14,0 -14.78,6.64 -14.78,14.77 0,8.15 6.64,14.78 14.78,14.78z"/>
   <path class="fil10" d="M1691.78 357.36c8.14,0 14.78,-6.63 14.78,-14.78 0,-8.14 -6.63,-14.77 -14.78,-14.77 -8.14,0 -14.78,6.64 -14.78,14.77 0,8.15 6.64,14.78 14.78,14.78z"/>
   <path class="fil1" d="M1330.99 279.61l-11.65 -32.38 65.14 0c1.02,1.07 1.94,2.09 2.81,3.04l27.2 29.34 -83.49 0z"/>
   <path class="fil10" d="M1809.44 349.15l-4.11 -0.09 -80.45 -1.79 -0.95 -0.02 -0.58 -0.73 -22.83 -28.71 -2.36 -2.96 3.78 -0.28 46.67 -3.47c20.35,9.74 39.45,27.59 60.83,38.05z"/>
   <path class="fil17" d="M1752.1 312.86c17.76,9.32 34.72,24.24 53.27,34.21l-80.45 -1.79 -22.83 -28.7 50.01 -3.72z"/>
   <path class="fil4" d="M1752.1 312.86c3.59,1.88 7.15,4 10.7,6.26 -20.04,-3.16 -49.8,-3.22 -41.46,21.67l-19.25 -24.21 50.01 -3.72z"/>
   <path class="fil17" d="M1478.04 355.22c6.96,0 12.63,-5.68 12.63,-12.64 0,-6.95 -5.67,-12.63 -12.63,-12.63 -6.95,0 -12.63,5.67 -12.63,12.63 0,6.96 5.68,12.64 12.63,12.64z"/>
   <path class="fil4" d="M1478.04 329.96c4.78,0 8.94,2.65 11.08,6.56 -2.2,-1.32 -4.77,-2.08 -7.53,-2.08 -7.95,0 -14.42,6.36 -14.61,14.27 -1.01,-1.81 -1.58,-3.9 -1.58,-6.12 0,-6.97 5.66,-12.63 12.63,-12.63z"/>
   <path class="fil17" d="M1691.78 355.22c6.96,0 12.63,-5.68 12.63,-12.64 0,-6.95 -5.68,-12.63 -12.63,-12.63 -6.96,0 -12.64,5.67 -12.64,12.63 0,6.96 5.68,12.64 12.64,12.64z"/>
   <path class="fil4" d="M1691.78 329.96c4.77,0 8.93,2.65 11.08,6.56 -2.2,-1.32 -4.78,-2.08 -7.53,-2.08 -7.95,0 -14.42,6.36 -14.6,14.27 -1.01,-1.81 -1.59,-3.9 -1.59,-6.12 0,-6.97 5.66,-12.63 12.64,-12.63z"/>
   <path class="fil20" d="M1426.31 385.83c53.64,11.36 111.58,14.96 186.36,14.08 141.73,-1.68 175.79,-6.27 213.43,-18.83 -2.33,3.11 -5.58,6.14 -9.65,9 -33.89,23.88 -93.43,22.32 -140.16,21.59 -47.04,-0.73 -94.16,0.71 -141.12,-2.2 -35.27,-2.18 -73.86,-10.04 -108.86,-23.64z"/>
   <path class="fil10" d="M1373.43 315.96c31.02,-5.82 68.27,-8.08 105.71,-10.23 -6.48,2.73 -9.89,6.14 -19.44,8.19 -28.76,0.67 -57.51,1.36 -86.27,2.04z"/>
   <path class="fil10" d="M1763.04 355.43c15.85,-0.64 31.61,-0.94 47.07,0 7.69,2.05 10.66,5.83 13.92,9.49 -18.56,-8.48 -39.97,-8.41 -60.98,-9.49z"/>
   <path class="fil21" d="M1533.41 307.61c46.92,-3.63 60.86,-2.05 106.8,-4.17 10.23,-0.48 18.81,7.74 19.87,13.47 0.64,3.43 -34.6,35.73 -43.83,42.15l-0.04 0 0 0.02c-12.54,4.9 -121.3,-1.95 -124.78,-3.67 -0.01,-0.36 0.11,-0.72 0.38,-1.06 3.67,-6.86 35.59,-42.04 36.56,-44.01 0.62,-1.24 2.25,-2.32 5.02,-2.72z"/>
   <path class="fil22" d="M1656.84 321.77c5.55,0.73 11.1,1.66 16.65,2.8l0 42.08c-30.51,6.42 -61.73,7.45 -93.46,-0.32l0 -5.63c17.66,0.31 32.08,-0.02 36.19,-1.63l-0 -0.02 0.04 0c5.75,-4 21.59,-18.03 32.56,-28.88 -1.01,-3.39 -6.92,-4.53 -42.1,-7.28 14.43,-2.4 33.85,-3.69 50.11,-1.1l0.02 -0.03z"/>
   <path class="fil23" d="M1668.92 367.57c-29.06,5.58 -58.75,6.14 -88.89,-1.24l0 -5.63c17.66,0.32 32.08,-0.02 36.19,-1.63l-0 -0.02 0.04 0c0.47,-0.33 1.01,-0.72 1.61,-1.18l51.06 0 0 9.7z"/>
   <path class="fil6" d="M1660.6 322.3c4.29,0.63 8.59,1.39 12.89,2.28l0 42.08c-4.28,0.9 -8.58,1.7 -12.89,2.37l0 -46.73z"/>
   <path class="fil1" d="M1673.49 357.85l0 8.8c-4.28,0.9 -8.58,1.7 -12.89,2.37l0 -11.17 12.89 0z"/>
   <path class="fil10" d="M1495.88 352.59c38.47,-5.53 59.88,-7.26 98.37,-6.93 10.46,0.09 21.42,8.5 21.97,13.41 -12.54,4.9 -121.3,-1.95 -124.78,-3.67 -0.04,-1.14 1.37,-2.36 4.44,-2.81z"/>
   <path class="fil11" d="M1428.08 504.59l-5.21 0 -5.76 -15.24 -22.29 0 -6 15.24 -4.97 0 20.66 -50.71 3.92 0 19.65 50.71zm-12.47 -19.23l-9.4 -24.94 -9.74 24.94 19.14 0zm22.43 19.23l-4.84 0 0 -50.71 4.84 0 0 50.71zm48.73 0l-6.12 0 -16.1 -22.51 -11.54 0 0 22.51 -4.84 0 0 -50.71 22.44 0c4.47,0 8.05,1.22 10.71,3.68 2.74,2.52 4.11,5.99 4.11,10.4 0,4.45 -1.38,7.92 -4.15,10.37 -2.66,2.36 -6.24,3.54 -10.74,3.54l16.24 22.72zm-6.19 -36.63c0,-6.45 -3.92,-9.67 -11.75,-9.67l-15.81 0 0 19.37 15.05 0c8.35,0 12.51,-3.24 12.51,-9.71zm63.93 -9.67l-28.21 0 0 16.95 25.22 0 0 4.42 -25.22 0 0 24.93 -4.84 0 0 -50.71 33.05 0 0 4.41zm45.16 46.3l-6.12 0 -16.1 -22.51 -11.54 0 0 22.51 -4.84 0 0 -50.71 22.43 0c4.47,0 8.05,1.22 10.71,3.68 2.74,2.52 4.11,5.99 4.11,10.4 0,4.45 -1.38,7.92 -4.15,10.37 -2.66,2.36 -6.24,3.54 -10.74,3.54l16.24 22.72zm-6.19 -36.63c0,-6.45 -3.92,-9.67 -11.75,-9.67l-15.81 0 0 19.37 15.05 0c8.35,0 12.51,-3.24 12.51,-9.71zm45.79 36.63l-34.69 0 0 -50.71 33.19 0 0 4.41 -28.35 0 0 17.95 25.57 0 0 4.41 -25.57 0 0 19.52 29.85 0 0 4.42zm13.23 0l-4.84 0 0 -50.71 4.84 0 0 50.71zm50.65 -39.23l-4.63 2.47c-2.36,-7.2 -7.08,-10.81 -14.15,-10.81 -6.03,0 -10.72,2.37 -14.05,7.13 -2.9,4.12 -4.35,9.15 -4.35,15.09 0,5.93 1.33,10.94 4,15.03 3.12,4.79 7.5,7.19 13.11,7.19 5.13,0 9.07,-1.78 11.82,-5.35 2.32,-2.99 3.48,-6.65 3.48,-10.96l0 -2.78 -18.8 0 0 -4.42 23.08 0 0 26.64 -4.27 0 0 -7.34c-1.18,2.9 -3.26,5.11 -6.26,6.64 -2.62,1.32 -5.64,1.98 -9.04,1.98 -7.33,0 -12.93,-2.71 -16.8,-8.11 -3.43,-4.74 -5.15,-10.92 -5.15,-18.53 0,-7.4 1.85,-13.56 5.57,-18.47 4.13,-5.45 9.9,-8.17 17.32,-8.17 9.02,0 15.39,4.25 19.14,12.76zm49.36 39.23l-4.84 0 0 -23.93 -30.34 0 0 23.93 -4.84 0 0 -50.71 4.84 0 0 22.36 30.34 0 0 -22.36 4.84 0 0 50.71zm43.1 -46.3l-15.88 0 0 46.3 -4.84 0 0 -46.3 -15.88 0 0 -4.41 36.61 0 0 4.41z"/>
   <polygon class="fil2" points="235.48,1012.17 235.55,857.46 53.09,857.46 53.09,1012.17 "/>
   <polygon class="fil12" points="235.53,1012.17 235.55,857.46 192.67,857.46 192.67,1012.17 "/>
   <path class="fil6" d="M125.06 958.91c8.51,0.38 15.68,6.29 18.31,14.38 -1.76,-1.5 -4.01,-2.4 -6.45,-2.4 -2.41,0 -4.62,0.88 -6.37,2.33 -1.54,-1.27 -3.42,-2.1 -5.49,-2.29l0 22.44 -0 0c0,0.72 0.28,1.38 0.73,1.86 0.46,0.47 1.08,0.77 1.78,0.77l0 -0.01 0 0.01c0.69,0 1.32,-0.3 1.78,-0.77 0.45,-0.48 0.73,-1.14 0.73,-1.86l0 -0 1.8 0 0 0 -0.01 0c0,1.24 -0.48,2.37 -1.26,3.19 -0.78,0.82 -1.85,1.32 -3.04,1.32l0 0c-1.19,0 -2.26,-0.51 -3.04,-1.32 -0.78,-0.82 -1.26,-1.95 -1.26,-3.19l-0.01 0 0 -22.44c-2.05,0.19 -3.92,1.02 -5.45,2.29 -1.75,-1.45 -3.96,-2.33 -6.37,-2.33 -2.45,0 -4.69,0.91 -6.45,2.4 2.63,-8.09 9.77,-13.97 18.27,-14.38l0 -3.1 1.81 0 0 3.1z"/>
   <path class="fil6" d="M160.22 991.61l0 -25.16 2.23 0 -4.25 -8.25 -4.25 8.25 2.23 0 0 25.16 4.04 0zm16.73 0l0 -25.16 2.23 0 -4.26 -8.25 -4.25 8.25 2.23 0 0 25.16 4.04 0 0 0zm-25.69 1.72l30.6 0 0 4.55 -30.6 0 0 -4.55z"/>
   <path class="fil6" d="M95.89 958.73c-1.59,11.89 -7.51,20.91 -14.72,21.78l0 14.18 7.04 0 0 3.18 -16.41 0 0 -3.18 7.05 0 0 -14.18c-7.22,-0.88 -13.14,-9.9 -14.73,-21.78l22.92 0 1.85 4.31 -2.07 -0.22 2.11 7.99 -0.7 -6.74 1.64 0.08 -0.37 -5.41 6.4 0z"/>
   <polygon class="fil3" points="111.64,857.46 131.44,857.46 131.44,887.17 128.3,887.89 124.86,885.42 119.78,888.44 115.96,885.5 111.64,888.04 "/>
   <polygon class="fil3" points="209.08,857.46 219.14,857.46 219.14,887.17 217.54,887.89 215.8,885.42 213.22,888.44 211.27,885.5 209.08,888.04 "/>
   <polygon class="fil1" points="14.39,1051.09 337.59,1051.09 337.59,1012.17 14.39,1012.17 "/>
   <polygon class="fil6" points="38.09,1079.86 71.83,1079.86 71.83,1073.63 280.16,1073.63 280.16,1079.86 313.9,1079.86 313.9,1051.09 38.09,1051.09 "/>
   <polygon class="fil24" points="290.84,1012.17 303.69,1012.17 303.69,888.75 290.84,888.75 "/>
   <polygon class="fil14" points="303.69,1012.17 313.29,1012.17 313.29,888.75 303.69,888.75 "/>
   <polygon class="fil3" points="275.9,888.75 332.18,888.75 332.18,880.6 275.9,880.6 "/>
   <path class="fil1" d="M302.06 803.33c28.14,0 50.96,22.82 50.96,50.96 0,9.63 -2.67,18.63 -7.32,26.31l-87.29 0c-4.64,-7.69 -7.32,-16.69 -7.32,-26.31 0,-28.14 22.83,-50.96 50.96,-50.96z"/>
   <path class="fil5" d="M302.06 853.11l-37.13 13.51c-1.57,-4.32 -2.39,-8.9 -2.39,-13.51 0,-21.82 17.7,-39.51 39.52,-39.51 21.82,0 39.52,17.69 39.52,39.51 0,4.61 -0.82,9.18 -2.39,13.51l-37.13 -13.51z"/>
   <polygon class="fil3" points="277.37,824.93 276.94,825.36 297.42,853.56 302.94,848.75 "/>
   <polygon class="fil11" points="-0,1120.91 5.1,1120.91 19.27,1163.17 33.38,1120.91 38.48,1120.91 52.66,1163.17 66.77,1120.91 71.87,1120.91 55.17,1170.77 50.07,1170.77 35.97,1128.52 21.79,1170.77 16.69,1170.77 "/>
   <polygon class="fil11" points="75.67,1120.91 104.58,1120.91 104.58,1125.8 80.77,1125.8 80.77,1139.77 103.19,1139.77 103.19,1144.65 80.77,1144.65 80.77,1165.88 104.58,1165.88 104.58,1170.77 75.67,1170.77 "/>
   <polygon class="fil11" points="115.04,1170.77 120.14,1170.77 120.14,1120.91 115.04,1120.91 "/>
   <path class="fil11" d="M127.81 1145.56c0,-13.69 11.74,-25.28 26.05,-25.28 9.71,0 17.81,5.38 22.28,13.06l-5.73 0c-3.77,-4.82 -9.84,-7.96 -16.55,-7.96 -11.52,0 -20.74,9.22 -20.74,20.19 0,11.52 9.22,20.74 20.74,20.74 7.33,0 13.76,-3.77 17.46,-9.49l0 -11.25 5.1 0 0 25.21 -5.1 0 0 -6.08c-4.61,4.19 -10.75,6.7 -17.46,6.7 -14.32,0 -26.05,-11.59 -26.05,-25.83z"/>
   <polygon class="fil11" points="186.87,1120.91 191.97,1120.91 191.97,1141.44 220.95,1141.44 220.95,1120.91 225.84,1120.91 225.84,1170.77 220.95,1170.77 220.95,1146.33 191.97,1146.33 191.97,1170.77 186.87,1170.77 "/>
   <polygon class="fil11" points="236.99,1170.77 242.09,1170.77 242.09,1120.91 236.99,1120.91 "/>
   <polygon class="fil11" points="253.25,1120.91 259.4,1120.91 290.61,1163.79 290.61,1120.91 295.72,1120.91 295.72,1170.77 289.57,1170.77 258.35,1127.89 258.35,1170.77 253.25,1170.77 "/>
   <path class="fil11" d="M303.36 1145.56c0,-13.69 11.74,-25.28 26.05,-25.28 9.71,0 17.81,5.38 22.28,13.06l-5.73 0c-3.77,-4.82 -9.85,-7.96 -16.55,-7.96 -11.52,0 -20.74,9.22 -20.74,20.19 0,11.52 9.22,20.74 20.74,20.74 7.34,0 13.76,-3.77 17.46,-9.49l0 -11.25 5.1 0 0 25.21 -5.1 0 0 -6.08c-4.61,4.19 -10.75,6.7 -17.46,6.7 -14.32,0 -26.05,-11.59 -26.05,-25.83z"/>
   <polygon class="fil25" points="1689.31,674.87 1905.12,674.87 1905.12,1106.47 1892.67,1106.47 1892.67,687.32 1701.76,687.32 1701.76,1106.47 1689.31,1106.47 "/>
   <polygon class="fil26" points="1701.76,1106.47 1892.67,1106.47 1892.67,687.32 1701.76,687.32 "/>
   <path class="fil27" d="M1701.76 687.32c29.94,2.77 59.52,5.51 88.71,8.21 28.8,2.67 57.27,5.29 85.35,7.89 0.04,67.19 0.07,134.34 0.11,201.49 0.03,67.14 0.07,134.37 0.09,201.57 -28.12,0 -56.61,0 -85.45,0 -29.23,0 -58.83,0 -88.81,0 0,-69.88 0,-139.79 0,-209.62 0,-69.83 0,-139.7 0,-209.53z"/>
   <polygon class="fil28" points="1848.38,973.19 1848.42,1061.05 1731.16,1059.83 1731.14,969.63 "/>
   <polygon class="fil29" points="1848.38,973.19 1848.42,1061.05 1842.51,1060.98 1842.51,978.65 "/>
   <path class="fil28" d="M1848.34 853.3c0.01,29.08 0.02,58.17 0.04,87.2 -19.11,-0.72 -38.41,-1.46 -57.85,-2.19 -19.59,-0.74 -39.41,-1.49 -59.38,-2.24 0,-29.83 0,-59.68 0,-89.54 19.96,1.15 39.77,2.29 59.36,3.43 19.44,1.12 38.72,2.23 57.83,3.34z"/>
   <polygon class="fil29" points="1848.34,853.3 1848.37,940.5 1842.53,940.28 1842.51,859.76 "/>
   <path class="fil28" d="M1731.13 724.18c19.95,1.7 39.75,3.37 59.35,5.04 19.42,1.65 38.69,3.29 57.81,4.91 0.01,28.88 0.01,57.67 0.02,86.52 -19.11,-1.25 -38.38,-2.51 -57.82,-3.77 -19.59,-1.27 -39.4,-2.57 -59.36,-3.87 0,-29.61 0,-59.21 0,-88.83z"/>
   <polygon class="fil29" points="1848.29,734.13 1848.32,820.65 1842.51,820.27 1842.5,739.34 "/>
   <polygon class="fil2" points="1581.98,1106.47 1816.69,1106.47 1816.8,906.91 1581.98,906.91 "/>
   <polygon class="fil12" points="1761.63,1106.47 1816.78,1106.47 1816.8,906.91 1761.63,906.91 "/>
   <path class="fil6" d="M1674.6 1037.47c10.96,0.5 20.17,8.07 23.57,18.5 -2.27,-1.93 -5.16,-3.09 -8.31,-3.09 -3.09,0 -5.94,1.12 -8.19,3 -1.98,-1.65 -4.41,-2.71 -7.07,-2.95l0 28.89c0,0.92 0.36,1.77 0.94,2.39 0.59,0.61 1.4,1 2.29,1l0 -0.01 0 0.01c0.9,0 1.7,-0.38 2.29,-1 0.58,-0.62 0.94,-1.46 0.94,-2.39l0 -0.01 2.31 0 0 0.01 -0.01 0c0,1.6 -0.61,3.06 -1.62,4.1 -1,1.05 -2.39,1.7 -3.92,1.7l0 0.01 0 -0.01c-1.53,0 -2.92,-0.65 -3.91,-1.7 -1,-1.05 -1.62,-2.5 -1.62,-4.1l-0.01 0 0 -28.88c-2.64,0.25 -5.06,1.3 -7.02,2.95 -2.25,-1.88 -5.1,-3 -8.2,-3 -3.15,0 -6.04,1.16 -8.3,3.09 3.39,-10.4 12.58,-17.98 23.52,-18.49l0 -4 2.31 0 0 3.99z"/>
   <path class="fil6" d="M1719.85 1079.56l0 -32.39 2.87 0 -5.47 -10.61 -5.47 10.61 2.87 0 0 32.39 5.2 0zm21.54 0l0 -32.39 2.87 0 -5.47 -10.61 -5.47 10.61 2.87 0 0 32.39 5.2 0 0 0zm-33.06 2.21l39.38 0 0 5.85 -39.38 0 0 -5.85z"/>
   <path class="fil6" d="M1637.06 1037.24c-2.05,15.3 -9.67,26.9 -18.95,28.03l0 18.25 9.07 0 0 4.1 -21.12 0 0 -4.1 9.07 0 0 -18.25c-9.29,-1.13 -16.91,-12.73 -18.95,-28.03l29.48 0 2.38 5.54 -2.65 -0.28 2.71 10.29 -0.91 -8.68 2.1 0.09 -0.47 -6.96 8.23 0z"/>
   <polygon class="fil3" points="1657.34,906.91 1682.83,906.91 1682.83,945.15 1678.78,946.08 1674.34,942.9 1667.83,946.78 1662.89,942.99 1657.34,946.27 "/>
   <polygon class="fil3" points="1782.74,906.91 1795.68,906.91 1795.68,945.15 1793.62,946.08 1791.38,942.9 1788.06,946.78 1785.56,942.99 1782.74,946.27 "/>
   <path class="fil23" d="M1863.94 903.72c3.2,0 5.81,-3.28 5.81,-7.32 0,-4.03 -2.61,-7.32 -5.81,-7.32 -3.2,0 -5.81,3.29 -5.81,7.32 0,4.04 2.61,7.32 5.81,7.32z"/>
   <path class="fil10" d="M1870.5 906.84c4.71,0 8.55,-4.84 8.55,-10.78 0,-5.94 -3.84,-10.77 -8.55,-10.77 -4.72,0 -8.56,4.84 -8.56,10.77 0,5.94 3.84,10.78 8.56,10.78z"/>
   <path class="fil11" d="M1626.77 1171.4c0,6.59 -1.51,12.18 -4.52,16.77 -3.82,5.83 -9.5,8.75 -17.01,8.75l-18.69 0 0 -51.05 20.07 0c7.06,0 12.38,2.84 15.93,8.54 2.82,4.53 4.23,10.19 4.23,16.98zm-4.88 0c0,-5.58 -1.16,-10.27 -3.46,-14.04 -2.82,-4.69 -6.97,-7.04 -12.45,-7.04l-14.55 0 0 42.16 13.54 0c5.86,0 10.25,-2.22 13.19,-6.66 2.49,-3.75 3.74,-8.57 3.74,-14.42zm47.61 25.52l-34.92 0 0 -51.05 33.41 0 0 4.44 -28.54 0 0 18.07 25.74 0 0 4.44 -25.74 0 0 19.65 30.05 0 0 4.45zm41.71 0l-33.06 0 0 -51.05 4.88 0 0 46.6 28.18 0 0 4.45zm11.48 0l-4.87 0 0 -51.05 4.87 0 0 51.05zm48.05 -51.05l-19.14 51.05 -4.3 0 -19.07 -51.05 5.25 0 16 43.21 16.2 -43.21 5.07 0zm39.56 51.05l-34.92 0 0 -51.05 33.41 0 0 4.44 -28.54 0 0 18.07 25.74 0 0 4.44 -25.74 0 0 19.65 30.05 0 0 4.45zm46.44 0l-6.16 0 -16.2 -22.66 -11.62 0 0 22.66 -4.87 0 0 -51.05 22.58 0c4.5,0 8.1,1.23 10.78,3.7 2.76,2.54 4.13,6.03 4.13,10.47 0,4.48 -1.39,7.97 -4.17,10.44 -2.68,2.38 -6.28,3.56 -10.81,3.56l16.34 22.87zm-6.24 -36.87c0,-6.49 -3.94,-9.73 -11.83,-9.73l-15.92 0 0 19.5 15.15 0c8.4,0 12.6,-3.26 12.6,-9.77zm50.03 -14.17l-19.21 29.75 0 21.29 -4.88 0 0 -21.29 -19.22 -29.75 5.88 0 15.92 25.16 15.9 -25.16 5.6 0z"/>
   <path class="fil15" d="M277.96 1585.63l204.42 0 13.27 -2.27 0.05 -45.07c0,-1.96 -2.18,-4.17 -4.14,-4.17l-213.6 0 0 51.51z"/>
   <polygon class="fil30" points="126.45,1536.38 138.95,1525.04 141.69,1585.63 135.59,1586.98 130.94,1585.63 126.6,1573.36 "/>
   <path class="fil6" d="M278.03 1416.83l-64.11 -6.12c-7.2,-0.69 -13.78,0.63 -21.66,7.17 -25.26,20.95 -65.1,66.15 -61.16,134.33l1.21 24.37 55.97 0 89.69 -2.68 0.06 -157.06z"/>
   <path class="fil1" d="M135.56 1504.93c-2.62,10.25 -4.29,21.28 -4.65,33.05l0.01 0.04 112.41 -44.53 8.8 -23.04 -107.47 38.07 -9.05 -3.63 -0.04 0.03z"/>
   <path class="fil17" d="M144.66 1508.52c6.59,-31.65 27.27,-65.67 55.22,-86.21 2.12,-2.26 7.87,-5.37 14.01,-4.67l55.97 5.35 -0.54 41.52 -0.12 0.05 -12.94 -2.93 -4.12 8.82 -107.47 38.07z"/>
   <path class="fil4" d="M175.79 1445.31c7.16,-8.67 15.26,-16.5 24.09,-22.99 2.12,-2.26 7.87,-5.37 14.01,-4.67l55.97 5.35 -0.4 30.92c-8.51,-20.62 -52.91,-18.68 -93.66,-8.61z"/>
   <path class="fil18" d="M427.68 1534.12l16.37 0.18 -0.02 0.19c8.44,0.2 16.8,1.27 25.06,2.81 4.01,0.75 7.75,3.27 10.74,6.15 11.1,10.75 15.2,23.97 15.83,38.84 0.02,0.36 0.03,0.72 0.05,1.07 0.03,1.06 -5.3,1.75 -13.59,2.18l-93.68 0.09 -253.05 0 -3.07 -9.05 44.49 0 9.77 -27.58c1.39,-3.91 4.27,-7.89 7.96,-9.22l79.25 -28.57c2.29,-0.74 4.18,0.02 4.18,3.04l0 7.25c0,9 0,19.56 0,29.2l0 10.67 86.66 -5.92c18.33,-13.53 32.91,-21.33 63.05,-21.33z"/>
   <path class="fil31" d="M421.5 1544.84c14.56,-3.57 28.97,-2.57 43.04,0.08 3.33,0.63 6.42,2.75 8.88,5.19 9.77,9.63 13,21.61 13.18,35.12 -1.27,0.41 -3.5,0.41 -4.28,0.41l-84.92 0c-0.12,-11.58 4.09,-26.13 12.61,-34.65 4.03,-4.03 7.41,-5.15 11.49,-6.14z"/>
   <path class="fil15" d="M442.66 1628.94c21.93,0 39.81,-17.88 39.81,-39.8 0,-21.93 -17.88,-39.8 -39.81,-39.8 -21.91,0 -39.8,17.88 -39.8,39.8 0,21.92 17.88,39.8 39.8,39.8z"/>
   <path class="fil7" d="M442.66 1612.01c12.61,0 22.87,-10.27 22.87,-22.86 0.01,-12.6 -10.26,-22.87 -22.87,-22.87 -12.59,0 -22.86,10.27 -22.86,22.87 0,12.6 10.27,22.86 22.86,22.86z"/>
   <polygon class="fil2" points="306.08,1520.04 514.41,1520.04 514.5,1383.27 306.08,1383.27 "/>
   <polygon class="fil1" points="277.96,1486.55 278.03,1486.55 278.03,1396.25 286.55,1396.25 286.55,1486.55 539.31,1486.55 539.31,1534.11 277.96,1534.11 "/>
   <path class="fil31" d="M183.14 1585.63l94.76 0c0.96,-18.39 -5.61,-35.37 -13.81,-48.56 -3.55,-5.7 -8.42,-8.67 -14.67,-8.39l-49.25 17.66c-3.02,1.08 -5.35,4.55 -6.48,7.9l-10.55 31.38z"/>
   <path class="fil15" d="M232.97 1627c21.92,0 39.8,-17.88 39.8,-39.8 0,-21.92 -17.88,-39.8 -39.8,-39.8 -21.92,0 -39.8,17.88 -39.8,39.8 0,21.92 17.88,39.8 39.8,39.8z"/>
   <path class="fil7" d="M232.97 1610.07c12.6,0 22.87,-10.28 22.87,-22.87 0,-12.59 -10.27,-22.87 -22.87,-22.87 -12.6,0 -22.87,10.28 -22.87,22.87 0,12.59 10.27,22.87 22.87,22.87z"/>
   <path class="fil11" d="M81.42 1670.19l-15.88 0 0 46.28 -4.84 0 0 -46.28 -15.88 0 0 -4.41 36.59 0 0 4.41zm44.01 46.28l-6.12 0 -16.09 -22.5 -11.53 0 0 22.5 -4.84 0 0 -50.69 22.43 0c4.47,0 8.05,1.22 10.7,3.68 2.74,2.52 4.11,5.99 4.11,10.39 0,4.45 -1.38,7.91 -4.14,10.37 -2.66,2.36 -6.24,3.54 -10.74,3.54l16.23 22.71zm-6.19 -36.62c0,-6.44 -3.92,-9.66 -11.75,-9.66l-15.81 0 0 19.37 15.05 0c8.35,0 12.51,-3.24 12.51,-9.7zm50.32 36.62l-5.21 0 -5.76 -15.24 -22.28 0 -5.99 15.24 -4.97 0 20.65 -50.69 3.92 0 19.65 50.69zm-12.47 -19.22l-9.4 -24.93 -9.73 24.93 19.13 0zm56.53 19.22l-4.77 0 -29.12 -42.59 0 42.59 -4.84 0 0 -50.69 4.77 0 29.12 42.59 0 -42.59 4.84 0 0 50.69zm46.36 -14.26c0,5.29 -1.85,9.28 -5.57,11.96 -3.26,2.38 -7.65,3.58 -13.15,3.58 -11.04,0 -17.4,-4.69 -19.1,-14.05l4.84 -2.47c0,8.07 4.75,12.1 14.25,12.1 3.57,0 6.67,-0.81 9.28,-2.43 3.06,-1.9 4.59,-4.53 4.59,-7.89 0,-4.45 -2.61,-7.49 -7.83,-9.12l-14.51 -4.54c-5.28,-2.43 -7.91,-6.42 -7.91,-11.96 0,-4.23 1.79,-7.55 5.38,-9.91 3.04,-1.99 6.63,-2.99 10.77,-2.99 9.41,0 15.44,3.78 18.08,11.34l-4.48 2.4c-2,-6.22 -6.53,-9.32 -13.59,-9.32 -2.9,0 -5.44,0.71 -7.62,2.12 -2.48,1.61 -3.72,3.74 -3.72,6.34 0,4.29 2.61,7.2 7.83,8.76l14.51 4.25c5.28,2.39 7.91,6.33 7.91,11.82zm46.69 -22.62c0,9.25 -5.12,13.88 -15.39,13.88l-17.93 0 0 23 -4.84 0 0 -50.69 24.99 0c4.57,0 8.01,1.49 10.32,4.48 1.9,2.46 2.85,5.57 2.85,9.33zm-4.84 -0.01c0,-2.45 -0.48,-4.38 -1.43,-5.78 -1.65,-2.4 -4.64,-3.61 -8.97,-3.61l-18.08 0 0 18.87 16.1 0c8.25,0 12.38,-3.16 12.38,-9.48zm52.81 11.55c0,7.37 -1.75,13.49 -5.28,18.35 -3.96,5.52 -9.51,8.27 -16.65,8.27 -7.06,0 -12.59,-2.76 -16.58,-8.27 -3.57,-4.89 -5.35,-11.01 -5.35,-18.35 0,-7.37 1.76,-13.49 5.28,-18.36 3.96,-5.52 9.52,-8.27 16.65,-8.27 7.07,0 12.59,2.75 16.58,8.27 3.57,4.89 5.35,11.01 5.35,18.36zm-4.84 0c0,-5.94 -1.32,-10.94 -3.96,-15.02 -3.13,-4.79 -7.5,-7.19 -13.1,-7.19 -5.59,0 -9.93,2.37 -13.04,7.13 -2.71,4.14 -4.07,9.17 -4.07,15.08 0,5.93 1.33,10.94 4,15.02 3.13,4.79 7.5,7.19 13.11,7.19 5.58,0 9.92,-2.38 13.03,-7.13 2.69,-4.14 4.03,-9.17 4.03,-15.08zm51.2 25.35l-6.12 0 -16.09 -22.5 -11.53 0 0 22.5 -4.84 0 0 -50.69 22.43 0c4.47,0 8.05,1.22 10.7,3.68 2.74,2.52 4.11,5.99 4.11,10.39 0,4.45 -1.38,7.91 -4.14,10.37 -2.66,2.36 -6.24,3.54 -10.74,3.54l16.23 22.71zm-6.19 -36.62c0,-6.44 -3.92,-9.66 -11.75,-9.66l-15.81 0 0 19.37 15.05 0c8.35,0 12.51,-3.24 12.51,-9.7zm43.85 -9.66l-15.88 0 0 46.28 -4.84 0 0 -46.28 -15.88 0 0 -4.41 36.59 0 0 4.41zm39.37 46.28l-5.21 0 -5.76 -15.24 -22.28 0 -5.99 15.24 -4.97 0 20.65 -50.69 3.92 0 19.65 50.69zm-12.47 -19.22l-9.4 -24.93 -9.73 24.93 19.13 0zm44.2 -27.06l-15.88 0 0 46.28 -4.84 0 0 -46.28 -15.88 0 0 -4.41 36.59 0 0 4.41zm11.12 46.28l-4.84 0 0 -50.69 4.84 0 0 50.69zm52.48 -25.35c0,7.37 -1.75,13.49 -5.28,18.35 -3.96,5.52 -9.51,8.27 -16.65,8.27 -7.06,0 -12.59,-2.76 -16.58,-8.27 -3.57,-4.89 -5.35,-11.01 -5.35,-18.35 0,-7.37 1.76,-13.49 5.28,-18.36 3.96,-5.52 9.52,-8.27 16.65,-8.27 7.07,0 12.59,2.75 16.58,8.27 3.57,4.89 5.35,11.01 5.35,18.36zm-4.84 0c0,-5.94 -1.32,-10.94 -3.96,-15.02 -3.13,-4.79 -7.5,-7.19 -13.1,-7.19 -5.59,0 -9.93,2.37 -13.04,7.13 -2.71,4.14 -4.07,9.17 -4.07,15.08 0,5.93 1.33,10.94 4,15.02 3.13,4.79 7.5,7.19 13.11,7.19 5.58,0 9.92,-2.38 13.03,-7.13 2.69,-4.14 4.03,-9.17 4.03,-15.08zm52.41 25.35l-4.77 0 -29.12 -42.59 0 42.59 -4.84 0 0 -50.69 4.77 0 29.12 42.59 0 -42.59 4.84 0 0 50.69z"/>
   <path class="fil32" d="M1441.63 812.6c-3.14,-7.53 -11.79,-11.09 -19.33,-7.95 -7.53,3.15 -11.09,11.8 -7.95,19.33 3.15,7.53 11.8,11.1 19.33,7.96 7.54,-3.15 11.1,-11.8 7.95,-19.34z"/>
   <path class="fil32" d="M1453.99 865.39c-3.14,-7.53 -11.79,-11.1 -19.32,-7.95 -7.54,3.14 -11.1,11.8 -7.96,19.33 3.14,7.53 11.8,11.09 19.33,7.95 7.53,-3.14 11.09,-11.8 7.95,-19.33z"/>
   <path class="fil32" d="M1460.43 919.36c-3.14,-7.53 -11.8,-11.09 -19.33,-7.95 -7.53,3.14 -11.1,11.8 -7.96,19.33 3.15,7.54 11.81,11.09 19.34,7.95 7.53,-3.14 11.09,-11.8 7.95,-19.33z"/>
   <path class="fil32" d="M1460.82 973.83c-3.14,-7.53 -11.8,-11.09 -19.34,-7.95 -7.54,3.14 -11.1,11.8 -7.95,19.33 3.14,7.54 11.79,11.1 19.32,7.95 7.54,-3.14 11.1,-11.8 7.96,-19.34z"/>
   <path class="fil32" d="M1454.85 1028.12c-3.15,-7.54 -11.8,-11.1 -19.33,-7.95 -7.54,3.14 -11.1,11.8 -7.96,19.33 3.14,7.53 11.8,11.1 19.33,7.95 7.53,-3.14 11.1,-11.8 7.96,-19.33z"/>
   <path class="fil32" d="M1442.84 1081.53c-3.14,-7.53 -11.8,-11.1 -19.34,-7.95 -7.53,3.14 -11.09,11.8 -7.95,19.33 3.14,7.53 11.8,11.09 19.33,7.95 7.53,-3.15 11.1,-11.8 7.95,-19.33z"/>
   <path class="fil32" d="M1424.99 1133.43c-3.14,-7.53 -11.8,-11.1 -19.33,-7.95 -7.53,3.14 -11.09,11.8 -7.96,19.33 3.15,7.53 11.81,11.1 19.34,7.95 7.53,-3.14 11.09,-11.8 7.95,-19.33z"/>
   <path class="fil32" d="M1401.12 1183c-3.14,-7.53 -11.8,-11.1 -19.33,-7.96 -7.53,3.15 -11.09,11.8 -7.95,19.34 3.14,7.53 11.8,11.09 19.33,7.95 7.53,-3.14 11.1,-11.8 7.95,-19.33z"/>
   <path class="fil32" d="M1371.87 1229.74c-3.15,-7.53 -11.81,-11.1 -19.34,-7.96 -7.54,3.14 -11.1,11.8 -7.95,19.33 3.14,7.53 11.8,11.09 19.33,7.95 7.53,-3.14 11.1,-11.8 7.96,-19.33z"/>
   <path class="fil32" d="M1337.42 1272.99c-3.14,-7.53 -11.8,-11.09 -19.33,-7.95 -7.53,3.15 -11.1,11.8 -7.96,19.33 3.15,7.54 11.81,11.1 19.34,7.95 7.53,-3.14 11.1,-11.8 7.95,-19.33z"/>
   <path class="fil32" d="M1298.04 1311.98c-3.14,-7.53 -11.79,-11.1 -19.32,-7.95 -7.54,3.14 -11.1,11.8 -7.95,19.33 3.14,7.53 11.8,11.1 19.33,7.96 7.53,-3.15 11.09,-11.8 7.95,-19.33z"/>
   <path class="fil32" d="M1254.42 1346.37c-3.15,-7.53 -11.8,-11.09 -19.34,-7.95 -7.53,3.15 -11.09,11.8 -7.95,19.34 3.14,7.53 11.8,11.09 19.33,7.95 7.54,-3.14 11.1,-11.8 7.96,-19.33z"/>
   <path class="fil32" d="M1207 1375.6c-3.14,-7.53 -11.79,-11.09 -19.33,-7.95 -7.53,3.14 -11.1,11.8 -7.95,19.33 3.14,7.53 11.8,11.1 19.33,7.95 7.53,-3.14 11.08,-11.8 7.95,-19.33z"/>
   <path class="fil32" d="M1156.37 1399.11c-3.14,-7.54 -11.8,-11.1 -19.33,-7.96 -7.53,3.14 -11.1,11.8 -7.96,19.33 3.14,7.53 11.8,11.1 19.33,7.96 7.54,-3.14 11.09,-11.8 7.96,-19.33z"/>
   <path class="fil32" d="M1048.38 1428.45c-3.15,-7.54 -11.8,-11.1 -19.34,-7.95 -7.53,3.14 -11.09,11.79 -7.95,19.33 3.15,7.54 11.8,11.1 19.33,7.96 7.54,-3.15 11.1,-11.8 7.96,-19.33z"/>
   <path class="fil32" d="M992.35 1433.44c-3.14,-7.54 -11.79,-11.1 -19.33,-7.95 -7.53,3.14 -11.09,11.8 -7.95,19.33 3.15,7.53 11.8,11.09 19.33,7.95 7.53,-3.14 11.1,-11.8 7.95,-19.33z"/>
   <path class="fil32" d="M935.99 1431.88c-3.14,-7.53 -11.8,-11.1 -19.33,-7.95 -7.53,3.14 -11.1,11.8 -7.95,19.33 3.14,7.53 11.8,11.09 19.33,7.95 7.53,-3.14 11.09,-11.8 7.95,-19.33z"/>
   <path class="fil32" d="M880.02 1423.84c-3.14,-7.53 -11.8,-11.1 -19.33,-7.96 -7.53,3.15 -11.1,11.81 -7.95,19.33 3.14,7.54 11.8,11.1 19.33,7.95 7.53,-3.14 11.09,-11.8 7.95,-19.33z"/>
   <path class="fil32" d="M825.29 1409.12c-3.15,-7.53 -11.8,-11.1 -19.34,-7.95 -7.53,3.14 -11.09,11.8 -7.95,19.33 3.15,7.53 11.81,11.09 19.34,7.95 7.53,-3.15 11.09,-11.8 7.95,-19.33z"/>
   <path class="fil32" d="M772.43 1388.28c-3.15,-7.53 -11.8,-11.1 -19.33,-7.95 -7.54,3.14 -11.1,11.8 -7.96,19.33 3.15,7.53 11.8,11.09 19.34,7.95 7.53,-3.15 11.1,-11.8 7.95,-19.33z"/>
   <path class="fil32" d="M722.34 1361.15c-3.15,-7.53 -11.8,-11.09 -19.33,-7.95 -7.53,3.14 -11.1,11.8 -7.95,19.34 3.14,7.52 11.8,11.09 19.33,7.94 7.54,-3.14 11.1,-11.8 7.96,-19.33z"/>
   <path class="fil32" d="M675.56 1328.4c-3.15,-7.53 -11.81,-11.09 -19.34,-7.96 -7.53,3.14 -11.09,11.8 -7.95,19.33 3.15,7.53 11.81,11.1 19.34,7.95 7.53,-3.14 11.09,-11.8 7.95,-19.33z"/>
   <path class="fil32" d="M632.94 1290.17c-3.15,-7.53 -11.8,-11.09 -19.33,-7.95 -7.53,3.14 -11.09,11.8 -7.96,19.33 3.15,7.53 11.8,11.09 19.34,7.95 7.54,-3.14 11.1,-11.8 7.95,-19.33z"/>
   <path class="fil32" d="M595.04 1247.06c-3.14,-7.53 -11.8,-11.09 -19.34,-7.95 -7.53,3.15 -11.09,11.81 -7.95,19.34 3.15,7.53 11.8,11.09 19.34,7.95 7.53,-3.15 11.09,-11.81 7.95,-19.34z"/>
   <path class="fil32" d="M562.41 1199.66c-3.15,-7.53 -11.8,-11.09 -19.33,-7.95 -7.54,3.14 -11.1,11.8 -7.95,19.33 3.14,7.53 11.8,11.1 19.33,7.95 7.54,-3.14 11.1,-11.8 7.96,-19.33z"/>
   <path class="fil32" d="M515.06 1094.49c-3.15,-7.54 -11.8,-11.1 -19.33,-7.95 -7.53,3.14 -11.09,11.8 -7.95,19.33 3.14,7.53 11.8,11.09 19.33,7.95 7.54,-3.15 11.1,-11.8 7.95,-19.33z"/>
   <path class="fil32" d="M500.93 1038.24c-3.14,-7.53 -11.8,-11.1 -19.33,-7.95 -7.53,3.14 -11.09,11.8 -7.95,19.33 3.15,7.53 11.8,11.09 19.33,7.95 7.54,-3.15 11.09,-11.8 7.95,-19.33z"/>
   <path class="fil32" d="M493.75 980.55c-3.14,-7.54 -11.8,-11.1 -19.33,-7.95 -7.53,3.14 -11.1,11.8 -7.95,19.33 3.14,7.53 11.8,11.09 19.33,7.95 7.53,-3.15 11.09,-11.8 7.95,-19.34z"/>
   <path class="fil32" d="M493.42 922.26c-3.14,-7.54 -11.8,-11.09 -19.33,-7.95 -7.53,3.14 -11.09,11.8 -7.95,19.34 3.14,7.53 11.8,11.09 19.34,7.95 7.53,-3.14 11.1,-11.8 7.95,-19.33z"/>
   <path class="fil32" d="M500.36 864.23c-3.14,-7.53 -11.8,-11.09 -19.33,-7.96 -7.53,3.14 -11.09,11.8 -7.95,19.34 3.14,7.53 11.8,11.09 19.33,7.95 7.54,-3.14 11.1,-11.8 7.95,-19.33z"/>
   <path class="fil32" d="M514.09 807.26c-3.15,-7.53 -11.8,-11.09 -19.34,-7.95 -7.53,3.15 -11.09,11.8 -7.95,19.34 3.14,7.52 11.79,11.09 19.33,7.95 7.53,-3.15 11.1,-11.8 7.95,-19.34z"/>
   <path class="fil32" d="M534.8 752.27c-3.14,-7.53 -11.8,-11.09 -19.34,-7.95 -7.53,3.15 -11.09,11.8 -7.95,19.34 3.15,7.53 11.8,11.09 19.33,7.95 7.53,-3.15 11.09,-11.81 7.95,-19.34z"/>
   <path class="fil32" d="M561.91 699.99c-3.15,-7.53 -11.8,-11.09 -19.33,-7.95 -7.54,3.14 -11.1,11.8 -7.95,19.33 3.14,7.53 11.8,11.09 19.33,7.95 7.53,-3.15 11.1,-11.8 7.95,-19.33z"/>
   <path class="fil32" d="M595.36 651.31c-3.15,-7.54 -11.81,-11.09 -19.34,-7.96 -7.53,3.15 -11.1,11.8 -7.95,19.34 3.14,7.52 11.8,11.09 19.33,7.95 7.53,-3.15 11.1,-11.81 7.96,-19.33z"/>
   <path class="fil32" d="M634.51 606.9c-3.15,-7.53 -11.8,-11.09 -19.33,-7.95 -7.53,3.15 -11.09,11.8 -7.95,19.33 3.14,7.53 11.8,11.09 19.33,7.96 7.53,-3.15 11.1,-11.81 7.95,-19.34z"/>
   <path class="fil32" d="M679 567.6c-3.14,-7.54 -11.8,-11.09 -19.33,-7.95 -7.53,3.14 -11.09,11.8 -7.95,19.33 3.14,7.54 11.8,11.1 19.33,7.95 7.54,-3.14 11.1,-11.8 7.95,-19.33z"/>
   <path class="fil32" d="M728.1 533.92c-3.15,-7.53 -11.8,-11.09 -19.34,-7.95 -7.53,3.14 -11.09,11.8 -7.95,19.33 3.15,7.53 11.8,11.09 19.34,7.95 7.53,-3.14 11.09,-11.8 7.95,-19.34z"/>
   <path class="fil32" d="M781.14 506.57c-3.14,-7.54 -11.8,-11.1 -19.33,-7.95 -7.54,3.14 -11.1,11.8 -7.95,19.33 3.14,7.54 11.8,11.09 19.33,7.95 7.53,-3.14 11.09,-11.8 7.95,-19.33z"/>
   <path class="fil32" d="M895.63 471.96c-3.15,-7.54 -11.8,-11.09 -19.33,-7.95 -7.53,3.15 -11.09,11.8 -7.96,19.34 3.15,7.53 11.8,11.09 19.34,7.95 7.53,-3.15 11.09,-11.81 7.95,-19.34z"/>
   <path class="fil32" d="M955.43 465.39c-3.15,-7.54 -11.8,-11.1 -19.33,-7.95 -7.53,3.14 -11.1,11.8 -7.95,19.33 3.14,7.54 11.8,11.1 19.33,7.95 7.53,-3.14 11.09,-11.8 7.95,-19.33z"/>
   <path class="fil32" d="M1015.75 466.63c-3.15,-7.54 -11.8,-11.1 -19.33,-7.96 -7.53,3.14 -11.1,11.8 -7.96,19.33 3.14,7.54 11.8,11.09 19.34,7.95 7.52,-3.14 11.09,-11.8 7.95,-19.33z"/>
   <path class="fil32" d="M1075.62 475.2c-3.15,-7.54 -11.8,-11.1 -19.33,-7.95 -7.53,3.14 -11.1,11.8 -7.95,19.33 3.14,7.53 11.79,11.09 19.33,7.95 7.53,-3.15 11.09,-11.8 7.95,-19.33z"/>
   <path class="fil32" d="M1134.09 491.31c-3.15,-7.53 -11.8,-11.09 -19.33,-7.94 -7.54,3.14 -11.1,11.8 -7.95,19.33 3.14,7.54 11.8,11.1 19.33,7.95 7.54,-3.14 11.1,-11.8 7.96,-19.33z"/>
   <path class="fil32" d="M1190.26 514.63c-3.14,-7.53 -11.8,-11.09 -19.34,-7.95 -7.53,3.14 -11.09,11.79 -7.95,19.33 3.14,7.53 11.8,11.09 19.33,7.94 7.53,-3.14 11.1,-11.79 7.96,-19.33z"/>
   <path class="fil32" d="M1243.3 544.74c-3.15,-7.54 -11.8,-11.09 -19.33,-7.96 -7.54,3.15 -11.1,11.8 -7.96,19.34 3.14,7.52 11.8,11.09 19.33,7.95 7.53,-3.15 11.1,-11.81 7.96,-19.33z"/>
   <path class="fil32" d="M1292.1 581.57c-3.14,-7.54 -11.8,-11.1 -19.34,-7.95 -7.53,3.14 -11.08,11.8 -7.95,19.33 3.14,7.54 11.79,11.09 19.33,7.95 7.53,-3.14 11.1,-11.8 7.95,-19.33z"/>
   <path class="fil32" d="M1336.1 624.27c-3.14,-7.53 -11.8,-11.09 -19.33,-7.96 -7.53,3.15 -11.1,11.81 -7.96,19.34 3.15,7.53 11.8,11.09 19.33,7.95 7.54,-3.14 11.1,-11.8 7.96,-19.33z"/>
   <path class="fil32" d="M1374.36 672.38c-3.14,-7.53 -11.8,-11.09 -19.34,-7.95 -7.53,3.15 -11.1,11.81 -7.95,19.34 3.15,7.53 11.8,11.09 19.34,7.95 7.52,-3.15 11.09,-11.8 7.95,-19.34z"/>
   <path class="fil32" d="M1406.23 725.15c-3.14,-7.53 -11.79,-11.09 -19.32,-7.95 -7.54,3.14 -11.11,11.8 -7.96,19.33 3.14,7.54 11.8,11.09 19.33,7.95 7.53,-3.14 11.09,-11.8 7.95,-19.33z"/>
   <polygon class="fil32" points="1417.39,790.87 1434.04,766.12 1450.69,741.36 1405.73,756.71 1360.75,772.05 1389.06,781.46 "/>
   <polygon class="fil32" points="516.65,1133.53 499.99,1158.28 483.34,1183.04 528.31,1167.7 573.28,1152.35 544.96,1142.94 "/>
   <polygon class="fil32" points="843.37,485.89 818.61,469.25 793.84,452.6 809.21,497.57 824.58,542.54 833.97,514.22 "/>
   <polygon class="fil32" points="1070.36,1430.65 1095.13,1447.29 1119.9,1463.94 1104.53,1418.97 1089.16,1374 1079.76,1402.32 "/>
   <path class="fil33" d="M1302.04 704.83c28.37,374.95 -376.45,637.03 -706.63,453.57 333.81,250.08 1002.5,-63.65 706.63,-453.57z"/>
   <path class="fil33" d="M595.41 1158.4c91.6,98.3 223.34,163.44 368.3,163.44 195.91,0 395.38,-104.17 419.37,-313.63 -168.91,268.86 -531.86,334.94 -787.68,150.2z"/>
   <path class="fil33" d="M595.41 1158.4c113.76,198.22 369.56,280.34 569.44,173.05 -234.75,65.36 -424.01,-18.44 -569.44,-173.05z"/>
   <path class="fil33" d="M921.92 623.24c24.62,0 48.64,2.5 71.91,7.08 -47.95,-33.06 -102.24,-57.57 -160.68,-71.34 -228.69,75.67 -346.39,327.45 -261.94,550.11 -12.14,-36.61 -18.73,-75.73 -18.73,-116.4 0,-204.04 165.4,-369.45 369.43,-369.45z"/>
   <path class="fil34" d="M1278.49 676.48c-38.23,-42.21 -84.89,-76.63 -137.35,-100.66 33.87,55.71 55.54,117.21 64.58,180.45 25.37,30.41 45.98,64.94 60.59,102.49 15.84,-59.77 19.77,-121.72 12.17,-182.28zm-312.24 -138.79l0 0c-0.15,-0.01 -0.33,-0.01 -0.48,-0.01 -28.03,0 -55.4,2.76 -81.92,7.98 12.99,5.73 25.89,11.93 38.63,18.72 40.19,21.42 76.79,46.89 109.68,75.62 14.08,4.39 27.77,9.65 41.07,15.62 -28.3,-44.3 -64.16,-84.33 -106.98,-117.93zm31.17 1.21l0 0c42.47,38.01 77.42,82.43 104.16,130.96 29.26,16.33 56.09,36.48 79.76,59.83 -12.96,-59.34 -37.14,-116.04 -71.49,-166.73 -35.51,-12.9 -73.22,-21.15 -112.43,-24.06z"/>
   <polygon class="fil1" points="764.18,1132.25 829.42,825.3 705.13,825.3 726.46,726.63 1110.55,726.63 1089.1,825.3 964.57,825.3 899.32,1132.25 "/>
   <polygon class="fil6" points="744.46,1225.72 758.55,1162.45 893.69,1162.45 879.6,1225.72 "/>
  </g>
 </g>
</svg>
