<?xml version="1.0" encoding="UTF-8"?>
<!DOCTYPE svg PUBLIC "-//W3C//DTD SVG 1.1//EN" "http://www.w3.org/Graphics/SVG/1.1/DTD/svg11.dtd">
<!-- Creator: CorelDRAW Standard 2021 (64 Bit) -->
<svg xmlns="http://www.w3.org/2000/svg" xml:space="preserve" width="786.755mm" height="709.708mm" version="1.1" style="shape-rendering:geometricPrecision; text-rendering:geometricPrecision; image-rendering:optimizeQuality; fill-rule:evenodd; clip-rule:evenodd"
viewBox="0 0 3215.61 2900.71"
 xmlns:xlink="http://www.w3.org/1999/xlink"
 xmlns:xodm="http://www.corel.com/coreldraw/odm/2003">
 <defs>
  <style type="text/css">
   <![CDATA[
    .fil19 {fill:none}
    .fil9 {fill:#FEFEFE}
    .fil18 {fill:#EDCD8B}
    .fil3 {fill:#E68039}
    .fil4 {fill:#DB6D3A}
    .fil12 {fill:#D8E0E7}
    .fil5 {fill:#D2D4D4}
    .fil8 {fill:#C3CED4}
    .fil6 {fill:#A7C5D1}
    .fil11 {fill:#9FA6AD}
    .fil7 {fill:#959798}
    .fil13 {fill:#8B9598}
    .fil14 {fill:#7C8588}
    .fil15 {fill:#737576}
    .fil16 {fill:#626163}
    .fil10 {fill:#6E879A}
    .fil17 {fill:#4D4E4F}
    .fil1 {fill:#094561}
    .fil2 {fill:#F59B2C}
    .fil0 {fill:white}
   ]]>
  </style>
   <clipPath id="id0">
    <path d="M117.4 0l2980.82 0c64.57,0 117.4,52.83 117.4,117.4l0 2665.91c0,64.57 -52.83,117.4 -117.4,117.4l-2980.82 0c-64.57,0 -117.4,-52.83 -117.4,-117.4l0 -2665.91c0,-64.57 52.83,-117.4 117.4,-117.4z"/>
   </clipPath>
 </defs>
 <g id="Camada_x0020_1">
  <metadata id="CorelCorpID_0Corel-Layer"/>
  <path class="fil0" d="M117.4 0l2980.82 0c64.57,0 117.4,52.83 117.4,117.4l0 2665.91c0,64.57 -52.83,117.4 -117.4,117.4l-2980.82 0c-64.57,0 -117.4,-52.83 -117.4,-117.4l0 -2665.91c0,-64.57 52.83,-117.4 117.4,-117.4z"/>
  <g style="clip-path:url(#id0)">
   <g id="_2039574743424">
    <g>
     <g>
      <polygon id="_1" class="fil1" points="243.98,1855.29 116.6,1855.29 5.33,2069.67 160.08,2069.67 160.08,1991.98 243.98,1991.98 "/>
      <polygon class="fil2" points="97.91,1891.25 68.87,1947.21 243.98,1947.21 243.98,1891.25 "/>
      <polygon class="fil3" points="417.74,2177.63 1150.82,2177.63 1150.82,2526.97 934.21,2526.97 934.21,2516.08 885.71,2516.08 885.71,2526.97 808.52,2526.97 808.52,2516.08 760.01,2516.08 760.01,2526.97 682.86,2526.97 682.86,2516.08 634.34,2516.08 634.34,2526.97 417.74,2526.97 "/>
      <polygon class="fil4" points="443.37,2507.27 460.52,2507.27 460.52,2187.54 443.37,2187.54 "/>
      <polygon class="fil4" points="476.61,2507.27 493.76,2507.27 493.76,2187.54 476.61,2187.54 "/>
      <polygon class="fil4" points="509.83,2507.27 526.98,2507.27 526.98,2187.54 509.83,2187.54 "/>
      <polygon class="fil4" points="543.06,2507.27 560.21,2507.27 560.21,2187.54 543.06,2187.54 "/>
      <polygon class="fil4" points="576.3,2507.27 593.46,2507.27 593.46,2187.54 576.3,2187.54 "/>
      <polygon class="fil4" points="609.53,2507.27 626.69,2507.27 626.69,2187.54 609.53,2187.54 "/>
      <polygon class="fil4" points="642.77,2507.27 659.91,2507.27 659.91,2187.54 642.77,2187.54 "/>
      <polygon class="fil4" points="675.99,2507.27 693.16,2507.27 693.16,2187.54 675.99,2187.54 "/>
      <polygon class="fil4" points="709.23,2507.27 726.4,2507.27 726.4,2187.54 709.23,2187.54 "/>
      <polygon class="fil4" points="742.46,2507.27 759.62,2507.27 759.62,2187.54 742.46,2187.54 "/>
      <polygon class="fil4" points="775.7,2507.27 792.86,2507.27 792.86,2187.54 775.7,2187.54 "/>
      <polygon class="fil4" points="808.93,2507.27 826.09,2507.27 826.09,2187.54 808.93,2187.54 "/>
      <polygon class="fil4" points="842.17,2507.27 859.33,2507.27 859.33,2187.54 842.17,2187.54 "/>
      <polygon class="fil4" points="875.42,2507.27 892.57,2507.27 892.57,2187.54 875.42,2187.54 "/>
      <polygon class="fil4" points="908.64,2507.27 925.78,2507.27 925.78,2187.54 908.64,2187.54 "/>
      <polygon class="fil4" points="941.87,2507.27 959.02,2507.27 959.02,2187.54 941.87,2187.54 "/>
      <polygon class="fil4" points="975.1,2507.27 992.26,2507.27 992.26,2187.54 975.1,2187.54 "/>
      <polygon class="fil4" points="1008.34,2507.27 1025.49,2507.27 1025.49,2187.54 1008.34,2187.54 "/>
      <polygon class="fil4" points="1041.59,2507.27 1058.73,2507.27 1058.73,2187.54 1041.59,2187.54 "/>
      <polygon class="fil4" points="1074.81,2507.27 1091.96,2507.27 1091.96,2187.54 1074.81,2187.54 "/>
      <polygon class="fil4" points="1108.03,2507.27 1125.18,2507.27 1125.18,2187.54 1108.03,2187.54 "/>
      <path class="fil1" d="M883.91 2470.04l765.23 0 -32.78 65.83c-142.66,51.24 -353.22,218.56 -457.89,388.51l-1312.99 0 -211.05 -340.76 0 -56.09 1209.15 0c22.2,0 40.34,-18.17 40.34,-40.34l0 -17.16z"/>
      <path class="fil2" d="M1245.44 2808.82c-33.16,37.46 -62.9,76.46 -86.98,115.56l-1312.99 0 -71.58 -115.56 1471.55 0z"/>
      <path class="fil3" d="M1320.96 2544.55c11.8,0 18.45,12.12 14.86,27.03 -3.63,14.95 -16.15,27.05 -27.96,27.05 -11.82,0 -18.47,-12.1 -14.88,-27.05 3.61,-14.91 16.13,-27.03 27.98,-27.03z"/>
      <polygon class="fil2" points="-178.6,2527.54 160.08,2527.54 160.08,2069.67 -178.6,2069.67 "/>
      <polygon class="fil5" points="374.48,2527.54 7.83,2527.54 7.83,2172.21 160.08,2172.21 160.08,1991.98 374.48,1991.98 "/>
      <polygon class="fil6" points="203.59,2108.66 374.48,2108.66 374.48,2051.02 203.59,2051.02 "/>
      <polygon class="fil7" points="70.24,2251.51 93.16,2251.51 93.16,2219.42 70.24,2219.42 "/>
      <polygon class="fil7" points="70.24,2321.8 93.16,2321.8 93.16,2289.73 70.24,2289.73 "/>
      <polygon class="fil7" points="70.24,2392.11 93.16,2392.11 93.16,2359.97 70.24,2359.97 "/>
      <polygon class="fil7" points="134.41,2251.51 157.34,2251.51 157.34,2219.42 134.41,2219.42 "/>
      <polygon class="fil7" points="134.41,2321.8 157.34,2321.8 157.34,2289.73 134.41,2289.73 "/>
      <polygon class="fil7" points="134.41,2392.11 157.34,2392.11 157.34,2359.97 134.41,2359.97 "/>
      <polygon class="fil7" points="198.57,2251.51 221.51,2251.51 221.51,2219.42 198.57,2219.42 "/>
      <polygon class="fil7" points="198.57,2321.8 221.51,2321.8 221.51,2289.73 198.57,2289.73 "/>
      <polygon class="fil7" points="198.57,2392.11 221.51,2392.11 221.51,2359.97 198.57,2359.97 "/>
      <polygon class="fil7" points="262.76,2251.51 285.68,2251.51 285.68,2219.42 262.76,2219.42 "/>
      <polygon class="fil7" points="262.76,2321.8 285.68,2321.8 285.68,2289.73 262.76,2289.73 "/>
      <polygon class="fil7" points="262.76,2392.11 285.68,2392.11 285.68,2359.97 262.76,2359.97 "/>
      <path class="fil6" d="M52.19 2681.1c20.34,0 36.93,-16.57 36.93,-36.92 0,-20.31 -16.59,-36.92 -36.93,-36.92 -20.35,0 -36.93,16.61 -36.93,36.92 0,20.35 16.58,36.92 36.93,36.92z"/>
      <path class="fil6" d="M205.91 2681.1c20.33,0 36.91,-16.57 36.91,-36.92 0,-20.31 -16.58,-36.92 -36.91,-36.92 -20.35,0 -36.94,16.61 -36.94,36.92 0,20.35 16.59,36.92 36.94,36.92z"/>
      <path class="fil6" d="M359.61 2681.1c20.35,0 36.95,-16.57 36.95,-36.92 0,-20.31 -16.6,-36.92 -36.95,-36.92 -20.33,0 -36.93,16.61 -36.93,36.92 0,20.35 16.6,36.92 36.93,36.92z"/>
      <path class="fil6" d="M513.34 2681.1c20.32,0 36.93,-16.57 36.93,-36.92 0,-20.31 -16.6,-36.92 -36.93,-36.92 -20.36,0 -36.94,16.61 -36.94,36.92 0,20.35 16.58,36.92 36.94,36.92z"/>
      <path class="fil6" d="M667.05 2681.1c20.34,0 36.93,-16.57 36.93,-36.92 0,-20.31 -16.6,-36.92 -36.93,-36.92 -20.34,0 -36.91,16.61 -36.91,36.92 0,20.35 16.57,36.92 36.91,36.92z"/>
      <path class="fil6" d="M820.75 2681.1c20.35,0 36.95,-16.57 36.95,-36.92 0,-20.31 -16.6,-36.92 -36.95,-36.92 -20.32,0 -36.91,16.61 -36.91,36.92 0,20.35 16.6,36.92 36.91,36.92z"/>
      <path class="fil6" d="M974.49 2681.1c20.33,0 36.91,-16.57 36.91,-36.92 0,-20.31 -16.58,-36.92 -36.91,-36.92 -20.36,0 -36.94,16.61 -36.94,36.92 0,20.35 16.57,36.92 36.94,36.92z"/>
     </g>
     <g>
      <path class="fil8" d="M321.54 1051.73l1020.75 -28.33c172.67,-4.84 387.86,0.97 531.08,57.49 114.56,45.27 219.55,148.83 338.71,206.2 134.79,55.26 126.05,139.15 32.2,205.28 -171.33,120.72 -472.29,112.81 -708.5,109.14 -237.77,-3.7 -475.98,3.57 -713.36,-11.11 -318.11,-19.7 -689.67,-130.65 -916.54,-335.26l-195.94 -544.43 164.09 -3c134.44,-2.45 171.95,46.76 200.84,77.93l246.67 266.08z"/>
      <path class="fil9" d="M533.62 1327.01c41.16,0 74.71,-33.53 74.71,-74.71 0,-41.12 -33.55,-74.68 -74.71,-74.68 -41.12,0 -74.7,33.56 -74.7,74.68 0,41.18 33.57,74.71 74.7,74.71z"/>
      <path class="fil9" d="M1614.08 1327.01c41.17,0 74.71,-33.53 74.71,-74.71 0,-41.12 -33.54,-74.68 -74.71,-74.68 -41.13,0 -74.69,33.56 -74.69,74.68 0,41.18 33.56,74.71 74.69,74.71z"/>
      <path class="fil2" d="M-209.72 933.96l-58.91 -163.68 329.29 0c5.15,5.39 9.79,10.54 14.21,15.38l137.47 148.31 -422.06 0z"/>
      <path class="fil9" d="M2208.86 1285.51l-20.79 -0.47 -406.67 -9.03 -4.79 -0.13 -2.95 -3.69 -115.42 -145.11 -11.92 -14.95 19.12 -1.41 235.94 -17.54c102.86,49.21 199.41,139.47 307.47,192.33z"/>
      <path class="fil6" d="M1919.02 1102.03c89.79,47.13 175.52,122.51 269.28,172.91l-406.69 -9.03 -115.41 -145.1 252.82 -18.78z"/>
      <path class="fil10" d="M1919.02 1102.03c18.14,9.53 36.12,20.21 54.07,31.63 -101.29,-16 -251.76,-16.27 -209.56,109.54l-97.33 -122.38 252.82 -18.78z"/>
      <path class="fil6" d="M533.62 1316.19c35.19,0 63.86,-28.7 63.86,-63.9 0,-35.14 -28.67,-63.82 -63.86,-63.82 -35.15,0 -63.85,28.68 -63.85,63.82 0,35.2 28.7,63.9 63.85,63.9z"/>
      <path class="fil10" d="M533.62 1188.47c24.18,0 45.18,13.39 56.02,33.17 -11.11,-6.69 -24.12,-10.52 -38.05,-10.52 -40.19,0 -72.91,32.12 -73.83,72.11 -5.09,-9.15 -7.99,-19.7 -7.99,-30.94 0,-35.25 28.6,-63.82 63.85,-63.82z"/>
      <path class="fil6" d="M1614.1 1316.19c35.18,0 63.85,-28.7 63.85,-63.9 0,-35.14 -28.69,-63.82 -63.85,-63.82 -35.18,0 -63.87,28.68 -63.87,63.82 0,35.2 28.69,63.9 63.87,63.9z"/>
      <path class="fil10" d="M1614.1 1188.47c24.14,0 45.16,13.39 56.02,33.17 -11.14,-6.69 -24.15,-10.52 -38.07,-10.52 -40.2,0 -72.91,32.12 -73.81,72.11 -5.08,-9.15 -8.02,-19.7 -8.02,-30.94 0,-35.25 28.6,-63.82 63.87,-63.82z"/>
      <path class="fil11" d="M272.12 1470.9c271.13,57.42 564.05,75.65 942.03,71.16 716.46,-8.49 888.62,-31.7 1078.89,-95.17 -11.76,15.7 -28.23,31.03 -48.77,45.49 -171.33,120.72 -472.29,112.81 -708.5,109.14 -237.77,-3.7 -475.98,3.57 -713.36,-11.11 -178.27,-11.04 -373.34,-50.75 -550.3,-119.51z"/>
      <path class="fil9" d="M4.84 1117.71c156.8,-29.42 345.08,-40.86 534.37,-51.72 -32.75,13.8 -49.99,31.06 -98.25,41.4 -145.36,3.4 -290.73,6.87 -436.12,10.32z"/>
      <path class="fil9" d="M1974.3 1317.23c80.12,-3.23 159.8,-4.76 237.93,0 38.87,10.37 53.88,29.45 70.35,47.99 -93.83,-42.86 -202.06,-42.49 -308.28,-47.99z"/>
      <path class="fil12" d="M813.52 1075.52c237.19,-18.33 307.66,-10.34 539.86,-21.09 51.73,-2.4 95.06,39.12 100.47,68.07 3.24,17.36 -174.91,180.62 -221.57,213.06l-0.18 0 0.02 0.08c-63.38,24.75 -613.16,-9.87 -630.75,-18.56 -0.06,-1.81 0.58,-3.62 1.94,-5.34 18.57,-34.67 179.9,-212.52 184.81,-222.49 3.13,-6.27 11.38,-11.73 25.4,-13.74z"/>
      <path class="fil13" d="M1437.48 1147.1c28.04,3.7 56.09,8.41 84.14,14.16l0 212.73c-154.22,32.44 -312.07,37.65 -472.44,-1.64l0 -28.48c89.27,1.59 162.17,-0.13 182.94,-8.23l-0.02 -0.08 0.18 0c29.07,-20.21 109.12,-91.15 164.6,-145.99 -5.09,-17.12 -34.97,-22.92 -212.8,-36.79 72.95,-12.11 171.1,-18.65 253.31,-5.55l0.1 -0.13z"/>
      <path class="fil14" d="M1498.53 1378.62c-146.88,28.23 -296.97,31.06 -449.34,-6.27l0 -28.48c89.27,1.61 162.17,-0.13 182.94,-8.23l-0.02 -0.08 0.18 0c2.4,-1.66 5.09,-3.64 8.11,-5.96l258.13 0 0 49.01z"/>
      <path class="fil1" d="M1456.48 1149.76c21.7,3.2 43.42,7.04 65.14,11.5l0 212.73c-21.66,4.56 -43.36,8.58 -65.14,11.98l0 -236.21z"/>
      <path class="fil2" d="M1521.62 1329.49l0 44.5c-21.66,4.56 -43.36,8.58 -65.14,11.98l0 -56.48 65.14 0z"/>
      <path class="fil9" d="M623.84 1302.9c194.48,-27.96 302.72,-36.71 497.24,-35.05 52.87,0.45 108.29,42.99 111.04,67.79 -63.38,24.75 -613.16,-9.87 -630.75,-18.56 -0.2,-5.76 6.93,-11.95 22.46,-14.19z"/>
     </g>
     <g>
      <path class="fil15" d="M2625.6 2662.62l1170.03 0 75.96 -12.97 0.31 -257.97c0,-11.24 -12.49,-23.88 -23.71,-23.88l-1222.59 0 0 294.82z"/>
      <polygon class="fil16" points="1758.37,2380.72 1829.95,2315.85 1845.62,2662.62 1810.72,2670.37 1784.1,2662.62 1759.23,2592.4 "/>
      <path class="fil1" d="M2625.96 1696.48l-366.92 -35.03c-41.19,-3.95 -78.87,3.62 -123.96,41.01 -144.55,119.92 -372.63,378.6 -350.07,768.87l6.91 139.47 320.33 0 513.34 -15.34 0.36 -898.98z"/>
      <path class="fil2" d="M1810.56 2200.7c-15.01,58.69 -24.58,121.78 -26.62,189.17l0.05 0.24 643.37 -254.88 50.36 -131.85 -615.13 217.93 -51.83 -20.76 -0.21 0.16z"/>
      <path class="fil6" d="M1862.59 2221.3c37.73,-181.15 156.08,-375.85 316.07,-493.42 12.16,-12.92 45.07,-30.74 80.18,-26.71l320.36 30.6 -3.09 237.63 -0.71 0.26 -74.09 -16.77 -23.58 50.48 -615.13 217.93z"/>
      <path class="fil10" d="M2040.79 1859.49c40.98,-49.63 87.35,-94.43 137.87,-131.61 12.16,-12.92 45.07,-30.74 80.18,-26.71l320.36 30.6 -2.3 176.97c-48.68,-118.02 -302.86,-106.93 -536.1,-49.26z"/>
      <path class="fil7" d="M3482.51 2367.8l93.69 1.03 -0.13 1.08c48.29,1.15 96.14,7.29 143.42,16.06 22.98,4.3 44.38,18.69 61.47,35.22 63.51,61.52 86.99,137.22 90.63,222.28 0.1,2.07 0.16,4.12 0.26,6.13 0.19,6.06 -30.31,10.04 -77.79,12.5l-536.21 0.52 -1448.37 0 -17.55 -51.82 254.67 0 55.94 -157.86c7.94,-22.41 24.42,-45.18 45.56,-52.8l453.59 -163.52c13.1,-4.24 23.9,0.11 23.9,17.42l0 41.52c0,51.51 0,111.94 0,167.15l0 61.05 496.04 -33.89c104.91,-77.44 188.36,-122.07 360.87,-122.07z"/>
      <path class="fil17" d="M3447.16 2429.14c83.35,-20.46 165.79,-14.72 246.34,0.45 19.05,3.62 36.73,15.72 50.85,29.69 55.94,55.13 74.41,123.68 75.44,201.02 -7.26,2.32 -20.05,2.32 -24.5,2.32l-486.06 0c-0.71,-66.26 23.4,-149.55 72.16,-198.31 23.08,-23.06 42.42,-29.46 65.77,-35.17z"/>
      <path class="fil15" d="M3568.29 2910.51c125.53,0 227.87,-102.32 227.87,-227.8 0,-125.49 -102.35,-227.82 -227.87,-227.82 -125.43,0 -227.8,102.32 -227.8,227.82 0,125.48 102.37,227.8 227.8,227.8z"/>
      <path class="fil5" d="M3568.29 2813.59c72.15,0 130.89,-58.77 130.89,-130.87 0.05,-72.1 -58.74,-130.9 -130.89,-130.9 -72.06,0 -130.85,58.8 -130.85,130.9 0,72.1 58.79,130.87 130.85,130.87z"/>
      <polygon class="fil18" points="2786.55,2287.22 3978.93,2287.22 3979.46,1504.37 2786.55,1504.37 "/>
      <polygon class="fil2" points="2625.6,2095.55 2625.96,2095.55 2625.96,1578.68 2674.72,1578.68 2674.72,2095.55 4121.47,2095.55 4121.47,2367.74 2625.6,2367.74 "/>
      <path class="fil17" d="M2082.84 2662.62l542.36 0c5.5,-105.25 -32.1,-202.45 -79.02,-277.94 -20.31,-32.62 -48.21,-49.65 -83.98,-48.02l-281.86 101.1c-17.3,6.21 -30.61,26.02 -37.11,45.22l-60.39 179.63z"/>
      <path class="fil15" d="M2368.1 2899.4c125.47,0 227.82,-102.34 227.82,-227.82 0,-125.48 -102.35,-227.8 -227.82,-227.8 -125.48,0 -227.82,102.32 -227.82,227.8 0,125.48 102.34,227.82 227.82,227.82z"/>
      <path class="fil5" d="M2368.1 2802.49c72.1,0 130.89,-58.82 130.89,-130.9 0,-72.09 -58.79,-130.9 -130.89,-130.9 -72.11,0 -130.9,58.81 -130.9,130.9 0,72.08 58.79,130.9 130.9,130.9z"/>
     </g>
    </g>
   </g>
  </g>
  <path class="fil19" d="M117.4 0l2980.82 0c64.57,0 117.4,52.83 117.4,117.4l0 2665.91c0,64.57 -52.83,117.4 -117.4,117.4l-2980.82 0c-64.57,0 -117.4,-52.83 -117.4,-117.4l0 -2665.91c0,-64.57 52.83,-117.4 117.4,-117.4z"/>
 </g>
</svg>
