<?xml version="1.0" encoding="UTF-8"?>
<!DOCTYPE svg PUBLIC "-//W3C//DTD SVG 1.1//EN" "http://www.w3.org/Graphics/SVG/1.1/DTD/svg11.dtd">
<!-- Creator: CorelDRAW Standard 2021 (64 Bit) -->
<svg xmlns="http://www.w3.org/2000/svg" xml:space="preserve" width="649.765mm" height="330.274mm" version="1.1" style="shape-rendering:geometricPrecision; text-rendering:geometricPrecision; image-rendering:optimizeQuality; fill-rule:evenodd; clip-rule:evenodd"
viewBox="0 0 1805.32 917.64"
 xmlns:xlink="http://www.w3.org/1999/xlink"
 xmlns:xodm="http://www.corel.com/coreldraw/odm/2003">
 <defs>
  <style type="text/css">
   <![CDATA[
    .fil8 {fill:#FEFEFE}
    .fil17 {fill:#EDCD8B}
    .fil2 {fill:#E68039}
    .fil3 {fill:#DB6D3A}
    .fil11 {fill:#D8E0E7}
    .fil4 {fill:#D2D4D4}
    .fil7 {fill:#C3CED4}
    .fil5 {fill:#A7C5D1}
    .fil10 {fill:#9FA6AD}
    .fil6 {fill:#959798}
    .fil12 {fill:#8B9598}
    .fil13 {fill:#7C8588}
    .fil14 {fill:#737576}
    .fil15 {fill:#626163}
    .fil9 {fill:#6E879A}
    .fil16 {fill:#4D4E4F}
    .fil0 {fill:#094561}
    .fil1 {fill:#F59B2C}
   ]]>
  </style>
 </defs>
 <g id="Camada_x0020_1">
  <metadata id="CorelCorpID_0Corel-Layer"/>
  <g id="_1697969370448">
   <g>
    <polygon class="fil0" points="254.09,468.26 200.99,468.26 154.61,557.62 219.12,557.62 219.12,525.24 254.09,525.24 "/>
    <polygon class="fil1" points="193.2,483.25 181.1,506.58 254.09,506.58 254.09,483.25 "/>
    <polygon class="fil2" points="326.52,602.63 632.09,602.63 632.09,748.24 541.8,748.24 541.8,743.7 521.59,743.7 521.59,748.24 489.41,748.24 489.41,743.7 469.19,743.7 469.19,748.24 437.03,748.24 437.03,743.7 416.8,743.7 416.8,748.24 326.52,748.24 "/>
    <polygon class="fil3" points="337.2,740.03 344.35,740.03 344.35,606.76 337.2,606.76 "/>
    <polygon class="fil3" points="351.06,740.03 358.2,740.03 358.2,606.76 351.06,606.76 "/>
    <polygon class="fil3" points="364.9,740.03 372.05,740.03 372.05,606.76 364.9,606.76 "/>
    <polygon class="fil3" points="378.75,740.03 385.91,740.03 385.91,606.76 378.75,606.76 "/>
    <polygon class="fil3" points="392.61,740.03 399.76,740.03 399.76,606.76 392.61,606.76 "/>
    <polygon class="fil3" points="406.46,740.03 413.62,740.03 413.62,606.76 406.46,606.76 "/>
    <polygon class="fil3" points="420.32,740.03 427.46,740.03 427.46,606.76 420.32,606.76 "/>
    <polygon class="fil3" points="434.17,740.03 441.32,740.03 441.32,606.76 434.17,606.76 "/>
    <polygon class="fil3" points="448.02,740.03 455.18,740.03 455.18,606.76 448.02,606.76 "/>
    <polygon class="fil3" points="461.87,740.03 469.03,740.03 469.03,606.76 461.87,606.76 "/>
    <polygon class="fil3" points="475.73,740.03 482.88,740.03 482.88,606.76 475.73,606.76 "/>
    <polygon class="fil3" points="489.58,740.03 496.73,740.03 496.73,606.76 489.58,606.76 "/>
    <polygon class="fil3" points="503.43,740.03 510.59,740.03 510.59,606.76 503.43,606.76 "/>
    <polygon class="fil3" points="517.29,740.03 524.44,740.03 524.44,606.76 517.29,606.76 "/>
    <polygon class="fil3" points="531.14,740.03 538.29,740.03 538.29,606.76 531.14,606.76 "/>
    <polygon class="fil3" points="545,740.03 552.14,740.03 552.14,606.76 545,606.76 "/>
    <polygon class="fil3" points="558.85,740.03 566,740.03 566,606.76 558.85,606.76 "/>
    <polygon class="fil3" points="572.7,740.03 579.85,740.03 579.85,606.76 572.7,606.76 "/>
    <polygon class="fil3" points="586.56,740.03 593.71,740.03 593.71,606.76 586.56,606.76 "/>
    <polygon class="fil3" points="600.41,740.03 607.56,740.03 607.56,606.76 600.41,606.76 "/>
    <polygon class="fil3" points="614.26,740.03 621.41,740.03 621.41,606.76 614.26,606.76 "/>
    <path class="fil0" d="M520.83 724.51l318.98 0 -13.67 27.44c-59.47,21.36 -147.23,91.1 -190.87,161.95l-547.31 0 -87.97 -142.04 0 -23.38 504.02 0c9.25,0 16.81,-7.57 16.81,-16.82l0 -7.15z"/>
    <path class="fil1" d="M671.54 865.73c-13.82,15.62 -26.22,31.87 -36.26,48.17l-547.31 0 -29.84 -48.17 613.4 0z"/>
    <path class="fil2" d="M703.01 755.57c4.92,0 7.69,5.05 6.2,11.27 -1.51,6.23 -6.73,11.28 -11.66,11.28 -4.93,0 -7.7,-5.04 -6.2,-11.28 1.51,-6.21 6.72,-11.27 11.66,-11.27z"/>
    <polygon class="fil1" points="77.94,748.48 219.12,748.48 219.12,557.62 77.94,557.62 "/>
    <polygon class="fil4" points="308.48,748.48 155.65,748.48 155.65,600.37 219.12,600.37 219.12,525.24 308.48,525.24 "/>
    <polygon class="fil5" points="237.25,573.88 308.48,573.88 308.48,549.85 237.25,549.85 "/>
    <polygon class="fil6" points="181.67,633.42 191.22,633.42 191.22,620.04 181.67,620.04 "/>
    <polygon class="fil6" points="181.67,662.72 191.22,662.72 191.22,649.35 181.67,649.35 "/>
    <polygon class="fil6" points="181.67,692.03 191.22,692.03 191.22,678.63 181.67,678.63 "/>
    <polygon class="fil6" points="208.41,633.42 217.97,633.42 217.97,620.04 208.41,620.04 "/>
    <polygon class="fil6" points="208.41,662.72 217.97,662.72 217.97,649.35 208.41,649.35 "/>
    <polygon class="fil6" points="208.41,692.03 217.97,692.03 217.97,678.63 208.41,678.63 "/>
    <polygon class="fil6" points="235.16,633.42 244.72,633.42 244.72,620.04 235.16,620.04 "/>
    <polygon class="fil6" points="235.16,662.72 244.72,662.72 244.72,649.35 235.16,649.35 "/>
    <polygon class="fil6" points="235.16,692.03 244.72,692.03 244.72,678.63 235.16,678.63 "/>
    <polygon class="fil6" points="261.91,633.42 271.47,633.42 271.47,620.04 261.91,620.04 "/>
    <polygon class="fil6" points="261.91,662.72 271.47,662.72 271.47,649.35 261.91,649.35 "/>
    <polygon class="fil6" points="261.91,692.03 271.47,692.03 271.47,678.63 261.91,678.63 "/>
    <path class="fil5" d="M174.14 812.49c8.48,0 15.39,-6.91 15.39,-15.39 0,-8.46 -6.92,-15.39 -15.39,-15.39 -8.48,0 -15.39,6.93 -15.39,15.39 0,8.48 6.91,15.39 15.39,15.39z"/>
    <path class="fil5" d="M238.22 812.49c8.48,0 15.39,-6.91 15.39,-15.39 0,-8.46 -6.91,-15.39 -15.39,-15.39 -8.48,0 -15.4,6.93 -15.4,15.39 0,8.48 6.92,15.39 15.4,15.39z"/>
    <path class="fil5" d="M302.28 812.49c8.48,0 15.4,-6.91 15.4,-15.39 0,-8.46 -6.92,-15.39 -15.4,-15.39 -8.47,0 -15.39,6.93 -15.39,15.39 0,8.48 6.92,15.39 15.39,15.39z"/>
    <path class="fil5" d="M366.37 812.49c8.47,0 15.39,-6.91 15.39,-15.39 0,-8.46 -6.92,-15.39 -15.39,-15.39 -8.49,0 -15.4,6.93 -15.4,15.39 0,8.48 6.91,15.39 15.4,15.39z"/>
    <path class="fil5" d="M430.44 812.49c8.48,0 15.39,-6.91 15.39,-15.39 0,-8.46 -6.92,-15.39 -15.39,-15.39 -8.48,0 -15.39,6.93 -15.39,15.39 0,8.48 6.91,15.39 15.39,15.39z"/>
    <path class="fil5" d="M494.51 812.49c8.48,0 15.4,-6.91 15.4,-15.39 0,-8.46 -6.92,-15.39 -15.4,-15.39 -8.47,0 -15.39,6.93 -15.39,15.39 0,8.48 6.92,15.39 15.39,15.39z"/>
    <path class="fil5" d="M558.59 812.49c8.47,0 15.39,-6.91 15.39,-15.39 0,-8.46 -6.91,-15.39 -15.39,-15.39 -8.49,0 -15.4,6.93 -15.4,15.39 0,8.48 6.91,15.39 15.4,15.39z"/>
   </g>
   <g>
    <path class="fil7" d="M296.5 147.93l438.83 -12.18c74.23,-2.08 166.75,0.42 228.32,24.72 49.25,19.46 94.38,63.98 145.61,88.65 57.95,23.76 54.19,59.82 13.84,88.25 -73.66,51.9 -203.04,48.5 -304.59,46.92 -102.22,-1.59 -204.63,1.54 -306.68,-4.78 -136.76,-8.47 -296.49,-56.17 -394.03,-144.13l-84.24 -234.05 70.54 -1.29c57.8,-1.05 73.92,20.1 86.34,33.5l106.04 114.39z"/>
    <path class="fil8" d="M387.68 266.28c17.69,0 32.12,-14.42 32.12,-32.12 0,-17.68 -14.42,-32.11 -32.12,-32.11 -17.68,0 -32.11,14.43 -32.11,32.11 0,17.7 14.43,32.12 32.11,32.12z"/>
    <path class="fil8" d="M852.17 266.28c17.7,0 32.12,-14.42 32.12,-32.12 0,-17.68 -14.42,-32.11 -32.12,-32.11 -17.68,0 -32.11,14.43 -32.11,32.11 0,17.7 14.43,32.12 32.11,32.12z"/>
    <path class="fil1" d="M68.11 97.3l-25.33 -70.37 141.57 0c2.21,2.32 4.21,4.53 6.11,6.61l59.1 63.76 -181.45 0z"/>
    <path class="fil8" d="M1107.88 248.43l-8.94 -0.2 -174.83 -3.88 -2.06 -0.05 -1.27 -1.59 -49.62 -62.38 -5.12 -6.43 8.22 -0.61 101.43 -7.54c44.22,21.16 85.73,59.96 132.18,82.68z"/>
    <path class="fil5" d="M983.27 169.56c38.6,20.26 75.46,52.67 115.76,74.34l-174.84 -3.88 -49.62 -62.38 108.69 -8.07z"/>
    <path class="fil9" d="M983.27 169.56c7.8,4.1 15.53,8.69 23.24,13.6 -43.55,-6.88 -108.24,-6.99 -90.09,47.09l-41.84 -52.61 108.69 -8.07z"/>
    <path class="fil5" d="M387.68 261.63c15.13,0 27.46,-12.34 27.46,-27.47 0,-15.11 -12.33,-27.44 -27.46,-27.44 -15.11,0 -27.45,12.33 -27.45,27.44 0,15.13 12.34,27.47 27.45,27.47z"/>
    <path class="fil9" d="M387.68 206.72c10.4,0 19.42,5.76 24.08,14.26 -4.78,-2.88 -10.37,-4.52 -16.36,-4.52 -17.28,0 -31.34,13.81 -31.74,31 -2.19,-3.94 -3.44,-8.47 -3.44,-13.3 0,-15.15 12.29,-27.44 27.45,-27.44z"/>
    <path class="fil5" d="M852.19 261.63c15.12,0 27.45,-12.34 27.45,-27.47 0,-15.11 -12.34,-27.44 -27.45,-27.44 -15.12,0 -27.46,12.33 -27.46,27.44 0,15.13 12.34,27.47 27.46,27.47z"/>
    <path class="fil9" d="M852.19 206.72c10.38,0 19.42,5.76 24.08,14.26 -4.79,-2.88 -10.38,-4.52 -16.37,-4.52 -17.28,0 -31.35,13.81 -31.73,31 -2.19,-3.94 -3.45,-8.47 -3.45,-13.3 0,-15.15 12.3,-27.44 27.46,-27.44z"/>
    <path class="fil10" d="M275.26 328.14c116.56,24.68 242.49,32.52 404.99,30.59 308.01,-3.65 382.03,-13.63 463.82,-40.92 -5.05,6.75 -12.14,13.34 -20.97,19.56 -73.66,51.9 -203.04,48.5 -304.59,46.92 -102.22,-1.59 -204.63,1.54 -306.68,-4.78 -76.64,-4.75 -160.5,-21.82 -236.58,-51.38z"/>
    <path class="fil8" d="M160.35 176.3c67.41,-12.65 148.35,-17.57 229.73,-22.24 -14.08,5.93 -21.49,13.35 -42.24,17.8 -62.49,1.46 -124.99,2.95 -187.49,4.44z"/>
    <path class="fil8" d="M1007.04 262.07c34.44,-1.39 68.7,-2.05 102.29,0 16.71,4.46 23.16,12.66 30.24,20.63 -40.34,-18.43 -86.87,-18.27 -132.53,-20.63z"/>
    <path class="fil11" d="M508.01 158.16c101.97,-7.88 132.27,-4.45 232.09,-9.07 22.24,-1.03 40.87,16.82 43.19,29.26 1.39,7.46 -75.2,77.65 -95.26,91.6l-0.08 0 0.01 0.03c-27.25,10.64 -263.6,-4.24 -271.16,-7.98 -0.03,-0.78 0.25,-1.56 0.83,-2.29 7.98,-14.91 77.34,-91.37 79.45,-95.65 1.35,-2.7 4.89,-5.04 10.92,-5.91z"/>
    <path class="fil12" d="M776.25 188.93c12.05,1.59 24.11,3.62 36.17,6.09l0 91.45c-66.3,13.95 -134.16,16.19 -203.11,-0.7l0 -12.24c38.38,0.68 69.72,-0.05 78.65,-3.54l-0.01 -0.03 0.08 0c12.5,-8.69 46.91,-39.19 70.76,-62.76 -2.19,-7.36 -15.04,-9.85 -91.49,-15.82 31.36,-5.21 73.56,-8.02 108.9,-2.39l0.04 -0.05z"/>
    <path class="fil13" d="M802.5 288.46c-63.15,12.14 -127.67,13.35 -193.18,-2.7l0 -12.24c38.38,0.69 69.72,-0.05 78.65,-3.54l-0.01 -0.03 0.08 0c1.03,-0.71 2.19,-1.57 3.49,-2.56l110.97 0 0 21.07z"/>
    <path class="fil0" d="M784.42 190.07c9.33,1.38 18.67,3.03 28.01,4.95l0 91.45c-9.31,1.96 -18.64,3.69 -28.01,5.15l0 -101.55z"/>
    <path class="fil1" d="M812.43 267.34l0 19.13c-9.31,1.96 -18.64,3.69 -28.01,5.15l0 -24.28 28.01 0z"/>
    <path class="fil8" d="M426.46 255.91c83.61,-12.02 130.14,-15.78 213.77,-15.07 22.73,0.19 46.55,18.48 47.74,29.15 -27.25,10.64 -263.6,-4.24 -271.16,-7.98 -0.09,-2.48 2.98,-5.14 9.66,-6.1z"/>
   </g>
   <g>
    <path class="fil14" d="M1235.59 823.22l445.62 0 28.93 -4.94 0.12 -98.25c0,-4.28 -4.76,-9.09 -9.03,-9.09l-465.64 0 0 112.29z"/>
    <polygon class="fil15" points="905.29,715.86 932.56,691.15 938.52,823.22 925.23,826.18 915.09,823.22 905.62,796.48 "/>
    <path class="fil0" d="M1235.73 455.26l-139.75 -13.34c-15.69,-1.5 -30.04,1.38 -47.21,15.62 -55.06,45.67 -141.92,144.2 -133.33,292.83l2.63 53.12 122 0 195.51 -5.84 0.14 -342.39z"/>
    <path class="fil1" d="M925.17 647.29c-5.72,22.35 -9.36,46.38 -10.14,72.05l0.02 0.09 245.04 -97.08 19.18 -50.22 -234.28 83 -19.74 -7.91 -0.08 0.06z"/>
    <path class="fil5" d="M944.99 655.14c14.37,-68.99 59.45,-143.15 120.38,-187.93 4.63,-4.92 17.16,-11.71 30.54,-10.17l122.01 11.65 -1.18 90.5 -0.27 0.1 -28.22 -6.39 -8.98 19.23 -234.28 83z"/>
    <path class="fil9" d="M1012.86 517.34c15.61,-18.9 33.27,-35.96 52.51,-50.12 4.63,-4.92 17.16,-11.71 30.54,-10.17l122.01 11.65 -0.88 67.4c-18.54,-44.95 -115.35,-40.73 -204.18,-18.76z"/>
    <path class="fil6" d="M1561.96 710.94l35.68 0.39 -0.05 0.41c18.39,0.44 36.61,2.77 54.63,6.12 8.75,1.64 16.9,7.12 23.41,13.41 24.19,23.43 33.13,52.26 34.52,84.66 0.04,0.79 0.06,1.57 0.1,2.34 0.07,2.31 -11.54,3.82 -29.63,4.76l-204.22 0.2 -551.63 0 -6.68 -19.74 97 0 21.31 -60.12c3.02,-8.53 9.3,-17.21 17.35,-20.11l172.76 -62.28c4.99,-1.62 9.1,0.04 9.1,6.64l0 15.82c0,19.62 0,42.63 0,63.66l0 23.25 188.92 -12.91c39.96,-29.5 71.74,-46.49 137.44,-46.49z"/>
    <path class="fil16" d="M1548.49 734.3c31.74,-7.79 63.15,-5.61 93.82,0.17 7.26,1.38 13.99,5.99 19.37,11.31 21.31,21 28.34,47.1 28.73,76.56 -2.76,0.89 -7.63,0.89 -9.33,0.89l-185.12 0c-0.27,-25.24 8.91,-56.96 27.48,-75.53 8.79,-8.78 16.15,-11.22 25.05,-13.39z"/>
    <path class="fil14" d="M1594.63 917.64c47.81,0 86.79,-38.97 86.79,-86.76 0,-47.8 -38.98,-86.77 -86.79,-86.77 -47.77,0 -86.76,38.97 -86.76,86.77 0,47.79 38.99,86.76 86.76,86.76z"/>
    <path class="fil4" d="M1594.63 880.72c27.48,0 49.85,-22.38 49.85,-49.84 0.02,-27.46 -22.37,-49.86 -49.85,-49.86 -27.44,0 -49.84,22.39 -49.84,49.86 0,27.46 22.39,49.84 49.84,49.84z"/>
    <polygon class="fil17" points="1296.89,680.25 1751.03,680.25 1751.23,382.09 1296.89,382.09 "/>
    <polygon class="fil1" points="1235.59,607.25 1235.73,607.25 1235.73,410.39 1254.3,410.39 1254.3,607.25 1805.32,607.25 1805.32,710.91 1235.59,710.91 "/>
    <path class="fil16" d="M1028.87 823.22l206.57 0c2.1,-40.09 -12.23,-77.11 -30.1,-105.86 -7.73,-12.42 -18.36,-18.91 -31.98,-18.29l-107.35 38.51c-6.59,2.36 -11.66,9.91 -14.13,17.22l-23 68.42z"/>
    <path class="fil14" d="M1137.52 913.41c47.79,0 86.77,-38.98 86.77,-86.77 0,-47.79 -38.98,-86.76 -86.77,-86.76 -47.79,0 -86.77,38.97 -86.77,86.76 0,47.79 38.98,86.77 86.77,86.77z"/>
    <path class="fil4" d="M1137.52 876.49c27.46,0 49.85,-22.4 49.85,-49.86 0,-27.46 -22.39,-49.86 -49.85,-49.86 -27.46,0 -49.86,22.4 -49.86,49.86 0,27.45 22.39,49.86 49.86,49.86z"/>
   </g>
  </g>
 </g>
</svg>
