<?xml version="1.0" encoding="UTF-8"?><svg id="Camada_2" xmlns="http://www.w3.org/2000/svg" viewBox="0 0 223.64 233.75"><defs><style>.cls-1,.cls-2{fill:#094561;}.cls-1,.cls-3{fill-rule:evenodd;}.cls-4{fill:gray;}.cls-3,.cls-5{fill:#f59b2c;}</style></defs><g id="Camada_1-2"><g id="_2019227947136"><g><path class="cls-2" d="M162.04,23.94c4.06,53.7-53.91,91.23-101.2,64.96,47.81,35.81,143.57-9.11,101.2-64.96Z"/><path class="cls-2" d="M60.84,88.89c13.12,14.08,31.98,23.41,52.74,23.41,28.06,0,56.62-14.92,60.06-44.91-24.19,38.5-76.17,47.97-112.8,21.51Z"/><path class="cls-2" d="M60.84,88.89c16.29,28.39,52.92,40.15,81.55,24.78-33.62,9.36-60.72-2.64-81.55-24.78Z"/><path class="cls-2" d="M107.6,12.25c3.53,0,6.97,.36,10.3,1.01-6.87-4.73-14.64-8.25-23.01-10.22C62.14,13.89,45.28,49.94,57.38,81.83c-1.74-5.24-2.68-10.85-2.68-16.67,0-29.22,23.69-52.91,52.91-52.91h0Z"/><path class="cls-5" d="M158.66,19.88c-5.47-6.05-12.16-10.97-19.67-14.42,4.85,7.98,7.95,16.79,9.25,25.84,3.63,4.36,6.58,9.3,8.68,14.68,2.27-8.56,2.83-17.43,1.74-26.1ZM113.95,0h0s-.05,0-.07,0c-4.01,0-7.93,.4-11.73,1.14,1.86,.82,3.71,1.71,5.53,2.68,5.76,3.07,11,6.71,15.71,10.83,2.02,.63,3.98,1.38,5.88,2.24C125.22,10.54,120.08,4.81,113.95,0h0Zm4.46,.17h0c6.08,5.44,11.09,11.81,14.92,18.75,4.19,2.34,8.03,5.22,11.42,8.57-1.86-8.5-5.32-16.62-10.24-23.88-5.09-1.85-10.49-3.03-16.1-3.45h0Z"/><polygon class="cls-3" points="85.01 85.15 94.35 41.19 76.55 41.19 79.61 27.06 134.61 27.06 131.54 41.19 113.71 41.19 104.36 85.15 85.01 85.15"/><polygon class="cls-1" points="82.19 98.53 84.2 89.47 103.56 89.47 101.54 98.53 82.19 98.53"/></g><path class="cls-2" d="M7.34,182.53l8.38-39.48H3.47l2.1-9.73H43.44l-2.12,9.73h-12.28l-8.38,39.48H7.34Zm52.08-39.9l-2.24,11.14h4.44c6.77,0,10.15-2.02,10.15-6.06,0-3.31-2.02-5.01-6.06-5.08h-6.29Zm-21.29,39.9l10.39-49.21h15.71c3.09,.02,5.73,.14,7.93,.34,2.21,.21,4.28,.71,6.22,1.48,1.94,.79,3.51,2.04,4.71,3.77,1.2,1.73,1.8,4.05,1.8,6.96,0,3.99-1.3,6.97-3.91,8.91-2.61,1.94-6.07,3.17-10.39,3.7v.14c1.68,.15,2.95,1.05,3.81,2.71,.85,1.66,1.53,3.67,2.04,6.03l3.51,15.17h-13.1l-2.55-12.55c-.47-2.35-.9-3.95-1.29-4.81-.39-.86-1.01-1.43-1.87-1.7-.86-.27-2.34-.4-4.44-.4h-1.42l-3.96,19.46h-13.18Zm99.91-49.21l-4.78,22.91c-.95,4.61-1.94,8.45-2.96,11.5-1.01,3.05-2.41,5.78-4.18,8.15-1.77,2.37-4.11,4.22-7.01,5.52-2.9,1.3-6.5,1.96-10.81,1.96-3.9,0-7.32-.51-10.26-1.53-2.94-1.01-5.25-2.68-6.94-4.99-1.69-2.33-2.54-5.31-2.54-8.99,0-2.94,.35-6.04,1.05-9.31l5.58-25.24h13.32l-5.92,27.85c-.61,2.83-.92,4.62-.92,5.36,0,2.08,.6,3.8,1.81,5.12,1.2,1.33,2.93,2,5.16,2,2,0,3.67-.53,5.01-1.6,1.34-1.06,2.4-2.44,3.17-4.17,.79-1.72,1.35-3.34,1.7-4.86,.36-1.53,.9-4.01,1.62-7.43l4.88-22.27h13.03Zm41.24,1.34l-3.16,9.8c-3.21-1.5-6.83-2.26-10.87-2.26-3.01,0-5.33,.33-6.98,1-1.64,.67-2.47,1.92-2.47,3.74,0,1.48,1.14,2.76,3.42,3.85,2.28,1.09,4.61,2.15,6.98,3.17,2.37,1.01,4.42,2.47,6.13,4.37,1.72,1.89,2.57,4.52,2.57,7.91,0,4.25-1.14,7.65-3.43,10.2-2.29,2.56-5.24,4.35-8.85,5.38-3.62,1.03-7.53,1.55-11.75,1.55-2.41,0-4.97-.24-7.66-.72-2.7-.47-5.23-1.08-7.58-1.81l3.1-10.02c1.28,.82,3.09,1.5,5.42,2.03,2.33,.53,4.57,.79,6.71,.79,2.8,0,5.24-.41,7.34-1.25,2.1-.83,3.16-2.37,3.16-4.61,0-1.73-.63-2.95-1.89-3.69-1.27-.74-3.6-1.82-7-3.23s-5.97-2.97-7.66-4.68c-1.7-1.72-2.55-4.12-2.55-7.24,0-5.84,2.1-10.05,6.3-12.62,4.2-2.57,9.4-3.87,15.64-3.87,6.94,0,11.96,.73,15.08,2.19h0Zm8.26,47.87l8.38-39.48h-12.26l2.1-9.73h37.87l-2.12,9.73h-12.28l-8.38,39.48h-13.32Z"/><path class="cls-5" d="M20.99,212.39h-2.47l-2.73-6.53H5.21l-2.85,6.53H0l9.8-21.72h1.86l9.33,21.72h0Zm-5.92-8.24l-4.46-10.68-4.62,10.68H15.07Zm24.03,8.24h-15.58v-21.72h2.3v19.83h13.29v1.89Zm18.8,0h-15.58v-21.72h2.3v19.83h13.29v1.89Zm30.73,0h-2.47l-2.73-6.53h-10.58l-2.85,6.53h-2.36l9.8-21.72h1.86l9.33,21.72h0Zm-5.92-8.24l-4.46-10.68-4.62,10.68h9.08Zm26.27,8.24h-2.91l-7.64-9.64h-5.48v9.64h-2.3v-21.72h10.65c2.12,0,3.82,.52,5.08,1.58,1.3,1.08,1.95,2.57,1.95,4.45s-.65,3.39-1.97,4.44c-1.26,1.01-2.96,1.51-5.1,1.51l7.71,9.73h0Zm-2.94-15.69c0-2.76-1.86-4.14-5.58-4.14h-7.5v8.3h7.14c3.96,0,5.94-1.39,5.94-4.16h0Zm25.38,4.83c0,3.16-.83,5.78-2.51,7.86-1.88,2.36-4.52,3.54-7.9,3.54s-5.98-1.18-7.87-3.54c-1.7-2.09-2.54-4.72-2.54-7.86s.83-5.78,2.51-7.86c1.88-2.36,4.52-3.54,7.91-3.54s5.98,1.18,7.87,3.54c1.7,2.09,2.54,4.72,2.54,7.86Zm-2.3,0c0-2.54-.63-4.69-1.88-6.44-1.49-2.05-3.56-3.08-6.22-3.08s-4.72,1.02-6.19,3.06c-1.29,1.77-1.93,3.93-1.93,6.46s.63,4.69,1.9,6.44c1.49,2.05,3.56,3.08,6.23,3.08s4.71-1.02,6.19-3.06c1.28-1.77,1.92-3.93,1.92-6.46h0Zm23.91,3.81c0,2.46-.8,4.35-2.41,5.67-1.54,1.28-3.69,1.92-6.45,1.92s-4.88-.64-6.43-1.92c-1.62-1.34-2.42-3.23-2.42-5.67v-14.67h2.3v14.61c0,1.88,.57,3.31,1.72,4.29,1.14,.98,2.76,1.47,4.84,1.47,4.37,0,6.56-1.92,6.56-5.76v-14.61h2.3v14.67h0Zm23.49,7.05h-2.27l-13.83-18.24v18.24h-2.3v-21.72h2.27l13.83,18.25v-18.25h2.3v21.72Zm24.38-10.86c0,2.8-.71,5.18-2.13,7.14-1.8,2.48-4.48,3.72-8.02,3.72h-8.81v-21.72h9.46c3.33,0,5.84,1.21,7.51,3.63,1.33,1.93,1.99,4.34,1.99,7.22h0Zm-2.3,0c0-2.37-.55-4.37-1.63-5.97-1.33-2-3.28-2.99-5.87-2.99h-6.86v17.94h6.38c2.76,0,4.83-.95,6.22-2.83,1.18-1.6,1.76-3.64,1.76-6.14h0Z"/><path class="cls-4" d="M10.44,230.09v-1.81h-3.36v-1.42h4.9v3.71c-.6,1.03-1.37,1.81-2.33,2.36-.96,.55-2.04,.82-3.26,.82-1.85,0-3.37-.61-4.58-1.83-1.2-1.22-1.8-2.76-1.8-4.63s.6-3.43,1.81-4.64c1.21-1.22,2.73-1.83,4.57-1.83,1.14,0,2.18,.25,3.12,.75,.94,.5,1.7,1.21,2.29,2.14l-1.28,.92c-.39-.74-.95-1.32-1.68-1.73-.73-.42-1.54-.63-2.45-.63-1.38,0-2.53,.48-3.44,1.43-.91,.95-1.36,2.15-1.36,3.6s.45,2.65,1.36,3.6,2.06,1.42,3.44,1.42c.87,0,1.63-.19,2.31-.56,.67-.37,1.25-.93,1.75-1.66h0Zm4.47,3.34v-9.54h8.95v1.4h-7.46v2.38h4.9v1.37h-4.9v3.02h7.87v1.37H14.91Zm10.66-1.22l.72-1.25c.66,.44,1.37,.78,2.15,1.03,.78,.25,1.52,.37,2.23,.37,.85,0,1.54-.17,2.06-.52,.52-.35,.78-.79,.78-1.33s-.24-.95-.72-1.21c-.48-.26-1.23-.41-2.26-.44-1.74-.02-2.93-.22-3.58-.6-.65-.38-.97-1.01-.97-1.89,0-.82,.35-1.48,1.07-1.98,.71-.5,1.67-.75,2.87-.75,.82,0,1.61,.11,2.39,.35,.77,.23,1.51,.57,2.23,1.03l-.75,1.24c-.6-.4-1.24-.71-1.92-.93-.69-.22-1.34-.33-1.97-.33-.72,0-1.31,.13-1.75,.38-.44,.26-.66,.58-.66,.99s.22,.72,.66,.9c.44,.18,1.21,.27,2.31,.27,1.52,0,2.67,.26,3.44,.77s1.16,1.28,1.16,2.29c0,.9-.39,1.65-1.18,2.25-.79,.6-1.8,.89-3.06,.89-.93,0-1.84-.13-2.76-.4-.91-.26-1.75-.64-2.51-1.12h0Zm14.42,1.22v-8.22h-4.03v-1.33h9.54v1.33h-4.03v8.22h-1.49Zm8.63-3.68h3.73l-1.85-3.66-1.88,3.66Zm-3.46,3.68l4.86-9.54h.94l4.89,9.54h-1.6l-1.24-2.43h-5.04l-1.23,2.43h-1.58Zm8.58-13.98c-.19,.68-.47,1.19-.83,1.53-.35,.34-.79,.51-1.3,.51-.1,0-.21,0-.33-.03-.12-.02-.25-.05-.39-.08l-1.08-.35c-.12-.04-.22-.06-.31-.08-.08-.01-.18-.02-.28-.02-.22,0-.42,.07-.6,.21-.18,.14-.32,.34-.43,.59h-.89c.16-.66,.43-1.16,.8-1.51,.37-.35,.83-.53,1.37-.53,.12,0,.22,0,.32,.02,.1,.02,.19,.04,.27,.07l1.07,.35c.12,.04,.23,.08,.35,.1,.11,.02,.2,.03,.28,.03,.24,0,.44-.06,.61-.2,.17-.13,.32-.34,.46-.63h.92Zm8.54,12.88c1.27,0,2.32-.34,3.12-1.03,.8-.69,1.21-1.56,1.21-2.63s-.4-1.93-1.21-2.62c-.81-.69-1.85-1.04-3.11-1.04s-2.3,.34-3.1,1.03c-.8,.69-1.2,1.56-1.2,2.63s.4,1.94,1.2,2.63c.8,.69,1.83,1.03,3.1,1.03h0Zm0,1.4c-1.7,0-3.1-.48-4.19-1.44-1.09-.96-1.64-2.16-1.64-3.62s.55-2.66,1.64-3.61c1.09-.95,2.49-1.42,4.2-1.42s3.13,.47,4.22,1.42c1.09,.95,1.64,2.15,1.64,3.62s-.55,2.67-1.64,3.62-2.5,1.43-4.21,1.43h0Zm15.91-.3v-9.54h8.95v1.4h-7.46v2.38h4.9v1.37h-4.9v3.02h7.87v1.37h-9.36Zm11.49,0v-9.54h1.24l3.91,5.58,3.91-5.58h1.24v9.54h-1.49v-6.86l-3.67,5.31-3.66-5.31v6.86h-1.49Zm21.42,0v-12.34h1.53v10.92h8.06v1.42h-9.59Zm16.23-1.1c1.27,0,2.32-.34,3.12-1.03,.8-.69,1.21-1.56,1.21-2.63s-.4-1.93-1.21-2.62c-.81-.69-1.85-1.04-3.11-1.04s-2.3,.34-3.1,1.03c-.8,.69-1.2,1.56-1.2,2.63s.4,1.94,1.2,2.63c.8,.69,1.83,1.03,3.1,1.03h0Zm0,1.4c-1.7,0-3.1-.48-4.19-1.44-1.09-.96-1.64-2.16-1.64-3.62s.55-2.66,1.64-3.61c1.09-.95,2.49-1.42,4.2-1.42s3.13,.47,4.22,1.42c1.09,.95,1.64,2.15,1.64,3.62s-.55,2.67-1.64,3.62-2.5,1.43-4.21,1.43h0Zm14.76-4.01v-1.37h3.94v2.88c-.55,.82-1.27,1.44-2.16,1.86-.88,.42-1.91,.64-3.09,.64-1.76,0-3.2-.47-4.31-1.42-1.12-.95-1.68-2.16-1.68-3.61s.56-2.67,1.69-3.62,2.56-1.43,4.31-1.43c1.1,0,2.08,.19,2.93,.57,.85,.38,1.56,.94,2.13,1.67l-1.15,.82c-.4-.53-.95-.94-1.64-1.24-.69-.3-1.45-.45-2.28-.45-1.3,0-2.37,.35-3.21,1.04-.84,.69-1.25,1.57-1.25,2.62s.42,1.93,1.25,2.62c.83,.69,1.9,1.04,3.21,1.04,.82,0,1.58-.15,2.28-.45,.69-.3,1.18-.68,1.46-1.14v-1.03h-2.43Zm6.69,3.71v-9.57h1.51v9.57h-1.51Zm.41-11.03h-1.03l2.33-3.91h1.7l-3,3.91Zm3.57,9.81l.72-1.25c.66,.44,1.37,.78,2.15,1.03,.78,.25,1.52,.37,2.23,.37,.85,0,1.54-.17,2.06-.52,.52-.35,.78-.79,.78-1.33s-.24-.95-.72-1.21c-.48-.26-1.23-.41-2.26-.44-1.74-.02-2.93-.22-3.58-.6-.65-.38-.97-1.01-.97-1.89,0-.82,.35-1.48,1.07-1.98,.71-.5,1.67-.75,2.87-.75,.82,0,1.61,.11,2.39,.35,.77,.23,1.51,.57,2.23,1.03l-.75,1.24c-.6-.4-1.24-.71-1.92-.93-.69-.22-1.34-.33-1.97-.33-.72,0-1.31,.13-1.75,.38-.44,.26-.66,.58-.66,.99s.22,.72,.66,.9c.44,.18,1.21,.27,2.31,.27,1.52,0,2.67,.26,3.44,.77s1.16,1.28,1.16,2.29c0,.9-.39,1.65-1.18,2.25-.79,.6-1.8,.89-3.06,.89-.93,0-1.84-.13-2.76-.4-.91-.26-1.75-.64-2.51-1.12h0Zm14.42,1.22v-8.22h-4.03v-1.33h9.54v1.33h-4.03v8.22h-1.49Zm7.02,0v-9.57h1.51v9.57h-1.51Zm14.9-2.33c-.54,.85-1.26,1.51-2.14,1.96-.88,.45-1.89,.68-3.01,.68-1.67,0-3.06-.47-4.14-1.42-1.08-.95-1.62-2.16-1.62-3.61s.54-2.67,1.62-3.62c1.09-.96,2.47-1.43,4.14-1.43,1.05,0,1.99,.19,2.84,.59,.85,.39,1.53,.94,2.06,1.66l-1.19,.82c-.39-.54-.91-.96-1.56-1.25-.64-.29-1.36-.44-2.15-.44-1.22,0-2.24,.35-3.04,1.05-.8,.69-1.2,1.57-1.2,2.62s.4,1.92,1.21,2.62c.8,.7,1.82,1.05,3.03,1.05,.85,0,1.6-.17,2.25-.5,.65-.34,1.22-.85,1.71-1.56l1.19,.82h0Zm4.56-1.35h3.73l-1.85-3.66-1.88,3.66Zm-3.46,3.68l4.86-9.54h.94l4.89,9.54h-1.6l-1.24-2.43h-5.04l-1.23,2.43h-1.58Z"/></g></g></svg>