<?xml version="1.0" encoding="UTF-8"?>
<!DOCTYPE svg PUBLIC "-//W3C//DTD SVG 1.1//EN" "http://www.w3.org/Graphics/SVG/1.1/DTD/svg11.dtd">
<!-- Creator: CorelDRAW Standard 2021 (64 Bit) -->
<svg xmlns="http://www.w3.org/2000/svg" xml:space="preserve" width="207.544mm" height="200.38mm" version="1.1" style="shape-rendering:geometricPrecision; text-rendering:geometricPrecision; image-rendering:optimizeQuality; fill-rule:evenodd; clip-rule:evenodd"
viewBox="0 0 450.3 434.76"
 xmlns:xlink="http://www.w3.org/1999/xlink"
 xmlns:xodm="http://www.corel.com/coreldraw/odm/2003">
 <defs>
  <style type="text/css">
   <![CDATA[
    .fil0 {fill:#094561}
    .fil1 {fill:#F59B2C}
    .fil2 {fill:#094561;fill-rule:nonzero}
   ]]>
  </style>
 </defs>
 <g id="Camada_x0020_1">
  <metadata id="CorelCorpID_0Corel-Layer"/>
  <g id="_2611677245280">
   <path class="fil0" d="M7.94 373.32l17.13 -80.74 -25.06 0 4.3 -19.9 77.45 0 -4.33 19.9 -25.11 0 -17.13 80.74 -27.25 0zm106.51 -81.61l-4.59 22.78 9.08 0c13.84,0 20.76,-4.13 20.76,-12.4 0,-6.78 -4.13,-10.24 -12.4,-10.38l-12.86 0zm-43.54 81.61l21.24 -100.64 32.13 0c6.32,0.05 11.73,0.29 16.22,0.7 4.52,0.43 8.75,1.44 12.71,3.03 3.97,1.61 7.19,4.18 9.64,7.71 2.45,3.53 3.68,8.29 3.68,14.23 0,8.17 -2.67,14.25 -8,18.22 -5.34,3.97 -12.42,6.49 -21.24,7.57l0 0.29c3.44,0.31 6.03,2.14 7.79,5.55 1.73,3.39 3.12,7.5 4.18,12.33l7.19 31.02 -26.79 0 -5.21 -25.67c-0.96,-4.81 -1.85,-8.07 -2.64,-9.83 -0.79,-1.75 -2.07,-2.93 -3.82,-3.48 -1.75,-0.55 -4.78,-0.82 -9.08,-0.82l-2.91 0 -8.1 39.8 -26.96 0zm204.34 -100.64l-9.78 46.86c-1.95,9.42 -3.97,17.28 -6.06,23.53 -2.07,6.25 -4.93,11.82 -8.56,16.68 -3.63,4.85 -8.41,8.63 -14.35,11.3 -5.94,2.67 -13.29,4.01 -22.11,4.01 -7.98,0 -14.97,-1.03 -20.98,-3.12 -6.01,-2.07 -10.74,-5.48 -14.2,-10.21 -3.46,-4.76 -5.19,-10.86 -5.19,-18.38 0,-6.01 0.72,-12.35 2.14,-19.03l11.41 -51.62 27.25 0 -12.11 56.95c-1.25,5.79 -1.87,9.44 -1.87,10.96 0,4.25 1.23,7.76 3.7,10.48 2.45,2.72 5.98,4.09 10.55,4.09 4.09,0 7.5,-1.08 10.24,-3.27 2.74,-2.16 4.9,-5 6.49,-8.53 1.61,-3.51 2.76,-6.82 3.48,-9.95 0.75,-3.12 1.85,-8.19 3.32,-15.19l9.97 -45.54 26.65 0zm84.35 2.74l-6.46 20.04c-6.56,-3.08 -13.96,-4.61 -22.23,-4.61 -6.15,0 -10.91,0.67 -14.27,2.04 -3.36,1.37 -5.05,3.92 -5.05,7.64 0,3.03 2.33,5.65 6.99,7.88 4.66,2.23 9.42,4.4 14.27,6.49 4.85,2.07 9.04,5.05 12.54,8.94 3.51,3.87 5.26,9.25 5.26,16.17 0,8.7 -2.33,15.64 -7.02,20.86 -4.69,5.24 -10.72,8.89 -18.1,11.01 -7.4,2.11 -15.4,3.17 -24.03,3.17 -4.93,0 -10.17,-0.48 -15.67,-1.47 -5.53,-0.96 -10.69,-2.21 -15.5,-3.7l6.34 -20.5c2.62,1.68 6.32,3.08 11.08,4.16 4.76,1.08 9.35,1.61 13.72,1.61 5.72,0 10.72,-0.84 15.02,-2.55 4.3,-1.71 6.46,-4.85 6.46,-9.42 0,-3.53 -1.3,-6.03 -3.87,-7.55 -2.6,-1.51 -7.35,-3.73 -14.32,-6.61 -6.97,-2.88 -12.21,-6.08 -15.67,-9.56 -3.48,-3.51 -5.21,-8.43 -5.21,-14.8 0,-11.94 4.3,-20.55 12.88,-25.81 8.58,-5.26 19.23,-7.91 31.99,-7.91 14.2,0 24.46,1.49 30.83,4.47zm16.89 97.9l17.13 -80.74 -25.06 0 4.3 -19.9 77.45 0 -4.33 19.9 -25.11 0 -17.13 80.74 -27.25 0z"/>
   <path class="fil1" d="M42.19 433.66l-4.97 0 -5.49 -13.12 -21.27 0 -5.72 13.12 -4.74 0 19.7 -43.65 3.74 0 18.75 43.65zm-11.9 -16.55l-8.97 -21.47 -9.29 21.47 18.25 0zm48.31 16.55l-31.32 0 0 -43.65 4.62 0 0 39.85 26.7 0 0 3.8zm37.79 0l-31.32 0 0 -43.65 4.62 0 0 39.85 26.7 0 0 3.8zm61.76 0l-4.97 0 -5.49 -13.12 -21.27 0 -5.72 13.12 -4.74 0 19.7 -43.65 3.74 0 18.75 43.65zm-11.9 -16.55l-8.97 -21.47 -9.29 21.47 18.25 0zm52.79 16.55l-5.84 0 -15.36 -19.37 -11.01 0 0 19.37 -4.62 0 0 -43.65 21.4 0c4.27,0 7.68,1.05 10.21,3.17 2.62,2.18 3.92,5.16 3.92,8.95 0,3.83 -1.31,6.82 -3.95,8.93 -2.54,2.03 -5.96,3.04 -10.25,3.04l15.49 19.56zm-5.91 -31.53c0,-5.55 -3.74,-8.32 -11.21,-8.32l-15.08 0 0 16.68 14.36 0c7.96,0 11.94,-2.79 11.94,-8.36zm51.02 9.71c0,6.35 -1.68,11.62 -5.04,15.81 -3.78,4.75 -9.08,7.12 -15.89,7.12 -6.74,0 -12.02,-2.37 -15.82,-7.12 -3.41,-4.21 -5.11,-9.48 -5.11,-15.81 0,-6.35 1.68,-11.62 5.04,-15.81 3.78,-4.75 9.08,-7.12 15.89,-7.12 6.75,0 12.01,2.37 15.82,7.12 3.41,4.21 5.11,9.48 5.11,15.81zm-4.62 0c0,-5.11 -1.26,-9.42 -3.78,-12.94 -2.99,-4.13 -7.16,-6.19 -12.5,-6.19 -5.33,0 -9.48,2.04 -12.45,6.14 -2.59,3.57 -3.88,7.9 -3.88,12.99 0,5.11 1.27,9.42 3.82,12.94 2.99,4.13 7.16,6.19 12.51,6.19 5.32,0 9.47,-2.04 12.43,-6.14 2.57,-3.57 3.85,-7.9 3.85,-12.99zm48.05 7.66c0,4.95 -1.61,8.75 -4.84,11.4 -3.1,2.57 -7.42,3.86 -12.97,3.86 -5.5,0 -9.81,-1.29 -12.93,-3.86 -3.25,-2.7 -4.87,-6.5 -4.87,-11.4l0 -29.49 4.62 0 0 29.37c0,3.77 1.15,6.65 3.45,8.62 2.3,1.97 5.55,2.96 9.73,2.96 8.79,0 13.18,-3.86 13.18,-11.59l0 -29.37 4.62 0 0 29.49zm47.22 14.16l-4.55 0 -27.79 -36.67 0 36.67 -4.62 0 0 -43.65 4.55 0 27.79 36.67 0 -36.67 4.62 0 0 43.65zm49 -21.83c0,5.63 -1.43,10.41 -4.28,14.35 -3.62,4.99 -9,7.48 -16.13,7.48l-17.71 0 0 -43.65 19.01 0c6.69,0 11.73,2.43 15.1,7.31 2.67,3.87 4.01,8.72 4.01,14.52zm-4.62 0c0,-4.77 -1.1,-8.78 -3.28,-12.01 -2.67,-4.02 -6.6,-6.02 -11.8,-6.02l-13.79 0 0 36.05 12.83 0c5.55,0 9.72,-1.9 12.5,-5.69 2.37,-3.21 3.54,-7.33 3.54,-12.33z"/>
   <path class="fil0" d="M324.32 48.95c8.31,109.82 -110.26,186.58 -206.97,132.85 97.77,73.25 293.62,-18.64 206.97,-132.85z"/>
   <path class="fil0" d="M117.35 181.8c26.83,28.79 65.41,47.87 107.87,47.87 57.38,0 115.8,-30.51 122.83,-91.86 -49.47,78.75 -155.78,98.1 -230.7,43.99z"/>
   <path class="fil0" d="M117.35 181.8c33.32,58.06 108.24,82.11 166.78,50.69 -68.76,19.15 -124.19,-5.4 -166.78,-50.69z"/>
   <path class="fil0" d="M212.98 25.06c7.21,0 14.25,0.73 21.06,2.07 -14.04,-9.68 -29.95,-16.86 -47.06,-20.89 -66.98,22.16 -101.45,95.91 -76.72,161.12 -3.56,-10.72 -5.49,-22.18 -5.49,-34.09 0,-59.76 48.44,-108.21 108.2,-108.21z"/>
   <path class="fil1" d="M317.42 40.65c-11.2,-12.36 -24.86,-22.45 -40.23,-29.48 9.92,16.32 16.27,34.33 18.92,52.85 7.43,8.91 13.47,19.02 17.75,30.02 4.64,-17.51 5.79,-35.65 3.57,-53.39zm-91.45 -40.65l0 0c-0.05,-0 -0.1,-0 -0.14,-0 -8.21,0 -16.23,0.81 -23.99,2.34 3.81,1.68 7.58,3.49 11.31,5.48 11.77,6.27 22.49,13.73 32.12,22.15 4.12,1.29 8.13,2.83 12.03,4.57 -8.29,-12.98 -18.79,-24.7 -31.33,-34.54zm9.13 0.35l0 0c12.44,11.13 22.68,24.14 30.51,38.36 8.57,4.78 16.43,10.69 23.36,17.52 -3.8,-17.38 -10.88,-33.99 -20.94,-48.83 -10.4,-3.78 -21.45,-6.19 -32.93,-7.05z"/>
   <polygon class="fil1" points="166.78,174.14 185.89,84.24 149.49,84.24 155.74,55.34 268.23,55.34 261.95,84.24 225.48,84.24 206.37,174.14 "/>
   <polygon class="fil0" points="161.01,201.52 165.13,182.99 204.72,182.99 200.59,201.52 "/>
   <path class="fil2" d="M433.3 261.06c-2.36,0 -4.57,-0.43 -6.61,-1.29 -2.04,-0.86 -3.83,-2.07 -5.37,-3.62 -1.53,-1.55 -2.72,-3.35 -3.57,-5.39 -0.85,-2.04 -1.27,-4.25 -1.27,-6.61 0,-2.36 0.43,-4.57 1.29,-6.61 0.86,-2.04 2.06,-3.84 3.59,-5.39 1.53,-1.55 3.33,-2.75 5.39,-3.62 2.06,-0.86 4.29,-1.29 6.68,-1.29 2.4,0 4.62,0.42 6.68,1.27 2.06,0.85 3.85,2.04 5.37,3.57 1.52,1.53 2.7,3.31 3.55,5.34 0.85,2.03 1.27,4.24 1.27,6.63 0,2.4 -0.43,4.62 -1.29,6.68 -0.86,2.06 -2.07,3.86 -3.62,5.41 -1.55,1.55 -3.35,2.75 -5.39,3.62 -2.04,0.86 -4.28,1.29 -6.71,1.29zm5.08 -7.47l-4.69 -7.23 4.12 0 4.69 7.23 -4.12 0zm-5.03 4.93c1.98,-0.03 3.83,-0.42 5.56,-1.17 1.72,-0.75 3.23,-1.77 4.53,-3.07 1.29,-1.29 2.29,-2.82 2.99,-4.57 0.7,-1.76 1.07,-3.64 1.1,-5.65 -0.03,-2.01 -0.4,-3.88 -1.1,-5.6 -0.7,-1.72 -1.68,-3.23 -2.95,-4.5 -1.26,-1.28 -2.75,-2.28 -4.46,-2.99 -1.71,-0.72 -3.57,-1.11 -5.58,-1.17 -2.04,0.03 -3.95,0.42 -5.72,1.15 -1.77,0.73 -3.29,1.76 -4.55,3.07 -1.26,1.31 -2.25,2.82 -2.97,4.53 -0.72,1.71 -1.08,3.58 -1.08,5.63 0.03,2.01 0.4,3.88 1.1,5.6 0.7,1.72 1.68,3.25 2.95,4.57 1.26,1.33 2.76,2.34 4.5,3.04 1.74,0.7 3.63,1.09 5.68,1.15zm-7.04 -4.89l-0.05 -18.92 7.95 -0.05c2.43,0.03 4.35,0.64 5.77,1.82 1.42,1.18 2.12,2.78 2.08,4.79 0,2.08 -0.7,3.69 -2.11,4.84 -1.41,1.15 -3.35,1.72 -5.84,1.72l-3.78 -0.05 0.05 5.8 -4.07 0.05zm4.02 -9.01l3.54 0c1.37,0.03 2.43,-0.25 3.16,-0.84 0.73,-0.59 1.09,-1.45 1.05,-2.56 0.03,-1.05 -0.32,-1.87 -1.05,-2.44 -0.73,-0.57 -1.79,-0.85 -3.16,-0.81l-3.59 -0.05 0.05 6.71z"/>
  </g>
 </g>
</svg>
