<?xml version="1.0" encoding="UTF-8"?>
<!DOCTYPE svg PUBLIC "-//W3C//DTD SVG 1.1//EN" "http://www.w3.org/Graphics/SVG/1.1/DTD/svg11.dtd">
<!-- Creator: CorelDRAW Standard 2021 (64 Bit) -->
<svg xmlns="http://www.w3.org/2000/svg" xml:space="preserve" width="733.645mm" height="366.107mm" version="1.1" style="shape-rendering:geometricPrecision; text-rendering:geometricPrecision; image-rendering:optimizeQuality; fill-rule:evenodd; clip-rule:evenodd"
viewBox="0 0 5867.21 2927.88"
 xmlns:xlink="http://www.w3.org/1999/xlink"
 xmlns:xodm="http://www.corel.com/coreldraw/odm/2003">
 <defs>
  <style type="text/css">
   <![CDATA[
    .fil2 {fill:#FEFEFE}
    .fil4 {fill:#4D4E4F}
    .fil1 {fill:#094561}
    .fil0 {fill:#F59B2C}
    .fil3 {fill:#094561;fill-rule:nonzero}
   ]]>
  </style>
 </defs>
 <g id="Camada_x0020_1">
  <metadata id="CorelCorpID_0Corel-Layer"/>
  <g id="_2614652523776">
   <path class="fil0" d="M2079.5 1870.12l-5.98 85.61 -32.2 26.99 -6.08 20.14 -23.29 11.2c-5.89,30.25 -28.96,48.2 -39.08,77.47l11.97 39.29 -65.38 87.59 -14.03 33.19 -12.09 15.11 -38.18 11.2 -76.58 65.17 -21.22 15.23 8.14 38.43 -43.3 44.16 -24.03 53.29 -26.34 26.12 0 -8.05 6.08 -44.29 -15.98 29.18 -5 44.29 -45.37 21.19 -40.28 -8.91 -33.28 -18.29 15.11 30.16 21.1 14.12 -24.24 44.29c-28.96,5.98 -59.31,15.11 -88.36,21.1l-18.17 35.25 -9.04 14.06 -26.22 -8.05 -6.08 14.25 12.06 21 -21.1 8.05 -15.02 33.4 -29.39 23.16 6.11 30.13c-65.29,7.83 -68.44,70.29 -106.62,87.59l-2.96 -31.43 -12.18 -5.89 3.05 -68.53 12.09 -11.87 11.97 -20.35 20.23 -56.35 -20.23 -20.02c-2.93,-38.4 6.08,-73.65 20.23,-109.79l18.07 -26c18.04,-59.52 24.03,-85.74 21.1,-145.14 8.27,-74.42 32.2,-144.92 41.36,-219.34l2.93 -38.18c-21.13,-27.2 -36.02,-44.38 -65.38,-59.52l-41.23 -50.36 -9.04 -44.16c-29.18,-35.25 -41.23,-83.58 -65.63,-123.83l-20.02 -12.09 -3.02 -23.16 32.29 -44.29 -18.17 -15.11 8.91 -32.11 0 -29.36 27.33 -33.09 38.3 -30.26 -6.11 -17.06c12.09,-33.18 0,-62.58 -2.93,-97.61l9.04 -20.23 18.04 3.05 14.16 -19.15 42.1 -31.24 26.22 -5.98 -8.91 29.18 5.98 18.04 12.09 11.23 3.05 -2.07 2.93 -27.2 14.25 -18.07 53.32 0 18.04 18.07c32.2,-5.98 62.45,-12.09 91.63,-23.19l30.22 34.3 0 30.01 17.09 3.27 23.19 24.06 4.01 14.13 6.11 21 35.25 18.29c58.29,-10.12 100.42,5.98 112.6,64.4l6.08 3.05 5.89 18.07 -18.94 26.09 -11.1 21.22 -6.08 24.15 27.08 2.07 9.04 -12.06 23.29 -9.13 82.56 24.15 9.04 24.15c30.25,0 65.29,2.07 94.56,5 23.07,18.17 50.36,42.31 76.49,56.47l12.06 9.04 0 -3.05zm-813.28 -328.24l0 0 3.05 3.15 11.1 -18.17 -46.23 -17.09 -53.42 9.04 -50.27 -33.19 -3.05 -64.4 5.98 -45.4 -20.02 -17.06 -69.64 9.01c-1.94,-53.29 9.25,-103.69 21.22,-153.93l-59.4 24.15 -23.07 43.3 -59.4 12.06 -24.27 -24.15 -14.03 -97.58 2.93 -53.42 -5.86 -58.32 32.07 -39.29 106.74 -3.05 39.17 -20.11 82.69 12.06 5.03 47.34 24.15 74.64 23.16 -15.24 -20.23 -98.69c23.29,-58.41 73.56,-103.56 76.49,-168.08l6.11 -29.27 2.93 35.25 14.13 -15.11 3.05 -27.11 26.12 -23.29 42.31 -32.07 2.93 -24.06 27.2 -17.18 29.27 -6.11 18.17 9.04 -13.14 17.18 0 9.04 18.17 -11.97 32.07 -29.36 -29.02 -8.94 -24.27 -14.12 -5 -27.2 -24.06 0 -62.58 29.27 38.3 -41.14 22.08 -38.3 105.76 0 12.09 -12.28 26.22 -13.94 -12.06 -15.24 -14.16 -5.98 -9.04 -6.08 -21.1 18.17 -11.1 -3.05 14.16 -15.11 0 -18.07 -11.23 0c-32.11,-20.14 -62.33,-41.24 -82.47,-73.56l-19.15 -15.02 -11.1 15.02 -14.9 21.22 -18.38 -9.04 -23.07 -18.17 3.15 -21.1c-32.29,-31.24 -58.54,-44.29 -105.85,-41.36l-2.93 6.11 12.06 33.19 -15.02 35.25 12.09 3.05 10.98 41.23 -13.91 26.22 5.86 33.18 5.12 29.15 -14.25 -6.08 -39.08 -13.94 -14.13 -12.18 -6.2 -38.18 -61.16 0 -39.38 -15.14 -27.2 3.05 -11.1 -15.11 2.93 -32.2 -14.99 -18.07 20.11 -23.16 -2.07 -39.29 -32.11 -8.05 11.01 -21.31 26.22 15.2 30.26 3.05 16.96 -18.26 6.2 -21 36.12 0 3.05 -16.99 14.16 2.96 18.04 -18.17 -24.02 -27.33 -14.25 27.33 -33.09 0 -8.14 -27.33 -12.09 19.37 -5.98 -10.12 -18.17 -23.19 -14.16 -21.1 -15.02 12.09 -6.08 22.95 6.08 19.37 -41.23 4.9 -42.31 12.06 -44.29 -16.96 -23.16 16.96 -20.23 0 -39.17 -9.01 21.1 -29.18 -24.06 -9.04 -76.49 2.96 -12.18 -30.16 -17.09 12.09 -36.21 5.98 -23.07 0c-83.58,-15.02 -169.07,-32.2 -251.66,-32.2l-41.36 10.98 -42.31 0 -14.03 21.22 0 35.13 -36.24 12.21 -32.2 -12.21 -24.15 12.21 -7.96 18.17 4.9 17.09 15.11 27.17 -17.06 9.04 -27.33 14.03 -38.09 18.17 6.11 23.19 28.93 -2.07 9.16 2.07 -12.09 6.08 -20.02 12.09 -18.29 18.07 -29.14 17.09 -50.27 24.15 21.22 3.02 43.21 -9.01 97.58 -35.25 24.27 -15.14 41.24 -29.14 27.2 3.05 29.15 -6.2 18.07 -26.99c26.31,21 79.51,44.26 111.74,47.22l15.24 47.31 0 27.2 47.22 53.32 32.29 47.22 -8.05 20.23c-33.28,68.34 -65.48,134.04 -27.29,210.43 0,44.29 33.4,74.42 59.52,106.62l15.11 53.2 16.87 38.4 -7.96 21.13 35.37 23.07 26 68.53 30.26 14.16 0 -20.14 -18.2 -20.02 -12.06 -30.35 -8.91 -17.09 -17.09 -45.37 -18.29 -32.32 9.13 -34.91 18.07 34.91 10.98 44.5 18.17 5.98 15.14 27.2 26.09 50.27 33.31 37.32c8.05,30.13 20.23,68.31 29.27,97.58l47.22 36.24c41.36,9.04 71.49,33.19 109.79,50.36l26.22 -14.12 26 20.11 16.19 20.14 32.11 10.12 52.34 34.17 27.33 -8.17 -6.11 32.32 21.1 23.16c32.32,36.24 61.5,59.52 106.74,74.54l2.07 -12.31 33.09 -5.86 12.18 18.17 26.09 -6.2 0 0zm375.49 -1101.06l0 0 -43.3 -17.09 -36.15 -3.15c-35.34,-36.15 -77.57,-73.34 -109.76,-112.63l2.93 -27.2 -14.03 3.05 -27.2 -14.13 -20.14 -29.18 -9.01 7.96 -9.16 -13.94c-56.35,-38.3 -101.62,-59.52 -168.95,-54.4l-6.11 -17.09 -23.07 -17.09 375.37 5.03 12.18 12.06 23.07 6.11 15.02 -9.25c24.15,15.11 35.25,30.25 50.36,53.54l-2.93 21.1 14.03 5.98 26.12 3.05 7.19 11.1 -27.33 0 -29.14 -3.05 35.25 21.1 27.2 4.9 -5.98 3.15 -39.38 18.07 -7.96 27.2 -29.14 26.22 2.93 45.27 17.09 43.3 0 0zm-589.81 -189.21l0 0 9.13 3.05 -9.13 -27.2 9.13 -17.09 20.02 -6.11 15.11 6.11 33.19 15.02 26.25 14.12 35.25 3.05 44.38 23.19 18.07 18.04 35.13 35.25 42.22 5.98 0 14.03 -12.18 3.05 -11.97 -6.11 -29.18 -7.93 0 7.93 29.18 21.22 21.31 15.14 0 5.98 -15.24 0 -21.22 -5.98 6.11 8.91 18.04 14.25 -2.93 0 -35.25 -14.25 -15.02 -5.98 -15.11 3.05 -15.02 -27.11 -20.23 3.05 -18.07 11.97 -20.23 -21 17.21 -9.25 18.17 0 8.79 -7.93 -23.93 -18.17 -3.02 -24.15 -41.23 -17.09 -18.29 -2.93 -41.24 -14.16 -9.04 14.16 -29.14 -14.16 0 0zm9.99 135.89l-2.93 0 23.16 -20.14 15.14 -15.11 10.98 9.13 10.12 11.97 10.98 7.96 -10.98 3.15 -18.17 -3.15 -15.11 12.31 -23.19 -6.11 0 0zm56.47 825.37l23.07 -20.14 38.18 0 35.25 10.98 36.24 15.24 23.16 16.99 21.22 15.11 -24.24 21.34 -23.07 7.83 -21.22 -4.9 9.13 -13.17 0 -14.03 -35.25 -23.19 -27.2 -5.98 -1.94 -6.08 -42.35 6.08 -14.13 -3.15 3.15 -2.93 0 0zm177.12 109.76l0 0 5.98 5.98 -3.02 -11.2 10.98 -11.97 15.11 0 11.23 -5.98 -5.12 -11.1 11.1 -6.08 18.04 3.02 26.22 8.05 24.18 9.04 -18.07 9.16 -32.32 14.03 -35.25 -2.96 -29.05 0 0 0zm1665.77 -973.44l-16.99 11.01 -3.15 12.18 -12.09 12.06 29.18 14.03 28.19 -9.01 27.17 -8.17 15.24 -11.87 20.14 -14.25 2.93 -8.91 -15.11 0 -32.2 -6.08 -29.18 17.06 -3.15 -14.12 -46.14 41.33 35.16 -35.25 0 0zm709.6 1156.58l-20.02 71.46 -36.36 35.25 -17.06 65.51 -36.15 44.16 -67.45 56.38c-23.29,41.33 -47.22,67.54 -83.55,97.71l-14.25 47.22 18.26 76.49 26.12 27.2c-11.1,114.79 -47.34,135.76 -129.81,200.19 0,41.45 0,80.71 -12.18,121.95l-35.13 23.19 -12.18 5.98 -5.98 65.38 -35.25 59.31 -44.29 17.18 -18.07 33.4 -68.44 8.91 -41.23 9.16 -38.4 -12.09 -5.98 -24.27 -26.12 -67.45 -20.11 -53.2 -23.19 -39.38 -9.04 -91.6 -27.29 -73.46c-11.97,-65.48 -14.03,-112.6 7.28,-174.28l1.97 -48.2c-5.98,-41.24 -15.14,-79.42 -15.14,-121.73l-17.18 -23.19 -24.15 -38.18 -26.12 -42.44 11.1 -20.14c36.24,-56.22 6.08,-111.61 -61.37,-103.69l-18.26 -26 -29.05 -3.02c-53.42,11.97 -175.3,56.35 -216.54,14.99l-50.15 -24.15c-17.09,-47.22 -85.83,-128.82 -85.83,-171.02l-5.89 -26.12 18.07 -30.35 26.09 -55.39 20.14 -65.29 24.27 -62.45c76.49,-91.48 166.02,-230.54 277.76,-277.88l12.18 -11.97 18.07 14.16 91.6 -2.19 65.41 -5.98 29.15 -3.02 52.34 5.98 27.2 8.14 -21.22 27.2 38.4 32.2 53.2 24.18 41.45 26.09 36.24 -23.16 38.18 -11.97 62.36 21 50.36 3.02 47.34 -3.02 3.02 55.48c2.96,53.29 6.11,112.72 14.06,162.96l33.28 68.56c29.27,118.58 53.2,198.12 192.26,218.26l61.25 -11.97 0 0zm-821.12 -907.97l26 6.2 32.32 -12.28 14.9 -20.02 38.3 -30.38 -30.26 -10.86 -22.95 18.04 -12.21 0 -20.11 17.09 10.98 6.11 -20.02 14.03 -16.96 12.06 0 0zm50.24 29.18l0 -5.98 11.01 -9.04 9.04 -7.96 16.96 -6.2 -7.96 -9.04 14.16 -3.02 10.12 -12.09 4.9 0 9.13 -2.93 10.98 -14.16 3.05 -21.1 2.19 -18.17 2.84 -11.1 12.18 -15.02 14.99 -9.13 15.24 -1.97 17.09 -3.15 -12.06 17.18 15.11 9.16 -23.29 14.03 -15.11 7.06 6.08 26.12 -6.08 23.16 6.08 15.11 -6.08 9.04 -8.94 12.18 -9.01 4.9 -28.31 3.15 -21.1 -3.15 -20.23 9.13 -22.98 2.96 0 0zm2043.29 2013.13l35.16 14.16 71.37 -29.18 44.38 0 26.22 -23.16 15.02 -2.93 14.16 -15.36 63.32 0 50.36 9.16 23.19 23.07 9.04 6.08 5.09 9.13 33.18 -23.16 12.09 -5.98 -18.17 55.27 15.24 2.93 10.86 17.3 3.18 15.88 -6.11 7.31c42.22,21 74.54,12.06 119.79,8.91l11.1 -11.97 39.29 -8.05c50.24,-55.48 93.66,-114.91 96.6,-191.28 -5.98,-35.25 -20.23,-53.42 -35.25,-83.46l-3.02 -29.36 -32.23 -11.87 -21.1 -47.43c-27.2,-38.4 -44.29,-96.72 -47.34,-141.99l-18.04 -2.93 -14.16 -44.38 -21.1 -47.22 3.02 29.14c-11.2,36.24 -17.06,80.53 -27.17,115.78l-14.16 11.97 -18.17 2.93 -26 -30.04 -29.27 -20.11 -27.2 -12.09 3.05 -8.05 5.98 -19.15 0 -14.03 5.09 -9.13 2.96 -24.27 -61.28 -10.98 -12.18 -3.05 -6.08 11.1 -26.99 -8.05 -8.39 17.18 -11.97 27.2 -6.08 5.98 -7.96 27.2 -3.05 13.94 -5.98 3.24 -15.11 -27.2 -15.11 -20.11 -27.33 30.13 -4.9 20.14 -18.04 17.18 -3.05 24.06 -8.05 -11.1 -9.04 11.1 0 20.23c-33.18,30.13 -77.47,62.33 -115.75,83.46l-20.14 20.23c0,24.15 -6.11,50.36 -6.11,74.42l6.11 3.15 3.05 11.87 -12.18 14.12c15.11,42.22 41.23,97.61 44.26,142.86l-5.98 20.23 -2.93 9.04 0 0zm486.12 149.92l9.16 -3.02 37.1 -2.96 3.02 11.1 -5.98 21.22 -26.22 10.89 -11.1 -26.22 -9.04 -14.03 3.05 3.02 0 0zm-915 -1109.11l56.47 5.89 38.18 32.41 32.32 47.22 26 21.22 7.06 17.09 20.14 17.95 30.13 32.32 -10.02 56.35 -23.16 6.11 -20.02 -9.04 -21.22 -29.39 -39.29 -47.22 -26.09 -41.24 -11.23 -41.23 -30.13 -33.19 -14.03 -17.09 -12.09 -12.28 -3.02 -5.89 0 0zm266.65 76.39c0,26.22 -8.91,44.38 2.19,76.58l18.04 3.05 0 18.07 41.24 15.11 53.32 11.97 15.11 2.28 14.16 -50.49 21.1 -14.03 26.12 -36.33 -10.98 -46.23 0 -17.21 8.05 -30.13 -20.23 -17.09 -18.07 -27.2 -18.17 21c0,29.39 -29.05,53.42 -50.27,70.63 -26,2.93 -47.34,15.02 -73.43,15.02 -29.27,14.12 -14.16,52.43 -14.16,81.58l5.98 -76.58 0 0zm-56.35 190.38l14.25 -23.16 32.11 2.93 12.18 8.05 32.07 -10.98 39.29 32.32 23.16 17.09 -6.2 8.79 -22.95 -11.97 -24.27 0 -20.11 -9.01 -26.25 5.98 -27.08 -10.89 -35.25 -15.14 9.04 5.98 0 0zm965.27 972.27l49.28 7.93 56.59 -58.41 18.04 -5.89c11.01,-20.11 9.04,-41.24 9.04,-65.48l-30.35 15.2 -26.12 24.06 -17.95 32.11 -26.22 9.13 -24.27 46.35 -8.05 -5 0 0zm165.28 -192.14l11.97 14.99 -26.12 29.18 -15.24 -12.09 -7.93 -12.18 23.16 -23.16 5.12 -20.02 14.9 6.08 -5.86 17.21 0 0zm-2264.8 -686.65l9.04 0 -6.11 18.04 -10.98 17.21 -6.11 21.31 -29.14 18.07 -24.27 13.91 -26 12.21 0 35.13 2.93 27.29 6.11 32.23 -21.34 30.13 -17.95 17.09 -5.98 30.22 11.97 29.05 -2.93 21.34 24.15 17.09 23.16 -3.05 24.06 -11.1 9.13 -50.36 14.06 -21.13 -2.96 -21.1 8.94 -29.18 12.18 -15.11 5.86 -26.12 5.12 -24.24 -7.96 -32.11 16.87 -32.2 20.23 -6.2 -32.07 -68.44 0 0zm1530.93 -1028.71l49.19 -15.02 24.24 0 36.24 -5.98 14.16 -8.17c-2.96,-42.22 -11.1,-71.49 -38.21,-103.56l-9.01 -12.09 -14.25 2.93 0 32.23 3.02 18.17 -3.02 15.11 -18.07 0 -9.04 -5.98 2.93 29.05 6.11 21.22 -27.2 0 -20.14 11.1 15.14 18.04 -12.09 2.96 0 0zm-909.02 570.66l20.23 6.2 23.07 29.05 -7.96 30.13 -21.22 3.15 -20.14 -30.23 9.04 -15.02 9.04 -20.14 -12.06 -3.15 0 0zm-3394.08 -1373.73l0 0 -28.07 5.89 31.24 -2.96 0 12.09 18.04 -5.98 7.96 9.04 21.22 8.14 15.11 -17.18 15.02 19.92 11.1 3.24 9.13 17.95 -12.18 18.07 -29.05 0 -30.35 -5.86 -20.02 9.01 -9.16 3.05 -26.21 -6.2 -13.91 -21 29.14 -5.98 0 -15.02 -17.09 -5.21 1.85 -18.07 26.21 -2.93 0 0zm2825.37 852.45l3.15 62.45 12.09 35.16 14.03 27.2 21.1 -18.07 9.16 44.29 53.2 0 9.13 -29.27 14.16 -15.02 0 29.14 33.06 42.22 20.35 14.16 -3.18 30.25 -26.22 44.26c-26.99,18.2 -47.31,44.2 -74.3,62.24 -53.42,8.17 -119.79,61.59 -170.18,85.74l-15.23 -15.24c-26.99,-64.3 -59.4,-135.76 -83.33,-201.18l-2.16 -47.31c-15.14,-38.4 -27.2,-79.54 -39.17,-117.84l-2.96 -29.15 -17.18 29.15 -24.15 -29.15 -20.14 5 5 -55.39 30.25 -5.98 12.18 -9.01 5.89 -14.16 20.11 -33.19 21.13 -38.18 -2.84 -6.2c-33.4,6.2 -49.5,5.21 -80.62,-2.96l-32.32 15.14 -24.03 -50.39 6.08 -11.97 5.98 -38.4 -12.06 -11.97 -38.3 -3.15 -5.98 27.29 -14.25 5 -5.98 33.18 0 26.25 -15.02 18.17 -21.22 -9.16 -2.93 -26.09 11.97 -9.16 -9.04 -9.01 -5.12 -29.18 -5.86 -15.11 -6.11 -30.04 -15.11 -38.4 -15.14 -9.04 -14.03 -11.1 -21.22 -6.08 -9.13 17.18 15.33 30.35 17.95 17.09 17.09 17.86 15.24 15.11 0 12.18 -15.24 -6.08 -5.98 0 -6.08 8.14 3.02 18.07 -17.06 15.11 -5.98 2.93 0 -15.11 -2.96 -26.12 -15.33 -30.22 -20.02 -20.02 -23.19 -18.2 -16.1 -18.26 -14.03 6.2c-39.26,24.15 -70.38,15.11 -105.63,38.4l-33.18 8.91 -17.3 12.09 -11.97 9.04 -15.02 17.18c-35.25,56.38 -168.21,89.56 -157.11,-8.14l30.26 -30.16 11.97 -32.2 14.12 -12.06 24.27 -6.11c33.18,6.11 56.25,9.13 91.51,0l24.24 -32.11 5.03 -18.17 -11.1 -17.3 -6.2 -18.04 9.25 -5.98 20.11 3.02 15.14 2.96 0 -24.06 17.95 0c37.32,-3.15 96.6,-23.16 128.92,-55.39l5.98 5.03 26.12 -14.03 30.25 -9.16 50.36 3.05 41.24 0 26.12 -3.05 33.28 0 5.98 12.09 17.3 -12.09 14.9 -21.22 9.16 -2.81 23.16 -29.27 -11.1 -27.2 -30.13 6.08 -29.27 10.02 -30.13 26.22 -11.2 11.1 -33.18 5.86 0 -26 15.11 -27.2 6.11 -17.09 -24.18 11.01 -32.2 6.08 -15.24 -8.05 21.34 -24.15c31.21,-28.28 56.25,-50.36 97.49,-61.37 68.53,-24.15 141.96,-60.48 204.42,-95.73l29.18 -8.05 41.33 -6.97c45.28,13.17 83.46,37.23 126.67,53.32l9.13 24.24 -44.29 11.97 -26.12 -9.01 -17.06 -6.2 14.03 26.31 9.04 18.07 29.14 0 38.3 -21.22 20.11 -10.89 9.16 -3.05 8.91 -36.21 12.18 -3.05 -6.2 39.26 32.41 -23.16 76.27 -4.01 19.28 -3.05 32.07 -12.09 56.59 12.09 44.16 -59.52 3.05 18.29 18.04 53.29 -24.03 17.09 15.02 13.17 41.24 -19.25 30.22 3.15 23.07 11.97 -23.07 -32.2 -39.17 -11.97 -3.02 -29.27 14.99 -11.97 6.11 17.09 21.1 -8.17 -14.99 -18.07 29.05 -5 36.21 5 -13.05 -14.99 74.42 -11.1 68.44 -27.2 74.51 2.93 0 45.37 32.32 -16.22 32.11 21.22 53.42 6.11 18.07 18.07 44.26 -6.11 14.06 8.17 30.35 -14.28 30.13 14.28 76.49 -2.07 -9.04 -18.07 36.24 0 55.39 -3.05 24.03 26.12c52.46,3.15 94.77,12.06 145.14,33.18l13.94 9.13 59.4 7.96 86.51 0 -5.89 -7.96 41.24 2.93 26.12 8.17 30.22 11.97 64.52 9.13 59.31 15.14 33.18 -3.05 11.1 9.04 33.06 17.18 29.27 18.07 27.2 12.06 -18.17 5.98 -56.25 -15.02 -44.5 -15.11 15.14 18.07 26.31 17.18 6.01 18.07 -26.12 18.17 5.12 11.1 -32.23 5.98 -42.41 2.93 -5.03 15.24 32.23 35.25 15.2 9.04 14.93 32.2 26.22 15.02 0 24.24 12.09 32.23 -24.06 -9.04 -26.22 -14.25 -18.17 -24.06c-20.14,-21.22 -44.2,-38.3 -53.23,-65.38l-11.2 -32.2 -27.2 -29.27 -26.12 -27.2 -18.17 6.08 -12.06 -6.08 0 6.08 -3.18 18.07 -2.93 17.09 -20.02 3.15c-38.3,-20.23 -109.67,-15.11 -154.05,-3.15l-9.16 3.15 21.34 80.53 23.07 -6.11 30.22 11.1 32.23 50.15 26.09 12.31 -29.14 -59.52 12.09 -4.9 14.03 16.99 59.4 65.48 3.15 35.25 20.88 38.21 12.21 36.33 -24.18 -33.31 -44.16 -64.49 8.91 20.11 -2.93 21.22 -80.62 85.52 -17.09 -18.07 -24.15 15.02 -12.09 27.2c-7.93,37.32 45.37,87.59 53.32,129.9l-20.02 14.03 -15.24 -17.09c-18.07,-29.15 -26,-53.42 -56.35,-68.31l3.02 -21.22 -12.06 -5.12 -32.2 -2.93 -18.07 8.05 -5.98 -20.14 0 -30.22 -14.16 -2.07 -15.11 32.29 -21.1 20.14 -5.12 13.05 11.1 17.21 33.19 11.97 23.16 -2.93 27.2 21.1 -15.11 5.98 -18.07 20.23 42.22 70.41 17.09 35.25 21.31 21.1 -27.2 76.49 -44.5 83.55 -38.18 26.25 -32.2 9.01 -53.32 35.25 -18.04 -20.23 -41.36 26.22 -18.07 30.16 18.07 26.22 29.39 41.11 20.97 36.45 6.11 61.25 -30.26 26.22 -14.03 24.27 -21.22 2.93 -2.93 -30.23 -47.34 -37.1 -18.17 -7.19 -10.98 -20.02 -15.11 5.98 -6.11 32.11 -8.05 32.29 -4.04 21.22 21.13 23.19 23.16 26.96 36.24 47.46 2.93 38.18 5.12 33.18 -5.12 17.18 -11.97 -17.18 -27.2 -42.22 -10.98 -29.15 -18.17 -29.18 -11.1 -15.11 -24.27 -32.2 6.2 -39.29 0 -76.49 -12.06 -30.26 -15.14 -37.19 -18.17 23.16 -17.09 -5.98 -8.91 -33.28 -8.27 -23.07 -19.03 -20.23 -37.32 -44.19 -30.16 -33.28 -41.11 9.04 -18.29 11.07c-27.2,45.27 -41.24,83.58 -85.62,118.83l-22.95 5.86 -9.16 62.58 -18.26 14.03 -12 47.22 -10.98 36.33 -19.24 12.09 -17.09 -15.14 -56.35 -159.91 -14.06 -61.5 -9.13 -74.51 -30.04 21.1 -14.25 -18.04 -6.08 -26 -26.99 -27.33 -35.37 -53.32 -65.26 -9.13 -26.34 -20.02 -38.09 20.02 -39.38 -10.98 0 -36.33 -35.25 14.99 -38.18 -5.86 -33.18 -38.3 -11.1 -59.52 -36.33 15.24z"/>
   <g>
    <path class="fil1" d="M3144.33 1681.97c7.55,59.32 -33.69,103.54 -57.03,142.64 -27.01,45.2 -54.84,84.19 -75.06,124.6 -1,0 -1.98,0 -3.02,0 -19.28,-31.86 -42.77,-70.81 -67.54,-111.11 -23.52,-38.24 -51.99,-75.54 -61.59,-117.12 -40.88,-177.96 241.87,-216.17 264.24,-39.01zm-133.68 -72.17c45.56,0 82.51,36.94 82.51,82.51 0,45.56 -36.94,82.51 -82.51,82.51 -45.56,0 -82.51,-36.94 -82.51,-82.51 0,-45.56 36.94,-82.51 82.51,-82.51z"/>
    <path class="fil2" d="M3010.66 1592.9c55.97,0 101.36,45.39 101.36,101.36 0,56 -45.39,101.4 -101.36,101.4 -56,0 -101.4,-45.39 -101.4,-101.4 0,-55.97 45.39,-101.36 101.4,-101.36z"/>
    <path class="fil3" d="M3085.67 1638.11c6.29,83.09 -83.42,141.17 -156.59,100.51 73.97,55.42 222.16,-14.1 156.59,-100.51z"/>
    <path class="fil3" d="M2929.08 1738.62c20.3,21.78 49.49,36.22 81.62,36.22 43.42,0 87.62,-23.08 92.93,-69.5 -37.43,59.58 -117.86,74.22 -174.55,33.28z"/>
    <path class="fil3" d="M2929.08 1738.62c25.21,43.92 81.9,62.12 126.19,38.35 -52.02,14.48 -93.96,-4.09 -126.19,-38.35z"/>
    <path class="fil3" d="M3001.44 1620.03c5.46,0 10.78,0.56 15.94,1.57 -10.63,-7.33 -22.66,-12.76 -35.61,-15.81 -50.68,16.77 -76.76,72.56 -58.05,121.91 -2.69,-8.11 -4.15,-16.78 -4.15,-25.79 0,-45.21 36.65,-81.87 81.87,-81.87z"/>
    <path class="fil3" d="M3080.45 1631.83c-8.47,-9.35 -18.81,-16.98 -30.44,-22.31 7.5,12.35 12.31,25.98 14.31,39.99 5.62,6.74 10.19,14.39 13.43,22.71 3.51,-13.25 4.38,-26.97 2.7,-40.39zm-69.19 -30.76l0 0c-0.03,-0 -0.07,-0 -0.11,-0 -6.21,0 -12.28,0.61 -18.15,1.77 2.88,1.27 5.74,2.64 8.56,4.15 8.91,4.75 17.02,10.39 24.31,16.76 3.12,0.97 6.15,2.14 9.1,3.46 -6.27,-9.82 -14.22,-18.69 -23.71,-26.13zm6.91 0.27l0 0c9.41,8.42 17.16,18.27 23.08,29.02 6.48,3.62 12.43,8.08 17.68,13.26 -2.87,-13.15 -8.23,-25.72 -15.84,-36.95 -7.87,-2.86 -16.23,-4.69 -24.91,-5.33z"/>
    <polygon class="fil1" points="2966.48,1732.83 2980.94,1664.81 2953.4,1664.81 2958.12,1642.94 3043.24,1642.94 3038.48,1664.81 3010.89,1664.81 2996.43,1732.83 "/>
    <polygon class="fil1" points="2962.11,1753.54 2965.23,1739.52 2995.18,1739.52 2992.06,1753.54 "/>
   </g>
   <g>
    <polygon class="fil4" points="204.23,792.91 185.94,792.91 169.97,820.02 192.19,820.02 192.19,810.2 204.23,810.2 "/>
    <polygon class="fil4" points="183.26,797.46 179.09,804.54 204.23,804.54 204.23,797.46 "/>
    <polygon class="fil4" points="232.85,875.37 235.32,875.37 235.32,834.93 232.85,834.93 "/>
    <polygon class="fil4" points="237.63,875.37 240.09,875.37 240.09,834.93 237.63,834.93 "/>
    <polygon class="fil4" points="242.4,875.37 244.86,875.37 244.86,834.93 242.4,834.93 "/>
    <polygon class="fil4" points="247.16,875.37 249.63,875.37 249.63,834.93 247.16,834.93 "/>
    <polygon class="fil4" points="251.94,875.37 254.4,875.37 254.4,834.93 251.94,834.93 "/>
    <polygon class="fil4" points="256.71,875.37 259.17,875.37 259.17,834.93 256.71,834.93 "/>
    <polygon class="fil4" points="261.48,875.37 263.94,875.37 263.94,834.93 261.48,834.93 "/>
    <polygon class="fil4" points="266.25,875.37 268.71,875.37 268.71,834.93 266.25,834.93 "/>
    <polygon class="fil4" points="271.02,875.37 273.48,875.37 273.48,834.93 271.02,834.93 "/>
    <polygon class="fil4" points="275.79,875.37 278.25,875.37 278.25,834.93 275.79,834.93 "/>
    <polygon class="fil4" points="280.56,875.37 283.03,875.37 283.03,834.93 280.56,834.93 "/>
    <polygon class="fil4" points="285.33,875.37 287.8,875.37 287.8,834.93 285.33,834.93 "/>
    <polygon class="fil4" points="290.1,875.37 292.57,875.37 292.57,834.93 290.1,834.93 "/>
    <polygon class="fil4" points="294.88,875.37 297.34,875.37 297.34,834.93 294.88,834.93 "/>
    <polygon class="fil4" points="299.65,875.37 302.11,875.37 302.11,834.93 299.65,834.93 "/>
    <polygon class="fil4" points="304.42,875.37 306.88,875.37 306.88,834.93 304.42,834.93 "/>
    <polygon class="fil4" points="309.19,875.37 311.65,875.37 311.65,834.93 309.19,834.93 "/>
    <polygon class="fil4" points="313.96,875.37 316.42,875.37 316.42,834.93 313.96,834.93 "/>
    <polygon class="fil4" points="318.73,875.37 321.19,875.37 321.19,834.93 318.73,834.93 "/>
    <polygon class="fil4" points="323.5,875.37 325.96,875.37 325.96,834.93 323.5,834.93 "/>
    <polygon class="fil4" points="328.27,875.37 330.73,875.37 330.73,834.93 328.27,834.93 "/>
    <path class="fil4" d="M296.1 870.66l109.85 0 -4.71 8.33c-20.48,6.48 -50.71,27.64 -65.73,49.13l-188.49 0 -30.3 -43.09 0 -7.09 173.58 0c3.19,0 5.79,-2.3 5.79,-5.1l0 -2.17z"/>
    <path class="fil4" d="M348 913.5c-4.76,4.74 -9.03,9.67 -12.49,14.62l-188.49 0 -10.28 -14.62 211.25 0z"/>
    <path class="fil2" d="M358.84 880.08c1.69,0 2.65,1.53 2.13,3.42 -0.52,1.89 -2.32,3.42 -4.01,3.42 -1.7,0 -2.65,-1.53 -2.14,-3.42 0.52,-1.88 2.32,-3.42 4.02,-3.42z"/>
    <polygon class="fil4" points="143.57,877.93 192.19,877.93 192.19,820.03 143.57,820.03 "/>
    <polygon class="fil4" points="198.43,824.96 222.96,824.96 222.96,817.67 198.43,817.67 "/>
    <polygon class="fil4" points="179.29,843.02 182.58,843.02 182.58,838.96 179.29,838.96 "/>
    <polygon class="fil4" points="179.29,860.8 182.58,860.8 182.58,856.74 179.29,856.74 "/>
    <polygon class="fil4" points="188.5,843.02 191.79,843.02 191.79,838.96 188.5,838.96 "/>
    <polygon class="fil4" points="188.5,851.91 191.79,851.91 191.79,847.85 188.5,847.85 "/>
    <polygon class="fil4" points="188.5,860.8 191.79,860.8 191.79,856.74 188.5,856.74 "/>
    <polygon class="fil4" points="197.71,843.02 201.01,843.02 201.01,838.96 197.71,838.96 "/>
    <polygon class="fil4" points="197.71,851.91 201.01,851.91 201.01,847.85 197.71,847.85 "/>
    <polygon class="fil4" points="197.71,860.8 201.01,860.8 201.01,856.74 197.71,856.74 "/>
    <polygon class="fil4" points="206.93,843.02 210.22,843.02 210.22,838.96 206.93,838.96 "/>
    <polygon class="fil4" points="206.93,851.91 210.22,851.91 210.22,847.85 206.93,847.85 "/>
    <polygon class="fil4" points="206.93,860.8 210.22,860.8 210.22,856.74 206.93,856.74 "/>
    <path class="fil2" d="M176.7 897.35c2.92,0 5.3,-2.1 5.3,-4.67 0,-2.57 -2.38,-4.67 -5.3,-4.67 -2.92,0 -5.3,2.1 -5.3,4.67 0,2.57 2.38,4.67 5.3,4.67z"/>
    <path class="fil2" d="M198.77 897.35c2.92,0 5.3,-2.1 5.3,-4.67 0,-2.57 -2.38,-4.67 -5.3,-4.67 -2.92,0 -5.3,2.1 -5.3,4.67 0,2.57 2.38,4.67 5.3,4.67z"/>
    <path class="fil2" d="M220.83 897.35c2.92,0 5.3,-2.1 5.3,-4.67 0,-2.57 -2.38,-4.67 -5.3,-4.67 -2.92,0 -5.3,2.1 -5.3,4.67 0,2.57 2.38,4.67 5.3,4.67z"/>
    <path class="fil2" d="M242.9 897.35c2.92,0 5.3,-2.1 5.3,-4.67 0,-2.57 -2.38,-4.67 -5.3,-4.67 -2.92,0 -5.3,2.1 -5.3,4.67 0,2.57 2.38,4.67 5.3,4.67z"/>
    <path class="fil2" d="M264.96 897.35c2.92,0 5.3,-2.1 5.3,-4.67 0,-2.57 -2.38,-4.67 -5.3,-4.67 -2.92,0 -5.3,2.1 -5.3,4.67 0,2.57 2.38,4.67 5.3,4.67z"/>
    <path class="fil2" d="M287.03 897.35c2.92,0 5.3,-2.1 5.3,-4.67 0,-2.57 -2.38,-4.67 -5.3,-4.67 -2.92,0 -5.3,2.1 -5.3,4.67 0,2.57 2.38,4.67 5.3,4.67z"/>
    <path class="fil2" d="M309.1 897.35c2.92,0 5.3,-2.1 5.3,-4.67 0,-2.57 -2.38,-4.67 -5.3,-4.67 -2.92,0 -5.3,2.1 -5.3,4.67 0,2.57 2.38,4.67 5.3,4.67z"/>
   </g>
   <path class="fil0" d="M5500.14 1933.3l-35.38 12.18 -13.91 8.91 -15.02 -14.9 -9.25 -14.16 -12.06 -18.17 -23.96 -8.05 -26.43 8.05 15.24 21.22 11.19 4.9 -5.21 6.2 5.21 26.12 2.96 15.11 13.05 -15.11 26.22 12.18 24.06 8.91c37.32,23.19 49.38,50.39 72.45,85.65l70.5 24.03 -8.14 -30.13 11.2 -6.11 42.22 27.2 24.27 15.14 11.07 14.03 9.04 21.1 59.31 15.23 -42.31 -74.64 -23.19 -22.95 23.19 0 -11.01 -30.38 -29.27 -20.11 -33.19 -24.06 -59.28 -38.3 -32.32 -9.13 -35.16 -7.96 -32.29 20.14 -23.07 11.97 -15.02 -21 -6.2 -6.08 -15.11 -34.17 85.62 37.1 0 0z"/>
   <g>
    <path class="fil1" d="M1781.85 2081.4c7.55,59.32 -33.69,103.54 -57.03,142.64 -27.01,45.2 -54.84,84.19 -75.06,124.6 -1,0 -1.98,0 -3.02,0 -19.28,-31.86 -42.77,-70.81 -67.54,-111.11 -23.52,-38.24 -51.99,-75.55 -61.59,-117.12 -40.88,-177.96 241.87,-216.17 264.24,-39.01zm-133.68 -72.17c45.56,0 82.51,36.94 82.51,82.51 0,45.56 -36.94,82.51 -82.51,82.51 -45.56,0 -82.51,-36.94 -82.51,-82.51 0,-45.56 36.94,-82.51 82.51,-82.51z"/>
    <path class="fil2" d="M1648.18 1992.33c55.97,0 101.36,45.39 101.36,101.36 0,56.01 -45.39,101.4 -101.36,101.4 -56,0 -101.4,-45.39 -101.4,-101.4 0,-55.97 45.39,-101.36 101.4,-101.36z"/>
    <path class="fil3" d="M1723.19 2037.54c6.29,83.09 -83.42,141.17 -156.59,100.51 73.97,55.42 222.16,-14.1 156.59,-100.51z"/>
    <path class="fil3" d="M1566.6 2138.05c20.3,21.78 49.49,36.22 81.62,36.22 43.42,0 87.62,-23.08 92.93,-69.5 -37.43,59.58 -117.86,74.22 -174.55,33.28z"/>
    <path class="fil3" d="M1566.6 2138.05c25.21,43.93 81.9,62.12 126.19,38.35 -52.02,14.48 -93.96,-4.09 -126.19,-38.35z"/>
    <path class="fil3" d="M1638.96 2019.46c5.46,0 10.78,0.55 15.94,1.57 -10.63,-7.33 -22.66,-12.76 -35.61,-15.81 -50.68,16.77 -76.76,72.56 -58.05,121.91 -2.69,-8.11 -4.15,-16.78 -4.15,-25.79 0,-45.22 36.65,-81.87 81.87,-81.87z"/>
    <path class="fil3" d="M1717.97 2031.25c-8.47,-9.35 -18.81,-16.98 -30.44,-22.31 7.5,12.34 12.31,25.97 14.31,39.99 5.62,6.74 10.19,14.39 13.43,22.71 3.51,-13.25 4.38,-26.97 2.7,-40.39zm-69.19 -30.76l0 0c-0.03,-0 -0.07,-0 -0.11,-0 -6.21,0 -12.28,0.61 -18.15,1.77 2.88,1.27 5.74,2.64 8.56,4.15 8.91,4.75 17.02,10.39 24.3,16.76 3.12,0.97 6.15,2.14 9.1,3.46 -6.27,-9.82 -14.22,-18.69 -23.71,-26.13zm6.91 0.27l0 0c9.41,8.42 17.16,18.27 23.08,29.02 6.48,3.62 12.43,8.08 17.68,13.26 -2.87,-13.15 -8.23,-25.72 -15.84,-36.95 -7.87,-2.86 -16.23,-4.69 -24.91,-5.33z"/>
    <polygon class="fil1" points="1604,2132.25 1618.46,2064.23 1590.92,2064.23 1595.64,2042.37 1680.76,2042.37 1676,2064.23 1648.41,2064.23 1633.95,2132.25 "/>
    <polygon class="fil1" points="1599.63,2152.97 1602.75,2138.94 1632.7,2138.94 1629.58,2152.97 "/>
   </g>
   <path class="fil1" d="M5334.26 2216.11c7.55,59.32 -33.69,103.54 -57.03,142.64 -27.01,45.2 -54.84,84.19 -75.06,124.6 -1,0 -1.98,0 -3.02,0 -19.28,-31.86 -42.77,-70.81 -67.54,-111.11 -23.52,-38.24 -51.99,-75.55 -61.59,-117.12 -40.88,-177.96 241.87,-216.17 264.25,-39.01zm-133.68 -72.17c45.56,0 82.51,36.94 82.51,82.51 0,45.56 -36.94,82.51 -82.51,82.51 -45.56,0 -82.51,-36.94 -82.51,-82.51 0,-45.56 36.94,-82.51 82.51,-82.51z"/>
   <path class="fil2" d="M5200.59 2127.04c55.97,0 101.36,45.39 101.36,101.36 0,56.01 -45.39,101.4 -101.36,101.4 -56,0 -101.4,-45.39 -101.4,-101.4 0,-55.97 45.39,-101.36 101.4,-101.36z"/>
   <path class="fil3" d="M5275.61 2172.24c6.29,83.09 -83.42,141.17 -156.59,100.51 73.97,55.42 222.16,-14.1 156.59,-100.51z"/>
   <path class="fil3" d="M5119.02 2272.76c20.3,21.78 49.49,36.22 81.62,36.22 43.41,0 87.62,-23.08 92.93,-69.5 -37.43,59.58 -117.86,74.22 -174.55,33.28z"/>
   <path class="fil3" d="M5119.02 2272.76c25.21,43.93 81.9,62.12 126.19,38.35 -52.02,14.48 -93.96,-4.09 -126.19,-38.35z"/>
   <path class="fil3" d="M5191.37 2154.16c5.46,0 10.78,0.55 15.94,1.57 -10.63,-7.33 -22.66,-12.76 -35.61,-15.81 -50.68,16.77 -76.76,72.56 -58.05,121.91 -2.69,-8.11 -4.15,-16.78 -4.15,-25.8 0,-45.21 36.65,-81.87 81.87,-81.87z"/>
   <path class="fil3" d="M5270.39 2165.96c-8.47,-9.35 -18.81,-16.98 -30.44,-22.31 7.5,12.34 12.31,25.97 14.31,39.99 5.62,6.74 10.19,14.39 13.43,22.71 3.51,-13.25 4.38,-26.97 2.7,-40.39zm-69.19 -30.76l0 0c-0.03,-0 -0.07,-0 -0.11,-0 -6.21,0 -12.28,0.61 -18.15,1.77 2.88,1.27 5.74,2.64 8.56,4.15 8.91,4.75 17.02,10.39 24.31,16.76 3.12,0.97 6.15,2.14 9.1,3.46 -6.27,-9.82 -14.22,-18.69 -23.71,-26.13zm6.91 0.27l0 0c9.41,8.42 17.16,18.27 23.08,29.02 6.48,3.62 12.43,8.08 17.68,13.26 -2.87,-13.15 -8.23,-25.72 -15.84,-36.95 -7.87,-2.86 -16.23,-4.69 -24.91,-5.33z"/>
   <polygon class="fil1" points="5156.41,2266.96 5170.87,2198.94 5143.33,2198.94 5148.06,2177.08 5233.17,2177.08 5228.42,2198.94 5200.82,2198.94 5186.36,2266.96 "/>
   <polygon class="fil1" points="5152.04,2287.68 5155.17,2273.65 5185.11,2273.65 5181.99,2287.68 "/>
   <path class="fil1" d="M1223.42 1151.21c7.55,59.32 -33.69,103.54 -57.03,142.64 -27.01,45.2 -54.84,84.19 -75.06,124.6 -1,0 -1.98,0 -3.02,0 -19.28,-31.86 -42.77,-70.81 -67.54,-111.11 -23.52,-38.24 -51.99,-75.54 -61.59,-117.12 -40.88,-177.96 241.87,-216.17 264.25,-39.01zm-133.68 -72.17c45.56,0 82.51,36.94 82.51,82.51 0,45.56 -36.94,82.51 -82.51,82.51 -45.56,0 -82.51,-36.94 -82.51,-82.51 0,-45.56 36.94,-82.51 82.51,-82.51z"/>
   <path class="fil2" d="M1089.75 1062.15c55.97,0 101.36,45.39 101.36,101.36 0,56 -45.39,101.4 -101.36,101.4 -56,0 -101.4,-45.39 -101.4,-101.4 0,-55.97 45.39,-101.36 101.4,-101.36z"/>
   <path class="fil3" d="M1164.76 1107.35c6.29,83.09 -83.42,141.17 -156.59,100.51 73.97,55.42 222.16,-14.1 156.59,-100.51z"/>
   <path class="fil3" d="M1008.17 1207.87c20.3,21.78 49.49,36.22 81.62,36.22 43.42,0 87.62,-23.08 92.93,-69.5 -37.43,59.58 -117.86,74.22 -174.55,33.28z"/>
   <path class="fil3" d="M1008.17 1207.87c25.21,43.92 81.9,62.12 126.19,38.35 -52.02,14.48 -93.96,-4.09 -126.19,-38.35z"/>
   <path class="fil3" d="M1080.53 1089.27c5.46,0 10.78,0.56 15.94,1.57 -10.63,-7.33 -22.66,-12.76 -35.61,-15.81 -50.68,16.77 -76.76,72.56 -58.05,121.91 -2.69,-8.11 -4.15,-16.78 -4.15,-25.79 0,-45.21 36.65,-81.87 81.87,-81.87z"/>
   <path class="fil3" d="M1159.54 1101.07c-8.47,-9.35 -18.81,-16.98 -30.44,-22.31 7.5,12.35 12.31,25.98 14.31,39.99 5.62,6.74 10.19,14.39 13.43,22.71 3.51,-13.25 4.38,-26.97 2.7,-40.39zm-69.19 -30.76l0 0c-0.03,-0 -0.07,-0 -0.11,-0 -6.21,0 -12.28,0.61 -18.15,1.77 2.88,1.27 5.74,2.64 8.56,4.15 8.91,4.75 17.02,10.39 24.31,16.76 3.12,0.97 6.15,2.14 9.1,3.46 -6.27,-9.82 -14.22,-18.69 -23.71,-26.13zm6.91 0.27l0 0c9.41,8.42 17.16,18.27 23.08,29.02 6.48,3.62 12.43,8.08 17.68,13.26 -2.87,-13.15 -8.23,-25.72 -15.84,-36.95 -7.87,-2.86 -16.23,-4.69 -24.91,-5.33z"/>
   <polygon class="fil1" points="1045.57,1202.07 1060.03,1134.05 1032.49,1134.05 1037.21,1112.18 1122.33,1112.18 1117.58,1134.05 1089.98,1134.05 1075.52,1202.07 "/>
   <polygon class="fil1" points="1041.2,1222.78 1044.32,1208.76 1074.27,1208.76 1071.15,1222.78 "/>
   <path class="fil1" d="M866.13 570.27c7.55,59.32 -33.69,103.54 -57.03,142.64 -27.01,45.2 -54.84,84.19 -75.06,124.6 -1,0 -1.98,0 -3.02,0 -19.28,-31.86 -42.77,-70.81 -67.54,-111.11 -23.52,-38.24 -51.99,-75.54 -61.59,-117.12 -40.88,-177.96 241.87,-216.17 264.25,-39.01zm-133.68 -72.17c45.56,0 82.51,36.94 82.51,82.51 0,45.56 -36.94,82.51 -82.51,82.51 -45.56,0 -82.51,-36.94 -82.51,-82.51 0,-45.56 36.94,-82.51 82.51,-82.51z"/>
   <path class="fil2" d="M732.46 481.21c55.97,0 101.36,45.39 101.36,101.36 0,56 -45.39,101.4 -101.36,101.4 -56.01,0 -101.4,-45.39 -101.4,-101.4 0,-55.97 45.39,-101.36 101.4,-101.36z"/>
   <path class="fil3" d="M807.48 526.41c6.29,83.09 -83.42,141.17 -156.59,100.51 73.97,55.42 222.16,-14.1 156.59,-100.51z"/>
   <path class="fil3" d="M650.88 626.92c20.3,21.78 49.49,36.22 81.62,36.22 43.42,0 87.62,-23.08 92.93,-69.5 -37.43,59.58 -117.86,74.22 -174.55,33.28z"/>
   <path class="fil3" d="M650.88 626.92c25.21,43.93 81.9,62.12 126.19,38.35 -52.02,14.48 -93.96,-4.09 -126.19,-38.35z"/>
   <path class="fil3" d="M723.24 508.33c5.46,0 10.78,0.56 15.94,1.57 -10.63,-7.33 -22.66,-12.76 -35.61,-15.81 -50.68,16.77 -76.76,72.56 -58.05,121.91 -2.69,-8.11 -4.15,-16.78 -4.15,-25.8 0,-45.21 36.65,-81.87 81.87,-81.87z"/>
   <path class="fil3" d="M802.26 520.13c-8.47,-9.35 -18.81,-16.98 -30.44,-22.31 7.5,12.34 12.31,25.97 14.31,39.99 5.62,6.74 10.19,14.39 13.43,22.71 3.51,-13.25 4.38,-26.97 2.7,-40.39zm-69.19 -30.76l0 0c-0.03,-0 -0.07,-0 -0.11,-0 -6.21,0 -12.28,0.61 -18.15,1.77 2.88,1.27 5.74,2.64 8.56,4.15 8.91,4.75 17.02,10.39 24.31,16.76 3.12,0.97 6.15,2.14 9.1,3.46 -6.27,-9.82 -14.22,-18.69 -23.71,-26.13zm6.91 0.27l0 0c9.41,8.42 17.16,18.27 23.08,29.02 6.48,3.62 12.43,8.08 17.68,13.26 -2.87,-13.15 -8.23,-25.72 -15.84,-36.95 -7.87,-2.86 -16.23,-4.69 -24.91,-5.33z"/>
   <polygon class="fil1" points="688.28,621.13 702.74,553.11 675.2,553.11 679.92,531.24 765.04,531.24 760.29,553.11 732.69,553.11 718.23,621.13 "/>
   <polygon class="fil1" points="683.91,641.84 687.03,627.82 716.98,627.82 713.86,641.84 "/>
   <g>
    <path class="fil1" d="M4439.63 115.22c7.55,59.32 -33.69,103.54 -57.03,142.64 -27.01,45.2 -54.84,84.19 -75.06,124.6 -1,0 -1.98,0 -3.02,0 -19.28,-31.86 -42.77,-70.81 -67.54,-111.11 -23.52,-38.24 -51.99,-75.55 -61.59,-117.12 -40.88,-177.96 241.87,-216.17 264.25,-39.01zm-133.68 -72.17c45.56,0 82.51,36.94 82.51,82.51 0,45.56 -36.94,82.51 -82.51,82.51 -45.56,0 -82.51,-36.94 -82.51,-82.51 0,-45.56 36.94,-82.51 82.51,-82.51z"/>
    <path class="fil2" d="M4305.96 26.16c55.97,0 101.36,45.39 101.36,101.36 0,56.01 -45.39,101.4 -101.36,101.4 -56,0 -101.4,-45.39 -101.4,-101.4 0,-55.97 45.39,-101.36 101.4,-101.36z"/>
    <path class="fil3" d="M4380.98 71.36c6.29,83.09 -83.42,141.17 -156.59,100.51 73.97,55.42 222.16,-14.1 156.59,-100.51z"/>
    <path class="fil3" d="M4224.38 171.88c20.3,21.78 49.49,36.22 81.62,36.22 43.41,0 87.62,-23.08 92.93,-69.5 -37.43,59.58 -117.86,74.22 -174.55,33.28z"/>
    <path class="fil3" d="M4224.38 171.88c25.21,43.93 81.9,62.12 126.19,38.35 -52.02,14.48 -93.96,-4.09 -126.19,-38.35z"/>
    <path class="fil3" d="M4296.74 53.28c5.46,0 10.78,0.55 15.94,1.57 -10.63,-7.33 -22.66,-12.76 -35.61,-15.81 -50.68,16.77 -76.76,72.56 -58.05,121.91 -2.69,-8.11 -4.15,-16.78 -4.15,-25.79 0,-45.22 36.65,-81.87 81.87,-81.87z"/>
    <path class="fil3" d="M4375.76 65.08c-8.47,-9.35 -18.81,-16.98 -30.44,-22.31 7.5,12.34 12.31,25.97 14.31,39.99 5.62,6.74 10.19,14.39 13.43,22.71 3.51,-13.25 4.38,-26.97 2.7,-40.39zm-69.19 -30.76l0 0c-0.03,-0 -0.07,-0 -0.11,-0 -6.21,0 -12.28,0.61 -18.15,1.77 2.88,1.27 5.74,2.64 8.56,4.15 8.91,4.75 17.02,10.39 24.31,16.76 3.12,0.97 6.15,2.14 9.1,3.46 -6.27,-9.82 -14.22,-18.69 -23.71,-26.13zm6.91 0.27l0 0c9.41,8.42 17.16,18.27 23.08,29.02 6.48,3.62 12.43,8.08 17.68,13.26 -2.87,-13.15 -8.23,-25.72 -15.84,-36.95 -7.87,-2.86 -16.23,-4.69 -24.91,-5.33z"/>
    <polygon class="fil1" points="4261.78,166.08 4276.24,98.06 4248.7,98.06 4253.43,76.19 4338.54,76.19 4333.79,98.06 4306.19,98.06 4291.73,166.08 "/>
    <polygon class="fil1" points="4257.41,186.79 4260.53,172.77 4290.48,172.77 4287.36,186.79 "/>
   </g>
   <g>
    <path class="fil1" d="M3170.96 396.59c7.55,59.32 -33.69,103.54 -57.03,142.64 -27.01,45.2 -54.84,84.19 -75.06,124.6 -1,0 -1.98,0 -3.02,0 -19.28,-31.86 -42.77,-70.81 -67.54,-111.11 -23.52,-38.24 -51.99,-75.55 -61.59,-117.12 -40.88,-177.96 241.87,-216.17 264.25,-39.01zm-133.68 -72.17c45.56,0 82.51,36.94 82.51,82.51 0,45.56 -36.94,82.51 -82.51,82.51 -45.56,0 -82.51,-36.94 -82.51,-82.51 0,-45.56 36.94,-82.51 82.51,-82.51z"/>
    <path class="fil2" d="M3037.29 307.52c55.97,0 101.36,45.39 101.36,101.36 0,56 -45.39,101.4 -101.36,101.4 -56.01,0 -101.4,-45.39 -101.4,-101.4 0,-55.97 45.39,-101.36 101.4,-101.36z"/>
    <path class="fil3" d="M3112.31 352.73c6.29,83.09 -83.42,141.17 -156.59,100.51 73.97,55.42 222.16,-14.1 156.59,-100.51z"/>
    <path class="fil3" d="M2955.72 453.24c20.3,21.78 49.49,36.22 81.62,36.22 43.42,0 87.62,-23.08 92.93,-69.5 -37.43,59.58 -117.86,74.22 -174.55,33.28z"/>
    <path class="fil3" d="M2955.72 453.24c25.21,43.92 81.9,62.12 126.19,38.35 -52.02,14.48 -93.96,-4.09 -126.19,-38.35z"/>
    <path class="fil3" d="M3028.07 334.65c5.46,0 10.78,0.55 15.94,1.57 -10.63,-7.33 -22.66,-12.76 -35.61,-15.81 -50.68,16.77 -76.76,72.56 -58.05,121.91 -2.69,-8.11 -4.15,-16.78 -4.15,-25.79 0,-45.22 36.65,-81.87 81.87,-81.87z"/>
    <path class="fil3" d="M3107.09 346.45c-8.47,-9.35 -18.81,-16.98 -30.44,-22.31 7.5,12.34 12.31,25.98 14.31,39.99 5.62,6.74 10.19,14.39 13.43,22.71 3.51,-13.25 4.38,-26.97 2.7,-40.39zm-69.19 -30.76l0 0c-0.03,-0 -0.07,-0 -0.11,-0 -6.21,0 -12.28,0.61 -18.15,1.77 2.88,1.27 5.74,2.64 8.56,4.15 8.91,4.75 17.02,10.39 24.31,16.76 3.12,0.97 6.15,2.14 9.1,3.46 -6.27,-9.82 -14.22,-18.69 -23.71,-26.13zm6.91 0.27l0 0c9.41,8.42 17.16,18.27 23.08,29.02 6.48,3.62 12.43,8.09 17.68,13.26 -2.87,-13.15 -8.23,-25.72 -15.84,-36.95 -7.87,-2.86 -16.23,-4.69 -24.91,-5.33z"/>
    <polygon class="fil1" points="2993.11,447.44 3007.57,379.42 2980.03,379.42 2984.76,357.56 3069.87,357.56 3065.12,379.42 3037.52,379.42 3023.06,447.44 "/>
    <polygon class="fil1" points="2988.74,468.16 2991.87,454.14 3021.81,454.14 3018.69,468.16 "/>
   </g>
   <g>
    <path class="fil1" d="M4985.67 890.82c7.55,59.32 -33.69,103.54 -57.03,142.64 -27.01,45.2 -54.84,84.19 -75.06,124.6 -1,0 -1.98,0 -3.02,0 -19.28,-31.86 -42.77,-70.81 -67.54,-111.11 -23.52,-38.24 -51.99,-75.54 -61.59,-117.12 -40.88,-177.96 241.87,-216.17 264.25,-39.01zm-133.68 -72.17c45.56,0 82.51,36.94 82.51,82.51 0,45.56 -36.94,82.51 -82.51,82.51 -45.56,0 -82.51,-36.94 -82.51,-82.51 0,-45.56 36.94,-82.51 82.51,-82.51z"/>
    <path class="fil2" d="M4852.01 801.76c55.97,0 101.36,45.39 101.36,101.36 0,56 -45.39,101.4 -101.36,101.4 -56,0 -101.4,-45.39 -101.4,-101.4 0,-55.97 45.39,-101.36 101.4,-101.36z"/>
    <path class="fil3" d="M4927.02 846.96c6.29,83.09 -83.42,141.17 -156.59,100.51 73.97,55.42 222.16,-14.1 156.59,-100.51z"/>
    <path class="fil3" d="M4770.43 947.47c20.3,21.78 49.49,36.22 81.62,36.22 43.41,0 87.62,-23.08 92.93,-69.5 -37.43,59.58 -117.86,74.22 -174.55,33.28z"/>
    <path class="fil3" d="M4770.43 947.47c25.21,43.92 81.9,62.12 126.19,38.35 -52.02,14.48 -93.96,-4.09 -126.19,-38.35z"/>
    <path class="fil3" d="M4842.78 828.88c5.46,0 10.78,0.56 15.94,1.57 -10.63,-7.33 -22.66,-12.76 -35.61,-15.81 -50.68,16.77 -76.76,72.56 -58.05,121.91 -2.69,-8.11 -4.15,-16.78 -4.15,-25.79 0,-45.21 36.65,-81.87 81.87,-81.87z"/>
    <path class="fil3" d="M4921.8 840.68c-8.47,-9.35 -18.81,-16.98 -30.44,-22.31 7.5,12.35 12.31,25.98 14.31,39.99 5.62,6.74 10.19,14.39 13.43,22.71 3.51,-13.25 4.38,-26.97 2.7,-40.39zm-69.19 -30.76l0 0c-0.03,-0 -0.07,-0 -0.11,-0 -6.21,0 -12.28,0.61 -18.15,1.77 2.88,1.27 5.74,2.64 8.56,4.15 8.91,4.75 17.02,10.39 24.31,16.76 3.12,0.97 6.15,2.14 9.1,3.46 -6.27,-9.82 -14.22,-18.69 -23.71,-26.13zm6.91 0.27l0 0c9.41,8.42 17.16,18.27 23.08,29.02 6.48,3.62 12.43,8.08 17.68,13.26 -2.87,-13.15 -8.23,-25.72 -15.84,-36.95 -7.87,-2.86 -16.23,-4.69 -24.91,-5.33z"/>
    <polygon class="fil1" points="4807.83,941.68 4822.29,873.66 4794.74,873.66 4799.47,851.79 4884.59,851.79 4879.83,873.66 4852.24,873.66 4837.78,941.68 "/>
    <polygon class="fil1" points="4803.46,962.39 4806.58,948.37 4836.53,948.37 4833.41,962.39 "/>
   </g>
   <g>
    <path class="fil1" d="M2638.26 966.07c7.55,59.32 -33.69,103.54 -57.03,142.64 -27.01,45.2 -54.84,84.19 -75.06,124.6 -1,0 -1.98,0 -3.02,0 -19.28,-31.86 -42.77,-70.81 -67.54,-111.11 -23.52,-38.24 -51.99,-75.55 -61.59,-117.12 -40.88,-177.96 241.87,-216.17 264.25,-39.01zm-133.68 -72.17c45.56,0 82.51,36.94 82.51,82.51 0,45.56 -36.94,82.51 -82.51,82.51 -45.56,0 -82.51,-36.94 -82.51,-82.51 0,-45.56 36.94,-82.51 82.51,-82.51z"/>
    <path class="fil2" d="M2504.6 877.01c55.97,0 101.36,45.39 101.36,101.36 0,56 -45.39,101.4 -101.36,101.4 -56.01,0 -101.4,-45.39 -101.4,-101.4 0,-55.97 45.39,-101.36 101.4,-101.36z"/>
    <path class="fil3" d="M2579.61 922.21c6.29,83.09 -83.42,141.17 -156.59,100.51 73.97,55.42 222.16,-14.1 156.59,-100.51z"/>
    <path class="fil3" d="M2423.02 1022.72c20.3,21.78 49.49,36.22 81.62,36.22 43.42,0 87.62,-23.08 92.93,-69.5 -37.43,59.58 -117.86,74.22 -174.55,33.28z"/>
    <path class="fil3" d="M2423.02 1022.72c25.21,43.93 81.9,62.12 126.19,38.35 -52.02,14.49 -93.96,-4.09 -126.19,-38.35z"/>
    <path class="fil3" d="M2495.37 904.13c5.46,0 10.78,0.55 15.94,1.57 -10.63,-7.33 -22.66,-12.76 -35.61,-15.81 -50.68,16.77 -76.76,72.56 -58.05,121.91 -2.69,-8.11 -4.15,-16.78 -4.15,-25.79 0,-45.22 36.65,-81.87 81.87,-81.87z"/>
    <path class="fil3" d="M2574.39 915.93c-8.47,-9.35 -18.81,-16.98 -30.44,-22.31 7.5,12.34 12.31,25.97 14.31,39.99 5.62,6.74 10.19,14.39 13.43,22.71 3.51,-13.25 4.38,-26.97 2.7,-40.39zm-69.19 -30.75l0 0c-0.03,-0 -0.07,-0 -0.11,-0 -6.21,0 -12.28,0.61 -18.15,1.77 2.88,1.27 5.74,2.64 8.56,4.15 8.91,4.75 17.02,10.39 24.31,16.76 3.12,0.97 6.15,2.14 9.1,3.46 -6.27,-9.82 -14.22,-18.69 -23.71,-26.13zm6.91 0.27l0 0c9.41,8.42 17.16,18.27 23.08,29.02 6.48,3.62 12.43,8.09 17.68,13.26 -2.87,-13.15 -8.23,-25.72 -15.84,-36.95 -7.87,-2.86 -16.23,-4.69 -24.91,-5.33z"/>
    <polygon class="fil1" points="2460.42,1016.93 2474.88,948.91 2447.33,948.91 2452.06,927.04 2537.17,927.04 2532.42,948.91 2504.82,948.91 2490.36,1016.93 "/>
    <polygon class="fil1" points="2456.05,1037.64 2459.17,1023.62 2489.12,1023.62 2485.99,1037.64 "/>
   </g>
   <g>
    <polygon class="fil4" points="1238.23,1308.45 1219.43,1308.45 1203.02,1336.31 1225.85,1336.31 1225.85,1326.21 1238.23,1326.21 "/>
    <polygon class="fil4" points="1216.68,1313.12 1212.39,1320.39 1238.23,1320.39 1238.23,1313.12 "/>
    <polygon class="fil4" points="1267.65,1393.2 1270.18,1393.2 1270.18,1351.64 1267.65,1351.64 "/>
    <polygon class="fil4" points="1272.56,1393.2 1275.09,1393.2 1275.09,1351.64 1272.56,1351.64 "/>
    <polygon class="fil4" points="1277.46,1393.2 1279.99,1393.2 1279.99,1351.64 1277.46,1351.64 "/>
    <polygon class="fil4" points="1282.36,1393.2 1284.9,1393.2 1284.9,1351.64 1282.36,1351.64 "/>
    <polygon class="fil4" points="1287.27,1393.2 1289.8,1393.2 1289.8,1351.64 1287.27,1351.64 "/>
    <polygon class="fil4" points="1292.17,1393.2 1294.7,1393.2 1294.7,1351.64 1292.17,1351.64 "/>
    <polygon class="fil4" points="1297.08,1393.2 1299.61,1393.2 1299.61,1351.64 1297.08,1351.64 "/>
    <polygon class="fil4" points="1301.98,1393.2 1304.51,1393.2 1304.51,1351.64 1301.98,1351.64 "/>
    <polygon class="fil4" points="1306.88,1393.2 1309.42,1393.2 1309.42,1351.64 1306.88,1351.64 "/>
    <polygon class="fil4" points="1311.79,1393.2 1314.32,1393.2 1314.32,1351.64 1311.79,1351.64 "/>
    <polygon class="fil4" points="1316.69,1393.2 1319.22,1393.2 1319.22,1351.64 1316.69,1351.64 "/>
    <polygon class="fil4" points="1321.6,1393.2 1324.13,1393.2 1324.13,1351.64 1321.6,1351.64 "/>
    <polygon class="fil4" points="1326.5,1393.2 1329.03,1393.2 1329.03,1351.64 1326.5,1351.64 "/>
    <polygon class="fil4" points="1331.41,1393.2 1333.94,1393.2 1333.94,1351.64 1331.41,1351.64 "/>
    <polygon class="fil4" points="1336.31,1393.2 1338.84,1393.2 1338.84,1351.64 1336.31,1351.64 "/>
    <polygon class="fil4" points="1341.21,1393.2 1343.74,1393.2 1343.74,1351.64 1341.21,1351.64 "/>
    <polygon class="fil4" points="1346.12,1393.2 1348.65,1393.2 1348.65,1351.64 1346.12,1351.64 "/>
    <polygon class="fil4" points="1351.02,1393.2 1353.55,1393.2 1353.55,1351.64 1351.02,1351.64 "/>
    <polygon class="fil4" points="1355.93,1393.2 1358.46,1393.2 1358.46,1351.64 1355.93,1351.64 "/>
    <polygon class="fil4" points="1360.83,1393.2 1363.36,1393.2 1363.36,1351.64 1360.83,1351.64 "/>
    <polygon class="fil4" points="1365.73,1393.2 1368.26,1393.2 1368.26,1351.64 1365.73,1351.64 "/>
    <path class="fil4" d="M1332.66 1388.36l112.92 0 -4.84 8.56c-21.05,6.66 -52.12,28.41 -67.57,50.51l-193.75 0 -31.14 -44.3 0 -7.29 178.42 0c3.28,0 5.95,-2.36 5.95,-5.24l0 -2.23z"/>
    <path class="fil4" d="M1386.01 1432.4c-4.89,4.87 -9.28,9.94 -12.83,15.02l-193.75 0 -10.56 -15.02 217.14 0z"/>
    <path class="fil2" d="M1397.15 1398.05c1.74,0 2.72,1.58 2.19,3.51 -0.54,1.94 -2.38,3.52 -4.13,3.52 -1.74,0 -2.72,-1.57 -2.2,-3.52 0.53,-1.94 2.38,-3.51 4.13,-3.51z"/>
    <polygon class="fil4" points="1175.88,1395.84 1225.85,1395.84 1225.85,1336.31 1175.88,1336.31 "/>
    <polygon class="fil4" points="1232.27,1341.38 1257.49,1341.38 1257.49,1333.89 1232.27,1333.89 "/>
    <polygon class="fil4" points="1212.59,1359.95 1215.98,1359.95 1215.98,1355.78 1212.59,1355.78 "/>
    <polygon class="fil4" points="1212.59,1378.23 1215.98,1378.23 1215.98,1374.05 1212.59,1374.05 "/>
    <polygon class="fil4" points="1222.06,1359.95 1225.45,1359.95 1225.45,1355.78 1222.06,1355.78 "/>
    <polygon class="fil4" points="1222.06,1369.09 1225.45,1369.09 1225.45,1364.92 1222.06,1364.92 "/>
    <polygon class="fil4" points="1222.06,1378.23 1225.45,1378.23 1225.45,1374.05 1222.06,1374.05 "/>
    <polygon class="fil4" points="1231.53,1359.95 1234.91,1359.95 1234.91,1355.78 1231.53,1355.78 "/>
    <polygon class="fil4" points="1231.53,1369.09 1234.91,1369.09 1234.91,1364.92 1231.53,1364.92 "/>
    <polygon class="fil4" points="1231.53,1378.23 1234.91,1378.23 1234.91,1374.05 1231.53,1374.05 "/>
    <polygon class="fil4" points="1241,1359.95 1244.38,1359.95 1244.38,1355.78 1241,1355.78 "/>
    <polygon class="fil4" points="1241,1369.09 1244.38,1369.09 1244.38,1364.92 1241,1364.92 "/>
    <polygon class="fil4" points="1241,1378.23 1244.38,1378.23 1244.38,1374.05 1241,1374.05 "/>
    <path class="fil2" d="M1209.93 1415.8c3,0 5.45,-2.15 5.45,-4.8 0,-2.64 -2.45,-4.8 -5.45,-4.8 -3,0 -5.45,2.16 -5.45,4.8 0,2.64 2.45,4.8 5.45,4.8z"/>
    <path class="fil2" d="M1232.61 1415.8c3,0 5.45,-2.15 5.45,-4.8 0,-2.64 -2.45,-4.8 -5.45,-4.8 -3,0 -5.45,2.16 -5.45,4.8 0,2.64 2.45,4.8 5.45,4.8z"/>
    <path class="fil2" d="M1255.29 1415.8c3,0 5.45,-2.15 5.45,-4.8 0,-2.64 -2.45,-4.8 -5.45,-4.8 -3,0 -5.45,2.16 -5.45,4.8 0,2.64 2.45,4.8 5.45,4.8z"/>
    <path class="fil2" d="M1277.98 1415.8c3,0 5.45,-2.15 5.45,-4.8 0,-2.64 -2.45,-4.8 -5.45,-4.8 -3,0 -5.45,2.16 -5.45,4.8 0,2.64 2.45,4.8 5.45,4.8z"/>
    <path class="fil2" d="M1300.66 1415.8c3,0 5.45,-2.15 5.45,-4.8 0,-2.64 -2.45,-4.8 -5.45,-4.8 -3,0 -5.45,2.16 -5.45,4.8 0,2.64 2.45,4.8 5.45,4.8z"/>
    <path class="fil2" d="M1323.34 1415.8c3,0 5.45,-2.15 5.45,-4.8 0,-2.64 -2.45,-4.8 -5.45,-4.8 -3,0 -5.45,2.16 -5.45,4.8 0,2.64 2.45,4.8 5.45,4.8z"/>
    <path class="fil2" d="M1346.03 1415.8c3,0 5.45,-2.15 5.45,-4.8 0,-2.64 -2.45,-4.8 -5.45,-4.8 -3,0 -5.45,2.16 -5.45,4.8 0,2.64 2.45,4.8 5.45,4.8z"/>
   </g>
   <g>
    <polygon class="fil4" points="3238.48,183.27 3220.19,183.27 3204.22,210.38 3226.43,210.38 3226.43,200.56 3238.48,200.56 "/>
    <polygon class="fil4" points="3217.51,187.82 3213.34,194.9 3238.48,194.9 3238.48,187.82 "/>
    <polygon class="fil4" points="3267.1,265.73 3269.56,265.73 3269.56,225.29 3267.1,225.29 "/>
    <polygon class="fil4" points="3271.87,265.73 3274.33,265.73 3274.33,225.29 3271.87,225.29 "/>
    <polygon class="fil4" points="3276.64,265.73 3279.1,265.73 3279.1,225.29 3276.64,225.29 "/>
    <polygon class="fil4" points="3281.41,265.73 3283.87,265.73 3283.87,225.29 3281.41,225.29 "/>
    <polygon class="fil4" points="3286.18,265.73 3288.65,265.73 3288.65,225.29 3286.18,225.29 "/>
    <polygon class="fil4" points="3290.95,265.73 3293.42,265.73 3293.42,225.29 3290.95,225.29 "/>
    <polygon class="fil4" points="3295.73,265.73 3298.19,265.73 3298.19,225.29 3295.73,225.29 "/>
    <polygon class="fil4" points="3300.5,265.73 3302.96,265.73 3302.96,225.29 3300.5,225.29 "/>
    <polygon class="fil4" points="3305.27,265.73 3307.73,265.73 3307.73,225.29 3305.27,225.29 "/>
    <polygon class="fil4" points="3310.04,265.73 3312.5,265.73 3312.5,225.29 3310.04,225.29 "/>
    <polygon class="fil4" points="3314.81,265.73 3317.27,265.73 3317.27,225.29 3314.81,225.29 "/>
    <polygon class="fil4" points="3319.58,265.73 3322.04,265.73 3322.04,225.29 3319.58,225.29 "/>
    <polygon class="fil4" points="3324.35,265.73 3326.81,265.73 3326.81,225.29 3324.35,225.29 "/>
    <polygon class="fil4" points="3329.12,265.73 3331.59,265.73 3331.59,225.29 3329.12,225.29 "/>
    <polygon class="fil4" points="3333.89,265.73 3336.35,265.73 3336.35,225.29 3333.89,225.29 "/>
    <polygon class="fil4" points="3338.66,265.73 3341.12,265.73 3341.12,225.29 3338.66,225.29 "/>
    <polygon class="fil4" points="3343.43,265.73 3345.9,265.73 3345.9,225.29 3343.43,225.29 "/>
    <polygon class="fil4" points="3348.21,265.73 3350.67,265.73 3350.67,225.29 3348.21,225.29 "/>
    <polygon class="fil4" points="3352.98,265.73 3355.44,265.73 3355.44,225.29 3352.98,225.29 "/>
    <polygon class="fil4" points="3357.75,265.73 3360.21,265.73 3360.21,225.29 3357.75,225.29 "/>
    <polygon class="fil4" points="3362.52,265.73 3364.98,265.73 3364.98,225.29 3362.52,225.29 "/>
    <path class="fil4" d="M3330.34 261.02l109.85 0 -4.71 8.33c-20.48,6.48 -50.71,27.64 -65.73,49.13l-188.49 0 -30.3 -43.09 0 -7.09 173.58 0c3.19,0 5.79,-2.3 5.79,-5.1l0 -2.17z"/>
    <path class="fil4" d="M3382.24 303.86c-4.76,4.74 -9.03,9.67 -12.49,14.62l-188.49 0 -10.27 -14.62 211.25 0z"/>
    <path class="fil2" d="M3393.08 270.44c1.69,0 2.65,1.53 2.13,3.42 -0.52,1.89 -2.32,3.42 -4.01,3.42 -1.7,0 -2.65,-1.53 -2.14,-3.42 0.52,-1.88 2.32,-3.42 4.02,-3.42z"/>
    <polygon class="fil4" points="3177.82,268.29 3226.43,268.29 3226.43,210.39 3177.82,210.39 "/>
    <polygon class="fil4" points="3232.68,215.32 3257.21,215.32 3257.21,208.03 3232.68,208.03 "/>
    <polygon class="fil4" points="3213.54,233.38 3216.83,233.38 3216.83,229.32 3213.54,229.32 "/>
    <polygon class="fil4" points="3213.54,251.16 3216.83,251.16 3216.83,247.1 3213.54,247.1 "/>
    <polygon class="fil4" points="3222.75,233.38 3226.04,233.38 3226.04,229.32 3222.75,229.32 "/>
    <polygon class="fil4" points="3222.75,242.27 3226.04,242.27 3226.04,238.21 3222.75,238.21 "/>
    <polygon class="fil4" points="3222.75,251.16 3226.04,251.16 3226.04,247.1 3222.75,247.1 "/>
    <polygon class="fil4" points="3231.96,233.38 3235.25,233.38 3235.25,229.32 3231.96,229.32 "/>
    <polygon class="fil4" points="3231.96,242.27 3235.25,242.27 3235.25,238.21 3231.96,238.21 "/>
    <polygon class="fil4" points="3231.96,251.16 3235.25,251.16 3235.25,247.1 3231.96,247.1 "/>
    <polygon class="fil4" points="3241.17,233.38 3244.46,233.38 3244.46,229.32 3241.17,229.32 "/>
    <polygon class="fil4" points="3241.17,242.27 3244.46,242.27 3244.46,238.21 3241.17,238.21 "/>
    <polygon class="fil4" points="3241.17,251.16 3244.46,251.16 3244.46,247.1 3241.17,247.1 "/>
    <path class="fil2" d="M3210.94 287.71c2.92,0 5.3,-2.1 5.3,-4.67 0,-2.57 -2.38,-4.67 -5.3,-4.67 -2.92,0 -5.3,2.1 -5.3,4.67 0,2.57 2.38,4.67 5.3,4.67z"/>
    <path class="fil2" d="M3233.01 287.71c2.92,0 5.3,-2.1 5.3,-4.67 0,-2.57 -2.38,-4.67 -5.3,-4.67 -2.92,0 -5.3,2.1 -5.3,4.67 0,2.57 2.38,4.67 5.3,4.67z"/>
    <path class="fil2" d="M3255.08 287.71c2.92,0 5.3,-2.1 5.3,-4.67 0,-2.57 -2.38,-4.67 -5.3,-4.67 -2.92,0 -5.3,2.1 -5.3,4.67 0,2.57 2.38,4.67 5.3,4.67z"/>
    <path class="fil2" d="M3277.15 287.71c2.92,0 5.3,-2.1 5.3,-4.67 0,-2.57 -2.38,-4.67 -5.3,-4.67 -2.92,0 -5.3,2.1 -5.3,4.67 0,2.57 2.38,4.67 5.3,4.67z"/>
    <path class="fil2" d="M3299.21 287.71c2.92,0 5.3,-2.1 5.3,-4.67 0,-2.57 -2.38,-4.67 -5.3,-4.67 -2.92,0 -5.3,2.1 -5.3,4.67 0,2.57 2.38,4.67 5.3,4.67z"/>
    <path class="fil2" d="M3321.28 287.71c2.92,0 5.3,-2.1 5.3,-4.67 0,-2.57 -2.38,-4.67 -5.3,-4.67 -2.92,0 -5.3,2.1 -5.3,4.67 0,2.57 2.38,4.67 5.3,4.67z"/>
    <path class="fil2" d="M3343.35 287.71c2.92,0 5.3,-2.1 5.3,-4.67 0,-2.57 -2.38,-4.67 -5.3,-4.67 -2.92,0 -5.3,2.1 -5.3,4.67 0,2.57 2.38,4.67 5.3,4.67z"/>
   </g>
   <g>
    <polygon class="fil4" points="2161.14,1131.82 2142.85,1131.82 2126.88,1158.93 2149.09,1158.93 2149.09,1149.11 2161.14,1149.11 "/>
    <polygon class="fil4" points="2140.17,1136.37 2136,1143.45 2161.14,1143.45 2161.14,1136.37 "/>
    <polygon class="fil4" points="2189.76,1214.28 2192.22,1214.28 2192.22,1173.84 2189.76,1173.84 "/>
    <polygon class="fil4" points="2194.53,1214.28 2196.99,1214.28 2196.99,1173.84 2194.53,1173.84 "/>
    <polygon class="fil4" points="2199.3,1214.28 2201.76,1214.28 2201.76,1173.84 2199.3,1173.84 "/>
    <polygon class="fil4" points="2204.07,1214.28 2206.53,1214.28 2206.53,1173.84 2204.07,1173.84 "/>
    <polygon class="fil4" points="2208.84,1214.28 2211.31,1214.28 2211.31,1173.84 2208.84,1173.84 "/>
    <polygon class="fil4" points="2213.61,1214.28 2216.08,1214.28 2216.08,1173.84 2213.61,1173.84 "/>
    <polygon class="fil4" points="2218.38,1214.28 2220.85,1214.28 2220.85,1173.84 2218.38,1173.84 "/>
    <polygon class="fil4" points="2223.15,1214.28 2225.62,1214.28 2225.62,1173.84 2223.15,1173.84 "/>
    <polygon class="fil4" points="2227.93,1214.28 2230.39,1214.28 2230.39,1173.84 2227.93,1173.84 "/>
    <polygon class="fil4" points="2232.7,1214.28 2235.16,1214.28 2235.16,1173.84 2232.7,1173.84 "/>
    <polygon class="fil4" points="2237.47,1214.28 2239.93,1214.28 2239.93,1173.84 2237.47,1173.84 "/>
    <polygon class="fil4" points="2242.24,1214.28 2244.7,1214.28 2244.7,1173.84 2242.24,1173.84 "/>
    <polygon class="fil4" points="2247.01,1214.28 2249.47,1214.28 2249.47,1173.84 2247.01,1173.84 "/>
    <polygon class="fil4" points="2251.78,1214.28 2254.24,1214.28 2254.24,1173.84 2251.78,1173.84 "/>
    <polygon class="fil4" points="2256.55,1214.28 2259.01,1214.28 2259.01,1173.84 2256.55,1173.84 "/>
    <polygon class="fil4" points="2261.32,1214.28 2263.78,1214.28 2263.78,1173.84 2261.32,1173.84 "/>
    <polygon class="fil4" points="2266.09,1214.28 2268.56,1214.28 2268.56,1173.84 2266.09,1173.84 "/>
    <polygon class="fil4" points="2270.86,1214.28 2273.33,1214.28 2273.33,1173.84 2270.86,1173.84 "/>
    <polygon class="fil4" points="2275.64,1214.28 2278.1,1214.28 2278.1,1173.84 2275.64,1173.84 "/>
    <polygon class="fil4" points="2280.41,1214.28 2282.87,1214.28 2282.87,1173.84 2280.41,1173.84 "/>
    <polygon class="fil4" points="2285.18,1214.28 2287.64,1214.28 2287.64,1173.84 2285.18,1173.84 "/>
    <path class="fil4" d="M2253 1209.57l109.85 0 -4.71 8.33c-20.48,6.48 -50.71,27.64 -65.73,49.13l-188.49 0 -30.3 -43.09 0 -7.09 173.58 0c3.19,0 5.79,-2.3 5.79,-5.1l0 -2.17z"/>
    <path class="fil4" d="M2304.9 1252.41c-4.76,4.74 -9.03,9.67 -12.49,14.62l-188.49 0 -10.28 -14.62 211.25 0z"/>
    <path class="fil2" d="M2315.74 1218.99c1.69,0 2.65,1.53 2.13,3.42 -0.52,1.89 -2.32,3.42 -4.01,3.42 -1.7,0 -2.65,-1.53 -2.14,-3.42 0.52,-1.88 2.32,-3.42 4.02,-3.42z"/>
    <polygon class="fil4" points="2100.47,1216.84 2149.09,1216.84 2149.09,1158.94 2100.47,1158.94 "/>
    <polygon class="fil4" points="2155.34,1163.87 2179.87,1163.87 2179.87,1156.58 2155.34,1156.58 "/>
    <polygon class="fil4" points="2136.2,1181.93 2139.49,1181.93 2139.49,1177.87 2136.2,1177.87 "/>
    <polygon class="fil4" points="2136.2,1199.71 2139.49,1199.71 2139.49,1195.65 2136.2,1195.65 "/>
    <polygon class="fil4" points="2145.41,1181.93 2148.7,1181.93 2148.7,1177.87 2145.41,1177.87 "/>
    <polygon class="fil4" points="2145.41,1190.82 2148.7,1190.82 2148.7,1186.76 2145.41,1186.76 "/>
    <polygon class="fil4" points="2145.41,1199.71 2148.7,1199.71 2148.7,1195.65 2145.41,1195.65 "/>
    <polygon class="fil4" points="2154.62,1181.93 2157.91,1181.93 2157.91,1177.87 2154.62,1177.87 "/>
    <polygon class="fil4" points="2154.62,1190.82 2157.91,1190.82 2157.91,1186.76 2154.62,1186.76 "/>
    <polygon class="fil4" points="2154.62,1199.71 2157.91,1199.71 2157.91,1195.65 2154.62,1195.65 "/>
    <polygon class="fil4" points="2163.83,1181.93 2167.12,1181.93 2167.12,1177.87 2163.83,1177.87 "/>
    <polygon class="fil4" points="2163.83,1190.82 2167.12,1190.82 2167.12,1186.76 2163.83,1186.76 "/>
    <polygon class="fil4" points="2163.83,1199.71 2167.12,1199.71 2167.12,1195.65 2163.83,1195.65 "/>
    <path class="fil2" d="M2133.6 1236.26c2.92,0 5.3,-2.1 5.3,-4.67 0,-2.57 -2.38,-4.67 -5.3,-4.67 -2.92,0 -5.3,2.1 -5.3,4.67 0,2.57 2.38,4.67 5.3,4.67z"/>
    <path class="fil2" d="M2155.67 1236.26c2.92,0 5.3,-2.1 5.3,-4.67 0,-2.57 -2.38,-4.67 -5.3,-4.67 -2.92,0 -5.3,2.1 -5.3,4.67 0,2.57 2.38,4.67 5.3,4.67z"/>
    <path class="fil2" d="M2177.74 1236.26c2.92,0 5.3,-2.1 5.3,-4.67 0,-2.57 -2.38,-4.67 -5.3,-4.67 -2.92,0 -5.3,2.1 -5.3,4.67 0,2.57 2.38,4.67 5.3,4.67z"/>
    <path class="fil2" d="M2199.8 1236.26c2.92,0 5.3,-2.1 5.3,-4.67 0,-2.57 -2.38,-4.67 -5.3,-4.67 -2.92,0 -5.3,2.1 -5.3,4.67 0,2.57 2.38,4.67 5.3,4.67z"/>
    <path class="fil2" d="M2221.87 1236.26c2.92,0 5.3,-2.1 5.3,-4.67 0,-2.57 -2.38,-4.67 -5.3,-4.67 -2.92,0 -5.3,2.1 -5.3,4.67 0,2.57 2.38,4.67 5.3,4.67z"/>
    <path class="fil2" d="M2243.93 1236.26c2.92,0 5.3,-2.1 5.3,-4.67 0,-2.57 -2.38,-4.67 -5.3,-4.67 -2.92,0 -5.3,2.1 -5.3,4.67 0,2.57 2.38,4.67 5.3,4.67z"/>
    <path class="fil2" d="M2266 1236.26c2.92,0 5.3,-2.1 5.3,-4.67 0,-2.57 -2.38,-4.67 -5.3,-4.67 -2.92,0 -5.3,2.1 -5.3,4.67 0,2.57 2.38,4.67 5.3,4.67z"/>
   </g>
   <g>
    <polygon class="fil4" points="2578.46,1699.28 2560.17,1699.28 2544.2,1726.39 2566.41,1726.39 2566.41,1716.57 2578.46,1716.57 "/>
    <polygon class="fil4" points="2557.49,1703.83 2553.32,1710.9 2578.46,1710.9 2578.46,1703.83 "/>
    <polygon class="fil4" points="2607.08,1781.73 2609.54,1781.73 2609.54,1741.3 2607.08,1741.3 "/>
    <polygon class="fil4" points="2611.85,1781.73 2614.31,1781.73 2614.31,1741.3 2611.85,1741.3 "/>
    <polygon class="fil4" points="2616.62,1781.73 2619.08,1781.73 2619.08,1741.3 2616.62,1741.3 "/>
    <polygon class="fil4" points="2621.39,1781.73 2623.85,1781.73 2623.85,1741.3 2621.39,1741.3 "/>
    <polygon class="fil4" points="2626.16,1781.73 2628.62,1781.73 2628.62,1741.3 2626.16,1741.3 "/>
    <polygon class="fil4" points="2630.93,1781.73 2633.39,1781.73 2633.39,1741.3 2630.93,1741.3 "/>
    <polygon class="fil4" points="2635.7,1781.73 2638.16,1781.73 2638.16,1741.3 2635.7,1741.3 "/>
    <polygon class="fil4" points="2640.47,1781.73 2642.94,1781.73 2642.94,1741.3 2640.47,1741.3 "/>
    <polygon class="fil4" points="2645.24,1781.73 2647.71,1781.73 2647.71,1741.3 2645.24,1741.3 "/>
    <polygon class="fil4" points="2650.01,1781.73 2652.48,1781.73 2652.48,1741.3 2650.01,1741.3 "/>
    <polygon class="fil4" points="2654.79,1781.73 2657.25,1781.73 2657.25,1741.3 2654.79,1741.3 "/>
    <polygon class="fil4" points="2659.56,1781.73 2662.02,1781.73 2662.02,1741.3 2659.56,1741.3 "/>
    <polygon class="fil4" points="2664.33,1781.73 2666.79,1781.73 2666.79,1741.3 2664.33,1741.3 "/>
    <polygon class="fil4" points="2669.1,1781.73 2671.56,1781.73 2671.56,1741.3 2669.1,1741.3 "/>
    <polygon class="fil4" points="2673.87,1781.73 2676.33,1781.73 2676.33,1741.3 2673.87,1741.3 "/>
    <polygon class="fil4" points="2678.64,1781.73 2681.1,1781.73 2681.1,1741.3 2678.64,1741.3 "/>
    <polygon class="fil4" points="2683.41,1781.73 2685.87,1781.73 2685.87,1741.3 2683.41,1741.3 "/>
    <polygon class="fil4" points="2688.18,1781.73 2690.64,1781.73 2690.64,1741.3 2688.18,1741.3 "/>
    <polygon class="fil4" points="2692.95,1781.73 2695.42,1781.73 2695.42,1741.3 2692.95,1741.3 "/>
    <polygon class="fil4" points="2697.72,1781.73 2700.19,1781.73 2700.19,1741.3 2697.72,1741.3 "/>
    <polygon class="fil4" points="2702.49,1781.73 2704.95,1781.73 2704.95,1741.3 2702.49,1741.3 "/>
    <path class="fil4" d="M2670.32 1777.02l109.85 0 -4.71 8.33c-20.48,6.48 -50.71,27.64 -65.73,49.13l-188.49 0 -30.3 -43.09 0 -7.09 173.58 0c3.19,0 5.79,-2.3 5.79,-5.1l0 -2.17z"/>
    <path class="fil4" d="M2722.22 1819.87c-4.76,4.74 -9.03,9.67 -12.49,14.61l-188.49 0 -10.28 -14.61 211.25 0z"/>
    <path class="fil2" d="M2733.06 1786.45c1.69,0 2.65,1.53 2.13,3.42 -0.52,1.89 -2.32,3.42 -4.01,3.42 -1.7,0 -2.65,-1.53 -2.14,-3.42 0.52,-1.88 2.32,-3.42 4.02,-3.42z"/>
    <polygon class="fil4" points="2517.79,1784.3 2566.41,1784.3 2566.41,1726.39 2517.79,1726.39 "/>
    <polygon class="fil4" points="2572.66,1731.32 2597.19,1731.32 2597.19,1724.03 2572.66,1724.03 "/>
    <polygon class="fil4" points="2553.51,1749.39 2556.8,1749.39 2556.8,1745.33 2553.51,1745.33 "/>
    <polygon class="fil4" points="2553.51,1767.17 2556.8,1767.17 2556.8,1763.1 2553.51,1763.1 "/>
    <polygon class="fil4" points="2562.73,1749.39 2566.02,1749.39 2566.02,1745.33 2562.73,1745.33 "/>
    <polygon class="fil4" points="2562.73,1758.28 2566.02,1758.28 2566.02,1754.22 2562.73,1754.22 "/>
    <polygon class="fil4" points="2562.73,1767.17 2566.02,1767.17 2566.02,1763.1 2562.73,1763.1 "/>
    <polygon class="fil4" points="2571.94,1749.39 2575.23,1749.39 2575.23,1745.33 2571.94,1745.33 "/>
    <polygon class="fil4" points="2571.94,1758.28 2575.23,1758.28 2575.23,1754.22 2571.94,1754.22 "/>
    <polygon class="fil4" points="2571.94,1767.17 2575.23,1767.17 2575.23,1763.1 2571.94,1763.1 "/>
    <polygon class="fil4" points="2581.15,1749.39 2584.44,1749.39 2584.44,1745.33 2581.15,1745.33 "/>
    <polygon class="fil4" points="2581.15,1758.28 2584.44,1758.28 2584.44,1754.22 2581.15,1754.22 "/>
    <polygon class="fil4" points="2581.15,1767.17 2584.44,1767.17 2584.44,1763.1 2581.15,1763.1 "/>
    <path class="fil2" d="M2550.92 1803.72c2.92,0 5.3,-2.1 5.3,-4.67 0,-2.57 -2.38,-4.67 -5.3,-4.67 -2.92,0 -5.3,2.1 -5.3,4.67 0,2.57 2.38,4.67 5.3,4.67z"/>
    <path class="fil2" d="M2572.99 1803.72c2.92,0 5.3,-2.1 5.3,-4.67 0,-2.57 -2.38,-4.67 -5.3,-4.67 -2.92,0 -5.3,2.1 -5.3,4.67 0,2.57 2.38,4.67 5.3,4.67z"/>
    <path class="fil2" d="M2595.05 1803.72c2.92,0 5.3,-2.1 5.3,-4.67 0,-2.57 -2.38,-4.67 -5.3,-4.67 -2.92,0 -5.3,2.1 -5.3,4.67 0,2.57 2.38,4.67 5.3,4.67z"/>
    <path class="fil2" d="M2617.12 1803.72c2.92,0 5.3,-2.1 5.3,-4.67 0,-2.57 -2.38,-4.67 -5.3,-4.67 -2.92,0 -5.3,2.1 -5.3,4.67 0,2.57 2.38,4.67 5.3,4.67z"/>
    <path class="fil2" d="M2639.19 1803.72c2.92,0 5.3,-2.1 5.3,-4.67 0,-2.57 -2.38,-4.67 -5.3,-4.67 -2.92,0 -5.3,2.1 -5.3,4.67 0,2.57 2.38,4.67 5.3,4.67z"/>
    <path class="fil2" d="M2661.25 1803.72c2.92,0 5.3,-2.1 5.3,-4.67 0,-2.57 -2.38,-4.67 -5.3,-4.67 -2.92,0 -5.3,2.1 -5.3,4.67 0,2.57 2.38,4.67 5.3,4.67z"/>
    <path class="fil2" d="M2683.32 1803.72c2.92,0 5.3,-2.1 5.3,-4.67 0,-2.57 -2.38,-4.67 -5.3,-4.67 -2.92,0 -5.3,2.1 -5.3,4.67 0,2.57 2.38,4.67 5.3,4.67z"/>
   </g>
   <g>
    <polygon class="fil4" points="4821.94,2098.58 4803.65,2098.58 4787.68,2125.69 4809.89,2125.69 4809.89,2115.87 4821.94,2115.87 "/>
    <polygon class="fil4" points="4800.97,2103.13 4796.8,2110.21 4821.94,2110.21 4821.94,2103.13 "/>
    <polygon class="fil4" points="4850.56,2181.03 4853.02,2181.03 4853.02,2140.6 4850.56,2140.6 "/>
    <polygon class="fil4" points="4855.33,2181.03 4857.79,2181.03 4857.79,2140.6 4855.33,2140.6 "/>
    <polygon class="fil4" points="4860.1,2181.03 4862.56,2181.03 4862.56,2140.6 4860.1,2140.6 "/>
    <polygon class="fil4" points="4864.87,2181.03 4867.33,2181.03 4867.33,2140.6 4864.87,2140.6 "/>
    <polygon class="fil4" points="4869.64,2181.03 4872.11,2181.03 4872.11,2140.6 4869.64,2140.6 "/>
    <polygon class="fil4" points="4874.41,2181.03 4876.88,2181.03 4876.88,2140.6 4874.41,2140.6 "/>
    <polygon class="fil4" points="4879.18,2181.03 4881.65,2181.03 4881.65,2140.6 4879.18,2140.6 "/>
    <polygon class="fil4" points="4883.95,2181.03 4886.42,2181.03 4886.42,2140.6 4883.95,2140.6 "/>
    <polygon class="fil4" points="4888.73,2181.03 4891.19,2181.03 4891.19,2140.6 4888.73,2140.6 "/>
    <polygon class="fil4" points="4893.5,2181.03 4895.96,2181.03 4895.96,2140.6 4893.5,2140.6 "/>
    <polygon class="fil4" points="4898.27,2181.03 4900.73,2181.03 4900.73,2140.6 4898.27,2140.6 "/>
    <polygon class="fil4" points="4903.04,2181.03 4905.5,2181.03 4905.5,2140.6 4903.04,2140.6 "/>
    <polygon class="fil4" points="4907.81,2181.03 4910.27,2181.03 4910.27,2140.6 4907.81,2140.6 "/>
    <polygon class="fil4" points="4912.58,2181.03 4915.04,2181.03 4915.04,2140.6 4912.58,2140.6 "/>
    <polygon class="fil4" points="4917.35,2181.03 4919.81,2181.03 4919.81,2140.6 4917.35,2140.6 "/>
    <polygon class="fil4" points="4922.12,2181.03 4924.58,2181.03 4924.58,2140.6 4922.12,2140.6 "/>
    <polygon class="fil4" points="4926.89,2181.03 4929.36,2181.03 4929.36,2140.6 4926.89,2140.6 "/>
    <polygon class="fil4" points="4931.66,2181.03 4934.13,2181.03 4934.13,2140.6 4931.66,2140.6 "/>
    <polygon class="fil4" points="4936.44,2181.03 4938.9,2181.03 4938.9,2140.6 4936.44,2140.6 "/>
    <polygon class="fil4" points="4941.21,2181.03 4943.67,2181.03 4943.67,2140.6 4941.21,2140.6 "/>
    <polygon class="fil4" points="4945.97,2181.03 4948.44,2181.03 4948.44,2140.6 4945.97,2140.6 "/>
    <path class="fil4" d="M4913.8 2176.33l109.85 0 -4.71 8.33c-20.48,6.48 -50.71,27.64 -65.73,49.13l-188.49 0 -30.3 -43.09 0 -7.09 173.58 0c3.19,0 5.79,-2.3 5.79,-5.1l0 -2.17z"/>
    <path class="fil4" d="M4965.7 2219.17c-4.76,4.74 -9.03,9.67 -12.49,14.62l-188.49 0 -10.27 -14.62 211.25 0z"/>
    <path class="fil2" d="M4976.54 2185.75c1.69,0 2.65,1.53 2.13,3.42 -0.52,1.89 -2.32,3.42 -4.01,3.42 -1.7,0 -2.65,-1.53 -2.14,-3.42 0.52,-1.88 2.32,-3.42 4.02,-3.42z"/>
    <polygon class="fil4" points="4761.27,2183.6 4809.89,2183.6 4809.89,2125.69 4761.27,2125.69 "/>
    <polygon class="fil4" points="4816.14,2130.62 4840.67,2130.62 4840.67,2123.33 4816.14,2123.33 "/>
    <polygon class="fil4" points="4797,2148.69 4800.28,2148.69 4800.28,2144.63 4797,2144.63 "/>
    <polygon class="fil4" points="4797,2166.47 4800.28,2166.47 4800.28,2162.41 4797,2162.41 "/>
    <polygon class="fil4" points="4806.21,2148.69 4809.5,2148.69 4809.5,2144.63 4806.21,2144.63 "/>
    <polygon class="fil4" points="4806.21,2157.58 4809.5,2157.58 4809.5,2153.52 4806.21,2153.52 "/>
    <polygon class="fil4" points="4806.21,2166.47 4809.5,2166.47 4809.5,2162.41 4806.21,2162.41 "/>
    <polygon class="fil4" points="4815.42,2148.69 4818.71,2148.69 4818.71,2144.63 4815.42,2144.63 "/>
    <polygon class="fil4" points="4815.42,2157.58 4818.71,2157.58 4818.71,2153.52 4815.42,2153.52 "/>
    <polygon class="fil4" points="4815.42,2166.47 4818.71,2166.47 4818.71,2162.41 4815.42,2162.41 "/>
    <polygon class="fil4" points="4824.63,2148.69 4827.92,2148.69 4827.92,2144.63 4824.63,2144.63 "/>
    <polygon class="fil4" points="4824.63,2157.58 4827.92,2157.58 4827.92,2153.52 4824.63,2153.52 "/>
    <polygon class="fil4" points="4824.63,2166.47 4827.92,2166.47 4827.92,2162.41 4824.63,2162.41 "/>
    <path class="fil2" d="M4794.4 2203.02c2.92,0 5.3,-2.1 5.3,-4.67 0,-2.57 -2.38,-4.67 -5.3,-4.67 -2.92,0 -5.3,2.1 -5.3,4.67 0,2.57 2.38,4.67 5.3,4.67z"/>
    <path class="fil2" d="M4816.47 2203.02c2.92,0 5.3,-2.1 5.3,-4.67 0,-2.57 -2.38,-4.67 -5.3,-4.67 -2.92,0 -5.3,2.1 -5.3,4.67 0,2.57 2.38,4.67 5.3,4.67z"/>
    <path class="fil2" d="M4838.54 2203.02c2.92,0 5.3,-2.1 5.3,-4.67 0,-2.57 -2.38,-4.67 -5.3,-4.67 -2.92,0 -5.3,2.1 -5.3,4.67 0,2.57 2.38,4.67 5.3,4.67z"/>
    <path class="fil2" d="M4860.6 2203.02c2.92,0 5.3,-2.1 5.3,-4.67 0,-2.57 -2.38,-4.67 -5.3,-4.67 -2.92,0 -5.3,2.1 -5.3,4.67 0,2.57 2.38,4.67 5.3,4.67z"/>
    <path class="fil2" d="M4882.67 2203.02c2.92,0 5.3,-2.1 5.3,-4.67 0,-2.57 -2.38,-4.67 -5.3,-4.67 -2.92,0 -5.3,2.1 -5.3,4.67 0,2.57 2.38,4.67 5.3,4.67z"/>
    <path class="fil2" d="M4904.73 2203.02c2.92,0 5.3,-2.1 5.3,-4.67 0,-2.57 -2.38,-4.67 -5.3,-4.67 -2.92,0 -5.3,2.1 -5.3,4.67 0,2.57 2.38,4.67 5.3,4.67z"/>
    <path class="fil2" d="M4926.8 2203.02c2.92,0 5.3,-2.1 5.3,-4.67 0,-2.57 -2.38,-4.67 -5.3,-4.67 -2.92,0 -5.3,2.1 -5.3,4.67 0,2.57 2.38,4.67 5.3,4.67z"/>
   </g>
   <g>
    <polygon class="fil4" points="4561.51,102.31 4543.23,102.31 4527.25,129.42 4549.47,129.42 4549.47,119.6 4561.51,119.6 "/>
    <polygon class="fil4" points="4540.54,106.86 4536.37,113.94 4561.51,113.94 4561.51,106.86 "/>
    <polygon class="fil4" points="4590.14,184.77 4592.6,184.77 4592.6,144.33 4590.14,144.33 "/>
    <polygon class="fil4" points="4594.91,184.77 4597.37,184.77 4597.37,144.33 4594.91,144.33 "/>
    <polygon class="fil4" points="4599.68,184.77 4602.14,184.77 4602.14,144.33 4599.68,144.33 "/>
    <polygon class="fil4" points="4604.45,184.77 4606.91,184.77 4606.91,144.33 4604.45,144.33 "/>
    <polygon class="fil4" points="4609.22,184.77 4611.68,184.77 4611.68,144.33 4609.22,144.33 "/>
    <polygon class="fil4" points="4613.99,184.77 4616.45,184.77 4616.45,144.33 4613.99,144.33 "/>
    <polygon class="fil4" points="4618.76,184.77 4621.22,184.77 4621.22,144.33 4618.76,144.33 "/>
    <polygon class="fil4" points="4623.53,184.77 4625.99,184.77 4625.99,144.33 4623.53,144.33 "/>
    <polygon class="fil4" points="4628.3,184.77 4630.77,184.77 4630.77,144.33 4628.3,144.33 "/>
    <polygon class="fil4" points="4633.07,184.77 4635.53,184.77 4635.53,144.33 4633.07,144.33 "/>
    <polygon class="fil4" points="4637.84,184.77 4640.31,184.77 4640.31,144.33 4637.84,144.33 "/>
    <polygon class="fil4" points="4642.61,184.77 4645.08,184.77 4645.08,144.33 4642.61,144.33 "/>
    <polygon class="fil4" points="4647.39,184.77 4649.85,184.77 4649.85,144.33 4647.39,144.33 "/>
    <polygon class="fil4" points="4652.16,184.77 4654.62,184.77 4654.62,144.33 4652.16,144.33 "/>
    <polygon class="fil4" points="4656.93,184.77 4659.39,184.77 4659.39,144.33 4656.93,144.33 "/>
    <polygon class="fil4" points="4661.7,184.77 4664.16,184.77 4664.16,144.33 4661.7,144.33 "/>
    <polygon class="fil4" points="4666.47,184.77 4668.93,184.77 4668.93,144.33 4666.47,144.33 "/>
    <polygon class="fil4" points="4671.24,184.77 4673.7,184.77 4673.7,144.33 4671.24,144.33 "/>
    <polygon class="fil4" points="4676.01,184.77 4678.47,184.77 4678.47,144.33 4676.01,144.33 "/>
    <polygon class="fil4" points="4680.78,184.77 4683.24,184.77 4683.24,144.33 4680.78,144.33 "/>
    <polygon class="fil4" points="4685.55,184.77 4688.01,184.77 4688.01,144.33 4685.55,144.33 "/>
    <path class="fil4" d="M4653.38 180.06l109.85 0 -4.71 8.33c-20.48,6.48 -50.71,27.64 -65.73,49.13l-188.49 0 -30.3 -43.09 0 -7.09 173.58 0c3.19,0 5.79,-2.3 5.79,-5.1l0 -2.17z"/>
    <path class="fil4" d="M4705.28 222.9c-4.76,4.74 -9.03,9.67 -12.49,14.62l-188.49 0 -10.27 -14.62 211.25 0z"/>
    <path class="fil2" d="M4716.12 189.48c1.69,0 2.65,1.53 2.13,3.42 -0.52,1.89 -2.32,3.42 -4.01,3.42 -1.7,0 -2.65,-1.53 -2.14,-3.42 0.52,-1.88 2.32,-3.42 4.02,-3.42z"/>
    <polygon class="fil4" points="4500.85,187.33 4549.47,187.33 4549.47,129.43 4500.85,129.43 "/>
    <polygon class="fil4" points="4555.71,134.36 4580.25,134.36 4580.25,127.07 4555.71,127.07 "/>
    <polygon class="fil4" points="4536.57,152.42 4539.86,152.42 4539.86,148.36 4536.57,148.36 "/>
    <polygon class="fil4" points="4536.57,170.2 4539.86,170.2 4539.86,166.14 4536.57,166.14 "/>
    <polygon class="fil4" points="4545.78,152.42 4549.07,152.42 4549.07,148.36 4545.78,148.36 "/>
    <polygon class="fil4" points="4545.78,161.31 4549.07,161.31 4549.07,157.25 4545.78,157.25 "/>
    <polygon class="fil4" points="4545.78,170.2 4549.07,170.2 4549.07,166.14 4545.78,166.14 "/>
    <polygon class="fil4" points="4554.99,152.42 4558.29,152.42 4558.29,148.36 4554.99,148.36 "/>
    <polygon class="fil4" points="4554.99,161.31 4558.29,161.31 4558.29,157.25 4554.99,157.25 "/>
    <polygon class="fil4" points="4554.99,170.2 4558.29,170.2 4558.29,166.14 4554.99,166.14 "/>
    <polygon class="fil4" points="4564.21,152.42 4567.5,152.42 4567.5,148.36 4564.21,148.36 "/>
    <polygon class="fil4" points="4564.21,161.31 4567.5,161.31 4567.5,157.25 4564.21,157.25 "/>
    <polygon class="fil4" points="4564.21,170.2 4567.5,170.2 4567.5,166.14 4564.21,166.14 "/>
    <path class="fil2" d="M4533.98 206.75c2.92,0 5.3,-2.1 5.3,-4.67 0,-2.57 -2.38,-4.67 -5.3,-4.67 -2.92,0 -5.3,2.1 -5.3,4.67 0,2.57 2.38,4.67 5.3,4.67z"/>
    <path class="fil2" d="M4556.05 206.75c2.92,0 5.3,-2.1 5.3,-4.67 0,-2.57 -2.38,-4.67 -5.3,-4.67 -2.92,0 -5.3,2.1 -5.3,4.67 0,2.57 2.38,4.67 5.3,4.67z"/>
    <path class="fil2" d="M4578.11 206.75c2.92,0 5.3,-2.1 5.3,-4.67 0,-2.57 -2.38,-4.67 -5.3,-4.67 -2.92,0 -5.3,2.1 -5.3,4.67 0,2.57 2.38,4.67 5.3,4.67z"/>
    <path class="fil2" d="M4600.18 206.75c2.92,0 5.3,-2.1 5.3,-4.67 0,-2.57 -2.38,-4.67 -5.3,-4.67 -2.92,0 -5.3,2.1 -5.3,4.67 0,2.57 2.38,4.67 5.3,4.67z"/>
    <path class="fil2" d="M4622.25 206.75c2.92,0 5.3,-2.1 5.3,-4.67 0,-2.57 -2.38,-4.67 -5.3,-4.67 -2.92,0 -5.3,2.1 -5.3,4.67 0,2.57 2.38,4.67 5.3,4.67z"/>
    <path class="fil2" d="M4644.31 206.75c2.92,0 5.3,-2.1 5.3,-4.67 0,-2.57 -2.38,-4.67 -5.3,-4.67 -2.92,0 -5.3,2.1 -5.3,4.67 0,2.57 2.38,4.67 5.3,4.67z"/>
    <path class="fil2" d="M4666.38 206.75c2.92,0 5.3,-2.1 5.3,-4.67 0,-2.57 -2.38,-4.67 -5.3,-4.67 -2.92,0 -5.3,2.1 -5.3,4.67 0,2.57 2.38,4.67 5.3,4.67z"/>
   </g>
   <g>
    <polygon class="fil4" points="5097.07,1035.9 5078.78,1035.9 5062.81,1063.01 5085.03,1063.01 5085.03,1053.19 5097.07,1053.19 "/>
    <polygon class="fil4" points="5076.1,1040.45 5071.93,1047.53 5097.07,1047.53 5097.07,1040.45 "/>
    <polygon class="fil4" points="5125.69,1118.36 5128.15,1118.36 5128.15,1077.92 5125.69,1077.92 "/>
    <polygon class="fil4" points="5130.47,1118.36 5132.93,1118.36 5132.93,1077.92 5130.47,1077.92 "/>
    <polygon class="fil4" points="5135.23,1118.36 5137.7,1118.36 5137.7,1077.92 5135.23,1077.92 "/>
    <polygon class="fil4" points="5140,1118.36 5142.47,1118.36 5142.47,1077.92 5140,1077.92 "/>
    <polygon class="fil4" points="5144.78,1118.36 5147.24,1118.36 5147.24,1077.92 5144.78,1077.92 "/>
    <polygon class="fil4" points="5149.55,1118.36 5152.01,1118.36 5152.01,1077.92 5149.55,1077.92 "/>
    <polygon class="fil4" points="5154.32,1118.36 5156.78,1118.36 5156.78,1077.92 5154.32,1077.92 "/>
    <polygon class="fil4" points="5159.09,1118.36 5161.55,1118.36 5161.55,1077.92 5159.09,1077.92 "/>
    <polygon class="fil4" points="5163.86,1118.36 5166.32,1118.36 5166.32,1077.92 5163.86,1077.92 "/>
    <polygon class="fil4" points="5168.63,1118.36 5171.09,1118.36 5171.09,1077.92 5168.63,1077.92 "/>
    <polygon class="fil4" points="5173.4,1118.36 5175.86,1118.36 5175.86,1077.92 5173.4,1077.92 "/>
    <polygon class="fil4" points="5178.17,1118.36 5180.63,1118.36 5180.63,1077.92 5178.17,1077.92 "/>
    <polygon class="fil4" points="5182.94,1118.36 5185.41,1118.36 5185.41,1077.92 5182.94,1077.92 "/>
    <polygon class="fil4" points="5187.71,1118.36 5190.18,1118.36 5190.18,1077.92 5187.71,1077.92 "/>
    <polygon class="fil4" points="5192.48,1118.36 5194.95,1118.36 5194.95,1077.92 5192.48,1077.92 "/>
    <polygon class="fil4" points="5197.26,1118.36 5199.72,1118.36 5199.72,1077.92 5197.26,1077.92 "/>
    <polygon class="fil4" points="5202.03,1118.36 5204.49,1118.36 5204.49,1077.92 5202.03,1077.92 "/>
    <polygon class="fil4" points="5206.8,1118.36 5209.26,1118.36 5209.26,1077.92 5206.8,1077.92 "/>
    <polygon class="fil4" points="5211.57,1118.36 5214.03,1118.36 5214.03,1077.92 5211.57,1077.92 "/>
    <polygon class="fil4" points="5216.34,1118.36 5218.8,1118.36 5218.8,1077.92 5216.34,1077.92 "/>
    <polygon class="fil4" points="5221.11,1118.36 5223.57,1118.36 5223.57,1077.92 5221.11,1077.92 "/>
    <path class="fil4" d="M5188.93 1113.65l109.85 0 -4.71 8.33c-20.48,6.48 -50.71,27.64 -65.73,49.13l-188.49 0 -30.3 -43.09 0 -7.09 173.58 0c3.19,0 5.79,-2.3 5.79,-5.1l0 -2.17z"/>
    <path class="fil4" d="M5240.83 1156.49c-4.76,4.74 -9.03,9.67 -12.49,14.62l-188.49 0 -10.27 -14.62 211.25 0z"/>
    <path class="fil2" d="M5251.67 1123.07c1.69,0 2.65,1.53 2.13,3.42 -0.52,1.89 -2.32,3.42 -4.01,3.42 -1.7,0 -2.65,-1.53 -2.14,-3.42 0.52,-1.88 2.32,-3.42 4.02,-3.42z"/>
    <polygon class="fil4" points="5036.41,1120.92 5085.03,1120.92 5085.03,1063.01 5036.41,1063.01 "/>
    <polygon class="fil4" points="5091.27,1067.95 5115.8,1067.95 5115.8,1060.65 5091.27,1060.65 "/>
    <polygon class="fil4" points="5072.13,1086.01 5075.42,1086.01 5075.42,1081.95 5072.13,1081.95 "/>
    <polygon class="fil4" points="5072.13,1103.79 5075.42,1103.79 5075.42,1099.73 5072.13,1099.73 "/>
    <polygon class="fil4" points="5081.34,1086.01 5084.63,1086.01 5084.63,1081.95 5081.34,1081.95 "/>
    <polygon class="fil4" points="5081.34,1094.9 5084.63,1094.9 5084.63,1090.84 5081.34,1090.84 "/>
    <polygon class="fil4" points="5081.34,1103.79 5084.63,1103.79 5084.63,1099.73 5081.34,1099.73 "/>
    <polygon class="fil4" points="5090.55,1086.01 5093.84,1086.01 5093.84,1081.95 5090.55,1081.95 "/>
    <polygon class="fil4" points="5090.55,1094.9 5093.84,1094.9 5093.84,1090.84 5090.55,1090.84 "/>
    <polygon class="fil4" points="5090.55,1103.79 5093.84,1103.79 5093.84,1099.73 5090.55,1099.73 "/>
    <polygon class="fil4" points="5099.77,1086.01 5103.06,1086.01 5103.06,1081.95 5099.77,1081.95 "/>
    <polygon class="fil4" points="5099.77,1094.9 5103.06,1094.9 5103.06,1090.84 5099.77,1090.84 "/>
    <polygon class="fil4" points="5099.77,1103.79 5103.06,1103.79 5103.06,1099.73 5099.77,1099.73 "/>
    <path class="fil2" d="M5069.54 1140.34c2.92,0 5.3,-2.1 5.3,-4.67 0,-2.57 -2.38,-4.67 -5.3,-4.67 -2.92,0 -5.3,2.1 -5.3,4.67 0,2.57 2.38,4.67 5.3,4.67z"/>
    <path class="fil2" d="M5091.6 1140.34c2.92,0 5.3,-2.1 5.3,-4.67 0,-2.57 -2.38,-4.67 -5.3,-4.67 -2.92,0 -5.3,2.1 -5.3,4.67 0,2.57 2.38,4.67 5.3,4.67z"/>
    <path class="fil2" d="M5113.67 1140.34c2.92,0 5.3,-2.1 5.3,-4.67 0,-2.57 -2.38,-4.67 -5.3,-4.67 -2.92,0 -5.3,2.1 -5.3,4.67 0,2.57 2.38,4.67 5.3,4.67z"/>
    <path class="fil2" d="M5135.74 1140.34c2.92,0 5.3,-2.1 5.3,-4.67 0,-2.57 -2.38,-4.67 -5.3,-4.67 -2.92,0 -5.3,2.1 -5.3,4.67 0,2.57 2.38,4.67 5.3,4.67z"/>
    <path class="fil2" d="M5157.8 1140.34c2.92,0 5.3,-2.1 5.3,-4.67 0,-2.57 -2.38,-4.67 -5.3,-4.67 -2.92,0 -5.3,2.1 -5.3,4.67 0,2.57 2.38,4.67 5.3,4.67z"/>
    <path class="fil2" d="M5179.87 1140.34c2.92,0 5.3,-2.1 5.3,-4.67 0,-2.57 -2.38,-4.67 -5.3,-4.67 -2.92,0 -5.3,2.1 -5.3,4.67 0,2.57 2.38,4.67 5.3,4.67z"/>
    <path class="fil2" d="M5201.94 1140.34c2.92,0 5.3,-2.1 5.3,-4.67 0,-2.57 -2.38,-4.67 -5.3,-4.67 -2.92,0 -5.3,2.1 -5.3,4.67 0,2.57 2.38,4.67 5.3,4.67z"/>
   </g>
   <g>
    <polygon class="fil4" points="1905.22,2316.01 1886.43,2316.01 1870.01,2343.88 1892.84,2343.88 1892.84,2333.78 1905.22,2333.78 "/>
    <polygon class="fil4" points="1883.67,2320.68 1879.38,2327.96 1905.22,2327.96 1905.22,2320.68 "/>
    <polygon class="fil4" points="1934.64,2400.76 1937.18,2400.76 1937.18,2359.2 1934.64,2359.2 "/>
    <polygon class="fil4" points="1939.55,2400.76 1942.08,2400.76 1942.08,2359.2 1939.55,2359.2 "/>
    <polygon class="fil4" points="1944.45,2400.76 1946.98,2400.76 1946.98,2359.2 1944.45,2359.2 "/>
    <polygon class="fil4" points="1949.36,2400.76 1951.89,2400.76 1951.89,2359.2 1949.36,2359.2 "/>
    <polygon class="fil4" points="1954.26,2400.76 1956.79,2400.76 1956.79,2359.2 1954.26,2359.2 "/>
    <polygon class="fil4" points="1959.16,2400.76 1961.7,2400.76 1961.7,2359.2 1959.16,2359.2 "/>
    <polygon class="fil4" points="1964.07,2400.76 1966.6,2400.76 1966.6,2359.2 1964.07,2359.2 "/>
    <polygon class="fil4" points="1968.97,2400.76 1971.5,2400.76 1971.5,2359.2 1968.97,2359.2 "/>
    <polygon class="fil4" points="1973.88,2400.76 1976.41,2400.76 1976.41,2359.2 1973.88,2359.2 "/>
    <polygon class="fil4" points="1978.78,2400.76 1981.31,2400.76 1981.31,2359.2 1978.78,2359.2 "/>
    <polygon class="fil4" points="1983.68,2400.76 1986.22,2400.76 1986.22,2359.2 1983.68,2359.2 "/>
    <polygon class="fil4" points="1988.59,2400.76 1991.12,2400.76 1991.12,2359.2 1988.59,2359.2 "/>
    <polygon class="fil4" points="1993.49,2400.76 1996.02,2400.76 1996.02,2359.2 1993.49,2359.2 "/>
    <polygon class="fil4" points="1998.4,2400.76 2000.93,2400.76 2000.93,2359.2 1998.4,2359.2 "/>
    <polygon class="fil4" points="2003.3,2400.76 2005.83,2400.76 2005.83,2359.2 2003.3,2359.2 "/>
    <polygon class="fil4" points="2008.21,2400.76 2010.73,2400.76 2010.73,2359.2 2008.21,2359.2 "/>
    <polygon class="fil4" points="2013.11,2400.76 2015.64,2400.76 2015.64,2359.2 2013.11,2359.2 "/>
    <polygon class="fil4" points="2018.01,2400.76 2020.54,2400.76 2020.54,2359.2 2018.01,2359.2 "/>
    <polygon class="fil4" points="2022.92,2400.76 2025.45,2400.76 2025.45,2359.2 2022.92,2359.2 "/>
    <polygon class="fil4" points="2027.82,2400.76 2030.35,2400.76 2030.35,2359.2 2027.82,2359.2 "/>
    <polygon class="fil4" points="2032.72,2400.76 2035.25,2400.76 2035.25,2359.2 2032.72,2359.2 "/>
    <path class="fil4" d="M1999.65 2395.92l112.92 0 -4.84 8.56c-21.05,6.66 -52.12,28.41 -67.57,50.51l-193.75 0 -31.14 -44.3 0 -7.29 178.42 0c3.28,0 5.95,-2.36 5.95,-5.24l0 -2.23z"/>
    <path class="fil4" d="M2053 2439.96c-4.89,4.87 -9.28,9.94 -12.83,15.02l-193.75 0 -10.56 -15.02 217.14 0z"/>
    <path class="fil2" d="M2064.14 2405.61c1.74,0 2.72,1.58 2.19,3.51 -0.54,1.94 -2.38,3.52 -4.13,3.52 -1.74,0 -2.72,-1.57 -2.2,-3.52 0.53,-1.94 2.38,-3.51 4.13,-3.51z"/>
    <polygon class="fil4" points="1842.87,2403.4 1892.84,2403.4 1892.84,2343.88 1842.87,2343.88 "/>
    <polygon class="fil4" points="1899.26,2348.94 1924.48,2348.94 1924.48,2341.45 1899.26,2341.45 "/>
    <polygon class="fil4" points="1879.59,2367.51 1882.97,2367.51 1882.97,2363.34 1879.59,2363.34 "/>
    <polygon class="fil4" points="1879.59,2385.79 1882.97,2385.79 1882.97,2381.61 1879.59,2381.61 "/>
    <polygon class="fil4" points="1889.05,2367.51 1892.44,2367.51 1892.44,2363.34 1889.05,2363.34 "/>
    <polygon class="fil4" points="1889.05,2376.65 1892.44,2376.65 1892.44,2372.48 1889.05,2372.48 "/>
    <polygon class="fil4" points="1889.05,2385.79 1892.44,2385.79 1892.44,2381.61 1889.05,2381.61 "/>
    <polygon class="fil4" points="1898.52,2367.51 1901.91,2367.51 1901.91,2363.34 1898.52,2363.34 "/>
    <polygon class="fil4" points="1898.52,2376.65 1901.91,2376.65 1901.91,2372.48 1898.52,2372.48 "/>
    <polygon class="fil4" points="1898.52,2385.79 1901.91,2385.79 1901.91,2381.61 1898.52,2381.61 "/>
    <polygon class="fil4" points="1907.99,2367.51 1911.38,2367.51 1911.38,2363.34 1907.99,2363.34 "/>
    <polygon class="fil4" points="1907.99,2376.65 1911.38,2376.65 1911.38,2372.48 1907.99,2372.48 "/>
    <polygon class="fil4" points="1907.99,2385.79 1911.38,2385.79 1911.38,2381.61 1907.99,2381.61 "/>
    <path class="fil2" d="M1876.92 2423.36c3,0 5.45,-2.15 5.45,-4.8 0,-2.64 -2.45,-4.8 -5.45,-4.8 -3,0 -5.45,2.16 -5.45,4.8 0,2.64 2.45,4.8 5.45,4.8z"/>
    <path class="fil2" d="M1899.6 2423.36c3,0 5.45,-2.15 5.45,-4.8 0,-2.64 -2.45,-4.8 -5.45,-4.8 -3,0 -5.45,2.16 -5.45,4.8 0,2.64 2.45,4.8 5.45,4.8z"/>
    <path class="fil2" d="M1922.28 2423.36c3,0 5.45,-2.15 5.45,-4.8 0,-2.64 -2.45,-4.8 -5.45,-4.8 -3,0 -5.45,2.16 -5.45,4.8 0,2.64 2.45,4.8 5.45,4.8z"/>
    <path class="fil2" d="M1944.97 2423.36c3,0 5.45,-2.15 5.45,-4.8 0,-2.64 -2.45,-4.8 -5.45,-4.8 -3,0 -5.45,2.16 -5.45,4.8 0,2.64 2.45,4.8 5.45,4.8z"/>
    <path class="fil2" d="M1967.65 2423.36c3,0 5.45,-2.15 5.45,-4.8 0,-2.64 -2.45,-4.8 -5.45,-4.8 -3,0 -5.45,2.16 -5.45,4.8 0,2.64 2.45,4.8 5.45,4.8z"/>
    <path class="fil2" d="M1990.33 2423.36c3,0 5.45,-2.15 5.45,-4.8 0,-2.64 -2.45,-4.8 -5.45,-4.8 -3,0 -5.45,2.16 -5.45,4.8 0,2.64 2.45,4.8 5.45,4.8z"/>
    <path class="fil2" d="M2013.02 2423.36c3,0 5.45,-2.15 5.45,-4.8 0,-2.64 -2.45,-4.8 -5.45,-4.8 -3,0 -5.45,2.16 -5.45,4.8 0,2.64 2.45,4.8 5.45,4.8z"/>
   </g>
  </g>
 </g>
</svg>
