<?xml version="1.0" encoding="UTF-8"?><svg id="Camada_1" xmlns="http://www.w3.org/2000/svg" viewBox="0 0 719.89 364.9"><defs><style>.cls-1,.cls-2{fill:#094561;}.cls-1,.cls-3,.cls-4{fill-rule:evenodd;}.cls-3{fill:#fefefe;}.cls-4{fill:#f59b2c;}</style></defs><g id="Camada_1-2"><g id="_2019207450000"><path class="cls-4" d="M255.15,235.11l-.74,10.5-3.95,3.31-.75,2.47-2.86,1.37c-.72,3.71-3.55,5.91-4.79,9.5l1.47,4.82-8.02,10.75-1.72,4.07-1.48,1.85-4.68,1.37-9.4,8-2.6,1.87,1,4.72-5.31,5.42-2.95,6.54-3.23,3.21v-.99l.75-5.44-1.96,3.58-.61,5.44-5.57,2.6-4.94-1.09-4.08-2.24,1.85,3.7,2.59,1.73-2.97,5.44c-3.55,.73-7.28,1.85-10.84,2.59l-2.23,4.33-1.11,1.73-3.22-.99-.75,1.75,1.48,2.58-2.59,.99-1.84,4.1-3.61,2.84,.75,3.7c-8.01,.96-8.4,8.62-13.08,10.75l-.36-3.86-1.49-.72,.37-8.41,1.48-1.46,1.47-2.5,2.48-6.91-2.48-2.46c-.36-4.71,.75-9.04,2.48-13.47l2.22-3.19c2.21-7.3,2.95-10.52,2.59-17.81,1.01-9.13,3.95-17.78,5.07-26.91l.36-4.68c-2.59-3.34-4.42-5.45-8.02-7.3l-5.06-6.18-1.11-5.42c-3.58-4.33-5.06-10.26-8.05-15.19l-2.46-1.48-.37-2.84,3.96-5.44-2.23-1.85,1.09-3.94v-3.6l3.35-4.06,4.7-3.71-.75-2.09c1.48-4.07,0-7.68-.36-11.98l1.11-2.48,2.21,.37,1.74-2.35,5.17-3.83,3.22-.74-1.09,3.58,.74,2.21,1.48,1.38,.37-.25,.36-3.34,1.75-2.22h6.54l2.21,2.22c3.95-.74,7.66-1.48,11.24-2.85l3.71,4.21v3.68l2.1,.4,2.85,2.95,.49,1.73,.75,2.58,4.33,2.24c7.15-1.24,12.32,.74,13.81,7.9l.75,.37,.72,2.22-2.32,3.2-1.36,2.6-.75,2.96,3.32,.25,1.11-1.48,2.86-1.12,10.13,2.96,1.11,2.96c3.71,0,8.01,.25,11.6,.61,2.83,2.23,6.18,5.19,9.38,6.93l1.48,1.11v-.37h.02Zm-99.79-40.28h0l.37,.38,1.36-2.23-5.67-2.1-6.56,1.11-6.17-4.07-.37-7.9,.74-5.57-2.46-2.09-8.55,1.1c-.24-6.54,1.14-12.72,2.6-18.89l-7.29,2.96-2.83,5.31-7.29,1.48-2.98-2.96-1.72-11.97,.36-6.55-.72-7.16,3.94-4.82,13.1-.37,4.81-2.47,10.15,1.48,.62,5.81,2.96,9.16,2.84-1.87-2.48-12.11c2.86-7.17,9.03-12.71,9.38-20.62l.75-3.59,.36,4.33,1.73-1.85,.37-3.33,3.21-2.86,5.19-3.94,.36-2.95,3.34-2.11,3.59-.75,2.23,1.11-1.61,2.11v1.11l2.23-1.47,3.94-3.6-3.56-1.1-2.98-1.73-.61-3.34h-2.95l-7.68,3.59,4.7-5.05,2.71-4.7h12.98l1.48-1.51,3.22-1.71-1.48-1.87-1.74-.74-1.11-.75-2.59,2.23-1.36-.37,1.74-1.86v-2.22h-1.38c-3.94-2.47-7.65-5.06-10.12-9.03l-2.35-1.84-1.36,1.84-1.83,2.6-2.26-1.11-2.83-2.23,.38-2.59c-3.96-3.83-7.18-5.44-12.99-5.07l-.36,.75,1.48,4.07-1.84,4.33,1.48,.37,1.35,5.06-1.71,3.22,.72,4.07,.63,3.58-1.75-.75-4.79-1.71-1.73-1.49-.76-4.68h-7.5l-4.83-1.86-3.34,.37-1.36-1.85,.36-3.95-1.84-2.22,2.47-2.84-.25-4.82-3.94-.99,1.35-2.61,3.22,1.87,3.71,.37,2.08-2.24,.76-2.58h4.43l.37-2.08,1.74,.36,2.21-2.23-2.95-3.35-1.75,3.35h-4.06l-1-3.35-1.48,2.38-.74-1.24-2.23-2.85-1.74-2.59-1.84,1.48-.75,2.82,.75,2.38-5.06,.6-5.19,1.48-5.44-2.08-2.84,2.08h-2.48l-4.81-1.1,2.59-3.58-2.95-1.11-9.38,.36-1.49-3.7-2.1,1.48-4.44,.74h-2.83c-10.26-1.84-20.74-3.95-30.88-3.95l-5.07,1.35h-5.19l-1.72,2.6v4.31l-4.45,1.5-3.95-1.5-2.96,1.5-.98,2.23,.6,2.1,1.85,3.33-2.09,1.11-3.35,1.72-4.67,2.23,.75,2.85,3.55-.25,1.12,.25-1.48,.75-2.46,1.48-2.24,2.22-3.58,2.1L-.02,68.15l2.6,.37,5.3-1.1,11.97-4.33,2.98-1.86,5.06-3.58,3.34,.37,3.58-.76,2.22-3.31c3.23,2.58,9.76,5.43,13.71,5.79l1.87,5.8v3.34l5.79,6.54,3.96,5.79-.99,2.48c-4.08,8.38-8.03,16.45-3.35,25.82,0,5.44,4.1,9.13,7.3,13.08l1.86,6.53,2.07,4.71-.98,2.59,4.34,2.83,3.19,8.41,3.71,1.74v-2.47l-2.23-2.46-1.48-3.72-1.09-2.1-2.1-5.57-2.24-3.97,1.12-4.28,2.22,4.28,1.35,5.46,2.23,.73,1.86,3.34,3.2,6.17,4.09,4.58c.99,3.7,2.48,8.38,3.59,11.97l5.79,4.45c5.07,1.11,8.77,4.07,13.47,6.18l3.22-1.73,3.19,2.47,1.99,2.47,3.94,1.24,6.42,4.19,3.35-1-.75,3.97,2.59,2.84c3.97,4.45,7.55,7.3,13.1,9.15l.25-1.51,4.06-.72,1.49,2.23,3.2-.76h.02ZM201.43,59.74h0l-5.31-2.1-4.43-.38c-4.34-4.44-9.52-9-13.47-13.82l.36-3.34-1.72,.37-3.34-1.73-2.47-3.58-1.1,.98-1.12-1.71c-6.91-4.7-12.47-7.3-20.73-6.67l-.75-2.1-2.83-2.1,46.06,.62,1.49,1.48,2.83,.75,1.84-1.14c2.96,1.86,4.33,3.71,6.18,6.57l-.36,2.59,1.72,.74,3.21,.37,.88,1.36h-3.35l-3.58-.37,4.33,2.59,3.34,.6-.74,.38-4.83,2.22-.98,3.34-3.58,3.22,.36,5.56,2.1,5.31h0Zm-72.37-23.22h0l1.12,.37-1.12-3.34,1.12-2.1,2.46-.75,1.85,.75,4.07,1.84,3.22,1.73,4.33,.37,5.45,2.85,2.22,2.21,4.31,4.33,5.18,.74v1.72l-1.49,.37-1.47-.75-3.58-.97v.97l3.58,2.6,2.61,1.86v.74h-1.87l-2.6-.74,.75,1.09,2.21,1.75h-.36l-4.33-1.75-1.84-.74-1.85,.37-1.84-3.33-2.48,.37-2.22,1.47-2.48-2.58,2.11-1.14h2.23l1.08-.97-2.94-2.23-.37-2.96-5.06-2.1-2.24-.36-5.06-1.74-1.11,1.74-3.58-1.74h0Zm1.23,16.67h-.36l2.84-2.47,1.86-1.86,1.35,1.12,1.24,1.47,1.35,.98-1.35,.38-2.23-.38-1.86,1.51-2.85-.75h0Zm6.93,101.27l2.83-2.47h4.68l4.33,1.35,4.45,1.87,2.84,2.08,2.6,1.86-2.97,2.62-2.83,.96-2.6-.6,1.12-1.62v-1.72l-4.33-2.85-3.34-.73-.24-.75-5.2,.75-1.73-.38,.38-.36h0Zm21.73,13.46h0l.74,.74-.37-1.37,1.35-1.47h1.85l1.38-.74-.63-1.36,1.36-.75,2.21,.37,3.22,.99,2.97,1.11-2.22,1.12-3.97,1.72-4.33-.36h-3.57ZM363.34,48.49l-2.08,1.35-.38,1.49-1.48,1.48,3.58,1.72,3.46-1.1,3.33-1,1.87-1.46,2.47-1.75,.36-1.09h-1.85l-3.95-.75-3.58,2.09-.38-1.73-5.66,5.07,4.31-4.33h0Zm87.06,141.91l-2.46,8.77-4.46,4.33-2.09,8.04-4.44,5.42-8.28,6.92c-2.86,5.07-5.79,8.29-10.25,11.99l-1.75,5.79,2.24,9.38,3.21,3.34c-1.36,14.08-5.81,16.66-15.93,24.56,0,5.08,0,9.9-1.49,14.96l-4.31,2.85-1.49,.73-.74,8.02-4.33,7.28-5.44,2.11-2.22,4.1-8.4,1.09-5.06,1.12-4.71-1.48-.74-2.98-3.21-8.28-2.47-6.53-2.85-4.83-1.11-11.24-3.35-9.01c-1.47-8.03-1.72-13.81,.89-21.38l.24-5.91c-.74-5.06-1.86-9.74-1.86-14.93l-2.11-2.85-2.96-4.68-3.21-5.21,1.36-2.47c4.45-6.9,.75-13.7-7.53-12.72l-2.24-3.19-3.56-.37c-6.56,1.47-21.51,6.91-26.57,1.84l-6.15-2.96c-2.1-5.79-10.53-15.81-10.53-20.98l-.72-3.21,2.22-3.72,3.2-6.8,2.47-8.01,2.98-7.66c9.38-11.22,20.37-28.29,34.08-34.09l1.49-1.47,2.22,1.74,11.24-.27,8.03-.73,3.58-.37,6.42,.74,3.34,1-2.6,3.34,4.71,3.95,6.53,2.97,5.09,3.2,4.45-2.84,4.68-1.47,7.65,2.58,6.18,.37,5.81-.37,.37,6.81c.36,6.54,.75,13.83,1.73,20l4.08,8.41c3.59,14.55,6.53,24.31,23.59,26.78l7.51-1.47h0Zm-100.75-111.41l3.19,.76,3.97-1.51,1.83-2.46,4.7-3.73-3.71-1.33-2.82,2.21h-1.5l-2.47,2.1,1.35,.75-2.46,1.72-2.08,1.48h0Zm6.17,3.58v-.74l1.35-1.11,1.11-.98,2.08-.76-.98-1.11,1.74-.37,1.24-1.48h.6l1.12-.36,1.35-1.74,.37-2.59,.27-2.23,.35-1.36,1.49-1.84,1.84-1.12,1.87-.24,2.1-.38-1.48,2.11,1.86,1.12-2.86,1.72-1.86,.87,.75,3.21-.75,2.84,.75,1.85-.75,1.11-1.1,1.49-1.1,.6-3.47,.38-2.59-.38-2.48,1.12-2.82,.36h0Zm250.71,247.01l4.31,1.74,8.76-3.58h5.45l3.22-2.84,1.84-.36,1.74-1.88h7.77l6.18,1.12,2.85,2.83,1.11,.75,.62,1.12,4.07-2.84,1.48-.74-2.23,6.78,1.87,.36,1.33,2.12,.39,1.95-.75,.9c5.18,2.58,9.15,1.48,14.7,1.09l1.36-1.47,4.82-.99c6.17-6.81,11.49-14.1,11.85-23.47-.74-4.33-2.48-6.55-4.33-10.24l-.37-3.6-3.95-1.46-2.59-5.82c-3.34-4.71-5.44-11.87-5.81-17.42l-2.21-.36-1.74-5.45-2.59-5.79,.37,3.58c-1.37,4.45-2.09,9.88-3.33,14.2l-1.74,1.47-2.23,.36-3.19-3.68-3.59-2.47-3.34-1.48,.37-.99,.74-2.35v-1.72l.62-1.12,.36-2.98-7.52-1.35-1.49-.37-.75,1.36-3.31-.99-1.03,2.11-1.47,3.34-.75,.74-.98,3.34-.37,1.71-.73,.4-1.86-3.34-1.85-2.47-3.35,3.7-.6,2.47-2.21,2.11-.37,2.95-.99-1.36-1.11,1.36v2.48c-4.07,3.7-9.5,7.65-14.2,10.24l-2.47,2.48c0,2.96-.75,6.18-.75,9.13l.75,.38,.37,1.46-1.49,1.73c1.86,5.18,5.06,11.98,5.43,17.53l-.74,2.48-.36,1.11h0Zm59.65,18.39l1.12-.37,4.55-.36,.37,1.36-.74,2.6-3.22,1.34-1.36-3.22-1.11-1.72,.37,.37h0Zm-112.27-136.09l6.93,.72,4.68,3.98,3.97,5.79,3.19,2.6,.87,2.1,2.47,2.2,3.7,3.97-1.23,6.91-2.84,.75-2.46-1.11-2.6-3.61-4.82-5.79-3.2-5.06-1.38-5.06-3.7-4.07-1.72-2.1-1.48-1.51-.37-.72h0Zm32.72,9.37c0,3.22-1.09,5.45,.27,9.4l2.21,.37v2.22l5.06,1.85,6.54,1.47,1.86,.28,1.74-6.19,2.59-1.72,3.21-4.46-1.35-5.67v-2.11l.99-3.7-2.48-2.1-2.22-3.34-2.23,2.58c0,3.61-3.56,6.56-6.17,8.67-3.19,.36-5.81,1.84-9.01,1.84-3.59,1.73-1.74,6.43-1.74,10.01l.74-9.4h0Zm70.03,12.35l-4.34,1.49-1.71,1.09-1.84-1.83-1.14-1.74-1.48-2.23-2.94-.99-3.24,.99,1.87,2.6,1.37,.6-.64,.76,.64,3.21,.36,1.86,1.6-1.86,3.22,1.49,2.95,1.09c4.58,2.85,6.06,6.18,8.89,10.51l8.65,2.95-1-3.7,1.37-.75,5.18,3.34,2.98,1.86,1.36,1.72,1.11,2.59,7.28,1.87-5.19-9.16-2.85-2.82h2.85l-1.35-3.73-3.59-2.47-4.07-2.95-7.27-4.7-3.97-1.12-4.31-.98-3.96,2.47-2.83,1.47-1.84-2.58-.76-.75-1.85-4.19,10.5,4.55h0Zm-76.95,11.02l1.75-2.84,3.94,.36,1.49,.99,3.94-1.35,4.82,3.97,2.84,2.1-.76,1.08-2.82-1.47h-2.98l-2.47-1.1-3.22,.73-3.32-1.34-4.33-1.86,1.11,.74h0Zm118.44,119.3l6.05,.97,6.94-7.17,2.21-.72c1.35-2.47,1.11-5.06,1.11-8.03l-3.72,1.87-3.21,2.95-2.2,3.94-3.22,1.12-2.98,5.69-.99-.61h0Zm20.28-23.58l1.47,1.84-3.21,3.58-1.87-1.48-.97-1.49,2.84-2.84,.63-2.46,1.83,.75-.72,2.11h0Zm-277.89-84.25h1.11l-.75,2.21-1.35,2.11-.75,2.61-3.58,2.22-2.98,1.71-3.19,1.5v4.31l.36,3.35,.75,3.95-2.62,3.7-2.2,2.1-.74,3.71,1.47,3.56-.36,2.62,2.96,2.1,2.84-.37,2.95-1.36,1.12-6.18,1.73-2.59-.36-2.59,1.1-3.58,1.49-1.86,.72-3.21,.63-2.97-.98-3.94,2.07-3.95,2.48-.76-3.94-8.4h0Zm187.84-126.22l6.04-1.84h2.97l4.45-.74,1.74-1c-.36-5.18-1.36-8.77-4.69-12.71l-1.1-1.48-1.75,.36v3.95l.37,2.23-.37,1.86h-2.22l-1.11-.74,.36,3.56,.75,2.6h-3.34l-2.47,1.36,1.86,2.21-1.48,.36h0Zm-111.53,70.02l2.48,.76,2.83,3.56-.98,3.7-2.6,.38-2.47-3.71,1.11-1.84,1.11-2.47-1.48-.38h0ZM100.4,31.35h0l-3.44,.72,3.83-.36v1.48l2.21-.74,.98,1.11,2.6,1,1.85-2.11,1.84,2.44,1.36,.4,1.12,2.2-1.49,2.22h-3.56l-3.72-.72-2.46,1.1-1.12,.37-3.22-.76-1.71-2.58,3.58-.74v-1.84l-2.1-.64,.23-2.22,3.22-.36h0Zm346.67,104.6l.38,7.66,1.48,4.31,1.72,3.34,2.59-2.22,1.12,5.44h6.53l1.12-3.59,1.74-1.84v3.58l4.06,5.18,2.5,1.74-.39,3.71-3.22,5.43c-3.31,2.23-5.8,5.42-9.11,7.64-6.56,1-14.7,7.56-20.88,10.52l-1.87-1.87c-3.31-7.89-7.29-16.66-10.22-24.68l-.27-5.8c-1.86-4.71-3.34-9.76-4.81-14.46l-.36-3.58-2.11,3.58-2.96-3.58-2.47,.61,.61-6.8,3.71-.74,1.49-1.1,.72-1.74,2.47-4.07,2.59-4.68-.35-.76c-4.1,.76-6.07,.64-9.89-.36l-3.97,1.86-2.95-6.18,.75-1.47,.74-4.71-1.48-1.47-4.7-.38-.74,3.35-1.75,.61-.74,4.07v3.22l-1.84,2.23-2.6-1.12-.36-3.2,1.47-1.12-1.11-1.1-.63-3.58-.72-1.85-.75-3.68-1.86-4.71-1.86-1.11-1.72-1.36-2.6-.75-1.12,2.11,1.88,3.72,2.2,2.1,2.1,2.19,1.87,1.85v1.49l-1.87-.75h-.74l-.75,1,.37,2.22-2.09,1.85-.74,.36v-1.85l-.36-3.21-1.88-3.71-2.46-2.46-2.85-2.23-1.97-2.24-1.72,.76c-4.82,2.96-8.64,1.86-12.96,4.71l-4.07,1.09-2.12,1.48-1.47,1.11-1.84,2.11c-4.33,6.92-20.64,10.99-19.28-1l3.71-3.7,1.47-3.95,1.73-1.48,2.98-.75c4.07,.75,6.9,1.12,11.23,0l2.97-3.94,.62-2.23-1.36-2.12-.76-2.21,1.14-.73,2.47,.37,1.86,.36v-2.95h2.2c4.58-.38,11.85-2.84,15.82-6.8l.74,.62,3.21-1.72,3.71-1.12,6.18,.37h5.06l3.21-.37h4.08l.74,1.48,2.12-1.48,1.83-2.6,1.12-.35,2.84-3.59-1.36-3.34-3.7,.75-3.59,1.23-3.7,3.22-1.37,1.36-4.07,.72v-3.19l1.85-3.34,.75-2.1-2.97,1.35-3.95,.75-1.87-.99,2.62-2.96c3.83-3.47,6.9-6.18,11.96-7.53,8.41-2.96,17.42-7.42,25.08-11.75l3.58-.99,5.07-.85c5.56,1.62,10.24,4.57,15.54,6.54l1.12,2.97-5.43,1.47-3.21-1.1-2.09-.76,1.72,3.23,1.11,2.22h3.58l4.7-2.6,2.47-1.34,1.12-.37,1.09-4.44,1.49-.37-.76,4.82,3.98-2.84,9.36-.49,2.36-.37,3.94-1.48,6.94,1.48,5.42-7.3,.37,2.24,2.21,6.54-2.95,2.1,1.84,1.62,5.06-2.36,3.71,.38,2.83,1.47-2.83-3.95-4.81-1.47-.37-3.59,1.84-1.47,.75,2.1,2.59-1-1.84-2.22,3.56-.61,4.44,.61-1.6-1.84,9.13-1.36,8.4-3.34,9.14,.36v5.57l3.97-1.99,3.94,2.6,6.56,.75,2.22,2.22,5.43-.75,1.73,1,3.72-1.75,3.7,1.75,9.38-.25-1.11-2.22h4.45l6.8-.37,2.95,3.21c6.44,.38,11.63,1.48,17.81,4.07l1.71,1.12,7.29,.98h10.61l-.72-.98,5.06,.36,3.21,1,3.71,1.47,7.92,1.12,7.28,1.86,4.07-.37,1.36,1.11,4.06,2.11,3.59,2.22,3.34,1.48-2.23,.74-6.9-1.84-5.46-1.86,1.86,2.22,3.23,2.11,.74,2.22-3.21,2.23,.63,1.36-3.95,.74-5.2,.36-.62,1.87,3.95,4.33,1.87,1.11,1.83,3.95,3.22,1.84v2.97l1.48,3.95-2.95-1.11-3.22-1.75-2.23-2.95c-2.47-2.6-5.42-4.7-6.53-8.02l-1.37-3.95-3.34-3.59-3.21-3.34-2.23,.75-1.48-.75v.75l-.39,2.22-.36,2.1-2.46,.38c-4.7-2.48-13.46-1.86-18.9-.38l-1.12,.38,2.62,9.88,2.83-.75,3.71,1.36,3.95,6.15,3.2,1.51-3.58-7.3,1.48-.6,1.72,2.08,7.29,8.03,.38,4.33,2.56,4.69,1.5,4.46-2.97-4.09-5.42-7.91,1.09,2.47-.36,2.6-9.89,10.49-2.1-2.22-2.96,1.84-1.48,3.34c-.97,4.58,5.57,10.75,6.54,15.94l-2.46,1.72-1.87-2.1c-2.22-3.58-3.19-6.56-6.91-8.38l.37-2.6-1.48-.63-3.95-.36-2.22,.99-.73-2.47v-3.71l-1.74-.25-1.85,3.96-2.59,2.47-.63,1.6,1.36,2.11,4.07,1.47,2.84-.36,3.34,2.59-1.86,.74-2.22,2.48,5.18,8.64,2.1,4.33,2.61,2.59-3.34,9.38-5.46,10.25-4.68,3.22-3.95,1.1-6.54,4.33-2.21-2.48-5.07,3.22-2.22,3.7,2.22,3.22,3.61,5.05,2.57,4.47,.75,7.51-3.71,3.22-1.72,2.98-2.6,.36-.36-3.71-5.81-4.55-2.23-.88-1.35-2.46-1.86,.74-.75,3.94-.99,3.96-.5,2.6,2.59,2.85,2.84,3.31,4.45,5.82,.36,4.68,.63,4.07-.63,2.11-1.47-2.11-3.34-5.18-1.35-3.58-2.23-3.58-1.36-1.85-2.98-3.95,.76-4.82v-9.38l-1.48-3.71-1.86-4.56-2.23,2.84-2.1-.74-1.09-4.08-1.01-2.83-2.34-2.48-4.58-5.42-3.7-4.08-5.05,1.11-2.24,1.36c-3.34,5.56-5.06,10.26-10.5,14.58l-2.82,.72-1.12,7.68-2.24,1.72-1.47,5.79-1.35,4.46-2.36,1.48-2.1-1.86-6.91-19.62-1.73-7.55-1.12-9.14-3.68,2.59-1.75-2.21-.75-3.19-3.31-3.35-4.34-6.54-8.01-1.12-3.23-2.46-4.67,2.46-4.83-1.35v-4.46l-4.33,1.84-4.68-.72-4.07-4.7-1.36-7.3-4.46,1.87h.02Z"/><g><path class="cls-1" d="M550.8,16.77c1.1,8.63-4.9,15.06-8.3,20.75-3.93,6.58-7.98,12.25-10.92,18.13h-.44c-2.8-4.64-6.22-10.3-9.83-16.17-3.42-5.56-7.56-10.99-8.96-17.04-5.95-25.89,35.19-31.45,38.45-5.68h0Zm-19.45-10.5c6.63,0,12.01,5.37,12.01,12.01s-5.37,12.01-12.01,12.01-12.01-5.37-12.01-12.01,5.37-12.01,12.01-12.01Z"/><path class="cls-3" d="M531.35,3.8c8.15,0,14.75,6.61,14.75,14.75s-6.61,14.75-14.75,14.75-14.75-6.61-14.75-14.75,6.61-14.75,14.75-14.75h0Z"/><path class="cls-2" d="M542.26,10.38c.91,12.09-12.14,20.54-22.78,14.62,10.76,8.06,32.32-2.05,22.78-14.62Z"/><path class="cls-2" d="M519.48,25.01c2.95,3.17,7.2,5.27,11.87,5.27,6.32,0,12.75-3.36,13.52-10.11-5.45,8.67-17.15,10.8-25.4,4.84h0Z"/><path class="cls-2" d="M519.48,25.01c3.67,6.39,11.92,9.04,18.36,5.58-7.57,2.11-13.67-.6-18.36-5.58Z"/><path class="cls-2" d="M530,7.75c.79,0,1.57,.08,2.32,.23-1.55-1.06-3.3-1.86-5.18-2.3-7.37,2.44-11.17,10.56-8.45,17.74-.39-1.18-.6-2.44-.6-3.75,0-6.58,5.33-11.91,11.91-11.91h0Z"/><path class="cls-2" d="M541.5,9.47c-1.23-1.36-2.74-2.47-4.43-3.24,1.09,1.8,1.79,3.78,2.08,5.82,.82,.98,1.48,2.09,1.95,3.31,.51-1.93,.64-3.92,.39-5.88Zm-10.07-4.48h-.02c-.9,0-1.79,.09-2.64,.26,.42,.18,.84,.38,1.25,.6,1.3,.69,2.48,1.51,3.54,2.44,.45,.14,.9,.31,1.32,.5-.91-1.43-2.07-2.72-3.45-3.8Zm1,.04h0c1.37,1.23,2.5,2.66,3.36,4.22,.94,.53,1.81,1.18,2.57,1.93-.42-1.91-1.2-3.74-2.31-5.38-1.14-.42-2.36-.68-3.62-.77Z"/><polygon class="cls-1" points="524.92 24.17 527.02 14.27 523.01 14.27 523.7 11.09 536.09 11.09 535.4 14.27 531.38 14.27 529.28 24.17 524.92 24.17"/><polygon class="cls-1" points="524.29 27.18 524.74 25.14 529.1 25.14 528.64 27.18 524.29 27.18"/></g><g><path class="cls-1" d="M655.33,269.62c1.1,8.63-4.9,15.06-8.3,20.75-3.93,6.58-7.98,12.25-10.92,18.13h-.44c-2.8-4.64-6.22-10.3-9.83-16.17-3.42-5.56-7.56-10.99-8.96-17.04-5.95-25.89,35.19-31.45,38.45-5.68h0Zm-19.45-10.5c6.63,0,12.01,5.37,12.01,12.01s-5.37,12.01-12.01,12.01-12.01-5.37-12.01-12.01,5.37-12.01,12.01-12.01Z"/><path class="cls-3" d="M635.87,256.66c8.15,0,14.75,6.61,14.75,14.75s-6.61,14.75-14.75,14.75-14.75-6.61-14.75-14.75,6.61-14.75,14.75-14.75h0Z"/><path class="cls-2" d="M646.79,263.24c.91,12.09-12.14,20.54-22.78,14.62,10.76,8.06,32.32-2.05,22.78-14.62h0Z"/><path class="cls-2" d="M624.01,277.86c2.95,3.17,7.2,5.27,11.87,5.27,6.32,0,12.75-3.36,13.52-10.11-5.45,8.67-17.15,10.8-25.4,4.84h0Z"/><path class="cls-2" d="M624.01,277.86c3.67,6.39,11.92,9.04,18.36,5.58-7.57,2.11-13.67-.6-18.36-5.58Z"/><path class="cls-2" d="M634.54,260.61c.79,0,1.57,.08,2.32,.23-1.55-1.06-3.3-1.86-5.18-2.3-7.37,2.44-11.17,10.56-8.45,17.74-.39-1.18-.6-2.44-.6-3.75,0-6.58,5.33-11.91,11.91-11.91Z"/><path class="cls-2" d="M646.03,262.33c-1.23-1.36-2.74-2.47-4.43-3.24,1.09,1.8,1.79,3.78,2.08,5.82,.82,.98,1.48,2.09,1.95,3.31,.51-1.93,.64-3.92,.39-5.88h0Zm-10.07-4.48h-.02c-.9,0-1.79,.09-2.64,.26,.42,.18,.84,.38,1.25,.6,1.3,.69,2.48,1.51,3.54,2.44,.45,.14,.9,.31,1.32,.5-.91-1.43-2.07-2.72-3.45-3.8h0Zm1,.04h0c1.37,1.23,2.5,2.66,3.36,4.22,.94,.53,1.81,1.18,2.57,1.93-.42-1.91-1.2-3.74-2.31-5.38-1.14-.42-2.36-.68-3.62-.77Z"/><polygon class="cls-1" points="629.45 277.02 631.55 267.13 627.54 267.13 628.23 263.94 640.62 263.94 639.93 267.13 635.91 267.13 633.81 277.02 629.45 277.02"/><polygon class="cls-1" points="628.81 280.04 629.27 278 633.63 278 633.17 280.04 628.81 280.04"/></g><g><path class="cls-1" d="M388.41,186.93c1.1,8.63-4.9,15.06-8.3,20.75-3.93,6.58-7.98,12.25-10.92,18.13h-.44c-2.8-4.64-6.22-10.3-9.83-16.17-3.42-5.56-7.56-10.99-8.96-17.04-5.95-25.89,35.19-31.45,38.45-5.68h0Zm-19.45-10.5c6.63,0,12.01,5.37,12.01,12.01s-5.37,12.01-12.01,12.01-12.01-5.37-12.01-12.01,5.37-12.01,12.01-12.01Z"/><path class="cls-3" d="M368.96,173.97c8.15,0,14.75,6.61,14.75,14.75s-6.61,14.75-14.75,14.75-14.75-6.61-14.75-14.75,6.61-14.75,14.75-14.75Z"/><path class="cls-2" d="M379.88,180.55c.91,12.09-12.14,20.54-22.78,14.62,10.76,8.06,32.32-2.05,22.78-14.62Z"/><path class="cls-2" d="M357.09,195.17c2.95,3.17,7.2,5.27,11.87,5.27,6.32,0,12.75-3.36,13.52-10.11-5.45,8.67-17.15,10.8-25.4,4.84h0Z"/><path class="cls-2" d="M357.09,195.17c3.67,6.39,11.92,9.04,18.36,5.58-7.57,2.11-13.67-.6-18.36-5.58Z"/><path class="cls-2" d="M367.62,177.92c.79,0,1.57,.08,2.32,.23-1.55-1.06-3.3-1.86-5.18-2.3-7.37,2.44-11.17,10.56-8.45,17.74-.39-1.18-.6-2.44-.6-3.75,0-6.58,5.33-11.91,11.91-11.91h0Z"/><path class="cls-2" d="M379.12,179.63c-1.23-1.36-2.74-2.47-4.43-3.24,1.09,1.8,1.79,3.78,2.08,5.82,.82,.98,1.48,2.09,1.95,3.31,.51-1.93,.64-3.92,.39-5.88Zm-10.07-4.48h-.02c-.9,0-1.79,.09-2.64,.26,.42,.18,.84,.38,1.25,.6,1.3,.69,2.48,1.51,3.54,2.44,.45,.14,.9,.31,1.32,.5-.91-1.43-2.07-2.72-3.45-3.8h0Zm1,.04h0c1.37,1.23,2.5,2.66,3.36,4.22,.94,.53,1.81,1.18,2.57,1.93-.42-1.91-1.2-3.74-2.31-5.38-1.14-.42-2.36-.68-3.62-.77Z"/><polygon class="cls-1" points="362.54 194.33 364.64 184.43 360.63 184.43 361.32 181.25 373.7 181.25 373.01 184.43 369 184.43 366.89 194.33 362.54 194.33"/><polygon class="cls-1" points="361.9 197.34 362.35 195.3 366.71 195.3 366.26 197.34 361.9 197.34"/></g><g><path class="cls-1" d="M229.01,253.34c1.1,8.63-4.9,15.06-8.3,20.75-3.93,6.58-7.98,12.25-10.92,18.13h-.44c-2.8-4.64-6.22-10.3-9.83-16.17-3.42-5.56-7.56-10.99-8.96-17.04-5.95-25.89,35.19-31.45,38.45-5.68h0Zm-19.45-10.5c6.63,0,12.01,5.37,12.01,12.01s-5.37,12.01-12.01,12.01-12.01-5.37-12.01-12.01,5.37-12.01,12.01-12.01Z"/><path class="cls-3" d="M209.56,240.37c8.15,0,14.75,6.61,14.75,14.75s-6.61,14.75-14.75,14.75-14.75-6.61-14.75-14.75,6.61-14.75,14.75-14.75Z"/><path class="cls-2" d="M220.48,246.95c.91,12.09-12.14,20.54-22.78,14.62,10.76,8.06,32.32-2.05,22.78-14.62Z"/><path class="cls-2" d="M197.69,261.58c2.95,3.17,7.2,5.27,11.87,5.27,6.32,0,12.75-3.36,13.52-10.11-5.45,8.67-17.15,10.8-25.4,4.84h0Z"/><path class="cls-2" d="M197.69,261.58c3.67,6.39,11.92,9.04,18.36,5.58-7.57,2.11-13.67-.6-18.36-5.58Z"/><path class="cls-2" d="M208.22,244.32c.79,0,1.57,.08,2.32,.23-1.55-1.06-3.3-1.86-5.18-2.3-7.37,2.44-11.17,10.56-8.45,17.74-.39-1.18-.6-2.44-.6-3.75,0-6.58,5.33-11.91,11.91-11.91h0Z"/><path class="cls-2" d="M219.72,246.04c-1.23-1.36-2.74-2.47-4.43-3.24,1.09,1.8,1.79,3.78,2.08,5.82,.82,.98,1.48,2.09,1.95,3.31,.51-1.93,.64-3.92,.39-5.88Zm-10.07-4.48h-.02c-.9,0-1.79,.09-2.64,.26,.42,.18,.84,.38,1.25,.6,1.3,.69,2.48,1.51,3.54,2.44,.45,.14,.9,.31,1.32,.5-.91-1.43-2.07-2.72-3.45-3.8h0Zm1,.04h0c1.37,1.23,2.5,2.66,3.36,4.22,.94,.53,1.81,1.18,2.57,1.93-.42-1.91-1.2-3.74-2.31-5.38-1.14-.42-2.36-.68-3.62-.77Z"/><polygon class="cls-1" points="203.13 260.74 205.24 250.84 201.23 250.84 201.92 247.66 214.3 247.66 213.61 250.84 209.59 250.84 207.49 260.74 203.13 260.74"/><polygon class="cls-1" points="202.5 263.75 202.95 261.71 207.31 261.71 206.85 263.75 202.5 263.75"/></g><g><path class="cls-1" d="M109.41,70.91c1.1,8.63-4.9,15.06-8.3,20.75-3.93,6.58-7.98,12.25-10.92,18.13h-.44c-2.8-4.64-6.22-10.3-9.83-16.17-3.42-5.56-7.56-10.99-8.96-17.04-5.95-25.89,35.19-31.45,38.45-5.68h0Zm-19.45-10.5c6.63,0,12.01,5.37,12.01,12.01s-5.37,12.01-12.01,12.01-12.01-5.37-12.01-12.01,5.37-12.01,12.01-12.01Z"/><path class="cls-3" d="M89.96,57.94c8.15,0,14.75,6.61,14.75,14.75s-6.61,14.75-14.75,14.75-14.75-6.61-14.75-14.75,6.61-14.75,14.75-14.75Z"/><path class="cls-2" d="M100.88,64.53c.91,12.09-12.14,20.54-22.78,14.62,10.76,8.06,32.32-2.05,22.78-14.62Z"/><path class="cls-2" d="M78.09,79.15c2.95,3.17,7.2,5.27,11.87,5.27,6.32,0,12.75-3.36,13.52-10.11-5.45,8.67-17.15,10.8-25.4,4.84h0Z"/><path class="cls-2" d="M78.09,79.15c3.67,6.39,11.92,9.04,18.36,5.58-7.57,2.11-13.67-.6-18.36-5.58Z"/><path class="cls-2" d="M88.62,61.89c.79,0,1.57,.08,2.32,.23-1.55-1.06-3.3-1.86-5.18-2.3-7.37,2.44-11.17,10.56-8.45,17.74-.39-1.18-.6-2.44-.6-3.75,0-6.58,5.33-11.91,11.91-11.91Z"/><path class="cls-2" d="M100.12,63.61c-1.23-1.36-2.74-2.47-4.43-3.24,1.09,1.8,1.79,3.78,2.08,5.82,.82,.98,1.48,2.09,1.95,3.31,.51-1.93,.64-3.92,.39-5.88h0Zm-10.07-4.48h-.02c-.9,0-1.79,.09-2.64,.26,.42,.18,.84,.38,1.25,.6,1.3,.69,2.48,1.51,3.54,2.44,.45,.14,.9,.31,1.32,.5-.91-1.43-2.07-2.72-3.45-3.8Zm1,.04h0c1.37,1.23,2.5,2.66,3.36,4.22,.94,.53,1.81,1.18,2.57,1.93-.42-1.91-1.2-3.74-2.31-5.38-1.14-.42-2.36-.68-3.62-.77Z"/><polygon class="cls-1" points="83.54 78.31 85.64 68.41 81.63 68.41 82.32 65.23 94.7 65.23 94.01 68.41 90 68.41 87.89 78.31 83.54 78.31"/><polygon class="cls-1" points="82.9 81.32 83.35 79.28 87.71 79.28 87.26 81.32 82.9 81.32"/></g><g><path class="cls-1" d="M399.78,51.91c1.1,8.63-4.9,15.06-8.3,20.75-3.93,6.58-7.98,12.25-10.92,18.13h-.44c-2.8-4.64-6.22-10.3-9.83-16.17-3.42-5.56-7.56-10.99-8.96-17.04-5.95-25.89,35.19-31.45,38.45-5.68h0Zm-19.45-10.5c6.63,0,12.01,5.37,12.01,12.01s-5.37,12.01-12.01,12.01-12.01-5.37-12.01-12.01,5.37-12.01,12.01-12.01Z"/><path class="cls-3" d="M380.33,38.95c8.15,0,14.75,6.61,14.75,14.75s-6.61,14.75-14.75,14.75-14.75-6.61-14.75-14.75,6.61-14.75,14.75-14.75Z"/><path class="cls-2" d="M391.25,45.53c.91,12.09-12.14,20.54-22.78,14.62,10.76,8.06,32.32-2.05,22.78-14.62h0Z"/><path class="cls-2" d="M368.46,60.16c2.95,3.17,7.2,5.27,11.87,5.27,6.32,0,12.75-3.36,13.52-10.11-5.45,8.67-17.15,10.8-25.4,4.84h0Z"/><path class="cls-2" d="M368.46,60.16c3.67,6.39,11.92,9.04,18.36,5.58-7.57,2.11-13.67-.6-18.36-5.58Z"/><path class="cls-2" d="M378.99,42.9c.79,0,1.57,.08,2.32,.23-1.55-1.06-3.3-1.86-5.18-2.3-7.37,2.44-11.17,10.56-8.45,17.74-.39-1.18-.6-2.44-.6-3.75,0-6.58,5.33-11.91,11.91-11.91h0Z"/><path class="cls-2" d="M390.49,44.62c-1.23-1.36-2.74-2.47-4.43-3.24,1.09,1.8,1.79,3.78,2.08,5.82,.82,.98,1.48,2.09,1.95,3.31,.51-1.93,.64-3.92,.39-5.88Zm-10.07-4.48h-.02c-.9,0-1.79,.09-2.64,.26,.42,.18,.84,.38,1.25,.6,1.3,.69,2.48,1.51,3.54,2.44,.45,.14,.9,.31,1.32,.5-.91-1.43-2.07-2.72-3.45-3.8Zm1,.04h0c1.37,1.23,2.5,2.66,3.36,4.22,.94,.53,1.81,1.18,2.57,1.93-.42-1.91-1.2-3.74-2.31-5.38-1.14-.42-2.36-.68-3.62-.77Z"/><polygon class="cls-1" points="373.91 59.31 376.01 49.41 372 49.41 372.69 46.23 385.07 46.23 384.38 49.41 380.37 49.41 378.26 59.31 373.91 59.31"/><polygon class="cls-1" points="373.27 62.33 373.72 60.28 378.08 60.28 377.63 62.33 373.27 62.33"/></g><g><path class="cls-1" d="M157.26,149.18c1.1,8.63-4.9,15.06-8.3,20.75-3.93,6.58-7.98,12.25-10.92,18.13h-.44c-2.8-4.64-6.22-10.3-9.83-16.17-3.42-5.56-7.56-10.99-8.96-17.04-5.95-25.89,35.19-31.45,38.45-5.68Zm-19.45-10.5c6.63,0,12.01,5.37,12.01,12.01s-5.37,12.01-12.01,12.01-12.01-5.37-12.01-12.01,5.37-12.01,12.01-12.01Z"/><path class="cls-3" d="M137.81,136.22c8.15,0,14.75,6.61,14.75,14.75s-6.61,14.75-14.75,14.75-14.75-6.61-14.75-14.75,6.61-14.75,14.75-14.75h0Z"/><path class="cls-2" d="M148.73,142.8c.91,12.09-12.14,20.54-22.78,14.63,10.76,8.06,32.32-2.05,22.78-14.63Z"/><path class="cls-2" d="M125.94,157.43c2.95,3.17,7.2,5.27,11.87,5.27,6.32,0,12.75-3.36,13.52-10.11-5.45,8.67-17.15,10.8-25.4,4.84h0Z"/><path class="cls-2" d="M125.94,157.43c3.67,6.39,11.92,9.04,18.36,5.58-7.57,2.11-13.67-.6-18.36-5.58Z"/><path class="cls-2" d="M136.47,140.17c.79,0,1.57,.08,2.32,.23-1.55-1.06-3.3-1.86-5.18-2.3-7.37,2.44-11.17,10.56-8.45,17.74-.39-1.18-.6-2.44-.6-3.75,0-6.58,5.33-11.91,11.91-11.91h0Z"/><path class="cls-2" d="M147.97,141.89c-1.23-1.36-2.74-2.47-4.43-3.24,1.09,1.8,1.79,3.78,2.08,5.82,.82,.98,1.48,2.09,1.95,3.31,.51-1.93,.64-3.92,.39-5.88h0Zm-10.07-4.48h-.02c-.9,0-1.79,.09-2.64,.26,.42,.18,.84,.38,1.25,.6,1.3,.69,2.48,1.51,3.54,2.44,.45,.14,.9,.31,1.32,.5-.91-1.43-2.07-2.72-3.45-3.8h0Zm1,.04h0c1.37,1.23,2.5,2.66,3.36,4.22,.94,.53,1.81,1.18,2.57,1.93-.42-1.91-1.2-3.74-2.31-5.38-1.14-.42-2.36-.68-3.62-.77Z"/><polygon class="cls-1" points="131.38 156.58 133.49 146.69 129.48 146.69 130.17 143.5 142.55 143.5 141.86 146.69 137.84 146.69 135.74 156.58 131.38 156.58"/><polygon class="cls-1" points="130.75 159.6 131.2 157.56 135.56 157.56 135.11 159.6 130.75 159.6"/></g><g><path class="cls-1" d="M609.3,106.02c1.1,8.63-4.9,15.06-8.3,20.75-3.93,6.58-7.98,12.25-10.92,18.13h-.44c-2.8-4.64-6.22-10.3-9.83-16.17-3.42-5.56-7.56-10.99-8.96-17.04-5.95-25.89,35.19-31.45,38.45-5.68h0Zm-19.45-10.5c6.63,0,12.01,5.37,12.01,12.01s-5.37,12.01-12.01,12.01-12.01-5.37-12.01-12.01,5.37-12.01,12.01-12.01Z"/><path class="cls-3" d="M589.85,93.05c8.15,0,14.75,6.61,14.75,14.75s-6.61,14.75-14.75,14.75-14.75-6.61-14.75-14.75,6.61-14.75,14.75-14.75Z"/><path class="cls-2" d="M600.76,99.63c.91,12.09-12.14,20.54-22.78,14.62,10.76,8.06,32.32-2.05,22.78-14.62Z"/><path class="cls-2" d="M577.98,114.26c2.95,3.17,7.2,5.27,11.87,5.27,6.32,0,12.75-3.36,13.52-10.11-5.45,8.67-17.15,10.8-25.4,4.84h0Z"/><path class="cls-2" d="M577.98,114.26c3.67,6.39,11.92,9.04,18.36,5.58-7.57,2.11-13.67-.6-18.36-5.58Z"/><path class="cls-2" d="M588.51,97c.79,0,1.57,.08,2.32,.23-1.55-1.06-3.3-1.86-5.18-2.3-7.37,2.44-11.17,10.56-8.45,17.74-.39-1.18-.6-2.44-.6-3.75,0-6.58,5.33-11.91,11.91-11.91h0Z"/><path class="cls-2" d="M600,98.72c-1.23-1.36-2.74-2.47-4.43-3.24,1.09,1.8,1.79,3.78,2.08,5.82,.82,.98,1.48,2.09,1.95,3.31,.51-1.93,.64-3.92,.39-5.88h0Zm-10.07-4.48h-.02c-.9,0-1.79,.09-2.64,.26,.42,.18,.84,.38,1.25,.6,1.3,.69,2.48,1.51,3.54,2.44,.45,.14,.9,.31,1.32,.5-.91-1.43-2.07-2.72-3.45-3.8h0Zm1,.04h0c1.37,1.23,2.5,2.66,3.36,4.22,.94,.53,1.81,1.18,2.57,1.93-.42-1.91-1.2-3.74-2.31-5.38-1.14-.42-2.36-.68-3.62-.77Z"/><polygon class="cls-1" points="583.42 113.42 585.52 103.52 581.51 103.52 582.2 100.34 594.59 100.34 593.9 103.52 589.88 103.52 587.78 113.42 583.42 113.42"/><polygon class="cls-1" points="582.78 116.43 583.24 114.39 587.6 114.39 587.14 116.43 582.78 116.43"/></g><g><path class="cls-1" d="M339.66,109.68c1.1,8.63-4.9,15.06-8.3,20.75-3.93,6.58-7.98,12.25-10.92,18.13h-.44c-2.8-4.64-6.22-10.3-9.83-16.17-3.42-5.56-7.56-10.99-8.96-17.04-5.95-25.89,35.19-31.45,38.45-5.68h0Zm-19.45-10.5c6.63,0,12.01,5.37,12.01,12.01s-5.37,12.01-12.01,12.01-12.01-5.37-12.01-12.01,5.37-12.01,12.01-12.01Z"/><path class="cls-3" d="M320.21,96.72c8.15,0,14.75,6.61,14.75,14.75s-6.61,14.75-14.75,14.75-14.75-6.61-14.75-14.75,6.61-14.75,14.75-14.75Z"/><path class="cls-2" d="M331.13,103.3c.91,12.09-12.14,20.54-22.78,14.62,10.76,8.06,32.32-2.05,22.78-14.62Z"/><path class="cls-2" d="M308.34,117.92c2.95,3.17,7.2,5.27,11.87,5.27,6.32,0,12.75-3.36,13.52-10.11-5.45,8.67-17.15,10.8-25.4,4.84h0Z"/><path class="cls-2" d="M308.34,117.92c3.67,6.39,11.92,9.04,18.36,5.58-7.57,2.11-13.67-.6-18.36-5.58Z"/><path class="cls-2" d="M318.87,100.67c.79,0,1.57,.08,2.32,.23-1.55-1.06-3.3-1.86-5.18-2.3-7.37,2.44-11.17,10.56-8.45,17.74-.39-1.18-.6-2.44-.6-3.75,0-6.58,5.33-11.91,11.91-11.91h0Z"/><path class="cls-2" d="M330.37,102.38c-1.23-1.36-2.74-2.47-4.43-3.24,1.09,1.8,1.79,3.78,2.08,5.82,.82,.98,1.48,2.09,1.95,3.31,.51-1.93,.64-3.92,.39-5.88Zm-10.07-4.48h-.02c-.9,0-1.79,.09-2.64,.26,.42,.18,.84,.38,1.25,.6,1.3,.69,2.48,1.51,3.54,2.44,.45,.14,.9,.31,1.32,.5-.91-1.43-2.07-2.72-3.45-3.8Zm1,.04h0c1.37,1.23,2.5,2.66,3.36,4.22,.94,.53,1.81,1.18,2.57,1.93-.42-1.91-1.2-3.74-2.31-5.38-1.14-.42-2.36-.68-3.62-.77Z"/><polygon class="cls-1" points="313.79 117.08 315.89 107.18 311.88 107.18 312.57 104 324.95 104 324.26 107.18 320.25 107.18 318.14 117.08 313.79 117.08"/><polygon class="cls-1" points="313.15 120.09 313.6 118.05 317.96 118.05 317.51 120.09 313.15 120.09"/></g></g></g></svg>