<?xml version="1.0" encoding="UTF-8"?>
<!DOCTYPE svg PUBLIC "-//W3C//DTD SVG 1.1//EN" "http://www.w3.org/Graphics/SVG/1.1/DTD/svg11.dtd">
<!-- Creator: CorelDRAW 2019 (64 Bit) -->
<svg xmlns="http://www.w3.org/2000/svg" xml:space="preserve" width="253.961mm" height="128.727mm" version="1.1"
     style="shape-rendering:geometricPrecision; text-rendering:geometricPrecision; image-rendering:optimizeQuality; fill-rule:evenodd; clip-rule:evenodd"
     viewBox="0 0 2731.14 1384.35"
>
 <defs>
  <style type="text/css">
   <![CDATA[
    .fil2 {fill:#FEFEFE}
    .fil1 {fill:#094561}
    .fil0 {fill:#F59B2C}
    .fil3 {fill:#094561;fill-rule:nonzero}
    .fil4 {fill:#094561;fill-rule:nonzero}
   ]]>
  </style>
 </defs>
    <g id="Camada_x0020_1">
  <metadata id="CorelCorpID_0Corel-Layer"/>
        <g id="_2019207450000">
   <path class="fil0"
         d="M967.99 891.97l-2.79 39.85 -14.99 12.56 -2.83 9.38 -10.84 5.21c-2.74,14.08 -13.48,22.44 -18.19,36.06l5.57 18.29 -30.44 40.77 -6.53 15.45 -5.63 7.03 -17.77 5.21 -35.65 30.34 -9.88 7.09 3.79 17.89 -20.16 20.56 -11.18 24.81 -12.26 12.16 0 -3.75 2.83 -20.62 -7.44 13.58 -2.33 20.62 -21.12 9.86 -18.75 -4.15 -15.49 -8.51 7.03 14.04 9.82 6.58 -11.28 20.62c-13.48,2.78 -27.61,7.03 -41.13,9.82l-8.46 16.41 -4.21 6.55 -12.2 -3.75 -2.83 6.63 5.61 9.78 -9.82 3.75 -6.99 15.55 -13.68 10.78 2.84 14.03c-30.39,3.65 -31.86,32.72 -49.63,40.77l-1.38 -14.63 -5.67 -2.74 1.42 -31.9 5.63 -5.53 5.57 -9.47 9.42 -26.23 -9.42 -9.32c-1.36,-17.87 2.83,-34.28 9.42,-51.11l8.41 -12.1c8.4,-27.71 11.18,-39.91 9.82,-67.56 3.85,-34.64 14.99,-67.46 19.25,-102.1l1.36 -17.77c-9.83,-12.66 -16.77,-20.66 -30.44,-27.71l-19.2 -23.44 -4.21 -20.56c-13.58,-16.41 -19.2,-38.91 -30.55,-57.64l-9.32 -5.63 -1.41 -10.78 15.03 -20.62 -8.46 -7.03 4.15 -14.95 0 -13.67 12.72 -15.4 17.83 -14.08 -2.84 -7.94c5.63,-15.45 0,-29.13 -1.36,-45.44l4.21 -9.42 8.4 1.42 6.59 -8.92 19.6 -14.54 12.2 -2.79 -4.15 13.58 2.79 8.4 5.63 5.23 1.42 -0.96 1.36 -12.66 6.63 -8.41 24.82 0 8.4 8.41c14.99,-2.79 29.07,-5.63 42.65,-10.8l14.07 15.96 0 13.97 7.95 1.52 10.8 11.2 1.87 6.58 2.84 9.78 16.41 8.51c27.13,-4.71 46.74,2.79 52.41,29.98l2.83 1.42 2.74 8.41 -8.82 12.15 -5.17 9.88 -2.83 11.24 12.6 0.96 4.21 -5.61 10.84 -4.25 38.43 11.24 4.21 11.24c14.08,0 30.39,0.96 44.02,2.33 10.74,8.46 23.44,19.7 35.6,26.29l5.61 4.21 0 -1.42zm-378.58 -152.79l0 0 1.42 1.46 5.17 -8.45 -21.52 -7.95 -24.87 4.21 -23.4 -15.45 -1.42 -29.98 2.79 -21.13 -9.32 -7.94 -32.42 4.19c-0.9,-24.81 4.31,-48.27 9.88,-71.65l-27.65 11.24 -10.74 20.16 -27.65 5.61 -11.3 -11.24 -6.53 -45.42 1.36 -24.86 -2.73 -27.15 14.93 -18.29 49.69 -1.42 18.23 -9.36 38.49 5.61 2.34 22.04 11.24 34.74 10.78 -7.09 -9.42 -45.94c10.84,-27.19 34.24,-48.21 35.6,-78.24l2.84 -13.62 1.36 16.41 6.58 -7.03 1.42 -12.62 12.16 -10.84 19.7 -14.93 1.36 -11.2 12.66 -8 13.62 -2.84 8.46 4.21 -6.12 8 0 4.21 8.46 -5.57 14.93 -13.67 -13.51 -4.16 -11.3 -6.58 -2.33 -12.66 -11.2 0 -29.13 13.62 17.83 -19.15 10.28 -17.83 49.23 0 5.63 -5.71 12.2 -6.49 -5.61 -7.09 -6.59 -2.79 -4.21 -2.83 -9.82 8.46 -5.17 -1.42 6.59 -7.04 0 -8.41 -5.23 0c-14.95,-9.38 -29.01,-19.2 -38.39,-34.24l-8.92 -6.99 -5.17 6.99 -6.93 9.88 -8.56 -4.21 -10.74 -8.46 1.46 -9.82c-15.03,-14.54 -27.25,-20.62 -49.27,-19.25l-1.36 2.84 5.61 15.45 -6.99 16.41 5.63 1.42 5.11 19.19 -6.47 12.2 2.73 15.45 2.38 13.57 -6.63 -2.83 -18.19 -6.49 -6.58 -5.67 -2.89 -17.77 -28.47 0 -18.33 -7.05 -12.66 1.42 -5.17 -7.03 1.36 -14.99 -6.98 -8.41 9.36 -10.78 -0.96 -18.29 -14.94 -3.75 5.12 -9.92 12.2 7.08 14.08 1.42 7.9 -8.5 2.89 -9.78 16.81 0 1.42 -7.91 6.59 1.38 8.4 -8.46 -11.18 -12.72 -6.63 12.72 -15.4 0 -3.79 -12.72 -5.63 9.02 -2.79 -4.71 -8.46 -10.8 -6.59 -9.82 -6.99 5.63 -2.83 10.68 2.83 9.02 -19.19 2.28 -19.7 5.61 -20.62 -7.9 -10.78 7.9 -9.42 0 -18.23 -4.19 9.82 -13.58 -11.2 -4.21 -35.6 1.38 -5.67 -14.04 -7.95 5.63 -16.85 2.79 -10.74 0c-38.91,-6.99 -78.7,-14.99 -117.15,-14.99l-19.25 5.11 -19.7 0 -6.53 9.88 0 16.35 -16.87 5.68 -14.99 -5.68 -11.24 5.68 -3.7 8.46 2.28 7.95 7.03 12.65 -7.94 4.21 -12.72 6.53 -17.73 8.46 2.84 10.8 13.47 -0.96 4.26 0.96 -5.63 2.83 -9.32 5.63 -8.51 8.41 -13.57 7.95 -23.4 11.24 9.88 1.41 20.11 -4.19 45.42 -16.41 11.3 -7.05 19.2 -13.57 12.66 1.42 13.57 -2.89 8.41 -12.56c12.25,9.78 37.01,20.6 52.01,21.98l7.09 22.02 0 12.66 21.98 24.82 15.03 21.98 -3.75 9.42c-15.49,31.81 -30.48,62.39 -12.71,97.95 0,20.62 15.55,34.64 27.71,49.63l7.04 24.76 7.85 17.87 -3.7 9.83 16.47 10.74 12.1 31.9 14.08 6.59 0 -9.37 -8.47 -9.32 -5.61 -14.13 -4.15 -7.95 -7.95 -21.12 -8.51 -15.05 4.25 -16.25 8.41 16.25 5.11 20.72 8.46 2.78 7.05 12.66 12.14 23.4 15.51 17.37c3.75,14.03 9.42,31.8 13.62,45.42l21.98 16.87c19.25,4.21 33.28,15.45 51.11,23.44l12.2 -6.58 12.1 9.36 7.54 9.37 14.94 4.71 24.36 15.91 12.72 -3.8 -2.84 15.05 9.82 10.78c15.05,16.87 28.63,27.71 49.69,34.7l0.96 -5.73 15.41 -2.73 5.67 8.46 12.14 -2.89 0 0zm174.79 -512.54l0 0 -20.16 -7.95 -16.82 -1.46c-16.45,-16.83 -36.11,-34.14 -51.09,-52.43l1.36 -12.66 -6.53 1.42 -12.66 -6.58 -9.37 -13.58 -4.19 3.7 -4.26 -6.49c-26.23,-17.83 -47.3,-27.71 -78.64,-25.32l-2.84 -7.95 -10.74 -7.95 174.73 2.34 5.67 5.61 10.74 2.84 6.99 -4.31c11.24,7.04 16.41,14.08 23.44,24.92l-1.36 9.82 6.53 2.79 12.16 1.42 3.34 5.17 -12.72 0 -13.57 -1.42 16.41 9.82 12.66 2.28 -2.79 1.46 -18.33 8.41 -3.7 12.66 -13.57 12.2 1.36 21.08 7.95 20.16 0 0zm-274.55 -88.08l0 0 4.25 1.42 -4.25 -12.66 4.25 -7.95 9.32 -2.84 7.03 2.84 15.45 6.99 12.22 6.58 16.41 1.42 20.66 10.8 8.41 8.4 16.35 16.41 19.65 2.79 0 6.53 -5.67 1.42 -5.57 -2.84 -13.58 -3.69 0 3.69 13.58 9.88 9.92 7.05 0 2.79 -7.09 0 -9.88 -2.79 2.84 4.15 8.4 6.63 -1.36 0 -16.41 -6.63 -6.99 -2.79 -7.03 1.42 -6.99 -12.62 -9.42 1.42 -8.41 5.57 -9.42 -9.78 8.01 -4.31 8.46 0 4.09 -3.69 -11.14 -8.46 -1.41 -11.24 -19.19 -7.95 -8.51 -1.36 -19.19 -6.59 -4.21 6.59 -13.57 -6.59 0 0zm4.65 63.25l-1.36 0 10.78 -9.37 7.05 -7.04 5.11 4.25 4.71 5.57 5.11 3.7 -5.11 1.46 -8.46 -1.46 -7.04 5.73 -10.8 -2.84 0 0zm26.29 384.21l10.74 -9.37 17.77 0 16.41 5.11 16.87 7.09 10.78 7.91 9.88 7.04 -11.28 9.93 -10.74 3.65 -9.88 -2.28 4.25 -6.13 0 -6.53 -16.41 -10.8 -12.66 -2.78 -0.9 -2.83 -19.71 2.83 -6.58 -1.46 1.46 -1.36 0 0zm82.45 51.09l0 0 2.79 2.79 -1.41 -5.21 5.11 -5.57 7.03 0 5.23 -2.79 -2.38 -5.17 5.17 -2.83 8.4 1.41 12.2 3.75 11.26 4.21 -8.41 4.26 -15.05 6.53 -16.41 -1.38 -13.52 0 0 0zm775.4 -453.13l-7.91 5.13 -1.46 5.67 -5.63 5.61 13.58 6.53 13.12 -4.19 12.65 -3.8 7.09 -5.53 9.38 -6.63 1.36 -4.15 -7.03 0 -14.99 -2.83 -13.58 7.94 -1.46 -6.58 -21.48 19.24 16.37 -16.41 0 0zm330.31 538.38l-9.32 33.26 -16.93 16.41 -7.94 30.49 -16.83 20.56 -31.4 26.24c-10.84,19.24 -21.98,31.44 -38.89,45.48l-6.63 21.98 8.5 35.6 12.16 12.66c-5.17,53.43 -22.04,63.2 -60.43,93.19 0,19.29 0,37.57 -5.67,56.76l-16.35 10.8 -5.67 2.78 -2.79 30.44 -16.41 27.61 -20.62 8 -8.41 15.55 -31.86 4.15 -19.19 4.26 -17.87 -5.63 -2.79 -11.3 -12.16 -31.4 -9.36 -24.76 -10.8 -18.33 -4.21 -42.64 -12.71 -34.2c-5.57,-30.48 -6.53,-52.41 3.39,-81.13l0.92 -22.44c-2.79,-19.19 -7.05,-36.97 -7.05,-56.66l-8 -10.8 -11.24 -17.77 -12.16 -19.75 5.17 -9.37c16.87,-26.17 2.83,-51.96 -28.57,-48.27l-8.5 -12.1 -13.52 -1.41c-24.87,5.57 -81.6,26.23 -100.8,6.98l-23.34 -11.24c-7.95,-21.98 -39.95,-59.97 -39.95,-79.61l-2.74 -12.16 8.41 -14.13 12.14 -25.78 9.38 -30.39 11.3 -29.07c35.6,-42.58 77.28,-107.31 129.29,-129.35l5.67 -5.57 8.41 6.59 42.64 -1.02 30.45 -2.78 13.57 -1.41 24.36 2.79 12.66 3.79 -9.88 12.66 17.87 14.99 24.76 11.26 19.3 12.14 16.87 -10.78 17.77 -5.57 29.03 9.78 23.44 1.41 22.04 -1.41 1.41 25.83c1.38,24.81 2.84,52.47 6.55,75.86l15.49 31.91c13.62,55.2 24.76,92.23 89.5,101.6l28.51 -5.57 0 0zm-382.22 -422.65l12.1 2.89 15.05 -5.71 6.93 -9.32 17.83 -14.14 -14.08 -5.05 -10.68 8.4 -5.69 0 -9.36 7.95 5.11 2.84 -9.32 6.53 -7.9 5.61 0 0zm23.39 13.58l0 -2.79 5.13 -4.21 4.21 -3.7 7.9 -2.89 -3.7 -4.21 6.59 -1.41 4.71 -5.63 2.28 0 4.25 -1.36 5.11 -6.59 1.42 -9.82 1.02 -8.46 1.32 -5.17 5.67 -6.99 6.98 -4.25 7.09 -0.92 7.95 -1.46 -5.61 8 7.04 4.26 -10.84 6.53 -7.04 3.29 2.83 12.16 -2.83 10.78 2.83 7.03 -2.83 4.21 -4.16 5.67 -4.19 2.28 -13.18 1.46 -9.82 -1.46 -9.42 4.25 -10.7 1.38 0 0zm951.14 937.1l16.37 6.59 33.22 -13.58 20.66 0 12.2 -10.78 6.99 -1.36 6.59 -7.15 29.47 0 23.44 4.26 10.8 10.74 4.21 2.83 2.37 4.25 15.45 -10.78 5.63 -2.79 -8.46 25.73 7.09 1.36 5.05 8.05 1.48 7.39 -2.84 3.4c19.65,9.78 34.7,5.61 55.76,4.15l5.17 -5.57 18.29 -3.75c23.39,-25.83 43.6,-53.49 44.96,-89.04 -2.79,-16.41 -9.42,-24.86 -16.41,-38.85l-1.41 -13.67 -15 -5.53 -9.82 -22.08c-12.66,-17.87 -20.62,-45.02 -22.04,-66.1l-8.4 -1.36 -6.59 -20.66 -9.82 -21.98 1.41 13.57c-5.21,16.87 -7.94,37.48 -12.65,53.89l-6.59 5.57 -8.46 1.36 -12.1 -13.98 -13.62 -9.36 -12.66 -5.63 1.42 -3.75 2.79 -8.92 0 -6.53 2.37 -4.25 1.38 -11.3 -28.53 -5.11 -5.67 -1.42 -2.83 5.17 -12.56 -3.75 -3.9 8 -5.57 12.66 -2.83 2.79 -3.7 12.66 -1.42 6.49 -2.78 1.51 -7.04 -12.66 -7.03 -9.36 -12.72 14.03 -2.28 9.38 -8.4 8 -1.42 11.2 -3.75 -5.17 -4.21 5.17 0 9.42c-15.45,14.03 -36.06,29.01 -53.88,38.85l-9.37 9.42c0,11.24 -2.84,23.44 -2.84,34.64l2.84 1.46 1.42 5.53 -5.67 6.58c7.04,19.65 19.2,45.44 20.6,66.5l-2.79 9.42 -1.36 4.21 0 0zm226.29 69.79l4.26 -1.41 17.27 -1.38 1.41 5.17 -2.79 9.88 -12.2 5.07 -5.17 -12.2 -4.21 -6.53 1.42 1.41 0 0zm-425.93 -516.28l26.29 2.74 17.77 15.09 15.05 21.98 12.1 9.88 3.29 7.95 9.37 8.36 14.03 15.05 -4.67 26.23 -10.78 2.84 -9.32 -4.21 -9.88 -13.68 -18.29 -21.98 -12.15 -19.19 -5.23 -19.2 -14.03 -15.45 -6.53 -7.95 -5.63 -5.71 -1.41 -2.74 0 0zm124.12 35.56c0,12.2 -4.15,20.66 1.02,35.65l8.4 1.42 0 8.41 19.19 7.03 24.82 5.57 7.04 1.06 6.59 -23.5 9.82 -6.53 12.16 -16.91 -5.11 -21.52 0 -8.01 3.75 -14.03 -9.42 -7.95 -8.41 -12.66 -8.46 9.78c0,13.68 -13.52,24.87 -23.4,32.88 -12.1,1.36 -22.04,6.99 -34.18,6.99 -13.62,6.58 -6.59,24.41 -6.59,37.97l2.79 -35.65 0 0zm265.69 46.85l-16.47 5.67 -6.48 4.15 -6.99 -6.93 -4.31 -6.59 -5.61 -8.46 -11.16 -3.75 -12.3 3.75 7.09 9.88 5.21 2.28 -2.43 2.89 2.43 12.16 1.38 7.04 6.07 -7.04 12.2 5.67 11.2 4.15c17.37,10.8 22.98,23.46 33.72,39.87l32.82 11.18 -3.79 -14.03 5.21 -2.84 19.65 12.66 11.3 7.05 5.15 6.53 4.21 9.82 27.61 7.09 -19.7 -34.74 -10.8 -10.68 10.8 0 -5.13 -14.14 -13.62 -9.36 -15.45 -11.2 -27.59 -17.83 -15.05 -4.25 -16.37 -3.7 -15.03 9.37 -10.74 5.57 -6.99 -9.78 -2.89 -2.83 -7.03 -15.91 39.85 17.27 0 0zm-291.92 41.78l6.63 -10.78 14.95 1.36 5.67 3.75 14.93 -5.11 18.29 15.05 10.78 7.95 -2.89 4.09 -10.68 -5.57 -11.3 0 -9.36 -4.19 -12.22 2.78 -12.6 -5.07 -16.41 -7.05 4.21 2.79 0 0zm449.33 452.59l22.94 3.69 26.34 -27.19 8.4 -2.74c5.13,-9.36 4.21,-19.19 4.21,-30.48l-14.13 7.08 -12.16 11.2 -8.36 14.95 -12.2 4.25 -11.3 21.58 -3.75 -2.33 0 0zm76.94 -89.44l5.57 6.98 -12.16 13.58 -7.09 -5.63 -3.69 -5.67 10.78 -10.78 2.38 -9.32 6.93 2.83 -2.73 8.01 0 0zm-1054.25 -319.63l4.21 0 -2.84 8.4 -5.11 8.01 -2.84 9.92 -13.57 8.41 -11.3 6.47 -12.1 5.69 0 16.35 1.36 12.71 2.84 15 -9.93 14.03 -8.35 7.95 -2.79 14.07 5.57 13.52 -1.36 9.93 11.24 7.95 10.78 -1.42 11.2 -5.17 4.25 -23.44 6.55 -9.83 -1.38 -9.82 4.16 -13.58 5.67 -7.04 2.73 -12.16 2.38 -11.28 -3.7 -14.95 7.85 -14.99 9.42 -2.89 -14.93 -31.86 0 0zm712.64 -478.86l22.9 -6.99 11.28 0 16.87 -2.79 6.59 -3.8c-1.38,-19.65 -5.17,-33.28 -17.79,-48.21l-4.19 -5.63 -6.63 1.36 0 15 1.41 8.46 -1.41 7.04 -8.41 0 -4.21 -2.79 1.36 13.52 2.84 9.88 -12.66 0 -9.37 5.17 7.05 8.4 -5.63 1.38 0 0zm-423.14 265.64l9.42 2.89 10.74 13.52 -3.7 14.03 -9.88 1.46 -9.37 -14.07 4.21 -6.99 4.21 -9.37 -5.61 -1.46 0 0zm-1579.92 -639.46l0 0 -13.06 2.74 14.54 -1.38 0 5.63 8.4 -2.79 3.7 4.21 9.88 3.79 7.03 -8 6.99 9.27 5.17 1.51 4.25 8.36 -5.67 8.41 -13.52 0 -14.13 -2.73 -9.32 4.19 -4.26 1.42 -12.2 -2.89 -6.47 -9.78 13.57 -2.79 0 -6.99 -7.95 -2.43 0.86 -8.41 12.2 -1.36 0 0zm1315.19 396.81l1.46 29.07 5.63 16.37 6.53 12.66 9.82 -8.41 4.26 20.62 24.76 0 4.25 -13.62 6.59 -6.99 0 13.57 15.39 19.65 9.48 6.59 -1.48 14.08 -12.2 20.6c-12.56,8.47 -22.02,20.57 -34.58,28.97 -24.87,3.8 -55.76,28.67 -79.22,39.91l-7.09 -7.09c-12.56,-29.93 -27.65,-63.2 -38.79,-93.65l-1.01 -22.02c-7.05,-17.87 -12.66,-37.03 -18.23,-54.86l-1.38 -13.57 -8 13.57 -11.24 -13.57 -9.37 2.33 2.33 -25.78 14.08 -2.79 5.67 -4.19 2.74 -6.59 9.36 -15.45 9.83 -17.77 -1.32 -2.89c-15.55,2.89 -23.04,2.43 -37.53,-1.38l-15.05 7.05 -11.18 -23.46 2.83 -5.57 2.79 -17.87 -5.61 -5.57 -17.83 -1.46 -2.79 12.71 -6.63 2.33 -2.79 15.45 0 12.22 -6.99 8.45 -9.88 -4.26 -1.36 -12.15 5.57 -4.26 -4.21 -4.19 -2.38 -13.58 -2.73 -7.03 -2.84 -13.98 -7.04 -17.87 -7.05 -4.21 -6.53 -5.17 -9.88 -2.83 -4.25 8 7.14 14.13 8.35 7.95 7.95 8.31 7.09 7.03 0 5.67 -7.09 -2.83 -2.79 0 -2.83 3.79 1.41 8.41 -7.94 7.03 -2.79 1.36 0 -7.03 -1.38 -12.16 -7.14 -14.07 -9.32 -9.32 -10.8 -8.47 -7.49 -8.5 -6.53 2.89c-18.28,11.24 -32.76,7.04 -49.17,17.87l-15.45 4.15 -8.05 5.63 -5.57 4.21 -6.99 8c-16.41,26.24 -78.3,41.69 -73.13,-3.79l14.08 -14.04 5.57 -14.99 6.58 -5.61 11.3 -2.84c15.45,2.84 26.19,4.25 42.6,0l11.28 -14.95 2.34 -8.46 -5.17 -8.05 -2.89 -8.4 4.31 -2.78 9.36 1.41 7.05 1.38 0 -11.2 8.35 0c17.37,-1.46 44.96,-10.78 60.01,-25.78l2.79 2.34 12.16 -6.53 14.08 -4.26 23.44 1.42 19.19 0 12.16 -1.42 15.49 0 2.79 5.63 8.05 -5.63 6.93 -9.88 4.26 -1.31 10.78 -13.62 -5.17 -12.66 -14.03 2.83 -13.62 4.67 -14.03 12.2 -5.21 5.17 -15.45 2.73 0 -12.1 7.03 -12.66 2.84 -7.95 -11.26 5.13 -14.99 2.83 -7.09 -3.75 9.93 -11.24c14.53,-13.17 26.19,-23.44 45.38,-28.57 31.9,-11.24 66.08,-28.15 95.15,-44.56l13.58 -3.75 19.24 -3.24c21.08,6.13 38.85,17.33 58.96,24.82l4.25 11.28 -20.61 5.57 -12.16 -4.19 -7.94 -2.89 6.53 12.25 4.21 8.41 13.57 0 17.83 -9.88 9.36 -5.07 4.26 -1.42 4.15 -16.86 5.67 -1.42 -2.89 18.28 15.09 -10.78 35.5 -1.87 8.97 -1.42 14.93 -5.63 26.34 5.63 20.56 -27.71 1.42 8.51 8.4 24.81 -11.18 7.95 6.99 6.13 19.2 -8.96 14.07 1.46 10.74 5.57 -10.74 -14.99 -18.23 -5.57 -1.41 -13.62 6.98 -5.57 2.84 7.95 9.82 -3.8 -6.98 -8.41 13.52 -2.33 16.85 2.33 -6.07 -6.98 34.64 -5.17 31.86 -12.66 34.69 1.36 0 21.12 15.05 -7.55 14.95 9.88 24.87 2.84 8.41 8.41 20.6 -2.84 6.55 3.8 14.13 -6.65 14.03 6.65 35.6 -0.96 -4.21 -8.41 16.87 0 25.78 -1.42 11.18 12.16c24.42,1.46 44.12,5.61 67.56,15.45l6.49 4.25 27.65 3.7 40.27 0 -2.74 -3.7 19.2 1.36 12.16 3.8 14.07 5.57 30.03 4.25 27.61 7.05 15.45 -1.42 5.17 4.21 15.39 8 13.62 8.41 12.66 5.61 -8.46 2.79 -26.19 -6.99 -20.72 -7.04 7.05 8.41 12.25 8 2.8 8.41 -12.16 8.46 2.38 5.17 -15 2.79 -19.74 1.36 -2.34 7.09 15 16.41 7.08 4.21 6.95 14.99 12.2 6.99 0 11.28 5.63 15 -11.2 -4.21 -12.2 -6.63 -8.46 -11.2c-9.37,-9.88 -20.57,-17.83 -24.78,-30.44l-5.21 -14.99 -12.66 -13.62 -12.16 -12.66 -8.46 2.83 -5.61 -2.83 0 2.83 -1.48 8.41 -1.36 7.95 -9.32 1.46c-17.83,-9.42 -51.05,-7.04 -71.71,-1.46l-4.26 1.46 9.93 37.48 10.74 -2.84 14.07 5.17 15 23.34 12.15 5.73 -13.57 -27.71 5.63 -2.28 6.53 7.91 27.65 30.48 1.46 16.41 9.72 17.79 5.68 16.91 -11.26 -15.51 -20.56 -30.02 4.15 9.36 -1.36 9.88 -37.53 39.81 -7.95 -8.41 -11.24 6.99 -5.63 12.66c-3.69,17.37 21.12,40.77 24.82,60.47l-9.32 6.53 -7.09 -7.95c-8.41,-13.57 -12.1,-24.87 -26.23,-31.8l1.41 -9.88 -5.61 -2.38 -14.99 -1.36 -8.41 3.75 -2.78 -9.37 0 -14.07 -6.59 -0.96 -7.03 15.03 -9.82 9.37 -2.38 6.07 5.17 8.01 15.45 5.57 10.78 -1.36 12.66 9.82 -7.04 2.79 -8.41 9.42 19.65 32.78 7.95 16.41 9.92 9.82 -12.66 35.6 -20.72 38.89 -17.77 12.22 -14.99 4.19 -24.82 16.41 -8.4 -9.42 -19.25 12.2 -8.41 14.04 8.41 12.2 13.68 19.14 9.76 16.97 2.84 28.51 -14.08 12.2 -6.53 11.3 -9.88 1.36 -1.36 -14.07 -22.04 -17.27 -8.46 -3.34 -5.11 -9.32 -7.04 2.79 -2.84 14.95 -3.75 15.03 -1.88 9.88 9.83 10.8 10.78 12.55 16.87 22.09 1.36 17.77 2.38 15.45 -2.38 8 -5.57 -8 -12.66 -19.65 -5.11 -13.57 -8.46 -13.58 -5.17 -7.03 -11.3 -14.99 2.89 -18.29 0 -35.6 -5.61 -14.08 -7.05 -17.31 -8.46 10.78 -7.95 -2.79 -4.15 -15.49 -3.85 -10.74 -8.86 -9.42 -17.37 -20.57 -14.04 -15.49 -19.14 4.21 -8.51 5.15c-12.66,21.08 -19.2,38.91 -39.85,55.31l-10.68 2.73 -4.26 29.13 -8.5 6.53 -5.58 21.98 -5.11 16.91 -8.96 5.63 -7.95 -7.05 -26.23 -74.44 -6.55 -28.63 -4.25 -34.69 -13.98 9.82 -6.63 -8.4 -2.83 -12.1 -12.56 -12.72 -16.47 -24.82 -30.38 -4.25 -12.26 -9.32 -17.73 9.32 -18.33 -5.11 0 -16.91 -16.41 6.98 -17.77 -2.73 -15.45 -17.83 -5.17 -27.71 -16.91 7.09z"/>
            <g>
    <path class="fil1"
          d="M2089.63 63.61c4.17,32.75 -18.6,57.15 -31.48,78.74 -14.91,24.95 -30.28,46.47 -41.44,68.78 -0.55,0 -1.09,0 -1.67,0 -10.64,-17.59 -23.61,-39.09 -37.28,-61.34 -12.98,-21.11 -28.7,-41.7 -34,-64.65 -22.57,-98.24 133.52,-119.33 145.87,-21.54zm-73.8 -39.84c25.15,0 45.55,20.39 45.55,45.55 0,25.15 -20.39,45.55 -45.55,45.55 -25.15,0 -45.55,-20.39 -45.55,-45.55 0,-25.15 20.39,-45.55 45.55,-45.55z"/>
                <path class="fil2"
                      d="M2015.84 14.43c30.91,0 55.96,25.06 55.96,55.97 0,30.91 -25.06,55.97 -55.96,55.97 -30.91,0 -55.97,-25.06 -55.97,-55.97 0,-30.91 25.06,-55.97 55.97,-55.97z"/>
                <path class="fil3"
                      d="M2057.25 39.39c3.47,45.87 -46.05,77.93 -86.44,55.48 40.83,30.59 122.63,-7.79 86.44,-55.48z"/>
                <path class="fil3"
                      d="M1970.81 94.88c11.2,12.02 27.32,19.99 45.05,19.99 23.97,0 48.37,-12.74 51.3,-38.37 -20.66,32.89 -65.06,40.97 -96.35,18.37z"/>
                <path class="fil3"
                      d="M1970.81 94.88c13.91,24.25 45.21,34.29 69.66,21.17 -28.72,8 -51.87,-2.26 -69.66,-21.17z"/>
                <path class="fil3"
                      d="M2010.75 29.41c3.01,0 5.95,0.31 8.8,0.87 -5.87,-4.04 -12.51,-7.04 -19.66,-8.73 -27.97,9.26 -42.37,40.06 -32.04,67.29 -1.49,-4.48 -2.29,-9.26 -2.29,-14.24 0,-24.96 20.23,-45.2 45.19,-45.2z"/>
                <path class="fil3"
                      d="M2054.37 35.93c-4.68,-5.16 -10.39,-9.37 -16.8,-12.31 4.14,6.81 6.79,14.34 7.9,22.07 3.1,3.72 5.62,7.94 7.41,12.54 1.94,-7.31 2.42,-14.89 1.49,-22.3zm-38.2 -16.98l0 0c-0.02,-0 -0.04,-0 -0.06,-0 -3.43,0 -6.78,0.34 -10.02,0.98 1.59,0.7 3.17,1.46 4.73,2.29 4.92,2.62 9.39,5.74 13.42,9.25 1.72,0.54 3.4,1.18 5.02,1.91 -3.46,-5.42 -7.85,-10.32 -13.09,-14.43zm3.81 0.15l0 0c5.2,4.65 9.47,10.08 12.74,16.02 3.58,2 6.86,4.46 9.76,7.32 -1.59,-7.26 -4.54,-14.2 -8.75,-20.4 -4.34,-1.58 -8.96,-2.59 -13.75,-2.94z"/>
                <polygon class="fil1"
                         points="1991.46,91.68 1999.44,54.13 1984.23,54.13 1986.84,42.06 2033.83,42.06 2031.2,54.13 2015.97,54.13 2007.99,91.68 "/>
                <polygon class="fil1" points="1989.05,103.11 1990.77,95.37 2007.3,95.37 2005.58,103.11 "/>
   </g>
            <g>
    <path class="fil1"
          d="M2486.2 1022.9c4.17,32.75 -18.6,57.15 -31.48,78.74 -14.91,24.95 -30.27,46.47 -41.43,68.78 -0.55,0 -1.09,0 -1.67,0 -10.64,-17.59 -23.61,-39.09 -37.28,-61.33 -12.98,-21.11 -28.7,-41.7 -34,-64.65 -22.57,-98.24 133.52,-119.33 145.87,-21.54zm-73.8 -39.84c25.15,0 45.55,20.39 45.55,45.55 0,25.15 -20.39,45.55 -45.55,45.55 -25.15,0 -45.55,-20.39 -45.55,-45.55 0,-25.15 20.39,-45.55 45.55,-45.55z"/>
                <path class="fil2"
                      d="M2412.4 973.73c30.91,0 55.97,25.06 55.97,55.96 0,30.91 -25.06,55.97 -55.97,55.97 -30.91,0 -55.96,-25.06 -55.96,-55.97 0,-30.91 25.06,-55.96 55.96,-55.96z"/>
                <path class="fil3"
                      d="M2453.82 998.69c3.47,45.87 -46.05,77.93 -86.44,55.48 40.83,30.59 122.63,-7.79 86.44,-55.48z"/>
                <path class="fil3"
                      d="M2367.38 1054.17c11.2,12.02 27.32,19.99 45.05,19.99 23.97,0 48.37,-12.74 51.3,-38.37 -20.66,32.89 -65.06,40.97 -96.36,18.37z"/>
                <path class="fil3"
                      d="M2367.38 1054.17c13.92,24.25 45.21,34.29 69.66,21.17 -28.72,8 -51.87,-2.26 -69.66,-21.17z"/>
                <path class="fil3"
                      d="M2407.32 988.71c3.01,0 5.95,0.31 8.8,0.87 -5.87,-4.04 -12.51,-7.04 -19.66,-8.73 -27.97,9.26 -42.37,40.06 -32.04,67.29 -1.49,-4.48 -2.29,-9.26 -2.29,-14.24 0,-24.96 20.23,-45.19 45.19,-45.19z"/>
                <path class="fil3"
                      d="M2450.94 995.22c-4.68,-5.16 -10.38,-9.37 -16.8,-12.31 4.14,6.81 6.79,14.34 7.9,22.08 3.1,3.72 5.62,7.94 7.41,12.54 1.94,-7.31 2.42,-14.89 1.49,-22.3zm-38.19 -16.98l0 0c-0.02,-0 -0.04,-0 -0.06,-0 -3.43,0 -6.78,0.34 -10.02,0.98 1.59,0.7 3.17,1.46 4.73,2.29 4.92,2.62 9.39,5.74 13.42,9.25 1.72,0.54 3.4,1.18 5.02,1.91 -3.46,-5.42 -7.85,-10.32 -13.09,-14.43zm3.81 0.15l0 0c5.2,4.65 9.47,10.08 12.74,16.02 3.58,2 6.86,4.46 9.76,7.32 -1.59,-7.26 -4.54,-14.2 -8.75,-20.4 -4.34,-1.58 -8.96,-2.59 -13.75,-2.94z"/>
                <polygon class="fil1"
                         points="2388.02,1050.97 2396.01,1013.43 2380.8,1013.43 2383.41,1001.36 2430.4,1001.36 2427.77,1013.43 2412.54,1013.43 2404.56,1050.97 "/>
                <polygon class="fil1" points="2385.61,1062.41 2387.33,1054.67 2403.87,1054.67 2402.14,1062.41 "/>
   </g>
            <g>
    <path class="fil1"
          d="M1473.57 709.17c4.17,32.75 -18.6,57.15 -31.48,78.74 -14.91,24.95 -30.27,46.47 -41.43,68.78 -0.55,0 -1.09,0 -1.67,0 -10.64,-17.59 -23.61,-39.09 -37.28,-61.33 -12.98,-21.11 -28.7,-41.7 -34,-64.65 -22.57,-98.24 133.52,-119.33 145.87,-21.54zm-73.8 -39.84c25.15,0 45.55,20.39 45.55,45.55 0,25.15 -20.39,45.55 -45.55,45.55 -25.15,0 -45.55,-20.39 -45.55,-45.55 0,-25.15 20.39,-45.55 45.55,-45.55z"/>
                <path class="fil2"
                      d="M1399.77 660c30.91,0 55.97,25.06 55.97,55.97 0,30.91 -25.06,55.96 -55.97,55.96 -30.91,0 -55.96,-25.06 -55.96,-55.96 0,-30.91 25.06,-55.97 55.96,-55.97z"/>
                <path class="fil3"
                      d="M1441.19 684.96c3.47,45.87 -46.05,77.93 -86.44,55.48 40.83,30.59 122.63,-7.79 86.44,-55.48z"/>
                <path class="fil3"
                      d="M1354.75 740.44c11.2,12.02 27.32,19.99 45.05,19.99 23.96,0 48.37,-12.74 51.3,-38.37 -20.66,32.89 -65.06,40.97 -96.36,18.37z"/>
                <path class="fil3"
                      d="M1354.75 740.44c13.92,24.25 45.21,34.29 69.66,21.17 -28.72,8 -51.87,-2.26 -69.66,-21.17z"/>
                <path class="fil3"
                      d="M1394.69 674.98c3.01,0 5.95,0.31 8.8,0.87 -5.87,-4.04 -12.51,-7.04 -19.66,-8.73 -27.97,9.26 -42.37,40.06 -32.04,67.29 -1.49,-4.48 -2.29,-9.26 -2.29,-14.24 0,-24.96 20.23,-45.19 45.19,-45.19z"/>
                <path class="fil3"
                      d="M1438.31 681.49c-4.68,-5.16 -10.39,-9.37 -16.8,-12.31 4.14,6.81 6.79,14.34 7.9,22.07 3.1,3.72 5.62,7.94 7.41,12.54 1.94,-7.31 2.42,-14.89 1.49,-22.3zm-38.2 -16.98l0 0c-0.02,-0 -0.04,-0 -0.06,-0 -3.43,0 -6.78,0.34 -10.02,0.98 1.59,0.7 3.17,1.46 4.73,2.29 4.92,2.62 9.39,5.74 13.42,9.25 1.72,0.54 3.4,1.18 5.02,1.91 -3.46,-5.42 -7.85,-10.32 -13.09,-14.43zm3.81 0.15l0 0c5.2,4.65 9.47,10.08 12.74,16.02 3.58,2 6.86,4.46 9.76,7.32 -1.59,-7.26 -4.54,-14.2 -8.75,-20.4 -4.34,-1.58 -8.96,-2.59 -13.75,-2.94z"/>
                <polygon class="fil1"
                         points="1375.4,737.25 1383.38,699.7 1368.17,699.7 1370.78,687.63 1417.77,687.63 1415.14,699.7 1399.91,699.7 1391.93,737.25 "/>
                <polygon class="fil1" points="1372.98,748.68 1374.71,740.94 1391.24,740.94 1389.52,748.68 "/>
   </g>
            <g>
    <path class="fil1"
          d="M868.82 961.12c4.17,32.75 -18.6,57.15 -31.48,78.74 -14.91,24.95 -30.27,46.47 -41.43,68.78 -0.55,0 -1.09,0 -1.67,0 -10.64,-17.59 -23.61,-39.09 -37.28,-61.33 -12.98,-21.11 -28.7,-41.7 -34,-64.65 -22.57,-98.24 133.52,-119.33 145.87,-21.54zm-73.8 -39.84c25.15,0 45.55,20.39 45.55,45.55 0,25.15 -20.39,45.55 -45.55,45.55 -25.15,0 -45.55,-20.39 -45.55,-45.55 0,-25.15 20.39,-45.55 45.55,-45.55z"/>
                <path class="fil2"
                      d="M795.03 911.94c30.91,0 55.96,25.06 55.96,55.96 0,30.91 -25.06,55.97 -55.96,55.97 -30.91,0 -55.97,-25.06 -55.97,-55.97 0,-30.91 25.06,-55.96 55.97,-55.96z"/>
                <path class="fil3"
                      d="M836.45 936.9c3.47,45.87 -46.05,77.93 -86.44,55.48 40.83,30.59 122.63,-7.78 86.44,-55.48z"/>
                <path class="fil3"
                      d="M750.01 992.39c11.21,12.03 27.32,19.99 45.05,19.99 23.97,0 48.37,-12.74 51.3,-38.37 -20.66,32.89 -65.06,40.97 -96.36,18.37z"/>
                <path class="fil3"
                      d="M750.01 992.39c13.92,24.25 45.21,34.29 69.66,21.17 -28.72,8 -51.87,-2.26 -69.66,-21.17z"/>
                <path class="fil3"
                      d="M789.95 926.92c3.01,0 5.95,0.31 8.8,0.87 -5.87,-4.04 -12.51,-7.04 -19.66,-8.73 -27.97,9.26 -42.37,40.06 -32.04,67.29 -1.49,-4.48 -2.29,-9.26 -2.29,-14.24 0,-24.96 20.23,-45.19 45.19,-45.19z"/>
                <path class="fil3"
                      d="M833.57 933.44c-4.68,-5.16 -10.39,-9.37 -16.8,-12.31 4.14,6.81 6.79,14.34 7.9,22.07 3.1,3.72 5.62,7.94 7.41,12.54 1.94,-7.31 2.42,-14.89 1.49,-22.3zm-38.2 -16.98l0 0c-0.02,-0 -0.04,-0 -0.06,-0 -3.43,0 -6.78,0.34 -10.02,0.98 1.59,0.7 3.17,1.46 4.73,2.29 4.92,2.62 9.39,5.74 13.42,9.25 1.72,0.54 3.4,1.18 5.02,1.91 -3.46,-5.42 -7.85,-10.32 -13.09,-14.43zm3.81 0.15l0 0c5.2,4.65 9.47,10.08 12.74,16.02 3.58,2 6.86,4.46 9.76,7.32 -1.59,-7.26 -4.54,-14.2 -8.75,-20.4 -4.34,-1.58 -8.96,-2.59 -13.75,-2.94z"/>
                <polygon class="fil1"
                         points="770.65,989.19 778.63,951.64 763.43,951.64 766.04,939.57 813.02,939.57 810.4,951.64 795.16,951.64 787.18,989.19 "/>
                <polygon class="fil1" points="768.24,1000.62 769.96,992.88 786.49,992.88 784.77,1000.62 "/>
   </g>
            <g>
    <path class="fil1"
          d="M415.09 269.01c4.17,32.75 -18.6,57.15 -31.48,78.74 -14.91,24.95 -30.27,46.47 -41.43,68.78 -0.55,0 -1.09,0 -1.67,0 -10.64,-17.59 -23.61,-39.09 -37.28,-61.33 -12.98,-21.11 -28.7,-41.7 -34,-64.65 -22.57,-98.24 133.52,-119.33 145.87,-21.54zm-73.8 -39.84c25.15,0 45.55,20.39 45.55,45.55 0,25.15 -20.39,45.55 -45.55,45.55 -25.15,0 -45.55,-20.39 -45.55,-45.55 0,-25.15 20.39,-45.55 45.55,-45.55z"/>
                <path class="fil2"
                      d="M341.3 219.83c30.91,0 55.97,25.06 55.97,55.96 0,30.91 -25.06,55.97 -55.97,55.97 -30.91,0 -55.96,-25.06 -55.96,-55.97 0,-30.91 25.06,-55.96 55.96,-55.96z"/>
                <path class="fil3"
                      d="M382.71 244.8c3.47,45.87 -46.05,77.93 -86.44,55.48 40.83,30.59 122.63,-7.79 86.44,-55.48z"/>
                <path class="fil3"
                      d="M296.27 300.28c11.2,12.02 27.32,19.99 45.05,19.99 23.97,0 48.37,-12.74 51.3,-38.37 -20.66,32.89 -65.06,40.97 -96.36,18.37z"/>
                <path class="fil3"
                      d="M296.27 300.28c13.92,24.25 45.21,34.29 69.66,21.17 -28.72,8 -51.87,-2.26 -69.66,-21.17z"/>
                <path class="fil3"
                      d="M336.21 234.81c3.01,0 5.95,0.31 8.8,0.87 -5.87,-4.04 -12.51,-7.04 -19.66,-8.73 -27.97,9.26 -42.37,40.06 -32.04,67.29 -1.49,-4.48 -2.29,-9.26 -2.29,-14.24 0,-24.96 20.23,-45.19 45.19,-45.19z"/>
                <path class="fil3"
                      d="M379.83 241.33c-4.68,-5.16 -10.39,-9.37 -16.8,-12.31 4.14,6.81 6.79,14.34 7.9,22.08 3.1,3.72 5.62,7.94 7.41,12.54 1.94,-7.31 2.42,-14.89 1.49,-22.3zm-38.2 -16.98l0 0c-0.02,-0 -0.04,-0 -0.06,-0 -3.43,0 -6.78,0.34 -10.02,0.98 1.59,0.7 3.17,1.46 4.73,2.29 4.92,2.62 9.39,5.74 13.42,9.25 1.72,0.54 3.4,1.18 5.02,1.91 -3.46,-5.42 -7.85,-10.32 -13.09,-14.43zm3.81 0.15l0 0c5.2,4.65 9.47,10.08 12.74,16.02 3.58,2 6.86,4.46 9.76,7.32 -1.59,-7.26 -4.54,-14.19 -8.75,-20.4 -4.34,-1.58 -8.96,-2.59 -13.75,-2.94z"/>
                <polygon class="fil1"
                         points="316.92,297.08 324.9,259.53 309.69,259.53 312.3,247.46 359.29,247.46 356.67,259.53 341.43,259.53 333.45,297.08 "/>
                <polygon class="fil1" points="314.51,308.52 316.23,300.77 332.76,300.77 331.04,308.52 "/>
   </g>
            <g>
    <path class="fil1"
          d="M1516.71 196.94c4.17,32.75 -18.6,57.15 -31.48,78.74 -14.91,24.95 -30.27,46.47 -41.43,68.78 -0.55,0 -1.09,0 -1.67,0 -10.64,-17.59 -23.61,-39.09 -37.29,-61.33 -12.98,-21.11 -28.7,-41.7 -34,-64.65 -22.57,-98.24 133.52,-119.33 145.87,-21.54zm-73.8 -39.84c25.15,0 45.55,20.39 45.55,45.55 0,25.15 -20.39,45.55 -45.55,45.55 -25.15,0 -45.55,-20.39 -45.55,-45.55 0,-25.15 20.39,-45.55 45.55,-45.55z"/>
                <path class="fil2"
                      d="M1442.92 147.77c30.91,0 55.97,25.06 55.97,55.97 0,30.91 -25.06,55.96 -55.97,55.96 -30.91,0 -55.96,-25.06 -55.96,-55.96 0,-30.91 25.06,-55.97 55.96,-55.97z"/>
                <path class="fil3"
                      d="M1484.33 172.73c3.47,45.87 -46.05,77.93 -86.44,55.48 40.83,30.59 122.63,-7.79 86.44,-55.48z"/>
                <path class="fil3"
                      d="M1397.89 228.22c11.2,12.02 27.32,19.99 45.05,19.99 23.97,0 48.37,-12.74 51.3,-38.37 -20.66,32.89 -65.06,40.97 -96.36,18.37z"/>
                <path class="fil3"
                      d="M1397.89 228.22c13.92,24.25 45.21,34.29 69.66,21.17 -28.72,8 -51.87,-2.26 -69.66,-21.17z"/>
                <path class="fil3"
                      d="M1437.83 162.75c3.01,0 5.95,0.31 8.8,0.87 -5.87,-4.04 -12.51,-7.04 -19.66,-8.73 -27.97,9.26 -42.37,40.06 -32.04,67.29 -1.49,-4.48 -2.29,-9.26 -2.29,-14.24 0,-24.96 20.23,-45.19 45.19,-45.19z"/>
                <path class="fil3"
                      d="M1481.45 169.27c-4.68,-5.16 -10.38,-9.38 -16.8,-12.31 4.14,6.81 6.79,14.34 7.9,22.07 3.1,3.72 5.62,7.94 7.41,12.54 1.94,-7.31 2.42,-14.89 1.49,-22.3zm-38.19 -16.98l0 0c-0.02,-0 -0.04,-0 -0.06,-0 -3.43,0 -6.78,0.34 -10.02,0.98 1.59,0.7 3.17,1.46 4.73,2.29 4.92,2.62 9.39,5.74 13.42,9.25 1.72,0.54 3.4,1.18 5.02,1.91 -3.46,-5.42 -7.85,-10.32 -13.09,-14.43zm3.81 0.15l0 0c5.2,4.65 9.47,10.08 12.74,16.02 3.58,2 6.86,4.46 9.76,7.32 -1.59,-7.26 -4.54,-14.2 -8.75,-20.4 -4.34,-1.58 -8.96,-2.59 -13.75,-2.94z"/>
                <polygon class="fil1"
                         points="1418.54,225.02 1426.52,187.47 1411.31,187.47 1413.92,175.4 1460.91,175.4 1458.29,187.47 1443.05,187.47 1435.07,225.02 "/>
                <polygon class="fil1" points="1416.12,236.45 1417.85,228.71 1434.38,228.71 1432.66,236.45 "/>
   </g>
            <path class="fil4"
                  d="M2280.99 796.1l11.86 -16.82 -10.98 -15.66 6.77 0 5.13 7.67c0.95,1.44 1.7,2.61 2.23,3.53 0.93,-1.3 1.75,-2.48 2.49,-3.54l5.4 -7.66 6.73 0 -11.05 15.66 11.77 16.82 -6.7 0 -6.72 -10.01 -1.53 -2.41 -8.68 12.42 -6.73 0z"/>
            <g>
    <path class="fil1"
          d="M596.62 565.97c4.17,32.75 -18.6,57.15 -31.48,78.74 -14.91,24.95 -30.27,46.47 -41.44,68.78 -0.55,0 -1.09,0 -1.67,0 -10.64,-17.59 -23.61,-39.09 -37.28,-61.33 -12.98,-21.11 -28.7,-41.7 -34,-64.65 -22.57,-98.24 133.52,-119.33 145.87,-21.54zm-73.8 -39.84c25.15,0 45.55,20.39 45.55,45.55 0,25.15 -20.39,45.55 -45.55,45.55 -25.15,0 -45.55,-20.39 -45.55,-45.55 0,-25.15 20.39,-45.55 45.55,-45.55z"/>
                <path class="fil2"
                      d="M522.83 516.8c30.91,0 55.97,25.06 55.97,55.96 0,30.91 -25.06,55.97 -55.97,55.97 -30.91,0 -55.97,-25.06 -55.97,-55.97 0,-30.91 25.06,-55.96 55.97,-55.96z"/>
                <path class="fil3"
                      d="M564.25 541.76c3.47,45.87 -46.05,77.93 -86.44,55.49 40.83,30.59 122.63,-7.79 86.44,-55.49z"/>
                <path class="fil3"
                      d="M477.8 597.25c11.2,12.02 27.32,19.99 45.05,19.99 23.97,0 48.37,-12.74 51.3,-38.37 -20.66,32.89 -65.06,40.97 -96.36,18.37z"/>
                <path class="fil3"
                      d="M477.8 597.25c13.92,24.25 45.21,34.29 69.66,21.17 -28.72,8 -51.87,-2.26 -69.66,-21.17z"/>
                <path class="fil3"
                      d="M517.74 531.78c3.01,0 5.95,0.31 8.8,0.87 -5.87,-4.04 -12.51,-7.04 -19.66,-8.73 -27.97,9.26 -42.37,40.06 -32.04,67.29 -1.49,-4.48 -2.29,-9.26 -2.29,-14.24 0,-24.96 20.23,-45.19 45.19,-45.19z"/>
                <path class="fil3"
                      d="M561.36 538.29c-4.68,-5.16 -10.38,-9.37 -16.8,-12.31 4.14,6.81 6.79,14.34 7.9,22.08 3.1,3.72 5.62,7.94 7.41,12.54 1.94,-7.31 2.42,-14.89 1.49,-22.3zm-38.19 -16.98l0 0c-0.02,-0 -0.04,-0 -0.06,-0 -3.43,0 -6.78,0.34 -10.02,0.98 1.59,0.7 3.17,1.46 4.73,2.29 4.92,2.62 9.39,5.74 13.42,9.25 1.72,0.54 3.4,1.18 5.02,1.91 -3.46,-5.42 -7.85,-10.32 -13.09,-14.43zm3.81 0.15l0 0c5.19,4.65 9.47,10.08 12.74,16.02 3.58,2 6.86,4.46 9.76,7.32 -1.59,-7.26 -4.54,-14.2 -8.75,-20.4 -4.34,-1.58 -8.96,-2.59 -13.75,-2.94z"/>
                <polygon class="fil1"
                         points="498.45,594.05 506.43,556.5 491.23,556.5 493.84,544.43 540.82,544.43 538.2,556.5 522.96,556.5 514.98,594.05 "/>
                <polygon class="fil1" points="496.04,605.48 497.76,597.74 514.29,597.74 512.57,605.48 "/>
   </g>
            <g>
    <path class="fil1"
          d="M2311.57 402.21c4.17,32.75 -18.6,57.15 -31.48,78.74 -14.91,24.95 -30.28,46.47 -41.44,68.78 -0.55,0 -1.09,0 -1.67,0 -10.64,-17.59 -23.61,-39.09 -37.28,-61.34 -12.98,-21.11 -28.7,-41.7 -34,-64.65 -22.57,-98.24 133.52,-119.33 145.87,-21.54zm-73.8 -39.84c25.15,0 45.55,20.39 45.55,45.55 0,25.15 -20.39,45.55 -45.55,45.55 -25.15,0 -45.55,-20.39 -45.55,-45.55 0,-25.15 20.39,-45.55 45.55,-45.55z"/>
                <path class="fil2"
                      d="M2237.78 353.03c30.91,0 55.96,25.06 55.96,55.97 0,30.91 -25.06,55.97 -55.96,55.97 -30.91,0 -55.97,-25.06 -55.97,-55.97 0,-30.91 25.06,-55.97 55.97,-55.97z"/>
                <path class="fil3"
                      d="M2279.19 377.99c3.47,45.87 -46.05,77.93 -86.44,55.48 40.83,30.59 122.63,-7.79 86.44,-55.48z"/>
                <path class="fil3"
                      d="M2192.75 433.48c11.2,12.02 27.32,19.99 45.05,19.99 23.97,0 48.37,-12.74 51.3,-38.37 -20.66,32.89 -65.06,40.97 -96.35,18.37z"/>
                <path class="fil3"
                      d="M2192.75 433.48c13.91,24.25 45.21,34.29 69.66,21.17 -28.72,8 -51.87,-2.26 -69.66,-21.17z"/>
                <path class="fil3"
                      d="M2232.69 368.01c3.01,0 5.95,0.31 8.8,0.87 -5.87,-4.04 -12.51,-7.04 -19.66,-8.73 -27.97,9.26 -42.37,40.06 -32.04,67.29 -1.49,-4.48 -2.29,-9.26 -2.29,-14.24 0,-24.96 20.23,-45.2 45.19,-45.2z"/>
                <path class="fil3"
                      d="M2276.31 374.53c-4.68,-5.16 -10.39,-9.37 -16.8,-12.31 4.14,6.81 6.79,14.34 7.9,22.07 3.1,3.72 5.62,7.94 7.41,12.54 1.94,-7.31 2.42,-14.89 1.49,-22.3zm-38.2 -16.98l0 0c-0.02,-0 -0.04,-0 -0.06,-0 -3.43,0 -6.78,0.34 -10.02,0.98 1.59,0.7 3.17,1.46 4.73,2.29 4.92,2.62 9.39,5.74 13.42,9.25 1.72,0.54 3.4,1.18 5.02,1.91 -3.46,-5.42 -7.85,-10.32 -13.09,-14.43zm3.81 0.15l0 0c5.2,4.65 9.47,10.08 12.74,16.02 3.58,2 6.86,4.46 9.76,7.32 -1.59,-7.26 -4.54,-14.2 -8.75,-20.4 -4.34,-1.58 -8.96,-2.59 -13.75,-2.94z"/>
                <polygon class="fil1"
                         points="2213.4,430.28 2221.38,392.73 2206.17,392.73 2208.78,380.66 2255.77,380.66 2253.14,392.73 2237.91,392.73 2229.93,430.28 "/>
                <polygon class="fil1" points="2210.98,441.71 2212.71,433.97 2229.24,433.97 2227.52,441.71 "/>
   </g>
            <g>
    <path class="fil1"
          d="M1288.62 416.1c4.17,32.75 -18.6,57.15 -31.48,78.74 -14.91,24.95 -30.27,46.47 -41.43,68.78 -0.55,0 -1.09,0 -1.67,0 -10.64,-17.59 -23.61,-39.09 -37.28,-61.33 -12.98,-21.11 -28.7,-41.7 -34,-64.65 -22.57,-98.24 133.52,-119.33 145.87,-21.54zm-73.8 -39.84c25.15,0 45.55,20.39 45.55,45.55 0,25.15 -20.39,45.55 -45.55,45.55 -25.15,0 -45.55,-20.39 -45.55,-45.55 0,-25.15 20.39,-45.55 45.55,-45.55z"/>
                <path class="fil2"
                      d="M1214.82 366.92c30.91,0 55.97,25.06 55.97,55.97 0,30.91 -25.06,55.96 -55.97,55.96 -30.91,0 -55.96,-25.06 -55.96,-55.96 0,-30.91 25.06,-55.97 55.96,-55.97z"/>
                <path class="fil3"
                      d="M1256.24 391.89c3.47,45.87 -46.05,77.93 -86.44,55.48 40.83,30.59 122.63,-7.79 86.44,-55.48z"/>
                <path class="fil3"
                      d="M1169.8 447.37c11.2,12.02 27.32,19.99 45.05,19.99 23.96,0 48.37,-12.74 51.3,-38.37 -20.66,32.89 -65.06,40.97 -96.36,18.37z"/>
                <path class="fil3"
                      d="M1169.8 447.37c13.92,24.25 45.21,34.29 69.66,21.17 -28.72,8 -51.87,-2.26 -69.66,-21.17z"/>
                <path class="fil3"
                      d="M1209.74 381.91c3.01,0 5.95,0.31 8.8,0.87 -5.87,-4.04 -12.51,-7.04 -19.66,-8.73 -27.97,9.26 -42.37,40.06 -32.04,67.29 -1.49,-4.48 -2.29,-9.26 -2.29,-14.24 0,-24.96 20.23,-45.19 45.19,-45.19z"/>
                <path class="fil3"
                      d="M1253.36 388.42c-4.68,-5.16 -10.39,-9.37 -16.8,-12.31 4.14,6.81 6.79,14.34 7.9,22.07 3.1,3.72 5.62,7.94 7.41,12.54 1.94,-7.31 2.42,-14.89 1.49,-22.3zm-38.2 -16.98l0 0c-0.02,-0 -0.04,-0 -0.06,-0 -3.43,0 -6.78,0.34 -10.02,0.98 1.59,0.7 3.17,1.46 4.73,2.29 4.92,2.62 9.39,5.74 13.42,9.25 1.72,0.54 3.4,1.18 5.02,1.91 -3.46,-5.42 -7.85,-10.32 -13.09,-14.43zm3.81 0.15l0 0c5.2,4.65 9.47,10.08 12.74,16.02 3.58,2 6.86,4.46 9.76,7.32 -1.59,-7.26 -4.54,-14.2 -8.75,-20.4 -4.34,-1.58 -8.96,-2.59 -13.75,-2.94z"/>
                <polygon class="fil1"
                         points="1190.45,444.17 1198.43,406.62 1183.22,406.62 1185.83,394.55 1232.82,394.55 1230.19,406.62 1214.96,406.62 1206.98,444.17 "/>
                <polygon class="fil1" points="1188.03,455.61 1189.76,447.87 1206.29,447.87 1204.57,455.61 "/>
   </g>
  </g>
 </g>
</svg>
