<?xml version="1.0" encoding="UTF-8"?><svg id="Camada_2" xmlns="http://www.w3.org/2000/svg" viewBox="0 0 201.94 176.69"><defs><style>.cls-1{fill:#26475e;}</style></defs><g id="Camada_1-2"><path class="cls-1" d="M106.44,176.69c-.54,.03-.86-.38-1.25-.64-10-6.73-19.99-13.45-29.97-20.21-.7-.47-1.18-.5-1.89-.04-1.77,1.16-3.68,2.08-5.77,2.52-2.95,.63-4.73-.69-5.04-3.67-.18-1.73-.05-3.45,.38-5.11,.27-1.04-.11-1.37-.93-1.79-10.19-5.11-20.35-10.27-30.55-15.36-1.02-.51-1.14-.91-.53-1.8,.72-1.05,1.33-2.18,2.03-3.25,1.99-3.05,4.84-3.96,8.31-3.31,4.48,.84,8.72,2.53,13.07,3.83,3.09,.93,6.15,1.95,9.32,2.59,.66,.13,.99,0,1.33-.59,7.7-13.14,15.42-26.27,23.17-39.38,.55-.94-.04-1.04-.6-1.32-20.29-10.3-40.58-20.6-60.88-30.9-8.74-4.44-17.49-8.87-26.23-13.3-.13-.07-.29-.09-.43-.13v-.24c.67-.9,.91-1.99,1.39-2.98,.92-1.91,1.95-3.75,3.24-5.43,3.88-5.05,9.06-6.95,15.28-6.33,5.61,.56,10.85,2.53,16.14,4.3,4.31,1.44,8.62,2.86,13.12,3.64,1.04,.18,1.59-.07,2.08-.98,.94-1.71,1.92-3.41,3.02-5.02,2.16-3.17,4.41-3.85,7.95-2.34,3.12,1.33,6.05,3.07,8.91,4.87,3.58,2.26,4.32,4.7,2.85,8.69q-.72,1.96,1.33,2.63,1.85,.6,2.95-1.06c1.01-1.53,1.95-3.11,3.02-4.6,1.79-2.49,3.73-3.15,6.57-2,3.81,1.55,7.39,3.6,10.74,5.98,2.59,1.84,2.68,4.53,2,7.34-.46,1.92-.47,1.92,1.46,2.47,1.8,.51,3.62,.98,5.41,1.54,.8,.25,1.24,.12,1.73-.62,3.46-5.28,6.58-10.75,9.7-16.23,4.88-8.56,9.56-17.24,15.16-25.36,2.52-3.66,5.26-7.12,8.78-9.92,2.58-2.05,5.42-3.05,8.71-3.17,2.25-.08,4.34,0,6.2,1.47,.57,.45,1.04,.9,1.46,1.51,4.11,6.14,3.3,12.48,.78,18.88-2.37,6.03-5.64,11.61-8.92,17.17-5.11,8.65-10.63,17.07-15.52,25.85-.81,1.46-1.54,2.97-2.35,4.44-.29,.53-.32,.87,.17,1.32,1.6,1.45,3.16,2.94,4.7,4.44,.44,.43,.76,.5,1.12-.04,.09-.13,.22-.23,.33-.35,3.42-3.45,5.86-3.8,10.02-1.35,2.17,1.27,4.29,2.62,6.4,3.98,.8,.52,1.57,1.11,2.26,1.77,1.91,1.81,2.28,3.63,1.3,6.08-.86,2.16-2.14,4.1-3.26,6.12-.38,.69-.38,1.08,.25,1.58,.78,.61,1.43,1.78,2.24,1.88,.85,.11,1.38-1.22,2.09-1.89,2.92-2.73,5.16-3.09,8.64-1.09,2.52,1.45,4.96,3.04,7.43,4.6,.54,.34,1.03,.76,1.5,1.18,2.15,1.95,2.63,4,1.52,6.69-.85,2.07-2.05,3.97-3.17,5.89-.68,1.17-.66,1.93,.4,2.91,4.6,4.26,9.14,8.59,13.64,12.96,3.28,3.18,6.16,6.68,8.54,10.6,3.47,5.72,3.51,11.35-.09,17.01-1.12,1.75-2.33,3.43-3.52,5.13-.54,.78-.88,.69-1.57,.22-17.4-11.75-34.81-23.48-52.22-35.21-9.4-6.33-18.8-12.66-28.18-19.02-.81-.55-1.14-.54-1.66,.36-7.38,12.82-14.8,25.63-22.25,38.41-.5,.86-.41,1.34,.24,2.04,3.51,3.74,7.52,6.92,11.23,10.44,2.35,2.23,4.63,4.52,6.47,7.21,1.09,1.59,1.96,3.28,2.52,5.13,.25,.83,.19,1.5-.27,2.25-1.24,2-2.4,4.04-3.59,6.07Zm33.68-91.74c-4.66-4.42-9.19-8.76-13.77-13.04-.72-.67-.8-1.1-.28-1.97,7.27-12.24,14.52-24.5,21.73-36.77,2.99-5.09,5.84-10.26,7.63-15.93,.8-2.56,1.47-5.16,.86-7.88-.65-2.91-3.34-4.47-6.21-3.65-1.21,.35-2.27,.97-3.26,1.71-2.26,1.69-4.1,3.79-5.83,5.99-4.28,5.45-7.57,11.53-11.06,17.48-5.99,10.22-11.87,20.5-18.03,30.62-.32,.52-.54,.97-1.36,.72-6.15-1.84-12.31-3.64-18.48-5.4-.78-.22-.7-.49-.38-1.05,1.06-1.83,2.01-3.72,3.14-5.51,.59-.93,.37-1.42-.41-2.02-2.38-1.85-5.02-3.24-7.69-4.6-.7-.36-1.01-.23-1.39,.43-1.62,2.79-3.33,5.54-4.95,8.33-.35,.61-.67,.72-1.32,.52-1.71-.53-3.45-.98-5.17-1.47-2.91-.83-5.85-1.57-8.58-2.95-.64-.32-.75-.59-.36-1.23,1.28-2.11,2.47-4.29,3.75-6.4,.39-.64,.29-.91-.33-1.27-2.65-1.55-5.3-3.12-7.89-4.76-.82-.52-1.1-.28-1.52,.43-1.65,2.82-3.39,5.6-5.03,8.42-.45,.78-.88,1.13-1.87,.95-1.57-.29-3.14-.55-4.68-.97-4.97-1.36-9.7-3.4-14.58-5-6.45-2.1-13-3.21-19.8-2.28-1.06,.14-1.84,.44-2.35,1.48-.52,1.07-1.24,2.04-1.87,3.06q-.78,1.25,.52,1.91c28.74,14.62,57.49,29.24,86.25,43.84,.85,.43,.95,.7,.46,1.54-9.43,16.06-18.83,32.14-28.21,48.23-.47,.81-.98,.98-1.82,.8-2.46-.53-4.86-1.25-7.25-2.02-5.23-1.69-10.34-3.77-15.72-4.98-1-.22-2.01-.52-3.25-.27,.49,.26,.8,.43,1.12,.59,9.15,4.61,18.3,9.22,27.45,13.82q2.41,1.22,1.15,3.66c-.56,1.09-1.03,2.19-.82,3.46,1.21-1.15,2.42-2.19,3.49-3.35,.62-.67,1.02-.65,1.74-.16,9.47,6.38,18.95,12.72,28.44,19.06,.31,.21,.57,.55,1.1,.53,.02-1.21-.79-1.89-1.52-2.6-6.4-6.25-12.81-12.5-19.25-18.71-.65-.63-.65-1.05-.22-1.79,9.22-15.77,18.43-31.54,27.6-47.34,.59-1.01,.92-1.2,1.99-.49,26.27,17.72,52.57,35.39,78.86,53.06q2.47,1.66,4.07-.9c.95-1.52,1.74-3.07,1.26-4.94-.23-.89-.62-1.72-1.01-2.55-2.21-4.62-5.75-8.22-9.23-11.85-5.31-5.54-11.05-10.64-16.55-15.98-.64-.63-.67-1.05-.22-1.8,1.77-2.99,3.43-6.03,5.19-9.02,.38-.64,.3-.9-.33-1.26-2.7-1.55-5.37-3.14-8.02-4.77-.64-.4-.91-.29-1.27,.32-1.32,2.23-2.71,4.42-4.05,6.64-.24,.4-.41,.74-.96,.3-3.82-3.1-7.47-6.38-10.6-10.2-.45-.54-.44-.97-.08-1.58,1.61-2.71,3.16-5.45,4.76-8.16,.34-.58,.27-.85-.31-1.19-2.63-1.59-5.25-3.2-7.83-4.86-.74-.48-1.02-.27-1.43,.39-1.33,2.18-2.72,4.32-4.15,6.59Z"/></g></svg>