<?xml version="1.0" encoding="UTF-8"?>
<!DOCTYPE svg PUBLIC "-//W3C//DTD SVG 1.1//EN" "http://www.w3.org/Graphics/SVG/1.1/DTD/svg11.dtd">
<!-- Creator: CorelDRAW Standard 2021 (64 Bit) -->
<svg xmlns="http://www.w3.org/2000/svg" xml:space="preserve" width="175.942mm" height="120.245mm" version="1.1" style="shape-rendering:geometricPrecision; text-rendering:geometricPrecision; image-rendering:optimizeQuality; fill-rule:evenodd; clip-rule:evenodd"
viewBox="0 0 279.19 190.81"
 xmlns:xlink="http://www.w3.org/1999/xlink"
 xmlns:xodm="http://www.corel.com/coreldraw/odm/2003">
 <defs>
  <style type="text/css">
   <![CDATA[
    .fil2 {fill:#094561}
    .fil0 {fill:#094561;fill-rule:nonzero}
    .fil1 {fill:white;fill-rule:nonzero}
   ]]>
  </style>
 </defs>
 <g id="Camada_x0020_1">
  <metadata id="CorelCorpID_0Corel-Layer"/>
  <g id="_2077217708656">
   <path class="fil0" d="M37.25 2.43c-5.99,0 -10.84,4.86 -10.84,10.86l0 4 50.09 0 0 -4c0,-6 -4.86,-10.86 -10.86,-10.86l-28.39 0z"/>
   <path class="fil0" d="M245.51 49.93l-23.9 0c-2.4,0 -4.35,-1.97 -4.35,-4.36 0,-2.43 1.95,-4.36 4.35,-4.36l23.9 0c2.41,0 4.35,1.93 4.35,4.36 0,2.39 -1.94,4.36 -4.35,4.36zm-105.73 109.77c-28.34,0 -51.3,-22.96 -51.3,-51.3 0,-28.34 22.96,-51.32 51.3,-51.32 28.34,0 51.31,22.98 51.31,51.32 0,28.34 -22.97,51.3 -51.31,51.3zm52.53 -133.71c-3.44,-14.87 -16.73,-25.98 -32.64,-25.98l-40.15 0c-15.91,0 -29.21,11.11 -32.63,25.98l-64.15 0c-12.57,0 -22.75,10.19 -22.75,22.77l0 119.3c0,12.57 10.19,22.76 22.75,22.76l233.69 0c12.56,0 22.74,-10.18 22.74,-22.76l0 -119.3c0,-12.58 -10.19,-22.77 -22.74,-22.77l-64.13 0z"/>
   <path class="fil1" d="M97.3 65.91c-10.9,10.89 -17.61,25.9 -17.61,42.48 0,16.64 6.72,31.6 17.61,42.49 10.88,10.89 25.85,17.61 42.47,17.61 16.63,0 31.62,-6.72 42.5,-17.61 10.86,-10.89 17.59,-25.85 17.61,-42.49 -0.02,-16.59 -6.75,-31.6 -17.61,-42.48 -10.88,-10.89 -25.87,-17.61 -42.5,-17.61 -16.62,0 -31.59,6.72 -42.47,17.61z"/>
   <g>
    <path class="fil0" d="M184.79 74.71c3.77,49.84 -50.04,84.67 -93.92,60.29 44.37,33.24 133.25,-8.46 93.92,-60.29z"/>
    <path class="fil0" d="M90.87 135c12.17,13.07 29.69,21.72 48.95,21.72 26.04,0 52.55,-13.85 55.74,-41.69 -22.45,35.74 -70.69,44.52 -104.69,19.96z"/>
    <path class="fil0" d="M90.87 135c15.12,26.35 49.12,37.26 75.69,23 -31.2,8.69 -56.36,-2.45 -75.69,-23z"/>
    <path class="fil0" d="M134.26 63.87c3.27,0 6.46,0.33 9.56,0.94 -6.37,-4.39 -13.59,-7.65 -21.36,-9.48 -30.4,10.06 -46.04,43.52 -34.82,73.12 -1.61,-4.87 -2.49,-10.07 -2.49,-15.47 0,-27.12 21.98,-49.11 49.1,-49.11z"/>
    <path class="fil0" d="M181.66 70.94c-5.08,-5.61 -11.28,-10.19 -18.26,-13.38 4.5,7.4 7.38,15.58 8.58,23.98 3.37,4.04 6.11,8.63 8.05,13.62 2.1,-7.94 2.63,-16.18 1.62,-24.23zm-41.5 -18.45l0 0c-0.02,-0 -0.04,-0 -0.06,-0 -3.73,0 -7.36,0.37 -10.89,1.06 1.73,0.76 3.44,1.59 5.13,2.49 5.34,2.85 10.21,6.23 14.58,10.05 1.87,0.58 3.69,1.28 5.46,2.08 -3.76,-5.89 -8.53,-11.21 -14.22,-15.67zm4.14 0.16l0 0c5.64,5.05 10.29,10.96 13.84,17.41 3.89,2.17 7.45,4.85 10.6,7.95 -1.72,-7.89 -4.94,-15.42 -9.5,-22.16 -4.72,-1.71 -9.73,-2.81 -14.94,-3.2z"/>
    <polygon class="fil2" points="113.3,131.52 121.97,90.72 105.45,90.72 108.28,77.61 159.33,77.61 156.48,90.72 139.93,90.72 131.26,131.52 "/>
    <polygon class="fil2" points="110.67,143.94 112.55,135.53 130.51,135.53 128.64,143.94 "/>
   </g>
  </g>
 </g>
</svg>
