<?xml version="1.0" encoding="UTF-8"?><svg id="Camada_2" xmlns="http://www.w3.org/2000/svg" viewBox="0 0 259.96 161.44"><defs><style>.cls-1{fill:#26475e;}.cls-2{fill:#9dacb6;}</style></defs><g id="Camada_1-2"><g><path class="cls-2" d="M0,17.06c.06-.04,.13-.05,.2-.03,.01,.52,.04,1.04,.04,1.55,0,32.72,0,65.44,0,98.16h-.24V17.06Z"/><path class="cls-1" d="M77.93,0h13.19c3.8,.02,7.59,.04,11.39,.06,7.99,.05,15.98,.06,23.97,.45,3.87,.19,7.33,1.43,10.21,4.12,1.19,1.12,2.4,2.23,3.72,3.2,.75,.56,1.2,.66,1.94-.16,3.25-3.62,7.18-6.04,12.13-6.57,1.91-.21,3.83-.23,5.75-.14,8.39,.4,16.78,.27,25.17,.28,8.59,.01,17.18,.02,25.77-.04,2.32-.01,4.26,.69,6,2.22,14.82,13.08,26.49,28.6,35.67,46.03,4.04,7.67,5.9,15.96,6.4,24.58,.33,5.78,.42,11.57,.41,17.36-.02,7.47,.45,14.93,.29,22.4-.08,3.71-.26,7.41-.91,11.08-.64,3.64-2.76,6.01-6.06,7.44-2.6,1.12-5.36,1.52-8.17,1.67-5.2,.28-10.38-.14-15.58-.27-1.35-.03-1.95,.43-2.43,1.64-1.55,3.93-3.09,7.86-5.22,11.53-4.52,7.77-11.03,12.77-20.04,14.04-9.2,1.29-17.95,.18-25.5-5.84-4.83-3.84-7.83-8.98-10.08-14.61-.75-1.89-1.48-3.79-2.14-5.71-.29-.84-.71-1.16-1.64-1.12-2.07,.1-4.15,.03-6.23,.08-5.86,.13-10.52-2.17-14.11-6.78-1.15-1.48-1.21-1.48-2.73-.33-6.84,5.15-14.58,6.9-23.02,6.3-5.58-.4-11.17-.65-16.76-.18-.81,.07-1.2,.36-1.48,1.07-.74,1.86-1.14,3.82-1.75,5.71-3.6,11.11-11.33,18.11-22.45,20.83-12.67,3.1-23.6-.65-32.3-10.39-3.12-3.49-4.51-7.93-5.81-12.35-.38-1.3-.82-2.59-1.11-3.91-.18-.8-.56-.99-1.31-.98-3,.03-5.99,.05-8.99,.01-3.2-.03-6.39-.21-9.48-1.14-4.68-1.41-8.33-4.12-10.73-8.42-1.2-2.16-2.26-4.4-3.63-6.46,0-32.72,0-65.44,0-98.16,0-.52-.02-1.04-.04-1.55,1.14-2.28,2.29-4.55,3.42-6.84C6.38,4.56,11.05,1.66,17.13,.75c2.53-.38,5.08-.51,7.63-.52,17.36-.06,34.73-.13,52.09-.2,.36,0,.72-.03,1.07-.04Zm-3.86,8.31c-4.63,0-9.27,0-13.9,0-11.98-.03-23.97-.49-35.95,.37-3.19,.23-6.34,.68-9.35,1.87-3.22,1.27-5.18,3.6-5.99,6.94-.44,1.83-.67,3.69-.71,5.57-.14,6.07,.12,12.14,.13,18.21,.04,19.65,.02,39.3,.04,58.94,0,4.31-.02,8.62,.55,12.91,.91,6.88,3.89,10.21,10.59,11.39,4.85,.85,9.72,.3,14.57-.17,.56-.05,.67-.43,.8-.88,.59-1.99,1.28-3.94,2.12-5.84,3.02-6.85,7.29-12.64,14.04-16.27,9.57-5.15,25.31-5.7,36.51,4.94,3.49,3.32,6.3,6.96,7.68,11.63,.57,1.95,1.44,3.79,2.32,5.63,.33,.68,.72,.89,1.45,.91,4.83,.16,9.66,.4,14.49,.54,3.96,.12,7.91,.03,11.83-.59,6.44-1.02,9.83-4.24,11.15-10.62,.94-4.52,1.02-9.11,1.03-13.71,.03-10.38-.4-20.76-.47-31.14-.1-13.34-.06-26.68-.08-40.02,0-3.48-.13-6.94-.71-10.38-.95-5.63-3.73-8.5-9.33-9.62-3.7-.75-7.46-.89-11.21-.9-13.87-.05-27.73,.54-41.59,.29Zm72.93,55.21c0,18.95,0,34.44,0,49.94,0,1.52,.07,3.03,.23,4.54,.51,4.81,2.68,6.97,7.47,7.43,2.51,.24,5.03,.07,7.54,.18,.82,.03,1.22-.24,1.51-.98,.85-2.23,1.72-4.46,2.66-6.66,2.41-5.66,5.62-10.75,10.63-14.5,6.05-4.52,12.99-5.91,20.36-5.6,10.03,.41,17.88,4.79,23.42,13.21,2.72,4.13,4.64,8.63,6.09,13.33,.22,.7,.51,1.03,1.3,1.04,2.36,.05,4.71,.24,7.06,.29,4.63,.11,9.26,.05,13.87-.58,1.23-.17,1.91-.56,2-1.95,.11-1.71,.36-3.41,.41-5.13,.44-13.78-.17-27.55-.09-41.32,.04-5.7-1.22-11.24-3.06-16.64-.23-.67-.54-.95-1.26-.91-1.55,.09-3.11,.09-4.67,.16-5.5,.25-11,.86-16.52,.34-2.67-.25-5.31-.66-7.73-1.91-2.57-1.31-4.06-3.36-4.36-6.28-.3-2.9-.4-5.81-.39-8.73,.03-5.19,.3-10.38,.05-15.57-.16-3.32,.97-6.09,3.42-8.34,.53-.49,1-1.04,1.56-1.49,.57-.46,.69-.8,.12-1.39-.87-.88-1.68-1.82-2.47-2.77-2.37-2.82-5.33-4.02-9.06-3.93-13.26,.3-26.53-.12-39.79-.29-4.27-.05-8.55-.07-12.79,.61-4.98,.8-7.18,3.2-7.49,8.23-.1,1.71-.2,3.43-.16,5.15,.35,14.65,.06,29.31,.16,40.51Zm25.06,65.32c0,1.88,.18,3.74,.58,5.59,2.49,11.4,12.11,20.64,25.32,18.74,6.29-.91,11.81-3.4,15.92-8.41,7.34-8.94,6.58-23.25-1.72-31.95-5.94-6.23-13.26-7.87-21.51-6.12-11.42,2.43-18.56,10.94-18.59,22.16Zm-129.3,.31c.07,1.27,.14,2.79,.4,4.29,2.12,12.12,12.24,22.22,26.86,19.48,5.96-1.12,11.12-3.68,14.85-8.62,6.87-9.09,5.79-23.35-2.46-31.8-5.66-5.8-12.58-7.46-20.42-6.07-11.61,2.07-19.22,10.93-19.23,22.72ZM233.07,51.16v.14c2.63,0,5.27,0,7.9,0,2.89,0,2.91,0,1.75-2.71-1.4-3.28-3.41-6.21-5.39-9.15-2.79-4.14-6.1-7.9-8.83-12.06-1.32-2.02-2.88-2.92-5.25-2.69-.88,.08-1.14,.38-1.22,1.19-.66,6.13-.6,12.27-.39,18.41,.07,1.99,.24,3.98,.65,5.94,.15,.69,.45,.97,1.2,.96,3.19-.04,6.39-.02,9.58-.02Z"/><path class="cls-1" d="M183.77,59.65c-3.75-.21-7.51-.15-11.27-.16-1.4,0-2.8-.09-4.18-.32-4.36-.74-8.11-3.06-8.37-9.3-.07-1.72-.2-3.43-.2-5.15,.02-6.11,.04-12.22,.16-18.33,.13-6.17,3.11-9.29,9.25-9.87,1.31-.12,2.63-.19,3.95-.2,7.27-.04,14.54-.07,21.81,.25,1.44,.06,2.87,.24,4.27,.54,4.29,.91,6.28,3.24,6.76,7.81,.18,1.75,.27,3.5,.27,5.26-.02,5.79-.01,11.58-.06,17.37-.01,1.35-.08,2.72-.3,4.06-.79,4.91-3.78,7.47-8.93,7.87-4.39,.34-8.78,.21-13.18,.18Zm1.1-8.03c3.6,.02,7.19-.17,10.78-.3,1.67-.06,1.69-.05,1.94-1.67,.86-5.55,.77-11.15,.62-16.73-.07-2.47-.17-4.95-.55-7.4-.09-.59-.32-.76-.91-.81-6.86-.49-13.73-.61-20.6-.39-2.03,.07-4.07,.19-6.07,.62-1.76,.38-1.79,.41-1.97,2.24-.27,2.67-.34,5.34-.39,8.01-.08,4.71-.02,9.42,.58,14.11,.15,1.17,.63,1.69,1.84,1.84,4.9,.63,9.81,.43,14.72,.47Z"/></g></g></svg>