<?xml version="1.0" encoding="UTF-8"?>
<!DOCTYPE svg PUBLIC "-//W3C//DTD SVG 1.1//EN" "http://www.w3.org/Graphics/SVG/1.1/DTD/svg11.dtd">
<!-- Creator: CorelDRAW Standard 2021 (64 Bit) -->
<svg xmlns="http://www.w3.org/2000/svg" xml:space="preserve" width="130.566mm" height="139.87mm" version="1.1" style="shape-rendering:geometricPrecision; text-rendering:geometricPrecision; image-rendering:optimizeQuality; fill-rule:evenodd; clip-rule:evenodd"
viewBox="0 0 105.23 112.73"
 xmlns:xlink="http://www.w3.org/1999/xlink"
 xmlns:xodm="http://www.corel.com/coreldraw/odm/2003">
 <defs>
  <style type="text/css">
   <![CDATA[
    .fil0 {fill:#094561}
   ]]>
  </style>
 </defs>
 <g id="Camada_x0020_1">
  <metadata id="CorelCorpID_0Corel-Layer"/>
  <g id="_2615588676048">
   <path class="fil0" d="M40.63 0l22.38 0c3.58,0 6.83,1.19 9.19,3.1 2.36,1.91 3.82,4.55 3.82,7.45l0 12.21c0,1.07 -1.15,0.02 -2.48,0.02l0 0c-1.33,0 -2.34,0.2 -2.34,-0.87 0,-15.39 0,4.03 0,-11.36 0,-1.82 -0.92,-3.48 -2.41,-4.69 -1.48,-1.2 -3.53,-1.95 -5.78,-1.95l-22.38 -0c-2.25,0 -4.3,0.75 -5.78,1.95 -1.49,1.2 -2.41,2.86 -2.41,4.69 0,15.39 0,-4.03 0,11.36 0,1.07 -1.04,1.15 -2.37,1.15l0 0c-1.33,0 -2.45,-0.07 -2.45,-1.15l0 -11.36c0,-2.9 1.46,-5.54 3.82,-7.45 2.36,-1.91 5.61,-3.1 9.19,-3.1z"/>
   <path class="fil0" d="M85.85 23.85l-66.47 0c-2.81,0 -5.38,0.93 -7.29,2.45 -1.91,1.53 -3.17,3.66 -3.37,6.07l-4.65 56.14c-0.11,1.33 0.07,2.57 0.55,3.72 0.47,1.15 1.24,2.22 2.29,3.19l11.83 10.91c1.06,0.97 2.24,1.71 3.54,2.19 1.29,0.48 2.72,0.73 4.28,0.73l52.11 0c1.56,-0 2.99,-0.24 4.28,-0.73 1.3,-0.48 2.48,-1.22 3.54,-2.19l11.83 -10.91c1.05,-0.97 1.82,-2.04 2.29,-3.19 0.47,-1.15 0.66,-2.39 0.55,-3.72l-4.65 -56.14c-0.2,-2.41 -1.46,-4.54 -3.37,-6.07 -1.91,-1.53 -4.48,-2.45 -7.29,-2.45zm-66.47 -3.48l66.47 0c3.87,-0 7.4,1.28 10.04,3.39 2.64,2.11 4.38,5.05 4.65,8.37l4.65 56.14c0.15,1.81 -0.11,3.52 -0.77,5.12 -0.66,1.6 -1.71,3.07 -3.15,4.4l-11.83 10.91c-1.44,1.32 -3.07,2.33 -4.89,3.01 -1.82,0.68 -3.8,1.03 -5.89,1.03l-52.11 -0c-2.1,0 -4.07,-0.34 -5.89,-1.03 -1.81,-0.68 -3.45,-1.68 -4.89,-3.01l-11.83 -10.91c-1.44,-1.33 -2.49,-2.8 -3.15,-4.4 -0.66,-1.6 -0.92,-3.31 -0.77,-5.12l4.65 -56.14c0.28,-3.32 2.01,-6.26 4.65,-8.37 2.64,-2.11 6.17,-3.39 10.04,-3.39l0 0z"/>
   <path class="fil0" d="M87.51 51.78l-2.27 4.28 3.38 3.47 -4.77 -0.83 -2.25 4.29 -0.68 -4.8 -4.78 -0.82 4.35 -2.13 -0.7 -4.79 3.37 3.48 4.34 -2.15zm1.39 22.48l-3.83 2.97 1.65 4.55 -4.01 -2.73 -3.82 2.98 1.36 -4.65 -4.02 -2.72 4.84 -0.15 1.34 -4.66 1.64 4.56 4.84 -0.17zm-12.96 16.02l-4.67 1.3 -0.19 4.84 -2.68 -4.04 -4.66 1.32 3.01 -3.8 -2.69 -4.03 4.54 1.7 3 -3.81 -0.21 4.84 4.55 1.68zm-40.41 -47.32l4.51 13.97 14.68 -0.03 -11.9 8.61 4.56 13.96 -11.86 -8.65 -11.86 8.65 4.56 -13.96 -11.89 -8.61 14.68 0.03 4.51 -13.97zm36.21 -6.26l-0.4 4.83 4.48 1.85 -4.72 1.12 -0.38 4.83 -2.52 -4.14 -4.71 1.13 3.16 -3.67 -2.53 -4.13 4.47 1.87 3.15 -3.69z"/>
  </g>
 </g>
</svg>
