<?xml version="1.0" encoding="UTF-8"?>
<!DOCTYPE svg PUBLIC "-//W3C//DTD SVG 1.1//EN" "http://www.w3.org/Graphics/SVG/1.1/DTD/svg11.dtd">
<!-- Creator: CorelDRAW Standard 2021 (64 Bit) -->
<svg xmlns="http://www.w3.org/2000/svg" xml:space="preserve" width="287.418mm" height="280.646mm" version="1.1" style="shape-rendering:geometricPrecision; text-rendering:geometricPrecision; image-rendering:optimizeQuality; fill-rule:evenodd; clip-rule:evenodd"
viewBox="0 0 551.45 538.45"
 xmlns:xlink="http://www.w3.org/1999/xlink"
 xmlns:xodm="http://www.corel.com/coreldraw/odm/2003">
 <defs>
  <style type="text/css">
   <![CDATA[
    .fil3 {fill:#094561}
    .fil2 {fill:#F59B2C}
    .fil0 {fill:#094561;fill-rule:nonzero}
    .fil1 {fill:#F59B2C;fill-rule:nonzero}
   ]]>
  </style>
 </defs>
 <g id="Camada_x0020_1">
  <metadata id="CorelCorpID_0Corel-Layer"/>
  <g id="_2613811259328">
   <path class="fil0" d="M447.96 125.81c14.39,190.26 -191.02,323.25 -358.56,230.15 169.39,126.9 508.69,-32.3 358.56,-230.15z"/>
   <path class="fil0" d="M89.4 355.96c46.48,49.88 113.33,82.93 186.89,82.93 99.41,0 200.63,-52.86 212.8,-159.15 -85.71,136.43 -269.88,169.96 -399.69,76.21z"/>
   <path class="fil0" d="M89.4 355.96c57.72,100.58 187.52,142.25 288.95,87.81 -119.12,33.17 -215.15,-9.36 -288.95,-87.81z"/>
   <path class="fil0" d="M255.08 84.41c12.49,0 24.68,1.27 36.49,3.59 -24.33,-16.77 -51.88,-29.21 -81.53,-36.2 -116.04,38.39 -175.77,166.16 -132.91,279.14 -6.16,-18.58 -9.5,-38.43 -9.5,-59.06 0,-103.53 83.93,-187.47 187.46,-187.47z"/>
   <path class="fil1" d="M436.01 111.42c-19.4,-21.42 -43.08,-38.89 -69.69,-51.08 17.18,28.27 28.18,59.48 32.77,91.57 12.87,15.43 23.33,32.95 30.74,52 8.04,-30.33 10.03,-61.76 6.18,-92.49zm-158.44 -70.42l0 0c-0.08,-0.01 -0.17,-0.01 -0.24,-0.01 -14.22,0 -28.11,1.4 -41.57,4.05 6.59,2.91 13.14,6.05 19.6,9.5 20.39,10.87 38.96,23.79 55.65,38.37 7.15,2.23 14.09,4.89 20.84,7.93 -14.36,-22.48 -32.56,-42.79 -54.28,-59.84zm15.81 0.61l0 0c21.55,19.29 39.29,41.83 52.85,66.45 14.85,8.29 28.46,18.51 40.47,30.36 -6.58,-30.11 -18.85,-58.88 -36.28,-84.6 -18.02,-6.55 -37.16,-10.73 -57.05,-12.21z"/>
   <polygon class="fil2" points="175.03,342.69 208.14,186.94 145.07,186.94 155.9,136.87 350.79,136.87 339.91,186.94 276.72,186.94 243.61,342.69 "/>
   <polygon class="fil3" points="165.03,390.12 172.18,358.01 240.75,358.01 233.6,390.12 "/>
   <path class="fil0" d="M545.15 288.71c-1.17,-0.3 -2.37,-0.12 -3.58,0.39 0.88,-17.03 -0.97,-29.3 -5.18,-29.99 -1.05,-0.18 -2.19,0.42 -3.38,1.68 -5.07,-144.7 -118.52,-260.78 -257.31,-260.78 -138.75,0 -252.21,116.08 -257.25,260.75 -1.22,-1.23 -2.33,-1.82 -3.44,-1.65 -4.15,0.69 -6.01,12.96 -5.12,30.02 -1.22,-0.54 -2.45,-0.72 -3.61,-0.42 -5.6,1.4 -7.86,12.51 -5.06,24.79 2.76,12.3 9.56,21.1 15.17,19.72 0.2,-0.06 0.37,-0.15 0.54,-0.21 3.93,14.07 8.68,23.2 12.49,22.57 0.57,-0.09 1.11,-0.42 1.57,-0.93 1.82,5.75 3.78,11.4 5.98,17.03l3.98 0.63c0.83,3.38 1.85,7.42 2.99,11.91 4.95,19.34 12.41,48.52 16.08,67.65 6.2,32.93 9.9,43.64 29.17,65.44 13.97,15.84 32.64,21.14 51.45,21.14 9.99,0 20.01,-1.5 29.31,-3.71l0.06 0.06 0.66 -0.24c9.62,-2.31 18.49,-5.36 25.87,-8.29 2.93,6.04 10.7,8.98 18.41,6.61l27.4 -4.37c8.54,-2.63 16.48,-16.1 11.81,-30.56 -4.63,-14.46 -16.79,-20.62 -25.33,-17.99l-26.95 15.63c-8.54,2.6 -12.58,9.43 -10.53,16.82l0.06 0.21 -31.76 9.46c-21.57,3.95 -45.19,2.66 -60.41,-14.58 -17.07,-19.37 -19.95,-27.75 -25.78,-58.43 -3.73,-19.58 -10.93,-47.92 -16.22,-68.58 -0.51,-1.98 -1,-3.92 -1.48,-5.81l9.02 1.14c0,0 -15.08,-39.24 -19.63,-79.14 -6.01,-52.29 -3.27,-66.76 -3.27,-66.76l-6.12 1.11c18.24,-122.07 118.92,-215.73 239.97,-215.73 121.11,0 221.79,93.66 240,215.73l-6.09 -1.11c0,0 2.7,14.46 -3.3,66.76 -4.55,39.9 -19.61,79.14 -19.61,79.14l8.02 -1.02 18.47 -1.74c2.45,-6.29 4.72,-12.6 6.8,-19.01 0.57,0.87 1.28,1.41 2.05,1.52 3.78,0.63 8.57,-8.5 12.49,-22.57 0.17,0.06 0.34,0.15 0.52,0.21 5.63,1.38 12.41,-7.42 15.19,-19.72 2.82,-12.27 0.54,-23.38 -5.09,-24.79z"/>
  </g>
 </g>
</svg>
