<?xml version="1.0" encoding="UTF-8"?><svg id="Camada_2" xmlns="http://www.w3.org/2000/svg" viewBox="0 0 370.53 317.87"><defs><style>.cls-1{fill:#094561;}.cls-1,.cls-2{fill-rule:evenodd;}.cls-3{stroke:#094561;stroke-miterlimit:10;stroke-width:13.36px;}.cls-3,.cls-4{fill:none;}.cls-2{fill:#616163;}</style></defs><g id="Camada_1-2"><g><path class="cls-1" d="M333.39,288.42V147.72c0-2.7,2.21-4.91,4.91-4.91h0c2.7,0,4.91,2.21,4.91,4.91v140.7c0,2.7-2.21,4.91-4.91,4.91h0c-2.7,0-4.91-2.21-4.91-4.91Z"/><path class="cls-1" d="M316.38,288.42V147.72c0-2.7,2.21-4.91,4.91-4.91h0c2.7,0,4.91,2.21,4.91,4.91v140.7c0,2.7-2.21,4.91-4.91,4.91h0c-2.7,0-4.91-2.21-4.91-4.91Z"/><path class="cls-1" d="M299.38,288.42V147.72c0-2.7,2.21-4.91,4.91-4.91h0c2.7,0,4.91,2.21,4.91,4.91v140.7c0,2.7-2.21,4.91-4.91,4.91h0c-2.7,0-4.91-2.21-4.91-4.91Z"/><path class="cls-1" d="M282.37,288.42V147.72c0-2.7,2.21-4.91,4.91-4.91h0c2.7,0,4.91,2.21,4.91,4.91v140.7c0,2.7-2.21,4.91-4.91,4.91h0c-2.7,0-4.91-2.21-4.91-4.91Z"/><path class="cls-1" d="M146.34,288.42V147.72c0-2.7,2.21-4.91,4.91-4.91h0c2.7,0,4.91,2.21,4.91,4.91v140.7c0,2.7-2.21,4.91-4.91,4.91h0c-2.7,0-4.91-2.21-4.91-4.91Z"/><path class="cls-1" d="M265.37,288.42V147.72c0-2.7,2.21-4.91,4.91-4.91h0c2.7,0,4.91,2.21,4.91,4.91v140.7c0,2.7-2.21,4.91-4.91,4.91h0c-2.7,0-4.91-2.21-4.91-4.91Z"/><path class="cls-1" d="M129.34,288.42V147.72c0-2.7,2.21-4.91,4.91-4.91h0c2.7,0,4.91,2.21,4.91,4.91v140.7c0,2.7-2.21,4.91-4.91,4.91h0c-2.7,0-4.91-2.21-4.91-4.91Z"/><path class="cls-1" d="M248.37,288.42V147.72c0-2.7,2.21-4.91,4.91-4.91h0c2.7,0,4.91,2.21,4.91,4.91v140.7c0,2.7-2.21,4.91-4.91,4.91h0c-2.7,0-4.91-2.21-4.91-4.91Z"/><path class="cls-1" d="M112.34,288.42V147.72c0-2.7,2.21-4.91,4.91-4.91h0c2.7,0,4.91,2.21,4.91,4.91v140.7c0,2.7-2.21,4.91-4.91,4.91h0c-2.7,0-4.91-2.21-4.91-4.91Z"/><path class="cls-1" d="M231.36,288.42V147.72c0-2.7,2.21-4.91,4.91-4.91h0c2.7,0,4.91,2.21,4.91,4.91v140.7c0,2.7-2.21,4.91-4.91,4.91h0c-2.7,0-4.91-2.21-4.91-4.91Z"/><path class="cls-1" d="M95.33,288.42V147.72c0-2.7,2.21-4.91,4.91-4.91h0c2.7,0,4.91,2.21,4.91,4.91v140.7c0,2.7-2.21,4.91-4.91,4.91h0c-2.7,0-4.91-2.21-4.91-4.91Z"/><path class="cls-1" d="M214.36,288.42V147.72c0-2.7,2.21-4.91,4.91-4.91h0c2.7,0,4.91,2.21,4.91,4.91v140.7c0,2.7-2.21,4.91-4.91,4.91h0c-2.7,0-4.91-2.21-4.91-4.91Z"/><path class="cls-1" d="M78.33,288.42V147.72c0-2.7,2.21-4.91,4.91-4.91h0c2.7,0,4.91,2.21,4.91,4.91v140.7c0,2.7-2.21,4.91-4.91,4.91h0c-2.7,0-4.91-2.21-4.91-4.91Z"/><path class="cls-1" d="M197.36,288.42V147.72c0-2.7,2.21-4.91,4.91-4.91h0c2.7,0,4.91,2.21,4.91,4.91v140.7c0,2.7-2.21,4.91-4.91,4.91h0c-2.7,0-4.91-2.21-4.91-4.91Z"/><path class="cls-1" d="M61.33,288.42V147.72c0-2.7,2.21-4.91,4.91-4.91h0c2.7,0,4.91,2.21,4.91,4.91v140.7c0,2.7-2.21,4.91-4.91,4.91h0c-2.7,0-4.91-2.21-4.91-4.91Z"/><path class="cls-1" d="M180.35,288.42V147.72c0-2.7,2.21-4.91,4.91-4.91h0c2.7,0,4.91,2.21,4.91,4.91v140.7c0,2.7-2.21,4.91-4.91,4.91h0c-2.7,0-4.91-2.21-4.91-4.91Z"/><path class="cls-1" d="M44.32,288.42V147.72c0-2.7,2.21-4.91,4.91-4.91h0c2.7,0,4.91,2.21,4.91,4.91v140.7c0,2.7-2.21,4.91-4.91,4.91h0c-2.7,0-4.91-2.21-4.91-4.91Z"/><path class="cls-1" d="M163.35,288.42V147.72c0-2.7,2.21-4.91,4.91-4.91h0c2.7,0,4.91,2.21,4.91,4.91v140.7c0,2.7-2.21,4.91-4.91,4.91h0c-2.7,0-4.91-2.21-4.91-4.91Z"/><path class="cls-1" d="M27.32,288.42V147.72c0-2.7,2.21-4.91,4.91-4.91h0c2.7,0,4.91,2.21,4.91,4.91v140.7c0,2.7-2.21,4.91-4.91,4.91h0c-2.7,0-4.91-2.21-4.91-4.91Z"/><path class="cls-1" d="M40.04,101.17L181.17,54.73c.78-.26,2.18-.25,3.6-.03,1.42-.22,2.81-.23,3.6,.03l141.13,46.44c1.18,.39,.55,1.23-1.4,1.87h0c-1.95,.64-4.52,.85-5.7,.46L184.77,58.22,47.15,103.51c-1.18,.39-3.74,.18-5.7-.46h0c-1.95-.64-2.58-1.49-1.4-1.88Z"/><path class="cls-2" d="M184.08,47.03c7.18,0,12.99,5.39,12.99,12.03s-5.82,12.03-12.99,12.03-13-5.39-13-12.03,5.82-12.03,13-12.03Z"/><path class="cls-1" d="M175.16,57.35c1.02,5.64,3.62,9.47,10.06,8.83,10.95-1.09,12.39-16.38-1.98-19.16-.99-.19-1.09-.68-1.82-1.64h-.02c-1.15-3.29,2.21-3.83,3.73-2l.43,.45,.32-.59c1-4.03-9.76-4.69-7.81,3.1,1.19,4.77,4.57,4.14,7.9,6.47,2.37,1.65,3.19,5.94,.28,6.77-2.88,.83-3.66-.14-3.87-2.67-.12-1.99-1.84-3.51-3.83-3.39-1.99,.12-3.51,1.84-3.39,3.83h0Z"/><path class="cls-4" d="M178.77,57.13c.32,5.26,3.87,6.43,7.6,5.64,5.74-1.21,5.97-8.86,.83-11.99-4.59-2.79-5.02-.42-7.32-4.54-.38-.67-.95-4.2,1.82-4.76,.58-.12,3.75-.65,3.87,2.35"/><path class="cls-1" d="M182.54,0h0c2.6,0,4.72,1.06,4.72,2.36V45.93c0,1.3-2.13,2.36-4.72,2.36h0c-2.6,0-4.72-1.06-4.72-2.36V2.36c0-1.3,2.12-2.36,4.72-2.36Z"/><path class="cls-3" d="M21.12,124.96H349.42c7.94,0,14.44,6.49,14.44,14.44v157.35c0,7.94-6.5,14.44-14.44,14.44H21.12c-7.94,0-14.44-6.5-14.44-14.44V139.4c0-7.94,6.49-14.44,14.44-14.44Z"/></g></g></svg>