<?xml version="1.0" encoding="UTF-8"?>
<!DOCTYPE svg PUBLIC "-//W3C//DTD SVG 1.1//EN" "http://www.w3.org/Graphics/SVG/1.1/DTD/svg11.dtd">
<!-- Creator: CorelDRAW Standard 2021 (64 Bit) -->
<svg xmlns="http://www.w3.org/2000/svg" xml:space="preserve" width="283.295mm" height="180.24mm" version="1.1" style="shape-rendering:geometricPrecision; text-rendering:geometricPrecision; image-rendering:optimizeQuality; fill-rule:evenodd; clip-rule:evenodd"
viewBox="0 0 661.52 420.88"
 xmlns:xlink="http://www.w3.org/1999/xlink"
 xmlns:xodm="http://www.corel.com/coreldraw/odm/2003">
 <defs>
  <style type="text/css">
   <![CDATA[
    .str0 {stroke:#094561;stroke-width:3.16;stroke-miterlimit:10}
    .fil0 {fill:#094561;fill-rule:nonzero}
    .fil1 {fill:white;fill-rule:nonzero}
   ]]>
  </style>
 </defs>
 <g id="Camada_x0020_1">
  <metadata id="CorelCorpID_0Corel-Layer"/>
  <g id="_2077168471952">
   <g>
    <path class="fil0" d="M97.08 57.31c-5.96,7.77 -11.4,16.22 -16.32,25.19 15.33,9.19 32.51,16.7 51.03,22.14 0.59,-3.14 1.16,-6.27 1.8,-9.34 6.31,-30.21 15.3,-55.71 26.42,-74.33 3.88,-6.5 8.02,-12.16 12.5,-16.88 -9.53,2.56 -18.73,6.32 -27.55,11.18 -17.92,9.86 -34.16,24.2 -47.87,42.04z"/>
    <path class="fil0" d="M140.94 117.26c-3.62,22.95 -5.75,48.19 -6.02,74.72l136.17 0c-0.27,-26.54 -2.34,-51.77 -5.98,-74.72 -19.64,4.72 -40.47,7.28 -62.11,7.28 -21.59,0 -42.45,-2.56 -62.06,-7.28z"/>
    <path class="fil0" d="M201.04 270.01c22.35,0 43.89,2.74 64.07,7.79 3.64,-22.92 5.76,-48.12 6.04,-74.63l-136.21 0c0.25,26.14 2.33,51.02 5.85,73.72 19.1,-4.46 39.31,-6.89 60.25,-6.89z"/>
    <path class="fil0" d="M52.64 191.98l71.13 0c0.28,-27.55 2.51,-53.74 6.37,-77.61 -15.25,-4.41 -29.65,-10.13 -42.97,-17.05 -3.73,-1.93 -7.35,-3.97 -10.92,-6.1 -14.25,29.2 -22.84,63.68 -23.62,100.75z"/>
    <path class="fil0" d="M75.56 302.57c16.4,-9.6 34.68,-17.39 54.33,-22.94 -3.7,-23.55 -5.85,-49.36 -6.15,-76.47l-71.14 0c0.77,36.51 9.09,70.51 22.95,99.4z"/>
    <path class="fil0" d="M215.13 3.4c-4.08,-2.3 -8.05,-3.4 -12.13,-3.4 -4.02,0 -7.99,1.1 -12.07,3.4 -4.08,2.31 -8.27,5.86 -12.4,10.62 -8.16,9.51 -15.9,23.86 -22.4,41.81 -5.44,14.97 -10.01,32.46 -13.51,51.74 19.01,4.65 39.29,7.19 60.39,7.19 21.1,0 41.39,-2.54 60.48,-7.18 -0.65,-3.38 -1.3,-6.72 -1.96,-9.98 -6.15,-29.34 -14.9,-53.88 -25.07,-70.9 -6.74,-11.36 -14.14,-19.27 -21.32,-23.29z"/>
    <path class="fil0" d="M144.52 297.56c6.11,29.34 14.89,53.89 25.05,70.91 6.8,11.36 14.17,19.26 21.35,23.28 4.08,2.32 8.05,3.41 12.07,3.41 4.08,0 8.05,-1.09 12.13,-3.41 4.13,-2.3 8.27,-5.85 12.35,-10.62 8.21,-9.51 15.94,-23.85 22.46,-41.8 5.44,-14.99 10.01,-32.5 13.54,-51.82 -19.63,-4.98 -40.63,-7.72 -62.44,-7.71 -20.45,0 -40.12,2.35 -58.65,6.75 0.68,3.74 1.38,7.42 2.13,11z"/>
    <path class="fil0" d="M88.24 344.64c-6.51,-8.45 -12.4,-17.64 -17.69,-27.4 -6.98,4.65 -13.52,9.68 -19.57,15.03 24.66,27.83 56.8,48.8 93.32,59.82 -1.58,-0.78 -3.16,-1.57 -4.71,-2.41 -19.44,-10.7 -36.82,-26.11 -51.35,-45.04z"/>
    <path class="fil0" d="M246.08 374.19c-3.92,6.51 -8.1,12.16 -12.51,16.88 9.46,-2.58 18.71,-6.34 27.52,-11.18 17.95,-9.87 34.16,-24.2 47.86,-42.05 5.87,-7.61 11.26,-15.92 16.1,-24.75 -15.23,-9.32 -32.31,-16.96 -50.8,-22.58 -0.54,3.16 -1.14,6.28 -1.79,9.34 -6.31,30.22 -15.34,55.73 -26.38,74.34z"/>
    <path class="fil0" d="M62.34 70.04c2.89,2.23 5.89,4.34 8.96,6.43 17.09,-30.94 40.57,-55.74 68.28,-70.98 1.54,-0.86 3.12,-1.63 4.71,-2.42 -35.92,10.84 -67.64,31.32 -92.15,58.47 3.26,2.93 6.64,5.78 10.2,8.5z"/>
    <path class="fil0" d="M44.68 324.79c3.13,-2.76 6.37,-5.48 9.72,-8.06 3.74,-2.88 7.65,-5.59 11.66,-8.23 -14.94,-30.71 -23.8,-66.74 -24.6,-105.33l-41.46 0c1.25,46 17.75,88.16 44.68,121.62z"/>
    <path class="fil0" d="M266.47 5.49c19.42,10.69 36.82,26.1 51.34,45.03 6.15,8.06 11.8,16.76 16.91,25.99 6.8,-4.66 13.27,-9.64 19.15,-14.95 -24.47,-27.18 -56.18,-47.66 -92.14,-58.49 1.63,0.8 3.21,1.57 4.73,2.42z"/>
    <path class="fil0" d="M131.55 289.38c-14.89,4.26 -28.93,9.81 -41.86,16.53 -3.29,1.7 -6.52,3.51 -9.68,5.37 16.3,30.31 38.85,54.22 64.95,68.59 8.83,4.87 18.05,8.63 27.59,11.19 -0.83,-0.87 -1.67,-1.73 -2.47,-2.66 -9.46,-11.06 -17.61,-26.48 -24.43,-45.28 -5.71,-15.72 -10.46,-33.85 -14.09,-53.75z"/>
    <path class="fil0" d="M339.24 85.22c15.39,31.02 24.53,67.55 25.35,106.77l41.44 0c-1.25,-46.62 -18.22,-89.34 -45.74,-123.03 -3.43,3.06 -6.96,6.02 -10.61,8.86 -3.37,2.56 -6.85,5 -10.44,7.4z"/>
    <path class="fil0" d="M359.75 326.87c27.9,-33.8 45.03,-76.75 46.28,-123.7l-41.44 0c-0.82,39.44 -10.01,76.18 -25.56,107.33 7.4,5.06 14.3,10.53 20.72,16.37z"/>
    <path class="fil0" d="M41.44 191.98c0.8,-39.21 9.96,-75.74 25.3,-106.75 -7.48,-5.02 -14.5,-10.47 -20.99,-16.25 -27.56,33.69 -44.5,76.38 -45.75,123.01l41.44 0z"/>
    <path class="fil0" d="M316.89 297.22c4.35,2.24 8.59,4.64 12.67,7.13 14.41,-29.28 23.06,-63.93 23.88,-101.19l-71.2 0c-0.27,27.53 -2.45,53.71 -6.31,77.59 14.52,4.31 28.23,9.85 40.95,16.46z"/>
    <path class="fil0" d="M266.47 389.67c-1.52,0.84 -3.1,1.63 -4.73,2.41 35.62,-10.75 67.17,-30.98 91.59,-57.82 -3.7,-3.38 -7.56,-6.65 -11.58,-9.77 -2.39,-1.8 -4.79,-3.57 -7.29,-5.28 -17.08,30.7 -40.47,55.3 -67.99,70.47z"/>
    <path class="fil0" d="M233.51 4.08c0.82,0.86 1.63,1.73 2.45,2.66 9.46,11.05 17.62,26.47 24.47,45.28 5.55,15.41 10.22,33.18 13.81,52.64 14.25,-4.19 27.69,-9.57 40.09,-16.01 3.75,-1.96 7.4,-4 10.99,-6.13 -16.26,-29.68 -38.51,-53.1 -64.23,-67.25 -8.81,-4.86 -18.06,-8.62 -27.58,-11.19z"/>
    <path class="fil0" d="M282.3 191.98l71.14 0c-0.82,-37.07 -9.36,-71.59 -23.66,-100.78 -16.21,9.68 -34.32,17.52 -53.85,23.15 3.86,23.87 6.09,50.08 6.36,77.63z"/>
   </g>
   <path class="fil1 str0" d="M305.1 238.24l0 -12.61 145.74 0 0 12.61 -145.74 0zm0 -60.26l271.86 0 0 12.61 -271.86 0 0 -12.61zm0 -47.64l271.86 0 0 12.62 -271.86 0 0 -12.62zm149.32 203.12c114.72,-5.15 205.51,-71.8 205.51,-153.26 0,-84.82 -98.43,-153.59 -219.83,-153.59 -121.41,0 -219.82,68.76 -219.82,153.59 0,64.51 56.93,119.72 137.55,142.48l-36.13 96.86 132.71 -86.08z"/>
  </g>
 </g>
</svg>
