<?xml version="1.0" encoding="UTF-8"?>
<svg id="Camada_2" xmlns="http://www.w3.org/2000/svg" viewBox="0 0 52.07 26.14">
    <defs>
        <style>.cls-1{fill:#707070;fill-rule:evenodd;}</style>
    </defs>
    <g id="Camada_1-2">
        <path class="cls-1"
              d="M37.67,19.98c0-.57,.46-1.03,1.03-1.03s1.03,.46,1.03,1.03v5.13c0,.57-.46,1.03-1.03,1.03H1.03c-.57,0-1.03-.46-1.03-1.03V1.03C0,.46,.46,0,1.03,0H38.7c.57,0,1.03,.46,1.03,1.03V10.25h8.78c.57,0,1.03,.46,1.03,1.03s-.46,1.03-1.03,1.03h-8.78v2.42h1.64c.57,0,1.03,.46,1.03,1.03s-.46,1.03-1.03,1.03h-9.81c-.57,0-1.03-.46-1.03-1.03s.46-1.03,1.03-1.03h6.1V2.91L20.44,13.92c-.33,.22-.77,.24-1.12,.01L2.06,2.91V24.07H37.67v-4.09h0Zm8.8-2.88c-.57,0-1.03-.46-1.03-1.03s.46-1.03,1.03-1.03h4.57c.57,0,1.03,.46,1.03,1.03s-.46,1.03-1.03,1.03h-4.57ZM4.92,22.22c-.57,0-1.03-.46-1.03-1.03s.46-1.03,1.03-1.03h7.06c.57,0,1.03,.46,1.03,1.03s-.46,1.03-1.03,1.03H4.92Zm38.94-.03c-.57,0-1.03-.46-1.03-1.03s.46-1.03,1.03-1.03h4.57c.57,0,1.03,.46,1.03,1.03s-.46,1.03-1.03,1.03h-4.57Zm2.22-14.84c-.57,0-1.03-.46-1.03-1.03s.46-1.03,1.03-1.03h4.57c.57,0,1.03,.46,1.03,1.03s-.46,1.03-1.03,1.03h-4.57Zm-10.9-5.28H4.55l15.32,9.79L35.18,2.06Z"/>
    </g>
</svg>