<?xml version="1.0" encoding="UTF-8"?>
<svg id="Camada_2" xmlns="http://www.w3.org/2000/svg" viewBox="0 0 21.95 31.18">
    <defs>
        <style>.cls-1,.cls-2{fill:#707070;}.cls-1,.cls-3{fill-rule:evenodd;}.cls-3{fill:#fefefe;}</style>
    </defs>
    <g id="Camada_1-2">
        <path class="cls-1"
              d="M21.87,9.39c.62,4.84-2.75,8.44-4.65,11.63-2.2,3.69-4.47,6.86-6.12,10.16h-.25c-1.57-2.6-3.49-5.77-5.51-9.06C3.43,19.01,1.11,15.97,.33,12.58-3-1.93,20.05-5.05,21.87,9.39h0ZM10.97,3.51c3.71,0,6.73,3.01,6.73,6.73s-3.01,6.73-6.73,6.73-6.73-3.01-6.73-6.73S7.26,3.51,10.97,3.51Z"/>
        <path class="cls-3"
              d="M10.97,2.13c4.56,0,8.27,3.7,8.27,8.27s-3.7,8.27-8.27,8.27S2.71,14.96,2.71,10.4,6.41,2.13,10.97,2.13Z"/>
        <path class="cls-2" d="M17.09,5.82c.51,6.77-6.8,11.51-12.77,8.19,6.03,4.52,18.11-1.15,12.77-8.19Z"/>
        <path class="cls-2"
              d="M4.32,14.01c1.66,1.78,4.04,2.95,6.65,2.95,3.54,0,7.14-1.88,7.58-5.67-3.05,4.86-9.61,6.05-14.23,2.71Z"/>
        <path class="cls-2" d="M4.32,14.01c2.06,3.58,6.68,5.07,10.29,3.13-4.24,1.18-7.66-.33-10.29-3.13Z"/>
        <path class="cls-2"
              d="M10.22,4.34c.44,0,.88,.05,1.3,.13-.87-.6-1.85-1.04-2.9-1.29-4.13,1.37-6.26,5.92-4.73,9.94-.22-.66-.34-1.37-.34-2.1,0-3.69,2.99-6.68,6.68-6.68Z"/>
        <path class="cls-2"
              d="M16.67,5.31c-.69-.76-1.53-1.38-2.48-1.82,.61,1.01,1,2.12,1.17,3.26,.46,.55,.83,1.17,1.09,1.85,.29-1.08,.36-2.2,.22-3.29h0Zm-5.64-2.51h0c-.51,0-1,.05-1.48,.14,.23,.1,.47,.22,.7,.34,.73,.39,1.39,.85,1.98,1.37,.25,.08,.5,.17,.74,.28-.51-.8-1.16-1.52-1.93-2.13h0Zm.56,.02h0c.77,.69,1.4,1.49,1.88,2.37,.53,.3,1.01,.66,1.44,1.08-.23-1.07-.67-2.1-1.29-3.01-.64-.23-1.32-.38-2.03-.43h0Z"/>
        <polygon class="cls-1"
                 points="7.37 13.54 8.55 8 6.31 8 6.69 6.21 13.63 6.21 13.24 8 10.99 8 9.82 13.54 7.37 13.54"/>
        <polygon class="cls-1" points="7.02 15.23 7.27 14.09 9.71 14.09 9.46 15.23 7.02 15.23"/>
    </g>
</svg>