<?xml version="1.0" encoding="UTF-8"?>
<!DOCTYPE svg PUBLIC "-//W3C//DTD SVG 1.1//EN" "http://www.w3.org/Graphics/SVG/1.1/DTD/svg11.dtd">
<!-- Creator: CorelDRAW Standard 2021 (64 Bit) -->
<svg xmlns="http://www.w3.org/2000/svg" xml:space="preserve" width="44.5791mm" height="44.5771mm" version="1.1" style="shape-rendering:geometricPrecision; text-rendering:geometricPrecision; image-rendering:optimizeQuality; fill-rule:evenodd; clip-rule:evenodd"
viewBox="0 0 17.39 17.39"
 xmlns:xlink="http://www.w3.org/1999/xlink"
 xmlns:xodm="http://www.corel.com/coreldraw/odm/2003">
 <defs>
  <style type="text/css">
   <![CDATA[
    .fil0 {fill:white}
   ]]>
  </style>
 </defs>
 <g id="Camada_x0020_1">
  <metadata id="CorelCorpID_0Corel-Layer"/>
  <g id="_1523509791584">
   <path class="fil0" d="M8.7 0c-2.36,0 -2.66,0.01 -3.59,0.05 -0.93,0.04 -1.56,0.19 -2.11,0.4 -0.57,0.22 -1.06,0.52 -1.54,1 -0.48,0.48 -0.78,0.97 -1,1.54 -0.21,0.55 -0.36,1.18 -0.4,2.11 -0.04,0.93 -0.05,1.22 -0.05,3.59 0,2.36 0.01,2.66 0.05,3.59 0.04,0.92 0.19,1.56 0.4,2.11 0.22,0.57 0.52,1.06 1,1.54 0.48,0.48 0.97,0.78 1.54,1 0.55,0.22 1.19,0.36 2.11,0.4 0.93,0.04 1.22,0.05 3.59,0.05 2.36,0 2.66,-0.01 3.59,-0.05 0.93,-0.04 1.56,-0.19 2.11,-0.4 0.57,-0.22 1.06,-0.52 1.54,-1 0.48,-0.48 0.78,-0.97 1,-1.54 0.22,-0.55 0.36,-1.19 0.4,-2.11 0.04,-0.93 0.05,-1.22 0.05,-3.59 0,-2.36 -0.01,-2.66 -0.05,-3.59 -0.04,-0.93 -0.19,-1.56 -0.4,-2.11 -0.22,-0.57 -0.52,-1.06 -1,-1.54 -0.48,-0.48 -0.97,-0.78 -1.54,-1 -0.55,-0.22 -1.18,-0.36 -2.11,-0.4 -0.93,-0.04 -1.22,-0.05 -3.59,-0.05l0 -0zm0 1.57c2.32,0 2.6,0.01 3.51,0.05 0.85,0.04 1.31,0.18 1.61,0.3 0.41,0.16 0.7,0.35 1,0.65 0.3,0.3 0.49,0.59 0.65,1 0.12,0.31 0.26,0.77 0.3,1.61 0.04,0.92 0.05,1.19 0.05,3.52 0,2.32 -0.01,2.6 -0.05,3.51 -0.04,0.85 -0.18,1.31 -0.3,1.62 -0.16,0.4 -0.35,0.69 -0.65,1 -0.3,0.3 -0.59,0.49 -1,0.65 -0.31,0.12 -0.77,0.26 -1.61,0.3 -0.92,0.04 -1.19,0.05 -3.51,0.05 -2.32,0 -2.6,-0.01 -3.51,-0.05 -0.85,-0.04 -1.31,-0.18 -1.61,-0.3 -0.41,-0.16 -0.7,-0.35 -1,-0.65 -0.3,-0.3 -0.49,-0.59 -0.65,-1 -0.12,-0.31 -0.26,-0.77 -0.3,-1.62 -0.04,-0.92 -0.05,-1.19 -0.05,-3.51 0,-2.32 0.01,-2.6 0.05,-3.52 0.04,-0.85 0.18,-1.31 0.3,-1.61 0.16,-0.41 0.35,-0.7 0.65,-1 0.3,-0.3 0.59,-0.49 1,-0.65 0.31,-0.12 0.77,-0.26 1.61,-0.3 0.92,-0.04 1.19,-0.05 3.51,-0.05z"/>
   <path class="fil0" d="M8.7 11.59c-1.6,0 -2.9,-1.3 -2.9,-2.9 0,-1.6 1.3,-2.9 2.9,-2.9 1.6,-0 2.9,1.3 2.9,2.9 0,1.6 -1.3,2.9 -2.9,2.9zm0 -7.36c-2.47,0 -4.47,2 -4.47,4.47 0,2.47 2,4.47 4.47,4.47 2.47,0 4.47,-2 4.47,-4.47 0,-2.47 -2,-4.47 -4.47,-4.47z"/>
   <path class="fil0" d="M14.38 4.05c0,0.58 -0.47,1.04 -1.04,1.04 -0.58,0 -1.04,-0.47 -1.04,-1.04 0,-0.58 0.47,-1.04 1.04,-1.04 0.58,0 1.04,0.47 1.04,1.04z"/>
  </g>
 </g>
</svg>
