<?xml version="1.0" encoding="UTF-8"?>
<!DOCTYPE svg PUBLIC "-//W3C//DTD SVG 1.1//EN" "http://www.w3.org/Graphics/SVG/1.1/DTD/svg11.dtd">
<!-- Creator: CorelDRAW Standard 2021 (64 Bit) -->
<svg xmlns="http://www.w3.org/2000/svg" xml:space="preserve" width="44.5771mm" height="44.5771mm" version="1.1" style="shape-rendering:geometricPrecision; text-rendering:geometricPrecision; image-rendering:optimizeQuality; fill-rule:evenodd; clip-rule:evenodd"
viewBox="0 0 17.6 17.6"
 xmlns:xlink="http://www.w3.org/1999/xlink"
 xmlns:xodm="http://www.corel.com/coreldraw/odm/2003">
 <defs>
  <style type="text/css">
   <![CDATA[
    .fil0 {fill:white}
   ]]>
  </style>
 </defs>
 <g id="Camada_x0020_1">
  <metadata id="CorelCorpID_0Corel-Layer"/>
  <path class="fil0" d="M2.07 0l13.46 0c1.14,0 2.07,0.93 2.07,2.07l0 13.46c0,1.14 -0.93,2.07 -2.07,2.07l-13.46 0c-1.14,0 -2.07,-0.93 -2.07,-2.07l0 -13.46c0,-1.14 0.93,-2.07 2.07,-2.07zm2.26 2.92c0.78,0 1.42,0.63 1.42,1.42 0,0.78 -0.63,1.42 -1.42,1.42 -0.79,0 -1.42,-0.63 -1.42,-1.42 0,-0.78 0.63,-1.42 1.42,-1.42l0 -0zm-1.22 3.91l2.45 0 0 7.86 -2.45 0 0 -7.86zm3.98 0l2.34 0 0 1.07 0.03 0c0.33,-0.62 1.12,-1.27 2.31,-1.27 2.47,0 2.93,1.63 2.93,3.74l0 4.31 -2.44 0 0 -3.82c0,-0.91 -0.02,-2.08 -1.27,-2.08 -1.27,0 -1.47,0.99 -1.47,2.02l0 3.89 -2.44 0 0 -7.86z"/>
 </g>
</svg>
