<?xml version="1.0" encoding="UTF-8"?><svg id="Camada_2" xmlns="http://www.w3.org/2000/svg" viewBox="0 0 200.16 182.64"><defs><style>.cls-1{fill:#26475e;}.cls-2{fill:#607889;}</style></defs><g id="Camada_1-2"><g><path class="cls-1" d="M134.24,0c.31,.46,.8,.23,1.2,.27,5.7,.57,7.44,2.26,8.14,7.94,.19,1.54,.41,3.09,.57,4.63,.07,.67,.32,.96,1.03,.98,1.35,.05,2.71,.18,4.06,.3,2.52,.23,4.24,1.57,5.43,3.79,1.4,2.62,1.91,5.37,1.7,8.31-.12,1.76-.04,1.78,1.71,1.78,1.12,0,2.24,.02,3.35-.08,3.1-.29,6.03,.53,8.88,1.53,3.46,1.21,4.78,4.2,5.34,7.51,.8,4.73,.46,9.5-.36,14.18-.73,4.11-3.52,6.28-8.11,6.87-3.27,.42-6.54,.24-9.81,.25-1.08,0-1.43,.39-1.53,1.4-.47,5.19-.3,10.38,0,15.56,.1,1.7,.83,3.24,1.8,4.63,.84,1.21,1.7,2.41,2.57,3.6,5.76,7.84,7.44,16.29,4.66,25.78-3.37,11.51-6.32,23.14-9.39,34.74-.91,3.43-1.6,6.91-2.37,10.37-.07,.3-.42,.75,.07,.9,.37,.11,.86,.09,1.18-.36,4.18-6.03,10.09-10.42,15.1-15.67,1.91-2,3.49-1.94,5.75-.32,1.59,1.15,2.99,2.52,4.38,3.9,5.38,5.35,10.5,10.96,16.26,15.92,1.27,1.09,2.37,2.37,3.23,3.83,.72,1.23,1.18,2.53,1.07,3.98-.13,1.63-1.49,2.66-3.1,2.32-1.57-.33-2.85-1.22-4.08-2.18-3.73-2.92-6.83-6.49-10.05-9.93-2.84-3.03-5.55-6.19-8.77-8.84-1.68-1.39-1.69-1.38-3.13,.18-5.54,5.97-11.01,12.02-17.25,17.3-1.31,1.11-2.69,2.12-4.2,2.96-.88,.49-1.6,.45-2.4-.17-1.68-1.3-3.29-2.67-4.83-4.12-5.8-5.44-11.48-11-16.59-17.1-.41-.49-.71-.47-1.18-.2-2.02,1.17-3.77,2.7-5.37,4.37-2.74,2.85-5.42,5.76-8.12,8.65-2.07,2.22-4.14,4.45-6.48,6.38-.77,.63-1.62,1.17-2.41,1.77-1.38,1.05-2.63,.89-3.99-.14-2.59-1.97-4.85-4.28-7.08-6.62-3.11-3.27-6.16-6.59-9.28-9.86-1.43-1.5-2.99-2.88-4.68-4.09-.76-.54-1.31-.6-2.06,.08-1.75,1.59-3.42,3.24-5.06,4.93-4.19,4.33-8.13,8.92-12.62,12.96-1.37,1.23-2.8,2.38-4.42,3.26-.69,.38-1.32,.38-2.02-.02-1.76-.99-3.28-2.28-4.73-3.65-4.33-4.09-8.15-8.68-12.31-12.93-1.62-1.66-3.3-3.25-5.13-4.68-.71-.55-1.2-.5-1.86,.05-2.86,2.38-5.47,5.02-8.08,7.67-3.98,4.04-7.93,8.11-11.9,12.16-.79,.81-1.66,1.49-2.78,1.8-1.86,.52-3.39-.32-3.97-2.21v-1.81c.12-.45,.48-.73,.77-1.05,3.98-4.53,8.16-8.88,12.38-13.18,3.75-3.82,7.48-7.67,11.66-11.02,2.79-2.24,2.49-2.47,5.82-.12,2.52,1.78,4.57,4.1,6.67,6.35,2.89,3.09,5.61,6.34,8.78,9.16,.71,.63,1.42,1.26,2.38,1.76-.15-2.37-.58-4.55-1.07-6.72-3.08-13.45-7.18-26.62-10.78-39.92-.76-2.81-1.74-5.58-1.78-8.52-.09-6.25,2.08-11.79,5.53-16.89,1.45-2.15,3.02-4.22,4.55-6.31,.45-.61,.63-1.23,.62-1.99-.08-5.63-.15-11.26-.16-16.89,0-.97-.32-1.22-1.21-1.24-3.19-.06-6.39-.14-9.58-.28-5.31-.23-7.6-2.08-8.51-7.25-.9-5.07-.86-10.19,.05-15.25,.85-4.73,2.53-6.33,7.28-6.77,3.61-.34,7.26-.3,10.89-.38,.76-.02,1.04-.24,1.1-1,.2-2.55,.47-5.09,.7-7.63,.22-2.5,1.49-4.13,3.92-4.85,1.93-.56,3.89-.87,5.89-.98,.83-.04,1.22-.23,1.29-1.21,.19-2.58,.38-5.17,1.13-7.68,.66-2.22,2.07-3.61,4.36-4.12,2.16-.48,4.36-.54,6.55-.55,7.55-.04,15.1-.01,22.64-.03,6.79-.02,13.58-.05,20.37-.08h11.74l1.44,.02h4.81c.56-.07,1.17,.27,1.67-.22h2.16ZM42.31,101.62c.03,.5,.03,1.42,.18,2.33,.22,1.42,.42,2.85,.84,4.22,3.75,12.28,6.52,24.81,9.79,37.22,.86,3.27,1.73,6.55,2.94,9.72,.27,.7,.52,.77,1.05,.26,1.09-1.05,2.25-2.04,3.31-3.13,3.18-3.26,6.3-6.58,9.49-9.82,1.57-1.59,3.25-3.07,5.19-4.22,.66-.39,1.23-.41,1.9-.06,1.42,.76,2.69,1.72,3.89,2.77,4.5,3.91,8.44,8.39,12.55,12.68,1.96,2.05,3.93,4.09,6.06,5.96,.55,.48,.96,.49,1.55,.1,1.74-1.16,3.3-2.53,4.73-4.03,3.08-3.24,6.11-6.53,9.18-9.78,2.44-2.58,4.88-5.17,7.77-7.28,1.05-.77,1.96-.79,3.07-.19,1.88,1.03,3.49,2.38,5.01,3.86,2.44,2.37,4.63,4.96,6.92,7.47,1.85,2.04,3.69,4.09,5.88,5.79,1.33,1.03,1.34,1.03,1.93-.5,1.05-2.72,1.83-5.52,2.61-8.32,3.65-13.13,6.19-26.54,10.22-39.58,1.27-4.12,1.34-8.35-.21-12.47-2.18-5.81-5.66-10.78-10.02-15.16-7.07-7.11-15.05-13.09-23.37-18.64-6.5-4.34-13.16-8.42-20.33-11.61-2.73-1.22-5.2-1.19-7.85,.23-12.04,6.44-23.92,13.14-34.55,21.8-6.13,5-11.69,10.53-15.84,17.33-2.37,3.88-3.94,8.01-3.89,13.05ZM100.7,29.26v.07c4.07,0,8.15,0,12.22,0,11.51,.02,23.01,.04,34.52,.1,1,0,1.29-.26,1.25-1.25-.07-1.95-.05-3.91,0-5.87,.02-.75-.17-1.02-.97-1.05-3.11-.09-6.22-.3-9.34-.38-.9-.02-1.14-.28-1.14-1.16-.02-3.55-.14-7.11-.17-10.66,0-.77-.19-1.16-1.04-1.2-1.99-.09-3.98-.33-5.97-.4-13.78-.5-27.56-.57-41.34-.47-7.71,.06-15.42,.06-23.11,.65-.83,.06-1.07,.36-1.07,1.16-.01,3.59-.11,7.19-.11,10.78,0,.92-.26,1.23-1.21,1.23-3.08-.02-6.15,.07-9.23,.08-.71,0-1.07,.11-1.07,.96,0,1.96-.04,3.92-.2,5.87-.09,1.19,.17,1.58,1.48,1.58,15.5-.05,31-.03,46.5-.03Zm.23,7.31v-.12c-5.95,0-11.91,0-17.86,0-16.18-.01-32.36-.03-48.54-.03-.58,0-1.25-.28-1.25,.84,0,3.55-.1,7.11-.22,10.66-.03,.81,.24,.99,1,.98,4.19-.03,8.39-.02,12.58-.02,9.71,.02,19.42-.11,29.12,.15,4.52,.12,8.59-.71,12.46-3,2.64-1.56,5.34-3.03,8.09-4.41,2.85-1.43,5.64-1.42,8.49,0,2.86,1.42,5.62,3.02,8.42,4.54,2.11,1.14,4.26,2.16,6.66,2.59,2.87,.52,5.74,.14,8.61,.14,12.94,0,25.89-.02,38.83,0,.92,0,1.22-.2,1.2-1.17-.07-3.23-.11-6.47,0-9.71,.04-1.28-.38-1.48-1.54-1.48-22.01,.03-44.02,.02-66.04,.02Zm-48.07,32.99l17.53-13.4c-.31-.1-.42-.16-.52-.16-5.43-.05-10.85-.09-16.28-.16-.6,0-.74,.21-.74,.76,.01,4.26,0,8.52,0,12.96Zm95.9-.24c0-4.01-.04-8.02,.03-12.04,.02-1-.32-1.17-1.21-1.18-5.14-.04-10.28-.14-15.43-.21-.38,0-.75,0-1.5,0,6.01,4.8,11.89,9.13,18.12,13.43Z"/><path class="cls-2" d="M0,164.9c.04-.1,.11-.12,.19-.06v1.81L0,166.58v-1.68Z"/><path class="cls-1" d="M148.47,182.45c-1.3,0-2.23-.62-3.12-1.31-1.23-.96-2.32-2.08-3.41-3.18-5.59-5.65-11.19-11.29-16.76-16.96-.66-.68-1.05-.65-1.71-.05-3.72,3.39-7.12,7.11-10.62,10.73-3.11,3.21-6.15,6.5-9.64,9.32-2.56,2.07-3.14,2.09-5.87,.16-3.15-2.23-5.76-5.05-8.44-7.79-3.96-4.05-7.68-8.34-11.88-12.18-.79-.72-1.3-.7-2.09-.06-3.92,3.2-7.21,7.02-10.65,10.68-2.82,3-5.5,6.16-8.78,8.65-4.05,3.08-3.27,2.78-6.6-.13-8.01-6.99-15.52-14.5-22.54-22.5-.5-.57-.95-1.18-1.4-1.79-.8-1.09-.54-2.23,.04-3.27,.59-1.05,1.65-1.19,2.74-.99,1.83,.35,3.29,1.35,4.6,2.64,6.21,6.16,12.46,12.28,18.62,18.49,.89,.89,1.4,.75,2.22,.08,3.47-2.79,6.41-6.12,9.45-9.34,2.58-2.73,5.08-5.53,7.85-8.08,.91-.84,1.82-1.7,2.82-2.41,2.88-2.03,2.67-2.02,5.53-.1,1.83,1.22,3.44,2.73,5.04,4.23,5.16,4.84,9.9,10.09,14.85,15.14,1.49,1.52,1.51,1.54,3.23,.21,3.43-2.65,6.25-5.94,9.19-9.09,2.37-2.54,4.68-5.14,7.2-7.54,1.04-.99,2.11-1.95,3.24-2.84,2.45-1.91,3.09-1.92,5.73-.21,2.33,1.51,4.31,3.43,6.19,5.44,3.21,3.45,6.37,6.95,9.59,10.39,1.66,1.78,3.44,3.45,5.49,4.8,.46,.3,.75,.4,1.15-.13,1.78-2.32,3.87-4.36,5.96-6.39,3.64-3.53,7.37-6.97,10.65-10.86,1.23-1.47,2.63-2.8,4.37-3.68,1.76-.9,3.19-.7,4.54,.48,.65,.57,.83,1.2,.6,2.01-.42,1.53-1.24,2.84-2.19,4.09-1.17,1.53-2.46,2.95-3.89,4.23-5.35,4.81-10.34,9.99-15.35,15.15-1.06,1.09-2.15,2.14-3.41,3-.8,.55-1.64,.99-2.55,.95Z"/></g></g></svg>