<?xml version="1.0" encoding="UTF-8"?>
<!DOCTYPE svg PUBLIC "-//W3C//DTD SVG 1.1//EN" "http://www.w3.org/Graphics/SVG/1.1/DTD/svg11.dtd">
<!-- Creator: CorelDRAW Standard 2021 (64 Bit) -->
<svg xmlns="http://www.w3.org/2000/svg" xml:space="preserve" width="113.449mm" height="136.837mm" version="1.1" style="shape-rendering:geometricPrecision; text-rendering:geometricPrecision; image-rendering:optimizeQuality; fill-rule:evenodd; clip-rule:evenodd"
viewBox="0 0 77.39 93.34"
 xmlns:xlink="http://www.w3.org/1999/xlink"
 xmlns:xodm="http://www.corel.com/coreldraw/odm/2003">
 <defs>
  <style type="text/css">
   <![CDATA[
    .fil0 {fill:#094561;fill-rule:nonzero}
    .fil1 {fill:#094561;fill-rule:nonzero}
   ]]>
  </style>
 </defs>
 <g id="Camada_x0020_1">
  <metadata id="CorelCorpID_0Corel-Layer"/>
  <g id="_2613979916192">
   <g>
    <path class="fil0" d="M25.28 7.21l-1.08 -2.68 -0 0 0.62 -0.25 0.61 -0.24 0.6 -0.24 0.59 -0.23 0.58 -0.22 0.57 -0.22 0.56 -0.21 0.55 -0.2 0.53 -0.2 0.52 -0.19 0.51 -0.18 0.5 -0.17 0.49 -0.17 0.47 -0.16 0.46 -0.15 0.45 -0.15 0.43 -0.14 0.42 -0.13 0.41 -0.12 0.39 -0.12 0.38 -0.11 0.37 -0.1 0.35 -0.1 0.34 -0.09 0.33 -0.08 0.31 -0.07 0.3 -0.07 0.29 -0.06 0.27 -0.05 0.26 -0.04 0.25 -0.04 0.24 -0.03 0.29 2.87 -0.16 0.02 -0.18 0.03 -0.2 0.03 -0.22 0.04 -0.24 0.05 -0.26 0.06 -0.28 0.06 -0.29 0.07 -0.31 0.08 -0.33 0.09 -0.34 0.1 -0.36 0.1 -0.37 0.11 -0.39 0.12 -0.4 0.13 -0.42 0.13 -0.43 0.14 -0.44 0.15 -0.46 0.16 -0.47 0.16 -0.48 0.17 -0.5 0.18 -0.51 0.18 -0.52 0.19 -0.53 0.2 -0.55 0.2 -0.56 0.21 -0.57 0.22 -0.58 0.23 -0.59 0.23 -0.6 0.24 -0.61 0.25 -0 0zm-18.93 5.23l-0.75 -2.79 0 -0 0.53 -0.14 0.53 -0.14 0.54 -0.14 0.54 -0.13 0.55 -0.13 0.55 -0.13 0.56 -0.13 0.56 -0.13 0.56 -0.13 0.57 -0.13 0.57 -0.13 0.57 -0.13 0.58 -0.13 0.58 -0.14 0.58 -0.14 0.59 -0.14 0.59 -0.14 0.59 -0.15 0.59 -0.15 0.6 -0.16 0.6 -0.16 0.6 -0.17 0.6 -0.17 0.6 -0.18 0.6 -0.19 0.61 -0.19 0.61 -0.2 0.61 -0.21 0.61 -0.22 0.61 -0.22 0.61 -0.23 0.61 -0.24 1.08 2.68 -0.65 0.26 -0.64 0.25 -0.64 0.24 -0.64 0.23 -0.64 0.22 -0.64 0.21 -0.63 0.2 -0.63 0.19 -0.63 0.19 -0.62 0.18 -0.62 0.17 -0.62 0.17 -0.61 0.16 -0.61 0.16 -0.61 0.15 -0.6 0.15 -0.6 0.14 -0.59 0.14 -0.59 0.14 -0.58 0.13 -0.58 0.13 -0.57 0.13 -0.57 0.13 -0.56 0.13 -0.56 0.13 -0.55 0.13 -0.54 0.13 -0.54 0.13 -0.53 0.13 -0.52 0.13 -0.52 0.13 -0.51 0.13 0 -0zm-3.39 6.91l-2.88 0.21 0.01 0.1 -0.01 -0.04 -0.01 -0.08 -0.01 -0.11 -0.01 -0.15 -0.01 -0.18 -0.01 -0.21 -0.01 -0.24 -0.01 -0.27 -0 -0.29 0.01 -0.32 0.02 -0.34 0.03 -0.36 0.04 -0.37 0.05 -0.39 0.07 -0.4 0.08 -0.41 0.1 -0.42 0.12 -0.43 0.15 -0.43 0.17 -0.43 0.2 -0.43 0.23 -0.43 0.26 -0.42 0.3 -0.41 0.34 -0.4 0.37 -0.38 0.41 -0.36 0.45 -0.33 0.49 -0.3 0.53 -0.26 0.57 -0.23 0.6 -0.19 0.75 2.79 -0.39 0.12 -0.35 0.14 -0.32 0.16 -0.29 0.17 -0.26 0.19 -0.24 0.2 -0.22 0.22 -0.2 0.23 -0.18 0.25 -0.16 0.26 -0.15 0.27 -0.13 0.28 -0.12 0.29 -0.1 0.3 -0.09 0.3 -0.07 0.3 -0.06 0.3 -0.05 0.3 -0.04 0.29 -0.03 0.29 -0.02 0.28 -0.01 0.26 -0.01 0.25 0 0.23 0 0.21 0.01 0.19 0.01 0.16 0.01 0.14 0.01 0.11 0.01 0.07 0.01 0.04 -0 -0 0.01 0.1zm-0.01 -0.1l0.01 0.05 0 0.05 -0.01 -0.1zm2.87 32.56l-2.84 0.51 0 -0 -0.09 -0.54 -0.09 -0.65 -0.1 -0.76 -0.1 -0.87 -0.11 -0.96 -0.11 -1.05 -0.11 -1.13 -0.12 -1.2 -0.12 -1.26 -0.12 -1.31 -0.12 -1.35 -0.12 -1.39 -0.12 -1.41 -0.12 -1.43 -0.12 -1.43 -0.12 -1.43 -0.11 -1.41 -0.11 -1.39 -0.11 -1.36 -0.1 -1.32 -0.1 -1.26 -0.09 -1.2 -0.09 -1.13 -0.08 -1.05 -0.07 -0.97 -0.07 -0.87 -0.06 -0.76 -0.05 -0.64 -0.04 -0.52 -0.03 -0.38 -0.02 -0.24 -0.01 -0.08 2.88 -0.21 0.01 0.08 0.02 0.23 0.03 0.38 0.04 0.52 0.05 0.64 0.06 0.76 0.07 0.87 0.07 0.96 0.08 1.05 0.09 1.13 0.09 1.2 0.1 1.26 0.1 1.31 0.11 1.36 0.11 1.39 0.11 1.41 0.12 1.42 0.12 1.43 0.12 1.42 0.12 1.41 0.12 1.38 0.12 1.35 0.12 1.31 0.12 1.25 0.11 1.19 0.11 1.12 0.11 1.04 0.1 0.94 0.1 0.84 0.09 0.73 0.08 0.6 0.07 0.46 0 -0zm31.84 38.61l1.42 2.51 -1.44 -0.01 -0.1 -0.06 -0.26 -0.16 -0.42 -0.26 -0.56 -0.35 -0.7 -0.45 -0.82 -0.54 -0.94 -0.63 -1.04 -0.71 -1.14 -0.8 -1.22 -0.88 -1.3 -0.96 -1.36 -1.04 -1.41 -1.11 -1.46 -1.19 -1.49 -1.26 -1.51 -1.33 -1.53 -1.39 -1.53 -1.46 -1.52 -1.52 -1.5 -1.58 -1.47 -1.64 -1.44 -1.69 -1.39 -1.75 -1.33 -1.8 -1.26 -1.85 -1.18 -1.9 -1.09 -1.95 -0.99 -1.99 -0.88 -2.03 -0.75 -2.08 -0.62 -2.12 -0.47 -2.15 2.84 -0.51 0.43 1.95 0.56 1.93 0.69 1.91 0.81 1.88 0.92 1.86 1.02 1.83 1.11 1.79 1.19 1.75 1.27 1.71 1.33 1.67 1.38 1.62 1.42 1.58 1.45 1.52 1.47 1.47 1.48 1.41 1.48 1.35 1.47 1.29 1.45 1.22 1.42 1.16 1.38 1.09 1.33 1.01 1.26 0.94 1.19 0.86 1.11 0.78 1.02 0.7 0.91 0.61 0.8 0.52 0.67 0.43 0.54 0.34 0.4 0.24 0.24 0.15 0.07 0.04 -1.44 -0.01zm1.42 2.51l-0.72 0.41 -0.72 -0.42 1.44 0.01zm-0.71 -1.26l0 0 0 0 0 0 -0.71 -1.26 0.71 1.26zm0.71 1.26l-0.72 0.41 -0.72 -0.42 1.44 0.01zm32.39 -41.06l2.84 0.52 0 0 -0.48 2.18 -0.63 2.14 -0.77 2.1 -0.89 2.05 -1.01 2 -1.11 1.96 -1.2 1.91 -1.28 1.85 -1.35 1.8 -1.41 1.75 -1.46 1.69 -1.5 1.63 -1.53 1.57 -1.54 1.51 -1.55 1.45 -1.55 1.38 -1.54 1.32 -1.51 1.25 -1.48 1.17 -1.43 1.1 -1.38 1.03 -1.31 0.95 -1.24 0.87 -1.15 0.79 -1.06 0.7 -0.95 0.62 -0.84 0.53 -0.71 0.44 -0.57 0.35 -0.42 0.25 -0.26 0.15 -0.1 0.06 -1.42 -2.51 0.07 -0.04 0.25 -0.14 0.4 -0.24 0.55 -0.33 0.68 -0.42 0.81 -0.51 0.93 -0.6 1.03 -0.68 1.12 -0.77 1.21 -0.85 1.28 -0.92 1.34 -1 1.4 -1.07 1.44 -1.14 1.47 -1.21 1.49 -1.28 1.5 -1.34 1.5 -1.4 1.49 -1.46 1.47 -1.52 1.44 -1.57 1.4 -1.62 1.35 -1.67 1.29 -1.72 1.22 -1.76 1.13 -1.8 1.04 -1.83 0.94 -1.87 0.83 -1.9 0.71 -1.93 0.58 -1.95 0.44 -1.98 0 0zm2.97 -33.13l2.86 0.42 0.01 -0.1 -0.01 0.08 -0.02 0.24 -0.03 0.39 -0.04 0.53 -0.05 0.65 -0.06 0.77 -0.07 0.88 -0.08 0.98 -0.08 1.07 -0.09 1.15 -0.1 1.23 -0.1 1.29 -0.11 1.34 -0.11 1.38 -0.12 1.41 -0.12 1.44 -0.12 1.45 -0.12 1.46 -0.12 1.45 -0.12 1.44 -0.12 1.41 -0.12 1.38 -0.12 1.34 -0.12 1.28 -0.12 1.22 -0.12 1.15 -0.11 1.07 -0.11 0.98 -0.1 0.88 -0.1 0.77 -0.09 0.66 -0.09 0.55 -2.84 -0.52 0.08 -0.47 0.09 -0.61 0.09 -0.74 0.1 -0.86 0.11 -0.96 0.11 -1.05 0.11 -1.14 0.12 -1.21 0.12 -1.27 0.12 -1.33 0.12 -1.37 0.12 -1.41 0.12 -1.43 0.12 -1.45 0.12 -1.45 0.12 -1.45 0.12 -1.44 0.11 -1.41 0.11 -1.38 0.11 -1.34 0.1 -1.29 0.1 -1.22 0.09 -1.15 0.08 -1.07 0.08 -0.98 0.07 -0.88 0.06 -0.77 0.05 -0.65 0.04 -0.52 0.03 -0.39 0.02 -0.24 0.01 -0.08 0.01 -0.1zm-0.01 0.1l0 -0.05 0.01 -0.05 -0.01 0.1zm-3.51 -6.96l0.7 -2.8 0 0 0.62 0.18 0.58 0.22 0.54 0.26 0.51 0.29 0.47 0.33 0.43 0.35 0.39 0.38 0.35 0.4 0.31 0.41 0.27 0.42 0.24 0.43 0.21 0.44 0.18 0.44 0.15 0.44 0.13 0.43 0.11 0.43 0.09 0.42 0.07 0.41 0.05 0.39 0.04 0.38 0.03 0.36 0.02 0.34 0.01 0.32 -0 0.3 -0.01 0.27 -0.01 0.25 -0.01 0.22 -0.01 0.19 -0.01 0.15 -0.01 0.12 -0.01 0.08 -0.01 0.05 -2.86 -0.42 -0 0 0.01 -0.04 0.01 -0.08 0.01 -0.11 0.01 -0.14 0.01 -0.17 0.01 -0.19 0.01 -0.21 0 -0.24 -0.01 -0.25 -0.01 -0.27 -0.02 -0.28 -0.03 -0.29 -0.04 -0.3 -0.05 -0.3 -0.06 -0.31 -0.08 -0.31 -0.09 -0.3 -0.11 -0.3 -0.12 -0.29 -0.14 -0.28 -0.15 -0.27 -0.17 -0.26 -0.18 -0.25 -0.2 -0.23 -0.22 -0.22 -0.24 -0.2 -0.27 -0.19 -0.3 -0.17 -0.33 -0.16 -0.36 -0.14 -0.4 -0.12 0 0zm-19.35 -4.94l1.03 -2.7 0 0 0.62 0.23 0.62 0.22 0.62 0.21 0.62 0.21 0.62 0.2 0.62 0.19 0.62 0.18 0.62 0.18 0.61 0.17 0.61 0.16 0.61 0.16 0.61 0.15 0.61 0.15 0.61 0.14 0.6 0.14 0.6 0.14 0.6 0.13 0.6 0.13 0.59 0.13 0.59 0.12 0.59 0.12 0.58 0.12 0.58 0.12 0.58 0.12 0.57 0.12 0.57 0.12 0.57 0.12 0.56 0.12 0.56 0.13 0.55 0.13 0.55 0.13 0.54 0.13 -0.7 2.8 -0.52 -0.13 -0.53 -0.13 -0.54 -0.12 -0.54 -0.12 -0.55 -0.12 -0.56 -0.12 -0.56 -0.12 -0.57 -0.12 -0.58 -0.12 -0.58 -0.12 -0.59 -0.12 -0.59 -0.12 -0.6 -0.13 -0.6 -0.13 -0.61 -0.13 -0.61 -0.13 -0.62 -0.14 -0.62 -0.14 -0.62 -0.15 -0.63 -0.15 -0.63 -0.16 -0.63 -0.16 -0.64 -0.17 -0.64 -0.18 -0.64 -0.18 -0.65 -0.19 -0.65 -0.2 -0.65 -0.21 -0.65 -0.22 -0.65 -0.23 -0.65 -0.24 -0.66 -0.25 0 0zm-14.59 -5.5l2.89 0 -1.33 -1.44 0.24 0.02 0.25 0.03 0.26 0.04 0.27 0.05 0.29 0.05 0.3 0.06 0.31 0.07 0.33 0.07 0.34 0.08 0.36 0.09 0.37 0.09 0.38 0.1 0.4 0.11 0.41 0.12 0.42 0.12 0.44 0.13 0.45 0.14 0.46 0.14 0.48 0.15 0.49 0.16 0.5 0.16 0.51 0.17 0.53 0.18 0.54 0.18 0.55 0.19 0.56 0.2 0.57 0.21 0.59 0.21 0.6 0.22 0.61 0.23 0.62 0.23 0.63 0.24 -1.03 2.7 -0.62 -0.23 -0.61 -0.23 -0.6 -0.22 -0.59 -0.21 -0.57 -0.21 -0.56 -0.2 -0.55 -0.19 -0.54 -0.19 -0.53 -0.18 -0.51 -0.17 -0.5 -0.17 -0.49 -0.16 -0.48 -0.15 -0.46 -0.15 -0.45 -0.14 -0.43 -0.13 -0.42 -0.12 -0.41 -0.12 -0.39 -0.11 -0.38 -0.1 -0.36 -0.1 -0.35 -0.09 -0.33 -0.08 -0.31 -0.07 -0.3 -0.07 -0.28 -0.06 -0.26 -0.05 -0.24 -0.04 -0.22 -0.04 -0.2 -0.03 -0.18 -0.02 -0.16 -0.02 -1.33 -1.44zm1.33 1.44l-1.33 -0.11 0 -1.33 1.33 1.44zm0.14 -0l-0.29 -2.87 -1.3 1.44 0.17 -0.69 0.29 -0.38 0.25 -0.19 0.17 -0.08 0.12 -0.04 0.1 -0.03 0.06 -0.01 0.05 -0.01 0.05 -0.01 0.04 -0 0.03 -0 0.04 -0 0.03 -0 0.03 -0 0.02 -0 0.02 -0 0.03 -0 0.02 0 0.03 0 0.03 0 0.03 0 0.04 0 0.03 0 0.05 0.01 0.05 0.01 0.06 0.01 0.11 0.03 0.11 0.04 0.16 0.08 0.26 0.18 0.31 0.37 0.19 0.72 -2.89 0 0.19 0.72 0.31 0.37 0.25 0.18 0.16 0.07 0.11 0.04 0.1 0.03 0.05 0.01 0.04 0.01 0.04 0.01 0.02 0 0.03 0 0.02 0 0.01 0 0.02 0 0.01 0 0.02 -0 0.01 -0 0.01 -0 0.02 -0 0.02 -0 0.03 -0 0.02 -0 0.03 -0 0.04 -0.01 0.05 -0.01 0.06 -0.01 0.09 -0.03 0.11 -0.04 0.16 -0.08 0.25 -0.18 0.29 -0.37 0.17 -0.69 -1.3 1.44zm1.3 -1.44l0 1.31 -1.3 0.13 1.3 -1.44z"/>
   </g>
   <g id="_2613979916240">
    <path class="fil1" d="M38.7 72.08c-15.55,0 -28.2,-12.65 -28.2,-28.2 0,-15.55 12.65,-28.2 28.2,-28.2 15.55,0 28.2,12.66 28.2,28.2 0,15.55 -12.65,28.2 -28.2,28.2zm0 -53.72l0 0c-14.07,0 -25.52,11.45 -25.52,25.52 0,14.07 11.45,25.52 25.52,25.52 14.07,0 25.51,-11.44 25.51,-25.52 0,-14.07 -11.44,-25.52 -25.51,-25.52z"/>
    <path class="fil1" d="M38.7 72.08c-8.29,0 -14.77,-12.39 -14.77,-28.2 0,-15.81 6.48,-28.2 14.77,-28.2 8.28,0 14.77,12.39 14.77,28.2 0,15.82 -6.49,28.2 -14.77,28.2zm0 -53.72l0 0c-6.55,0 -12.09,11.69 -12.09,25.52 0,13.84 5.53,25.52 12.09,25.52 6.55,0 12.09,-11.68 12.09,-25.52 0,-13.83 -5.53,-25.52 -12.09,-25.52z"/>
    <path class="fil1" d="M38.7 37.09c-12.72,0 -24.35,-2.55 -24.46,-2.57 -0.73,-0.16 -1.18,-0.89 -1.03,-1.6 0.16,-0.72 0.88,-1.18 1.61,-1.03 0.11,0.03 11.46,2.52 23.88,2.52 12.44,0 23.77,-2.49 23.88,-2.52 0.73,-0.15 1.45,0.31 1.61,1.03 0.16,0.72 -0.3,1.44 -1.02,1.6 -0.11,0.02 -11.74,2.57 -24.46,2.57z"/>
    <path class="fil1" d="M14.52 55.97c-0.61,0 -1.17,-0.42 -1.31,-1.05 -0.15,-0.73 0.3,-1.44 1.03,-1.6 0.11,-0.03 11.74,-2.58 24.46,-2.58 12.72,0 24.35,2.55 24.46,2.58 0.72,0.16 1.18,0.88 1.02,1.6 -0.16,0.72 -0.87,1.19 -1.61,1.02 -0.11,-0.03 -11.46,-2.51 -23.88,-2.51 -12.43,0 -23.77,2.48 -23.88,2.51 -0.1,0.02 -0.2,0.03 -0.29,0.03z"/>
    <path class="fil1" d="M38.7 72.08c-0.75,0 -1.35,-0.6 -1.35,-1.34l0 -53.72c0,-0.74 0.6,-1.35 1.35,-1.35 0.74,0 1.34,0.61 1.34,1.35l0 53.72c0,0.74 -0.6,1.34 -1.34,1.34z"/>
   </g>
  </g>
 </g>
</svg>
