<?xml version="1.0" encoding="UTF-8"?>
<!DOCTYPE svg PUBLIC "-//W3C//DTD SVG 1.1//EN" "http://www.w3.org/Graphics/SVG/1.1/DTD/svg11.dtd">
<!-- Creator: CorelDRAW 2019 (64 Bit) -->
<svg xmlns="http://www.w3.org/2000/svg" xml:space="preserve" width="180.208mm" height="180.622mm" version="1.1" style="shape-rendering:geometricPrecision; text-rendering:geometricPrecision; image-rendering:optimizeQuality; fill-rule:evenodd; clip-rule:evenodd"
viewBox="0 0 20128.65 20174.9"
 xmlns:xlink="http://www.w3.org/1999/xlink">
 <defs>
  <style type="text/css">
   <![CDATA[
    .fil2 {fill:#094561}
    .fil1 {fill:#094561;fill-rule:nonzero}
    .fil0 {fill:#F59B2C;fill-rule:nonzero}
   ]]>
  </style>
 </defs>
 <g id="Camada_x0020_1">
  <metadata id="CorelCorpID_0Corel-Layer"/>
  <g id="_1953350022256">
   <polygon class="fil0" points="2839.8,10518.42 9017.58,10518.42 9017.58,12121.98 15195.36,8914.86 9017.58,5707.71 9017.58,7311.27 2839.8,7311.27 "/>
   <g>
    <path class="fil1" d="M18184.79 4008.83c680.34,8993.08 -9028.88,15278.87 -16948.21,10878.63 8006.35,5998.06 24044.51,-1526.51 16948.21,-10878.63z"/>
    <path class="fil1" d="M1236.58 14887.46c2196.93,2357.63 5356.72,3919.95 8833.6,3919.95 4698.89,0 9483.08,-2498.45 10058.47,-7522.37 -4051.26,6448.47 -12756.33,8033.3 -18892.07,3602.42z"/>
    <path class="fil1" d="M1236.58 14887.46c2728.45,4754.12 8863.68,6723.92 13657.67,4150.58 -5630.37,1567.75 -10169.72,-442.34 -13657.67,-4150.58z"/>
    <path class="fil1" d="M9067.6 2051.97c590.53,0 1166.48,60.01 1724.79,169.83 -1150.05,-792.88 -2452.14,-1380.91 -3853.77,-1711 -5484.98,1814.81 -8308.02,7853.74 -6282.5,13194.17 -291.23,-878.05 -449.2,-1816.32 -449.2,-2791.83 0,-4893.72 3966.95,-8861.18 8860.69,-8861.18z"/>
    <path class="fil0" d="M17619.84 3328.99c-916.92,-1012.44 -2036.11,-1838.05 -3294.19,-2414.28 812.25,1336.1 1332.11,2811.33 1549.03,4328.06 608.47,729.36 1102.76,1557.47 1453.22,2458.09 379.82,-1433.57 474.13,-2919.36 291.94,-4371.86zm-7488.85 -3328.7l0 0c-3.72,-0.29 -7.93,-0.29 -11.58,-0.29 -672.27,0 -1328.74,66.24 -1964.79,191.49 311.67,137.4 621.04,286.08 926.49,449.05 963.92,513.66 1841.76,1124.62 2630.62,1813.61 337.75,105.39 666.06,231.36 985.09,374.61 -678.85,-1062.59 -1538.89,-2022.59 -2565.83,-2828.47zm747.51 29.01l0 0c1018.58,911.56 1856.97,1977.09 2498.23,3140.92 701.78,391.62 1345.19,875.04 1913.06,1435.07 -310.87,-1423.27 -890.84,-2783.25 -1714.72,-3999.03 -851.68,-309.38 -1756.23,-507.29 -2696.57,-576.96z"/>
    <polygon class="fil2" points="4811.27,16502.19 5149.23,14984.55 8390.5,14984.55 8052.57,16502.19 "/>
   </g>
  </g>
 </g>
</svg>
