<?xml version="1.0" encoding="UTF-8"?>
<!DOCTYPE svg PUBLIC "-//W3C//DTD SVG 1.1//EN" "http://www.w3.org/Graphics/SVG/1.1/DTD/svg11.dtd">
<!-- Creator: CorelDRAW Standard 2021 (64 Bit) -->
<svg xmlns="http://www.w3.org/2000/svg" xml:space="preserve" width="964.226mm" height="966.441mm" version="1.1" style="shape-rendering:geometricPrecision; text-rendering:geometricPrecision; image-rendering:optimizeQuality; fill-rule:evenodd; clip-rule:evenodd"
viewBox="0 0 11353.48 11379.56"
 xmlns:xlink="http://www.w3.org/1999/xlink"
 xmlns:xodm="http://www.corel.com/coreldraw/odm/2003">
 <defs>
  <style type="text/css">
   <![CDATA[
    .fil2 {fill:#094561}
    .fil1 {fill:#094561;fill-rule:nonzero}
    .fil0 {fill:#F59B2C;fill-rule:nonzero}
   ]]>
  </style>
 </defs>
 <g id="Camada_x0020_1">
  <metadata id="CorelCorpID_0Corel-Layer"/>
  <g id="_1953350022256">
   <polygon class="fil0" points="1601.78,5932.87 5086.33,5932.87 5086.33,6837.35 8570.88,5028.39 5086.33,3219.41 5086.33,4123.89 1601.78,4123.89 "/>
   <g>
    <path class="fil1" d="M10257.06 2261.16c383.75,5072.51 -5092.7,8617.98 -9559.57,6136.05 4515.95,3383.18 13562.2,-861.02 9559.57,-6136.05z"/>
    <path class="fil1" d="M697.49 8397.21c1239.17,1329.81 3021.44,2211.03 4982.55,2211.03 2650.39,0 5348.89,-1409.24 5673.43,-4242.96 -2285.09,3637.23 -7195.16,4531.15 -10655.99,2031.93l0.01 -0.01z"/>
    <path class="fil1" d="M697.49 8397.21c1538.97,2681.54 4999.52,3792.6 7703.55,2341.11 -3175.79,884.29 -5736.18,-249.5 -7703.55,-2341.11z"/>
    <path class="fil1" d="M5114.54 1157.41c333.09,0 657.95,33.85 972.86,95.79 -648.68,-447.22 -1383.12,-778.89 -2173.7,-965.08 -3093.78,1023.63 -4686.1,4429.87 -3543.62,7442.12 -164.27,-495.26 -253.37,-1024.49 -253.37,-1574.72 0,-2760.28 2237.54,-4998.11 4997.83,-4998.11z"/>
    <path class="fil0" d="M9938.4 1877.7c-517.19,-571.06 -1148.46,-1036.74 -1858.07,-1361.76 458.14,753.62 751.37,1585.72 873.73,2441.22 343.2,411.39 622.01,878.48 819.68,1386.48 214.24,-808.6 267.43,-1646.65 164.67,-2465.93l-0.01 -0.01zm-4224.06 -1877.54l0 0c-2.1,-0.16 -4.47,-0.16 -6.53,-0.16 -379.19,0 -749.47,37.36 -1108.23,108.01 175.79,77.5 350.3,161.36 522.58,253.29 543.69,289.73 1038.84,634.34 1483.79,1022.96 190.51,59.44 375.69,130.5 555.63,211.3 -382.9,-599.35 -868.01,-1140.84 -1447.25,-1595.38l0.01 -0.01zm421.63 16.36l0 0c574.53,514.16 1047.42,1115.17 1409.12,1771.62 395.84,220.89 758.75,493.57 1079.06,809.45 -175.35,-802.79 -502.47,-1569.88 -967.18,-2255.63 -480.38,-174.5 -990.59,-286.14 -1520.99,-325.43l0 -0.01z"/>
    <polygon class="fil2" points="2713.78,9307.99 2904.4,8451.97 4732.63,8451.97 4542.02,9307.99 "/>
   </g>
  </g>
 </g>
</svg>
