<?xml version="1.0" encoding="UTF-8"?>
<svg id="Camada_2" xmlns="http://www.w3.org/2000/svg" viewBox="0 0 31.85 31.85">
    <defs>
        <style>.cls-1{fill:#707070;fill-rule:evenodd;}</style>
    </defs>
    <g id="Camada_1-2">
        <path class="cls-1"
              d="M13.89,.09C9.26,.7,5.18,3.24,2.56,7.16c-.54,.81-1.32,2.36-1.66,3.31-.3,.82-.63,2.13-.78,3.07-.16,1-.16,3.74,0,4.74,.27,1.69,.74,3.16,1.5,4.71,1.55,3.17,4.03,5.65,7.19,7.2,1.18,.58,2.02,.89,3.2,1.18,1.2,.3,1.92,.4,3.11,.44l1,.04,.13-.17,.13-.17v-15.05h7.6l7.6-.03,.12-.15c.12-.15,.12-.21,.09-1.15-.17-5.03-2.87-9.73-7.22-12.58C22.58,1.24,20.25,.38,17.84,.08c-.94-.12-3.06-.11-3.95,0h0Zm-.29,1.69c-1.53,1.46-3.03,3.52-3.85,5.28l-.27,.58h-2.96c-1.63,0-2.97-.01-2.97-.04,0-.02,.16-.26,.36-.52,1.97-2.62,4.67-4.5,7.75-5.41,.86-.25,1.96-.48,2.45-.52,.11,0,0,.13-.52,.63h0Zm4.79-.51c3.77,.65,7.13,2.71,9.46,5.8,.2,.27,.37,.5,.37,.53,0,.02-1.33,.04-2.95,.03l-2.95-.02-.55-1.03c-.3-.57-.75-1.32-1-1.67-.8-1.14-2.18-2.8-2.72-3.3-.29-.26-.49-.47-.44-.47s.39,.05,.78,.12h0Zm-3.05,3.37v3.01h-2.34c-1.29,0-2.34-.02-2.34-.05,0-.09,.85-1.54,1.27-2.16,.69-1.03,1.37-1.84,2.38-2.86,.53-.52,.97-.95,.99-.95s.04,1.35,.04,3.01h0Zm2.57-1.59c.3,.3,.71,.76,.91,1.03,.21,.26,.52,.66,.7,.88,.36,.47,.98,1.47,1.34,2.19l.25,.5h-4.68V1.61l.47,.45c.26,.25,.71,.7,1.01,1h0Zm-8.98,5.79c-.6,1.47-1.14,3.88-1.22,5.49-.02,.35-.04,.73-.06,.83l-.03,.2H1l.04-.47c.18-1.98,.62-3.64,1.45-5.38l.36-.77h3.07c2.89,0,3.06,0,3.02,.1h0Zm6.41,3.21v3.31h-6.64l.04-.69c.11-1.8,.52-3.66,1.17-5.37l.22-.57h5.21v3.31h0Zm6.52-2.74c.66,1.7,1.06,3.57,1.17,5.37l.04,.69h-6.64v-6.62h5.21l.22,.57h0Zm7.44,.2c.83,1.74,1.27,3.4,1.45,5.38l.04,.47h-6.62l-.04-.14c-.02-.07-.04-.3-.04-.5,0-1.37-.61-4.21-1.26-5.9-.02-.07,.39-.09,3.03-.09h3.07l.36,.77h0ZM7.66,16.59c.02,.08,.04,.3,.04,.5,0,1.37,.61,4.21,1.26,5.9,.02,.07-.39,.09-3.03,.09H2.85l-.36-.78c-.83-1.73-1.27-3.39-1.45-5.38l-.04-.47H7.62l.04,.13h0Zm7.69,3.18v3.31h-5.21l-.22-.57c-.66-1.7-1.06-3.57-1.17-5.37l-.04-.68h6.64v3.31h0Zm0,6.85c0,1.38-.02,2.74-.04,3.02l-.04,.5-.98-1c-.53-.55-1.08-1.14-1.22-1.32-.13-.18-.4-.53-.59-.76-.51-.63-.95-1.31-1.4-2.18l-.41-.77h4.69v2.5h0Zm-5.33-1.38c.59,1.12,1.12,1.91,2.01,3.01,.84,1.04,1.24,1.48,1.77,1.95q.53,.47-.38,.32c-.74-.12-1.89-.42-2.58-.67-2.32-.84-4.41-2.24-5.97-3.97-.46-.52-1.29-1.59-1.29-1.66,0-.02,1.33-.04,2.95-.03l2.95,.02,.55,1.03h0Z"/>
        <path class="cls-1"
              d="M19.18,18.09c-.42,.13-.79,.44-1.01,.86-.11,.2-.12,.44-.13,3.76-.02,3.91-.02,3.88,.35,4.33,.1,.12,.34,.3,.53,.39l.35,.17,2.02,.02,2.02,.02v1.02h-1.37c-.87,0-1.42,.02-1.51,.07-.3,.14-.37,.55-.14,.83l.15,.17,4.25,.02c2.33,.01,4.36,0,4.5-.02,.36-.05,.5-.21,.5-.54,0-.22-.03-.29-.16-.39-.15-.12-.24-.13-1.58-.13h-1.42v-1.02l2.05-.02c1.99-.02,2.05-.02,2.33-.16,.16-.08,.38-.25,.5-.39,.44-.49,.43-.29,.43-4.24v-3.55l-.17-.35c-.1-.19-.27-.43-.4-.53-.46-.38-.28-.36-6.39-.36-3.06,0-5.63,.02-5.72,.05h0Zm11.48,1.2c.12,.16,.13,.23,.13,2.64v2.49h-11.67v-2.52c0-2.44,0-2.53,.12-2.64,.12-.12,.2-.12,5.71-.12h5.59l.12,.16h0Zm.13,6.53c0,.36-.09,.57-.29,.66-.1,.05-1.73,.07-5.6,.07-5.43,0-5.46,0-5.62-.13-.14-.11-.16-.16-.16-.52v-.39h11.67v.3h0Zm-5.35,2.34v.52h-1.03v-1.03h1.03v.52Z"/>
    </g>
</svg>