<?xml version="1.0" encoding="UTF-8"?>
<svg id="Camada_2" xmlns="http://www.w3.org/2000/svg" viewBox="0 0 27.73 38.44">
    <defs>
        <style>.cls-1{fill:#707070;fill-rule:evenodd;}</style>
    </defs>
    <g id="Camada_1-2">
        <path class="cls-1"
              d="M25.75,20.66c1.1,0,1.99-.89,1.99-1.99s-.89-1.99-1.99-1.99c-.08,0-.2,.01-.32,.05v-.23c.12,.04,.23,.05,.32,.05,1.1,0,1.99-.89,1.99-1.99s-.89-1.99-1.99-1.99c-.08,0-.2,.01-.32,.05V1.68c0-.93-.75-1.68-1.68-1.68H11.94c-.93,0-1.68,.75-1.68,1.68v15.21l-3.09,2.05-.03,.02-.03,.03c-2.13,2.22-2.82,4.39-3.23,5.69-.05,.16-.1,.31-.15,.45-.33,.97-2.73,3.95-3.63,5.02l-.11,.13,.04,.16c.03,.13,.8,3.25,2.03,5.43,1.28,2.28,2.71,2.54,2.77,2.55l.15,.02,2.89-2.43c.79-.14,5.93-1.15,7.77-4.44h8.1c.93,0,1.68-.75,1.68-1.68v-1.07c.12,.04,.23,.05,.32,.05,1.1,0,1.99-.89,1.99-1.99s-.89-1.99-1.99-1.99c-.08,0-.2,0-.32,.05v-.23c.12,.04,.23,.05,.32,.05,1.1,0,1.99-.89,1.99-1.99s-.89-1.99-1.99-1.99c-.08,0-.2,0-.32,.05v-.23c.12,.04,.23,.05,.32,.05h0ZM17.85,1.27c.17,0,.31,.14,.31,.31s-.14,.31-.31,.31-.31-.14-.31-.31c0-.17,.14-.31,.31-.31Zm-2.1,1.37s.02-.03,.04-.03h4.11s.04,.01,.04,.03v.36s-.02,.03-.04,.03h-4.11s-.04-.01-.04-.03v-.36ZM7.69,35.37h-.09l-2.78,2.35c-.34-.12-1.28-.59-2.17-2.18-1.03-1.83-1.75-4.43-1.92-5.1,.59-.7,3.25-3.94,3.64-5.11,.05-.14,.1-.29,.15-.46,.42-1.31,1.05-3.3,3.05-5.4l7.55-5.01,.04-.03,.03-.04c.1-.13,.22-.26,.34-.38,.43-.45,1.5-1.43,2.15-.81,.73,.7,.29,2.47-.95,3.81l-1.82,1.56-3.71,3.45,.05,.19c.26,1.04,.17,3.04,.02,4.06-.29,2.01-.69,3.67-3.03,5.31-.15,.11-.19,.31-.08,.46,.11,.15,.31,.19,.46,.08,.76-.53,1.33-1.06,1.77-1.61,.25,.62,.85,1.05,1.56,1.05h2.93c-1.97,2.94-7.12,3.79-7.18,3.8h0Zm10.16-5.14c-.69,0-1.26-.56-1.26-1.26s.56-1.26,1.26-1.26,1.26,.56,1.26,1.26c0,.69-.56,1.26-1.26,1.26Zm6.4-3.57s-.04,.08-.08,.08H11.87c.02-.12,.04-.25,.06-.38,.15-1.04,.24-2.95,0-4.12l3.41-3.17,1.82-1.57,.03-.03c1.34-1.44,2.08-3.67,.93-4.76-.76-.73-1.89-.43-3.09,.83-.12,.13-.24,.26-.34,.38l-3.25,2.16V4.6s.04-.08,.08-.08h12.63s.08,.04,.08,.08V26.66h0Zm1.5-13.41c.73,0,1.32,.59,1.32,1.32s-.59,1.32-1.32,1.32c-.54,0-.58-1.01-.58-1.32s.04-1.32,.58-1.32Zm0,12.31c.73,0,1.32,.59,1.32,1.32s-.59,1.32-1.32,1.32c-.54,0-.58-1.01-.58-1.32s.04-1.32,.58-1.32Zm0-4.1c.73,0,1.32,.59,1.32,1.32s-.59,1.32-1.32,1.32c-.54,0-.58-1.01-.58-1.32s.04-1.32,.58-1.32Zm-.58-2.78c0-.31,.04-1.32,.58-1.32,.73,0,1.32,.59,1.32,1.32s-.59,1.32-1.32,1.32c-.54,0-.58-1.01-.58-1.32Z"/>
    </g>
</svg>