<?xml version="1.0" encoding="UTF-8" standalone="no"?>
<!DOCTYPE svg PUBLIC "-//W3C//DTD SVG 1.1//EN" "http://www.w3.org/Graphics/SVG/1.1/DTD/svg11.dtd">
<svg width="100%" height="100%" viewBox="0 0 209 28" version="1.1" xmlns="http://www.w3.org/2000/svg" xmlns:xlink="http://www.w3.org/1999/xlink" xml:space="preserve" xmlns:serif="http://www.serif.com/" style="fill-rule:evenodd;clip-rule:evenodd;stroke-linejoin:round;stroke-miterlimit:2;">
    <g id="Prancheta1" transform="matrix(4.33438,0,0,0.582869,0,0)">
        <rect x="0" y="0" width="48" height="48" style="fill:none;"/>
        <g transform="matrix(0.0147769,0,0,0.0780342,23.7597,21.715)">
            <g transform="matrix(2.94344,0,0,4.14488,-1512.68,243.305)">
                <g transform="matrix(146.333,0,0,146.333,0,0)">
                    <path d="M-0.055,-0L0.224,-0.742L0.34,-0.742L0.06,-0L-0.055,-0Z" style="fill:white;fill-rule:nonzero;stroke:white;stroke-width:0.04px;"/>
                </g>
            </g>
            <g transform="matrix(2.94344,0,0,4.14488,-1312.27,243.305)">
                <g transform="matrix(146.333,0,0,146.333,0,0)">
                    <path d="M0.309,-0.099L0.309,0.005L0.243,0.007C0.177,0.01 0.132,-0.002 0.108,-0.027C0.092,-0.043 0.084,-0.067 0.084,-0.101L0.084,-0.428L0.01,-0.428L0.01,-0.527L0.084,-0.527L0.084,-0.676L0.222,-0.676L0.222,-0.527L0.309,-0.527L0.309,-0.428L0.222,-0.428L0.222,-0.147C0.222,-0.125 0.225,-0.112 0.23,-0.106C0.236,-0.101 0.253,-0.098 0.281,-0.098C0.285,-0.098 0.29,-0.098 0.295,-0.098C0.299,-0.099 0.304,-0.099 0.309,-0.099Z" style="fill:white;fill-rule:nonzero;stroke:white;stroke-width:0.04px;"/>
                </g>
                <g transform="matrix(146.333,0,0,146.333,48.7301,0)">
                    <path d="M0.333,-0.404C0.277,-0.404 0.239,-0.386 0.22,-0.349C0.209,-0.329 0.204,-0.297 0.204,-0.254L0.204,-0L0.063,-0L0.063,-0.532L0.196,-0.532L0.196,-0.439C0.218,-0.475 0.236,-0.499 0.252,-0.512C0.278,-0.534 0.312,-0.545 0.354,-0.545C0.357,-0.545 0.366,-0.544 0.373,-0.544L0.373,-0.401C0.364,-0.402 0.356,-0.403 0.349,-0.403C0.342,-0.404 0.337,-0.404 0.333,-0.404Z" style="fill:white;fill-rule:nonzero;stroke:white;stroke-width:0.04px;"/>
                </g>
                <g transform="matrix(146.333,0,0,146.333,105.677,0)">
                    <path d="M0.406,-0.075C0.405,-0.074 0.402,-0.069 0.396,-0.061C0.391,-0.052 0.385,-0.045 0.378,-0.039C0.356,-0.02 0.335,-0.006 0.315,0.001C0.294,0.008 0.271,0.012 0.243,0.012C0.164,0.012 0.111,-0.017 0.084,-0.073C0.069,-0.104 0.061,-0.151 0.061,-0.211L0.061,-0.532L0.204,-0.532L0.204,-0.211C0.204,-0.181 0.207,-0.158 0.214,-0.143C0.227,-0.116 0.252,-0.103 0.289,-0.103C0.337,-0.103 0.369,-0.122 0.387,-0.16C0.396,-0.181 0.4,-0.208 0.4,-0.243L0.4,-0.532L0.542,-0.532L0.542,-0L0.406,-0L0.406,-0.075Z" style="fill:white;fill-rule:nonzero;stroke:white;stroke-width:0.04px;"/>
                </g>
                <g transform="matrix(146.333,0,0,146.333,195.063,0)">
                    <path d="M0.432,-0.508C0.473,-0.481 0.497,-0.435 0.503,-0.37L0.364,-0.37C0.362,-0.388 0.357,-0.402 0.349,-0.413C0.334,-0.431 0.308,-0.441 0.271,-0.441C0.241,-0.441 0.219,-0.436 0.206,-0.427C0.193,-0.417 0.187,-0.406 0.187,-0.394C0.187,-0.378 0.194,-0.366 0.208,-0.359C0.221,-0.351 0.27,-0.339 0.353,-0.32C0.408,-0.307 0.449,-0.288 0.477,-0.261C0.504,-0.235 0.518,-0.201 0.518,-0.161C0.518,-0.108 0.498,-0.065 0.459,-0.032C0.42,0.001 0.359,0.018 0.277,0.018C0.194,0.018 0.132,0 0.092,-0.035C0.052,-0.07 0.032,-0.115 0.032,-0.17L0.173,-0.17C0.176,-0.145 0.183,-0.128 0.192,-0.117C0.21,-0.099 0.242,-0.089 0.288,-0.089C0.315,-0.089 0.337,-0.093 0.353,-0.102C0.369,-0.11 0.377,-0.122 0.377,-0.138C0.377,-0.154 0.371,-0.166 0.358,-0.174C0.345,-0.182 0.297,-0.196 0.213,-0.216C0.153,-0.231 0.11,-0.25 0.085,-0.272C0.061,-0.294 0.048,-0.326 0.048,-0.368C0.048,-0.417 0.068,-0.459 0.106,-0.494C0.145,-0.53 0.199,-0.547 0.269,-0.547C0.335,-0.547 0.39,-0.534 0.432,-0.508Z" style="fill:white;fill-rule:nonzero;stroke:white;stroke-width:0.04px;"/>
                </g>
                <g transform="matrix(146.333,0,0,146.333,276.447,0)">
                    <path d="M0.309,-0.099L0.309,0.005L0.243,0.007C0.177,0.01 0.132,-0.002 0.108,-0.027C0.092,-0.043 0.084,-0.067 0.084,-0.101L0.084,-0.428L0.01,-0.428L0.01,-0.527L0.084,-0.527L0.084,-0.676L0.222,-0.676L0.222,-0.527L0.309,-0.527L0.309,-0.428L0.222,-0.428L0.222,-0.147C0.222,-0.125 0.225,-0.112 0.23,-0.106C0.236,-0.101 0.253,-0.098 0.281,-0.098C0.285,-0.098 0.29,-0.098 0.295,-0.098C0.299,-0.099 0.304,-0.099 0.309,-0.099Z" style="fill:white;fill-rule:nonzero;stroke:white;stroke-width:0.04px;"/>
                </g>
                <g transform="matrix(146.333,0,0,146.333,325.177,0)">
                    <path d="M0.085,-0.475C0.122,-0.521 0.185,-0.545 0.274,-0.545C0.333,-0.545 0.384,-0.533 0.43,-0.51C0.475,-0.487 0.498,-0.444 0.498,-0.379L0.498,-0.135C0.498,-0.118 0.498,-0.098 0.499,-0.074C0.5,-0.056 0.502,-0.043 0.507,-0.037C0.511,-0.03 0.518,-0.025 0.527,-0.021L0.527,-0L0.376,-0C0.372,-0.011 0.369,-0.021 0.367,-0.03C0.366,-0.04 0.364,-0.05 0.363,-0.063C0.344,-0.042 0.322,-0.024 0.297,-0.009C0.267,0.008 0.233,0.017 0.195,0.017C0.147,0.017 0.107,0.003 0.076,-0.025C0.045,-0.052 0.029,-0.091 0.029,-0.142C0.029,-0.207 0.054,-0.254 0.104,-0.284C0.132,-0.3 0.173,-0.311 0.227,-0.318L0.274,-0.324C0.3,-0.327 0.318,-0.331 0.329,-0.336C0.349,-0.344 0.359,-0.358 0.359,-0.375C0.359,-0.397 0.351,-0.412 0.336,-0.421C0.321,-0.429 0.299,-0.433 0.27,-0.433C0.237,-0.433 0.213,-0.425 0.2,-0.409C0.19,-0.397 0.183,-0.38 0.18,-0.36L0.046,-0.36C0.049,-0.406 0.062,-0.445 0.085,-0.475ZM0.188,-0.101C0.201,-0.09 0.217,-0.084 0.236,-0.084C0.266,-0.084 0.294,-0.093 0.319,-0.111C0.344,-0.128 0.357,-0.16 0.358,-0.207L0.358,-0.259C0.35,-0.253 0.341,-0.249 0.332,-0.245C0.323,-0.242 0.311,-0.239 0.295,-0.236L0.264,-0.23C0.234,-0.225 0.213,-0.218 0.201,-0.211C0.179,-0.198 0.168,-0.179 0.168,-0.152C0.168,-0.128 0.175,-0.111 0.188,-0.101Z" style="fill:white;fill-rule:nonzero;stroke:white;stroke-width:0.04px;"/>
                </g>
                <g transform="matrix(146.333,0,0,146.333,406.56,0)">
                    <rect x="0.068" y="-0.72" width="0.139" height="0.72" style="fill:white;fill-rule:nonzero;stroke:white;stroke-width:0.04px;"/>
                </g>
                <g transform="matrix(146.333,0,0,146.333,447.216,0)">
                    <rect x="0.068" y="-0.72" width="0.139" height="0.72" style="fill:white;fill-rule:nonzero;stroke:white;stroke-width:0.04px;"/>
                </g>
                <g transform="matrix(146.333,0,0,146.333,487.872,0)">
                    <path d="M0.085,-0.475C0.122,-0.521 0.185,-0.545 0.274,-0.545C0.333,-0.545 0.384,-0.533 0.43,-0.51C0.475,-0.487 0.498,-0.444 0.498,-0.379L0.498,-0.135C0.498,-0.118 0.498,-0.098 0.499,-0.074C0.5,-0.056 0.502,-0.043 0.507,-0.037C0.511,-0.03 0.518,-0.025 0.527,-0.021L0.527,-0L0.376,-0C0.372,-0.011 0.369,-0.021 0.367,-0.03C0.366,-0.04 0.364,-0.05 0.363,-0.063C0.344,-0.042 0.322,-0.024 0.297,-0.009C0.267,0.008 0.233,0.017 0.195,0.017C0.147,0.017 0.107,0.003 0.076,-0.025C0.045,-0.052 0.029,-0.091 0.029,-0.142C0.029,-0.207 0.054,-0.254 0.104,-0.284C0.132,-0.3 0.173,-0.311 0.227,-0.318L0.274,-0.324C0.3,-0.327 0.318,-0.331 0.329,-0.336C0.349,-0.344 0.359,-0.358 0.359,-0.375C0.359,-0.397 0.351,-0.412 0.336,-0.421C0.321,-0.429 0.299,-0.433 0.27,-0.433C0.237,-0.433 0.213,-0.425 0.2,-0.409C0.19,-0.397 0.183,-0.38 0.18,-0.36L0.046,-0.36C0.049,-0.406 0.062,-0.445 0.085,-0.475ZM0.188,-0.101C0.201,-0.09 0.217,-0.084 0.236,-0.084C0.266,-0.084 0.294,-0.093 0.319,-0.111C0.344,-0.128 0.357,-0.16 0.358,-0.207L0.358,-0.259C0.35,-0.253 0.341,-0.249 0.332,-0.245C0.323,-0.242 0.311,-0.239 0.295,-0.236L0.264,-0.23C0.234,-0.225 0.213,-0.218 0.201,-0.211C0.179,-0.198 0.168,-0.179 0.168,-0.152C0.168,-0.128 0.175,-0.111 0.188,-0.101Z" style="fill:white;fill-rule:nonzero;stroke:white;stroke-width:0.04px;"/>
                </g>
                <g transform="matrix(146.333,0,0,146.333,569.256,0)">
                    <path d="M0.333,-0.404C0.277,-0.404 0.239,-0.386 0.22,-0.349C0.209,-0.329 0.204,-0.297 0.204,-0.254L0.204,-0L0.063,-0L0.063,-0.532L0.196,-0.532L0.196,-0.439C0.218,-0.475 0.236,-0.499 0.252,-0.512C0.278,-0.534 0.312,-0.545 0.354,-0.545C0.357,-0.545 0.366,-0.544 0.373,-0.544L0.373,-0.401C0.364,-0.402 0.356,-0.403 0.349,-0.403C0.342,-0.404 0.337,-0.404 0.333,-0.404Z" style="fill:white;fill-rule:nonzero;stroke:white;stroke-width:0.04px;"/>
                </g>
                <g transform="matrix(146.333,0,0,146.333,626.203,0)">
                    <path d="M0.509,-0.465C0.554,-0.409 0.576,-0.342 0.576,-0.265C0.576,-0.187 0.554,-0.12 0.509,-0.065C0.464,-0.009 0.396,0.019 0.304,0.019C0.213,0.019 0.145,-0.009 0.1,-0.065C0.055,-0.12 0.032,-0.187 0.032,-0.265C0.032,-0.342 0.055,-0.409 0.1,-0.465C0.145,-0.521 0.213,-0.549 0.304,-0.549C0.396,-0.549 0.464,-0.521 0.509,-0.465ZM0.304,-0.432C0.263,-0.432 0.232,-0.417 0.21,-0.388C0.188,-0.36 0.177,-0.319 0.177,-0.265C0.177,-0.212 0.188,-0.171 0.21,-0.142C0.232,-0.113 0.263,-0.098 0.304,-0.098C0.344,-0.098 0.376,-0.113 0.397,-0.142C0.419,-0.171 0.43,-0.212 0.43,-0.265C0.43,-0.319 0.419,-0.36 0.397,-0.388C0.376,-0.417 0.344,-0.432 0.304,-0.432Z" style="fill:white;fill-rule:nonzero;stroke:white;stroke-width:0.04px;"/>
                </g>
                <g transform="matrix(146.333,0,0,146.333,715.589,0)">
                    <path d="M0.406,-0.075C0.405,-0.074 0.402,-0.069 0.396,-0.061C0.391,-0.052 0.385,-0.045 0.378,-0.039C0.356,-0.02 0.335,-0.006 0.315,0.001C0.294,0.008 0.271,0.012 0.243,0.012C0.164,0.012 0.111,-0.017 0.084,-0.073C0.069,-0.104 0.061,-0.151 0.061,-0.211L0.061,-0.532L0.204,-0.532L0.204,-0.211C0.204,-0.181 0.207,-0.158 0.214,-0.143C0.227,-0.116 0.252,-0.103 0.289,-0.103C0.337,-0.103 0.369,-0.122 0.387,-0.16C0.396,-0.181 0.4,-0.208 0.4,-0.243L0.4,-0.532L0.542,-0.532L0.542,-0L0.406,-0L0.406,-0.075Z" style="fill:white;fill-rule:nonzero;stroke:white;stroke-width:0.04px;"/>
                </g>
                <g transform="matrix(146.333,0,0,146.333,804.975,0)">
                    <path d="M0.315,-0.429C0.268,-0.429 0.236,-0.409 0.218,-0.369C0.209,-0.348 0.205,-0.321 0.205,-0.288L0.205,-0L0.066,-0L0.066,-0.531L0.2,-0.531L0.2,-0.454C0.218,-0.481 0.235,-0.501 0.251,-0.513C0.28,-0.534 0.316,-0.545 0.36,-0.545C0.415,-0.545 0.46,-0.531 0.495,-0.502C0.53,-0.473 0.547,-0.425 0.547,-0.358L0.547,-0L0.405,-0L0.405,-0.324C0.405,-0.352 0.401,-0.373 0.394,-0.388C0.38,-0.416 0.354,-0.429 0.315,-0.429Z" style="fill:white;fill-rule:nonzero;stroke:white;stroke-width:0.04px;"/>
                </g>
                <g transform="matrix(146.333,0,0,146.333,894.361,0)">
                    <path d="M0.549,-0.719L0.549,-0L0.414,-0L0.414,-0.074C0.394,-0.042 0.372,-0.019 0.346,-0.005C0.321,0.009 0.289,0.017 0.251,0.017C0.189,0.017 0.137,-0.009 0.094,-0.059C0.052,-0.109 0.031,-0.174 0.031,-0.252C0.031,-0.343 0.052,-0.415 0.094,-0.467C0.135,-0.519 0.191,-0.545 0.261,-0.545C0.293,-0.545 0.322,-0.538 0.347,-0.524C0.372,-0.51 0.393,-0.49 0.408,-0.465L0.408,-0.719L0.549,-0.719ZM0.174,-0.263C0.174,-0.214 0.184,-0.174 0.204,-0.145C0.223,-0.115 0.252,-0.101 0.292,-0.101C0.331,-0.101 0.361,-0.115 0.381,-0.145C0.402,-0.174 0.412,-0.212 0.412,-0.258C0.412,-0.323 0.396,-0.37 0.363,-0.398C0.343,-0.415 0.319,-0.423 0.292,-0.423C0.252,-0.423 0.222,-0.408 0.203,-0.377C0.184,-0.346 0.174,-0.308 0.174,-0.263Z" style="fill:white;fill-rule:nonzero;stroke:white;stroke-width:0.04px;"/>
                </g>
            </g>
        </g>
    </g>
</svg>
