<?xml version="1.0" encoding="UTF-8"?>
<!DOCTYPE svg PUBLIC "-//W3C//DTD SVG 1.1//EN" "http://www.w3.org/Graphics/SVG/1.1/DTD/svg11.dtd">
<!-- Creator: CorelDRAW Standard 2021 (64 Bit) -->
<svg xmlns="http://www.w3.org/2000/svg" xml:space="preserve" width="161.254mm" height="152.681mm" version="1.1" style="shape-rendering:geometricPrecision; text-rendering:geometricPrecision; image-rendering:optimizeQuality; fill-rule:evenodd; clip-rule:evenodd"
viewBox="0 0 223.61 211.72"
 xmlns:xlink="http://www.w3.org/1999/xlink"
 xmlns:xodm="http://www.corel.com/coreldraw/odm/2003">
 <defs>
  <style type="text/css">
   <![CDATA[
    .fil0 {fill:#094561;fill-rule:nonzero}
   ]]>
  </style>
 </defs>
 <g id="Camada_x0020_1">
  <metadata id="CorelCorpID_0Corel-Layer"/>
  <path class="fil0" d="M213.16 56.9l-32.06 0 0 -32.05 32.06 0 0 32.05zm0 63.92l-32.06 0 0 -32.06 32.06 0 0 32.06zm0 63.92l-32.06 0 0 -32.06 32.06 0 0 32.06zm-159.96 14.41l0 -89.3 117.19 0 0 89.3 -117.19 0zm-10.81 -142.25l-32.05 0 0 -32.05 32.05 0 0 32.05zm0 63.92l-32.05 0 0 -32.06 32.05 0 0 32.06zm0 63.92l-32.05 0 0 -32.06 32.05 0 0 32.06zm128 -172.18l0 89.3 -117.19 0 0 -89.3 117.19 0zm35.47 -12.56l-188.13 0c-9.79,0 -17.73,7.94 -17.73,17.74l0 176.25c0,9.79 7.94,17.73 17.73,17.73l188.13 0c9.8,0 17.74,-7.94 17.74,-17.73l0 -176.25c0,-9.79 -7.94,-17.74 -17.74,-17.74z"/>
 </g>
</svg>
