<?xml version="1.0" encoding="UTF-8"?>
<!DOCTYPE svg PUBLIC "-//W3C//DTD SVG 1.1//EN" "http://www.w3.org/Graphics/SVG/1.1/DTD/svg11.dtd">
<!-- Creator: CorelDRAW Standard 2021 (64 Bit) -->
<svg xmlns="http://www.w3.org/2000/svg" xml:space="preserve" width="44.2004mm" height="44.5771mm" version="1.1" style="shape-rendering:geometricPrecision; text-rendering:geometricPrecision; image-rendering:optimizeQuality; fill-rule:evenodd; clip-rule:evenodd"
viewBox="0 0 16.66 16.8"
 xmlns:xlink="http://www.w3.org/1999/xlink"
 xmlns:xodm="http://www.corel.com/coreldraw/odm/2003">
 <defs>
  <style type="text/css">
   <![CDATA[
    .fil0 {fill:white}
   ]]>
  </style>
 </defs>
 <g id="Camada_x0020_1">
  <metadata id="CorelCorpID_0Corel-Layer"/>
  <g id="_1524774086368">
   <path class="fil0" d="M9.75 14.93c-1.76,0.31 -3.41,0 -4.92,-0.94 -0.09,-0.06 -0.17,-0.06 -0.27,-0.03 -0.82,0.26 -1.63,0.53 -2.49,0.8 0.28,-0.81 0.54,-1.6 0.81,-2.38 0.04,-0.12 0.02,-0.21 -0.05,-0.31 -2.19,-3.14 -1.32,-7.53 1.88,-9.61 4.17,-2.7 9.66,-0.32 10.54,4.57 0.66,3.64 -1.86,7.25 -5.5,7.9zm6.82 -7.95c-0.67,-4.6 -5.13,-7.75 -9.69,-6.82 -5.49,1.12 -8.27,7.24 -5.49,12.1 0.06,0.11 0.06,0.2 0.02,0.32 -0.33,0.96 -0.65,1.91 -0.97,2.87 -0.15,0.44 -0.29,0.88 -0.45,1.35 0.08,-0.02 0.11,-0.03 0.15,-0.05 1.41,-0.45 2.82,-0.9 4.23,-1.36 0.11,-0.04 0.2,-0.02 0.3,0.03 1.6,0.84 3.3,1.12 5.07,0.84 4.45,-0.7 7.47,-4.82 6.82,-9.29z"/>
   <path class="fil0" d="M12.6 10.46c0.07,-0.11 0.03,-0.22 0.02,-0.33l0 0c-0.08,-0.18 -0.25,-0.21 -0.4,-0.27l0 0c-0.17,-0.11 -0.35,-0.2 -0.54,-0.26 -0.29,-0.16 -0.58,-0.3 -0.89,-0.41 -0.07,-0.02 -0.15,-0.04 -0.23,-0 -0.22,0.18 -0.36,0.43 -0.53,0.64 -0.01,0.01 -0.01,0.02 -0.01,0.03 -0.13,0.07 -0.2,0.21 -0.31,0.31 -0.01,0 -0.02,0 -0.03,0.01 -0.08,0.01 -0.15,0.02 -0.23,0.04 -0.04,-0.02 -0.06,-0.06 -0.12,-0.05 -0.07,-0.09 -0.21,-0.08 -0.29,-0.15 -0.23,-0.12 -0.47,-0.25 -0.7,-0.38 -0.24,-0.2 -0.49,-0.41 -0.73,-0.61 -0.13,-0.14 -0.26,-0.28 -0.39,-0.42 -0.23,-0.3 -0.45,-0.6 -0.63,-0.93 -0,-0.05 -0,-0.09 -0,-0.14 0.06,-0.08 0.12,-0.16 0.18,-0.24 0.18,-0.2 0.37,-0.39 0.46,-0.65 0.06,-0.09 0.05,-0.18 0,-0.26 -0.07,-0.17 -0.15,-0.34 -0.22,-0.51 -0.07,-0.22 -0.16,-0.44 -0.27,-0.65 -0.03,-0.07 -0.05,-0.14 -0.08,-0.21 -0.21,-0.51 -0.21,-0.51 -0.76,-0.51 -0.2,0 -0.39,0.01 -0.54,0.14 -0.18,0.16 -0.35,0.33 -0.46,0.55 -0.17,0.24 -0.28,0.51 -0.3,0.8 -0.04,0.06 -0.04,0.13 -0.03,0.2 -0.02,0.14 -0.02,0.28 0,0.42 -0.01,0.09 0.03,0.18 0.04,0.27 0.03,0.17 0.08,0.34 0.15,0.5 0.06,0.17 0.14,0.34 0.23,0.5 0.18,0.34 0.41,0.65 0.64,0.96 0.12,0.19 0.25,0.38 0.43,0.53 0.05,0.12 0.13,0.2 0.22,0.27 0.12,0.15 0.26,0.3 0.41,0.42 0.09,0.09 0.19,0.18 0.28,0.27 0.05,0.04 0.09,0.08 0.14,0.11 0.08,0.09 0.18,0.17 0.28,0.23 0.06,0.08 0.14,0.12 0.22,0.15 0.12,0.07 0.23,0.15 0.35,0.23 0.19,0.15 0.41,0.24 0.62,0.33 0.58,0.26 1.16,0.5 1.79,0.61 0.77,0.14 1.42,-0.15 1.96,-0.71 0.05,-0.08 0.1,-0.16 0.15,-0.23 0.09,-0.18 0.13,-0.37 0.12,-0.57 0.01,-0.01 0.01,-0.01 0.01,-0.01z"/>
  </g>
 </g>
</svg>
