<?xml version="1.0" encoding="UTF-8" standalone="no"?>
<!DOCTYPE svg PUBLIC "-//W3C//DTD SVG 1.1//EN" "http://www.w3.org/Graphics/SVG/1.1/DTD/svg11.dtd">
<svg width="100%" height="100%" viewBox="0 0 17 12" version="1.1" xmlns="http://www.w3.org/2000/svg" xmlns:xlink="http://www.w3.org/1999/xlink" xml:space="preserve" xmlns:serif="http://www.serif.com/" style="fill-rule:evenodd;clip-rule:evenodd;stroke-linejoin:round;stroke-miterlimit:2;">
    <g transform="matrix(1,0,0,1,0.179149,0.20105)">
        <g transform="matrix(0.339738,0,0,0.241262,0,0)">
            <g transform="matrix(0.254816,0,0,0.358825,-93.1745,-2.8206)">
                <path d="M442.303,101.216L442.303,47.246C457.821,56.182 473.166,65.039 489.077,74.222C473.228,83.389 457.934,92.201 442.303,101.216ZM548.326,40.108C547.916,36.361 547.242,32.537 545.962,29.021C541.991,18.057 533.032,14.496 522.277,13.401C510.336,12.182 498.367,11.643 486.393,11.435C464.23,11.042 442.033,11.767 419.865,11.351C412.142,11.205 404.448,11.705 396.764,12.53C381.313,14.165 373.602,21.697 371.316,37.047C369.698,47.971 369.945,59.181 369.619,70.184C369.266,81.749 369.052,93.392 370.507,104.894C371.13,109.837 371.619,114.824 373.265,119.52C376.854,129.736 384.75,134.291 395.074,135.634C415.697,138.324 437.304,137.453 458.069,137.639C479.979,137.802 501.928,137.285 523.703,134.802C538.34,133.129 545.675,126.344 547.753,111.82C551.185,87.949 550.966,64.034 548.326,40.102L548.326,40.108Z" style="fill:white;stroke:white;stroke-width:11.55px;"/>
            </g>
        </g>
    </g>
</svg>
