<?xml version="1.0" encoding="UTF-8"?>
<!DOCTYPE svg PUBLIC "-//W3C//DTD SVG 1.1//EN" "http://www.w3.org/Graphics/SVG/1.1/DTD/svg11.dtd">
<!-- Creator: CorelDRAW Standard 2021 (64 Bit) -->
<svg xmlns="http://www.w3.org/2000/svg" xml:space="preserve" width="63.8409mm" height="44.5772mm" version="1.1" style="shape-rendering:geometricPrecision; text-rendering:geometricPrecision; image-rendering:optimizeQuality; fill-rule:evenodd; clip-rule:evenodd"
viewBox="0 0 35.26 24.62"
 xmlns:xlink="http://www.w3.org/1999/xlink"
 xmlns:xodm="http://www.corel.com/coreldraw/odm/2003">
 <defs>
  <style type="text/css">
   <![CDATA[
    .fil0 {fill:white}
   ]]>
  </style>
 </defs>
 <g id="Camada_x0020_1">
  <metadata id="CorelCorpID_0Corel-Layer"/>
  <path class="fil0" d="M14.22 17.52l0 -10.52c3.02,1.74 6.01,3.47 9.12,5.26 -3.09,1.79 -6.07,3.5 -9.12,5.26zm20.66 -11.91c-0.08,-0.73 -0.21,-1.48 -0.46,-2.16 -0.77,-2.14 -2.52,-2.83 -4.62,-3.04 -2.33,-0.24 -4.66,-0.34 -6.99,-0.38 -4.32,-0.08 -8.64,0.06 -12.96,-0.02 -1.51,-0.03 -3,0.07 -4.5,0.23 -3.01,0.32 -4.51,1.79 -4.96,4.78 -0.32,2.13 -0.27,4.31 -0.33,6.46 -0.07,2.25 -0.11,4.52 0.17,6.76 0.12,0.96 0.22,1.94 0.54,2.85 0.7,1.99 2.24,2.88 4.25,3.14 4.02,0.52 8.23,0.35 12.28,0.39 4.27,0.03 8.55,-0.07 12.79,-0.55 2.85,-0.33 4.28,-1.65 4.69,-4.48 0.67,-4.65 0.63,-9.31 0.11,-13.98z"/>
 </g>
</svg>
