<?xml version="1.0" encoding="UTF-8"?>
<!DOCTYPE svg PUBLIC "-//W3C//DTD SVG 1.1//EN" "http://www.w3.org/Graphics/SVG/1.1/DTD/svg11.dtd">
<!-- Creator: CorelDRAW Standard 2021 (64 Bit) -->
<svg xmlns="http://www.w3.org/2000/svg" xml:space="preserve" width="364.643mm" height="383.45mm" version="1.1" style="shape-rendering:geometricPrecision; text-rendering:geometricPrecision; image-rendering:optimizeQuality; fill-rule:evenodd; clip-rule:evenodd"
viewBox="0 0 1437.1 1511.22"
 xmlns:xlink="http://www.w3.org/1999/xlink"
 xmlns:xodm="http://www.corel.com/coreldraw/odm/2003">
 <defs>
  <style type="text/css">
   <![CDATA[
    .str0 {stroke:#E6E6E6;stroke-width:1.04;stroke-miterlimit:22.9256}
    .str1 {stroke:#094561;stroke-width:1.04;stroke-miterlimit:22.9256;stroke-dasharray:10.424259 5.212129}
    .fil13 {fill:none}
    .fil2 {fill:none;fill-rule:nonzero}
    .fil8 {fill:#FEFEFE}
    .fil15 {fill:#012E42}
    .fil14 {fill:#053B53}
    .fil9 {fill:#094561}
    .fil17 {fill:#4D5770}
    .fil18 {fill:gray}
    .fil10 {fill:#CCCCCC}
    .fil4 {fill:#D98218}
    .fil11 {fill:#E6E6E6}
    .fil3 {fill:#F59B2C}
    .fil16 {fill:#FAFAFA}
    .fil6 {fill:white}
    .fil12 {fill:#094561;fill-rule:nonzero}
    .fil7 {fill:#D98218;fill-rule:nonzero}
    .fil1 {fill:#E6E6E6;fill-rule:nonzero}
    .fil5 {fill:#F59B2C;fill-rule:nonzero}
    .fil0 {fill:white;fill-rule:nonzero}
   ]]>
  </style>
    <clipPath id="id0" style="clip-rule:nonzero">
     <path d="M766.05 0.52c370.32,0 670.53,300.21 670.53,670.53 0,370.32 -300.21,670.53 -670.53,670.53 -370.33,0 -670.54,-300.21 -670.54,-670.53 0,-370.32 300.22,-670.53 670.54,-670.53l0 0z"/>
    </clipPath>
 </defs>
 <g id="Camada_x0020_1">
  <metadata id="CorelCorpID_0Corel-Layer"/>
  <g id="_1780607139056">
   <path class="fil0" d="M766.05 0.52c370.32,0 670.53,300.21 670.53,670.53 0,370.32 -300.21,670.53 -670.53,670.53 -370.33,0 -670.54,-300.21 -670.54,-670.53 0,-370.32 300.22,-670.53 670.54,-670.53l0 0z"/>
   <g style="clip-path:url(#id0)">
    <g>
     <path id="_1" class="fil1" d="M1268.26 203.5c102.92,94.8 272.62,360.11 153.72,607.37 -23.55,13.7 -50.35,-12 -55.21,-28.65 -6.79,-23.29 -44.76,-323.45 -87.45,-363.23 -42.7,-39.78 -52.4,-9.7 -96.06,3.88 -43.66,13.59 -10.67,-19.41 7.77,-27.17 18.44,-7.77 56.28,-45.6 14.55,-40.75 -41.73,4.85 -86.36,21.35 -51.43,-29.11 1.08,-1.56 87.98,-46.53 93.28,-46.53 62.68,0 -71.73,-43.9 20.83,-75.81z"/>
    </g>
   </g>
   <path class="fil2 str0" d="M766.05 0.52c370.32,0 670.53,300.21 670.53,670.53 0,370.32 -300.21,670.53 -670.53,670.53 -370.33,0 -670.54,-300.21 -670.54,-670.53 0,-370.32 300.22,-670.53 670.54,-670.53l0 0z"/>
   <path class="fil1" d="M1086.67 103.18c16.03,2.67 27.41,1.83 35.49,-0.33 17.98,11.29 35.38,23.41 52.15,36.31 -6.26,-0.83 -12.91,-1.94 -19.34,-2.75 -22.15,-2.77 -40.61,23.99 -23.07,62.76 17.54,38.76 1.84,36.92 -18.46,59.07 -20.3,22.15 -62.76,-25.85 -108.91,-60.92 -23.71,-18.02 -39.39,-18.01 -50.28,-18 -10.3,0.02 -16.32,0.03 -20.8,-15.23 -9.22,-31.38 -43.38,-52.61 -43.38,-52.61 -4.02,-8.61 27.69,-7.22 55.13,-5.83 16.65,0.84 31.72,1.69 36.25,0.3 8,-2.46 32.41,-6.15 60.92,-6.15 14.26,-0.01 29.54,0.91 44.31,3.37l0 0z"/>
   <path class="fil1" d="M353.99 175.28c24.75,-1.34 29.46,8.22 31.78,17.78 2.48,10.23 2.22,20.46 20.83,17.34 35.99,-6.05 45.68,-36.51 47.07,-8.82 1.39,27.69 2.77,29.79 44.3,23.89 19.59,-2.78 33.02,6.53 44.34,15.83 12.71,10.43 22.78,20.86 35.95,14.27 24.91,-12.46 44.31,-42.2 23.54,-30.09 -20.77,12.1 -45.68,-0.72 -18,-15.09 27.69,-14.35 119.07,-33.73 137.06,6.42 17.99,40.15 101.07,19.38 81.68,40.15 -19.38,20.77 -113.52,2.44 -92.76,24.75 20.77,22.32 -22.15,12.3 -45.68,0 -23.54,-12.29 -4.16,23.7 31.85,33.39 16.87,4.54 28.28,-2.95 36.98,-10.42 9.86,-8.48 16.27,-16.96 23.25,-7.94 13.15,16.98 -6.23,51.59 25.62,47.44 31.85,-4.16 16.61,19.38 27.69,22.15 3.99,1 6.54,-1.23 8.17,-3.47 2.91,-3.97 2.91,-7.94 2.91,6.24 0,22.15 58.15,9.69 56.76,35.99 -1.39,26.3 -38.77,49.42 -56.76,15.71 -11.91,-22.32 -46.87,-14.88 -74.38,-7.43 -14.04,3.8 -26.14,7.6 -32.22,7.43 -5.33,-0.14 -9.81,2.06 -13.44,4.26 -8.63,5.25 -12.46,10.48 -11.49,-15.83 1.39,-37.38 -45.68,2.77 -34.61,23.54 11.08,20.77 -9.69,26.3 -23.54,-23.54 -13.85,-49.84 -18,44.3 -22.15,52.61 -1.64,3.27 -15.32,-2.27 -29.94,-7.82 -22.47,-8.52 -47.16,-17.05 -33.74,6.44 0,0 19.38,51.23 69.22,34.61 30.98,-10.32 32.01,-8.35 35.99,-6.37 2.43,1.2 5.95,2.4 18,0.83 31.85,-4.16 34.61,-63.69 77.53,-42.92 16.84,8.15 27.61,3.12 37.93,-1.89 15.97,-7.77 30.87,-15.54 65.57,25.58 57.11,67.68 169.26,156.29 98.65,211.67 -70.61,55.37 -221.51,-8.31 -209.06,84.45 12.46,92.76 -103.83,413.95 -145.36,293.5 -41.56,-120.43 -88.63,-107.96 -85.86,-148.12 2.77,-40.15 34.38,-71.99 -0.12,-92.76 -34.5,-20.77 -138.33,-152.3 -81.57,-149.52 56.76,2.77 80.3,-31.85 101.07,-62.31 20.77,-30.46 52.62,-105.22 6.92,-62.31 -45.68,42.92 -74.76,113.52 -110.76,91.38 -35.99,-22.15 -62.37,-51.23 -13.88,-69.22 48.49,-17.99 73.4,-81.68 20.8,-51.22 -52.61,30.46 -109.37,58.76 -139.83,61.91 -30.46,3.15 -8.31,89 -40.15,108.38 -31.84,19.38 -60.92,47.07 -42.92,-42.92 18,-89.99 -74.76,-55.37 -74.76,-16.61 0,38.76 9.69,52.61 -11.08,70.61 -7.33,6.36 -16.22,16.33 -23.97,24.63 -1.26,-16.77 -1.9,-33.71 -1.9,-50.8 0,-200.24 87.8,-379.94 226.96,-502.8 2.73,4.49 9.33,8.22 31.51,7.02l0 0z"/>
   <polygon class="fil3" points="1155.7,670.32 1335.01,670.32 1335.01,870.77 1155.7,870.77 "/>
   <polygon class="fil0" points="1236.9,771.08 1224.95,771.08 1224.95,813.59 1209.47,813.59 1209.47,771.08 1197.51,771.08 1217.2,744.56 "/>
   <polygon class="fil4" points="1063.12,670.32 1159.43,670.32 1159.43,870.79 1063.12,870.79 "/>
   <path class="fil5" d="M1108.85 770.15l20.09 -43.12c6.72,-14.34 13.53,-28.65 20.38,-42.9 -6.45,14.56 -12.96,29.07 -19.53,43.52l-19.82 43.32 -20.09 43.12c-6.72,14.34 -13.53,28.65 -20.38,42.9 6.45,-14.56 12.96,-29.06 19.53,-43.52l19.82 -43.32 0 0z"/>
   <path class="fil5" d="M1109.97 770.15l19.84 43.3c6.58,14.45 13.08,28.98 19.53,43.52 -6.87,-14.25 -13.66,-28.54 -20.38,-42.9l-20.11 -43.1 -19.82 -43.3c-6.58,-14.45 -13.08,-28.97 -19.53,-43.52 6.87,14.25 13.66,28.54 20.38,42.9l20.09 43.1 0 0z"/>
   <polygon class="fil3" points="798.99,567.99 1068.81,567.99 1068.81,869.61 798.99,869.61 "/>
   <polygon class="fil0" points="1011.26,719.64 993.26,719.64 993.26,783.59 969.96,783.59 969.96,719.64 951.98,719.64 981.62,679.71 "/>
   <polygon class="fil0" points="921.18,719.64 903.2,719.64 903.2,783.59 879.9,783.59 879.9,719.64 861.9,719.64 891.54,679.71 "/>
   <polygon class="fil6" points="856.89,795.93 1016.27,795.93 1016.27,799.23 856.89,799.23 "/>
   <polygon class="fil6" points="856.89,805.74 1016.27,805.74 1016.27,809.03 856.89,809.03 "/>
   <polygon class="fil6" points="856.89,815.54 1016.27,815.54 1016.27,818.82 856.89,818.82 "/>
   <polygon class="fil4" points="659.69,568.01 801.9,568.01 801.9,869.65 659.69,869.65 "/>
   <path class="fil5" d="M728.5 718.22l30.22 -64.89c10.13,-21.59 20.36,-43.1 30.67,-64.54 -9.69,21.89 -19.5,43.73 -29.39,65.48l-29.84 65.16 -30.22 64.89c-10.13,21.59 -20.36,43.1 -30.67,64.54 9.69,-21.89 19.5,-43.73 29.39,-65.48l29.84 -65.16 0 0z"/>
   <path class="fil5" d="M730.18 718.22l29.84 65.16c9.89,21.75 19.68,43.59 29.39,65.48 -10.33,-21.44 -20.56,-42.96 -30.67,-64.54l-30.22 -64.89 -29.84 -65.16c-9.89,-21.75 -19.69,-43.59 -29.39,-65.48 10.31,21.44 20.54,42.96 30.67,64.54l30.22 64.89 0 0z"/>
   <polygon class="fil3" points="1118.71,868.7 1388.53,868.7 1388.53,1170.32 1118.71,1170.32 "/>
   <polygon class="fil6" points="1176.6,1096.64 1336,1096.64 1336,1099.94 1176.6,1099.94 "/>
   <polygon class="fil6" points="1176.6,1106.44 1336,1106.44 1336,1109.72 1176.6,1109.72 "/>
   <polygon class="fil6" points="1176.6,1116.24 1336,1116.24 1336,1119.52 1176.6,1119.52 "/>
   <polygon class="fil4" points="979.4,868.71 1129.45,868.71 1129.45,1170.34 979.4,1170.34 "/>
   <path class="fil5" d="M1048.22 1018.92l30.22 -64.89c10.13,-21.59 20.36,-43.1 30.67,-64.54 -9.69,21.89 -19.5,43.73 -29.39,65.48l-29.84 65.16 -30.22 64.87c-10.13,21.59 -20.36,43.1 -30.67,64.54 9.71,-21.89 19.5,-43.73 29.39,-65.48l29.84 -65.14 0 0z"/>
   <path class="fil5" d="M1049.89 1018.92l29.84 65.16c9.89,21.75 19.68,43.59 29.39,65.48 -10.32,-21.44 -20.56,-42.96 -30.67,-64.54l-30.22 -64.89 -29.84 -65.16c-9.89,-21.75 -19.69,-43.59 -29.39,-65.48 10.32,21.44 20.54,42.96 30.67,64.54l30.22 64.89 0 0z"/>
   <polygon class="fil6" points="1194.17,821.81 1300.11,821.81 1300.11,823.99 1194.17,823.99 "/>
   <polygon class="fil6" points="1194.17,828.31 1300.11,828.31 1300.11,830.49 1194.17,830.49 "/>
   <polygon class="fil6" points="1194.17,834.82 1300.11,834.82 1300.11,837.02 1194.17,837.02 "/>
   <polygon class="fil3" points="740.79,868.53 1034.38,868.53 1034.38,1172.05 740.79,1172.05 "/>
   <polygon class="fil4" points="589.21,868.55 747.36,868.55 747.36,1172.09 589.21,1172.09 "/>
   <path class="fil5" d="M664.1 1019.7l32.89 -65.28c11.01,-21.73 22.15,-43.37 33.37,-64.96 -10.56,22.04 -21.21,44 -31.97,65.9l-32.47 65.57 -32.89 65.28c-11.01,21.73 -22.15,43.37 -33.37,64.96 10.56,-22.04 21.21,-44 31.98,-65.9l32.45 -65.57 0 0z"/>
   <path class="fil5" d="M665.92 1019.7l32.47 65.57c10.78,21.89 21.43,43.86 31.97,65.9 -11.23,-21.59 -22.36,-43.23 -33.37,-64.96l-32.89 -65.28 -32.47 -65.57c-10.78,-21.89 -21.43,-43.86 -31.98,-65.9 11.23,21.59 22.36,43.23 33.37,64.96l32.9 65.28 0 0z"/>
   <polygon class="fil7" points="1372.87,1253.1 1337.77,1300.4 1228.88,1300.4 1264,1253.1 "/>
   <polygon class="fil3" points="1071.7,1171.55 1425.62,1171.55 1425.62,1473.17 1071.7,1473.17 "/>
   <polygon class="fil0" points="1283.96,1321.36 1265.96,1321.36 1265.96,1385.31 1242.66,1385.31 1242.66,1321.36 1224.68,1321.36 1254.32,1281.43 "/>
   <polygon class="fil6" points="1129.59,1397.67 1288.97,1397.67 1288.97,1400.95 1129.59,1400.95 "/>
   <polygon class="fil6" points="1129.59,1407.47 1288.97,1407.47 1288.97,1410.75 1129.59,1410.75 "/>
   <polygon class="fil6" points="1129.59,1417.26 1288.97,1417.26 1288.97,1420.55 1129.59,1420.55 "/>
   <path class="fil8" d="M1144.85 101.57c80.78,0 146.29,65.5 146.29,146.29 0,80.8 -65.51,146.3 -146.29,146.3 -80.8,0 -146.3,-65.5 -146.3,-146.3 0,-80.79 65.5,-146.29 146.3,-146.29z"/>
   <path class="fil9" d="M999.63 278.64c-10.81,-51.26 6.09,-104.52 44.84,-140.1 0.44,1.58 0.75,3.16 1.19,4.69 -36.91,35.01 -52.54,86.7 -41.53,136.15 -1.46,-0.39 -2.97,-0.62 -4.51,-0.74zm81.79 103.42c-10.87,-5.16 -21,-11.59 -30.22,-19.1 1.08,-0.92 2.05,-1.95 2.94,-3.05 9.03,7.31 18.94,13.56 29.58,18.54 -0.88,1.13 -1.65,2.34 -2.31,3.61zm197.98 -71.55c-23.09,49.54 -72.68,84.21 -130.58,85.72 0.06,-1.44 -0.02,-2.85 -0.22,-4.24 55.81,-1.43 103.7,-34.58 126.4,-82.08 1.41,0.32 2.9,0.53 4.4,0.59zm-134.54 -211.06c73.45,-0 134.44,53.37 146.31,123.45 -1.53,-1.31 -3.17,-2.41 -4.92,-3.29 -13.14,-66.08 -71.44,-115.91 -141.39,-115.91 -18.85,-0 -36.86,3.62 -53.37,10.21l0 -4.57c16.55,-6.39 34.55,-9.89 53.37,-9.89z"/>
   <path class="fil10" d="M1186.32 311.63l-10.44 -18.73 -64.17 0 -10.47 18.73 85.08 0zm-89.13 -30.21l20.92 0 -2.62 4.68 56.6 0 -2.62 -4.68 20.93 0 31.67 56.75 -20.94 0 -8.12 -14.58 -98.43 0 -8.13 14.58 -20.91 0 31.66 -56.75z"/>
   <polygon class="fil9" points="1099.08,160.46 1185.21,160.46 1203.71,261.65 1203.1,277.32 1193.18,286.11 1094.31,286.11 1085.53,278.7 1083.86,263.24 "/>
   <path class="fil3" d="M1199.97 241.21l1.18 6.39 -114.96 0 0.94 -6.39 112.84 0zm-2.26 -12.36l1.18 6.39 -110.87 0 0.93 -6.39 108.76 0z"/>
   <polygon class="fil11" points="1101.29,163.01 1093.33,216.69 1192.9,216.69 1183.09,163.01 "/>
   <polygon class="fil3" points="1142.65,216.69 1143.59,216.69 1143.59,163.01 1142.65,163.01 "/>
   <path class="fil11" d="M1100.85 270.74c3.96,0 7.18,-3.22 7.18,-7.17 0,-3.96 -3.22,-7.17 -7.18,-7.17 -3.94,0 -7.16,3.22 -7.16,7.17 0,3.96 3.22,7.17 7.16,7.17z"/>
   <path class="fil11" d="M1181.59 270.74c3.95,0 7.18,-3.22 7.18,-7.17 0,-3.96 -3.23,-7.17 -7.18,-7.17 -3.95,0 -7.18,3.22 -7.18,7.17 0,3.96 3.23,7.17 7.18,7.17z"/>
   <polygon class="fil3" points="1132.95,165.89 1153.29,165.89 1153.29,157.52 1132.95,157.52 "/>
   <path class="fil9" d="M835.09 61.23c3.02,23.76 -13.49,41.47 -22.84,57.13 -10.82,18.1 -21.97,33.72 -30.06,49.9 -0.4,0 -0.79,0 -1.21,0 -7.72,-12.76 -17.13,-28.36 -27.05,-44.5 -9.42,-15.32 -20.82,-30.26 -24.67,-46.91 -16.37,-71.28 96.87,-86.58 105.83,-15.63zm-53.54 -28.9c18.25,0 33.05,14.8 33.05,33.05 0,18.25 -14.8,33.05 -33.05,33.05 -18.25,0 -33.05,-14.8 -33.05,-33.05 0,-18.25 14.8,-33.05 33.05,-33.05z"/>
   <path class="fil8" d="M781.55 25.55c22.42,0 40.61,18.18 40.61,40.61 0,22.42 -18.18,40.61 -40.61,40.61 -22.42,0 -40.61,-18.18 -40.61,-40.61 0,-22.42 18.18,-40.61 40.61,-40.61z"/>
   <path class="fil12" d="M811.6 43.66c2.52,33.28 -33.41,56.54 -62.72,40.26 29.63,22.2 88.98,-5.65 62.72,-40.26z"/>
   <path class="fil12" d="M748.88 83.92c8.13,8.72 19.82,14.51 32.69,14.51 17.39,0 35.09,-9.25 37.22,-27.84 -14.99,23.86 -47.2,29.73 -69.91,13.33z"/>
   <path class="fil12" d="M748.88 83.92c10.1,17.59 32.8,24.88 50.54,15.36 -20.84,5.8 -37.63,-1.64 -50.54,-15.36z"/>
   <path class="fil12" d="M777.86 36.42c2.19,0 4.32,0.22 6.38,0.63 -4.26,-2.93 -9.07,-5.11 -14.26,-6.33 -20.3,6.72 -30.74,29.06 -23.25,48.82 -1.08,-3.25 -1.66,-6.72 -1.66,-10.33 0,-18.11 14.68,-32.79 32.79,-32.79z"/>
   <path class="fil12" d="M809.51 41.15c-3.39,-3.75 -7.53,-6.8 -12.19,-8.93 3.01,4.94 4.93,10.4 5.73,16.02 2.25,2.7 4.08,5.76 5.38,9.1 1.41,-5.31 1.75,-10.8 1.08,-16.18zm-27.71 -12.32l0 0c-0.01,-0 -0.03,-0 -0.04,-0 -2.49,0 -4.92,0.25 -7.27,0.71 1.15,0.51 2.3,1.06 3.43,1.66 3.57,1.9 6.82,4.16 9.73,6.71 1.25,0.39 2.46,0.86 3.65,1.39 -2.51,-3.93 -5.69,-7.48 -9.49,-10.47zm2.77 0.11l0 0c3.77,3.37 6.87,7.32 9.24,11.62 2.6,1.45 4.98,3.24 7.08,5.31 -1.15,-5.27 -3.3,-10.3 -6.35,-14.8 -3.15,-1.14 -6.5,-1.88 -9.98,-2.14z"/>
   <polygon class="fil9" points="763.86,81.6 769.65,54.35 758.62,54.35 760.51,45.6 794.6,45.6 792.7,54.35 781.64,54.35 775.85,81.6 "/>
   <polygon class="fil9" points="762.11,89.89 763.36,84.28 775.35,84.28 774.1,89.89 "/>
   <path class="fil13 str1" d="M247.2 642.01c263.74,170.47 690.07,-398.62 550.98,-470.62"/>
   <path class="fil13 str1" d="M1049.53 509.81c-194.5,-130.3 -587.74,-51.65 -787.45,96.87"/>
   <path class="fil13 str1" d="M1077.91 497.98c-7.09,-102.74 -164.84,-350.26 -272.51,-337.14"/>
   <path class="fil13 str1" d="M218.31 615.39c37.42,-288.53 338.58,-570.12 511.3,-482.37"/>
   <path class="fil8" d="M563.8 91.63c87.01,0 157.55,70.54 157.55,157.55 0,87.02 -70.54,157.56 -157.55,157.56 -87.01,-0 -157.56,-70.54 -157.56,-157.56 0,-87.01 70.55,-157.55 157.56,-157.55z"/>
   <path class="fil9" d="M407.4 282.32c-11.65,-55.21 6.55,-112.56 48.29,-150.89 0.48,1.7 0.8,3.4 1.28,5.05 -39.76,37.71 -56.6,93.38 -44.71,146.63 -1.58,-0.41 -3.21,-0.67 -4.86,-0.79zm88.07 111.38c-11.69,-5.56 -22.61,-12.48 -32.54,-20.58 1.16,-1 2.22,-2.1 3.19,-3.29 9.71,7.87 20.39,14.59 31.83,19.97 -0.93,1.22 -1.77,2.52 -2.48,3.89zm213.24 -77.06c-24.87,53.35 -78.29,90.69 -140.63,92.33 0.05,-1.55 -0.04,-3.07 -0.25,-4.57 60.11,-1.53 111.71,-37.23 136.13,-88.39 1.54,0.35 3.12,0.57 4.75,0.64zm-144.91 -227.31c79.11,0 144.79,57.48 157.58,132.95 -1.63,-1.41 -3.42,-2.59 -5.3,-3.55 -14.15,-71.17 -76.94,-124.83 -152.27,-124.83 -20.3,-0 -39.7,3.9 -57.47,10.99l0 -4.92c17.84,-6.88 37.22,-10.65 57.47,-10.65z"/>
   <polygon class="fil9" points="513.28,175.57 495.75,175.57 480.44,201.55 501.73,201.55 501.73,192.13 513.28,192.13 "/>
   <polygon class="fil3" points="493.18,179.92 489.18,186.71 513.28,186.71 513.28,179.92 "/>
   <polygon class="fil9" points="540.71,254.59 543.07,254.59 543.07,215.84 540.71,215.84 "/>
   <polygon class="fil9" points="545.28,254.59 547.64,254.59 547.64,215.84 545.28,215.84 "/>
   <polygon class="fil9" points="549.85,254.59 552.21,254.59 552.21,215.84 549.85,215.84 "/>
   <polygon class="fil9" points="554.42,254.59 556.78,254.59 556.78,215.84 554.42,215.84 "/>
   <polygon class="fil9" points="559,254.59 561.36,254.59 561.36,215.84 559,215.84 "/>
   <polygon class="fil9" points="563.57,254.59 565.93,254.59 565.93,215.84 563.57,215.84 "/>
   <polygon class="fil9" points="568.14,254.59 570.5,254.59 570.5,215.84 568.14,215.84 "/>
   <polygon class="fil9" points="572.71,254.59 575.08,254.59 575.08,215.84 572.71,215.84 "/>
   <polygon class="fil9" points="577.29,254.59 579.65,254.59 579.65,215.84 577.29,215.84 "/>
   <polygon class="fil9" points="581.86,254.59 584.22,254.59 584.22,215.84 581.86,215.84 "/>
   <polygon class="fil9" points="586.43,254.59 588.79,254.59 588.79,215.84 586.43,215.84 "/>
   <polygon class="fil9" points="591.01,254.59 593.37,254.59 593.37,215.84 591.01,215.84 "/>
   <polygon class="fil9" points="595.58,254.59 597.94,254.59 597.94,215.84 595.58,215.84 "/>
   <polygon class="fil9" points="600.15,254.59 602.51,254.59 602.51,215.84 600.15,215.84 "/>
   <polygon class="fil9" points="604.72,254.59 607.08,254.59 607.08,215.84 604.72,215.84 "/>
   <polygon class="fil9" points="609.3,254.59 611.65,254.59 611.65,215.84 609.3,215.84 "/>
   <polygon class="fil9" points="613.87,254.59 616.23,254.59 616.23,215.84 613.87,215.84 "/>
   <polygon class="fil9" points="618.44,254.59 620.8,254.59 620.8,215.84 618.44,215.84 "/>
   <polygon class="fil9" points="623.01,254.59 625.37,254.59 625.37,215.84 623.01,215.84 "/>
   <polygon class="fil9" points="627.59,254.59 629.95,254.59 629.95,215.84 627.59,215.84 "/>
   <polygon class="fil9" points="632.16,254.59 634.52,254.59 634.52,215.84 632.16,215.84 "/>
   <path class="fil9" d="M601.32 250.08l105.28 0 -4.51 7.98c-19.63,6.21 -48.6,26.49 -63,47.09l-180.65 0 -29.04 -41.3 0 -6.8 166.36 0c3.05,0 5.55,-2.2 5.55,-4.89l0 -2.08z"/>
   <path class="fil14" d="M651.06 291.14c-4.56,4.54 -8.65,9.27 -11.97,14.01l-180.65 0 -9.85 -14.01 202.46 0z"/>
   <polygon class="fil3" points="455.13,257.05 501.73,257.05 501.73,201.55 455.13,201.55 "/>
   <polygon class="fil9" points="507.72,206.28 531.23,206.28 531.23,199.29 507.72,199.29 "/>
   <polygon class="fil9" points="489.37,223.59 492.52,223.59 492.52,219.7 489.37,219.7 "/>
   <polygon class="fil9" points="489.37,240.63 492.52,240.63 492.52,236.74 489.37,236.74 "/>
   <polygon class="fil9" points="498.2,223.59 501.35,223.59 501.35,219.7 498.2,219.7 "/>
   <polygon class="fil9" points="498.2,232.11 501.35,232.11 501.35,228.22 498.2,228.22 "/>
   <polygon class="fil9" points="498.2,240.63 501.35,240.63 501.35,236.74 498.2,236.74 "/>
   <polygon class="fil9" points="507.03,223.59 510.18,223.59 510.18,219.7 507.03,219.7 "/>
   <polygon class="fil9" points="507.03,232.11 510.18,232.11 510.18,228.22 507.03,228.22 "/>
   <polygon class="fil9" points="507.03,240.63 510.18,240.63 510.18,236.74 507.03,236.74 "/>
   <polygon class="fil9" points="515.86,223.59 519.01,223.59 519.01,219.7 515.86,219.7 "/>
   <polygon class="fil9" points="515.86,232.11 519.01,232.11 519.01,228.22 515.86,228.22 "/>
   <polygon class="fil9" points="515.86,240.63 519.01,240.63 519.01,236.74 515.86,236.74 "/>
   <path class="fil8" d="M661.45 259.11c1.62,0 2.54,1.47 2.05,3.28 -0.5,1.81 -2.22,3.28 -3.85,3.28 -1.63,0 -2.54,-1.47 -2.05,-3.28 0.5,-1.81 2.22,-3.28 3.85,-3.28z"/>
   <path class="fil8" d="M486.89 275.66c2.8,0 5.08,-2.01 5.08,-4.48 0,-2.46 -2.28,-4.47 -5.08,-4.47 -2.8,0 -5.08,2.01 -5.08,4.47 0,2.47 2.28,4.48 5.08,4.48z"/>
   <path class="fil8" d="M508.04 275.66c2.8,0 5.08,-2.01 5.08,-4.48 0,-2.46 -2.28,-4.47 -5.08,-4.47 -2.8,0 -5.08,2.01 -5.08,4.47 0,2.47 2.28,4.48 5.08,4.48z"/>
   <path class="fil8" d="M529.18 275.66c2.8,0 5.08,-2.01 5.08,-4.48 0,-2.46 -2.28,-4.47 -5.08,-4.47 -2.8,0 -5.08,2.01 -5.08,4.47 0,2.47 2.28,4.48 5.08,4.48z"/>
   <path class="fil8" d="M550.34 275.66c2.8,0 5.08,-2.01 5.08,-4.48 0,-2.46 -2.28,-4.47 -5.08,-4.47 -2.8,0 -5.08,2.01 -5.08,4.47 0,2.47 2.28,4.48 5.08,4.48z"/>
   <path class="fil8" d="M571.48 275.66c2.8,0 5.08,-2.01 5.08,-4.48 0,-2.46 -2.28,-4.47 -5.08,-4.47 -2.8,0 -5.08,2.01 -5.08,4.47 0,2.47 2.28,4.48 5.08,4.48z"/>
   <path class="fil8" d="M592.63 275.66c2.8,0 5.08,-2.01 5.08,-4.48 0,-2.46 -2.28,-4.47 -5.08,-4.47 -2.8,0 -5.08,2.01 -5.08,4.47 0,2.47 2.28,4.48 5.08,4.48z"/>
   <path class="fil8" d="M613.78 275.66c2.8,0 5.08,-2.01 5.08,-4.48 0,-2.46 -2.28,-4.47 -5.08,-4.47 -2.8,0 -5.08,2.01 -5.08,4.47 0,2.47 2.28,4.48 5.08,4.48z"/>
   <path class="fil8" d="M356.49 650.4c92.18,0 166.9,74.72 166.9,166.89 0,92.18 -74.72,166.9 -166.9,166.9 -92.17,0 -166.89,-74.72 -166.89,-166.9 0,-92.17 74.72,-166.89 166.89,-166.89z"/>
   <path class="fil9" d="M189.95 852.62c-12.34,-58.48 6.94,-119.24 51.16,-159.83 0.5,1.8 0.85,3.6 1.35,5.35 -42.12,39.94 -59.96,98.91 -47.36,155.32 -1.68,-0.44 -3.41,-0.72 -5.15,-0.84zm93.29 117.98c-12.38,-5.88 -23.95,-13.22 -34.47,-21.8 1.23,-1.06 2.35,-2.22 3.38,-3.48 10.28,8.34 21.59,15.47 33.72,21.15 -0.99,1.3 -1.87,2.67 -2.63,4.12zm225.88 -81.62c-26.34,56.51 -82.93,96.06 -148.96,97.79 0.05,-1.64 -0.04,-3.25 -0.27,-4.84 63.68,-1.63 118.32,-39.43 144.2,-93.63 1.63,0.38 3.31,0.6 5.04,0.67zm-153.5 -240.79c83.81,0 153.38,60.89 166.93,140.83 -1.74,-1.49 -3.63,-2.75 -5.62,-3.75 -14.99,-75.39 -81.51,-132.23 -161.31,-132.23 -21.51,-0 -42.05,4.13 -60.88,11.64l0 -5.21c18.89,-7.27 39.42,-11.28 60.88,-11.28z"/>
   <path class="fil9" d="M283.7 829.76l105.7 -25.32c17.88,-4.29 40.42,-8.4 56.58,-5.65 12.92,2.21 26.13,10.69 39.8,14.06 15.25,2.8 16.18,11.73 7.85,20.68 -15.2,16.33 -46.72,22.1 -71.41,26.89 -24.85,4.82 -49.5,10.8 -74.55,14.47 -33.57,4.92 -74.7,1.5 -102.81,-14.84l-32.34 -52.41 17.03 -3.91c13.95,-3.2 18.93,1.1 22.63,3.72l31.52 22.31z"/>
   <path class="fil8" d="M311.82 853.78c4.29,-0.9 7.05,-5.13 6.14,-9.42 -0.9,-4.28 -5.13,-7.04 -9.42,-6.14 -4.28,0.9 -7.05,5.13 -6.14,9.42 0.9,4.29 5.13,7.05 9.42,6.15z"/>
   <path class="fil8" d="M424.37 830.11c4.29,-0.9 7.05,-5.13 6.14,-9.42 -0.9,-4.28 -5.13,-7.04 -9.42,-6.14 -4.28,0.9 -7.04,5.13 -6.14,9.42 0.9,4.29 5.13,7.05 9.42,6.15z"/>
   <path class="fil3" d="M225.79 829.13l-9.72 -15.76 34.3 -7.22c0.65,0.45 1.25,0.88 1.82,1.29l17.57 12.44 -43.96 9.25z"/>
   <path class="fil8" d="M485.41 812.75l-2.18 0.41 -42.56 7.97 -0.5 0.09 -0.39 -0.32 -15.2 -12.59 -1.57 -1.3 1.96 -0.57 24.19 -7c11.79,2.87 23.83,10.16 36.24,13.3z"/>
   <path class="fil11" d="M451.2 799.99c10.38,2.94 20.97,8.91 31.84,12.11l-42.56 7.97 -15.2 -12.58 25.92 -7.5z"/>
   <path class="fil10" d="M451.2 799.99c2.1,0.6 4.2,1.31 6.32,2.11 -10.9,0.55 -26.58,3.82 -19.43,16l-12.82 -10.61 25.92 -7.5z"/>
   <path class="fil11" d="M311.59 852.66c3.67,-0.77 6.02,-4.39 5.25,-8.06 -0.77,-3.66 -4.38,-6.02 -8.05,-5.25 -3.66,0.77 -6.02,4.39 -5.25,8.05 0.77,3.67 4.39,6.03 8.05,5.26z"/>
   <path class="fil10" d="M308.79 839.35c2.52,-0.53 5,0.41 6.56,2.23 -1.3,-0.45 -2.74,-0.57 -4.19,-0.26 -4.19,0.88 -6.89,4.94 -6.11,9.13 -0.73,-0.84 -1.26,-1.88 -1.51,-3.05 -0.77,-3.67 1.58,-7.27 5.25,-8.05z"/>
   <path class="fil11" d="M424.13 828.98c3.66,-0.77 6.02,-4.39 5.25,-8.05 -0.77,-3.66 -4.39,-6.02 -8.05,-5.25 -3.66,0.77 -6.02,4.39 -5.25,8.05 0.77,3.67 4.39,6.03 8.05,5.26z"/>
   <path class="fil10" d="M421.33 815.68c2.51,-0.53 5,0.41 6.56,2.23 -1.31,-0.45 -2.75,-0.57 -4.2,-0.26 -4.19,0.88 -6.89,4.94 -6.11,9.13 -0.73,-0.84 -1.27,-1.88 -1.51,-3.05 -0.77,-3.67 1.58,-7.27 5.25,-8.05z"/>
   <path class="fil14" d="M287.74 874.5c29.5,0.04 60.41,-4.48 99.68,-13.23 74.44,-16.58 91.86,-22.77 110.29,-33.55 -0.88,1.89 -2.26,3.85 -4.08,5.81 -15.2,16.33 -46.72,22.1 -71.41,26.89 -24.85,4.82 -49.5,10.8 -74.55,14.47 -18.81,2.76 -40,2.89 -59.94,-0.39z"/>
   <path class="fil8" d="M252.16 843.57c15.69,-6.5 35.05,-11.82 54.53,-17.1 -3.11,2.15 -4.53,4.33 -9.33,6.47 -15.07,3.54 -30.13,7.09 -45.2,10.63z"/>
   <path class="fil8" d="M461.67 821.2c8.27,-2.09 16.54,-4 24.78,-5.21 4.28,0.23 6.26,1.89 8.38,3.46 -10.71,-2.41 -21.98,0 -33.16,1.76z"/>
   <path class="fil9" d="M335.47 821.46c24.3,-7.11 31.82,-7.82 55.77,-14.03 5.34,-1.38 10.76,1.99 11.96,4.89 0.72,1.74 -14.26,22.65 -18.41,27.05l-0.02 0 0 0.01c-6.06,3.97 -64.08,12.41 -66.11,11.89 -0.05,-0.19 -0.02,-0.39 0.09,-0.6 1.17,-4.02 14.08,-26.08 14.38,-27.22 0.19,-0.72 0.93,-1.47 2.34,-1.99z"/>
   <path class="fil15" d="M402.03 815.24c3,-0.23 6.03,-0.35 9.07,-0.37l4.66 22.16c-15.35,6.76 -31.68,10.76 -49.25,10.18l-0.62 -2.97c9.33,-1.79 16.89,-3.57 18.87,-4.87l-0 -0.01 0.02 -0c2.59,-2.74 9.37,-11.89 13.95,-18.81 -0.91,-1.67 -4.15,-1.62 -22.97,0.83 7.33,-2.86 17.41,-5.69 26.26,-6.13l0.01 -0.02z"/>
   <path class="fil14" d="M413.46 838.02c-14.68,6.16 -30.25,9.74 -46.94,9.19l-0.62 -2.97c9.33,-1.79 16.89,-3.57 18.87,-4.87l-0 -0.01 0.02 -0c0.21,-0.23 0.45,-0.49 0.71,-0.8l26.89 -5.66 1.07 5.11z"/>
   <path class="fil3" d="M404.07 815.1c2.33,-0.14 4.68,-0.22 7.04,-0.23l4.66 22.16c-2.16,0.95 -4.33,1.84 -6.52,2.68l-5.18 -24.6z"/>
   <path class="fil4" d="M414.79 832.39l0.98 4.64c-2.16,0.95 -4.33,1.84 -6.52,2.68l-1.24 -5.88 6.79 -1.43z"/>
   <path class="fil14" d="M320.69 849.3c19.64,-7.17 30.73,-10.46 51.02,-14.55 5.52,-1.11 12.22,2.1 13.05,4.63 -6.06,3.97 -64.08,12.41 -66.11,11.89 -0.15,-0.6 0.46,-1.4 2.03,-1.97z"/>
   <path class="fil16" d="M904.51 1107.99c-72.01,0 -130.39,58.11 -130.32,129.68 0.07,71.57 58.6,129.68 130.59,129.68 71.99,0 130.39,-58.11 130.32,-129.68 -0.09,-71.57 -58.6,-129.68 -130.59,-129.68l0 0z"/>
   <polygon class="fil0" points="1240.9,1020.33 1222.91,1020.33 1222.91,1084.28 1199.61,1084.28 1199.61,1020.33 1181.61,1020.33 1211.25,980.42 "/>
   <polygon class="fil0" points="971.76,1021.14 952.17,1021.14 952.17,1085.49 926.82,1085.49 926.82,1021.14 907.25,1021.14 939.51,980.96 "/>
   <polygon class="fil0" points="873.75,1021.14 854.19,1021.14 854.19,1085.49 828.83,1085.49 828.83,1021.14 809.25,1021.14 841.5,980.96 "/>
   <polygon class="fil6" points="803.79,1097.92 977.22,1097.92 977.22,1101.23 803.79,1101.23 "/>
   <polygon class="fil6" points="803.79,1107.77 977.22,1107.77 977.22,1111.09 803.79,1111.09 "/>
   <polygon class="fil6" points="803.79,1117.63 977.22,1117.63 977.22,1120.95 803.79,1120.95 "/>
   <path class="fil17" d="M904.82 1196.09c-23.08,0 -41.82,18.63 -41.79,41.59 0.02,22.96 18.79,41.59 41.88,41.59 23.08,0 41.82,-18.63 41.79,-41.59 -0.04,-22.96 -18.79,-41.59 -41.88,-41.59l0 0z"/>
   <polygon class="fil0" points="1193.88,1321.36 1175.9,1321.36 1175.9,1385.31 1152.6,1385.31 1152.6,1321.36 1134.6,1321.36 1164.24,1281.43 "/>
   <path class="fil5" d="M1001.2 1319.93l30.22 -64.89c10.13,-21.59 20.36,-43.1 30.67,-64.54 -9.69,21.89 -19.5,43.73 -29.39,65.48l-29.84 65.16 -30.22 64.89c-10.13,21.59 -20.36,43.1 -30.67,64.54 9.69,-21.89 19.5,-43.73 29.39,-65.48l29.84 -65.16 0 0z"/>
   <path class="fil5" d="M1002.88 1319.93l29.84 65.16c9.89,21.75 19.69,43.59 29.39,65.48 -10.32,-21.44 -20.56,-42.96 -30.67,-64.54l-30.22 -64.89 -29.84 -65.16c-9.89,-21.75 -19.69,-43.59 -29.39,-65.48 10.31,21.44 20.54,42.96 30.67,64.54l30.22 64.89 0 0z"/>
   <polygon class="fil0" points="924.73,1322.15 905.16,1322.15 905.16,1386.52 879.81,1386.52 879.81,1322.15 860.24,1322.15 892.49,1281.99 "/>
   <polygon class="fil0" points="826.74,1322.15 807.17,1322.15 807.17,1386.52 781.8,1386.52 781.8,1322.15 762.23,1322.15 794.49,1281.99 "/>
   <polygon class="fil6" points="756.77,1398.95 930.21,1398.95 930.21,1402.25 756.77,1402.25 "/>
   <polygon class="fil6" points="756.77,1408.8 930.21,1408.8 930.21,1412.1 756.77,1412.1 "/>
   <polygon class="fil6" points="756.77,1418.66 930.21,1418.66 930.21,1421.98 756.77,1421.98 "/>
   <path class="fil5" d="M617.09 1320.73l32.88 -65.28c11.01,-21.73 22.15,-43.37 33.37,-64.96 -10.56,22.04 -21.21,44 -31.97,65.9l-32.47 65.57 -32.88 65.28c-11.01,21.73 -22.15,43.37 -33.37,64.96 10.56,-22.04 21.21,-44 31.98,-65.9l32.45 -65.57 0 0z"/>
   <path class="fil5" d="M618.91 1320.73l32.47 65.57c10.78,21.89 21.42,43.86 31.97,65.9 -11.23,-21.59 -22.36,-43.23 -33.37,-64.96l-32.88 -65.28 -32.47 -65.57c-10.78,-21.89 -21.42,-43.86 -31.98,-65.9 11.23,21.59 22.36,43.23 33.37,64.96l32.9 65.28 0 0z"/>
   <path class="fil3" d="M15.09 1416.27c0,43.5 19.9,44.4 45.28,44.4l251.25 0c3.75,-0 6.8,-3.05 6.8,-6.79l0 -347.78c0,-3.74 -3.04,-6.79 -6.8,-6.79 0,0 -147.38,0 -171.34,0 -13.36,0 -33.06,9.9 -48.84,30.19 0,0 -76.34,90.57 -76.34,165.13 0,50.91 0,121.64 0,121.64z"/>
   <path class="fil9" d="M142.49 1361.85l-127.4 0c0,30.25 0,54.41 0,54.41 0,43.5 19.9,44.4 45.28,44.4l82.12 0 0 -98.81z"/>
   <path class="fil9" d="M276.39 1207.86l0 -96.33 -128.12 0c-19.52,0 -33.57,7.97 -47.17,25.46l-0.15 0.19 -0.16 0.19c-0.52,0.62 -37.1,44.47 -58.44,94.6l0 68.15c87.28,0 234.04,-75.63 234.04,-92.28z"/>
   <path class="fil6" d="M148.26 1116.97c-17.56,0 -29.98,6.77 -42.89,23.37l-0.14 0.21 -0.27 0.32c-0.36,0.44 -35.73,42.8 -56.89,91.55l53.7 53.71c26.01,-6.48 54.97,-16.46 84.79,-29.42 50.55,-21.93 81.74,-42.85 84.39,-49.2l0 -90.54 -122.7 0z"/>
   <path class="fil9" d="M32.85 1248.46c-2.95,0 -5.48,4.29 -6.55,10.37 -3.71,-3.34 -7.59,-9.54 -8.38,-21.01l9.88 0 0 -55.05 -21.01 0c-3.75,0 -6.79,3.03 -6.79,6.79l0 41.47c0,3.76 3.04,6.79 6.79,6.79l4.51 0c-0.24,7.53 0.79,24.96 14.66,31.5 0.75,7.39 3.55,12.89 6.9,12.89 3.93,0 7.11,-7.54 7.11,-16.86 0,-9.31 -3.18,-16.88 -7.11,-16.88z"/>
   <path class="fil8" d="M14.58 1350.72c0,4.02 0.36,7.51 1.03,10.56l25.61 0c0,0 9.62,-25.26 9.62,-40.17 -12.97,0 -31.05,3.4 -36.26,6.38 0,13.71 0,23.24 0,23.24z"/>
   <path class="fil9" d="M209.52 1338.14c40.11,15.54 68.5,54.65 68.2,100.14 -0.05,7.69 -0.93,15.15 -2.53,22.38l36.43 0c3.75,-0 6.8,-3.05 6.8,-6.79l0 -115.74 -108.89 0z"/>
   <path class="fil14" d="M292.54 1437.58c0,-47.96 -32.95,-88.24 -77.44,-99.43l-1.97 -0c-7.44,-1.74 -15.17,-2.67 -23.14,-2.67 -0.98,0 -1.95,0.04 -2.93,0.07l-3 0.1c-53.62,3.09 -96.16,47.52 -96.16,101.92 0,0.5 0.03,1 0.04,1.49l-70.15 0c0.05,0.15 0.09,0.29 0.14,0.44 0.19,0.6 0.38,1.21 0.59,1.77 0.09,0.26 0.19,0.52 0.28,0.78 0.17,0.44 0.34,0.87 0.53,1.3 0.1,0.25 0.21,0.5 0.33,0.75 0.19,0.44 0.4,0.87 0.62,1.3 0.09,0.18 0.18,0.38 0.28,0.56 0.3,0.57 0.62,1.1 0.94,1.63 0.11,0.18 0.23,0.35 0.34,0.52 0.23,0.37 0.47,0.72 0.71,1.06 0.15,0.19 0.28,0.38 0.43,0.57 0.24,0.31 0.48,0.62 0.73,0.9 0.14,0.16 0.28,0.35 0.42,0.5 0.32,0.37 0.65,0.72 1,1.06l0.28 0.28c0.38,0.35 0.78,0.71 1.17,1.05 0.17,0.13 0.33,0.25 0.48,0.38 0.3,0.24 0.59,0.44 0.88,0.66 0.18,0.12 0.36,0.24 0.54,0.37 0.31,0.22 0.63,0.41 0.95,0.62 0.16,0.09 0.31,0.19 0.48,0.28 0.47,0.26 0.95,0.53 1.44,0.77 0.14,0.07 0.28,0.13 0.42,0.21 0.38,0.18 0.74,0.34 1.13,0.52 0.2,0.07 0.4,0.16 0.59,0.24 0.34,0.13 0.69,0.26 1.04,0.4 0.2,0.06 0.4,0.13 0.6,0.19 0.42,0.15 0.84,0.28 1.28,0.4 0.13,0.04 0.24,0.07 0.39,0.12 0.54,0.16 1.1,0.29 1.67,0.43 0.2,0.04 0.4,0.07 0.59,0.12 0.4,0.07 0.8,0.18 1.2,0.24 0.22,0.04 0.44,0.09 0.67,0.13 0.4,0.06 0.82,0.13 1.23,0.19 0.2,0.03 0.4,0.07 0.6,0.1 0.61,0.07 1.21,0.15 1.83,0.22l0.38 0.03c0.52,0.04 1.03,0.1 1.56,0.15 0.23,0.01 0.46,0.03 0.68,0.04 0.44,0.04 0.89,0.07 1.33,0.09 0.23,0.01 0.46,0.03 0.69,0.04 0.5,0.03 1.01,0.04 1.52,0.07 0.17,0.01 0.32,0.01 0.49,0.01 0.67,0.01 1.34,0.04 2.02,0.06 0.2,0 0.4,0.01 0.6,0.01 0.5,0 1.01,0.01 1.5,0.03 0.26,0 0.51,0 0.76,0 0.5,0.01 0.99,0.01 1.48,0.01 0.22,0 0.44,0.01 0.66,0.01 0.69,-0 1.39,0 2.1,0l229.54 0c1.71,-7.42 2.62,-15.14 2.63,-23.09z"/>
   <path class="fil9" d="M286.66 1302.68c0,3.74 -3.04,6.77 -6.79,6.77l-37.91 -0c-3.75,0 -6.78,-3.03 -6.78,-6.77l0 -11.3c0,-3.74 3.04,-6.77 6.78,-6.77l37.92 0c3.74,0 6.78,3.03 6.78,6.77l0.01 11.29z"/>
   <path class="fil18" d="M104.99 1432.17c0,-43.66 35.39,-79.05 79.04,-79.05 43.65,0 79.04,35.39 79.04,79.05 0,43.65 -35.39,79.05 -79.04,79.05 -43.65,-0.01 -79.05,-35.4 -79.04,-79.05z"/>
   <path class="fil6" d="M145.93 1394.07c21.04,-21.04 55.15,-21.04 76.2,0 21.03,21.03 21.03,55.15 0,76.18 -21.05,21.04 -55.16,21.04 -76.2,0 -21.04,-21.03 -21.04,-55.14 0,-76.18z"/>
   <path class="fil14" d="M152.12 1400.27c21.04,-21.06 15.24,13.33 32.86,30.94 17.62,17.63 52,11.81 30.95,32.85 -21.04,21.04 -15.23,-13.33 -32.85,-30.96 -17.62,-17.61 -52,-11.81 -30.96,-32.84z"/>
   <path class="fil14" d="M215.94 1400.27c21.04,21.03 -13.34,15.23 -30.96,32.84 -17.62,17.63 -11.82,52 -32.86,30.96 -21.04,-21.04 13.34,-15.23 30.96,-32.85 17.63,-17.63 11.82,-52 32.86,-30.94z"/>
   <path class="fil18" d="M173.69 1421.82c5.71,-5.7 14.98,-5.7 20.69,0 5.72,5.71 5.72,14.98 0,20.69 -5.71,5.7 -14.98,5.7 -20.69,0 -5.72,-5.71 -5.72,-14.98 0,-20.69z"/>
   <path class="fil9" d="M1242.65 1083.12c0,-13.49 -10.94,-24.43 -24.45,-24.43l-863.56 0c-13.5,0 -24.45,10.94 -24.45,24.43l0 352.37c0,13.52 10.95,24.46 24.45,24.46l863.57 0c13.5,0 24.45,-10.94 24.45,-24.46l0 -352.37z"/>
   <path class="fil14" d="M330.19 1420.99l0 14.79c0,13.5 10.95,24.45 24.45,24.45l863.57 0c13.5,0 24.45,-10.94 24.45,-24.45l0 -14.79 -912.46 0z"/>
   <path class="fil14" d="M1175.66 1442.43c0.35,-3.37 0.54,-6.8 0.54,-10.26 0,-54.08 -43.99,-98.06 -98.05,-98.06 -54.08,0 -98.06,43.99 -98.06,98.06 0,3.46 0.19,6.89 0.55,10.26l195.02 0z"/>
   <path class="fil18" d="M999.1 1432.17c0,-43.66 35.39,-79.05 79.05,-79.05 43.65,0 79.04,35.39 79.04,79.05 0,43.65 -35.39,79.05 -79.04,79.05 -43.66,-0.01 -79.05,-35.4 -79.05,-79.05z"/>
   <path class="fil6" d="M1040.04 1394.07c21.04,-21.04 55.17,-21.04 76.19,0 21.05,21.03 21.04,55.15 0,76.18 -21.03,21.04 -55.15,21.04 -76.19,0 -21.03,-21.03 -21.03,-55.14 0,-76.18z"/>
   <path class="fil14" d="M1046.24 1400.27c21.03,-21.06 15.23,13.31 32.85,30.94 17.63,17.63 52,11.83 30.96,32.85 -21.03,21.04 -15.23,-13.33 -32.85,-30.96 -17.63,-17.61 -52,-11.81 -30.95,-32.84z"/>
   <path class="fil14" d="M1110.05 1400.27c21.04,21.03 -13.33,15.23 -30.96,32.84 -17.63,17.63 -11.83,52 -32.85,30.96 -21.04,-21.03 13.33,-15.23 30.96,-32.85 17.63,-17.63 11.83,-52 32.86,-30.94z"/>
   <path class="fil18" d="M1067.8 1421.82c5.71,-5.7 14.98,-5.7 20.69,0 5.71,5.71 5.71,14.98 0,20.69 -5.71,5.7 -14.98,5.7 -20.69,0 -5.71,-5.71 -5.71,-14.98 0,-20.69z"/>
   <path class="fil8" d="M23.13 1387.51l-8.04 0c0,12.03 0,21.32 0,25.8l8.04 -0c7.13,0 12.9,-5.77 12.9,-12.89 0,-7.14 -5.77,-12.92 -12.9,-12.92z"/>
   <path class="fil14" d="M1242.65 1304.89c-12.05,1.52 -21.38,11.78 -21.38,24.24l0 53.62c0,12.46 9.34,22.72 21.38,24.24l0 -102.1z"/>
   <polygon class="fil3" points="330.19,1282.01 1243.91,1282.01 1243.91,1295.45 330.19,1295.45 "/>
   <polygon class="fil3" points="330.19,1257.19 1243.91,1257.19 1243.91,1270.64 330.19,1270.64 "/>
   <path class="fil9" d="M274.2 529.61c3.02,23.76 -13.49,41.47 -22.84,57.13 -10.82,18.1 -21.97,33.72 -30.06,49.9 -0.4,0 -0.79,0 -1.21,0 -7.72,-12.76 -17.13,-28.36 -27.05,-44.5 -9.42,-15.32 -20.82,-30.26 -24.67,-46.91 -16.37,-71.28 96.87,-86.58 105.83,-15.63zm-53.54 -28.9c18.25,0 33.05,14.8 33.05,33.05 0,18.25 -14.8,33.05 -33.05,33.05 -18.25,0 -33.05,-14.8 -33.05,-33.05 0,-18.25 14.8,-33.05 33.05,-33.05z"/>
   <path class="fil8" d="M220.66 493.93c22.42,0 40.61,18.18 40.61,40.61 0,22.42 -18.18,40.61 -40.61,40.61 -22.42,0 -40.61,-18.18 -40.61,-40.61 0,-22.42 18.18,-40.61 40.61,-40.61z"/>
   <path class="fil12" d="M250.71 512.04c2.52,33.28 -33.41,56.54 -62.72,40.26 29.63,22.2 88.98,-5.65 62.72,-40.26z"/>
   <path class="fil12" d="M188 552.29c8.13,8.72 19.82,14.51 32.69,14.51 17.39,0 35.09,-9.25 37.22,-27.84 -14.99,23.86 -47.2,29.73 -69.91,13.33z"/>
   <path class="fil12" d="M188 552.29c10.1,17.59 32.8,24.88 50.54,15.36 -20.84,5.8 -37.63,-1.64 -50.54,-15.36z"/>
   <path class="fil12" d="M216.98 504.8c2.19,0 4.32,0.22 6.38,0.63 -4.26,-2.93 -9.07,-5.11 -14.26,-6.33 -20.3,6.72 -30.74,29.06 -23.25,48.82 -1.08,-3.25 -1.66,-6.72 -1.66,-10.33 0,-18.11 14.68,-32.79 32.79,-32.79z"/>
   <path class="fil12" d="M248.62 509.52c-3.39,-3.75 -7.53,-6.8 -12.19,-8.93 3.01,4.94 4.93,10.4 5.73,16.02 2.25,2.7 4.08,5.76 5.38,9.1 1.41,-5.3 1.75,-10.8 1.08,-16.18zm-27.71 -12.32l0 0c-0.01,-0 -0.03,-0 -0.04,-0 -2.49,0 -4.92,0.25 -7.27,0.71 1.15,0.51 2.3,1.06 3.43,1.66 3.57,1.9 6.82,4.16 9.73,6.71 1.25,0.39 2.46,0.86 3.65,1.39 -2.51,-3.93 -5.69,-7.48 -9.49,-10.47zm2.77 0.11l0 0c3.77,3.37 6.87,7.32 9.24,11.62 2.6,1.45 4.98,3.24 7.08,5.31 -1.15,-5.27 -3.3,-10.3 -6.35,-14.8 -3.15,-1.14 -6.5,-1.88 -9.98,-2.13z"/>
   <polygon class="fil9" points="202.98,549.97 208.77,522.73 197.73,522.73 199.63,513.97 233.72,513.97 231.81,522.73 220.76,522.73 214.97,549.97 "/>
   <polygon class="fil9" points="201.22,558.27 202.48,552.65 214.47,552.65 213.22,558.27 "/>
   <path class="fil9" d="M1130.31 413.21c3.02,23.76 -13.49,41.47 -22.84,57.13 -10.82,18.1 -21.97,33.72 -30.06,49.9 -0.4,0 -0.79,0 -1.21,0 -7.72,-12.76 -17.13,-28.36 -27.05,-44.5 -9.42,-15.32 -20.82,-30.26 -24.67,-46.91 -16.37,-71.28 96.87,-86.58 105.83,-15.63zm-53.54 -28.9c18.25,0 33.05,14.8 33.05,33.05 0,18.25 -14.8,33.05 -33.05,33.05 -18.25,0 -33.05,-14.8 -33.05,-33.05 0,-18.25 14.8,-33.05 33.05,-33.05z"/>
   <path class="fil8" d="M1076.77 377.54c22.42,0 40.61,18.18 40.61,40.61 0,22.42 -18.18,40.61 -40.61,40.61 -22.42,0 -40.61,-18.18 -40.61,-40.61 0,-22.42 18.18,-40.61 40.61,-40.61z"/>
   <path class="fil12" d="M1106.82 395.65c2.52,33.28 -33.41,56.54 -62.72,40.26 29.63,22.2 88.98,-5.65 62.72,-40.26z"/>
   <path class="fil12" d="M1044.1 435.9c8.13,8.72 19.82,14.51 32.69,14.51 17.39,0 35.09,-9.25 37.22,-27.84 -14.99,23.86 -47.2,29.73 -69.91,13.33z"/>
   <path class="fil12" d="M1044.1 435.9c10.1,17.59 32.8,24.88 50.54,15.36 -20.84,5.8 -37.63,-1.64 -50.54,-15.36z"/>
   <path class="fil12" d="M1073.08 388.41c2.19,0 4.32,0.22 6.38,0.63 -4.26,-2.93 -9.07,-5.11 -14.26,-6.33 -20.3,6.72 -30.74,29.06 -23.25,48.82 -1.08,-3.25 -1.66,-6.72 -1.66,-10.33 0,-18.11 14.68,-32.79 32.79,-32.79z"/>
   <path class="fil12" d="M1104.73 393.13c-3.39,-3.75 -7.53,-6.8 -12.19,-8.93 3.01,4.94 4.93,10.4 5.73,16.02 2.25,2.7 4.08,5.76 5.38,9.1 1.41,-5.3 1.75,-10.8 1.08,-16.18zm-27.71 -12.32l0 0c-0.01,-0 -0.03,-0 -0.04,-0 -2.49,0 -4.92,0.25 -7.27,0.71 1.15,0.51 2.3,1.06 3.43,1.66 3.57,1.9 6.82,4.16 9.73,6.71 1.25,0.39 2.46,0.86 3.65,1.39 -2.51,-3.93 -5.69,-7.48 -9.49,-10.47zm2.77 0.11l0 0c3.77,3.37 6.87,7.32 9.24,11.62 2.6,1.45 4.98,3.24 7.08,5.31 -1.15,-5.27 -3.3,-10.3 -6.35,-14.8 -3.15,-1.14 -6.5,-1.88 -9.98,-2.13z"/>
   <polygon class="fil9" points="1059.08,433.58 1064.87,406.34 1053.84,406.34 1055.73,397.58 1089.82,397.58 1087.92,406.34 1076.86,406.34 1071.07,433.58 "/>
   <polygon class="fil9" points="1057.33,441.88 1058.58,436.26 1070.57,436.26 1069.32,441.88 "/>
  </g>
 </g>
</svg>
