<?xml version="1.0" encoding="UTF-8"?>
<!DOCTYPE svg PUBLIC "-//W3C//DTD SVG 1.1//EN" "http://www.w3.org/Graphics/SVG/1.1/DTD/svg11.dtd">
<!-- Creator: CorelDRAW Standard 2021 (64 Bit) -->
<svg xmlns="http://www.w3.org/2000/svg" xml:space="preserve" width="473.886mm" height="357.417mm" version="1.1" style="shape-rendering:geometricPrecision; text-rendering:geometricPrecision; image-rendering:optimizeQuality; fill-rule:evenodd; clip-rule:evenodd"
viewBox="0 0 2085.2 1572.71"
 xmlns:xlink="http://www.w3.org/1999/xlink"
 xmlns:xodm="http://www.corel.com/coreldraw/odm/2003">
 <defs>
  <style type="text/css">
   <![CDATA[
    .fil1 {fill:#FEFEFE;fill-rule:nonzero}
    .fil0 {fill:#094561;fill-rule:nonzero}
    .fil4 {fill:#094561;fill-rule:nonzero}
    .fil3 {fill:#D98218;fill-rule:nonzero}
    .fil2 {fill:#F59B2C;fill-rule:nonzero}
   ]]>
  </style>
 </defs>
 <g id="Camada_x0020_1">
  <metadata id="CorelCorpID_0Corel-Layer"/>
  <g id="_1778928728288">
   <path class="fil0" d="M1142.79 1397.51c-126.95,-112.1 -69.23,-373.74 -69.23,-373.74l-378.46 0c0,0 57.77,261.64 -69.22,373.74 -126.97,112.12 -275.31,112.12 -275.31,112.12l0 63.08 1067.47 0 0 -63.08c0,0 -148.26,0 -275.25,-112.12z"/>
   <path class="fil0" d="M1768.6 966.27c0,58.22 -47.22,105.4 -105.4,105.4l-1557.78 0c-58.2,0 -105.42,-47.18 -105.42,-105.4l0 -860.87c0,-58.2 47.22,-105.4 105.42,-105.4l1557.78 0c58.19,0 105.4,47.2 105.4,105.4l0 860.87z"/>
   <path class="fil0" d="M-0 105.4l0 860.87c0,20.45 5.92,39.48 16,55.61l1736.59 0c10.08,-16.13 16.01,-35.16 16.01,-55.61l0 -860.87c0,-27.27 -10.46,-52.07 -27.51,-70.79l-1713.6 0c-17.03,18.72 -27.49,43.52 -27.49,70.79z"/>
   <polygon class="fil1" points="76.14,985.31 1692.47,985.31 1692.47,70.27 76.14,70.27 "/>
   <polygon class="fil0" points="236.46,985.31 409.01,985.31 409.01,655.9 236.46,655.9 "/>
   <polygon class="fil0" points="529.27,985.31 701.81,985.31 701.81,556.56 529.27,556.56 "/>
   <polygon class="fil0" points="824.64,985.31 997.18,985.31 997.18,347.4 824.64,347.4 "/>
   <polygon class="fil0" points="1133.14,985.31 1305.69,985.31 1305.69,237.58 1133.14,237.58 "/>
   <polygon class="fil2" points="1427.42,969.94 1599.96,969.94 1599.96,122.24 1427.42,122.24 "/>
   <polygon class="fil0" points="191.17,788.08 175.25,766.87 681.01,444.35 1214.57,334.49 1593.2,110.82 1606.7,133.67 1223.09,360.28 691.05,469.97 "/>
   <path class="fil2" d="M724.8 460.33c0,23.79 -19.31,43.12 -43.12,43.12 -23.83,0 -43.12,-19.34 -43.12,-43.12 0,-23.83 19.29,-43.15 43.12,-43.15 23.81,0 43.12,19.31 43.12,43.15z"/>
   <path class="fil2" d="M1261.97 347.4c0,23.81 -19.32,43.12 -43.16,43.12 -23.81,0 -43.12,-19.31 -43.12,-43.12 0,-23.81 19.31,-43.12 43.12,-43.12 23.83,0 43.16,19.31 43.16,43.12z"/>
   <path class="fil0" d="M1643.09 122.24c0,23.83 -19.31,43.15 -43.12,43.15 -23.81,0 -43.15,-19.31 -43.15,-43.15 0,-23.81 19.34,-43.12 43.15,-43.12 23.81,0 43.12,19.31 43.12,43.12z"/>
   <path class="fil0" d="M2077.16 1415.86c19.61,41.15 2.15,90.37 -39,109.99 -41.13,19.57 -90.35,2.09 -109.97,-39.03l-193.96 -407.18c-19.56,-41.12 -2.12,-90.35 39,-109.97 41.16,-19.57 90.37,-2.11 109.96,39.01l193.97 407.18z"/>
   <path class="fil1" d="M1842.63 426.72c70.33,147.65 7.64,324.39 -140.02,394.71 -147.65,70.32 -324.35,7.63 -394.69,-140.02 -70.34,-147.64 -7.64,-324.37 140,-394.69 147.66,-70.34 324.37,-7.67 394.71,140z"/>
   <polygon class="fil2" points="1469.16,876.42 1692.46,876.42 1692.46,237.58 1469.16,237.58 "/>
   <path class="fil0" d="M1702.61 821.43c-147.65,70.32 -324.35,7.63 -394.69,-140.02 -70.34,-147.64 -7.64,-324.37 140,-394.69 147.66,-70.34 324.37,-7.67 394.71,140 70.33,147.65 7.64,324.39 -140.02,394.71zm214.5 -430.19c-89.95,-188.79 -315.89,-268.94 -504.67,-179.02 -188.78,89.95 -268.92,315.89 -178.99,504.69 83.3,174.88 283.31,256.41 462.38,196l42.25 88.65c0,0 66.32,25.95 90.19,-37.22l-44.82 -94.08c155.68,-102.21 216.02,-306.15 133.67,-479.03z"/>
   <path class="fil3" d="M1469.16 305.19l0 -27.62c34.66,-13.33 70.51,-19.71 105.9,-19.71 3.98,0 7.95,0.08 11.91,0.25 -35.13,9.05 -76.98,23.64 -117.8,47.08z"/>
   <path class="fil2" d="M226.31 777.47c0,23.83 -19.29,43.12 -43.12,43.12 -23.81,0 -43.12,-19.29 -43.12,-43.12 0,-23.81 19.31,-43.13 43.12,-43.13 23.83,0 43.12,19.32 43.12,43.13z"/>
   <g>
    <path class="fil4" d="M347.74 549.81c-118.89,0 -215.6,-96.71 -215.6,-215.6 0,-118.85 96.71,-215.6 215.6,-215.6 118.85,0 215.55,96.75 215.55,215.6 0,118.89 -96.71,215.6 -215.55,215.6zm0 -410.67l0 0c-107.53,0 -195.05,87.53 -195.05,195.07 0,107.59 87.53,195.05 195.05,195.05 107.55,0 195.02,-87.46 195.02,-195.05 0,-107.55 -87.48,-195.07 -195.02,-195.07z"/>
    <path class="fil4" d="M347.74 549.81c-63.36,0 -112.92,-94.68 -112.92,-215.6 0,-120.88 49.56,-215.6 112.92,-215.6 63.33,0 112.93,94.72 112.93,215.6 0,120.92 -49.61,215.6 -112.93,215.6zm0 -410.67l0 0c-50.09,0 -92.39,89.35 -92.39,195.07 0,105.78 42.3,195.05 92.39,195.05 50.09,0 92.39,-89.27 92.39,-195.05 0,-105.72 -42.3,-195.07 -92.39,-195.07z"/>
    <path class="fil4" d="M347.74 282.31c-97.23,0 -186.15,-19.48 -187,-19.63 -5.56,-1.22 -9.01,-6.77 -7.85,-12.26 1.24,-5.5 6.73,-9.03 12.28,-7.85 0.85,0.22 87.63,19.26 182.58,19.26 95.07,0 181.68,-19.04 182.53,-19.26 5.6,-1.18 11.05,2.35 12.28,7.85 1.22,5.5 -2.29,11.04 -7.79,12.26 -0.85,0.15 -89.77,19.63 -187.02,19.63z"/>
    <path class="fil4" d="M162.92 426.6c-4.69,0 -8.96,-3.21 -10.03,-8 -1.16,-5.54 2.29,-11.04 7.85,-12.26 0.85,-0.22 89.77,-19.69 187,-19.69 97.25,0 186.17,19.48 187.02,19.69 5.5,1.22 9.01,6.72 7.79,12.26 -1.22,5.5 -6.67,9.07 -12.28,7.79 -0.85,-0.22 -87.57,-19.2 -182.53,-19.2 -95.05,0 -181.72,18.98 -182.58,19.2 -0.74,0.15 -1.5,0.22 -2.24,0.22z"/>
    <path class="fil4" d="M347.74 549.81c-5.7,0 -10.3,-4.6 -10.3,-10.25l0 -410.66c0,-5.67 4.6,-10.3 10.3,-10.3 5.65,0 10.25,4.63 10.25,10.3l0 410.66c0,5.65 -4.6,10.25 -10.25,10.25z"/>
   </g>
  </g>
 </g>
</svg>
