<?xml version="1.0" encoding="UTF-8"?>
<!DOCTYPE svg PUBLIC "-//W3C//DTD SVG 1.1//EN" "http://www.w3.org/Graphics/SVG/1.1/DTD/svg11.dtd">
<!-- Creator: CorelDRAW Standard 2021 (64 Bit) -->
<svg xmlns="http://www.w3.org/2000/svg" xml:space="preserve" width="417.005mm" height="378.264mm" version="1.1" style="shape-rendering:geometricPrecision; text-rendering:geometricPrecision; image-rendering:optimizeQuality; fill-rule:evenodd; clip-rule:evenodd"
viewBox="0 0 1890.1 1714.5"
 xmlns:xlink="http://www.w3.org/1999/xlink"
 xmlns:xodm="http://www.corel.com/coreldraw/odm/2003">
 <defs>
  <style type="text/css">
   <![CDATA[
    .fil15 {fill:#CCCCCC}
    .fil5 {fill:#011721;fill-rule:nonzero}
    .fil1 {fill:#012E42;fill-rule:nonzero}
    .fil10 {fill:#053B53;fill-rule:nonzero}
    .fil0 {fill:#094561;fill-rule:nonzero}
    .fil3 {fill:gray;fill-rule:nonzero}
    .fil2 {fill:#CCCCCC;fill-rule:nonzero}
    .fil9 {fill:#E6E6E6;fill-rule:nonzero}
    .fil6 {fill:#EDAC80;fill-rule:nonzero}
    .fil11 {fill:#F59B2C;fill-rule:nonzero}
    .fil4 {fill:white;fill-rule:nonzero}
    .fil16 {fill:white;fill-rule:nonzero}
    .fil7 {fill:url(#id0);fill-rule:nonzero}
    .fil8 {fill:url(#id1);fill-rule:nonzero}
    .fil12 {fill:url(#id2);fill-rule:nonzero}
    .fil13 {fill:url(#id3);fill-rule:nonzero}
    .fil14 {fill:url(#id4);fill-rule:nonzero}
   ]]>
  </style>
  <linearGradient id="id0" gradientUnits="userSpaceOnUse" x1="405.24" y1="451.69" x2="446.06" y2="451.69">
   <stop offset="0" style="stop-opacity:1; stop-color:#EDAC80"/>
   <stop offset="0.270588" style="stop-opacity:1; stop-color:#E6A67A"/>
   <stop offset="0.65098" style="stop-opacity:1; stop-color:#D49468"/>
   <stop offset="1" style="stop-opacity:1; stop-color:#BD7E52"/>
  </linearGradient>
  <linearGradient id="id1" gradientUnits="userSpaceOnUse" xlink:href="#id0" x1="703.46" y1="447.52" x2="736.42" y2="447.52">
  </linearGradient>
  <linearGradient id="id2" gradientUnits="userSpaceOnUse" xlink:href="#id0" x1="1532.91" y1="659.1" x2="1484" y2="691.67">
  </linearGradient>
  <linearGradient id="id3" gradientUnits="userSpaceOnUse" xlink:href="#id0" x1="1545.1" y1="743.8" x2="1534.58" y2="734.28">
  </linearGradient>
  <linearGradient id="id4" gradientUnits="userSpaceOnUse" xlink:href="#id0" x1="1288.38" y1="699.2" x2="1297.53" y2="754.32">
  </linearGradient>
 </defs>
 <g id="Camada_x0020_1">
  <metadata id="CorelCorpID_0Corel-Layer"/>
  <g id="_1780890154768">
   <g>
    <polygon class="fil0" points="1651.79,1170.83 1890.1,937.88 1651.79,704.92 1651.79,788.28 1093.28,788.28 1093.28,942.81 1093.28,1087.47 1651.79,1087.47 "/>
    <path class="fil0" d="M1046.42 1515.1l0 -447.49 0 -19.84 0 -122.26c0,-59.78 -49.56,-108.24 -110.69,-108.24l-237.4 0 -494.41 0 0 -69.76 -203.92 194.92 203.92 194.92 0 -69.75 410.52 0 0 0 175.98 0 0 447.49 -71.34 0 199.34 199.4 199.34 -199.4 -71.33 0z"/>
    <path class="fil0" d="M1319.76 440.65l-88.69 0 -8.73 0 -53.81 0c-26.31,0 -47.63,21.33 -47.63,47.63l0 102.17 0 55.64 -30.7 -0 85.78 87.76 85.78 -87.76 -30.7 0 0 -19.53 0 0 0 -75.73 88.69 0 0 30.7 87.76 -85.78 -87.76 -85.78 0 30.69z"/>
    <path class="fil0" d="M1177.96 1367.88l88.69 0 8.73 0 53.81 0c26.31,0 47.63,-21.33 47.63,-47.63l0 -102.17 0 -80.73 -110.17 0 0 19.53 0 0 0 100.82 -88.69 0 0 -30.7 -87.76 85.78 87.76 85.78 0 -30.69z"/>
    <path class="fil0" d="M499.12 1240.09l88.69 0 8.73 0 53.81 0c26.31,0 47.63,21.33 47.63,47.63l0 102.17 0 80.73 -110.17 0 0 -19.53 0 0 0 -100.82 -88.69 0 0 30.7 -87.76 -85.78 87.76 -85.78 0 30.69z"/>
    <polygon class="fil0" points="754.86,681.89 678.35,607.11 678.35,633.87 610.86,633.87 610.86,729.93 678.35,729.93 678.35,756.69 "/>
    <polygon class="fil1" points="407.77,1066.75 383.76,820.11 422.14,811.37 476.78,820.11 496.63,777.87 383.76,763.49 327.92,796.23 360.61,1066.75 "/>
    <path class="fil0" d="M328.85 707.9c-48.07,16.62 -94.8,59.14 -94.8,59.14 0,0 -2.92,154.31 138.29,408.76 7.86,14.16 29.47,7.95 28.51,-8.22 -5.25,-88.26 -16.95,-248.7 -37.06,-347.21l59.92 -22.54 54.46 25.55c0,0 -19.34,107.81 -18.99,336.33 0.02,16.11 22.02,20.72 28.47,5.96 41,-93.79 123.23,-264.95 112.32,-405.78 0,0 -19.04,-27.47 -99.47,-51.98 -41.06,-12.51 -131.1,-14.03 -171.66,-0.01z"/>
    <path class="fil1" d="M372.33 1175.79c4.2,7.56 12.3,9.27 18.81,6.8 -44.98,-71.69 -157.09,-415.55 -157.09,-415.55 0,0 -2.91,154.31 138.29,408.75z"/>
    <path class="fil1" d="M470 385.34l12.05 -61.36 -88.04 -0.49c-16.46,1.53 -24.83,9.58 -30.98,28.34 -7.54,23 0.2,69.61 21.52,103.84l15.06 26.61 56.2 -84.18 14.19 -12.75z"/>
    <g>
     <polygon class="fil2" points="327.92,593.75 328.85,707.9 511.38,707.9 511.38,593.75 "/>
     <path id="_1" class="fil3" d="M320.91 707.97l-0.92 -114.15 15.88 -0.13 0.92 114.15 -7.94 8 -7.94 -7.87zm7.94 7.87l-7.87 0 -0.06 -7.87 7.94 7.87zm182.53 0l-182.53 0 0 -15.88 182.53 0 7.94 7.94 -7.94 7.94zm7.94 -7.94l0 7.94 -7.94 0 7.94 -7.94zm0 -114.15l0 114.15 -15.88 0 0 -114.15 7.94 -7.94 7.94 7.94zm-7.94 -7.94l7.94 0 0 7.94 -7.94 -7.94zm-183.45 0l183.45 0 0 15.88 -183.45 0 -7.94 -7.87 7.94 -8zm-7.94 8l-0.06 -8 8 0 -7.94 8z"/>
    </g>
    <g>
     <path class="fil4" d="M720.76 423.96l-131.89 113.48c0,0 -90.03,-89.18 -160.3,-98.08 -27.01,-3.43 -103.12,-17.56 -225.61,133.82 -4,2.83 9.01,26.1 26.62,41.15 35.57,30.38 62.5,61.82 144.87,103.86 9.17,4.68 23.97,-3.5 16.93,-11.02 -36.7,-39.2 -79.01,-90.6 -113.29,-126.11l47.53 -31.79 2.29 44.47 183.8 0 0 -41.44c0,0 31.38,25.59 73.93,54.16 0,0 16.85,-5.62 34.95,-22.56 34.15,-31.98 78.26,-77.28 116.15,-147.86 5.43,-10.13 -7.68,-19.99 -16,-12.08z"/>
     <path id="_1_0" class="fil3" d="M583.7 531.42l131.89 -113.48 10.36 12.03 -131.89 113.48 -10.76 -0.38 0.41 -11.66zm10.36 12.03l-5.56 4.78 -5.21 -5.16 10.76 0.38zm-166.48 -96.23l2 -15.75 -0 0 7.14 1.14 7.18 1.6 7.2 2.02 7.21 2.4 7.21 2.75 7.19 3.06 7.15 3.35 7.1 3.59 7.03 3.81 6.95 4 6.84 4.15 6.72 4.28 6.59 4.37 6.43 4.43 6.25 4.46 6.06 4.47 5.85 4.44 5.61 4.37 5.36 4.28 5.09 4.16 4.8 4.01 4.49 3.82 4.16 3.61 3.81 3.36 3.44 3.09 3.05 2.78 2.64 2.44 2.21 2.07 1.76 1.67 1.29 1.24 0.79 0.77 0.3 0.3 -11.17 11.28 -0.22 -0.21 -0.74 -0.72 -1.22 -1.18 -1.69 -1.6 -2.13 -2 -2.56 -2.37 -2.96 -2.7 -3.34 -3 -3.71 -3.28 -4.05 -3.52 -4.37 -3.73 -4.67 -3.9 -4.96 -4.05 -5.22 -4.17 -5.46 -4.25 -5.68 -4.31 -5.87 -4.33 -6.05 -4.32 -6.21 -4.28 -6.34 -4.21 -6.45 -4.11 -6.54 -3.97 -6.61 -3.81 -6.66 -3.61 -6.68 -3.38 -6.68 -3.13 -6.65 -2.84 -6.6 -2.52 -6.53 -2.18 -6.42 -1.8 -6.29 -1.41 -6.14 -0.99 -0 0zm-220.02 132.42l-9.17 -12.96 -1.59 1.49 11.46 -13.85 11.2 -12.92 10.93 -12.01 10.67 -11.15 10.41 -10.31 10.15 -9.5 9.88 -8.73 9.62 -7.99 9.36 -7.28 9.1 -6.6 8.84 -5.95 8.57 -5.33 8.31 -4.74 8.05 -4.19 7.78 -3.66 7.51 -3.17 7.24 -2.7 6.97 -2.27 6.7 -1.87 6.42 -1.49 6.14 -1.15 5.85 -0.85 5.56 -0.57 5.27 -0.33 4.97 -0.12 4.66 0.05 4.35 0.19 4.03 0.29 3.71 0.36 3.37 0.39 3.02 0.38 2.66 0.35 -2 15.75 -2.69 -0.35 -2.91 -0.37 -3.13 -0.36 -3.36 -0.33 -3.61 -0.26 -3.86 -0.17 -4.12 -0.04 -4.38 0.11 -4.65 0.29 -4.92 0.51 -5.2 0.75 -5.48 1.03 -5.76 1.34 -6.04 1.68 -6.33 2.06 -6.62 2.47 -6.91 2.91 -7.2 3.39 -7.49 3.9 -7.78 4.44 -8.08 5.02 -8.37 5.63 -8.66 6.28 -8.95 6.96 -9.24 7.67 -9.53 8.41 -9.82 9.19 -10.1 10 -10.39 10.85 -10.67 11.72 -10.95 12.63 -11.23 13.58 -1.59 1.49zm1.59 -1.49l-0.69 0.85 -0.9 0.63 1.59 -1.49zm25.61 30.12l-10.31 12.07 0 0 -1.78 -1.56 -1.74 -1.6 -1.7 -1.64 -1.66 -1.66 -1.62 -1.69 -1.57 -1.71 -1.53 -1.73 -1.48 -1.73 -1.43 -1.74 -1.38 -1.74 -1.33 -1.74 -1.27 -1.73 -1.22 -1.72 -1.16 -1.7 -1.1 -1.68 -1.04 -1.66 -0.98 -1.63 -0.92 -1.6 -0.85 -1.57 -0.79 -1.53 -0.72 -1.5 -0.65 -1.47 -0.58 -1.44 -0.51 -1.42 -0.43 -1.42 -0.35 -1.44 -0.24 -1.5 -0.11 -1.63 0.12 -1.85 0.54 -2.14 1.26 -2.37 2.17 -2.14 9.17 12.96 1.51 -1.49 0.8 -1.49 0.27 -1.04 0.04 -0.54 -0 -0.13 0.03 0.19 0.1 0.43 0.19 0.62 0.27 0.77 0.36 0.89 0.44 1 0.52 1.09 0.6 1.17 0.67 1.24 0.75 1.3 0.81 1.35 0.88 1.4 0.94 1.43 1 1.46 1.05 1.49 1.11 1.5 1.16 1.52 1.2 1.52 1.25 1.52 1.29 1.51 1.33 1.5 1.36 1.48 1.4 1.46 1.43 1.43 1.45 1.39 1.47 1.35 1.49 1.31 0 0zm143.33 102.83l-7.22 14.14 0 0 -7.64 -3.95 -7.33 -3.89 -7.03 -3.84 -6.74 -3.78 -6.46 -3.73 -6.2 -3.68 -5.94 -3.63 -5.7 -3.58 -5.47 -3.53 -5.25 -3.49 -5.04 -3.44 -4.85 -3.4 -4.66 -3.36 -4.49 -3.32 -4.32 -3.28 -4.17 -3.24 -4.03 -3.21 -3.9 -3.17 -3.78 -3.14 -3.67 -3.11 -3.57 -3.07 -3.49 -3.04 -3.41 -3.01 -3.35 -2.98 -3.3 -2.96 -3.26 -2.93 -3.23 -2.91 -3.21 -2.88 -3.21 -2.86 -3.22 -2.84 -3.23 -2.83 -3.27 -2.81 10.31 -12.07 3.36 2.89 3.31 2.89 3.28 2.9 3.25 2.9 3.24 2.91 3.24 2.91 3.25 2.92 3.27 2.93 3.31 2.94 3.35 2.96 3.41 2.98 3.48 3 3.57 3.02 3.66 3.04 3.77 3.07 3.89 3.1 4.02 3.13 4.17 3.17 4.33 3.2 4.5 3.24 4.68 3.28 4.87 3.33 5.08 3.37 5.3 3.42 5.53 3.47 5.77 3.52 6.03 3.58 6.3 3.63 6.58 3.69 6.87 3.75 7.17 3.81 7.49 3.87 0 0zm7.53 1.48l11.59 -10.85 0 0 1.13 1.34 0.99 1.48 0.81 1.62 0.6 1.74 0.35 1.81 0.09 1.83 -0.17 1.79 -0.4 1.69 -0.59 1.57 -0.74 1.43 -0.86 1.28 -0.94 1.15 -1.01 1.04 -1.07 0.93 -1.11 0.84 -1.16 0.75 -1.19 0.67 -1.23 0.6 -1.26 0.53 -1.3 0.46 -1.33 0.39 -1.35 0.31 -1.38 0.24 -1.41 0.16 -1.43 0.08 -1.45 -0 -1.47 -0.09 -1.49 -0.19 -1.5 -0.3 -1.5 -0.42 -1.49 -0.54 -1.47 -0.67 7.22 -14.14 0.28 0.13 0.31 0.11 0.35 0.1 0.39 0.08 0.43 0.06 0.46 0.03 0.48 0 0.5 -0.03 0.51 -0.06 0.51 -0.09 0.5 -0.12 0.49 -0.14 0.46 -0.16 0.43 -0.18 0.39 -0.19 0.34 -0.19 0.28 -0.18 0.22 -0.16 0.15 -0.13 0.08 -0.08 0.02 -0.02 -0.04 0.07 -0.09 0.17 -0.1 0.27 -0.08 0.36 -0.04 0.43 0.02 0.46 0.08 0.42 0.11 0.33 0.1 0.21 0.04 0.07 -0.06 -0.07 0 0zm-111.91 -138.13l8.83 13.2 1.3 -12.11 3.27 3.41 3.31 3.5 3.35 3.58 3.39 3.65 3.42 3.72 3.45 3.78 3.48 3.85 3.51 3.9 3.54 3.95 3.56 3.99 3.58 4.03 3.6 4.07 3.61 4.1 3.63 4.12 3.64 4.14 3.65 4.16 3.65 4.17 3.65 4.17 3.66 4.17 3.65 4.16 3.65 4.15 3.64 4.14 3.63 4.11 3.62 4.09 3.61 4.05 3.59 4.02 3.57 3.97 3.55 3.93 3.52 3.87 3.49 3.82 3.46 3.75 3.43 3.68 -11.59 10.85 -3.48 -3.74 -3.51 -3.8 -3.54 -3.86 -3.56 -3.91 -3.58 -3.96 -3.6 -4.01 -3.61 -4.04 -3.63 -4.08 -3.64 -4.11 -3.65 -4.13 -3.65 -4.15 -3.66 -4.16 -3.66 -4.17 -3.66 -4.17 -3.66 -4.17 -3.65 -4.16 -3.64 -4.15 -3.63 -4.13 -3.62 -4.11 -3.6 -4.08 -3.58 -4.05 -3.56 -4.01 -3.54 -3.97 -3.51 -3.92 -3.48 -3.87 -3.45 -3.81 -3.41 -3.74 -3.38 -3.67 -3.34 -3.6 -3.3 -3.52 -3.25 -3.43 -3.2 -3.34 1.3 -12.11zm-1.3 12.11l-6.6 -6.83 7.89 -5.28 -1.3 12.11zm57.65 -30.7l-47.53 31.79 -8.83 -13.2 47.53 -31.79 12.34 6.19 -3.51 7.01zm-8.83 -13.2l11.62 -7.77 0.72 13.96 -12.34 -6.19zm-1.22 51.48l-2.29 -44.47 15.86 -0.82 2.29 44.47 -7.93 8.35 -7.93 -7.53zm7.93 7.53l-7.54 0 -0.39 -7.53 7.93 7.53zm183.8 0l-183.8 0 0 -15.88 183.8 0 7.94 7.94 -7.94 7.94zm7.94 -7.94l0 7.94 -7.94 0 7.94 -7.94zm0 -41.44l0 41.44 -15.88 0 0 -41.44 12.96 -6.15 2.92 6.15zm-15.88 0l0 -16.72 12.96 10.57 -12.96 6.15zm79.35 46.63l5.03 15.06 -6.94 -0.94 -3.99 -2.69 -3.92 -2.67 -3.84 -2.64 -3.76 -2.61 -3.68 -2.58 -3.6 -2.54 -3.51 -2.49 -3.42 -2.45 -3.32 -2.4 -3.22 -2.34 -3.12 -2.28 -3.01 -2.22 -2.9 -2.15 -2.79 -2.08 -2.67 -2 -2.55 -1.92 -2.42 -1.84 -2.29 -1.75 -2.16 -1.66 -2.02 -1.56 -1.89 -1.46 -1.74 -1.36 -1.59 -1.25 -1.44 -1.14 -1.29 -1.02 -1.13 -0.9 -0.97 -0.77 -0.8 -0.64 -0.63 -0.51 -0.46 -0.37 -0.28 -0.23 -0.11 -0.09 10.03 -12.3 0.08 0.06 0.26 0.21 0.44 0.35 0.61 0.49 0.78 0.62 0.94 0.75 1.1 0.88 1.26 1 1.41 1.11 1.57 1.23 1.71 1.33 1.85 1.44 1.99 1.54 2.13 1.63 2.26 1.73 2.39 1.81 2.51 1.9 2.63 1.98 2.75 2.05 2.86 2.12 2.97 2.19 3.08 2.25 3.18 2.31 3.28 2.36 3.37 2.41 3.46 2.46 3.55 2.5 3.63 2.54 3.71 2.57 3.79 2.6 3.86 2.63 3.93 2.65 -6.94 -0.94zm5.03 15.06l-3.7 1.23 -3.24 -2.17 6.94 0.94zm27.01 -35.89l10.85 11.59 -0 0 -1.8 1.65 -1.79 1.58 -1.78 1.52 -1.76 1.45 -1.74 1.39 -1.72 1.32 -1.69 1.26 -1.67 1.19 -1.63 1.13 -1.6 1.07 -1.56 1.01 -1.52 0.96 -1.48 0.9 -1.43 0.84 -1.38 0.79 -1.33 0.74 -1.28 0.68 -1.22 0.63 -1.16 0.58 -1.1 0.53 -1.03 0.49 -0.96 0.44 -0.89 0.4 -0.82 0.35 -0.74 0.31 -0.66 0.27 -0.58 0.23 -0.48 0.19 -0.4 0.15 -0.31 0.11 -0.2 0.07 -0.14 0.05 -5.03 -15.06 -0.04 0.01 0.09 -0.03 0.16 -0.06 0.25 -0.09 0.35 -0.13 0.42 -0.17 0.5 -0.2 0.58 -0.24 0.66 -0.28 0.73 -0.32 0.79 -0.36 0.86 -0.41 0.93 -0.45 0.98 -0.49 1.04 -0.54 1.1 -0.59 1.15 -0.63 1.2 -0.68 1.24 -0.73 1.28 -0.78 1.33 -0.83 1.36 -0.88 1.4 -0.94 1.43 -0.99 1.46 -1.05 1.48 -1.1 1.51 -1.16 1.53 -1.22 1.55 -1.27 1.56 -1.33 1.58 -1.4 1.59 -1.46 -0 0zm114.58 -145.81l13.99 7.5 -0 0 -3.62 6.64 -3.66 6.49 -3.69 6.35 -3.72 6.2 -3.74 6.06 -3.76 5.92 -3.78 5.79 -3.8 5.65 -3.81 5.52 -3.82 5.39 -3.83 5.26 -3.83 5.13 -3.83 5.01 -3.83 4.89 -3.83 4.77 -3.82 4.65 -3.8 4.54 -3.79 4.42 -3.77 4.31 -3.75 4.2 -3.73 4.1 -3.7 3.99 -3.67 3.89 -3.64 3.79 -3.6 3.69 -3.56 3.59 -3.52 3.5 -3.47 3.41 -3.42 3.32 -3.37 3.23 -3.31 3.14 -3.26 3.06 -10.85 -11.59 3.2 -3.01 3.26 -3.09 3.31 -3.17 3.35 -3.25 3.4 -3.34 3.44 -3.42 3.48 -3.51 3.51 -3.6 3.54 -3.69 3.58 -3.79 3.6 -3.89 3.63 -3.98 3.65 -4.09 3.67 -4.19 3.68 -4.3 3.7 -4.41 3.71 -4.52 3.71 -4.63 3.72 -4.74 3.72 -4.86 3.72 -4.98 3.71 -5.1 3.71 -5.23 3.7 -5.36 3.69 -5.48 3.67 -5.61 3.65 -5.75 3.63 -5.88 3.61 -6.02 3.58 -6.16 3.55 -6.3 3.52 -6.45 -0 0zm-3.82 -2.31l-10.36 -12.03 -0.29 0.26 1.33 -1.15 1.41 -1.02 1.48 -0.87 1.54 -0.72 1.58 -0.56 1.6 -0.4 1.61 -0.25 1.6 -0.09 1.57 0.05 1.54 0.18 1.5 0.31 1.45 0.43 1.39 0.54 1.34 0.65 1.28 0.75 1.21 0.84 1.14 0.93 1.07 1.02 0.99 1.11 0.9 1.19 0.81 1.28 0.71 1.36 0.6 1.43 0.48 1.5 0.34 1.56 0.2 1.62 0.04 1.65 -0.12 1.67 -0.28 1.68 -0.45 1.66 -0.61 1.63 -0.76 1.59 -13.99 -7.5 0.15 -0.31 0.09 -0.25 0.06 -0.21 0.03 -0.17 0.01 -0.15 -0 -0.13 -0.02 -0.13 -0.03 -0.13 -0.04 -0.14 -0.06 -0.15 -0.08 -0.16 -0.1 -0.16 -0.13 -0.17 -0.15 -0.16 -0.16 -0.16 -0.18 -0.15 -0.19 -0.13 -0.2 -0.12 -0.2 -0.1 -0.2 -0.08 -0.19 -0.06 -0.18 -0.04 -0.17 -0.02 -0.16 -0.01 -0.14 0.01 -0.14 0.02 -0.14 0.03 -0.15 0.05 -0.16 0.08 -0.19 0.11 -0.22 0.16 -0.26 0.23 -0.29 0.26zm0.29 -0.26l-0.15 0.14 -0.15 0.13 0.29 -0.26z"/>
    </g>
    <polygon class="fil5" points="332.7,728.08 304.62,716.98 304.62,713.77 333.28,724.53 "/>
    <polygon class="fil4" points="304.62,713.77 334.94,713.77 333.28,724.53 "/>
    <path class="fil6" d="M416.87 482.93l24.1 -50.04 -1.81 -4.71c-1.13,-2.92 1.29,-6 4.4,-5.58l22.29 2.98 20.21 -27.75 -22.66 -41.66c0,0 -3.86,30.24 -31.74,30.72l-8.99 0 -4.79 -13.13c0,0 -14.07,-1.83 -7.66,20.07 0,0 5.03,26.31 -13.34,37.25l20 51.86z"/>
    <path class="fil7" d="M405.54 453.56l11.33 29.38 24.1 -50.04 -1.81 -4.71c-1.13,-2.92 1.29,-6 4.4,-5.58l2.62 0.35 -13.55 -2.27 -27.09 32.88z"/>
    <path class="fil6" d="M720.76 423.96l-31.52 27.13 0 0c0,0 10.21,21.87 26.33,21 7.21,-11.24 14.3,-23.21 21.2,-36.05 5.43,-10.12 -7.67,-19.99 -16,-12.07z"/>
    <path class="fil2" d="M734.2 423.48l-30.56 45.04c0,0 -66.23,90.7 -117.99,125.22l-85.16 -60.16 0 60.16 11.23 0 0 -41.44c0,0 31.37,25.58 73.92,54.15 0,0 16.86,-5.62 34.95,-22.57 34.15,-31.97 78.26,-77.28 116.15,-147.86 2.64,-4.92 0.89,-9.76 -2.56,-12.55z"/>
    <path class="fil8" d="M734.2 423.48l-30.54 45.02c3.46,2.29 7.45,3.83 11.91,3.59 7.21,-11.24 14.3,-23.21 21.2,-36.05 2.64,-4.92 0.88,-9.77 -2.56,-12.55z"/>
    <path class="fil2" d="M335.93 602.97c8.97,2.09 19.11,1.3 27.9,-0.31l-28.9 -76.79 -69.2 53.94 59.91 -30.55c0.76,14.83 9.54,38.88 10.3,53.7z"/>
    <path class="fil9" d="M229.59 614.32c29.45,25.16 57.15,53.42 112.55,86.27l1.3 -3.33 -3.76 -12.07c-30.54,-13.9 -129.18,-108.9 -129.18,-108.9 0,0 1.48,22.98 19.1,38.03z"/>
    <polygon class="fil10" points="561.13,728.08 332.7,728.08 357.23,577.26 585.65,577.26 "/>
    <path class="fil1" d="M464.7 1171.33c6.96,5.44 18.56,4.38 22.96,-5.67 41,-93.79 123.23,-264.95 112.32,-405.78 0,0 -0.15,1.21 -0.49,3.53 -4.05,28.34 -34.65,222.69 -134.79,407.92z"/>
    <path class="fil2" d="M340.48 1115.25c9.73,19.51 20.26,39.65 31.85,60.54 7.86,14.16 29.47,7.95 28.51,-8.22 -1.19,-20.07 -2.72,-43.89 -4.61,-69.84 -0.02,0.01 -25.68,14.96 -55.75,17.52z"/>
    <path class="fil3" d="M391.15 1182.6c-8.94,-14.24 -20.52,-39.25 -33.36,-70.15 -5.48,1.28 -11.3,2.3 -17.3,2.8 9.73,19.51 20.26,39.65 31.85,60.54 4.19,7.56 12.29,9.27 18.8,6.8z"/>
    <path class="fil2" d="M459.75 1088.11c-0.39,22.41 -0.61,46.22 -0.57,71.59 0.02,16.11 22.02,20.72 28.47,5.96 8.48,-19.4 18.74,-42.15 29.56,-67.21 -21.65,3.17 -57.34,-10.3 -57.46,-10.34z"/>
    <path class="fil3" d="M500.59 1098.34c-10.85,24.22 -22.76,48.68 -35.9,72.99 6.96,5.44 18.56,4.38 22.96,-5.67 8.48,-19.4 18.74,-42.15 29.56,-67.21 -5,0.73 -10.73,0.57 -16.62,-0.1z"/>
    <polygon class="fil11" points="1120.99,236.18 913.61,0 706.22,236.18 780.44,236.18 780.44,789.69 1046.77,789.69 1046.77,236.18 "/>
    <polygon class="fil11" points="1046.77,301.58 780.44,626.03 780.44,236.18 706.22,236.18 913.61,0 1120.99,236.18 1046.77,236.18 "/>
    <g>
     <path class="fil4" d="M1475.11 795.22c0,0 -88.64,-39.22 -110.3,-89.11 0,0 66.3,-47.05 156.85,-47.04 8.22,0 11.07,11.07 4.08,15.4 -19.9,12.32 -51.36,25.26 -95.18,41.33l94.12 30.95 -49.57 48.47z"/>
     <path id="_1_1" class="fil3" d="M1360.22 699.63l9.19 12.95 2.69 -9.63 1.98 4.14 2.33 4.13 2.67 4.12 2.99 4.09 3.27 4.06 3.54 4 3.77 3.94 3.98 3.87 4.16 3.79 4.3 3.7 4.42 3.61 4.51 3.5 4.57 3.39 4.6 3.27 4.61 3.14 4.58 3.01 4.52 2.87 4.44 2.72 4.32 2.57 4.18 2.42 4.01 2.25 3.81 2.08 3.58 1.91 3.32 1.73 3.03 1.54 2.71 1.35 2.37 1.16 1.99 0.96 1.59 0.75 1.16 0.54 0.71 0.32 0.19 0.09 -6.42 14.52 -0.32 -0.14 -0.78 -0.36 -1.25 -0.58 -1.69 -0.8 -2.1 -1.01 -2.48 -1.21 -2.83 -1.41 -3.16 -1.61 -3.45 -1.8 -3.72 -1.98 -3.96 -2.17 -4.17 -2.34 -4.35 -2.51 -4.5 -2.68 -4.63 -2.84 -4.73 -3 -4.8 -3.15 -4.84 -3.3 -4.86 -3.45 -4.84 -3.59 -4.8 -3.73 -4.74 -3.86 -4.64 -3.99 -4.52 -4.12 -4.36 -4.25 -4.18 -4.38 -3.98 -4.5 -3.74 -4.63 -3.47 -4.76 -3.17 -4.89 -2.84 -5.02 -2.46 -5.15 2.69 -9.63zm-2.69 9.63l-2.56 -5.91 5.25 -3.73 -2.69 9.63zm164.13 -58.14l0 15.88 -0 0 -8.16 0.13 -8.02 0.38 -7.87 0.61 -7.71 0.83 -7.55 1.03 -7.38 1.22 -7.2 1.39 -7.01 1.54 -6.82 1.67 -6.61 1.79 -6.4 1.89 -6.18 1.98 -5.95 2.05 -5.72 2.1 -5.48 2.13 -5.22 2.15 -4.97 2.15 -4.7 2.13 -4.42 2.09 -4.14 2.04 -3.85 1.97 -3.55 1.89 -3.24 1.79 -2.93 1.67 -2.61 1.53 -2.28 1.38 -1.94 1.2 -1.59 1.02 -1.24 0.81 -0.88 0.59 -0.51 0.35 -0.11 0.07 -9.19 -12.95 0.28 -0.2 0.63 -0.43 1.02 -0.68 1.39 -0.91 1.75 -1.12 2.1 -1.31 2.45 -1.48 2.79 -1.63 3.12 -1.77 3.44 -1.89 3.76 -2 4.07 -2.09 4.37 -2.15 4.66 -2.21 4.95 -2.24 5.23 -2.26 5.5 -2.26 5.76 -2.24 6.02 -2.21 6.27 -2.15 6.51 -2.08 6.74 -1.99 6.97 -1.89 7.19 -1.76 7.4 -1.62 7.61 -1.47 7.8 -1.29 7.99 -1.1 8.17 -0.88 8.35 -0.65 8.51 -0.4 8.67 -0.14 -0 0zm8.26 30.09l-8.35 -13.5 -0 0 0.08 -0.05 0.04 -0.04 0.02 -0.02 0.01 -0.01 0 -0 0 -0 0 -0.01 0 -0.01 0.01 -0.02 0.01 -0.03 0.01 -0.04 0 -0.05 -0 -0.06 -0 -0.07 -0.01 -0.07 -0.01 -0.07 -0.02 -0.06 -0.02 -0.06 -0.02 -0.05 -0.02 -0.03 -0.01 -0.02 -0.01 -0.01 0 0 0.01 0.01 0.02 0.02 0.03 0.02 0.03 0.02 0.03 0.01 0.02 0.01 -0.01 -0 -0.03 -0 -0.08 -0 0 -15.88 1.43 0.06 1.41 0.18 1.37 0.3 1.33 0.42 1.27 0.53 1.2 0.63 1.13 0.73 1.05 0.81 0.96 0.88 0.87 0.94 0.78 0.99 0.69 1.04 0.61 1.08 0.52 1.11 0.44 1.14 0.35 1.17 0.27 1.19 0.18 1.2 0.09 1.22 0 1.23 -0.09 1.24 -0.18 1.24 -0.28 1.23 -0.38 1.23 -0.49 1.21 -0.59 1.18 -0.7 1.14 -0.8 1.1 -0.91 1.04 -1 0.97 -1.1 0.89 -1.17 0.8 -0 0zm-96.88 27.04l-4.96 15.08 -0.25 -14.99 4.06 -1.49 3.98 -1.47 3.91 -1.46 3.84 -1.44 3.77 -1.42 3.69 -1.4 3.62 -1.39 3.55 -1.37 3.47 -1.36 3.4 -1.34 3.33 -1.33 3.25 -1.31 3.18 -1.3 3.11 -1.29 3.04 -1.27 2.96 -1.26 2.89 -1.25 2.82 -1.24 2.75 -1.23 2.67 -1.21 2.6 -1.2 2.53 -1.19 2.46 -1.18 2.38 -1.17 2.31 -1.16 2.24 -1.15 2.17 -1.14 2.09 -1.13 2.02 -1.12 1.95 -1.12 1.88 -1.11 1.8 -1.1 8.35 13.5 -2 1.22 -2.06 1.22 -2.12 1.22 -2.19 1.22 -2.25 1.22 -2.31 1.22 -2.38 1.22 -2.44 1.23 -2.51 1.23 -2.57 1.24 -2.64 1.24 -2.71 1.25 -2.77 1.26 -2.84 1.27 -2.91 1.28 -2.97 1.28 -3.04 1.29 -3.11 1.3 -3.18 1.31 -3.25 1.33 -3.31 1.34 -3.38 1.35 -3.45 1.36 -3.52 1.38 -3.59 1.39 -3.66 1.41 -3.73 1.42 -3.8 1.44 -3.87 1.45 -3.94 1.47 -4.01 1.48 -4.09 1.5 -0.25 -14.99zm-4.96 15.08l-21.69 -7.13 21.43 -7.86 0.25 14.99zm94.12 30.95l-94.12 -30.95 4.96 -15.08 94.12 30.95 3.07 13.22 -8.03 1.87zm4.96 -15.08l12.41 4.08 -9.34 9.14 -3.07 -13.22zm-57.6 50.34l49.57 -48.47 11.1 11.35 -49.57 48.47 -8.76 1.58 -2.34 -12.94zm11.1 11.35l-3.84 3.76 -4.92 -2.18 8.76 -1.58z"/>
    </g>
    <path class="fil9" d="M1529.58 666.76c0.21,2.88 -0.9,5.89 -3.84,7.71 -19.9,12.32 -51.36,25.26 -95.18,41.33l-24.23 0.09c29.21,-10.67 80.24,-36.47 123.25,-49.12z"/>
    <path class="fil2" d="M1475.12 795.22c0,0 -78.56,-36.81 -100.22,-86.7 0,0 32.98,46.27 108.23,57.17l12.73 9.25 -20.73 20.28z"/>
    <path class="fil6" d="M1525.74 674.47c-8.78,5.43 -19.94,11.01 -33.29,16.9 -18.84,-15.21 -2.91,-30.25 -2.8,-30.36 10.26,-1.23 20.94,-1.94 31.99,-1.94 8.22,0 11.08,11.07 4.09,15.4z"/>
    <path class="fil12" d="M1529.58 666.76c0.21,2.88 -0.9,5.89 -3.84,7.71 -8.78,5.43 -19.94,11.01 -33.29,16.9 -4.13,-3.34 -6.52,-6.65 -7.84,-9.82 19.82,-7.23 37.73,-12.66 44.97,-14.79z"/>
    <path class="fil1" d="M1514.61 655.3l-2.73 -32.94c-0.01,-5.32 54.57,-7.1 81.06,9.1 0,0 28.58,45.49 -26.78,106.38l-37.05 -50.4 -14.5 -32.14z"/>
    <path class="fil6" d="M1530.83 734.05l1.37 -16.66 -20.32 2.9 -19.6 -29.99 28.12 -39.72c0,0 5.74,29.36 33.26,33.1l13.51 -15.89c0,0 12.23,12.91 -2.04,34.31 0,0 -9.13,18.12 1.04,35.73l-35.33 -3.78z"/>
    <polygon class="fil13" points="1536.32,732.23 1549.28,738.7 1540.22,745.01 1533.22,742.71 "/>
    <path class="fil1" d="M1488.44 1074.43l-61.02 264.02 90.89 315.4c5.2,16.67 29.73,13.18 30.09,-4.27l6.82 -333.4 -66.78 -241.75z"/>
    <path class="fil0" d="M1456.97 1342.98l57.65 252.36 18.39 69.31c-6.18,0.06 -12.38,-3.33 -14.71,-10.79l-90.89 -315.4 61.02 -264.02 -31.46 268.54z"/>
    <path class="fil3" d="M1549.67 1586.98l-1.28 62.61c-0.36,17.45 -24.89,20.94 -30.09,4.27l-17.27 -59.93c-0,0 13.39,6.31 48.64,-6.95z"/>
    <g>
     <path class="fil4" d="M1283.15 731.39c-4.76,-8.52 6.07,-17.21 13.33,-10.68 41.57,37.38 106.16,94.15 122.48,101.02l99.68 -75.26c21.93,-16.56 53.64,-7.1 62.81,18.8 17.96,50.76 41.85,143.43 50.52,291.73 -0.16,0.14 -60.75,52.38 -143.53,17.42 -2.64,-71.61 -3.35,-145.71 -1.26,-220.88l-69.51 22.63c-0,0 -53.51,0.51 -134.52,-144.78z"/>
     <path id="_1_2" class="fil3" d="M1301.79 714.81l-10.62 11.81 -0 -0 -0.15 -0.12 -0.1 -0.07 -0.07 -0.04 -0.04 -0.02 -0.02 -0.01 -0 0 -0.01 0 -0.01 0 -0.02 0 -0.04 0.01 -0.05 0.01 -0.07 0.02 -0.07 0.03 -0.08 0.04 -0.09 0.06 -0.08 0.06 -0.08 0.07 -0.07 0.07 -0.06 0.07 -0.05 0.07 -0.04 0.06 -0.03 0.05 -0.01 0.04 -0.01 0.02 -0 0.02 -0 0.01 -0 0.01 0 0.02 0.01 0.04 0.02 0.08 0.05 0.12 0.09 0.17 -13.86 7.74 -0.72 -1.43 -0.58 -1.48 -0.44 -1.51 -0.29 -1.53 -0.14 -1.53 0.01 -1.51 0.15 -1.48 0.28 -1.44 0.4 -1.39 0.51 -1.32 0.61 -1.26 0.71 -1.19 0.79 -1.11 0.87 -1.04 0.95 -0.96 1.02 -0.88 1.08 -0.8 1.14 -0.71 1.2 -0.63 1.26 -0.53 1.31 -0.43 1.36 -0.32 1.4 -0.21 1.44 -0.09 1.47 0.05 1.48 0.18 1.48 0.33 1.46 0.47 1.43 0.62 1.38 0.76 1.31 0.89 1.23 1.01 -0 -0zm112.39 100.59l9.57 12.67 -7.86 0.98 -2.22 -1.05 -2.3 -1.26 -2.44 -1.48 -2.62 -1.71 -2.81 -1.92 -3 -2.14 -3.18 -2.34 -3.35 -2.53 -3.52 -2.72 -3.68 -2.89 -3.82 -3.05 -3.96 -3.2 -4.08 -3.33 -4.19 -3.46 -4.28 -3.57 -4.37 -3.67 -4.44 -3.76 -4.5 -3.83 -4.55 -3.9 -4.58 -3.95 -4.6 -3.98 -4.61 -4.01 -4.6 -4.02 -4.58 -4.02 -4.55 -4.01 -4.51 -3.98 -4.45 -3.94 -4.38 -3.89 -4.3 -3.83 -4.2 -3.75 -4.09 -3.67 -3.97 -3.56 10.62 -11.81 3.96 3.55 4.08 3.65 4.19 3.74 4.28 3.82 4.36 3.88 4.43 3.93 4.49 3.97 4.53 3.99 4.56 4 4.58 4 4.58 3.99 4.57 3.96 4.55 3.92 4.51 3.87 4.46 3.8 4.4 3.72 4.32 3.63 4.23 3.53 4.13 3.41 4.01 3.28 3.88 3.14 3.74 2.98 3.58 2.81 3.4 2.62 3.21 2.43 3.01 2.21 2.78 1.98 2.53 1.74 2.26 1.47 1.95 1.19 1.58 0.87 1.12 0.53 -7.86 0.98zm9.57 12.67l-3.65 2.76 -4.21 -1.77 7.86 -0.98zm99.68 -75.26l-99.68 75.26 -9.57 -12.67 99.68 -75.26 0 0 9.57 12.67zm65.51 9.82l-14.97 5.3 0 0 -0.75 -1.93 -0.85 -1.84 -0.94 -1.76 -1.03 -1.67 -1.12 -1.58 -1.2 -1.5 -1.28 -1.41 -1.35 -1.33 -1.42 -1.24 -1.48 -1.15 -1.54 -1.06 -1.6 -0.97 -1.65 -0.88 -1.7 -0.78 -1.74 -0.68 -1.77 -0.58 -1.8 -0.48 -1.83 -0.38 -1.85 -0.28 -1.86 -0.17 -1.87 -0.07 -1.88 0.04 -1.87 0.15 -1.87 0.26 -1.86 0.37 -1.85 0.48 -1.83 0.59 -1.81 0.71 -1.78 0.83 -1.76 0.95 -1.72 1.07 -1.69 1.2 -9.57 -12.67 2.47 -1.75 2.54 -1.58 2.6 -1.41 2.66 -1.23 2.7 -1.06 2.73 -0.89 2.76 -0.72 2.78 -0.55 2.79 -0.38 2.79 -0.22 2.79 -0.06 2.78 0.1 2.76 0.26 2.73 0.41 2.7 0.57 2.66 0.72 2.62 0.86 2.57 1.01 2.51 1.16 2.45 1.3 2.38 1.44 2.3 1.58 2.21 1.72 2.12 1.85 2.02 1.99 1.91 2.12 1.79 2.24 1.67 2.37 1.54 2.49 1.4 2.61 1.25 2.72 1.1 2.83 0 0zm48.27 300.34l-10.48 -11.93 -2.69 6.43 -0.85 -13.68 -0.94 -13.36 -1.02 -13.03 -1.1 -12.71 -1.17 -12.4 -1.24 -12.08 -1.3 -11.77 -1.36 -11.46 -1.42 -11.16 -1.48 -10.85 -1.53 -10.55 -1.57 -10.25 -1.61 -9.96 -1.65 -9.66 -1.69 -9.37 -1.72 -9.08 -1.74 -8.8 -1.77 -8.51 -1.78 -8.23 -1.8 -7.96 -1.81 -7.68 -1.82 -7.41 -1.82 -7.13 -1.82 -6.87 -1.82 -6.6 -1.81 -6.34 -1.79 -6.08 -1.78 -5.82 -1.76 -5.56 -1.74 -5.31 -1.71 -5.06 -1.68 -4.81 14.97 -5.3 1.73 4.96 1.76 5.2 1.78 5.45 1.8 5.71 1.82 5.96 1.84 6.22 1.85 6.48 1.85 6.74 1.86 7.01 1.86 7.28 1.85 7.55 1.84 7.82 1.83 8.09 1.81 8.37 1.79 8.65 1.77 8.94 1.74 9.22 1.71 9.51 1.68 9.8 1.64 10.09 1.59 10.39 1.54 10.69 1.49 10.99 1.44 11.29 1.38 11.59 1.32 11.9 1.25 12.21 1.18 12.53 1.11 12.84 1.03 13.16 0.95 13.48 0.86 13.8 -2.69 6.43zm2.69 -6.43l0.23 3.87 -2.91 2.56 2.69 -6.43zm-159.38 18.18l15.87 -0.58 -4.84 -7.02 7.33 2.88 7.18 2.41 7.03 1.97 6.87 1.56 6.71 1.17 6.55 0.81 6.38 0.47 6.21 0.15 6.03 -0.14 5.85 -0.4 5.66 -0.64 5.47 -0.86 5.27 -1.05 5.07 -1.22 4.85 -1.37 4.64 -1.49 4.41 -1.59 4.17 -1.66 3.93 -1.71 3.68 -1.74 3.43 -1.74 3.16 -1.71 2.89 -1.66 2.61 -1.59 2.32 -1.49 2.03 -1.36 1.72 -1.21 1.41 -1.04 1.1 -0.84 0.77 -0.61 0.45 -0.37 0.01 -0.01 10.48 11.93 -0.37 0.31 -0.63 0.51 -0.98 0.78 -1.33 1.01 -1.66 1.22 -1.99 1.4 -2.31 1.55 -2.62 1.68 -2.93 1.78 -3.24 1.86 -3.53 1.91 -3.82 1.94 -4.1 1.93 -4.38 1.91 -4.65 1.85 -4.92 1.77 -5.17 1.66 -5.42 1.53 -5.67 1.37 -5.9 1.18 -6.13 0.96 -6.35 0.72 -6.57 0.45 -6.77 0.15 -6.97 -0.17 -7.15 -0.52 -7.33 -0.9 -7.5 -1.31 -7.65 -1.74 -7.8 -2.19 -7.94 -2.67 -8.06 -3.17 -4.84 -7.02zm4.84 7.02l-4.66 -1.97 -0.19 -5.05 4.84 7.02zm4.28 -220.65l-4.92 -15.1 10.39 7.77 -0.19 7.03 -0.17 7.02 -0.15 7.01 -0.14 7.01 -0.12 7 -0.11 6.99 -0.09 6.98 -0.08 6.98 -0.06 6.97 -0.05 6.96 -0.03 6.95 -0.02 6.94 -0 6.93 0.01 6.92 0.03 6.91 0.04 6.9 0.05 6.89 0.07 6.88 0.08 6.87 0.09 6.86 0.11 6.85 0.12 6.84 0.13 6.83 0.15 6.81 0.16 6.8 0.17 6.79 0.18 6.78 0.19 6.76 0.21 6.75 0.22 6.73 0.23 6.72 0.24 6.71 -15.87 0.58 -0.24 -6.73 -0.23 -6.75 -0.22 -6.76 -0.21 -6.78 -0.2 -6.79 -0.18 -6.8 -0.17 -6.82 -0.16 -6.83 -0.15 -6.84 -0.13 -6.86 -0.12 -6.87 -0.11 -6.88 -0.09 -6.89 -0.08 -6.9 -0.07 -6.91 -0.05 -6.92 -0.04 -6.93 -0.03 -6.95 -0.01 -6.96 0 -6.97 0.02 -6.97 0.03 -6.98 0.05 -6.99 0.06 -7 0.08 -7.01 0.09 -7.02 0.11 -7.03 0.12 -7.03 0.14 -7.04 0.16 -7.05 0.17 -7.06 0.19 -7.06 10.39 7.77zm-4.92 -15.1l10.7 -3.49 -0.31 11.25 -10.39 -7.77zm-69.51 22.63l69.51 -22.63 4.92 15.1 -69.51 22.63 -8.07 -13.16 3.16 -1.93zm-3.16 1.93l1.35 -1.35 1.81 -0.59 -3.16 1.93zm-135.84 -135.3l13.86 -7.74 0 0 7.44 13.08 7.27 12.24 7.09 11.44 6.91 10.66 6.73 9.91 6.53 9.18 6.34 8.49 6.13 7.82 5.92 7.17 5.71 6.55 5.49 5.97 5.27 5.4 5.04 4.87 4.8 4.36 4.56 3.88 4.31 3.43 4.06 3.01 3.81 2.61 3.55 2.24 3.28 1.9 3.01 1.59 2.74 1.31 2.46 1.05 2.18 0.82 1.89 0.62 1.61 0.45 1.32 0.31 1.02 0.19 0.73 0.1 0.44 0.04 0.17 0.01 -5.83 2.32 11.23 11.23 -6.14 2.31 -0.76 -0.05 -1.1 -0.11 -1.41 -0.2 -1.7 -0.32 -1.99 -0.47 -2.27 -0.64 -2.54 -0.84 -2.81 -1.06 -3.07 -1.31 -3.32 -1.59 -3.57 -1.89 -3.81 -2.21 -4.05 -2.56 -4.29 -2.94 -4.51 -3.34 -4.74 -3.77 -4.96 -4.22 -5.17 -4.7 -5.38 -5.2 -5.59 -5.73 -5.79 -6.29 -5.99 -6.87 -6.18 -7.49 -6.37 -8.12 -6.56 -8.78 -6.74 -9.47 -6.92 -10.19 -7.09 -10.93 -7.26 -11.7 -7.42 -12.5 -7.58 -13.32 0 0z"/>
    </g>
    <path class="fil10" d="M1631.96 1057c-7.59,-129.76 -26.82,-216.92 -43.54,-270.69 36.29,116.66 84.43,390.49 -0.35,915.94 -2.59,16.06 -25.59,16.45 -28.62,0.46 -22.09,-116.35 -60.91,-353.75 -71.01,-628.28 82.77,34.96 143.37,-17.28 143.53,-17.42z"/>
    <path class="fil2" d="M1283.15 731.39c-2.26,-4.06 -0.97,-8.14 1.76,-10.61 0.18,0.32 53.56,93.54 127.33,140.92 0,0 61.18,-12.05 93.03,-24.1 0,0 -14.89,157.04 80.42,243.02 -25.05,7.45 -58.74,10.07 -97.25,-6.19 -2.64,-71.61 -3.35,-145.71 -1.26,-220.89l-69.51 22.63c-0.01,0 -53.51,0.51 -134.52,-144.78z"/>
    <path class="fil6" d="M1296.48 720.71c7.12,6.4 14.94,13.39 23.05,20.57l0 0c0,0 -2.95,18.44 -19.81,18.41 -5.38,-8.78 -10.89,-18.15 -16.56,-28.3 -4.76,-8.52 6.06,-17.2 13.32,-10.68z"/>
    <path class="fil14" d="M1308.93 757.38c-2.49,1.4 -5.5,2.32 -9.22,2.31 -5.38,-8.78 -10.89,-18.15 -16.56,-28.3 -2.26,-4.06 -0.97,-8.14 1.76,-10.61 0.07,0.13 8.79,15.35 24.02,36.6z"/>
    <path class="fil0" d="M1559.45 1702.71c-22.09,-116.35 -60.91,-353.75 -71.01,-628.28 16.77,7.08 32.61,10.54 47.24,11.63l0.03 0.42c-13.91,198.4 32.75,593.29 36.92,627.95 -6.01,-0.41 -11.77,-4.25 -13.18,-11.71z"/>
    <path class="fil3" d="M1548.58 1640.38c24.69,11.99 48.84,0.1 49.02,0.01 -2.98,20.23 -6.13,40.82 -9.53,61.86 -2.59,16.06 -25.59,16.45 -28.62,0.46 -3.39,-17.86 -7.18,-38.59 -11.19,-61.85l0.32 -0.48z"/>
    <path class="fil2" d="M1559.45 1702.71c-3.39,-17.86 -7.18,-38.59 -11.19,-61.85l0.32 -0.48c5.53,2.69 11.02,4.13 16.24,4.82 3.93,36.55 6.9,61.6 7.82,69.22 -6,-0.4 -11.76,-4.25 -13.18,-11.71z"/>
    <path class="fil2" d="M1518.3 1653.85l-17.27 -59.93c0,0 4.08,1.89 13.58,1.41l0 0 18.39 69.31c-6.18,0.07 -12.38,-3.33 -14.71,-10.79z"/>
    <path class="fil15" d="M476.92 639.45c1.48,19.56 -19.63,33.22 -36.85,23.66 17.41,13.04 52.28,-3.32 36.85,-23.66z"/>
    <path class="fil15" d="M440.07 663.11c4.78,5.13 11.65,8.52 19.21,8.52 10.22,0 20.62,-5.43 21.87,-16.36 -8.81,14.02 -27.74,17.47 -41.08,7.83z"/>
    <path class="fil15" d="M440.07 663.11c5.93,10.34 19.27,14.62 29.7,9.03 -12.24,3.41 -22.11,-0.96 -29.7,-9.03z"/>
    <path class="fil15" d="M457.1 635.2c1.28,0 2.54,0.13 3.75,0.37 -2.5,-1.72 -5.33,-3 -8.38,-3.72 -11.93,3.95 -18.07,17.08 -13.66,28.69 -0.63,-1.91 -0.98,-3.95 -0.98,-6.07 0,-10.64 8.63,-19.27 19.27,-19.27z"/>
    <path class="fil15" d="M475.7 637.97c-1.99,-2.2 -4.43,-4 -7.16,-5.25 1.77,2.91 2.9,6.11 3.37,9.41 1.32,1.59 2.4,3.39 3.16,5.35 0.83,-3.12 1.03,-6.35 0.64,-9.51zm-16.28 -7.24l0 0c-0.01,-0 -0.02,-0 -0.02,-0 -1.46,0 -2.89,0.14 -4.27,0.42 0.68,0.3 1.35,0.62 2.01,0.98 2.1,1.12 4,2.45 5.72,3.94 0.73,0.23 1.45,0.5 2.14,0.81 -1.48,-2.31 -3.35,-4.4 -5.58,-6.15zm1.63 0.06l0 0c2.22,1.98 4.04,4.3 5.43,6.83 1.53,0.85 2.93,1.9 4.16,3.12 -0.68,-3.09 -1.94,-6.05 -3.73,-8.7 -1.85,-0.67 -3.82,-1.1 -5.86,-1.25z"/>
    <polygon class="fil15" points="448.87,661.74 452.28,645.73 445.79,645.73 446.91,640.59 466.94,640.59 465.82,645.73 459.32,645.73 455.92,661.74 "/>
    <polygon class="fil15" points="447.84,666.62 448.58,663.32 455.63,663.32 454.89,666.62 "/>
   </g>
   <g>
    <path class="fil16" d="M897.97 168.57c-1.26,-0.51 -2.46,-1.05 -3.55,-1.6 -15.95,-8.22 -13.76,-24.89 3.54,-30.88l0.01 32.49zm-0.01 -72.16c-36.24,3.53 -70.42,19.94 -71.94,59.54 -1.71,44.54 35.39,57.58 71.95,66.47l0.01 49.43c-18.04,-7.88 -18.63,-28.95 -18.63,-28.95l-61.43 6.96c4.73,43.13 41.95,59.06 80.07,61.56l0.01 16.48 12.81 0 0 -247.19 -12.83 0 0 15.69z"/>
    <path class="fil16" d="M927.42 273.42l-0.01 -42.94c14.68,5.06 19.74,9.93 22.1,18.2 2.83,9.9 -4.3,20.95 -22.09,24.74zm64.4 -67.63c-18.34,-16.23 -43.34,-23.44 -64.42,-28.81l0 -39.96c12.59,5.96 15.14,18.34 15.14,18.34l59.71 -9.86c-6.76,-27.53 -35.85,-45.82 -74.85,-49.25l-0.01 -15.52 -10.34 0 0 247.19 10.38 0 0 -17.02c21.17,-2.08 39.87,-7.47 49.92,-13.51 31.87,-19.13 44.62,-64.93 14.48,-91.59z"/>
   </g>
  </g>
 </g>
</svg>
