<?xml version="1.0" encoding="UTF-8"?>
<!DOCTYPE svg PUBLIC "-//W3C//DTD SVG 1.1//EN" "http://www.w3.org/Graphics/SVG/1.1/DTD/svg11.dtd">
<!-- Creator: CorelDRAW Standard 2021 (64 Bit) -->
<svg xmlns="http://www.w3.org/2000/svg" xml:space="preserve" width="502.118mm" height="378.263mm" version="1.1" style="shape-rendering:geometricPrecision; text-rendering:geometricPrecision; image-rendering:optimizeQuality; fill-rule:evenodd; clip-rule:evenodd"
viewBox="0 0 1797.65 1354.24"
 xmlns:xlink="http://www.w3.org/1999/xlink"
 xmlns:xodm="http://www.corel.com/coreldraw/odm/2003">
 <defs>
  <style type="text/css">
   <![CDATA[
    .fil17 {fill:#FEFEFE}
    .fil16 {fill:#FBB462}
    .fil6 {fill:#F7F7F8}
    .fil7 {fill:#F7F5F6}
    .fil8 {fill:#F3F4F4}
    .fil9 {fill:#F1F3F4}
    .fil10 {fill:#F1F1F3}
    .fil11 {fill:#F1F1F0}
    .fil12 {fill:#EEEEEF}
    .fil13 {fill:#EEEEEE}
    .fil14 {fill:#ECEDEE}
    .fil2 {fill:#E8D6A4}
    .fil18 {fill:#E2E3E3}
    .fil4 {fill:#D8B77C}
    .fil0 {fill:#B78C58}
    .fil19 {fill:#B6B4B1}
    .fil1 {fill:#094561}
    .fil20 {fill:#094561}
    .fil5 {fill:#D98218}
    .fil3 {fill:#F59B2C}
    .fil15 {fill:#FFCE55}
    .fil21 {fill:#094561;fill-rule:nonzero}
   ]]>
  </style>
 </defs>
 <g id="Camada_x0020_1">
  <metadata id="CorelCorpID_0Corel-Layer"/>
  <g id="_1780834109824">
   <polygon class="fil0" points="1180.14,1035.3 628.91,1354.24 628.31,717.43 1179.55,398.49 "/>
   <path class="fil1" d="M866.52 1153.53l-99.02 57.3 -0.12 -114.43 99.02 -57.29 0.12 114.42zm-104.26 -60.05l0.11 126.19 109.22 -63.2 -0.11 -126.16 -109.22 63.17z"/>
   <polygon class="fil1" points="790.86,1172.06 804.87,1163.96 804.82,1110.72 812.8,1106.12 797.81,1090.52 782.88,1123.42 790.82,1118.82 "/>
   <polygon class="fil1" points="829.07,1149.96 843.07,1141.86 842.99,1088.62 850.97,1084.02 835.96,1068.47 821.05,1101.32 828.99,1096.72 "/>
   <polygon class="fil1" points="856.8,1140.09 777.17,1186.14 777.17,1196.58 856.8,1150.48 "/>
   <path class="fil1" d="M993.75 1079.9l-99.02 57.29 -0.12 -114.39 99.03 -57.32 0.11 114.42zm-104.22 -60.03l0.12 126.17 109.21 -63.2 -0.11 -126.17 -109.22 63.2z"/>
   <path class="fil1" d="M940.43 1066.6l0.04 25.08 -11.59 6.66 -3.57 6.23 0 3.09 37.84 -21.86 -0.03 -3.09 -3.58 -2.09 -11.58 6.69 0 -25.07c12.34,-9.24 21.78,-26.98 21.78,-41.81l-0.03 -26.11 -14.28 8.25 -5.16 16.15 11.98 -6.91 -21.5 41.54 6.98 -25.39 -11.11 6.42 7.39 -25.18 -25.44 14.68 0.05 26.14c0,14.85 9.48,21.59 21.82,16.59z"/>
   <path class="fil1" d="M1121.54 1005.99l-99.02 57.29 -0.12 -114.42 99.03 -57.3 0.11 114.43zm-104.22 -60.08l0.11 126.17 109.19 -63.16 -0.12 -126.2 -109.18 63.19z"/>
   <path class="fil1" d="M1056.36 988.52c4.02,-4.44 8.52,-9.59 13.41,-13.01l-0.19 1.27 0 35.63 -5.36 9.32 -5.35 -3.09 -2.42 -1.39 -2.42 4.17c0,6.5 4.6,9.12 10.19,5.87 5.65,-3.25 10.2,-11.14 10.2,-17.66l-0.03 -35.66 -0.2 -1c4.85,-2.18 9.4,-2.29 13.41,-2.5 4.61,-5.12 8.25,-10.19 13.97,-13.48l10.56 -3.37c-1.82,-17.42 -17.86,-24.16 -37.78,-13.89l0 -8.65 -2.42 -1.38 -2.42 4.21 0.03 8.6c-19.91,12.78 -35.9,38.05 -37.69,57.57l10.55 -8.88c5.68,-3.26 9.37,-2.46 13.97,-2.67z"/>
   <polygon class="fil2" points="628.31,717.43 76.53,399.52 627.72,80.58 1179.55,398.49 "/>
   <polygon class="fil3" points="402.81,587.5 302.04,529.45 853.23,210.52 954.04,268.61 "/>
   <polygon class="fil4" points="80.41,1036.34 632.21,1354.24 631.61,717.43 79.78,399.52 "/>
   <polygon class="fil5" points="305.89,1166.27 406.7,1224.35 406.62,1135.44 305.8,1077.35 "/>
   <polygon class="fil5" points="305.37,618.33 406.18,676.42 406.1,587.5 305.29,529.42 "/>
   <polygon class="fil6" points="1761.52,1158.24 1574.71,1158.24 1572.37,1162.31 1760.38,1162.31 "/>
   <polygon class="fil6" points="1762.6,1154.15 1577.02,1154.15 1574.71,1158.24 1761.52,1158.24 "/>
   <polygon class="fil6" points="1763.57,1150.06 1579.32,1150.06 1577.02,1154.15 1762.6,1154.15 "/>
   <polygon class="fil6" points="1764.47,1145.98 1581.58,1145.98 1579.32,1150.06 1763.57,1150.06 "/>
   <polygon class="fil6" points="1765.28,1141.9 1583.82,1141.9 1581.58,1145.98 1764.47,1145.98 "/>
   <polygon class="fil6" points="1766.04,1137.82 1586.02,1137.82 1583.82,1141.9 1765.28,1141.9 "/>
   <polygon class="fil7" points="1766.69,1133.73 1588.23,1133.73 1586.02,1137.82 1766.04,1137.82 "/>
   <polygon class="fil7" points="1767.27,1129.64 1590.39,1129.64 1588.23,1133.73 1766.69,1133.73 "/>
   <polygon class="fil7" points="1767.77,1125.56 1592.54,1125.56 1590.39,1129.64 1767.27,1129.64 "/>
   <polygon class="fil7" points="1768.2,1121.48 1594.64,1121.48 1592.54,1125.56 1767.77,1125.56 "/>
   <polygon class="fil8" points="1768.54,1117.4 1596.75,1117.4 1594.64,1121.48 1768.2,1121.48 "/>
   <polygon class="fil8" points="1768.82,1113.31 1598.81,1113.31 1596.75,1117.4 1768.54,1117.4 "/>
   <polygon class="fil8" points="1769.01,1109.24 1600.86,1109.24 1598.81,1113.31 1768.82,1113.31 "/>
   <polygon class="fil8" points="1769.13,1105.15 1602.88,1105.15 1600.86,1109.24 1769.01,1109.24 "/>
   <polygon class="fil8" points="1769.17,1101.06 1604.88,1101.06 1602.88,1105.15 1769.13,1105.15 "/>
   <polygon class="fil8" points="1769.16,1096.99 1606.86,1096.99 1604.88,1101.06 1769.17,1101.06 "/>
   <polygon class="fil8" points="1769.05,1092.9 1608.81,1092.9 1606.86,1096.99 1769.16,1096.99 1769.16,1096.91 "/>
   <polygon class="fil8" points="1768.86,1088.82 1610.75,1088.82 1608.81,1092.9 1769.05,1092.9 "/>
   <polygon class="fil8" points="1768.59,1084.73 1612.66,1084.73 1610.75,1088.82 1768.86,1088.82 "/>
   <polygon class="fil8" points="1768.27,1080.64 1614.55,1080.64 1612.66,1084.73 1768.59,1084.73 "/>
   <polygon class="fil8" points="1767.86,1076.57 1616.42,1076.57 1614.55,1080.64 1768.27,1080.64 "/>
   <polygon class="fil8" points="1767.37,1072.49 1618.27,1072.49 1616.42,1076.57 1767.86,1076.57 "/>
   <polygon class="fil8" points="1766.82,1068.4 1620.08,1068.4 1618.27,1072.49 1767.37,1072.49 "/>
   <polygon class="fil8" points="1766.18,1064.31 1621.88,1064.31 1620.08,1068.4 1766.82,1068.4 "/>
   <polygon class="fil8" points="1765.48,1060.24 1623.66,1060.24 1621.88,1064.31 1766.18,1064.31 "/>
   <polygon class="fil8" points="1764.69,1056.15 1625.42,1056.15 1623.66,1060.24 1765.48,1060.24 "/>
   <polygon class="fil8" points="1763.84,1052.06 1627.15,1052.06 1625.42,1056.15 1764.69,1056.15 "/>
   <polygon class="fil9" points="1762.89,1047.98 1628.87,1047.98 1627.15,1052.06 1763.84,1052.06 "/>
   <polygon class="fil9" points="1761.88,1043.89 1630.56,1043.89 1628.87,1047.98 1762.89,1047.98 1762.61,1046.81 "/>
   <polygon class="fil9" points="1760.78,1039.82 1632.24,1039.82 1630.56,1043.89 1761.88,1043.89 "/>
   <polygon class="fil9" points="1759.59,1035.73 1633.88,1035.73 1632.24,1039.82 1760.78,1039.82 "/>
   <polygon class="fil9" points="1758.32,1031.65 1635.52,1031.65 1633.88,1035.73 1759.59,1035.73 "/>
   <polygon class="fil9" points="1756.98,1027.57 1637.11,1027.57 1635.52,1031.65 1758.32,1031.65 "/>
   <polygon class="fil9" points="1755.53,1023.49 1638.7,1023.49 1637.11,1027.57 1756.98,1027.57 "/>
   <polygon class="fil9" points="1754.01,1019.4 1640.27,1019.4 1638.7,1023.49 1755.53,1023.49 "/>
   <polygon class="fil10" points="1752.39,1015.33 1641.82,1015.33 1640.27,1019.4 1754.01,1019.4 "/>
   <polygon class="fil10" points="1750.67,1011.23 1643.35,1011.23 1641.82,1015.33 1752.39,1015.33 "/>
   <polygon class="fil10" points="1748.87,1007.15 1644.87,1007.15 1643.35,1011.23 1750.67,1011.23 "/>
   <polygon class="fil10" points="1746.98,1003.07 1646.35,1003.07 1644.87,1007.15 1748.87,1007.15 "/>
   <polygon class="fil11" points="1744.97,998.98 1647.82,998.98 1646.35,1003.07 1746.98,1003.07 "/>
   <polygon class="fil11" points="1742.85,994.89 1649.25,994.89 1647.82,998.98 1744.97,998.98 "/>
   <polygon class="fil11" points="1740.62,990.82 1650.67,990.82 1649.25,994.89 1742.85,994.89 1742.83,994.84 1742.37,993.96 "/>
   <polygon class="fil11" points="1744.9,970.4 1657.52,970.4 1656.19,974.47 1738.4,974.47 "/>
   <polygon class="fil12" points="1751.43,966.31 1658.83,966.31 1657.52,970.4 1744.9,970.4 "/>
   <path class="fil12" d="M1756.15 962.23l-96.03 0 -1.29 4.09 92.6 0 0.56 -0.35c1.63,-1.02 3.02,-2.3 4.15,-3.73z"/>
   <path class="fil12" d="M1758.5 958.15l-97.11 0 -1.27 4.07 96.03 0c0.99,-1.25 1.77,-2.63 2.35,-4.07z"/>
   <path class="fil12" d="M1759.55 954.07l-96.92 0 -1.24 4.09 97.11 0c0.53,-1.31 0.88,-2.68 1.05,-4.09z"/>
   <path class="fil13" d="M1759.53 949.98l-95.65 0 -1.25 4.09 96.92 0c0.16,-1.35 0.16,-2.72 -0.03,-4.09z"/>
   <path class="fil13" d="M1758.42 945.91l-93.35 0 -1.2 4.07 95.65 0c-0.18,-1.38 -0.54,-2.76 -1.1,-4.07z"/>
   <path class="fil13" d="M1755.95 941.82l-89.67 0 -1.21 4.09 93.35 0c-0.46,-1.06 -1.02,-2.09 -1.73,-3.07l-0.74 -1.01z"/>
   <polygon class="fil13" points="1752.93,937.73 1667.45,937.73 1666.28,941.82 1755.95,941.82 "/>
   <polygon class="fil13" points="1749.78,933.65 1668.62,933.65 1667.45,937.73 1752.93,937.73 "/>
   <polygon class="fil13" points="1746.48,929.56 1669.75,929.56 1668.62,933.65 1749.78,933.65 "/>
   <polygon class="fil14" points="1743.08,925.49 1670.87,925.49 1669.75,929.56 1746.48,929.56 "/>
   <polygon class="fil14" points="1739.5,921.4 1671.97,921.4 1670.87,925.49 1743.08,925.49 "/>
   <path class="fil1" d="M1573.91 837.09l0 106.84c47.51,0 90.94,24.07 116.25,64.4l90.35 -56.65c7.88,-4.91 10.1,-15.53 4.68,-23.09 -45.7,-63.41 -116.43,-102.59 -194.37,-107.54 -9.17,-0.56 -16.91,6.86 -16.91,16.03z"/>
   <path class="fil1" d="M1780 952l-89.83 56.33c-25.32,-40.34 -68.75,-64.39 -116.26,-64.39l0 -106.21c86.78,0 163.03,45.71 206.09,114.27z"/>
   <polygon class="fil15" points="1404.48,861.48 1485.32,861.48 1485.32,12.34 1404.48,12.34 "/>
   <polygon class="fil16" points="1404.48,861.48 1444.9,861.48 1444.9,12.34 1404.48,12.34 "/>
   <path class="fil17" d="M1371.66 887.8l0 397.56 198.77 0c109.77,0 198.73,-89.01 198.73,-198.77 0,-109.77 -88.96,-198.77 -198.73,-198.77l-198.77 -0.01z"/>
   <g>
    <path class="fil1" d="M1549.06 1299.59l0 28.04c0,6.82 -5.57,12.38 -12.38,12.38l-119.37 0c-6.81,0 -12.33,-5.56 -12.33,-12.38l0 -28.04c0,-6.82 5.51,-12.34 12.33,-12.34l119.37 0c6.82,0 12.38,5.52 12.38,12.34z"/>
    <path class="fil1" d="M1409.43 859.34l160.99 0c124,0 225.1,99.81 227.19,223.3 2.18,127.14 -104.58,231.21 -231.74,231.21l-156.45 0c-36.57,0 -66.29,-29.71 -66.29,-66.28l0.01 -321.95c0,-36.62 29.71,-66.28 66.28,-66.29z"/>
   </g>
   <path class="fil3" d="M1371.66 936.1l0 300.95c0,26.65 21.64,48.3 48.3,48.3l150.47 0c109.77,0 198.73,-89.01 198.73,-198.77 0,-109.77 -88.96,-198.77 -198.73,-198.77l-150.47 -0.01c-26.65,0 -48.3,21.65 -48.3,48.3z"/>
   <path class="fil18" d="M1791.22 1033.04l-26.7 10.75c-19.6,-89.18 -99.01,-155.93 -194.09,-155.93l-41.9 0 0 -28.51 41.9 0c106.86,0 196.69,74.18 220.79,173.7z"/>
   <path class="fil19" d="M1570.43 887.85c95.08,0 174.49,66.75 194.09,155.95l-28.79 11.59c-9.26,3.69 -19.97,-1.21 -22.81,-10.85 -17.65,-59.95 -71.94,-104.07 -137.03,-106.44l-5.47 -0.24 -17.7 0c-13.36,0 -24.2,-10.84 -24.2,-24.19l0 -25.82 41.9 0z"/>
   <path class="fil3" d="M1644.04 1009.68c-50.2,50.16 -100.44,100.22 -150.8,150.24 -19.22,-19.25 -31.1,-45.81 -31.1,-75.15 0,-58.78 47.66,-106.47 106.49,-106.47 29.47,0 56.13,12.01 75.41,31.38z"/>
   <polygon class="fil20" points="1465.44,316.94 1404.48,316.94 1404.48,309.79 1465.44,309.79 "/>
   <polygon class="fil20" points="1429.79,339.74 1404.48,339.74 1404.48,332.66 1429.79,332.66 "/>
   <polygon class="fil20" points="1436.92,362.55 1404.48,362.55 1404.48,355.45 1436.92,355.45 "/>
   <polygon class="fil20" points="1429.79,385.4 1404.48,385.4 1404.48,378.27 1429.79,378.27 "/>
   <polygon class="fil20" points="1465.44,408.21 1404.48,408.21 1404.48,401.08 1465.44,401.08 "/>
   <polygon class="fil20" points="1485.32,24.66 1359.97,24.66 1359.97,0 1485.32,0 "/>
   <polygon class="fil20" points="1465.44,225.85 1404.48,225.85 1404.48,218.76 1465.44,218.76 "/>
   <polygon class="fil20" points="1429.79,248.7 1404.48,248.7 1404.48,241.57 1429.79,241.57 "/>
   <polygon class="fil20" points="1436.92,271.51 1404.48,271.51 1404.48,264.42 1436.92,264.42 "/>
   <polygon class="fil20" points="1429.79,294.37 1404.48,294.37 1404.48,287.22 1429.79,287.22 "/>
   <polygon class="fil20" points="1465.44,134.8 1404.48,134.8 1404.48,127.71 1465.44,127.71 "/>
   <polygon class="fil20" points="1429.79,157.66 1404.48,157.66 1404.48,150.52 1429.79,150.52 "/>
   <polygon class="fil20" points="1436.92,180.47 1404.48,180.47 1404.48,173.37 1436.92,173.37 "/>
   <polygon class="fil20" points="1429.79,203.28 1404.48,203.28 1404.48,196.18 1429.79,196.18 "/>
   <polygon class="fil20" points="1465.44,43.77 1404.48,43.77 1404.48,36.67 1465.44,36.67 "/>
   <polygon class="fil20" points="1429.79,66.57 1404.48,66.57 1404.48,59.47 1429.79,59.47 "/>
   <polygon class="fil20" points="1436.92,89.42 1404.48,89.42 1404.48,82.28 1436.92,82.28 "/>
   <polygon class="fil20" points="1429.79,112.23 1404.48,112.23 1404.48,105.13 1429.79,105.13 "/>
   <polygon class="fil20" points="1429.79,431.02 1404.48,431.02 1404.48,423.93 1429.79,423.93 "/>
   <polygon class="fil20" points="1436.92,453.87 1404.48,453.87 1404.48,446.74 1436.92,446.74 "/>
   <polygon class="fil20" points="1429.79,476.67 1404.48,476.67 1404.48,469.59 1429.79,469.59 "/>
   <polygon class="fil20" points="1465.44,499.54 1404.48,499.54 1404.48,492.39 1465.44,492.39 "/>
   <polygon class="fil20" points="1429.79,522.33 1404.48,522.33 1404.48,515.2 1429.79,515.2 "/>
   <polygon class="fil20" points="1436.92,545.14 1404.48,545.14 1404.48,538.06 1436.92,538.06 "/>
   <polygon class="fil20" points="1429.79,568 1404.48,568 1404.48,560.86 1429.79,560.86 "/>
   <polygon class="fil20" points="1465.44,590.81 1404.48,590.81 1404.48,583.71 1465.44,583.71 "/>
   <polygon class="fil20" points="1429.79,613.62 1404.48,613.62 1404.48,606.52 1429.79,606.52 "/>
   <polygon class="fil20" points="1436.92,636.47 1404.48,636.47 1404.48,629.32 1436.92,629.32 "/>
   <polygon class="fil20" points="1429.79,659.27 1404.48,659.27 1404.48,652.18 1429.79,652.18 "/>
   <polygon class="fil20" points="1465.44,682.08 1404.48,682.08 1404.48,674.98 1465.44,674.98 "/>
   <polygon class="fil20" points="1429.79,704.94 1404.48,704.94 1404.48,697.79 1429.79,697.79 "/>
   <polygon class="fil20" points="1436.92,727.74 1404.48,727.74 1404.48,720.61 1436.92,720.61 "/>
   <polygon class="fil20" points="1429.79,750.55 1404.48,750.55 1404.48,743.46 1429.79,743.46 "/>
   <polygon class="fil20" points="1465.44,773.4 1404.48,773.4 1404.48,766.27 1465.44,766.27 "/>
   <polygon class="fil20" points="1429.79,796.2 1404.48,796.2 1404.48,789.12 1429.79,789.12 "/>
   <polygon class="fil20" points="1436.92,819.06 1404.48,819.06 1404.48,811.92 1436.92,811.92 "/>
   <polygon class="fil20" points="1429.79,841.86 1404.48,841.86 1404.48,834.73 1429.79,834.73 "/>
   <path class="fil1" d="M1533.44 883.91l0 25.64c0,13.26 10.75,24.02 24.01,24.02l17.53 0 5.7 0c64.35,2.59 118.25,46.4 135.72,105.87 2.84,9.54 13.44,14.47 22.67,10.71l28.57 -11.44 22.71 -9.15 0.88 3.48 -26.7 10.75 -28.79 11.6c-9.26,3.69 -19.97,-1.21 -22.81,-10.85 -17.65,-59.95 -71.94,-104.07 -137.03,-106.44l-5.47 -0.24 -17.7 0c-13.36,0 -24.2,-10.84 -24.2,-24.19l0 -25.82 0 -28.51 4.91 0 0 24.57z"/>
   <polygon class="fil1" points="631.09,84.55 620.73,84.55 620.73,0 631.09,0 "/>
   <polygon class="fil1" points="1185.31,398.77 1174.95,398.77 1174.95,314.22 1185.31,314.22 "/>
   <polygon class="fil1" points="1171.65,357.57 643.59,55.56 641.57,45.32 1167.67,343.33 "/>
   <polygon class="fil1" points="629.4,41.49 670.58,94.74 670.58,35.78 "/>
   <polygon class="fil1" points="1180.14,357.79 1138.96,363.5 1138.96,304.54 "/>
   <polygon class="fil1" points="84.35,393.13 73.99,393.13 73.99,308.59 84.35,308.59 "/>
   <polygon class="fil1" points="87.87,351.81 100.27,332.7 606.44,46.09 614,53.69 "/>
   <polygon class="fil1" points="622.71,44.31 581.52,97.56 581.52,38.6 "/>
   <polygon class="fil1" points="79.14,352.15 120.32,357.87 120.32,298.9 "/>
   <polygon class="fil1" points="73.19,1035.86 -0,993.6 5.15,984.64 78.35,1026.89 "/>
   <polygon class="fil1" points="73.19,399.76 -0,357.51 5.15,348.54 78.35,390.8 "/>
   <polygon class="fil1" points="44.36,998.62 34,979.38 34,416.46 44.36,396.25 "/>
   <polygon class="fil1" points="40.31,1007.61 65.81,974.8 14.79,945.36 "/>
   <polygon class="fil1" points="40.31,374.8 65.81,437.05 14.79,407.58 "/>
   <path class="fil21" d="M1652.01 1026.72c8.52,112.68 -113.13,191.44 -212.35,136.3 100.32,75.15 301.27,-19.13 212.35,-136.3z"/>
   <path class="fil21" d="M1439.65 1163.02c27.53,29.54 67.12,49.12 110.68,49.12 58.88,0 118.82,-31.3 126.03,-94.25 -50.76,80.8 -159.83,100.65 -236.71,45.14z"/>
   <path class="fil21" d="M1439.65 1163.02c34.19,59.57 111.06,84.25 171.13,52.01 -70.55,19.64 -127.42,-5.54 -171.13,-52.01z"/>
   <path class="fil21" d="M1537.77 1002.2c7.4,0 14.62,0.75 21.61,2.13 -14.41,-9.93 -30.72,-17.3 -48.29,-21.44 -68.72,22.74 -104.1,98.4 -78.72,165.32 -3.65,-11 -5.63,-22.76 -5.63,-34.98 0,-61.32 49.7,-111.03 111.02,-111.03z"/>
   <path class="fil21" d="M1644.93 1018.2c-11.49,-12.69 -25.51,-23.03 -41.27,-30.25 10.18,16.74 16.69,35.23 19.41,54.23 7.62,9.14 13.82,19.51 18.21,30.8 4.76,-17.96 5.94,-36.58 3.66,-54.78zm-93.83 -41.71l0 0c-0.05,-0 -0.1,-0 -0.14,-0 -8.42,0 -16.65,0.83 -24.62,2.4 3.91,1.72 7.78,3.58 11.61,5.63 12.08,6.44 23.08,14.09 32.96,22.72 4.23,1.32 8.35,2.9 12.34,4.69 -8.51,-13.31 -19.28,-25.34 -32.15,-35.44zm9.37 0.36l0 0c12.76,11.42 23.27,24.77 31.3,39.35 8.79,4.91 16.85,10.96 23.97,17.98 -3.89,-17.83 -11.16,-34.87 -21.48,-50.11 -10.67,-3.88 -22,-6.36 -33.79,-7.23z"/>
   <polygon class="fil1" points="1490.37,1155.16 1509.98,1062.92 1472.63,1062.92 1479.04,1033.27 1594.46,1033.27 1588.02,1062.92 1550.59,1062.92 1530.98,1155.16 "/>
   <polygon class="fil20" points="1484.44,1183.25 1488.68,1164.24 1529.29,1164.24 1525.06,1183.25 "/>
  </g>
 </g>
</svg>
