<?xml version="1.0" encoding="UTF-8"?>
<!DOCTYPE svg PUBLIC "-//W3C//DTD SVG 1.1//EN" "http://www.w3.org/Graphics/SVG/1.1/DTD/svg11.dtd">
<!-- Creator: CorelDRAW Standard 2021 (64 Bit) -->
<svg xmlns="http://www.w3.org/2000/svg" xml:space="preserve" width="432.557mm" height="378.263mm" version="1.1" style="shape-rendering:geometricPrecision; text-rendering:geometricPrecision; image-rendering:optimizeQuality; fill-rule:evenodd; clip-rule:evenodd"
viewBox="0 0 1499.32 1311.13"
 xmlns:xlink="http://www.w3.org/1999/xlink"
 xmlns:xodm="http://www.corel.com/coreldraw/odm/2003">
 <defs>
  <style type="text/css">
   <![CDATA[
    .fil14 {fill:#094561}
    .fil15 {fill:#094561}
    .fil12 {fill:#F59B2C}
    .fil5 {fill:#012E42;fill-rule:nonzero}
    .fil10 {fill:#053B53;fill-rule:nonzero}
    .fil6 {fill:#094561;fill-rule:nonzero}
    .fil13 {fill:#094561;fill-rule:nonzero}
    .fil7 {fill:gray;fill-rule:nonzero}
    .fil0 {fill:#CCCCCC;fill-rule:nonzero}
    .fil9 {fill:#D39266;fill-rule:nonzero}
    .fil4 {fill:#E6E6E6;fill-rule:nonzero}
    .fil8 {fill:#EDAC80;fill-rule:nonzero}
    .fil1 {fill:#F59B2C;fill-rule:nonzero}
    .fil3 {fill:white;fill-rule:nonzero}
    .fil2 {fill:white;fill-rule:nonzero}
    .fil11 {fill:url(#id0);fill-rule:nonzero}
   ]]>
  </style>
  <linearGradient id="id0" gradientUnits="userSpaceOnUse" x1="3359.34" y1="503.31" x2="3346.19" y2="459.28">
   <stop offset="0" style="stop-opacity:1; stop-color:#EDAC80"/>
   <stop offset="0.270588" style="stop-opacity:1; stop-color:#E6A67A"/>
   <stop offset="0.65098" style="stop-opacity:1; stop-color:#D49468"/>
   <stop offset="1" style="stop-opacity:1; stop-color:#BD7E52"/>
  </linearGradient>
 </defs>
 <g id="Camada_x0020_1">
  <metadata id="CorelCorpID_0Corel-Layer"/>
  <g id="_1780607143136">
   <path class="fil0" d="M499.45 199.14c-19.29,25.15 -36.91,52.49 -52.82,81.51 49.6,29.73 105.2,54.04 165.14,71.66 1.92,-10.16 3.75,-20.3 5.83,-30.22 20.42,-97.77 49.51,-180.3 85.49,-240.55 12.55,-21.05 25.97,-39.36 40.45,-54.62 -30.84,8.29 -60.62,20.46 -89.15,36.17 -57.98,31.91 -110.56,78.33 -154.94,136.04z"/>
   <path class="fil0" d="M881.49 24.67c-13.2,-7.43 -26.05,-11 -39.25,-11 -13.02,0 -25.87,3.57 -39.07,11 -13.2,7.48 -26.76,18.98 -40.14,34.36 -26.4,30.77 -51.47,77.22 -72.5,135.31 -17.62,48.44 -32.39,105.05 -43.74,167.45 61.54,15.05 127.16,23.27 195.45,23.27 68.3,0 133.95,-8.22 195.73,-23.23 -2.11,-10.95 -4.22,-21.76 -6.34,-32.3 -19.89,-94.94 -48.23,-174.36 -81.15,-229.46 -21.82,-36.77 -45.76,-62.38 -69,-75.39z"/>
   <path class="fil0" d="M470.82 1129.03c-21.06,-27.34 -40.12,-57.09 -57.25,-88.68 -22.6,15.06 -43.74,31.31 -63.35,48.63 79.81,90.05 183.83,157.94 302.02,193.6 -5.12,-2.53 -10.23,-5.09 -15.23,-7.8 -62.93,-34.64 -119.15,-84.49 -166.2,-145.76z"/>
   <path class="fil0" d="M354.99 266.54c10.48,8.09 21.37,15.74 32.5,23.34 61.99,-112.24 147.17,-202.18 247.69,-257.48 5.6,-3.11 11.32,-5.9 17.07,-8.8 -130.29,39.31 -245.35,113.6 -334.24,212.1 11.82,10.61 24.07,20.95 36.99,30.84z"/>
   <path class="fil0" d="M1047.66 31.45c62.84,34.61 119.17,84.45 166.16,145.72 19.89,26.07 38.19,54.24 54.74,84.1 22,-15.08 42.95,-31.21 61.96,-48.37 -79.21,-87.96 -181.83,-154.23 -298.18,-189.31 5.28,2.58 10.39,5.07 15.32,7.85z"/>
   <path class="fil0" d="M611.02 950.21c-48.17,13.8 -93.64,31.75 -135.48,53.51 -10.63,5.49 -21.09,11.37 -31.33,17.39 52.75,98.08 125.73,175.47 210.18,222 28.58,15.75 58.42,27.92 89.29,36.22 -2.67,-2.81 -5.4,-5.61 -7.99,-8.61 -30.61,-35.8 -57,-85.69 -79.07,-146.55 -18.48,-50.87 -33.85,-109.56 -45.61,-173.96z"/>
   <path class="fil0" d="M940.98 26.87c2.64,2.8 5.28,5.61 7.92,8.62 30.63,35.75 57.03,85.66 79.21,146.54 17.95,49.89 33.09,107.38 44.71,170.35 46.12,-13.57 89.6,-30.98 129.73,-51.8 12.14,-6.34 23.94,-12.94 35.56,-19.84 -52.63,-96.04 -124.62,-171.85 -207.88,-217.65 -28.52,-15.72 -58.44,-27.88 -89.24,-36.22z"/>
   <g>
    <path class="fil0" d="M641.38 393.17c-11.73,74.28 -18.61,155.95 -19.47,241.81l440.7 0c-0.88,-85.9 -7.57,-167.53 -19.36,-241.81 -63.55,15.28 -130.96,23.57 -201.02,23.57 -69.88,0 -137.38,-8.29 -200.85,-23.57z"/>
    <path class="fil0" d="M835.9 887.51c72.35,0 142.05,8.87 207.36,25.21 11.79,-74.17 18.66,-155.74 19.53,-241.52l-440.81 0c0.79,84.6 7.55,165.11 18.93,238.6 61.82,-14.45 127.22,-22.28 194.99,-22.28z"/>
    <path class="fil0" d="M652.98 976.66c19.76,94.96 48.17,174.42 81.08,229.48 22,36.77 45.87,62.34 69.11,75.35 13.2,7.5 26.05,11.04 39.07,11.04 13.2,0 26.05,-3.54 39.25,-11.04 13.38,-7.44 26.76,-18.92 39.96,-34.36 26.58,-30.77 51.58,-77.18 72.7,-135.29 17.6,-48.51 32.39,-105.19 43.83,-167.69 -63.54,-16.12 -131.48,-24.99 -202.07,-24.96 -66.18,0 -129.83,7.6 -189.8,21.86 2.19,12.11 4.47,24.01 6.89,35.61z"/>
    <path class="fil0" d="M981.64 1224.67c-12.67,21.06 -26.22,39.36 -40.49,54.62 30.63,-8.36 60.55,-20.51 89.07,-36.19 58.09,-31.93 110.54,-78.31 154.9,-136.1 19.01,-24.64 36.44,-51.54 52.11,-80.09 -49.29,-30.17 -104.56,-54.9 -164.41,-73.07 -1.76,10.23 -3.7,20.31 -5.81,30.22 -20.42,97.8 -49.64,180.37 -85.37,240.6z"/>
    <path class="fil0" d="M1283.17 289.46c49.82,100.4 79.38,218.62 82.03,345.53l134.12 0c-4.05,-150.88 -58.97,-289.14 -148.03,-398.16 -11.09,9.89 -22.53,19.48 -34.32,28.69 -10.92,8.27 -22.18,16.18 -33.8,23.94z"/>
    <path class="fil0" d="M1349.53 1071.52c90.3,-109.38 145.74,-248.4 149.79,-400.32l-134.12 0c-2.64,127.63 -32.39,246.53 -82.73,347.34 23.94,16.37 46.29,34.07 67.06,52.98z"/>
    <path class="fil0" d="M1210.82 975.59c14.08,7.25 27.81,15.01 41.01,23.08 46.64,-94.75 74.63,-206.91 77.27,-327.47l-230.41 0c-0.88,89.1 -7.92,173.82 -20.42,251.11 47,13.94 91.35,31.86 132.54,53.28z"/>
    <path class="fil0" d="M1047.66 1274.79c-4.93,2.71 -10.03,5.26 -15.32,7.8 115.29,-34.78 217.38,-100.26 296.42,-187.13 -11.97,-10.93 -24.46,-21.52 -37.49,-31.63 -7.74,-5.81 -15.49,-11.57 -23.59,-17.09 -55.27,99.36 -130.96,178.96 -220.02,228.05z"/>
    <path class="fil0" d="M1098.87 634.99l230.24 0c-2.64,-119.97 -30.28,-231.69 -76.57,-326.16 -52.46,31.31 -111.07,56.71 -174.26,74.93 12.5,77.26 19.71,162.07 20.59,251.23z"/>
   </g>
   <path class="fil1" d="M783.73 1311.13l145.05 0 -0.01 -1150.97 25.95 0c8.61,0 13.64,-9.72 8.66,-16.75l-98.48 -138.93c-4.23,-5.97 -13.09,-5.97 -17.32,0l-98.46 138.94c-4.98,7.03 0.05,16.75 8.66,16.75l25.95 0 0.01 1150.96z"/>
   <path class="fil2" d="M837.55 1311.13l37.39 0 -0 -517.45 6.69 0c2.22,0 3.51,-4.37 2.23,-7.53l-25.38 -62.46c-1.09,-2.68 -3.37,-2.68 -4.46,0l-25.38 62.46c-1.28,3.16 0.01,7.53 2.23,7.53l6.69 0 0 517.45z"/>
   <path class="fil0" d="M309.45 600.22l254.51 0c0.99,-98.58 8.97,-192.29 22.79,-277.68 -54.55,-15.78 -106.08,-36.26 -153.74,-60.99 -13.35,-6.91 -26.31,-14.2 -39.06,-21.81 -51,104.48 -81.71,227.86 -84.5,360.48z"/>
   <path class="fil0" d="M391.48 995.91c58.67,-34.35 124.1,-62.22 194.41,-82.07 -13.23,-84.26 -20.93,-176.61 -22,-273.59l-254.52 0c2.74,130.62 32.52,252.28 82.12,355.66z"/>
   <path class="fil0" d="M280.99 1075.42c11.21,-9.86 22.79,-19.59 34.77,-28.84 13.37,-10.29 27.38,-20.01 41.73,-29.46 -53.46,-109.89 -85.16,-238.78 -88,-376.87l-148.36 0c4.49,164.57 63.52,315.45 159.86,435.17z"/>
   <path class="fil0" d="M269.39 600.22c2.88,-140.31 35.63,-271 90.53,-381.97 -26.76,-17.98 -51.88,-37.46 -75.1,-58.15 -98.63,120.54 -159.21,273.3 -163.7,440.12l148.27 0z"/>
   <g>
    <polygon class="fil3" points="6.96,1256.48 792.78,1256.47 792.77,153.22 142.36,153.23 6.95,298.63 "/>
    <path id="_1" class="fil4" d="M792.78 1263.43l-785.82 0.01 0 -13.9 785.82 -0.01 6.95 6.95 -6.95 6.95zm6.95 -6.95l0 6.95 -6.95 0 6.95 -6.95zm-0.01 -1103.25l0.01 1103.25 -13.9 0 -0.01 -1103.25 6.95 -6.95 6.95 6.95zm-6.95 -6.95l6.95 0 0 6.95 -6.95 -6.95zm-650.41 0.01l650.41 -0.01 0 13.9 -650.41 0.01 -5.09 -11.69 5.09 -2.21zm-5.09 2.21l2.06 -2.21 3.02 0 -5.09 2.21zm-135.41 145.4l135.41 -145.4 10.17 9.47 -135.41 145.4 -12.04 -4.74 1.86 -4.74zm-1.86 4.74l0 -2.74 1.86 -2 -1.86 4.74zm0.01 957.86l-0.01 -957.86 13.9 0 0.01 957.86 -6.95 6.95 -6.95 -6.95zm6.95 6.95l-6.95 0 0 -6.95 6.95 6.95z"/>
   </g>
   <polygon class="fil4" points="142.36,153.23 142.36,297.58 6.95,298.63 "/>
   <path class="fil5" d="M650.81 350.19l-504.22 0.01c-2.86,0 -5.18,-2.32 -5.18,-5.18 0,-2.86 2.32,-5.18 5.18,-5.18l504.22 -0.01c2.86,0 5.18,2.32 5.18,5.18 0,2.86 -2.32,5.18 -5.18,5.18z"/>
   <path class="fil5" d="M650.81 400.45l-504.22 0.01c-2.86,0 -5.18,-2.32 -5.18,-5.18 0,-2.86 2.32,-5.18 5.18,-5.18l504.22 -0.01c2.86,0 5.18,2.32 5.18,5.18 0.01,2.86 -2.32,5.18 -5.18,5.18z"/>
   <path class="fil5" d="M650.81 450.71l-504.22 0.01c-2.86,0 -5.18,-2.32 -5.18,-5.18 0,-2.86 2.32,-5.18 5.18,-5.18l504.22 -0.01c2.86,0 5.18,2.32 5.18,5.18 0.01,2.86 -2.32,5.18 -5.18,5.18z"/>
   <path class="fil5" d="M650.81 500.98l-504.22 0.01c-2.86,0 -5.18,-2.32 -5.18,-5.18 0,-2.86 2.32,-5.18 5.18,-5.18l504.22 -0.01c2.86,0 5.18,2.32 5.18,5.18 0,2.86 -2.32,5.18 -5.18,5.18z"/>
   <path class="fil5" d="M650.81 551.24l-504.22 0.01c-2.86,0 -5.18,-2.32 -5.18,-5.18 0,-2.86 2.32,-5.18 5.18,-5.18l504.22 -0.01c2.86,0 5.18,2.32 5.18,5.18 0,2.86 -2.32,5.18 -5.18,5.18z"/>
   <path class="fil5" d="M367.68 1039.95l-288.68 0.01c-1.63,0 -2.97,-2.32 -2.97,-5.18 0,-2.86 1.33,-5.18 2.97,-5.18l288.68 -0.01c1.63,0 2.97,2.32 2.97,5.18 0,2.86 -1.33,5.18 -2.97,5.18z"/>
   <path class="fil5" d="M367.68 1090.21l-288.68 0.01c-1.63,0 -2.97,-2.32 -2.97,-5.18 0,-2.86 1.33,-5.18 2.97,-5.18l288.68 -0.01c1.63,0 2.97,2.32 2.97,5.18 0,2.86 -1.33,5.18 -2.97,5.18z"/>
   <path class="fil5" d="M367.68 1140.48l-288.68 0.01c-1.63,0 -2.97,-2.32 -2.97,-5.18 0,-2.86 1.33,-5.18 2.97,-5.18l288.68 -0.01c1.63,0 2.97,2.32 2.97,5.18 0,2.86 -1.33,5.18 -2.97,5.18z"/>
   <path class="fil1" d="M676.81 1051.32c4.08,-3.56 3.23,-7.82 -1.88,-9.52l-18.24 -6.12c-5.11,-1.7 -7.68,-7.19 -5.71,-12.21l7.04 -17.9c1.97,-5.02 -0.78,-8.42 -6.08,-7.55l-19 3.04c-5.33,0.87 -10.15,-2.81 -10.73,-8.14l-2.09 -19.16c-0.58,-5.33 -4.58,-7.07 -8.9,-3.83l-15.38 11.54c-4.31,3.24 -10.3,2.21 -13.3,-2.25l-10.73 -15.96c-3.01,-4.46 -7.36,-4.15 -9.67,0.71l-8.26 17.38c-2.31,4.86 -8.08,6.76 -12.82,4.19l-16.93 -9.13c-4.74,-2.57 -8.44,-0.28 -8.23,5.14l0.77 19.2c0.22,5.37 -4.02,9.76 -9.41,9.68l-19.24 -0.24c-5.39,-0.08 -7.59,3.71 -4.9,8.38l9.62 16.67c2.69,4.66 0.96,10.47 -3.84,12.92l-17.14 8.73c-4.8,2.45 -5,6.8 -0.45,9.68l16.26 10.31c4.55,2.88 5.73,8.81 2.62,13.24l-11.13 15.69c-3.11,4.42 -1.27,8.38 4.1,8.81l19.18 1.54c5.37,0.43 9.19,5.18 8.46,10.51l-2.55 19.08c-0.71,5.33 2.76,7.98 7.72,5.85l17.7 -7.51c4.95,-2.13 10.53,0.28 12.38,5.37l6.6 18.06c1.85,5.06 6.16,5.78 9.56,1.61l12.18 -14.89c3.41,-4.19 9.46,-4.62 13.46,-0.99l14.24 12.92c3.99,3.62 8.14,2.26 9.23,-3l3.85 -18.85c1.09,-5.29 6.23,-8.49 11.45,-7.15l18.62 4.82c5.22,1.34 8.27,-1.78 6.76,-6.95l-5.35 -18.49c-1.49,-5.18 1.58,-10.39 6.82,-11.62l18.74 -4.39c5.25,-1.22 6.49,-5.41 2.76,-9.28l-13.32 -13.91c-3.73,-3.87 -3.45,-9.96 0.63,-13.47l14.56 -12.56z"/>
   <path class="fil6" d="M653.45 1122.83l5.35 18.49c1.49,5.14 -1.55,8.3 -6.77,6.91l-18.62 -4.82c-5.21,-1.34 -10.37,1.86 -11.45,7.15l-3.32 16.19 54.47 60.38 4.32 -36.8 37.9 -1.26 -62.24 -69.01c-0.02,0.91 0.09,1.82 0.36,2.77z"/>
   <path class="fil6" d="M526.82 1151.48l-17.7 7.51c-4.96,2.13 -8.43,-0.51 -7.72,-5.85l2.56 -19.08c0.71,-5.33 -3.1,-10.08 -8.47,-10.51l-2.76 -0.2 -66.2 59.68 36.8 4.32 1.27 37.89 74.91 -67.55 -0.31 -0.83c-1.85,-5.06 -7.42,-7.51 -12.38,-5.37z"/>
   <path class="fil6" d="M651.95 762.23l0.87 9.01 20.35 -2.12 -39.6 53.41c-2.39,-1.35 -5.13,-2.11 -8.05,-2.11 -3.42,0 -6.6,1.07 -9.26,2.88l-42.31 -42.33 -44.14 54.28 -30.11 -28.48c0.93,-2.19 1.47,-4.6 1.47,-7.14 0,-9.74 -7.63,-17.67 -16.99,-17.67 -9.37,0 -16.99,7.93 -16.99,17.67 0,4.19 1.42,8.04 3.77,11.07l-23.83 27.16 0 -62.5 0.75 2.03 67.4 -26.97 10.08 16.03c-4.88,3.11 -8.15,8.69 -8.15,15.06 0,9.75 7.63,17.68 16.99,17.68 9.37,0 16.98,-7.93 16.98,-17.68 0,-3.79 -1.16,-7.3 -3.12,-10.19l25.43 -16.84c2.92,2.48 6.66,3.98 10.72,3.98 3.09,0 5.99,-0.88 8.49,-2.39l27.23 22.33 65.28 -87.17 1.23 18.56 8.68 -0.62 -2.31 -34.87 -34.5 3.59 0.86 9 19.82 -2.06 -60.54 80.83 -19.55 -16.03c1.45,-2.6 2.31,-5.62 2.31,-8.85 0,-9.75 -7.63,-17.67 -16.99,-17.67 -9.37,0 -16.99,7.93 -16.99,17.67 0,2.24 0.43,4.38 1.16,6.36l-27.43 18.16c-2.07,-0.94 -4.35,-1.47 -6.75,-1.47 -0.03,0 -0.07,0 -0.1,0l-15.39 -24.5 -71.58 28.65 0 -112.87 -5.91 0 0 189.46 -0.32 0.36 0.32 0.31 0 59.07 237.15 0 0 -6.14 -22.63 0 0 -13.31 -5.91 0 0 13.31 -55.1 0 0 -13.31 -5.91 0 0 13.31 -55.1 0 0 -13.31 -5.91 0 0 13.31 -55.1 0 0 -13.31 -5.91 0 0 13.31 -19.68 0 0 -47.31 0.2 0.19 30.69 -34.97c1.92,0.78 3.99,1.23 6.17,1.23 3.77,0 7.24,-1.3 10.07,-3.47l36.39 34.42 43.98 -54.08 35.82 35.84c-1.2,2.42 -1.89,5.17 -1.89,8.08 0,9.75 7.62,17.68 16.98,17.68 9.37,0 16.99,-7.93 16.99,-17.68 0,-3.43 -0.96,-6.62 -2.59,-9.33l38.97 -52.57 1.18 17.94 8.68 -0.62 -2.31 -34.87 -34.51 3.59zm32.79 -77.99l0 0 0.07 1 -1.1 -0.89 1.03 -0.11zm-150.55 108.18l0 0c-5.77,0 -10.47,-4.88 -10.47,-10.89 0,-6 4.69,-10.89 10.47,-10.89 5.77,0 10.46,4.88 10.46,10.89 0,6.01 -4.69,10.89 -10.46,10.89zm50.01 -62.5l0 0c5.77,0 10.47,4.88 10.47,10.89 0,6.01 -4.7,10.89 -10.47,10.89 -5.77,0 -10.46,-4.89 -10.46,-10.89 0,-6 4.69,-10.89 10.46,-10.89zm-100.03 80.61l0 0c-5.77,0 -10.47,-4.89 -10.47,-10.89 0,-6 4.69,-10.89 10.47,-10.89 5.77,0 10.47,4.89 10.47,10.89 0,6 -4.69,10.89 -10.47,10.89zm141.34 38.46l0 0c-5.77,0 -10.46,-4.88 -10.46,-10.89 0,-6 4.69,-10.89 10.46,-10.89 5.77,0 10.47,4.88 10.47,10.89 0,6.01 -4.7,10.89 -10.47,10.89z"/>
   <path class="fil1" d="M267.68 655.42c21.47,7.71 42.25,11.76 60.62,15.35 0,0 16.6,4.03 19.48,4.65 0,0 0.71,-0.11 0.5,4.54 -0.03,0.72 -0.12,0.82 -0.18,1.62 -3.33,42.21 -9.5,113.7 -11.89,125.97 -7.28,37.32 -41.03,71.82 -67.96,94.08 -17.84,14.76 -35.21,26.28 -46.71,33.39 -11.29,-7.21 -28.16,-18.78 -45.63,-33.55 -26.74,-22.62 -59.96,-57.23 -67.04,-94.22 -2.31,-12.06 -8.26,-82.22 -11.46,-123.59 -0.06,-0.8 -0.05,-0.9 -0.17,-1.6 -0.15,-1.56 -0.02,-3.63 0.29,-5.06 5.88,-1.46 12.26,-2.84 18.98,-4.3 17.85,-3.86 38.13,-8.26 59.22,-16.33 23.76,-9.1 40.69,-13.67 47.51,-15.01 4.41,0.88 16.13,3.88 44.45,14.06zm-44.28 -39.75c-0.08,-0 -0.16,-0.01 -0.24,-0.01l0 0.04c-8.37,0.83 -30.29,6.82 -57.51,17.29 -27.44,10.56 -54.31,14.42 -76.77,20.22 -22.29,5.76 -18.19,32.49 -18.19,32.49 0,0 8.36,108.14 11.77,125.96 16.27,85.13 139.08,153.54 139.08,153.54l0.04 0c0,0 125.17,-66.38 142.11,-153.08 3.56,-18.2 12.31,-128.9 12.31,-128.9 0,0 4.3,-27.46 -19.01,-32.86 -23.33,-5.42 -51.01,-8.71 -79.05,-18.73 -27.58,-9.85 -46.02,-15.33 -54.27,-15.93l0 -0.04c-0.08,0.01 -0.17,0.01 -0.25,0.02z"/>
   <path class="fil6" d="M222.92 650.82c-0.06,-0.01 -0.12,-0.01 -0.18,-0.01l0 0.03c-6.19,0.63 -22.41,5.26 -42.59,13.43 -20.35,8.23 -40.3,11.2 -57,15.71 -16.58,4.49 -13.53,25.52 -13.53,25.52 0,0 6.22,85.03 8.75,99.03 12.09,66.88 103.15,120.29 103.15,120.29l0.02 0c0,0 92.35,-52.26 104.81,-120.07 2.61,-14.23 9.05,-100.75 9.05,-100.75 0,0 3.16,-21.45 -13.98,-25.72 -17.17,-4.27 -37.57,-6.92 -58.24,-14.83 -20.36,-7.78 -33.99,-12.12 -40.09,-12.61l0 -0.03c-0.05,0.01 -0.12,0.02 -0.18,0.02z"/>
   <path class="fil3" d="M222.53 853.04c-40.4,0 -73.26,-32.86 -73.26,-73.26 0,-40.38 32.86,-73.26 73.26,-73.26 40.38,0 73.24,32.88 73.24,73.26 0,40.4 -32.86,73.26 -73.24,73.26zm0 -139.54l0 0c-36.54,0 -66.28,29.74 -66.28,66.28 0,36.56 29.74,66.28 66.28,66.28 36.54,0 66.27,-29.72 66.27,-66.28 0,-36.54 -29.72,-66.28 -66.27,-66.28z"/>
   <path class="fil3" d="M222.53 853.04c-21.53,0 -38.37,-32.17 -38.37,-73.26 0,-41.07 16.84,-73.26 38.37,-73.26 21.52,0 38.37,32.19 38.37,73.26 0,41.09 -16.86,73.26 -38.37,73.26zm0 -139.54l0 0c-17.02,0 -31.39,30.36 -31.39,66.28 0,35.94 14.37,66.28 31.39,66.28 17.02,0 31.39,-30.33 31.39,-66.28 0,-35.92 -14.37,-66.28 -31.39,-66.28z"/>
   <path class="fil3" d="M222.53 762.15c-33.04,0 -63.25,-6.62 -63.54,-6.67 -1.89,-0.42 -3.06,-2.3 -2.67,-4.17 0.42,-1.87 2.29,-3.07 4.17,-2.67 0.29,0.07 29.78,6.54 62.04,6.54 32.3,0 61.73,-6.47 62.02,-6.54 1.9,-0.4 3.76,0.8 4.17,2.67 0.42,1.87 -0.78,3.75 -2.65,4.17 -0.29,0.05 -30.5,6.67 -63.55,6.67z"/>
   <path class="fil3" d="M159.73 811.18c-1.59,0 -3.05,-1.09 -3.41,-2.72 -0.39,-1.88 0.78,-3.75 2.67,-4.17 0.29,-0.07 30.5,-6.69 63.54,-6.69 33.04,0 63.26,6.62 63.55,6.69 1.87,0.42 3.06,2.28 2.65,4.17 -0.42,1.87 -2.27,3.08 -4.17,2.65 -0.29,-0.07 -29.76,-6.52 -62.02,-6.52 -32.3,0 -61.75,6.45 -62.04,6.52 -0.25,0.05 -0.51,0.07 -0.76,0.07z"/>
   <path class="fil3" d="M222.53 853.04c-1.94,0 -3.5,-1.56 -3.5,-3.48l0 -139.53c0,-1.93 1.56,-3.5 3.5,-3.5 1.92,0 3.48,1.57 3.48,3.5l0 139.53c0,1.92 -1.56,3.48 -3.48,3.48z"/>
   <path class="fil6" d="M1022.57 736.64c83.07,12.22 154.54,-0.78 185.53,-8.22 15.4,150.05 31.38,336.52 40.03,440.54 2.09,25.15 5.86,79.15 9.04,125.75 1.22,17.85 -23.94,23 -29.78,6.09 -53.16,-153.87 -113.91,-468.39 -113.91,-468.39 3.11,206.8 -17.91,374.47 -35.76,466.27 -3.43,17.63 -29.13,16.08 -30.36,-1.85 -3.85,-56.16 -8.12,-132.79 -9.44,-153.89 -12.13,-194.18 -17.57,-490.14 -19.21,-598.36 0.64,42.46 1.87,108.11 3.85,192.05z"/>
   <g>
    <path class="fil3" d="M775.42 520.81c-11.83,-4.8 -7.54,-22.46 8.23,-19.89l152.75 20.92c0,0 104.41,-65.32 143.47,-76.76 7.04,-2.06 10.1,-6.96 16.66,-7.47 6.51,-0.5 5.53,-1.23 12.06,-0.47 12.4,1.45 32.54,6.09 46.54,12.39 87.67,39.47 127.85,139.69 127.85,139.69l-44.41 11.24 -55.24 -67.33c7.02,39.21 15.79,107.91 24.76,195.29 -19.38,4.65 -42.86,15.86 -99.33,19.01 -43.64,2.42 -55.05,-6.2 -86.2,-10.78 -3.18,-134.36 -3.85,-194.23 -3.85,-194.23l-80.9 30.32 -162.4 -51.93z"/>
    <path id="_1_0" class="fil7" d="M784.58 494.09l-1.87 13.66 -0.17 -0.03 -0.95 -0.12 -0.85 -0.04 -0.75 0.02 -0.66 0.07 -0.58 0.12 -0.51 0.15 -0.44 0.17 -0.38 0.19 -0.33 0.21 -0.29 0.22 -0.25 0.23 -0.22 0.25 -0.19 0.26 -0.16 0.27 -0.14 0.28 -0.11 0.29 -0.08 0.29 -0.06 0.29 -0.03 0.29 -0 0.29 0.02 0.28 0.05 0.27 0.07 0.26 0.1 0.25 0.12 0.24 0.15 0.24 0.18 0.24 0.22 0.24 0.28 0.24 0.34 0.24 0.41 0.24 0.5 0.23 -5.18 12.77 -1.62 -0.74 -1.52 -0.87 -1.41 -1 -1.29 -1.11 -1.16 -1.22 -1.02 -1.31 -0.87 -1.38 -0.73 -1.45 -0.58 -1.49 -0.43 -1.52 -0.28 -1.54 -0.13 -1.55 0.01 -1.55 0.15 -1.54 0.29 -1.52 0.42 -1.49 0.56 -1.45 0.69 -1.4 0.82 -1.34 0.95 -1.28 1.08 -1.2 1.2 -1.1 1.31 -1 1.42 -0.89 1.52 -0.76 1.61 -0.63 1.69 -0.49 1.75 -0.35 1.81 -0.2 1.86 -0.05 1.9 0.1 1.94 0.24 -0.17 -0.03zm-1.87 13.66l-0.09 -0.01 -0.09 -0.01 0.17 0.03zm152.75 20.92l-152.75 -20.92 1.87 -13.66 152.75 20.92 2.72 12.67 -4.59 0.99zm4.59 -0.99l-2.12 1.32 -2.47 -0.34 4.59 -0.99zm137.88 -89.22l3.87 13.23 0 -0 -3.56 1.14 -3.98 1.44 -4.35 1.72 -4.67 1.98 -4.96 2.22 -5.2 2.43 -5.41 2.62 -5.59 2.79 -5.73 2.94 -5.85 3.06 -5.92 3.16 -5.97 3.24 -5.98 3.29 -5.97 3.33 -5.92 3.34 -5.84 3.33 -5.72 3.3 -5.58 3.24 -5.41 3.17 -5.2 3.07 -4.96 2.95 -4.69 2.8 -4.39 2.64 -4.06 2.46 -3.7 2.25 -3.31 2.02 -2.88 1.77 -2.43 1.49 -1.94 1.2 -1.42 0.88 -0.87 0.54 -0.29 0.18 -7.31 -11.69 0.31 -0.2 0.89 -0.55 1.44 -0.89 1.96 -1.21 2.45 -1.51 2.9 -1.78 3.33 -2.03 3.73 -2.26 4.09 -2.47 4.42 -2.66 4.72 -2.82 5 -2.97 5.24 -3.09 5.45 -3.19 5.62 -3.27 5.77 -3.32 5.89 -3.36 5.97 -3.37 6.03 -3.36 6.05 -3.33 6.05 -3.28 6.01 -3.21 5.95 -3.11 5.85 -3 5.73 -2.86 5.57 -2.7 5.39 -2.52 5.18 -2.32 4.95 -2.1 4.69 -1.86 4.42 -1.6 4.14 -1.32 0 -0zm18.06 -7.72l1.06 13.75 -0 0 -0.3 0.03 -0.29 0.04 -0.27 0.05 -0.27 0.06 -0.26 0.07 -0.27 0.09 -0.27 0.1 -0.28 0.11 -0.3 0.13 -0.31 0.15 -0.32 0.17 -0.34 0.18 -0.36 0.2 -0.38 0.22 -0.4 0.24 -0.42 0.26 -0.44 0.28 -0.46 0.29 -0.48 0.31 -0.51 0.32 -0.54 0.33 -0.56 0.34 -0.59 0.34 -0.62 0.35 -0.65 0.35 -0.67 0.34 -0.71 0.34 -0.74 0.33 -0.77 0.32 -0.8 0.3 -0.83 0.29 -0.86 0.27 -3.87 -13.23 0.44 -0.14 0.42 -0.15 0.41 -0.16 0.4 -0.17 0.4 -0.18 0.4 -0.19 0.4 -0.2 0.4 -0.21 0.4 -0.23 0.41 -0.24 0.42 -0.25 0.43 -0.26 0.44 -0.28 0.45 -0.29 0.47 -0.3 0.48 -0.31 0.5 -0.31 0.53 -0.32 0.55 -0.32 0.57 -0.33 0.6 -0.33 0.63 -0.32 0.66 -0.32 0.68 -0.3 0.72 -0.29 0.75 -0.27 0.78 -0.25 0.81 -0.23 0.84 -0.2 0.86 -0.16 0.88 -0.13 0.91 -0.09 -0 0zm13.4 -0.44l-1.6 13.69 0 0 -0.55 -0.06 -0.5 -0.05 -0.46 -0.05 -0.41 -0.04 -0.37 -0.03 -0.33 -0.02 -0.29 -0.02 -0.26 -0.01 -0.22 -0.01 -0.2 -0 -0.18 0 -0.16 0 -0.15 0.01 -0.14 0.01 -0.15 0.01 -0.15 0.02 -0.17 0.02 -0.2 0.02 -0.22 0.03 -0.25 0.04 -0.28 0.04 -0.31 0.04 -0.33 0.05 -0.37 0.05 -0.4 0.05 -0.43 0.05 -0.46 0.06 -0.5 0.06 -0.53 0.06 -0.56 0.05 -0.6 0.05 -0.64 0.05 -1.06 -13.75 0.54 -0.04 0.49 -0.04 0.45 -0.04 0.42 -0.04 0.39 -0.04 0.36 -0.04 0.34 -0.04 0.32 -0.04 0.31 -0.04 0.3 -0.04 0.29 -0.04 0.3 -0.04 0.31 -0.04 0.32 -0.04 0.33 -0.04 0.35 -0.04 0.37 -0.04 0.38 -0.03 0.4 -0.03 0.41 -0.02 0.42 -0.01 0.43 -0 0.44 0 0.45 0.01 0.46 0.02 0.48 0.03 0.5 0.03 0.52 0.04 0.54 0.05 0.57 0.06 0.6 0.06 0.63 0.07 0 0zm48.57 12.95l-5.66 12.57 0 0 -1.23 -0.54 -1.27 -0.54 -1.31 -0.53 -1.34 -0.52 -1.37 -0.51 -1.4 -0.51 -1.42 -0.5 -1.44 -0.49 -1.46 -0.48 -1.48 -0.47 -1.49 -0.45 -1.5 -0.44 -1.51 -0.43 -1.51 -0.42 -1.51 -0.41 -1.51 -0.39 -1.51 -0.38 -1.5 -0.36 -1.49 -0.35 -1.48 -0.34 -1.47 -0.32 -1.45 -0.31 -1.43 -0.29 -1.4 -0.27 -1.38 -0.26 -1.35 -0.24 -1.32 -0.22 -1.28 -0.21 -1.24 -0.19 -1.2 -0.17 -1.16 -0.15 -1.11 -0.14 1.6 -13.69 1.26 0.15 1.3 0.17 1.33 0.19 1.37 0.21 1.4 0.23 1.43 0.24 1.46 0.26 1.48 0.28 1.51 0.3 1.53 0.31 1.55 0.33 1.57 0.34 1.58 0.36 1.59 0.37 1.6 0.39 1.61 0.41 1.62 0.42 1.62 0.43 1.62 0.45 1.62 0.46 1.62 0.48 1.61 0.49 1.6 0.51 1.59 0.52 1.58 0.53 1.56 0.55 1.55 0.56 1.53 0.57 1.51 0.59 1.48 0.6 1.46 0.62 1.43 0.63 0 0zm126.71 152.66l-3.38 -13.37 -4.71 9.25 -0.08 -0.2 -0.33 -0.79 -0.57 -1.31 -0.8 -1.8 -1.04 -2.27 -1.28 -2.71 -1.52 -3.11 -1.76 -3.49 -2 -3.84 -2.25 -4.16 -2.49 -4.45 -2.74 -4.7 -2.99 -4.93 -3.23 -5.13 -3.48 -5.3 -3.73 -5.44 -3.98 -5.55 -4.23 -5.64 -4.48 -5.69 -4.73 -5.71 -4.99 -5.7 -5.24 -5.67 -5.49 -5.6 -5.74 -5.51 -6 -5.38 -6.25 -5.23 -6.5 -5.05 -6.76 -4.84 -7.01 -4.61 -7.27 -4.34 -7.53 -4.05 -7.79 -3.73 5.66 -12.57 8.37 4.01 8.08 4.35 7.79 4.65 7.49 4.92 7.2 5.16 6.91 5.37 6.63 5.55 6.34 5.7 6.06 5.81 5.78 5.9 5.5 5.96 5.23 5.98 4.96 5.98 4.69 5.95 4.42 5.89 4.15 5.8 3.89 5.68 3.63 5.53 3.37 5.35 3.11 5.14 2.85 4.9 2.6 4.63 2.35 4.34 2.09 4.01 1.85 3.66 1.6 3.27 1.35 2.86 1.11 2.42 0.86 1.94 0.62 1.44 0.38 0.9 0.15 0.37 -4.71 9.25zm4.71 -9.25l2.93 7.31 -7.64 1.93 4.71 -9.25zm-52.5 7.13l44.41 -11.24 3.38 13.37 -44.41 11.24 -7.02 -2.31 3.64 -11.06zm3.38 13.37l-4.24 1.07 -2.78 -3.39 7.02 2.31zm-51.6 -78.39l55.24 67.33 -10.66 8.74 -55.24 -67.33 -1.46 -3.16 12.12 -5.59zm-12.12 5.59l-4.66 -26.03 16.77 20.45 -12.12 5.59zm33.15 200.78l-3.22 -13.41 -5.25 7.41 -0.84 -8.13 -0.84 -8.02 -0.84 -7.9 -0.83 -7.79 -0.83 -7.67 -0.83 -7.55 -0.83 -7.43 -0.82 -7.31 -0.82 -7.18 -0.82 -7.05 -0.81 -6.92 -0.81 -6.79 -0.8 -6.66 -0.8 -6.52 -0.79 -6.38 -0.79 -6.24 -0.78 -6.1 -0.78 -5.96 -0.77 -5.81 -0.76 -5.67 -0.76 -5.52 -0.75 -5.36 -0.74 -5.21 -0.73 -5.05 -0.72 -4.9 -0.72 -4.74 -0.71 -4.57 -0.7 -4.41 -0.69 -4.24 -0.68 -4.07 -0.67 -3.9 -0.66 -3.73 13.57 -2.43 0.67 3.8 0.68 3.96 0.69 4.13 0.7 4.3 0.71 4.46 0.71 4.62 0.72 4.78 0.73 4.94 0.74 5.09 0.75 5.25 0.75 5.4 0.76 5.55 0.77 5.7 0.77 5.84 0.78 5.99 0.78 6.13 0.79 6.27 0.8 6.41 0.8 6.55 0.81 6.68 0.81 6.81 0.81 6.94 0.82 7.07 0.82 7.2 0.83 7.33 0.83 7.45 0.83 7.57 0.83 7.69 0.84 7.81 0.84 7.92 0.84 8.03 0.84 8.14 -5.25 7.41zm5.25 -7.41l0.62 6 -5.86 1.41 5.25 -7.41zm-105.81 26.59l-0.76 -13.77 -0 0 5.12 -0.31 4.93 -0.36 4.75 -0.4 4.57 -0.44 4.4 -0.47 4.23 -0.5 4.07 -0.53 3.91 -0.56 3.76 -0.59 3.61 -0.61 3.47 -0.63 3.34 -0.65 3.21 -0.66 3.09 -0.67 2.97 -0.68 2.86 -0.69 2.76 -0.69 2.66 -0.7 2.57 -0.7 2.48 -0.69 2.4 -0.69 2.33 -0.68 2.26 -0.67 2.2 -0.66 2.14 -0.65 2.1 -0.63 2.05 -0.61 2.02 -0.59 1.99 -0.57 1.96 -0.54 1.95 -0.51 1.93 -0.48 3.22 13.41 -1.73 0.43 -1.77 0.47 -1.82 0.5 -1.88 0.54 -1.94 0.57 -2.01 0.6 -2.07 0.63 -2.15 0.65 -2.23 0.67 -2.31 0.69 -2.39 0.7 -2.48 0.71 -2.58 0.72 -2.68 0.73 -2.78 0.73 -2.89 0.73 -3 0.72 -3.12 0.72 -3.24 0.71 -3.37 0.69 -3.5 0.68 -3.64 0.66 -3.78 0.64 -3.92 0.61 -4.08 0.59 -4.23 0.56 -4.39 0.52 -4.56 0.49 -4.73 0.45 -4.91 0.41 -5.09 0.37 -5.27 0.32 -0 0zm-93.47 -17.5l13.78 -0.33 -5.89 -6.66 2.95 0.46 2.84 0.48 2.74 0.49 2.65 0.51 2.56 0.52 2.49 0.53 2.42 0.54 2.36 0.54 2.3 0.54 2.26 0.53 2.23 0.52 2.2 0.51 2.19 0.5 2.18 0.49 2.18 0.47 2.2 0.45 2.22 0.43 2.26 0.4 2.31 0.38 2.36 0.35 2.43 0.32 2.52 0.29 2.61 0.25 2.71 0.21 2.82 0.17 2.95 0.13 3.08 0.08 3.23 0.03 3.38 -0.02 3.55 -0.07 3.72 -0.13 3.91 -0.19 0.76 13.77 -4.09 0.2 -3.92 0.14 -3.75 0.08 -3.6 0.02 -3.45 -0.04 -3.31 -0.09 -3.18 -0.14 -3.06 -0.19 -2.95 -0.23 -2.85 -0.27 -2.75 -0.31 -2.66 -0.35 -2.58 -0.38 -2.51 -0.41 -2.45 -0.44 -2.39 -0.46 -2.34 -0.48 -2.3 -0.5 -2.27 -0.51 -2.25 -0.52 -2.24 -0.52 -2.24 -0.53 -2.24 -0.53 -2.26 -0.53 -2.28 -0.52 -2.32 -0.51 -2.37 -0.51 -2.43 -0.49 -2.5 -0.48 -2.58 -0.47 -2.67 -0.45 -2.77 -0.43 -5.89 -6.66zm5.89 6.66l-5.75 -0.85 -0.14 -5.81 5.89 6.66zm-0.43 -194.6l-4.84 -12.91 9.31 6.38 0 0.17 0.01 0.53 0.01 0.88 0.02 1.24 0.02 1.6 0.03 1.97 0.03 2.33 0.04 2.7 0.05 3.08 0.05 3.45 0.06 3.83 0.07 4.21 0.08 4.59 0.08 4.98 0.09 5.37 0.1 5.76 0.11 6.15 0.12 6.55 0.13 6.95 0.14 7.35 0.15 7.75 0.16 8.16 0.17 8.57 0.19 8.98 0.2 9.4 0.21 9.81 0.22 10.23 0.24 10.66 0.25 11.08 0.26 11.51 0.28 11.94 0.29 12.38 -13.78 0.33 -0.29 -12.38 -0.28 -11.95 -0.26 -11.52 -0.25 -11.09 -0.24 -10.66 -0.22 -10.24 -0.21 -9.82 -0.2 -9.4 -0.19 -8.99 -0.17 -8.57 -0.16 -8.16 -0.15 -7.76 -0.14 -7.35 -0.13 -6.95 -0.12 -6.55 -0.11 -6.16 -0.1 -5.76 -0.09 -5.37 -0.08 -4.98 -0.08 -4.6 -0.07 -4.21 -0.06 -3.83 -0.05 -3.46 -0.05 -3.08 -0.04 -2.71 -0.03 -2.34 -0.03 -1.97 -0.02 -1.61 -0.02 -1.25 -0.01 -0.89 -0.01 -0.53 -0 -0.18 9.31 6.38zm-4.84 -12.91l9.2 -3.45 0.11 9.83 -9.31 -6.38zm-80.9 30.32l80.9 -30.32 4.84 12.91 -80.9 30.32 -4.52 0.11 -0.32 -13.02zm4.84 12.91l-2.24 0.84 -2.28 -0.73 4.52 -0.11zm-162.72 -64.95l162.4 51.93 -4.2 13.13 -162.4 -51.93 -0.49 -0.18 4.69 -12.95zm-4.2 13.13l-0.25 -0.08 -0.24 -0.1 0.49 0.18z"/>
   </g>
   <path class="fil7" d="M1183.35 533.13l-8.73 -5.45 17.33 205.35 16.16 -4.61c0,0 -18.21,-177.31 -24.76,-195.29z"/>
   <path class="fil0" d="M1254.44 1255.01c0.92,13.29 1.85,26.77 2.73,39.7 1.22,17.85 -23.94,23 -29.78,6.09 -4.98,-14.41 -10.02,-30.23 -15.08,-47.06l42.13 1.27z"/>
   <path class="fil0" d="M1047.36 1296.84c-1.03,-15.07 -2.1,-31.62 -3.12,-48.17l42.03 1.27c-2.86,18.03 -5.74,34.33 -8.55,48.75 -3.43,17.63 -29.13,16.08 -30.36,-1.85z"/>
   <path class="fil5" d="M1086.27 1249.93l-19.12 -0.58 43.15 -465.98 125.89 471.08 -23.88 -0.72c-48.92,-162.95 -98.83,-421.32 -98.83,-421.32 2.63,174.31 -11.9,320.81 -27.22,417.52z"/>
   <path class="fil7" d="M1062.67 1311.08c6.7,0.02 13.41,-3.98 15.05,-12.39 2.8,-14.42 5.69,-30.73 8.55,-48.75l-19.12 -0.58 -4.47 61.72z"/>
   <path class="fil7" d="M1212.31 1253.74c5.05,16.84 10.1,32.65 15.08,47.06 2.61,7.55 9.07,10.68 15.31,10.26l-6.51 -56.6 -23.88 -0.72z"/>
   <path class="fil3" d="M1237.94 588.55c0,0 -36.98,161.18 -38.61,170.44l-0.77 4.36c-2.35,12.29 6.52,14.03 10.65,8.44 0,0 6.65,-8.4 11.78,-16.31l10.47 -32.17 15.49 -30.3 27.08 -60.83 1.54 -29.01c2.08,-3.74 0.51,-13.37 -2.5,-18.76l-35.13 4.15z"/>
   <path class="fil7" d="M1022.11 538.98l-85.72 26.06 -167.67 -54.62c-0.37,4.1 1.72,8.37 6.69,10.39l162.41 51.92 80.9 -30.32c0,0 0.68,59.88 3.85,194.23 11.85,1.74 20.84,4.07 29.84,6.15 0,0 -12.89,-29.38 -20.1,-86.47 -3.65,-28.95 -10.2,-117.34 -10.2,-117.34z"/>
   <path class="fil7" d="M1209.22 771.79c-3.38,4.57 -9.84,4.12 -10.83,-2.89 35.83,-40.63 68.35,-109.05 74.44,-149.19l3.69 -24.31c0.28,-1.87 5.29,-0.48 16.08,-1.29 0,0 -10.69,67.2 -71.61,161.37 -5.12,7.92 -11.77,16.32 -11.77,16.32z"/>
   <path class="fil8" d="M1199.33 758.99c0.27,-1.52 1.43,-7.06 3.18,-15.19 0,0.01 3.41,8.89 17.97,12.45 -5.05,7.68 -11.26,15.54 -11.26,15.54 -4.13,5.59 -13,3.85 -10.66,-8.44l0.77 -4.36z"/>
   <path class="fil9" d="M1206.99 773.78c-0.37,0.23 -0.75,0.43 -1.14,0.58 -0.3,0.11 -0.6,0.2 -0.9,0.26 -0.27,0.06 -0.54,0.08 -0.81,0.1 -0.4,0.02 -0.79,0.04 -1.18,-0.03 -0.07,-0.01 -0.14,-0.04 -0.21,-0.06 -2.09,-0.48 -3.88,-2.31 -4.36,-5.73 4.33,-4.91 8.57,-10.44 12.7,-16.38 2.45,1.44 5.49,2.78 9.38,3.73 -0,0.01 -0.01,0.02 -0.02,0.02 -5.04,7.68 -11.25,15.52 -11.25,15.52 -0.47,0.64 -1.02,1.16 -1.6,1.6 -0.2,0.15 -0.42,0.26 -0.63,0.39z"/>
   <path class="fil10" d="M1199.4 736.05c0,0 3.12,27.07 13.03,37.38l3.07 29.18 -24.13 -31.19 8.04 -35.37z"/>
   <polygon class="fil5" points="1205.94,762.45 1201.63,784.64 1215.49,802.61 1212.43,773.34 "/>
   <path class="fil7" d="M1203.05 741.27c0,0 3.03,5.45 9.85,8.66l-1.8 2.6c0,0 -6.6,-3.75 -8.59,-8.72l0.54 -2.53z"/>
   <path class="fil7" d="M1212.9 749.92c0,0 4.54,2.22 9.23,3.78l-1.66 2.55c0,0 -6.18,-1.52 -9.38,-3.73l1.8 -2.6z"/>
   <path class="fil1" d="M1098.15 500.23c0,0 10.9,110.49 -32.63,168.91l4.31 14.21 14.54 -1.45c0,-0 40.21,-42.06 13.79,-181.67z"/>
   <polygon class="fil7" points="1174.62,527.69 1172.15,510.23 1235.64,592.28 "/>
   <path class="fil5" d="M1035.98 391.3l-22.09 -37.99c0,0 35.7,-11.01 79.61,-18.28 26.2,-4.34 47.53,22.9 44.9,49.32 -1.67,16.78 -9.68,30.49 -22.99,63.52l-43.49 -14.01 -35.94 -42.57z"/>
   <path class="fil8" d="M1076.68 458.95l0 0c3.83,-3.85 2.2,-10.5 -3.03,-11.96 -1.78,-0.49 -3.68,-0.59 -5.59,-0.23l-20.74 4.01 -24.51 -26.3 16.94 -42.66c0,0 12.5,29.51 45.26,30.86l8.78 -22.42c0,0 21.74,8.19 13.75,32.46 0,0 -3.45,21.57 11.6,24.5l-24.55 46.93 -17.89 -35.2z"/>
   <path class="fil11" d="M1061.56 448.03l0 0 6.5 -1.25c5.72,-0.83 12.44,1.83 6.54,8.58l19.97 38.8 -4.51 -44.44c-2.4,-4.75 -7.8,-7.18 -12.95,-5.81l-15.56 4.11z"/>
   <path class="fil7" d="M795.69 527.29c7.5,-5.77 4.04,-20.7 3.06,-24.3l-15.1 -2.07c-15.77,-2.57 -20.06,15.09 -8.23,19.89l20.27 6.48 0 0z"/>
   <path class="fil8" d="M795.34 496.55c0,0 -12.82,-8.13 -17.9,-10.39l-3.16 -1.4c-1.63,-0.72 -3.5,-0.69 -5.11,0.08l-4.66 2.25 -29.25 -7.44c-2.54,-0.79 -4.99,-0.18 -5.02,2.47l0 0c-0.02,1.63 0.96,3.11 2.47,3.72l15.17 6.18c3.22,1.31 5.45,4.29 5.81,7.74l1.75 16.89c0.5,4.89 4.63,8.6 9.54,8.6l22.34 0 3.23 0.82c4.59,-4.17 9.42,-15.6 4.78,-29.53z"/>
   <path class="fil12" d="M1151.01 525.73c1.48,19.54 -19.62,33.21 -36.83,23.64 17.4,13.04 52.26,-3.32 36.83,-23.64z"/>
   <path class="fil12" d="M1114.18 549.37c4.78,5.12 11.64,8.52 19.2,8.52 10.21,0 20.61,-5.43 21.86,-16.35 -8.8,14.01 -27.72,17.46 -41.06,7.83z"/>
   <path class="fil12" d="M1114.18 549.37c5.93,10.33 19.26,14.61 29.68,9.02 -12.24,3.41 -22.1,-0.96 -29.68,-9.02z"/>
   <path class="fil12" d="M1131.2 521.48c1.28,0 2.54,0.13 3.75,0.37 -2.5,-1.72 -5.33,-3 -8.38,-3.72 -11.92,3.94 -18.06,17.07 -13.65,28.68 -0.63,-1.91 -0.98,-3.95 -0.98,-6.07 0,-10.64 8.62,-19.26 19.26,-19.26z"/>
   <path class="fil12" d="M1149.79 524.25c-1.99,-2.2 -4.43,-3.99 -7.16,-5.25 1.77,2.9 2.89,6.11 3.37,9.41 1.32,1.59 2.4,3.38 3.16,5.34 0.83,-3.12 1.03,-6.34 0.63,-9.5zm-16.28 -7.23l0 0c-0.01,-0 -0.02,-0 -0.03,-0 -1.46,0 -2.89,0.14 -4.27,0.42 0.68,0.3 1.35,0.62 2.01,0.98 2.09,1.12 4,2.44 5.72,3.94 0.73,0.23 1.45,0.5 2.14,0.81 -1.48,-2.31 -3.34,-4.4 -5.58,-6.15zm1.62 0.06l0 0c2.21,1.98 4.04,4.3 5.43,6.83 1.53,0.85 2.92,1.9 4.16,3.12 -0.68,-3.09 -1.94,-6.05 -3.73,-8.69 -1.85,-0.67 -3.82,-1.1 -5.86,-1.25z"/>
   <polygon class="fil12" points="1122.98,548.01 1126.38,532.01 1119.9,532.01 1121.01,526.86 1141.03,526.86 1139.91,532.01 1133.42,532.01 1130.02,548.01 "/>
   <polygon class="fil12" points="1121.95,552.88 1122.68,549.58 1129.73,549.58 1128.99,552.88 "/>
   <g>
    <path class="fil13" d="M621.85 1029.92c4.03,53.33 -53.55,90.61 -100.51,64.52 47.48,35.57 142.59,-9.05 100.51,-64.52z"/>
    <path class="fil13" d="M521.34 1094.44c13.03,13.98 31.77,23.25 52.39,23.25 27.87,0 56.24,-14.82 59.65,-44.61 -24.03,38.24 -75.65,47.64 -112.04,21.36z"/>
    <path class="fil13" d="M521.34 1094.44c16.18,28.19 52.57,39.88 81,24.61 -33.39,9.3 -60.31,-2.62 -81,-24.61z"/>
    <path class="fil13" d="M567.78 1018.32c3.5,0 6.92,0.36 10.23,1.01 -6.82,-4.7 -14.54,-8.19 -22.85,-10.15 -32.53,10.76 -49.27,46.58 -37.26,78.25 -1.73,-5.21 -2.66,-10.77 -2.66,-16.56 0,-29.02 23.53,-52.55 52.55,-52.55z"/>
    <path class="fil13" d="M618.5 1025.89c-5.44,-6 -12.08,-10.9 -19.54,-14.32 4.82,7.92 7.9,16.67 9.19,25.67 3.61,4.33 6.54,9.24 8.62,14.58 2.25,-8.5 2.81,-17.31 1.73,-25.93zm-44.41 -19.74l0 0c-0.02,-0 -0.05,-0 -0.07,-0 -3.99,0 -7.88,0.39 -11.65,1.14 1.85,0.81 3.68,1.7 5.49,2.66 5.72,3.05 10.92,6.67 15.6,10.76 2,0.62 3.95,1.37 5.84,2.22 -4.03,-6.3 -9.13,-12 -15.22,-16.77zm4.43 0.17l0 0c6.04,5.41 11.01,11.73 14.82,18.63 4.16,2.32 7.98,5.19 11.35,8.51 -1.84,-8.44 -5.28,-16.51 -10.17,-23.72 -5.05,-1.83 -10.42,-3.01 -15.99,-3.42z"/>
    <polygon class="fil14" points="545.34,1090.72 554.62,1047.06 536.94,1047.06 539.98,1033.02 594.61,1033.02 591.56,1047.06 573.85,1047.06 564.57,1090.72 "/>
    <polygon class="fil15" points="542.54,1104.01 544.54,1095.01 563.77,1095.01 561.76,1104.01 "/>
   </g>
  </g>
 </g>
</svg>
