<?xml version="1.0" encoding="UTF-8"?>
<!DOCTYPE svg PUBLIC "-//W3C//DTD SVG 1.1//EN" "http://www.w3.org/Graphics/SVG/1.1/DTD/svg11.dtd">
<!-- Creator: CorelDRAW Standard 2021 (64 Bit) -->
<svg xmlns="http://www.w3.org/2000/svg" xml:space="preserve" width="372.519mm" height="369.76mm" version="1.1" style="shape-rendering:geometricPrecision; text-rendering:geometricPrecision; image-rendering:optimizeQuality; fill-rule:evenodd; clip-rule:evenodd"
viewBox="0 0 1501.08 1489.96"
 xmlns:xlink="http://www.w3.org/1999/xlink"
 xmlns:xodm="http://www.corel.com/coreldraw/odm/2003">
 <defs>
  <style type="text/css">
   <![CDATA[
    .fil2 {fill:#F9B184}
    .fil3 {fill:#F8A888}
    .fil6 {fill:#011721}
    .fil4 {fill:#012E42}
    .fil5 {fill:#053B53}
    .fil1 {fill:#094561}
    .fil7 {fill:#D98218}
    .fil0 {fill:#F59B2C}
    .fil8 {fill:#094561;fill-rule:nonzero}
   ]]>
  </style>
 </defs>
 <g id="Camada_x0020_1">
  <metadata id="CorelCorpID_0Corel-Layer"/>
  <g id="_1780824991568">
   <path class="fil0" d="M1026.42 745.56c-1.6,1.24 -4.44,1.03 -6.06,0 -4.19,-2.65 -8.06,-5.7 -11.76,-8.95l0 28.98 36.02 0 0 -30.75c-6.28,2.78 -12.38,6.23 -18.2,10.72z"/>
   <path class="fil0" d="M528.34 736.55c-5.05,2.24 -10.26,3.77 -15.67,1.7 -3.11,-1.19 -5.85,-3.15 -8.37,-5.42l0 41.64 36.02 0 0 -43.53c-3.98,1.9 -7.95,3.83 -11.98,5.62z"/>
   <path class="fil0" d="M-0 0l0 648.39 36.02 0 0 -108.06 90.05 0 0 126.07 378.22 0 0 17.87c2.95,-1.1 5.94,-2.1 8.86,-3.07 2.85,-0.95 6.86,1.11 7.39,4.2 0.54,3.17 1.41,6.97 3.12,9.14 1.08,1.37 2.08,1.97 3.73,2.21 -0.42,-0.06 3.2,-0.08 2.32,0.04 1.4,-0.18 2.8,-0.57 4.14,-1 2.2,-0.7 4.32,-1.74 6.46,-2.9l0 -62.5 -126.08 0 0 -126.07 -126.07 0 0 -360.22 -36.02 0 0 234.14 -108.06 0 0 36.02 108.06 0 0 126.08 126.07 0 0 90.05 -216.13 0 0 -126.07 -126.07 0 0 -216.13 126.07 0 0 -144.09 -36.02 0 0 108.07 -90.05 0 0 -216.13 594.35 0 0 90.05 -252.14 0 0 144.09 36.02 0 0 -108.06 90.05 0 0 216.13 -108.06 0 0 36.02 252.15 0 0 -36.02 -108.06 0 0 -216.13 126.07 0 0 -126.08 468.29 0 0 108.06 36.02 0 0 -108.06 90.05 0 0 252.15c-280.83,0 -849.86,0 0,0l0 216.13 -90.05 0 0 -108.07 -36.02 0 0 234.14 -360.22 0 0 36.02 234.14 0 0 22.55c2.39,1.32 4.91,2.35 7.51,2.49 3.23,0.17 6.53,-1.11 9.66,-1.7 2.14,-0.41 5.61,-0.16 7.56,-1 1.73,-0.75 3.2,-2.97 4.6,-4.15 2.03,-1.71 4.28,-2.82 6.68,-3.26l0 -14.91 126.08 0 0 -126.07 126.07 0 0 -540.32 -1296.77 0z"/>
   <path class="fil1" d="M630.37 672.52c2.19,-0.06 4.32,0.32 6.31,1.38 4.55,2.41 6.66,8.25 9.16,11.19 2.06,2.44 4.43,3.8 7.61,4.65 1.73,0.46 2.71,0.69 3.11,0.63 1.56,-0.24 3.12,-0.74 4.58,-1.35 1.81,-0.76 3.55,-1.65 5.26,-2.57l0 -146.11 378.23 0 0 -144.09 -36.02 0 0 108.07 -216.13 0 -0 -342.21 108.06 0 0 -36.02 -144.09 0 0 126.08 -108.06 0 0 36.02 108.06 0 0 216.13 -234.14 0 0 36.02 108.06 0 0 132.19z"/>
   <path class="fil1" d="M1286.12 734.45c-6.53,3.41 -12.74,7.69 -20.11,8.91 -1.85,0.31 -3.59,0.29 -5.26,0.14l0 12.96 -126.07 0 0 126.07 -216.13 0 0 -126.07 -252.15 0 0 -22.63c-2.68,1.5 -5.36,3.01 -8.09,4.43 -4.95,2.58 -9.94,4.58 -15.59,3.26 -4.36,-1.01 -8.46,-3.34 -12.35,-5.93l0 146.95 -216.13 0 0 -108.07 -36.02 0 0 108.07 -126.07 0 0 126.07 -108.06 0 0 36.02 108.06 0 0 108.07 36.02 0 0 -234.14 342.2 0 0 90.05 -108.06 0 0 36.02 234.14 0 0 108.07 36.02 0 0 -144.09 -126.08 0 0 -216.13 216.13 0 0 90.05 -108.06 0 0 36.02 234.14 0 0 126.07 144.09 0 0 -36.02 -108.07 0 0 -90.05 126.08 0 0 -126.07 90.05 0 0 342.2 -234.14 0 0 36.02 234.14 0 0 90.05 -342.2 0 0 -234.14 -36.02 0 0 234.14 -468.28 0 0 -90.05 234.14 0 0 -36.02 -234.14 0 0 -108.06 -36.02 0 0 234.14 -216.13 0 0 -108.06 -36.02 0 0 108.06 -90.05 0 0 -468.28 90.05 0 0 108.06 36.02 0 0 -108.06 108.07 0 0 -36.02 -270.16 0 0 540.32 1296.77 0 0 -551.84c-4.48,-2.18 -8.05,-5.86 -10.65,-10.49z"/>
   <path class="fil1" d="M1268.37 652.25c7.02,2.83 9.27,13.14 12.17,23.97 2.96,11.06 7.07,12.65 13.34,10.89 0.97,-0.27 1.92,-0.68 2.89,-1.03l0 -117.04 -36.02 0 0 82.82c2.57,-0.52 5.13,-0.62 7.62,0.39z"/>
   <path class="fil1" d="M1406.65 726.49c-0.01,0 -0.01,0 -0.02,0l-1398.78 -3.49c-4.35,-0.01 -7.86,-4.05 -7.85,-9.04 0.01,-4.97 3.53,-8.99 7.87,-8.99 0,0 0.01,0 0.02,0l1398.77 3.49c4.35,0.01 7.87,4.06 7.86,9.03 -0.01,4.97 -3.53,9 -7.87,9z"/>
   <path class="fil1" d="M1339.19 755.23c-3.85,0 -7.42,-2.49 -8.61,-6.37 -1.47,-4.76 1.21,-9.8 5.96,-11.26l71.07 -21.86 -71.07 -21.87c-4.76,-1.46 -7.43,-6.51 -5.96,-11.26 1.46,-4.76 6.52,-7.43 11.27,-5.97l99.08 30.48c3.78,1.16 6.36,4.66 6.36,8.62 0,3.96 -2.58,7.45 -6.36,8.62l-99.07 30.48c-0.89,0.27 -1.78,0.4 -2.66,0.4z"/>
   <path class="fil1" d="M1427.26 833.13c0.7,-5.9 29.77,-87.86 33.31,-99.31 6.91,-22.31 35.97,-13.1 28,15.75 -12.55,45.47 -28.01,100.36 -41.28,110.11 0,0 -21.28,-14.72 -20.03,-26.55z"/>
   <path class="fil2" d="M660.22 1328.72c-5.61,11.91 -8.97,20.52 -11.98,51.29 -3.01,30.77 0.75,35.27 5.51,34.77 4.76,-0.5 6.76,-39.26 6.76,-39.26 0,0 -3.28,32.34 -2.55,44.96 0.73,12.61 4.97,20.08 9.93,19.3 4.97,-0.79 5.07,-61.14 5.07,-61.14 0,0 -6.09,64.35 4.49,65.22 10.57,0.87 10.25,-62.21 10.25,-62.21 0,0 -0.98,50.05 6.21,50.44 7.19,0.39 9.76,-63.85 13.59,-67.01 3.83,-3.15 0.81,8.46 2.56,22.7 1.75,14.23 14.82,22.85 13.9,9 -0.92,-13.85 12.41,-47.53 3.51,-67.25 -8.9,-19.72 -16.72,-34.52 -16.72,-34.52l-36.38 5.77c0,0 -10.81,20.87 -14.15,27.95z"/>
   <path class="fil3" d="M881.83 1231.74c0,0 -31.08,65.73 -25.19,148.77 1.85,26.07 6.94,66.19 13.04,109.45l158.17 0c7.23,-92.14 9.25,-185.2 -4.7,-243.27 -30.02,-124.95 -141.32,-14.95 -141.32,-14.95z"/>
   <path class="fil3" d="M759.89 1228.87c0,0 -34.78,63.86 -33.63,147.09 0.37,26.92 3.33,68.95 7.11,114.01l158.26 0c12.05,-89.93 18.92,-180.42 8.49,-238.12 -22.85,-126.46 -140.23,-22.98 -140.23,-22.98z"/>
   <path class="fil0" d="M752.67 782.84c0,0 -39.67,4.77 -56.01,106.81 -16.34,102.03 -24.93,239.6 -27.36,292.89 -2.42,53.3 -4.72,127.04 -4.72,127.04l59.07 4.92c0,0 42.14,-245.82 46.81,-334.82 4.67,-89 -17.8,-196.85 -17.8,-196.85z"/>
   <path class="fil2" d="M1496.92 845.48c1.35,-4.62 1.07,-8.96 -0.77,-11.79 -1.65,-2.52 -3.75,-3.82 -6.59,-2.35 1.59,-5.52 0.97,-11.3 -3.85,-15.87 -1.89,-11.58 -10.77,-30.97 -17.65,-20.5 -3.46,5.27 7.95,26.98 -13.02,32.28 -20.97,5.3 -31.66,4.78 -18.95,-2.14 12.7,-6.92 14.72,-23.53 7.14,-19.93 -7.58,3.6 -23.87,7.49 -34.16,14.55 -10.28,7.06 -18.39,17.81 -22.55,23.86 -6.39,9.28 -24.23,27.76 -9.11,42.68 15.12,14.92 70.62,17.32 103.84,-7.66 26.15,-19.66 20.62,-33.44 15.67,-33.13z"/>
   <path class="fil3" d="M923.86 689.3c0,0 -11.31,47.19 3.32,81.86 14.63,34.68 -107.13,13.68 -107.13,13.68 0,0 27.94,-17.4 8.19,-109.23 -19.76,-91.84 95.62,13.69 95.62,13.69z"/>
   <path class="fil0" d="M932.32 752.01c0,0 30.83,7.46 66.88,17.31 50.82,13.88 48.22,68.77 36.73,111.56 -11.49,42.79 -48.86,264.45 -48.86,264.45l-191.94 7.79c0,0 -52.11,-241.74 -55.16,-298.14 -1.67,-30.95 -8.19,-64.42 15.18,-73.31 19.22,-7.31 46.03,-13.47 78.98,-28.88 21.85,-10.22 39.42,7.2 53.31,6.36 32.52,-1.94 44.87,-7.15 44.87,-7.15z"/>
   <path class="fil2" d="M967.52 491.72c12.24,18.44 18.81,49.77 16.93,82.8 -2.79,49.1 16,59.33 -24.73,102.36 -39.78,42.01 -96.18,38.72 -131.48,-1.27 -35.3,-39.99 -53.08,-118.13 -28.1,-174.23 23.13,-51.93 125.62,-72.58 167.38,-9.66z"/>
   <path class="fil3" d="M949.27 756.11c0,0 -24.95,26.12 -57.78,27.45 -39.61,1.6 -83.17,-19.72 -83.17,-19.72l37 -17.72 75.38 -3.06 28.57 13.04z"/>
   <path class="fil4" d="M979.46 472.24c10.79,10.13 34.71,31.46 19.84,55.77 -14.87,24.31 -35.93,36.5 -42.37,62.22 -6.44,25.73 22.52,100.81 14.48,149.61 -8.04,48.8 -18.23,80.98 -67.57,100.28 -49.34,19.31 -85.27,52.02 -70.25,77.22 0,0 -62.21,-21.45 -72.93,-95.46 -10.72,-74.01 32.18,-68.45 13.95,-154.89 -18.23,-86.44 -17.3,-182.39 33.72,-214.05 51.01,-31.66 87.48,-8.06 87.48,-8.06 0,-0 43.85,-10.03 83.66,27.35z"/>
   <path class="fil1" d="M790.28 1130.29c0,0 -78.43,126.87 -77.23,292.14 0.18,24.39 0.84,46.88 1.85,67.53l334.29 0c7.53,-111.11 0.9,-252.41 -60.27,-355.48 0,0 -143.56,13.24 -198.64,-4.19z"/>
   <path class="fil4" d="M802.72 1206.55c-0.28,0 -0.56,-0.04 -0.85,-0.13 -1.42,-0.47 -2.19,-2 -1.72,-3.42l15.11 -45.63c0.47,-1.42 1.99,-2.18 3.41,-1.72 1.42,0.47 2.19,2 1.72,3.42l-15.11 45.63c-0.38,1.14 -1.43,1.85 -2.57,1.85z"/>
   <path class="fil5" d="M954.47 1205.86c-1.24,-0 -2.36,-0.87 -2.64,-2.12l-9.79 -44.94c-0.32,-1.46 0.61,-2.9 2.07,-3.22 1.47,-0.32 2.9,0.61 3.22,2.06l9.78 44.94c0.32,1.46 -0.61,2.9 -2.06,3.22 -0.2,0.04 -0.39,0.06 -0.58,0.06z"/>
   <path class="fil6" d="M785.8 1136.24c0,0 64.64,21.81 209.98,5.25l11.06 24.3c0,0 -136.38,21.86 -233.72,-9.32l12.68 -20.23z"/>
   <polygon class="fil1" points="804.74,1136.24 793.1,1166.66 800.46,1169.28 812.35,1136.24 "/>
   <polygon class="fil1" points="971.38,1140.04 982.79,1176.41 991.35,1173.18 979.94,1140.04 "/>
   <path class="fil0" d="M1009.46 773.01c0,0 31.1,12.34 84.58,67.5 53.49,55.16 96.27,94.88 96.27,94.88l180.21 -81.87c0,0 14.2,27.81 31.32,42.8 0,0 -153.58,152.59 -231.19,135.87 -77.62,-16.72 -161.19,-109.06 -161.19,-109.06l0 -150.12z"/>
   <path class="fil7" d="M1370.52 853.52c0,0 21.43,34.91 31.32,42.8l-23.49 21.02c0,0 -28.96,-24.62 -35.76,-51.14l27.92 -12.69z"/>
   <path class="fil7" d="M1020.7 938.05c-0.03,-0.98 -2.5,-100.95 -8.12,-163.59l6.92 3.79c5.63,62.86 7.55,158.68 7.58,159.65l-6.38 0.15z"/>
   <path class="fil7" d="M760.36 1003.99c-22.11,-131.63 -16.3,-216.77 -16.25,-217.64l6.64 -3.05c-0.06,0.86 -6.07,88.82 15.9,219.63l-6.29 1.06z"/>
   <path class="fil7" d="M875.84 1082.29c-12.84,-31.53 -58.1,-110.43 -58.56,-111.22l5.53 -3.17c1.87,3.25 45.93,80.06 58.93,111.99l-5.91 2.41z"/>
   <polygon class="fil7" points="1183.09,945.55 1179,940.63 1189.31,934.46 1192.41,934.44 "/>
   <polygon class="fil7" points="1279.88,972.08 1276.19,966.88 1327.53,930.5 1331.23,935.71 "/>
   <polygon class="fil7" points="725.92,1262.56 719.64,1261.43 734.47,1179.16 740.75,1180.28 "/>
   <polygon class="fil7" points="664.59,1309.58 723.66,1314.51 729.41,1280.23 665.69,1276.01 "/>
   <path class="fil5" d="M870.57 1489.96c-25.9,-59.33 -63.48,-89.72 -63.93,-90.07 -1.16,-0.93 -1.36,-2.64 -0.43,-3.8 0.92,-1.16 2.62,-1.37 3.79,-0.44 0.46,0.37 39.92,32.23 66.44,94.31l-5.88 0z"/>
   <path class="fil8" d="M991.65 360.57c-17.65,0 -31.97,-14.33 -31.97,-31.97 0,-17.65 14.33,-32.01 31.97,-32.01 17.62,0 31.97,14.37 31.97,32.01 0,17.65 -14.36,31.97 -31.97,31.97zm0 -51.18l0 0c-10.59,0 -19.21,8.61 -19.21,19.21 0,10.6 8.62,19.18 19.21,19.18 10.57,0 19.18,-8.58 19.18,-19.18 0,-10.6 -8.61,-19.21 -19.18,-19.21z"/>
   <path class="fil8" d="M1081.19 322.21c-3.52,0 -6.38,-2.86 -6.38,-6.42l0 -121.55 -108.76 0c-17.66,0 -31.97,14.33 -31.97,31.97l0 83.17 10.33 0c7.78,-19.28 26.2,-31.97 47.23,-31.97 21.04,0 39.42,12.7 47.24,31.97l16.75 0c3.52,0 6.39,2.88 6.39,6.41 0,3.56 -2.87,6.42 -6.39,6.42l-21.27 0c-2.82,0 -5.35,-1.85 -6.15,-4.58 -4.92,-16.42 -19.61,-27.42 -36.57,-27.42 -16.95,0 -31.64,11 -36.56,27.42 -0.83,2.73 -3.33,4.58 -6.16,4.58l-21.27 0c-3.53,0 -6.39,-2.86 -6.39,-6.42l0 -89.58c0,-24.7 20.08,-44.77 44.78,-44.77l115.13 0c3.56,0 6.42,2.86 6.42,6.41l0 127.94c0,3.56 -2.86,6.42 -6.42,6.42z"/>
   <path class="fil8" d="M1119.59 360.57c-17.66,0 -31.98,-14.33 -31.98,-31.97 0,-17.65 14.33,-32.01 31.98,-32.01 17.65,0 31.97,14.37 31.97,32.01 0,17.65 -14.33,31.97 -31.97,31.97zm0 -51.18l0 0c-10.57,0 -19.22,8.61 -19.22,19.21 0,10.6 8.64,19.18 19.22,19.18 10.57,0 19.18,-8.58 19.18,-19.18 0,-10.6 -8.62,-19.21 -19.18,-19.21z"/>
   <path class="fil8" d="M1183.54 322.21l-21.24 0c-2.83,0 -5.33,-1.85 -6.12,-4.58 -4.92,-16.42 -19.64,-27.42 -36.6,-27.42 -3.33,0 -6.82,0.57 -10.97,1.82 -1.93,0.57 -4.02,0.2 -5.65,-1.02 -1.63,-1.2 -2.6,-3.1 -2.6,-5.12l0 -72.46c0,-3.49 2.89,-6.39 6.42,-6.39l38.39 0c2,0 3.93,0.94 5.12,2.56l38.36 51.19c0.83,1.09 1.29,2.46 1.29,3.82l0 51.18c0,3.56 -2.86,6.42 -6.42,6.42zm-16.72 -12.82l0 0 10.34 0 0 -42.65 -35.17 -46.9 -28.79 0 0 58.04c2.19,-0.34 4.29,-0.46 6.39,-0.46 21,0 39.45,12.7 47.23,31.97z"/>
  </g>
 </g>
</svg>
