<?xml version="1.0" encoding="UTF-8"?>
<!DOCTYPE svg PUBLIC "-//W3C//DTD SVG 1.1//EN" "http://www.w3.org/Graphics/SVG/1.1/DTD/svg11.dtd">
<!-- Creator: CorelDRAW Standard 2021 (64 Bit) -->
<svg xmlns="http://www.w3.org/2000/svg" xml:space="preserve" width="308.926mm" height="369.76mm" version="1.1" style="shape-rendering:geometricPrecision; text-rendering:geometricPrecision; image-rendering:optimizeQuality; fill-rule:evenodd; clip-rule:evenodd"
viewBox="0 0 872.21 1043.97"
 xmlns:xlink="http://www.w3.org/1999/xlink"
 xmlns:xodm="http://www.corel.com/coreldraw/odm/2003">
 <defs>
  <style type="text/css">
   <![CDATA[
    .str0 {stroke:#F59B2C;stroke-width:1.43;stroke-miterlimit:22.9256}
    .fil12 {fill:#053B53}
    .fil8 {fill:#094561}
    .fil9 {fill:gray}
    .fil4 {fill:#D98218}
    .fil16 {fill:#E8AE87}
    .fil3 {fill:#F59B2C}
    .fil6 {fill:#F6F5F5}
    .fil2 {fill:white}
    .fil20 {fill:#FBB462;fill-rule:nonzero}
    .fil21 {fill:#012E42;fill-rule:nonzero}
    .fil10 {fill:#053B53;fill-rule:nonzero}
    .fil0 {fill:#094561;fill-rule:nonzero}
    .fil13 {fill:#094561;fill-rule:nonzero}
    .fil19 {fill:gray;fill-rule:nonzero}
    .fil11 {fill:#E4E4E4;fill-rule:nonzero}
    .fil7 {fill:#E8E4E4;fill-rule:nonzero}
    .fil18 {fill:#ED9223;fill-rule:nonzero}
    .fil15 {fill:#EDAC80;fill-rule:nonzero}
    .fil14 {fill:#F4D2C6;fill-rule:nonzero}
    .fil5 {fill:#F59B2C;fill-rule:nonzero}
    .fil17 {fill:#FFC9B5;fill-rule:nonzero}
    .fil1 {fill:white;fill-rule:nonzero}
   ]]>
  </style>
 </defs>
 <g id="Camada_x0020_1">
  <metadata id="CorelCorpID_0Corel-Layer"/>
  <g id="_1780472313088">
   <path class="fil0" d="M131.22 286.56c19.04,8.66 -10.96,17.88 -33.47,15 -7.58,-0.98 -13.27,0.02 -17.16,1.02 -7.66,1.95 -8.39,3.91 -3.03,-9.09 3.52,-8.56 14.17,-10.96 25.06,-10.96 14.1,0.01 28.61,4.04 28.61,4.04l0 0z"/>
   <path class="fil0" d="M61.98 303.99c0,0 14.43,8.53 8.08,12.58 -6.35,4.04 -36.81,-2.89 -28.79,-9.81 4.48,-3.87 8.72,-5.5 12.54,-5.5 3.01,-0.01 5.76,1.01 8.17,2.74l0 0z"/>
   <polygon class="fil1" points="44.05,439.3 34.09,439.3 34.09,474.73 21.18,474.73 21.18,439.3 11.22,439.3 27.64,417.19 "/>
   <polygon class="fil1" points="72.58,647.06 57.57,647.06 57.57,700.37 38.15,700.37 38.15,647.06 23.16,647.06 47.87,613.79 "/>
   <polygon class="fil1" points="246.18,932.72 234.42,932.72 234.42,971.37 219.19,971.37 219.19,932.72 207.45,932.72 226.81,908.6 "/>
   <polygon class="fil1" points="187.33,932.72 175.57,932.72 175.57,971.37 160.34,971.37 160.34,932.72 148.6,932.72 167.96,908.6 "/>
   <polygon class="fil2" points="145.31,978.83 249.46,978.83 249.46,980.81 145.31,980.81 "/>
   <polygon class="fil3" points="113.7,780.41 290,780.41 290,962.68 113.7,962.68 "/>
   <polygon class="fil2" points="151.53,922.54 255.68,922.54 255.68,924.53 151.53,924.53 "/>
   <polygon class="fil2" points="151.53,928.46 255.68,928.46 255.68,930.44 151.53,930.44 "/>
   <polygon class="fil4" points="22.67,780.42 113.7,780.42 113.7,962.7 22.67,962.7 "/>
   <path class="fil5" d="M67.64 869.66l19.75 -39.2c6.61,-13.05 13.29,-26.05 20.04,-39.01 -6.34,13.23 -12.74,26.42 -19.2,39.58l-19.5 39.37 -19.75 39.2c-6.61,13.05 -13.31,26.05 -20.04,39.01 6.34,-13.23 12.74,-26.42 19.21,-39.58l19.48 -39.37 0 0z"/>
   <path class="fil5" d="M68.73 869.66l19.5 39.37c6.47,13.14 12.86,26.35 19.2,39.58 -6.74,-12.96 -13.43,-25.96 -20.04,-39.01l-19.75 -39.2 -19.5 -39.37c-6.47,-13.14 -12.86,-26.35 -19.21,-39.58 6.74,12.96 13.43,25.96 20.04,39.01l19.77 39.2 0 0z"/>
   <path class="fil0" d="M606.5 984.45l-559.35 0c-26.04,0 -47.15,-21.11 -47.15,-47.15l0 -802.36c0,-26.04 21.12,-47.15 47.15,-47.15l559.35 0c26.04,0 47.15,21.11 47.15,47.15l0 802.36c0,26.04 -21.12,47.15 -47.15,47.15z"/>
   <polygon class="fil6" points="59.06,123.91 597.07,123.91 597.07,905.45 59.06,905.45 "/>
   <path class="fil7" d="M559.87 868.31c-235.01,37.62 -392.09,39.59 -519.48,30.14 16.5,-175.74 23.13,-467.69 29.79,-759.17l283.19 0.62 256.3 16.91c3.73,302.54 4.14,581.99 -49.81,711.49z"/>
   <path class="fil1" d="M548.75 852.98c-235.01,37.61 -392.09,39.59 -519.49,30.14 16.51,-175.74 23.13,-467.69 29.79,-759.17l283.19 0.62 256.3 16.91c3.75,302.54 4.15,581.98 -49.79,711.49z"/>
   <polygon class="fil8" points="264.98,332.86 520.28,338.87 519.81,358.6 264.52,352.59 "/>
   <polygon class="fil9" points="263.97,375.88 336.77,377.6 336.29,397.33 263.51,395.61 "/>
   <polygon class="fil9" points="353.11,378.32 517.07,382.19 516.61,401.92 352.65,398.06 "/>
   <polygon class="fil2 str0" points="124.11,330.7 184.54,332.12 183.12,392.57 122.69,391.14 "/>
   <path class="fil0" d="M134.5 347.39c2,7.7 5.72,39.92 21.86,30.91 3.72,-2.08 6.88,-7.58 9.66,-10.73 5.01,-5.68 10.01,-11.36 15.02,-17.05 10.01,-11.36 20.02,-22.73 30.02,-34.09 2.57,-2.91 -8.76,-10.22 -11.98,-6.56 -8.89,10.1 -17.8,20.2 -26.69,30.31 -4.45,5.05 -8.89,10.1 -13.34,15.15 -3.09,3.51 -10.22,14.8 -14.8,15.81 2.5,0.81 4.98,1.61 7.47,2.42 1.76,1.45 -1.5,-8.79 -1.59,-9.07l-3.72 -14.27c-1.02,-3.94 -13.42,-8.65 -11.9,-2.83z"/>
   <polygon class="fil8" points="262.4,442.73 472.63,447.67 472.17,467.42 261.94,462.47 "/>
   <polygon class="fil9" points="261.39,485.76 345.3,487.74 344.84,507.47 260.92,505.49 "/>
   <polygon class="fil2 str0" points="121.52,440.58 181.96,442 180.54,502.44 120.09,501.01 "/>
   <path class="fil0" d="M131.68 460.65c2.02,7.7 5.72,39.93 21.86,30.91 3.72,-2.08 6.88,-7.58 9.66,-10.73 5.01,-5.68 10.01,-11.36 15.02,-17.05 10.01,-11.36 20.02,-22.73 30.02,-34.09 2.57,-2.92 -8.76,-10.21 -11.98,-6.56 -8.89,10.1 -17.79,20.2 -26.69,30.31 -4.45,5.05 -8.89,10.1 -13.34,15.15 -3.09,3.51 -10.22,14.8 -14.8,15.81 2.5,0.81 4.98,1.61 7.47,2.42 1.76,1.45 -1.5,-8.8 -1.59,-9.07 -1.24,-4.76 -2.49,-9.51 -3.72,-14.25 -1.03,-3.95 -13.42,-8.67 -11.9,-2.85z"/>
   <polygon class="fil8" points="259.82,552.61 515.1,558.61 514.64,578.36 259.35,572.34 "/>
   <polygon class="fil9" points="258.8,595.63 501.25,601.35 500.79,621.08 258.34,615.37 "/>
   <polygon class="fil2 str0" points="118.93,550.45 179.37,551.88 177.94,612.31 117.51,610.89 "/>
   <path class="fil0" d="M129.67 568.32c2,7.7 5.72,39.93 21.86,30.91 3.72,-2.08 6.88,-7.58 9.66,-10.73l15.02 -17.05c10.01,-11.36 20.02,-22.73 30.02,-34.09 2.57,-2.92 -8.76,-10.21 -11.98,-6.56 -8.89,10.1 -17.8,20.2 -26.69,30.31 -4.45,5.05 -8.89,10.1 -13.34,15.15 -3.09,3.51 -10.22,14.8 -14.8,15.81 2.49,0.81 4.98,1.61 7.47,2.42 1.76,1.45 -1.5,-8.8 -1.59,-9.07 -1.24,-4.76 -2.49,-9.51 -3.72,-14.25 -1.02,-3.95 -13.42,-8.67 -11.9,-2.85z"/>
   <polygon class="fil8" points="257.23,662.49 385.73,665.51 385.26,685.24 256.76,682.22 "/>
   <polygon class="fil9" points="256.21,705.51 457.88,710.26 457.42,730 255.75,725.24 "/>
   <polygon class="fil2 str0" points="116.35,660.33 176.78,661.75 175.36,722.19 114.93,720.77 "/>
   <path class="fil0" d="M127 679.11c2.02,7.7 5.72,39.92 21.86,30.91 3.72,-2.08 6.88,-7.58 9.66,-10.73l15.02 -17.05c10.01,-11.36 20.02,-22.73 30.02,-34.09 2.57,-2.91 -8.76,-10.21 -11.98,-6.56 -8.89,10.1 -17.8,20.2 -26.69,30.31 -4.45,5.05 -8.89,10.1 -13.34,15.15 -3.09,3.51 -10.22,14.8 -14.8,15.81 2.49,0.81 4.98,1.61 7.47,2.42 1.76,1.45 -1.5,-8.8 -1.59,-9.07 -1.24,-4.76 -2.49,-9.51 -3.72,-14.25 -1.02,-3.94 -13.42,-8.67 -11.9,-2.85z"/>
   <polygon class="fil8" points="254.66,771.53 447.78,776.07 447.31,795.8 254.19,791.26 "/>
   <polygon class="fil9" points="254.66,810.47 384.14,813.52 383.68,833.25 254.19,830.21 "/>
   <polygon class="fil2 str0" points="114.63,769.4 175.06,770.82 173.64,831.25 113.21,829.83 "/>
   <path class="fil10" d="M447.99 93.21l0 60.32 -242.34 0 0 -60.32c0,-9.62 3.9,-18.32 10.2,-24.63 0.79,-0.79 1.6,-1.52 2.46,-2.21 6.01,-5 13.76,-8 22.18,-8 6.32,0 12.39,-1.45 17.81,-4.07 2.36,-1.15 4.59,-2.48 6.7,-4.03 6.94,-5.13 12.24,-12.41 14.87,-21.09 2.69,-8.86 8.19,-16.27 15.33,-21.42 6.85,-4.93 15.2,-7.77 24.06,-7.77l15.13 -0c8.86,0 17.2,2.84 24.06,7.77 7.13,5.15 12.64,12.56 15.33,21.42 2.64,8.68 7.95,15.97 14.87,21.09 2.11,1.55 4.34,2.89 6.7,4.03 5.43,2.62 11.5,4.07 17.81,4.07 8.43,0 16.17,2.99 22.18,8 7.73,6.36 12.66,16.03 12.66,26.84z"/>
   <polygon class="fil11" points="467.65,123.91 467.65,168.76 185.98,168.76 185.98,123.91 205.64,123.91 205.64,153.53 447.99,153.53 447.99,123.91 "/>
   <path class="fil1" d="M348.32 36.16c0,11.29 -9.63,20.43 -21.49,20.43 -11.87,0 -21.49,-9.14 -21.49,-20.43 0,-11.29 9.63,-20.43 21.49,-20.43 11.86,0 21.49,9.14 21.49,20.43z"/>
   <path class="fil2" d="M500.94 348.69c-48.58,0 -88.11,-39.54 -88.11,-88.13 0,-48.6 39.52,-88.13 88.11,-88.13 48.58,0 88.1,39.54 88.1,88.13 0,48.6 -39.53,88.13 -88.1,88.13z"/>
   <path class="fil8" d="M500.94 343.61c-45.78,0 -83.03,-37.26 -83.03,-83.06 0,-45.79 37.25,-83.06 83.03,-83.06 45.78,0 83.03,37.26 83.03,83.06 0,45.8 -37.25,83.06 -83.03,83.06z"/>
   <path class="fil2" d="M500.94 338.54c-42.98,0 -77.95,-34.98 -77.95,-77.98 0,-42.99 34.97,-77.98 77.95,-77.98 42.98,0 77.95,34.98 77.95,77.98 0,43 -34.97,77.98 -77.95,77.98z"/>
   <path class="fil8" d="M573.81 260.56c0,40.26 -32.63,72.9 -72.87,72.9 -40.25,0 -72.88,-32.64 -72.88,-72.9 0,-40.26 32.63,-72.9 72.88,-72.9 40.25,0 72.87,32.64 72.87,72.9z"/>
   <polygon class="fil3" points="453.48,219.97 456.74,183.73 489.76,199.03 "/>
   <polygon class="fil3" points="548.4,300.59 545.13,336.83 512.12,321.53 "/>
   <polygon class="fil8" points="540.2,328.29 541.76,310.97 533.09,315.98 "/>
   <polygon class="fil3" points="442.3,281.22 412.55,260.28 442.3,239.34 "/>
   <polygon class="fil3" points="559.58,239.34 589.33,260.28 559.58,281.22 "/>
   <polygon class="fil8" points="579.47,260.28 565.25,250.27 565.25,260.28 "/>
   <polygon class="fil3" points="489.76,321.53 456.74,336.83 453.48,300.59 "/>
   <polygon class="fil8" points="422.41,260.28 436.62,270.29 436.62,260.28 "/>
   <polygon class="fil8" points="461.67,328.29 477.45,320.98 468.78,315.98 "/>
   <polygon class="fil8" points="461.67,192.27 460.11,209.59 468.78,204.58 "/>
   <polygon class="fil3" points="512.12,199.03 545.13,183.73 548.4,219.97 "/>
   <polygon class="fil8" points="540.2,192.27 524.43,199.58 533.09,204.58 "/>
   <path class="fil2" d="M565.25 260.28c0,35.52 -28.8,64.32 -64.31,64.32 -35.52,-0 -64.32,-28.8 -64.32,-64.32 0,-35.52 28.8,-64.31 64.32,-64.31 35.51,0 64.31,28.79 64.31,64.31z"/>
   <path class="fil3" d="M500.94 321.76c-33.9,0 -61.48,-27.58 -61.48,-61.48 0,-33.9 27.58,-61.47 61.48,-61.47 33.9,0 61.47,27.58 61.47,61.47 0,33.9 -27.58,61.48 -61.47,61.48z"/>
   <path class="fil2" d="M500.94 318.92c-32.33,0 -58.64,-26.31 -58.64,-58.64 0,-32.33 26.31,-58.64 58.64,-58.64 32.33,0 58.64,26.3 58.64,58.64 0,32.33 -26.3,58.64 -58.64,58.64z"/>
   <path class="fil12" d="M500.94 304.74c-24.52,0 -44.46,-19.95 -44.46,-44.46 0,-24.51 19.94,-44.45 44.46,-44.45 24.51,0 44.45,19.94 44.45,44.45 0,24.51 -19.94,44.46 -44.45,44.46z"/>
   <path class="fil3" d="M500.94 301.9c-22.95,0 -41.62,-18.67 -41.62,-41.62 0,-22.95 18.67,-41.61 41.62,-41.61 22.94,0 41.61,18.67 41.61,41.61 0,22.95 -18.67,41.62 -41.61,41.62z"/>
   <polygon class="fil2" points="524.84,295.08 499.97,281.62 474.73,294.41 479.9,266.68 459.9,246.72 487.98,243.04 500.85,217.93 513.03,243.39 540.99,247.82 520.44,267.22 "/>
   <polygon class="fil8" points="500.85,217.93 500.45,258.5 513.03,243.39 "/>
   <polygon class="fil8" points="540.99,247.82 500.45,258.5 520.44,267.22 "/>
   <polygon class="fil8" points="500.45,258.5 524.84,295.08 499.97,281.62 "/>
   <polygon class="fil8" points="500.45,258.5 474.73,294.41 479.9,266.68 "/>
   <polygon class="fil8" points="459.9,246.72 500.45,258.5 487.98,243.04 "/>
   <path class="fil13" d="M86.92 267.2l0.63 -47.64 32.74 0.43 -0.11 8.05 -23.09 -0.31 -0.15 11.31 19.96 0.27 -0.11 8.05 -19.96 -0.27 -0.27 20.23 -9.65 -0.13zm40.65 0.54l0.63 -47.64 35.27 0.47 -0.11 8.05 -25.62 -0.34 -0.14 10.58 23.82 0.32 -0.11 8.05 -23.82 -0.32 -0.17 12.91 26.55 0.35 -0.11 8.05 -36.2 -0.48zm45.02 -47.05l17.54 0.23c3.96,0.05 6.97,0.39 9.04,1.03 2.77,0.86 5.15,2.35 7.11,4.49 1.97,2.12 3.44,4.72 4.44,7.78 0.99,3.05 1.46,6.82 1.4,11.28 -0.05,3.93 -0.58,7.29 -1.6,10.12 -1.23,3.46 -2.97,6.24 -5.2,8.35 -1.69,1.61 -3.95,2.84 -6.79,3.71 -2.13,0.65 -4.96,0.94 -8.51,0.9l-18.07 -0.24 0.63 -47.64zm9.54 8.18l-0.42 31.54 7.15 0.1c2.67,0.04 4.6,-0.09 5.79,-0.38 1.57,-0.37 2.86,-1.02 3.9,-1.93 1.04,-0.92 1.9,-2.44 2.57,-4.56 0.68,-2.12 1.04,-5.03 1.09,-8.71 0.05,-3.68 -0.24,-6.5 -0.86,-8.49 -0.62,-1.98 -1.51,-3.52 -2.66,-4.65 -1.15,-1.11 -2.62,-1.89 -4.41,-2.3 -1.33,-0.32 -3.95,-0.51 -7.86,-0.56l-4.3 -0.06zm37.88 40.1l0.63 -47.64 35.27 0.47 -0.11 8.05 -25.62 -0.34 -0.14 10.58 23.82 0.32 -0.11 8.05 -23.82 -0.32 -0.17 12.91 26.55 0.35 -0.11 8.05 -36.2 -0.48zm44.38 0.59l0.63 -47.64 20.26 0.27c5.09,0.07 8.79,0.55 11.08,1.43 2.31,0.88 4.13,2.43 5.48,4.63 1.36,2.21 2.02,4.72 1.99,7.54 -0.05,3.58 -1.13,6.52 -3.26,8.82 -2.13,2.3 -5.27,3.72 -9.45,4.28 2.06,1.24 3.75,2.59 5.07,4.06 1.33,1.47 3.12,4.08 5.35,7.81l5.69 9.37 -11.5 -0.15 -6.76 -10.49c-2.42,-3.73 -4.09,-6.08 -5,-7.05 -0.9,-0.97 -1.85,-1.64 -2.87,-2.01 -1.03,-0.37 -2.64,-0.57 -4.86,-0.6l-1.95 -0.03 -0.26 19.9 -9.65 -0.13zm10.01 -27.35l7.12 0.09c4.61,0.06 7.49,-0.1 8.65,-0.47 1.15,-0.37 2.07,-1.04 2.72,-1.98 0.67,-0.94 1,-2.14 1.02,-3.57 0.02,-1.61 -0.39,-2.9 -1.23,-3.91 -0.84,-1 -2.04,-1.64 -3.59,-1.91 -0.79,-0.12 -3.13,-0.21 -7.02,-0.26l-7.51 -0.1 -0.16 12.11zm80.96 28.56l-10.39 -0.14 -3.97 -10.9 -19.11 -0.25 -4.1 10.79 -10.2 -0.14 19.13 -47.4 10.19 0.14 18.45 47.9zm-17.38 -19.13l-6.39 -17.72 -6.67 17.55 13.05 0.17zm22.78 19.2l0.63 -47.24 9.65 0.13 -0.52 39.19 23.89 0.32 -0.11 8.05 -33.54 -0.45z"/>
   <path class="fil0" d="M714.61 406.83c0,0 1.69,-57.73 60.16,-33.82 0,0 -36.13,37.04 -60.16,33.82z"/>
   <path class="fil14" d="M785.01 427.77c-4.86,24.23 -24.93,40.64 -44.84,36.65 -19.91,-3.99 -32.12,-26.86 -27.28,-51.09 4.85,-24.23 24.93,-40.64 44.84,-36.65 19.92,3.98 32.14,26.86 27.28,51.09z"/>
   <path class="fil15" d="M712.89 413.32c-4.86,24.23 7.36,47.1 27.28,51.09 19.91,3.99 40,-12.42 44.84,-36.65 4.85,-24.23 -7.36,-47.1 -27.28,-51.09 -2.01,-0.4 -4.02,-0.6 -6.02,-0.6 -17.8,0.01 -34.46,15.47 -38.83,37.25l0 0z"/>
   <path class="fil15" d="M785.51 424.86c0,0 -17.1,67.03 -13.97,88.53 0,0 -23.81,2.31 -44.57,-8.92 0,0 25.53,-55.04 25.46,-68.85l33.07 -10.76 0 0z"/>
   <path class="fil0" d="M718.66 397.65c0,0 15.77,6.63 42.75,9.32 0,0 4.94,10.07 1.67,18.91 -6.37,17.24 17.07,21.93 17.07,21.93 0,0 22.32,-33.99 17.87,-52.75 -3.03,-12.74 -16.91,-20.01 -29.32,-24.44 -9.38,-3.35 -25.84,-3.75 -33.88,2.12 -4.9,3.57 -12.9,13.61 -16.15,24.91z"/>
   <path class="fil15" d="M774.08 428.18c-0.88,4.37 -5.13,7.19 -9.49,6.33 -4.37,-0.87 -7.19,-5.13 -6.33,-9.48 0.87,-4.37 5.13,-7.19 9.49,-6.33 4.38,0.88 7.2,5.13 6.33,9.48z"/>
   <path class="fil5" d="M726.6 374.2l61.81 61.23c0,0 34.28,-28.35 2.99,-59.4 -38.43,-38.14 -64.8,-1.83 -64.8,-1.83z"/>
   <path class="fil10" d="M759.08 404.22l-37.07 -2.2c-11.21,-0.66 -21.67,-5.87 -28.97,-14.41l-13.16 -15.42 47.56 0.68 31.64 31.35 0 0z"/>
   <path class="fil10" d="M791.39 378.1c-0.97,1.18 -4.14,0.18 -7.08,-2.24 -2.95,-2.42 -4.55,-5.33 -3.58,-6.51 0.97,-1.18 4.14,-0.18 7.08,2.24 2.95,2.41 4.55,5.33 3.58,6.51z"/>
   <path class="fil15" d="M744.3 463.96c0,0 6.2,1.15 15.69,-3.86 0,0 -4.73,14.43 -19.12,12.43l3.44 -8.57 0 0z"/>
   <polygon class="fil16" points="725.52,601.52 764.15,601.48 764.15,666.58 725.52,666.62 "/>
   <path class="fil15" d="M763.94 493.91l-12.02 2.71 -12.1 2.68c-8.07,1.75 -16.15,3.53 -24.21,5.22 -8.06,1.7 -16.14,3.31 -24.17,4.9 -8.03,1.56 -16.06,3.05 -23.91,4.28 -1.96,0.31 -3.9,0.59 -5.82,0.85 -1.91,0.26 -3.8,0.5 -5.59,0.68 -1.77,0.19 -3.52,0.32 -4.73,0.38 -0.33,0.02 -0.51,0.03 -0.73,0.05 -0.01,0.01 0.1,0.04 0.1,0.06 -0.05,0 -0.06,0.02 -0.14,0.03 -0.31,0.01 -0.98,-0.09 -1.69,-0.23 -0.72,-0.14 -1.53,-0.32 -2.37,-0.54 -0.84,-0.21 -1.72,-0.46 -2.6,-0.71 -1.78,-0.52 -3.63,-1.09 -5.49,-1.71 -3.73,-1.22 -7.51,-2.57 -11.32,-3.98 -7.6,-2.82 -15.3,-5.77 -22.94,-8.84l-11.49 -4.64 -11.44 -4.71 -0.14 -0.06c-5.75,-2.36 -12.31,0.37 -14.68,6.11 -2.13,5.17 -0.11,11.01 4.51,13.84l5.42 3.33 5.42 3.27c3.62,2.17 7.24,4.33 10.9,6.42 3.66,2.12 7.33,4.21 11.03,6.29 3.71,2.08 7.43,4.14 11.23,6.13 3.8,2 7.64,3.98 11.62,5.91 2,0.96 4.03,1.91 6.15,2.85 1.07,0.47 2.14,0.93 3.28,1.39 1.13,0.46 2.3,0.91 3.59,1.36 1.29,0.45 2.63,0.89 4.36,1.32 0.43,0.11 0.93,0.21 1.4,0.31 0.51,0.1 1.13,0.2 1.64,0.28 0.82,0.11 1.68,0.23 2.39,0.29 2.95,0.3 5.38,0.39 7.76,0.46 2.38,0.06 4.65,0.07 6.89,0.06 2.24,-0.02 4.46,-0.05 6.63,-0.11 8.74,-0.24 17.26,-0.71 25.75,-1.25 8.48,-0.53 16.92,-1.23 25.33,-1.95 8.41,-0.73 16.81,-1.48 25.18,-2.34l12.57 -1.3 6.29 -0.68 6.34 -0.72c13.3,-1.52 22.85,-13.53 21.33,-26.82 -1.52,-13.29 -13.54,-22.83 -26.84,-21.31 -0.87,0.1 -1.73,0.24 -2.56,0.43l-0.13 0.04 0 0z"/>
   <path class="fil17" d="M522.61 465.45c6.49,2.22 16.01,8.07 28.61,9.89 1.93,0.28 4.94,-0.49 4.48,-1.64 -0.9,-2.27 -3.3,-3.62 -4.67,-5.63 -1.99,-2.9 -3.84,-9.87 -0.54,-12.31 1.82,-1.34 2.83,0.01 3.78,2.02 4.35,9.27 8.29,9.67 13.32,14.58 2.47,2.41 0.88,2.29 6.41,9.95 1.04,1.44 1.94,3.62 3.36,4.62 0.79,0.55 5.5,4.1 7.44,5.03 -2.84,10 -12.15,19.36 -12.15,19.36 -3.15,-1.61 -4.08,-3.45 -8.17,-3.38 -3.28,0.05 -4.05,0.56 -7.32,0.18 -4.52,-0.53 -13.17,-2.11 -21.41,-6.49 -4.2,-2.24 -2.62,-7.58 1.84,-5.65 1.04,0.45 1.99,0.82 2.89,1 -0.74,-0.25 -2.47,-1.02 -10.45,-5.23 -3.14,-1.65 -2.3,-7.52 2.16,-5.53 2.33,1.05 4.32,1.66 6.44,2.17 -1.73,-0.37 -8.23,-3.16 -13.31,-6 -4.07,-2.27 -2.4,-8.75 1.36,-7.07 3.71,1.66 7.28,3.02 11.7,4.07 0,-0.01 0,-0.01 0,-0.02 -1.91,-0.44 -10.39,-3.44 -17.48,-7.07 -3.22,-1.68 -2.91,-8.44 1.72,-6.85z"/>
   <path class="fil5" d="M701.16 671.29c-0.58,6.07 -5.95,12.22 -5.34,14.08 19.53,6.76 80.83,10.06 96.57,8.45 2.6,-4.36 4.81,-38.25 3.94,-46.54 -4.58,-42.8 21.33,-76.66 11.07,-129.32 -2.62,-13.37 -10.87,-34.03 -25.94,-41.47 -22.15,-10.95 -67.34,25.62 -72.86,51.48 -2.8,13.16 -0.59,53.28 -6.47,76.12 -1.48,5.82 -2.9,11.53 -4.15,17.06 0,0 0,0.03 -0.03,0.03 -4.76,20.62 4.32,38.63 3.21,50.11z"/>
   <path class="fil18" d="M777.32 469.5l2.16 6.06c0,0 -40.54,6.41 -55.86,28.57 0,0 -1.69,-13.59 16.68,-27.17 6.81,-5.04 23.24,-8.77 31.22,-10.36 2.49,-0.49 5.06,0.79 5.81,2.9z"/>
   <path class="fil19" d="M827.52 981.21l2.24 11.23 -27.58 32.68c-3.29,3.9 -4,8.84 -1.82,12.57l71.85 -42 -20.42 -28.69 -24.27 14.2 0 0z"/>
   <path class="fil10" d="M733.55 845.48c9.55,20.81 48.84,88.33 84.38,146.65 16.82,-6.01 32.04,-11.22 48.35,-22.68 -1.21,-2.73 -2.47,-5.51 -3.8,-8.32 -24.85,-53.13 -65.27,-122.61 -67.85,-132.27 -4.46,-16.69 2.02,-117.66 0.34,-146.04 -39.43,-10.71 -74.56,3.87 -99.26,-3.11 8.75,55.04 22.01,131.31 37.83,165.77z"/>
   <path class="fil19" d="M615.61 1004.35l-5.42 10.09 -42.07 7.67c-5.02,0.91 -8.71,4.28 -9.4,8.54l82.16 13.31 2.49 -35.12 -27.76 -4.5 0 0z"/>
   <path class="fil0" d="M630.5 831.7c-5.33,20.29 -17.32,105.73 -26.67,173.42 16.82,5.98 31.9,11.55 51.77,12.98 0.79,-2.89 1.57,-5.83 2.32,-8.85 14.36,-56.91 31.27,-147.76 33.26,-157.56 6.88,-33.64 104.44,-98.67 107.78,-175.06 0.47,-10.65 4.12,-44.66 7.25,-95.38 -3.86,-0.02 -12.86,-0.24 -14.76,0.01 -12.72,65.83 -14.14,81.87 -47.2,80.92 -46.52,-1.34 -4.89,-110.48 -14.72,-110.65 -7.01,-0.12 -12.09,0.54 -23.24,0.04 -8.07,49.29 -12.7,97.55 -10.57,129.79 0.86,13.02 -57.2,119.79 -65.22,150.34z"/>
   <path class="fil15" d="M750.33 534.93l-4.02 4.28 -4.1 4.32 -8.25 8.59c-5.53,5.71 -11.05,11.4 -16.64,17.01 -5.58,5.61 -11.2,11.13 -16.84,16.54 -2.82,2.7 -5.65,5.35 -8.47,7.92 -2.83,2.57 -5.67,5.08 -8.43,7.38 -1.38,1.15 -2.76,2.26 -4.05,3.25 -1.28,0.99 -2.54,1.87 -3.33,2.41 -0.23,0.16 -0.3,0.21 -0.43,0.32 0.05,-0.01 0.15,-0.03 0.16,-0.01 -0.03,0.02 -0.03,0.04 -0.09,0.08 -0.24,0.15 -0.87,0.37 -1.52,0.58 -1.35,0.43 -3.04,0.86 -4.78,1.25 -3.5,0.79 -7.27,1.48 -11.08,2.11 -3.82,0.64 -7.69,1.22 -11.6,1.77 -7.81,1.13 -15.72,2.15 -23.64,3.1l-11.91 1.41 -11.89 1.33 -0.12 0.01c-6.17,0.69 -10.61,6.25 -9.92,12.41 0.62,5.58 5.23,9.73 10.66,9.97 16.35,0.73 32.51,1.07 49,0.95 4.12,-0.05 8.26,-0.15 12.45,-0.3 4.2,-0.17 8.42,-0.38 12.89,-0.79 2.25,-0.21 4.53,-0.46 7.1,-0.9 1.31,-0.23 2.64,-0.48 4.32,-0.93 0.42,-0.11 0.9,-0.26 1.34,-0.39 0.48,-0.15 1.05,-0.36 1.57,-0.55 0.79,-0.31 1.65,-0.64 2.32,-0.94 2.83,-1.23 5.04,-2.41 7.14,-3.58 2.1,-1.17 4.05,-2.34 5.96,-3.51 3.8,-2.34 7.37,-4.71 10.88,-7.09 3.5,-2.39 6.93,-4.8 10.31,-7.23 6.77,-4.86 13.36,-9.81 19.87,-14.83 6.51,-5.02 12.97,-10.05 19.34,-15.19l9.53 -7.73 4.75 -3.9 4.79 -3.98c10.3,-8.56 11.71,-23.84 3.15,-34.13 -8.56,-10.28 -23.86,-11.68 -34.15,-3.12 -0.74,0.62 -1.44,1.27 -2.09,1.95l-0.19 0.17 0 0z"/>
   <path class="fil15" d="M574.22 597.62c4.17,-0.24 8.4,1.26 11.49,4.07 0.79,0.72 1.53,1.56 1.83,2.58 0.3,1.02 0.07,2.27 -0.78,2.9 -0.52,0.38 -1.18,0.5 -1.81,0.59 -2.36,0.33 -4.75,0.41 -7.11,0.24 -2.4,-0.17 -4.77,-0.59 -7.07,-1.25 -1.15,-0.33 -2.29,-0.72 -3.41,-1.17 -1.04,-0.42 -2.31,-0.84 -3.21,-1.51 -1.85,-1.38 1.94,-3.67 2.9,-4.24 1.93,-1.15 4.11,-1.9 6.34,-2.16 0.27,-0.01 0.55,-0.03 0.83,-0.05z"/>
   <polygon class="fil20" points="544.96,624.54 535.31,626.75 541.31,618.79 542.64,617.95 546.29,623.7 "/>
   <path class="fil21" d="M544.96 624.54l-1.78 -2.8 -1.87 -2.95 54.68 -34.72c4.24,-2.7 7.89,3.06 3.65,5.75l-54.68 34.72 0 0z"/>
   <path class="fil15" d="M559.86 602.58c-2.7,0.15 -4.45,2.55 -4.64,3.99 -0.16,1.23 2.63,3.49 12.18,4.14 -2.39,0.46 -6.11,1.63 -6.14,4.06 -0.02,2.44 2.84,3.36 5.04,3.8 -2.37,0.99 -3.37,0.67 -3.46,2.85 -0.04,0.89 1.86,3.21 3.83,3.23 -2.7,0.8 -3.68,1.47 -3.53,3.48 0.13,1.73 9.04,9.49 15.67,10.37 7.82,1.03 10.79,1.08 18.14,1.64 3,-13.97 4.64,-17.88 5.13,-20.18 -2.78,-1.36 -3.98,-5.12 -5.11,-6.59 -3.34,-4.37 -7.01,-10.48 -12.07,-10.95 -12.16,-1.15 -24.74,0.18 -25.04,0.19z"/>
   <path class="fil15" d="M523.81 481.6c0.65,-0.29 1.36,-0.73 1.47,-1.44 0.13,-0.82 -0.6,-1.5 -1.26,-2 -3.04,-2.33 -6.06,-4.65 -9.1,-6.97 -1.66,-1.27 -3.61,-2.61 -5.66,-2.19 -2.02,0.41 -3.36,2.57 -3.29,4.63 0.07,2.06 1.32,3.93 2.9,5.24 0.96,0.79 2.02,1.36 3.11,1.94 0.75,0.4 1.41,0.91 2.11,1.39 1.59,1.1 3.71,0.92 5.54,0.64 1.45,-0.22 2.86,-0.63 4.19,-1.23z"/>
   <path class="fil10" d="M502.85 422.87c0,2.89 4.22,5.23 9.43,5.22 5.21,-0.01 9.43,-2.35 9.43,-5.24 0,-2.89 -4.23,-5.23 -9.43,-5.22 -5.21,0 -9.43,2.35 -9.43,5.24z"/>
   <path class="fil21" d="M536.03 430.28l-3.58 -6.63c-0.27,-0.5 -0.8,-0.82 -1.37,-0.82l-35.17 0.04c-0.76,0 -1.24,0.81 -0.88,1.48l3.23 5.98 37.77 -0.04 0 0z"/>
   <path class="fil0" d="M543.98 425.78l-54.99 0.06c-2.13,0 -3.45,2.31 -2.39,4.15l58.35 100.97c0.41,0.72 1.13,1.21 1.95,1.34l57.44 9.34c2.27,0.37 3.98,-2.04 2.87,-4.06l-60.79 -110.36c-0.51,-0.89 -1.43,-1.44 -2.44,-1.44z"/>
   <path class="fil15" d="M541.67 492.57c0.75,-1.22 1.25,-3.41 0.4,-4.56 -0.86,-1.15 -2.16,-1.31 -3.31,-0.49 0.57,-1.19 1.19,-3.17 0.62,-4.58 -0.57,-1.41 -1.84,-2.1 -3.35,-2.19 1.66,-1.37 2.65,-3.98 1.88,-5.25 -1.11,-1.82 -3.33,-1.71 -5.03,-1.02 0.93,-0.99 0.44,-2.47 0.02,-2.89 -0.65,-0.65 -4.4,-0.57 -5.71,0.04 -17.99,8.38 -18.42,8.94 -20.42,11.2 -1.58,1.78 -2.37,4.48 -1.24,6.58 1.13,2.09 4.54,2.72 5.9,0.77 -1.58,3.16 -1.6,6.68 -0.46,8.15 0.75,0.98 2.73,1.49 5.24,1.02 -0.64,2.2 -0.85,3.79 0.9,5.63 1.76,1.85 4.76,2.34 6.6,-0.23 0,3 0.25,4.79 2.67,5.92 2.84,1.32 4.99,-2.2 6.63,-4.48 2.26,-3.09 3.97,-5.97 8.65,-13.63z"/>
   <path class="fil5" d="M763.23 590.19c-11.84,-12.65 -35.58,-35.75 -35.63,-35.81 13.25,-17.89 43.03,-63.17 68.91,-39.17 30.14,27.94 -18.7,60.3 -33.27,74.98z"/>
   <path class="fil0" d="M802.67 581.93c3.56,-31.29 11.74,-87.08 -22.75,-93.77 -41.42,-8.02 -64.93,29.62 -66.53,64.09l8.13 -0.47c1.55,-33.28 24.4,-67.95 57.53,-58.72 33.65,9.37 16.29,63.69 12.29,88.88l11.33 -0.01 0 0z"/>
   <path class="fil0" d="M127 789.93c2.02,7.7 5.72,39.93 21.86,30.91 3.72,-2.08 6.88,-7.58 9.66,-10.73l15.02 -17.05c10.01,-11.36 20.02,-22.73 30.02,-34.09 2.57,-2.92 -8.76,-10.21 -11.98,-6.56 -8.89,10.1 -17.8,20.2 -26.69,30.31 -4.45,5.05 -8.89,10.1 -13.34,15.15 -3.09,3.51 -10.22,14.8 -14.8,15.81 2.49,0.81 4.98,1.61 7.47,2.42 1.76,1.45 -1.5,-8.8 -1.59,-9.07 -1.24,-4.76 -2.49,-9.51 -3.72,-14.25 -1.02,-3.94 -13.42,-8.67 -11.9,-2.85z"/>
  </g>
 </g>
</svg>
