<?xml version="1.0" encoding="UTF-8"?>
<!DOCTYPE svg PUBLIC "-//W3C//DTD SVG 1.1//EN" "http://www.w3.org/Graphics/SVG/1.1/DTD/svg11.dtd">
<!-- Creator: CorelDRAW Standard 2021 (64 Bit) -->
<svg xmlns="http://www.w3.org/2000/svg" xml:space="preserve" width="481.391mm" height="357.709mm" version="1.1" style="shape-rendering:geometricPrecision; text-rendering:geometricPrecision; image-rendering:optimizeQuality; fill-rule:evenodd; clip-rule:evenodd"
viewBox="0 0 1870.61 1390"
 xmlns:xlink="http://www.w3.org/1999/xlink"
 xmlns:xodm="http://www.corel.com/coreldraw/odm/2003">
 <defs>
  <style type="text/css">
   <![CDATA[
    .fil30 {fill:#FEFEFE}
    .fil25 {fill:#FEF1E7}
    .fil3 {fill:#FDDEC2}
    .fil27 {fill:#FDDCBE}
    .fil5 {fill:#FDCEA3}
    .fil18 {fill:#FDCD9C}
    .fil28 {fill:#FBB979}
    .fil2 {fill:#FBB462}
    .fil6 {fill:#F9A557}
    .fil29 {fill:#F9A24A}
    .fil22 {fill:#F89F56}
    .fil19 {fill:#F89E4D}
    .fil26 {fill:#F79543}
    .fil24 {fill:#F68D40}
    .fil21 {fill:#F58A47}
    .fil23 {fill:#F47C39}
    .fil7 {fill:#F37B6D}
    .fil4 {fill:#F2705D}
    .fil20 {fill:#F16242}
    .fil12 {fill:#EDAF83}
    .fil14 {fill:#D2946B}
    .fil8 {fill:#BD3538}
    .fil17 {fill:#2A3136}
    .fil16 {fill:#2A3A48}
    .fil11 {fill:#012E42}
    .fil1 {fill:#094561}
    .fil10 {fill:gray}
    .fil13 {fill:#CCCCCC}
    .fil32 {fill:#CCCCCC}
    .fil9 {fill:#E6E6E6}
    .fil15 {fill:#E6E6E6}
    .fil0 {fill:#F59B2C}
    .fil31 {fill:gray;fill-rule:nonzero}
   ]]>
  </style>
 </defs>
 <g id="Camada_x0020_1">
  <metadata id="CorelCorpID_0Corel-Layer"/>
  <g id="_1778142013360">
   <path class="fil0" d="M501.95 825.96l207.91 285.26c8.89,12.19 27.08,12.2 35.97,0l207.91 -285.26c10.72,-14.71 0.21,-35.36 -17.99,-35.36l-86.91 0 0 -323.05c0,-12.29 -9.97,-22.26 -22.26,-22.26l-197.47 -0c-12.29,0 -22.25,9.97 -22.25,22.26l0 323.05 -86.92 0c-18.2,-0 -28.7,20.65 -17.99,35.36z"/>
   <path class="fil1" d="M1464.29 285.45l-201.58 -276.58c-8.62,-11.83 -26.26,-11.83 -34.87,0l-201.58 276.58c-10.39,14.26 -0.21,34.28 17.44,34.28l84.27 0 0 313.21c0,11.92 9.66,21.58 21.58,21.58l191.46 0c11.92,0 21.58,-9.66 21.58,-21.58l0 -313.21 84.27 0c17.64,0 27.83,-20.03 17.44,-34.28z"/>
   <path class="fil2" d="M1323.64 834.56c-0.43,44.11 -36.53,79.53 -80.65,79.1 -44.11,-0.43 -79.53,-36.53 -79.1,-80.65 0.43,-44.12 36.54,-79.53 80.65,-79.1 44.11,0.42 79.53,36.53 79.1,80.65z"/>
   <path class="fil3" d="M1253.28 764.68c-2.9,-0.4 -5.85,-0.61 -8.84,-0.64 -38.46,-0.37 -70.05,30.61 -70.43,69.07 -0.18,18.63 6.91,36.22 19.95,49.52 13.05,13.3 30.49,20.73 49.12,20.91 18.63,0.18 36.22,-6.9 49.52,-19.95 13.3,-13.05 20.73,-30.49 20.91,-49.13 0.35,-35.47 -25.98,-65.09 -60.24,-69.78zm-19.46 140.66c-15.77,-2.16 -30.29,-9.43 -41.62,-20.97 -13.52,-13.78 -20.85,-31.99 -20.66,-51.28 0.39,-39.82 33.1,-71.91 72.93,-71.53 39.84,0.41 71.91,33.1 71.53,72.93 -0.19,19.29 -7.88,37.36 -21.65,50.87 -13.77,13.51 -31.99,20.85 -51.28,20.66 -3.12,-0.03 -6.21,-0.26 -9.25,-0.67z"/>
   <path class="fil3" d="M1251.08 852.72c0.03,-2.96 -0.56,-5.31 -1.75,-7.03 -1.2,-1.73 -3.18,-3.35 -5.95,-4.88 -5.44,-2.48 -9.46,-4.85 -12.06,-7.11 -2.6,-2.26 -4.53,-4.83 -5.79,-7.72 -1.26,-2.89 -1.87,-6.31 -1.83,-10.27 0.06,-5.93 1.75,-10.82 5.07,-14.66 3.32,-3.84 7.68,-6.09 13.08,-6.75l0.12 -11.47 8.08 0.08 -0.11 11.67c5.35,1.09 9.49,3.85 12.42,8.27 2.94,4.42 4.38,10 4.31,16.75l-15.16 -0.15c0.04,-4.28 -0.55,-7.49 -1.76,-9.61 -1.21,-2.12 -2.8,-3.19 -4.76,-3.2 -1.89,-0.02 -3.38,0.79 -4.47,2.42 -1.08,1.63 -1.64,3.92 -1.67,6.84 -0.02,2.53 0.51,4.65 1.6,6.33 1.09,1.69 3.18,3.46 6.27,5.31 5.69,2.77 9.78,5.28 12.28,7.54 2.5,2.26 4.34,4.8 5.52,7.63 1.19,2.83 1.76,6.18 1.72,10.03 -0.06,6.04 -1.7,10.93 -4.93,14.69 -3.23,3.75 -7.68,5.98 -13.33,6.67l-0.1 10.66 -8.03 -0.07 0.1 -10.66c-6.17,-0.95 -10.91,-3.63 -14.22,-8.04 -3.31,-4.4 -4.94,-10.25 -4.87,-17.53l15.16 0.15c-0.04,4.21 0.61,7.46 1.94,9.74 1.34,2.28 3.36,3.43 6.07,3.46 2.18,0.02 3.89,-0.78 5.14,-2.39 1.25,-1.61 1.88,-3.85 1.91,-6.7z"/>
   <path class="fil4" d="M1243.78 913.67l-0.01 0 0.01 0zm0.21 0c39.24,-0.11 71.95,-28.57 78.47,-66.13 -6.52,37.56 -39.23,66.02 -78.47,66.13zm-1.19 -0.01c-0.02,0 -0.03,0 -0.05,0 0.02,0 0.03,0 0.05,0zm-0.22 -0.01c-0.02,0 -0.03,0 -0.05,0 0.02,-0 0.03,0 0.05,0zm-0.21 -0c-0.01,0 -0.03,0 -0.04,0 0.01,-0 0.03,0 0.04,0zm-0.21 -0.01c-0.02,0 -0.04,0 -0.06,0 0.02,-0 0.03,0 0.06,0zm-0.23 -0.01c-0.02,0 -0.03,0 -0.05,0 0.02,-0 0.03,0 0.05,0zm-0.18 -0.01c-0.02,0 -0.04,0 -0.06,0 0.02,-0 0.05,0 0.06,0zm-0.22 -0.01c-0.02,0 -0.05,0 -0.07,0 0.02,0 0.04,0 0.07,0zm-0.22 -0.01c-0.03,0 -0.06,0 -0.09,0 0.03,-0 0.06,0 0.09,0zm-0.19 -0.01c-0.03,0 -0.05,0 -0.08,0 0.02,0 0.05,0 0.07,0zm-0.23 -0.01c-0.02,0 -0.05,0 -0.07,-0.01 0.02,0.01 0.05,0.01 0.07,0.01zm-0.21 -0.01c-0.03,-0.01 -0.06,-0.01 -0.08,-0.01 0.02,-0 0.05,0 0.08,0.01zm-0.2 -0.01c-0.03,0 -0.05,0 -0.07,0 0.02,-0 0.05,0 0.07,0zm-0.23 -0.01c-0.02,-0.01 -0.05,-0.01 -0.08,-0.01 0.03,-0 0.05,0 0.07,0.01zm-0.2 -0.01c-0.03,-0 -0.06,-0 -0.1,-0.01 0.03,0.01 0.06,0.01 0.1,0.01zm-0.21 -0.01c-0.02,0 -0.05,0 -0.08,0 0.03,-0 0.05,0 0.07,0zm-0.22 -0.01c-0.02,0 -0.06,0 -0.08,0 0.03,0 0.05,0 0.08,0zm-0.2 -0.01c-0.03,-0.01 -0.06,-0.01 -0.09,-0.01 0.03,0 0.06,0 0.09,0.01zm-0.21 -0.01c-0.03,-0.01 -0.05,-0.01 -0.07,-0.01 0.02,-0 0.05,0 0.07,0.01zm-0.23 -0.02c-0.02,-0 -0.05,0 -0.07,0 0.03,-0 0.05,0 0.07,0zm-0.19 -0.01c-0.03,0 -0.06,0 -0.08,-0.01 0.02,0.01 0.05,0.01 0.08,0.01zm-0.22 -0.01c-0.02,0 -0.05,-0.01 -0.07,-0.01 0.02,-0 0.05,0.01 0.07,0.01zm-0.23 -0.02c-0.02,0 -0.04,0 -0.06,0 0.02,-0 0.04,0 0.06,0zm-0.18 -0.01c-0.02,0 -0.04,0 -0.06,-0.01 0.02,0.01 0.04,0.01 0.06,0.01zm-0.22 -0.02c-0.02,0 -0.04,0 -0.06,0 0.02,0 0.04,0 0.06,0zm-0.23 -0.01c-0.02,-0.01 -0.04,-0.01 -0.05,-0.01 0.01,-0 0.03,0 0.05,0.01zm-0.19 -0.02c-0.02,-0 -0.03,0 -0.05,-0.01 0.01,0.01 0.03,0.01 0.05,0.01zm-0.22 -0.02c-0.01,0 -0.03,0 -0.04,-0.01 0.01,0.01 0.03,0.01 0.04,0.01zm-0.22 -0.02c-0.01,0 -0.01,0 -0.02,0 0.01,-0 0.01,0 0.02,0zm-0.2 -0.02c-0.01,0 -0.01,0 -0.02,0 0.01,0 0.01,0 0.02,0zm-0.21 -0.02c-0.01,0 -0.02,-0.01 -0.03,-0.01 0.01,0 0.02,0.01 0.03,0.01zm-0.42 -0.04c-0.01,0 -0.01,0 -0.01,0 0.01,0 0.01,0 0.01,0zm87.38 -78.63c0,-0.05 0,-0.09 0,-0.13l0 0c0,0.05 0,0.09 0,0.13zm0 -0.3c0,-0.02 0,-0.03 0,-0.04 0,0.01 0,0.03 0,0.04zm0 -0.21c0,-0.01 0,-0.01 0,-0.02 0,0.01 0,0.02 0,0.02zm0 -0.18c0,-0.02 0,-0.03 0,-0.05 0,0.01 0,0.03 0,0.05zm0 -0.22c0,-0.01 0,-0.01 0,-0.01 0,0.01 0,0.01 0,0.01zm0 -0.17c0,-0.02 0,-0.03 0,-0.04 0,0.01 0,0.02 0,0.04zm0 -0.22c0,0 0,0 0,0zm0 -0.18c0,-0.01 0,-0.02 0,-0.03 0,0.01 0,0.02 0,0.03zm-0.01 -0.39c0,-0.01 -0,-0.01 -0,-0.02 0,0.01 0,0.02 0,0.02z"/>
   <path class="fil0" d="M1243.78 913.67l-0.01 0c-0.26,0 -0.52,0 -0.79,-0.01l0 0c-0.06,0 -0.12,0 -0.18,0 -0.02,0 -0.03,0 -0.05,0 -0.06,0 -0.12,-0.01 -0.17,-0.01 -0.02,-0 -0.03,0 -0.05,0 -0.05,-0 -0.1,0 -0.16,0 -0.01,-0 -0.03,0 -0.04,0 -0.06,-0.01 -0.11,-0.01 -0.17,-0.01 -0.02,-0 -0.04,0 -0.06,0 -0.06,-0 -0.12,-0.01 -0.17,-0.01 -0.02,-0 -0.03,0 -0.05,0 -0.04,-0 -0.09,0 -0.13,-0.01 -0.02,-0 -0.04,0 -0.06,0 -0.05,-0 -0.1,0 -0.16,-0.01 -0.03,0 -0.05,0 -0.07,0 -0.05,0 -0.1,0 -0.15,-0.01 -0.02,-0 -0.06,0 -0.09,0 -0.03,-0 -0.07,-0.01 -0.1,-0.01 -0.03,0 -0.05,0 -0.07,0 -0.05,0 -0.1,-0.01 -0.16,-0.01 -0.02,0 -0.05,0 -0.07,-0.01 -0.05,-0 -0.09,0 -0.14,0 -0.03,-0.01 -0.06,-0.01 -0.08,-0.01 -0.04,-0 -0.08,0 -0.11,-0.01 -0.03,-0 -0.05,0 -0.07,0 -0.05,-0.01 -0.1,-0.01 -0.15,-0.01 -0.02,-0.01 -0.05,-0.01 -0.07,-0.01 -0.04,-0 -0.08,-0.01 -0.12,-0.01 -0.03,-0 -0.06,0 -0.1,-0.01 -0.03,0 -0.07,0 -0.12,-0.01 -0.02,-0 -0.05,0 -0.07,0 -0.04,-0.01 -0.1,-0.01 -0.15,-0.01 -0.03,0 -0.05,0 -0.08,0 -0.04,-0.01 -0.07,-0.01 -0.12,-0.01 -0.03,-0.01 -0.06,-0.01 -0.09,-0.01 -0.04,-0.01 -0.08,-0.01 -0.12,-0.01 -0.02,-0.01 -0.05,-0.01 -0.07,-0.01 -0.05,-0.01 -0.1,-0.01 -0.16,-0.01 -0.02,-0 -0.04,0 -0.07,0 -0.04,-0.01 -0.08,-0.01 -0.12,-0.01 -0.03,0 -0.06,0 -0.08,-0.01 -0.05,-0 -0.09,-0.01 -0.14,-0.01 -0.02,-0 -0.05,-0.01 -0.07,-0.01 -0.05,-0 -0.1,-0.01 -0.16,-0.01 -0.02,-0 -0.04,0 -0.06,0 -0.05,-0.01 -0.09,-0.01 -0.13,-0.01 -0.02,0 -0.04,0 -0.06,-0.01 -0.06,-0 -0.11,-0.01 -0.16,-0.01 -0.02,0 -0.05,0 -0.06,0 -0.06,-0.01 -0.11,-0.01 -0.17,-0.01 -0.02,-0.01 -0.03,-0.01 -0.05,-0.01 -0.05,-0.01 -0.1,-0.01 -0.14,-0.01 -0.02,-0 -0.03,0 -0.05,-0.01 -0.06,0 -0.11,-0.01 -0.18,-0.01 -0.01,0 -0.03,0 -0.04,-0.01 -0.06,0 -0.13,-0.01 -0.18,-0.01 -0.01,-0 -0.01,0 -0.02,0 -0.06,-0.01 -0.12,-0.01 -0.18,-0.02 -0,0 -0.01,0 -0.02,0 -0.06,-0.01 -0.13,-0.01 -0.19,-0.02 -0.01,0 -0.02,-0.01 -0.03,-0.01 -0.13,-0.01 -0.26,-0.02 -0.4,-0.03 0,0 -0.01,0 -0.01,0 -33.3,-3.11 -60.56,-26.63 -69.36,-57.82l7.31 -2.14c3.24,11.57 9.35,22.2 18,31.01 11.32,11.55 25.85,18.82 41.62,20.97 3.04,0.41 6.13,0.64 9.25,0.67 0.24,0.01 0.48,0.01 0.72,0.01 19.02,-0 36.95,-7.32 50.56,-20.66 13.77,-13.51 21.46,-31.58 21.65,-50.87 0.08,-7.52 -1.02,-14.8 -3.09,-21.64l7.35 -2.15c2.12,7.02 3.3,14.43 3.38,22.11 0,0.01 0,0.02 0,0.02 0.01,0.12 0.01,0.24 0.01,0.36 0,0.01 0,0.02 0,0.03 0,0.06 0,0.12 0,0.18 0,0.06 0,0.12 0,0.18 0,0.01 0,0.02 0,0.04 0,0.05 0,0.11 0,0.16 0,0.01 0,0.01 0,0.01 0,0.06 0,0.12 0,0.17 0,0.01 0,0.03 0,0.05 0,0.05 0,0.1 0,0.16 0,0.01 0,0.02 0,0.02 0,0.06 0,0.11 0,0.17 0,0.01 0,0.02 0,0.04 0,0.06 0,0.12 0,0.17l0 0c0,0.05 0,0.09 0,0.13 -0.05,4.38 -0.45,8.67 -1.18,12.85 -6.52,37.56 -39.23,66.02 -78.47,66.13 -0.07,0 -0.14,0 -0.21,0zm0.01 -10.13c-0.24,0 -0.47,0 -0.71,-0.01 -18.63,-0.18 -36.07,-7.6 -49.12,-20.91 -8.35,-8.52 -14.26,-18.79 -17.39,-29.97l57.59 -16.82c2.4,1.6 5.47,3.26 9.2,4.96 2.77,1.53 4.75,3.15 5.95,4.88 1.19,1.72 1.78,4.07 1.75,7.03 -0.03,2.85 -0.67,5.09 -1.91,6.7 -1.23,1.6 -2.92,2.39 -5.06,2.39 -0.03,0 -0.05,0 -0.08,0 -2.72,-0.03 -4.74,-1.18 -6.07,-3.46 -1.33,-2.28 -1.98,-5.52 -1.94,-9.74l-15.16 -0.15c-0.07,7.29 1.56,13.13 4.87,17.54 3.31,4.41 8.06,7.09 14.22,8.04l-0.1 10.66 8.03 0.07 0.1 -10.66c5.65,-0.69 10.09,-2.92 13.33,-6.67 3.23,-3.76 4.87,-8.65 4.93,-14.69 0.04,-3.85 -0.53,-7.2 -1.72,-10.03 -1.19,-2.83 -3.03,-5.37 -5.52,-7.63 -1.57,-1.42 -3.77,-2.95 -6.61,-4.56l58.14 -16.98c2.01,6.62 3.06,13.65 2.99,20.92 -0.18,18.63 -7.6,36.08 -20.91,49.13 -13.14,12.88 -30.45,19.95 -48.82,19.95z"/>
   <path class="fil5" d="M1243.79 906.02c-0.24,0 -0.48,0 -0.72,-0.01 -3.12,-0.03 -6.21,-0.26 -9.25,-0.67 -15.77,-2.16 -30.29,-9.43 -41.62,-20.97 -8.65,-8.81 -14.76,-19.44 -18,-31.01l2.38 -0.7c3.12,11.18 9.03,21.45 17.38,29.97 13.05,13.3 30.49,20.73 49.12,20.91 0.24,0.01 0.47,0.01 0.71,0.01 18.37,-0 35.68,-7.07 48.82,-19.95 13.3,-13.05 20.73,-30.49 20.91,-49.13 0.07,-7.28 -0.98,-14.3 -2.99,-20.92l2.38 -0.7c2.07,6.84 3.16,14.12 3.09,21.64 -0.19,19.29 -7.88,37.36 -21.65,50.87 -13.6,13.34 -31.53,20.66 -50.55,20.66z"/>
   <path class="fil5" d="M1247.88 884.77l-8.03 -0.07 0.1 -10.66c-6.17,-0.95 -10.91,-3.63 -14.22,-8.04 -3.31,-4.4 -4.94,-10.25 -4.87,-17.53l15.16 0.15c-0.04,4.21 0.61,7.46 1.94,9.74 1.34,2.28 3.36,3.43 6.07,3.46 0.03,0 0.05,0 0.08,0 2.14,0 3.82,-0.79 5.06,-2.39 1.25,-1.61 1.88,-3.85 1.91,-6.7 0.03,-2.96 -0.56,-5.31 -1.75,-7.03 -1.2,-1.73 -3.18,-3.35 -5.95,-4.88 -3.74,-1.71 -6.8,-3.36 -9.2,-4.96l18.21 -5.32c2.84,1.62 5.04,3.14 6.61,4.57 2.5,2.26 4.34,4.8 5.52,7.63 1.19,2.83 1.76,6.18 1.72,10.03 -0.06,6.04 -1.7,10.93 -4.93,14.69 -3.23,3.75 -7.68,5.98 -13.33,6.67l-0.1 10.66z"/>
   <path class="fil6" d="M1165.51 849.8c-0.29,-1.4 -0.54,-2.8 -0.75,-4.21l7.41 -2.17c0.18,1.42 0.41,2.83 0.68,4.23l-7.34 2.15zm9.74 -2.85c-0.27,-1.4 -0.49,-2.81 -0.67,-4.23l51.74 -15.13c0.71,1.3 1.57,2.52 2.57,3.67l-53.63 15.69zm69.85 -20.43c-1.68,-1.13 -2.98,-2.22 -3.89,-3.28l12.86 -3.76 12.61 0.13c0.01,-1.3 -0.03,-2.56 -0.13,-3.77l40.32 -11.79c0.61,1.29 1.18,2.6 1.71,3.93l-63.47 18.55zm65.86 -19.25c-0.52,-1.33 -1.09,-2.64 -1.69,-3.93l7.42 -2.17c0.58,1.3 1.13,2.62 1.64,3.95l-7.37 2.15z"/>
   <path class="fil5" d="M1172.85 847.65c-0.27,-1.4 -0.5,-2.8 -0.68,-4.23l2.41 -0.7c0.18,1.42 0.4,2.83 0.67,4.23l-2.39 0.69zm135.72 -39.67c-0.53,-1.33 -1.1,-2.64 -1.71,-3.93l2.41 -0.71c0.6,1.29 1.17,2.6 1.69,3.93l-2.39 0.7z"/>
   <path class="fil5" d="M1228.88 831.27c-1,-1.15 -1.86,-2.38 -2.57,-3.67l14.89 -4.35c0.91,1.06 2.21,2.16 3.89,3.28l-16.22 4.74zm37.79 -11.66l-12.61 -0.13 12.48 -3.65c0.1,1.21 0.14,2.47 0.13,3.77z"/>
   <path class="fil2" d="M680.31 452.7c-0.43,44.11 -36.53,79.53 -80.65,79.1 -44.12,-0.43 -79.53,-36.53 -79.1,-80.65 0.43,-44.11 36.53,-79.53 80.65,-79.1 44.11,0.42 79.53,36.53 79.1,80.65z"/>
   <path class="fil3" d="M609.95 382.82c-2.89,-0.4 -5.85,-0.61 -8.84,-0.64 -38.46,-0.37 -70.05,30.61 -70.43,69.07 -0.18,18.63 6.91,36.22 19.95,49.52 13.05,13.3 30.49,20.72 49.13,20.91 18.63,0.18 36.21,-6.9 49.52,-19.95 13.3,-13.05 20.73,-30.49 20.91,-49.13 0.34,-35.47 -25.98,-65.09 -60.24,-69.78zm-19.46 140.66c-15.77,-2.16 -30.29,-9.43 -41.62,-20.97 -13.51,-13.78 -20.85,-31.99 -20.66,-51.28 0.38,-39.82 33.09,-71.91 72.93,-71.53 39.84,0.41 71.92,33.1 71.53,72.93 -0.19,19.29 -7.87,37.36 -21.65,50.87 -13.77,13.51 -31.99,20.85 -51.28,20.66 -3.12,-0.03 -6.21,-0.26 -9.26,-0.67z"/>
   <path class="fil3" d="M607.75 470.86c0.03,-2.97 -0.55,-5.31 -1.75,-7.04 -1.19,-1.72 -3.18,-3.35 -5.95,-4.87 -5.44,-2.48 -9.46,-4.85 -12.06,-7.11 -2.61,-2.26 -4.54,-4.83 -5.79,-7.72 -1.26,-2.89 -1.87,-6.31 -1.83,-10.28 0.06,-5.93 1.75,-10.81 5.07,-14.65 3.33,-3.84 7.69,-6.09 13.09,-6.76l0.11 -11.46 8.09 0.08 -0.11 11.67c5.35,1.09 9.49,3.84 12.42,8.26 2.94,4.42 4.38,10.01 4.31,16.75l-15.16 -0.14c0.04,-4.28 -0.54,-7.49 -1.75,-9.61 -1.21,-2.12 -2.8,-3.19 -4.77,-3.21 -1.89,-0.02 -3.38,0.79 -4.47,2.42 -1.09,1.63 -1.65,3.92 -1.68,6.84 -0.02,2.54 0.51,4.65 1.6,6.34 1.09,1.69 3.18,3.46 6.27,5.31 5.68,2.77 9.78,5.28 12.27,7.54 2.5,2.25 4.34,4.8 5.52,7.63 1.19,2.83 1.76,6.18 1.73,10.03 -0.06,6.03 -1.71,10.93 -4.94,14.69 -3.23,3.75 -7.68,5.98 -13.32,6.67l-0.1 10.66 -8.04 -0.07 0.1 -10.66c-6.17,-0.95 -10.91,-3.63 -14.22,-8.04 -3.31,-4.4 -4.94,-10.25 -4.86,-17.54l15.15 0.15c-0.04,4.21 0.61,7.46 1.95,9.74 1.33,2.28 3.36,3.43 6.07,3.46 2.18,0.02 3.89,-0.78 5.14,-2.39 1.25,-1.61 1.89,-3.85 1.91,-6.7z"/>
   <path class="fil7" d="M600.45 531.81l0 0zm0.03 0c2.14,0 4.27,-0.09 6.37,-0.25l0 0c-2.1,0.17 -4.23,0.25 -6.37,0.25z"/>
   <path class="fil8" d="M606.86 531.56l0 0c40.78,-3.25 73.05,-37.17 73.45,-78.86l0 -0c-0.4,41.7 -32.67,75.62 -73.45,78.86z"/>
   <path class="fil7" d="M599.47 531.8c-0.02,0 -0.03,0 -0.04,0 0.01,0 0.02,0 0.04,0zm-0.22 -0.01c-0.01,0 -0.02,0 -0.03,0 0.01,-0 0.02,0 0.03,0zm-0.22 -0c0,0 -0.01,0 -0.01,0 0,-0 0.01,0 0.01,0zm-0.2 -0.01c-0.01,0 -0.02,0 -0.03,0 0.01,-0 0.02,0 0.03,0zm-0.23 -0.01c-0.01,0 -0.01,0 -0.02,0 0.01,-0 0.02,0 0.02,0zm-0.21 -0.01c-0.01,0 -0.01,0 -0.01,0 0.01,-0 0.01,0 0.01,0zm-0.21 -0.01c-0.01,0 -0.02,0 -0.02,0 0.01,-0 0.01,0 0.02,0zm-0.22 -0.01c-0.01,0 -0.01,0 -0.02,0 0.01,-0 0.01,0 0.02,0zm-0.42 -0.01c-0.01,0 -0.01,0 -0.01,0 0.01,-0 0.01,0 0.01,-0z"/>
   <path class="fil8" d="M680.31 452.53c0,-0.01 -0,-0.03 -0,-0.05 0,0.02 0,0.03 0,0.05zm0.01 -0.2c0,-0.02 -0,-0.03 -0,-0.05 0,0.02 0,0.03 0,0.05zm0 -0.18c0,-0.02 -0,-0.04 -0,-0.06 0,0.02 0,0.04 0,0.06zm0 -0.19c0,-0.02 -0,-0.05 -0,-0.08 0,0.03 0,0.06 0,0.08zm0 -0.2c0,-0.02 -0,-0.05 -0,-0.07 0,0.02 0,0.05 0,0.07zm0 -0.19c0,-0.03 -0,-0.06 -0,-0.09 0,0.03 0,0.06 0,0.09zm-0.01 -0.2c0,-0.02 -0,-0.05 -0,-0.07 0,0.02 0,0.05 0,0.07zm0 -0.2c0,-0.02 -0,-0.05 -0,-0.07 0,0.03 0,0.05 0,0.07zm0 -0.19c0,-0.02 -0,-0.05 -0,-0.06 0,0.02 0,0.04 0,0.06zm-0.01 -0.21c0,-0.02 -0,-0.03 -0,-0.05 0,0.02 0,0.03 0,0.05zm0 -0.19c0,-0.02 -0,-0.03 -0,-0.05 0,0.01 0,0.03 0,0.05zm-0.01 -0.21c0,-0.01 -0,-0.02 -0,-0.02 0,0.01 0,0.01 0,0.02zm0 -0.18c0,-0.01 -0,-0.02 -0.01,-0.04 0.01,0.01 0.01,0.03 0.01,0.04zm-0.01 -0.21l0 -0.01c0,0 -0,0.01 -0,0.01zm-0.01 -0.18c0,-0.01 -0,-0.02 -0,-0.02 0,0.01 0,0.01 0,0.02z"/>
   <path class="fil0" d="M600.45 531.81l0 0c-0.26,0 -0.53,-0.01 -0.79,-0.01 -0.06,0 -0.13,0 -0.19,0 -0.02,0 -0.03,0 -0.04,0 -0.06,-0.01 -0.12,-0.01 -0.18,-0.01 -0.01,-0 -0.02,0 -0.03,0 -0.06,-0 -0.12,0 -0.18,0 0,-0 -0.01,0 -0.01,0 -0.06,-0.01 -0.13,-0.01 -0.19,-0.01 -0.01,-0 -0.02,0 -0.03,0 -0.06,-0 -0.13,-0.01 -0.2,-0.01 0,-0 -0.01,0 -0.02,0 -0.06,-0 -0.13,-0.01 -0.19,-0.01 -0.01,-0 -0.01,0 -0.01,0 -0.06,-0 -0.13,0 -0.2,-0.01 -0.01,-0 -0.02,0 -0.02,0 -0.06,-0 -0.13,-0.01 -0.2,-0.01 -0.01,-0 -0.01,0 -0.02,0 -0.13,-0.01 -0.28,-0.01 -0.41,-0.01 -0.01,-0 -0.01,0 -0.01,0 -35.37,-1.27 -64.77,-25.5 -73.97,-58.12l7.3 -2.14c3.24,11.56 9.35,22.2 18,31.01 11.33,11.55 25.85,18.82 41.62,20.97 3.04,0.41 6.13,0.64 9.26,0.67 0.24,0.01 0.48,0.01 0.71,0.01 19.03,-0 36.96,-7.32 50.57,-20.66 13.77,-13.51 21.46,-31.58 21.65,-50.87 0.07,-7.52 -1.01,-14.8 -3.09,-21.64l7.35 -2.15c2.01,6.66 3.18,13.69 3.36,20.95 0,-0 0,0.01 0,0.02 0,0.06 0.01,0.12 0.01,0.18l0 0.01c0,0.06 -0,0.12 -0,0.17 0.01,0.02 0.01,0.03 0.01,0.04 0,0.05 0,0.1 0,0.16 0,0.01 0,0.01 0,0.02 0,0.05 0.01,0.11 0.01,0.17 0,0.01 0,0.03 0,0.05 0,0.05 0,0.09 0,0.14 0,0.02 0,0.03 0,0.05 0,0.05 0.01,0.1 0.01,0.14 0,0.02 0,0.04 0,0.06 0,0.04 0,0.08 0,0.11 0,0.03 0,0.05 0,0.07 0,0.05 0,0.09 0,0.13 0,0.02 0,0.05 0,0.07 0,0.03 0.01,0.07 0.01,0.11 0,0.03 0,0.06 0,0.09 0,0.04 0,0.08 0,0.12 0,0.02 0,0.05 0,0.07 0,0.04 0,0.08 0,0.12 0,0.03 0,0.06 0,0.08 0,0.04 0,0.09 0,0.13 0,0.02 0,0.04 0,0.06 0,0.04 0,0.09 0,0.14 0,0.01 0,0.03 0,0.05 0,0.05 -0.01,0.1 -0.01,0.15 0,0.02 0,0.03 0,0.05 0,0.06 0,0.12 0,0.17l0 -0c-0.4,41.69 -32.68,75.61 -73.45,78.86 -2.1,0.17 -4.23,0.25 -6.37,0.25 -0.01,-0 -0.02,0 -0.03,0zm0.01 -10.13c-0.24,0 -0.47,0 -0.7,-0.01 -18.63,-0.18 -36.08,-7.6 -49.13,-20.91 -8.35,-8.52 -14.26,-18.79 -17.39,-29.97l57.59 -16.82c2.4,1.6 5.47,3.26 9.2,4.96 2.77,1.53 4.76,3.15 5.95,4.87 1.2,1.73 1.79,4.07 1.75,7.04 -0.02,2.85 -0.66,5.09 -1.91,6.7 -1.23,1.59 -2.92,2.39 -5.05,2.39 -0.03,-0 -0.06,0 -0.09,0 -2.71,-0.03 -4.74,-1.18 -6.07,-3.46 -1.34,-2.28 -1.99,-5.52 -1.95,-9.74l-15.15 -0.15c-0.07,7.29 1.55,13.13 4.86,17.54 3.31,4.41 8.06,7.09 14.22,8.04l-0.1 10.66 8.04 0.07 0.1 -10.66c5.64,-0.7 10.09,-2.92 13.32,-6.67 3.23,-3.75 4.87,-8.65 4.94,-14.69 0.03,-3.85 -0.54,-7.2 -1.73,-10.03 -1.18,-2.83 -3.03,-5.38 -5.52,-7.63 -1.57,-1.42 -3.77,-2.95 -6.6,-4.56l58.13 -16.98c2.02,6.62 3.07,13.65 2.99,20.92 -0.18,18.63 -7.6,36.07 -20.91,49.13 -13.14,12.88 -30.44,19.95 -48.82,19.95z"/>
   <path class="fil5" d="M600.45 524.16c-0.24,0 -0.48,0 -0.71,-0.01 -3.12,-0.03 -6.21,-0.26 -9.26,-0.67 -15.77,-2.16 -30.29,-9.43 -41.62,-20.97 -8.65,-8.81 -14.76,-19.45 -18,-31.01l2.38 -0.7c3.12,11.18 9.03,21.45 17.39,29.97 13.05,13.3 30.49,20.72 49.13,20.91 0.23,0.01 0.47,0.01 0.7,0.01 18.37,-0 35.68,-7.07 48.82,-19.95 13.3,-13.05 20.73,-30.49 20.91,-49.13 0.07,-7.28 -0.98,-14.3 -2.99,-20.92l2.38 -0.69c2.08,6.84 3.16,14.12 3.09,21.64 -0.19,19.29 -7.87,37.36 -21.65,50.87 -13.61,13.34 -31.54,20.66 -50.57,20.66z"/>
   <path class="fil5" d="M604.55 502.91l-8.04 -0.07 0.1 -10.66c-6.17,-0.95 -10.91,-3.63 -14.22,-8.04 -3.31,-4.4 -4.94,-10.25 -4.86,-17.54l15.15 0.15c-0.04,4.21 0.61,7.46 1.95,9.74 1.33,2.28 3.36,3.43 6.07,3.46 0.03,-0 0.06,0 0.09,0 2.14,-0 3.82,-0.8 5.05,-2.39 1.25,-1.61 1.89,-3.85 1.91,-6.7 0.03,-2.97 -0.55,-5.31 -1.75,-7.04 -1.19,-1.72 -3.18,-3.35 -5.95,-4.87 -3.74,-1.71 -6.8,-3.36 -9.2,-4.96l18.22 -5.32c2.83,1.62 5.03,3.14 6.6,4.57 2.5,2.25 4.34,4.8 5.52,7.63 1.19,2.83 1.76,6.18 1.73,10.03 -0.06,6.03 -1.71,10.93 -4.94,14.69 -3.23,3.75 -7.68,5.98 -13.32,6.67l-0.1 10.66z"/>
   <path class="fil6" d="M522.17 467.93c-0.29,-1.39 -0.53,-2.79 -0.75,-4.21l7.41 -2.17c0.19,1.42 0.41,2.83 0.69,4.23l-7.35 2.15zm9.74 -2.85c-0.26,-1.4 -0.49,-2.81 -0.67,-4.23l51.74 -15.13c0.71,1.29 1.56,2.52 2.56,3.67l-53.63 15.68zm69.85 -20.42c-1.68,-1.13 -2.98,-2.22 -3.89,-3.28l12.86 -3.76 12.61 0.12c0.01,-1.3 -0.03,-2.55 -0.13,-3.77l40.31 -11.79c0.61,1.29 1.18,2.6 1.71,3.92l-63.47 18.56zm65.86 -19.25c-0.53,-1.33 -1.09,-2.64 -1.69,-3.93l7.41 -2.17c0.59,1.3 1.13,2.62 1.64,3.95l-7.36 2.15z"/>
   <path class="fil5" d="M529.52 465.79c-0.28,-1.4 -0.5,-2.81 -0.69,-4.23l2.41 -0.7c0.18,1.42 0.41,2.83 0.67,4.23l-2.39 0.7zm135.71 -39.68c-0.53,-1.33 -1.1,-2.64 -1.71,-3.92l2.41 -0.71c0.6,1.29 1.16,2.6 1.69,3.93l-2.39 0.69z"/>
   <path class="fil5" d="M585.54 449.4c-1,-1.15 -1.86,-2.38 -2.56,-3.67l14.89 -4.35c0.91,1.06 2.22,2.16 3.89,3.28l-16.22 4.74zm37.79 -11.67l-12.61 -0.12 12.48 -3.65c0.1,1.21 0.14,2.47 0.13,3.77z"/>
   <path class="fil2" d="M1002.19 307.92c-0.43,44.11 -36.54,79.53 -80.65,79.1 -44.11,-0.43 -79.53,-36.53 -79.1,-80.65 0.43,-44.11 36.53,-79.53 80.65,-79.1 44.11,0.43 79.53,36.54 79.1,80.65z"/>
   <path class="fil3" d="M931.83 238.04c-2.9,-0.4 -5.85,-0.61 -8.84,-0.64 -38.46,-0.37 -70.05,30.61 -70.43,69.07 -0.18,18.63 6.91,36.22 19.95,49.52 13.05,13.3 30.49,20.72 49.12,20.91 18.63,0.18 36.22,-6.9 49.52,-19.95 13.3,-13.05 20.73,-30.49 20.91,-49.12 0.34,-35.47 -25.98,-65.09 -60.24,-69.78zm-19.46 140.66c-15.77,-2.16 -30.29,-9.43 -41.62,-20.97 -13.52,-13.78 -20.85,-31.99 -20.66,-51.28 0.39,-39.83 33.1,-71.91 72.93,-71.53 39.84,0.41 71.91,33.1 71.53,72.93 -0.19,19.29 -7.88,37.36 -21.65,50.87 -13.77,13.51 -31.99,20.85 -51.28,20.66 -3.12,-0.03 -6.21,-0.26 -9.25,-0.67z"/>
   <path class="fil3" d="M929.63 326.07c0.03,-2.96 -0.56,-5.3 -1.75,-7.03 -1.2,-1.72 -3.18,-3.35 -5.95,-4.87 -5.44,-2.48 -9.46,-4.85 -12.06,-7.11 -2.6,-2.26 -4.53,-4.83 -5.79,-7.72 -1.26,-2.89 -1.87,-6.31 -1.83,-10.28 0.06,-5.93 1.75,-10.81 5.07,-14.65 3.32,-3.84 7.68,-6.09 13.08,-6.76l0.11 -11.46 8.08 0.08 -0.11 11.67c5.35,1.09 9.48,3.84 12.42,8.26 2.94,4.42 4.38,10.01 4.31,16.75l-15.16 -0.14c0.04,-4.29 -0.55,-7.49 -1.76,-9.61 -1.21,-2.12 -2.8,-3.19 -4.76,-3.21 -1.89,-0.02 -3.38,0.79 -4.47,2.42 -1.08,1.63 -1.64,3.91 -1.67,6.84 -0.02,2.54 0.51,4.65 1.6,6.34 1.09,1.69 3.18,3.46 6.27,5.31 5.69,2.77 9.78,5.28 12.28,7.54 2.5,2.25 4.34,4.8 5.52,7.63 1.19,2.83 1.76,6.18 1.72,10.03 -0.06,6.03 -1.7,10.93 -4.93,14.69 -3.24,3.75 -7.68,5.98 -13.33,6.67l-0.1 10.66 -8.03 -0.07 0.1 -10.66c-6.17,-0.95 -10.91,-3.63 -14.22,-8.04 -3.31,-4.4 -4.94,-10.25 -4.87,-17.54l15.16 0.15c-0.04,4.21 0.61,7.46 1.94,9.74 1.34,2.28 3.36,3.43 6.07,3.46 2.18,0.02 3.89,-0.77 5.14,-2.39 1.25,-1.61 1.88,-3.85 1.91,-6.71z"/>
   <path class="fil4" d="M922.33 387.03l0 0zm0.04 0c39.97,-0.02 73.2,-29.47 78.95,-68.01 -5.75,38.54 -38.97,67.99 -78.95,68.01zm-1.02 -0.01c-0.01,0 -0.02,0 -0.04,0 0.02,-0 0.03,0 0.04,0zm-0.22 -0.01c-0.01,0 -0.03,0 -0.04,0 0.01,-0 0.03,0 0.04,0zm-0.22 -0.01c-0.01,0 -0.01,0 -0.01,0 0,0 0.01,0 0.01,0zm-0.21 0c-0.01,0 -0.02,0 -0.03,0 0.01,0 0.03,0 0.03,0zm-0.22 -0.01c-0.01,0 -0.01,0 -0.02,0 0.01,-0 0.01,0 0.02,0zm-0.21 -0.01c-0.01,0 -0.01,0 -0.01,0 0,0 0.01,0 0.01,0zm-0.21 -0.01c-0.01,0 -0.02,0 -0.03,0 0.01,-0 0.02,0 0.03,0zm-0.22 -0.01c-0.01,0 -0.01,0 -0.02,0 0.01,-0 0.01,0 0.02,0zm-0.42 -0.01c-0.01,0 -0.01,0 -0.01,0 0,-0 0.01,0 0.01,0zm82.77 -78.92c0,-0.05 -0,-0.09 -0,-0.13l0 -0c0,0.05 -0,0.09 -0,0.13zm0 -0.31c0,-0.02 -0,-0.03 -0,-0.05 0,0.02 0,0.03 0,0.05zm0 -0.21c0,-0.01 -0,-0.02 -0,-0.02 0,0.01 0,0.02 0,0.02zm0 -0.18c0,-0.01 -0,-0.03 -0,-0.05 0,0.02 0,0.03 0,0.05zm0 -0.21c0,-0.01 -0,-0.01 -0,-0.01 0,0.01 0,0.01 0,0.01zm0 -0.18c0,-0.01 -0,-0.02 -0,-0.03 0,0.01 0,0.02 0,0.03zm0 -0.21c0,0 -0,0 -0,0zm0 -0.18c0,-0.01 -0,-0.02 -0,-0.03 0,0.01 0,0.02 0,0.03zm-0.01 -0.39c0,-0.01 -0,-0.01 -0,-0.02 0,0.01 0,0.02 0,0.02z"/>
   <path class="fil0" d="M922.33 387.03l0 0c-0.27,0 -0.53,-0.01 -0.79,-0.01l0 -0c-0.06,0 -0.13,0 -0.19,0 -0.01,-0 -0.02,0 -0.04,0 -0.06,-0.01 -0.12,-0.01 -0.18,-0.01 -0.01,-0 -0.03,0 -0.04,0 -0.06,-0 -0.11,0 -0.18,-0.01 -0,0 -0.01,0 -0.01,0 -0.07,0 -0.13,0 -0.2,0 -0,0 -0.02,0 -0.03,0 -0.06,-0.01 -0.13,-0.01 -0.19,-0.01 -0.01,-0 -0.01,0 -0.02,0 -0.06,-0 -0.13,-0.01 -0.19,-0.01 -0.01,0 -0.01,0 -0.01,0 -0.07,0 -0.13,-0.01 -0.2,-0.01 -0.01,-0 -0.02,0 -0.03,0 -0.06,-0 -0.13,-0.01 -0.2,-0.01 -0.01,-0 -0.01,0 -0.02,0 -0.13,-0.01 -0.27,-0.01 -0.4,-0.01 -0.01,-0 -0.01,0 -0.01,0 -35.37,-1.27 -64.78,-25.5 -73.98,-58.12l7.31 -2.14c3.24,11.56 9.35,22.2 18,31.01 11.32,11.55 25.85,18.82 41.62,20.97 3.04,0.41 6.13,0.64 9.25,0.67 0.24,0.01 0.48,0.01 0.72,0.01 19.02,-0 36.95,-7.32 50.56,-20.66 13.77,-13.52 21.46,-31.58 21.65,-50.87 0.07,-7.52 -1.02,-14.8 -3.09,-21.64l7.35 -2.15c2.11,7.02 3.3,14.44 3.38,22.11 0,0.01 0,0.01 0,0.02 0.01,0.12 0.01,0.24 0.01,0.36 0,0.01 0,0.02 0,0.03 0,0.06 0,0.12 0,0.18 0,0.06 0,0.12 0,0.18 0,0.01 0,0.02 0,0.03 0,0.06 0,0.11 0,0.17 0,0.01 0,0.01 0,0.01 0,0.06 0,0.11 0,0.17 0,0.02 0,0.03 0,0.05 0,0.06 0,0.11 0,0.16 0,0.01 0,0.01 0,0.02 0,0.05 0,0.11 0,0.16 0,0.02 0,0.03 0,0.05 0,0.06 0,0.12 0,0.17l0 -0c0,0.05 -0,0.09 -0,0.13 -0.05,3.73 -0.34,7.38 -0.87,10.97 -5.75,38.54 -38.97,67.99 -78.95,68.01 -0.01,-0 -0.03,0 -0.04,0zm0.01 -10.13c-0.23,0 -0.47,0 -0.7,-0.01 -18.63,-0.18 -36.07,-7.6 -49.12,-20.91 -8.35,-8.52 -14.26,-18.79 -17.39,-29.97l57.59 -16.82c2.39,1.6 5.47,3.26 9.2,4.96 2.77,1.52 4.75,3.15 5.95,4.87 1.2,1.73 1.78,4.07 1.75,7.03 -0.03,2.86 -0.67,5.09 -1.91,6.71 -1.23,1.59 -2.92,2.39 -5.05,2.39 -0.03,-0 -0.06,0 -0.09,0 -2.71,-0.03 -4.74,-1.18 -6.07,-3.46 -1.33,-2.28 -1.98,-5.53 -1.94,-9.74l-15.16 -0.15c-0.07,7.29 1.56,13.13 4.87,17.54 3.31,4.41 8.06,7.09 14.22,8.04l-0.1 10.66 8.03 0.07 0.1 -10.66c5.65,-0.7 10.09,-2.92 13.33,-6.67 3.23,-3.75 4.87,-8.65 4.93,-14.69 0.04,-3.85 -0.53,-7.2 -1.72,-10.03 -1.19,-2.83 -3.03,-5.38 -5.52,-7.63 -1.57,-1.42 -3.77,-2.95 -6.61,-4.56l58.14 -16.98c2.01,6.62 3.06,13.65 2.99,20.92 -0.18,18.63 -7.6,36.07 -20.91,49.12 -13.14,12.88 -30.45,19.96 -48.82,19.96z"/>
   <path class="fil5" d="M922.34 379.38c-0.24,0 -0.48,0 -0.72,-0.01 -3.12,-0.03 -6.21,-0.26 -9.25,-0.67 -15.77,-2.16 -30.29,-9.43 -41.62,-20.97 -8.65,-8.81 -14.76,-19.45 -18,-31.01l2.38 -0.69c3.12,11.18 9.03,21.45 17.39,29.97 13.05,13.3 30.49,20.72 49.12,20.91 0.24,0.01 0.47,0.01 0.7,0.01 18.37,-0 35.68,-7.07 48.82,-19.96 13.3,-13.05 20.73,-30.49 20.91,-49.12 0.07,-7.28 -0.98,-14.3 -2.99,-20.92l2.38 -0.69c2.07,6.84 3.16,14.12 3.09,21.64 -0.19,19.29 -7.88,37.36 -21.65,50.87 -13.6,13.34 -31.53,20.66 -50.56,20.66z"/>
   <path class="fil5" d="M926.43 358.13l-8.03 -0.07 0.1 -10.66c-6.17,-0.95 -10.91,-3.63 -14.22,-8.04 -3.31,-4.4 -4.94,-10.25 -4.87,-17.54l15.16 0.15c-0.04,4.21 0.61,7.46 1.94,9.74 1.34,2.28 3.36,3.43 6.07,3.46 0.03,-0 0.06,0 0.09,0 2.14,-0 3.82,-0.8 5.05,-2.39 1.25,-1.61 1.88,-3.85 1.91,-6.71 0.03,-2.96 -0.56,-5.31 -1.75,-7.03 -1.2,-1.72 -3.18,-3.35 -5.95,-4.87 -3.74,-1.71 -6.81,-3.36 -9.2,-4.96l18.21 -5.32c2.84,1.62 5.04,3.14 6.61,4.57 2.5,2.25 4.34,4.8 5.52,7.63 1.19,2.83 1.76,6.18 1.72,10.03 -0.06,6.03 -1.7,10.93 -4.93,14.69 -3.24,3.75 -7.68,5.98 -13.33,6.67l-0.1 10.66z"/>
   <path class="fil6" d="M844.05 323.15c-0.28,-1.39 -0.53,-2.79 -0.74,-4.21l7.41 -2.17c0.18,1.42 0.41,2.83 0.68,4.23l-7.35 2.15zm9.74 -2.85c-0.27,-1.4 -0.49,-2.81 -0.67,-4.23l51.74 -15.13c0.71,1.29 1.57,2.52 2.57,3.67l-53.63 15.68zm69.85 -20.42c-1.68,-1.13 -2.98,-2.22 -3.89,-3.28l12.86 -3.76 12.61 0.12c0.01,-1.3 -0.03,-2.55 -0.13,-3.77l40.32 -11.79c0.61,1.29 1.18,2.6 1.71,3.92l-63.47 18.56zm65.86 -19.25c-0.52,-1.33 -1.09,-2.64 -1.69,-3.93l7.42 -2.17c0.58,1.3 1.12,2.61 1.64,3.95l-7.37 2.15z"/>
   <path class="fil5" d="M851.4 321c-0.27,-1.4 -0.5,-2.81 -0.68,-4.23l2.41 -0.7c0.18,1.42 0.4,2.83 0.67,4.23l-2.39 0.7zm135.72 -39.68c-0.53,-1.33 -1.1,-2.64 -1.71,-3.92l2.41 -0.71c0.6,1.29 1.17,2.6 1.69,3.93l-2.39 0.69z"/>
   <path class="fil5" d="M907.43 304.62c-1,-1.15 -1.86,-2.38 -2.57,-3.67l14.89 -4.35c0.91,1.06 2.21,2.16 3.89,3.28l-16.22 4.74zm37.79 -11.67l-12.61 -0.12 12.48 -3.65c0.1,1.21 0.14,2.47 0.13,3.77z"/>
   <path class="fil2" d="M807.72 1232.8c-0.42,44.11 -36.53,79.53 -80.65,79.1 -44.11,-0.43 -79.53,-36.54 -79.1,-80.65 0.43,-44.11 36.53,-79.53 80.65,-79.1 44.12,0.43 79.53,36.53 79.1,80.65z"/>
   <path class="fil3" d="M737.36 1162.92c-2.89,-0.39 -5.84,-0.61 -8.84,-0.64 -38.46,-0.37 -70.05,30.62 -70.42,69.08 -0.18,18.63 6.9,36.22 19.95,49.52 13.05,13.3 30.49,20.72 49.13,20.91 18.63,0.18 36.21,-6.91 49.52,-19.95 13.3,-13.05 20.73,-30.49 20.91,-49.12 0.34,-35.47 -25.98,-65.09 -60.24,-69.79zm-19.46 140.66c-15.77,-2.16 -30.29,-9.43 -41.62,-20.97 -13.51,-13.77 -20.85,-31.99 -20.66,-51.28 0.39,-39.82 33.1,-71.91 72.93,-71.53 39.84,0.41 71.92,33.1 71.53,72.92 -0.18,19.3 -7.87,37.36 -21.65,50.87 -13.77,13.52 -31.99,20.85 -51.28,20.66 -3.12,-0.03 -6.21,-0.26 -9.25,-0.68z"/>
   <path class="fil3" d="M735.17 1250.95c0.03,-2.96 -0.56,-5.3 -1.76,-7.03 -1.19,-1.73 -3.18,-3.35 -5.95,-4.88 -5.44,-2.48 -9.46,-4.85 -12.06,-7.1 -2.61,-2.26 -4.54,-4.83 -5.79,-7.72 -1.26,-2.89 -1.87,-6.32 -1.83,-10.28 0.06,-5.93 1.75,-10.81 5.07,-14.65 3.32,-3.84 7.68,-6.1 13.08,-6.76l0.11 -11.46 8.09 0.07 -0.12 11.68c5.35,1.09 9.49,3.84 12.43,8.26 2.94,4.42 4.38,10.01 4.31,16.75l-15.15 -0.15c0.04,-4.28 -0.55,-7.49 -1.76,-9.6 -1.21,-2.12 -2.8,-3.19 -4.77,-3.21 -1.89,-0.02 -3.38,0.79 -4.47,2.42 -1.08,1.63 -1.65,3.91 -1.67,6.84 -0.03,2.54 0.51,4.65 1.6,6.33 1.09,1.69 3.18,3.46 6.27,5.31 5.68,2.77 9.78,5.28 12.28,7.54 2.49,2.26 4.34,4.8 5.52,7.64 1.18,2.83 1.76,6.17 1.72,10.03 -0.06,6.03 -1.71,10.93 -4.94,14.68 -3.23,3.75 -7.67,5.98 -13.32,6.68l-0.1 10.66 -8.03 -0.08 0.1 -10.66c-6.17,-0.95 -10.92,-3.63 -14.23,-8.04 -3.31,-4.4 -4.93,-10.25 -4.86,-17.54l15.16 0.14c-0.04,4.21 0.6,7.46 1.94,9.74 1.33,2.28 3.36,3.43 6.07,3.46 2.18,0.02 3.89,-0.77 5.14,-2.39 1.25,-1.61 1.88,-3.85 1.91,-6.71z"/>
   <path class="fil4" d="M727.86 1311.91l0 0zm-0.2 0c-0.06,0 -0.12,0 -0.18,0 0.06,-0 0.12,0 0.18,0zm0.46 -0c39.23,-0.13 71.91,-28.58 78.43,-66.13 -6.51,37.54 -39.19,66.01 -78.43,66.13zm-0.67 -0c-0.06,0 -0.11,0 -0.18,0 0.06,-0 0.12,0 0.18,0zm-0.19 -0c-0.06,0 -0.13,0 -0.19,0l0 -0c0.06,0 0.13,0 0.19,0zm-0.38 -0.01c-0.01,0 -0.03,0 -0.04,0 0.01,-0 0.03,0 0.04,0zm-0.22 -0c-0.01,0 -0.02,0 -0.03,0 0.01,-0 0.02,0 0.03,0zm-0.21 -0.01c-0.01,-0 -0.01,-0 -0.02,-0 0.01,-0 0.01,0 0.02,0zm-0.2 -0.01c-0.02,0 -0.03,0 -0.05,0 0.02,0 0.03,0 0.05,0zm-0.23 0c-0.01,0 -0.02,0 -0.02,0 0.01,0 0.02,0 0.02,0zm-0.21 -0.01c-0.01,0 -0.01,0 -0.02,0 0.01,-0 0.01,0 0.02,0zm-0.21 -0.01c-0.01,0 -0.02,0 -0.03,0 0.01,0 0.02,0 0.03,0zm-0.22 -0.01c-0.01,0 -0.01,0 -0.02,0 0.01,0 0.01,0 0.02,0zm-0.21 -0.01c0,0 -0.01,0 -0.01,0 0,-0 0.01,0 0.01,0zm-0.21 -0.01c-0.01,0 -0.01,0 -0.02,0 0.01,-0 0.01,0 0.02,0zm-0.43 -0.02l0 0zm-0.21 -0.01l0 0c0,0 0,0 0,0zm83.4 -78.9c0,-0.04 0,-0.09 0,-0.13l0 -0c0,0.04 0,0.09 0,0.13zm0.01 -0.3c0,-0.02 0,-0.03 0,-0.05 0,0.02 0,0.03 0,0.05zm0 -0.21c0,-0.01 0,-0.01 0,-0.02 0,0.01 0,0.01 0,0.02zm0 -0.18c0,-0.02 0,-0.03 0,-0.05 0,0.02 0,0.03 0,0.05zm0 -0.21c0,-0.01 0,-0.01 0,-0.01 0,-0 0,0.01 0,0.01zm0 -0.18c0,-0.01 0,-0.02 0,-0.04 0,0.02 0,0.03 0,0.04zm0 -0.21c0,-0.01 0,0 0,-0.01 0,0 0,0.01 0,0.01zm0 -0.18c0,-0.01 0,-0.02 0,-0.03 0,0.01 0,0.02 0,0.03zm-0.01 -0.4c0,-0.01 0,-0.01 0,-0.02 0,0.01 0,0.01 0,0.02z"/>
   <path class="fil0" d="M727.86 1311.91l0 0c-0.07,0 -0.13,0 -0.2,0 -0.06,-0 -0.12,0 -0.18,0 -0.01,-0 -0.02,0 -0.03,0 -0.06,-0 -0.11,0 -0.18,0 0,-0 -0.01,0 -0.01,0 -0.06,-0 -0.13,0 -0.19,0l0 -0c-0.06,-0.01 -0.13,-0.01 -0.19,-0.01 -0.01,-0 -0.03,0 -0.04,0 -0.06,-0 -0.12,0 -0.18,0 -0.01,-0 -0.02,0 -0.03,0 -0.06,-0.01 -0.12,-0.01 -0.18,-0.01 -0.01,-0 -0.01,0 -0.02,0 -0.06,-0 -0.13,0 -0.18,-0.01 -0.02,0 -0.03,0 -0.05,0 -0.06,0 -0.12,0 -0.18,0 -0.01,0 -0.02,0 -0.02,0 -0.06,-0.01 -0.12,-0.01 -0.18,-0.01 -0.01,-0 -0.01,0 -0.02,0 -0.06,-0.01 -0.13,-0.01 -0.2,-0.01 -0.01,0 -0.02,0 -0.03,0 -0.06,-0.01 -0.13,-0.01 -0.19,-0.01 -0.01,0 -0.01,0 -0.02,0 -0.06,-0.01 -0.13,-0.01 -0.2,-0.01 0,-0 -0.01,0 -0.01,0 -0.07,-0 -0.13,0 -0.2,-0.01 -0.01,-0 -0.01,0 -0.02,0 -0.14,-0.01 -0.28,-0.01 -0.41,-0.02l0 -0c-0.07,0 -0.14,-0.01 -0.21,-0.01 -35.09,-1.53 -64.2,-25.67 -73.34,-58.1l7.31 -2.13c3.23,11.56 9.35,22.19 17.99,31.01 11.33,11.55 25.85,18.82 41.62,20.97 3.04,0.42 6.13,0.64 9.25,0.68 0.24,-0 0.48,0 0.72,0 19.02,-0 36.96,-7.32 50.56,-20.66 13.77,-13.51 21.46,-31.57 21.65,-50.87 0.08,-7.52 -1.01,-14.79 -3.09,-21.63l7.36 -2.15c2.11,7.01 3.29,14.43 3.38,22.11 0,0.01 0,0.01 0,0.02 0,0.12 0,0.24 0.01,0.36 0,0.01 0,0.02 0,0.03 0,0.06 0,0.11 0,0.17 0,0.01 0,0 0,0.01 0,0.06 0,0.12 0,0.17 0,0.02 0,0.03 0,0.04 0,0.06 0,0.11 0,0.17 0,-0 0,0.01 0,0.01 0,0.06 0,0.11 0,0.17 0,0.02 0,0.03 0,0.05 0,0.05 0,0.11 0,0.16 0,0.01 0,0.01 0,0.02 0,0.06 0,0.11 0,0.17 0,0.02 0,0.03 0,0.05 -0.01,0.06 -0.01,0.12 -0.01,0.17l0 -0c0,0.04 0,0.09 0,0.13 -0.05,4.38 -0.45,8.67 -1.18,12.85 -6.51,37.54 -39.2,66 -78.43,66.13 -0.09,-0 -0.17,0 -0.26,0zm0.01 -10.12c-0.24,0 -0.47,-0.01 -0.7,-0.01 -18.63,-0.18 -36.07,-7.61 -49.13,-20.91 -8.35,-8.52 -14.26,-18.79 -17.39,-29.97l57.59 -16.82c2.4,1.6 5.47,3.25 9.21,4.96 2.77,1.53 4.75,3.15 5.95,4.88 1.2,1.73 1.79,4.07 1.76,7.03 -0.03,2.86 -0.67,5.09 -1.91,6.71 -1.23,1.59 -2.92,2.39 -5.06,2.39 -0.03,0 -0.06,0 -0.08,0 -2.72,-0.03 -4.74,-1.18 -6.07,-3.46 -1.34,-2.28 -1.98,-5.53 -1.94,-9.74l-15.16 -0.14c-0.07,7.28 1.55,13.13 4.86,17.54 3.31,4.4 8.06,7.09 14.23,8.04l-0.1 10.66 8.03 0.08 0.1 -10.66c5.65,-0.7 10.09,-2.92 13.32,-6.68 3.23,-3.76 4.88,-8.65 4.94,-14.68 0.03,-3.86 -0.54,-7.2 -1.72,-10.03 -1.19,-2.84 -3.03,-5.38 -5.52,-7.64 -1.57,-1.42 -3.78,-2.94 -6.61,-4.57l58.13 -16.98c2.02,6.62 3.07,13.65 3,20.92 -0.18,18.63 -7.61,36.07 -20.91,49.12 -13.14,12.88 -30.45,19.96 -48.82,19.96z"/>
   <path class="fil5" d="M727.87 1304.26c-0.24,0 -0.48,0 -0.72,0 -3.12,-0.03 -6.21,-0.26 -9.25,-0.68 -15.77,-2.16 -30.29,-9.43 -41.62,-20.97 -8.64,-8.81 -14.76,-19.44 -17.99,-31l2.38 -0.7c3.12,11.18 9.04,21.46 17.39,29.97 13.05,13.3 30.49,20.72 49.13,20.91 0.23,-0 0.47,0.01 0.7,0.01 18.37,-0 35.68,-7.07 48.82,-19.96 13.3,-13.05 20.73,-30.49 20.91,-49.12 0.07,-7.28 -0.98,-14.3 -3,-20.92l2.38 -0.7c2.08,6.84 3.16,14.11 3.09,21.64 -0.18,19.3 -7.87,37.36 -21.65,50.87 -13.6,13.34 -31.54,20.66 -50.56,20.66z"/>
   <path class="fil5" d="M731.96 1283.01l-8.03 -0.08 0.1 -10.66c-6.17,-0.95 -10.92,-3.63 -14.23,-8.04 -3.31,-4.4 -4.93,-10.25 -4.86,-17.54l15.16 0.14c-0.04,4.21 0.6,7.46 1.94,9.74 1.33,2.28 3.36,3.43 6.07,3.46 0.02,0 0.05,0 0.08,0 2.14,0 3.82,-0.8 5.06,-2.39 1.25,-1.61 1.88,-3.85 1.91,-6.71 0.03,-2.96 -0.56,-5.31 -1.76,-7.03 -1.19,-1.73 -3.18,-3.35 -5.95,-4.88 -3.74,-1.71 -6.81,-3.36 -9.21,-4.96l18.22 -5.32c2.83,1.63 5.04,3.15 6.61,4.57 2.49,2.26 4.34,4.8 5.52,7.64 1.18,2.83 1.76,6.17 1.72,10.03 -0.06,6.03 -1.71,10.93 -4.94,14.68 -3.23,3.75 -7.67,5.98 -13.32,6.68l-0.1 10.66z"/>
   <path class="fil6" d="M649.59 1248.03c-0.28,-1.39 -0.53,-2.79 -0.75,-4.21l7.41 -2.16c0.19,1.42 0.42,2.83 0.69,4.23l-7.35 2.15zm9.74 -2.85c-0.26,-1.4 -0.49,-2.81 -0.67,-4.23l51.74 -15.12c0.71,1.29 1.56,2.52 2.57,3.68l-53.64 15.68zm69.86 -20.42c-1.68,-1.13 -2.98,-2.22 -3.9,-3.29l12.86 -3.76 12.61 0.12c0.02,-1.3 -0.03,-2.56 -0.13,-3.77l40.31 -11.79c0.61,1.29 1.18,2.6 1.71,3.93l-63.46 18.56zm65.86 -19.26c-0.53,-1.33 -1.09,-2.64 -1.69,-3.93l7.42 -2.17c0.58,1.3 1.12,2.61 1.64,3.94l-7.36 2.15z"/>
   <path class="fil5" d="M656.94 1245.89c-0.27,-1.4 -0.5,-2.81 -0.69,-4.23l2.41 -0.71c0.18,1.42 0.4,2.83 0.67,4.23l-2.39 0.7zm135.71 -39.68c-0.53,-1.33 -1.1,-2.64 -1.71,-3.93l2.41 -0.7c0.6,1.29 1.17,2.6 1.69,3.93l-2.39 0.7z"/>
   <path class="fil5" d="M712.96 1229.51c-1.01,-1.16 -1.86,-2.38 -2.57,-3.67l14.89 -4.36c0.92,1.07 2.22,2.16 3.9,3.29l-16.22 4.74zm37.79 -11.67l-12.61 -0.12 12.48 -3.65c0.1,1.22 0.14,2.47 0.13,3.77z"/>
   <path class="fil1" d="M1539.28 665.1c104.82,15.43 195,-0.98 234.11,-10.37 19.44,189.34 39.59,424.62 50.51,555.88 2.64,31.73 7.4,99.87 11.41,158.68 1.53,22.52 -30.21,29.02 -37.58,7.69 -67.07,-194.15 -143.73,-591.02 -143.73,-591.02 3.93,260.95 -22.6,472.52 -45.13,588.35 -4.33,22.25 -36.76,20.29 -38.3,-2.33 -4.85,-70.86 -10.25,-167.56 -11.91,-194.19 -15.31,-245.02 -22.17,-618.46 -24.24,-755.02 0.81,53.58 2.35,136.41 4.86,242.34z"/>
   <path class="fil9" d="M1227.41 392.75c-14.93,-6.06 -9.52,-28.33 10.39,-25.09l192.74 26.39c0,0 131.74,-82.41 181.03,-96.85 8.89,-2.6 12.74,-8.78 21.02,-9.42 8.21,-0.64 6.98,-1.56 15.22,-0.6 15.66,1.83 41.07,7.68 58.73,15.63 110.63,49.81 164.05,167.15 164.05,167.15 -21.08,10.14 -41.64,8.65 -62.47,12.97l-65.99 -74.64c8.86,49.48 19.92,136.16 31.24,246.42 -24.44,5.87 -54.08,20.02 -125.34,23.98 -55.06,3.06 -69.46,-7.82 -108.77,-13.61 -4.01,-169.54 -4.86,-245.09 -4.86,-245.09l-102.08 38.26 -204.93 -65.52z"/>
   <path class="fil10" d="M1742.15 408.31l-11.01 -6.87 21.87 259.11 20.38 -5.82c0,0 -22.99,-223.73 -31.24,-246.42z"/>
   <path class="fil11" d="M1572.63 233.1l-23.29 -38.4c0,0 36.27,-11.91 81.01,-20.16 26.69,-4.93 49,22.51 46.8,49.56 -1.4,17.18 -9.32,31.34 -22.3,65.34l-44.7 -13.5 -37.52 -42.83z"/>
   <path class="fil12" d="M1615.49 301.47l0 0c3.84,-4 2.05,-10.77 -3.32,-12.16 -1.83,-0.47 -3.77,-0.53 -5.72,-0.12l-21.12 4.48 -25.54 -26.42 16.51 -43.91c0,0 13.32,29.92 46.83,30.7l8.55 -23.08c0,0 22.36,7.97 14.65,32.92 0,-0 -3.13,22.11 12.31,24.82l-24.21 48.41 -18.94 -35.63z"/>
   <path class="fil10" d="M1831.86 1319.19c1.17,16.77 2.34,33.78 3.45,50.09 1.53,22.52 -30.21,29.02 -37.58,7.69 -6.28,-18.18 -12.64,-38.14 -19.02,-59.39l53.16 1.61z"/>
   <path class="fil13" d="M1570.57 1371.97c-1.3,-19.02 -2.65,-39.9 -3.94,-60.79l53.03 1.6c-3.61,22.74 -7.24,43.32 -10.78,61.51 -4.33,22.25 -36.76,20.29 -38.3,-2.33z"/>
   <path class="fil11" d="M1619.66 1312.78l-24.13 -0.73 54.45 -587.98 158.85 594.42 -30.13 -0.91c-61.73,-205.62 -124.7,-531.64 -124.7,-531.64 3.31,219.95 -15.01,404.81 -34.35,526.84z"/>
   <polygon class="fil10" points="1731.14,401.43 1728.02,379.41 1808.14,482.94 "/>
   <path class="fil14" d="M1599.83 290.59l0 0 6.62 -1.41c1.95,-0.41 3.89,-0.35 5.72,0.12 5.37,1.39 7.16,8.16 3.32,12.16l18.94 35.63 -5.43 -45.32c-2.54,-4.8 -8.11,-7.18 -13.34,-5.69l-15.83 4.51z"/>
   <path class="fil10" d="M1589.88 1389.93c8.46,0.03 16.93,-5.02 18.99,-15.64 3.54,-18.2 7.18,-38.77 10.78,-61.51l-24.13 -0.73 -5.64 77.88z"/>
   <path class="fil13" d="M1778.71 1317.58c6.38,21.24 12.74,41.2 19.02,59.39 3.29,9.53 11.44,13.47 19.32,12.95l-8.22 -71.43 -30.13 -0.91z"/>
   <path class="fil15" d="M1808.16 482.86c0,0 -43.78,198.75 -45.84,210.43l-0.97 5.5c-2.96,15.5 8.23,17.7 13.45,10.65 0,0 8.39,-10.6 14.85,-20.59 76.86,-118.83 80.96,-218.89 80.96,-218.89l-62.44 12.89z"/>
   <path class="fil10" d="M1538.7 415.68l-108.16 32.88 -211.56 -68.92c-0.46,5.17 2.17,10.57 8.43,13.11l204.93 65.52 102.08 -38.26c0,0 0.85,75.55 4.86,245.09 14.95,2.2 26.3,5.14 37.65,7.76 0,-0 -16.27,-37.07 -25.36,-109.1 -4.61,-36.53 -12.87,-148.07 -12.87,-148.07z"/>
   <path class="fil12" d="M1269.85 372.05l0 0 -32.04 -4.39c-19.91,-3.24 -25.32,19.03 -10.39,25.09l40.67 13 1.76 -33.71z"/>
   <path class="fil14" d="M1268.61 395.81l-49.63 -16.17c-0.46,5.17 2.17,10.57 8.43,13.11l40.67 13 0.52 -9.94z"/>
   <polygon class="fil16" points="1272.45,407.14 1267.98,405.76 1269.85,372.05 1274.4,372.67 "/>
   <polygon class="fil17" points="1268.61,395.81 1273,397.25 1272.45,407.14 1268.09,405.76 "/>
   <path class="fil10" d="M1774.8 709.45c-4.27,5.77 -12.41,5.2 -13.66,-3.65 61.9,-70.19 109.47,-235.83 109.47,-235.83 0,-0 -4.1,100.06 -80.96,218.89 -6.46,9.99 -14.85,20.59 -14.85,20.59z"/>
   <path class="fil12" d="M1762.32 693.29c0.34,-1.91 1.81,-8.91 4.01,-19.16 0,0.01 4.29,11.21 22.67,15.71 -6.36,9.69 -14.2,19.61 -14.2,19.61 -5.21,7.04 -16.4,4.85 -13.45,-10.65l0.97 -5.51z"/>
   <path class="fil14" d="M1771.99 711.96c-0.47,0.29 -0.94,0.54 -1.43,0.73 -0.38,0.14 -0.76,0.25 -1.14,0.33 -0.34,0.07 -0.68,0.1 -1.03,0.13 -0.5,0.03 -1,0.05 -1.48,-0.04 -0.09,-0.01 -0.18,-0.06 -0.27,-0.07 -2.64,-0.6 -4.9,-2.91 -5.51,-7.23 5.47,-6.2 10.81,-13.17 16.03,-20.67 3.08,1.81 6.92,3.5 11.83,4.7l-0.02 0.03c-6.36,9.69 -14.19,19.58 -14.19,19.58 -0.6,0.81 -1.29,1.46 -2.02,2.02 -0.25,0.19 -0.53,0.33 -0.79,0.49z"/>
   <path class="fil16" d="M1762.4 658.21c0,0 3.94,36.66 16.44,50.61l3.87 39.51 -30.45 -42.24 10.14 -47.89z"/>
   <polygon class="fil11" points="1770.66,694.13 1765.22,724.07 1782.71,748.34 1778.84,708.82 "/>
   <path class="fil16" d="M1767.01 670.93c0,0 3.83,6.88 12.43,10.93l-2.27 3.28c0,0 -8.33,-4.73 -10.84,-11.01l0.68 -3.2z"/>
   <path class="fil17" d="M1779.44 681.86c0,0 5.72,2.8 11.65,4.77l-2.09 3.21c0,0 -7.8,-1.91 -11.83,-4.7l2.27 -3.28z"/>
   <path class="fil1" d="M1634.25 350.38c0,0 -26.66,178.59 -120.45,273.02l1.27 22.97 24.08 -2.34c0,0 81.85,-67.98 95.1,-293.65z"/>
   <path class="fil2" d="M1333.31 1203.27l172.33 0c10.04,0 18.25,-8.22 18.25,-18.25 0,-10.04 -8.21,-18.25 -18.25,-18.25l-172.33 -0c-10.04,0 -18.25,8.22 -18.25,18.25 0,10.04 8.22,18.25 18.25,18.25z"/>
   <polygon class="fil18" points="1335.39,1203.27 1420.02,1203.27 1420.02,1166.77 1335.39,1166.77 "/>
   <polygon class="fil18" points="1424.27,1203.27 1430.95,1203.27 1430.95,1166.77 1424.27,1166.77 "/>
   <polygon class="fil18" points="1435.26,1203.27 1438.87,1203.27 1438.87,1166.77 1435.26,1166.77 "/>
   <path class="fil19" d="M1507.36 1203.19c-0.57,-0.05 -1.14,-0.08 -1.72,-0.08l-66.77 0 0 -18.09 85.02 0c0,9.46 -7.29,17.29 -16.53,18.17zm-72.1 -0.08l-4.31 0 0 -18.09 4.31 0 0 18.09zm-10.99 0l-4.25 0 0 -18.09 4.25 0 0 18.09zm-88.88 -2.19l-2.47 -1.85c-2.37,-2.41 -5.45,-3.7 -9.27,-3.7 -0.47,0 -0.95,0.02 -1.45,0.06 -1.12,0.09 -2.27,0.28 -3.46,0.57 -2.31,-3.06 -3.69,-6.86 -3.69,-10.97l20.34 0 0 15.9z"/>
   <polygon class="fil2" points="1420.02,1203.11 1338.3,1203.11 1335.39,1200.92 1335.39,1185.02 1420.02,1185.02 "/>
   <polygon class="fil2" points="1430.95,1203.11 1424.27,1203.11 1424.27,1185.02 1430.95,1185.02 "/>
   <polygon class="fil2" points="1438.87,1203.11 1435.26,1203.11 1435.26,1185.02 1438.87,1185.02 "/>
   <path class="fil2" d="M1333.31 1239.61l172.33 0c10.04,0 18.25,-8.22 18.25,-18.25 0,-10.04 -8.21,-18.25 -18.25,-18.25l-172.33 0c-10.04,0 -18.25,8.22 -18.25,18.25 0,10.04 8.22,18.25 18.25,18.25z"/>
   <polygon class="fil18" points="1335.39,1239.61 1420.02,1239.61 1420.02,1203.11 1335.39,1203.11 "/>
   <polygon class="fil18" points="1424.27,1239.61 1430.95,1239.61 1430.95,1203.11 1424.27,1203.11 "/>
   <polygon class="fil18" points="1435.26,1239.61 1438.87,1239.61 1438.87,1203.11 1435.26,1203.11 "/>
   <path class="fil19" d="M1507.37 1239.53c-0.57,-0.06 -1.14,-0.09 -1.73,-0.09l-66.77 0 0 -18.09 85.02 0c0,9.46 -7.29,17.29 -16.53,18.17zm-72.1 -0.09l-4.31 0 0 -18.09 4.31 0 0 18.09zm-10.99 0l-4.25 0 0 -18.09 4.25 0 0 18.09z"/>
   <path class="fil2" d="M1420.02 1239.45l-57.3 0c-3.28,-11.26 -6.82,-17.66 -7.05,-18.06 0,-0.01 0,-0.02 -0.01,-0.02l64.36 0 0 18.09z"/>
   <polygon class="fil2" points="1430.95,1239.45 1424.27,1239.45 1424.27,1221.36 1430.95,1221.36 "/>
   <polygon class="fil2" points="1438.87,1239.45 1435.26,1239.45 1435.26,1221.36 1438.87,1221.36 "/>
   <path class="fil2" d="M1333.31 1275.95l172.33 0c10.04,0 18.25,-8.22 18.25,-18.25l0 -0c0,-10.04 -8.21,-18.25 -18.25,-18.25l-172.33 0c-10.04,0 -18.25,8.22 -18.25,18.25l0 -0c0,10.04 8.22,18.25 18.25,18.25z"/>
   <polygon class="fil18" points="1335.39,1275.95 1420.02,1275.95 1420.02,1239.45 1335.39,1239.45 "/>
   <polygon class="fil18" points="1424.27,1275.95 1430.95,1275.95 1430.95,1239.45 1424.27,1239.45 "/>
   <polygon class="fil18" points="1435.26,1275.95 1438.87,1275.95 1438.87,1239.45 1435.26,1239.45 "/>
   <path class="fil19" d="M1507.37 1275.87c-0.57,-0.06 -1.14,-0.08 -1.73,-0.08l-66.77 -0 0 -18.09 85.02 0c0,9.46 -7.29,17.29 -16.53,18.17zm-72.1 -0.08l-4.31 0 0 -18.09 4.31 0 0 18.09zm-10.99 0l-4.25 0 0 -18.09 4.25 0 0 18.09z"/>
   <path class="fil2" d="M1420.02 1275.79l-51.73 0c-0.19,-6.55 -0.78,-12.6 -1.6,-18.09l53.32 -0 0 18.09z"/>
   <polygon class="fil2" points="1430.95,1275.79 1424.27,1275.79 1424.27,1257.7 1430.95,1257.7 "/>
   <polygon class="fil2" points="1438.87,1275.79 1435.26,1275.79 1435.26,1257.7 1438.87,1257.7 "/>
   <path class="fil2" d="M1333.31 1312.29l172.33 0c10.04,0 18.25,-8.21 18.25,-18.25 0,-10.04 -8.21,-18.25 -18.25,-18.25l-172.33 -0c-10.04,0 -18.25,8.21 -18.25,18.25 0,10.04 8.22,18.25 18.25,18.25z"/>
   <polygon class="fil18" points="1335.39,1312.29 1420.02,1312.29 1420.02,1275.79 1335.39,1275.79 "/>
   <polygon class="fil18" points="1424.27,1312.29 1430.95,1312.29 1430.95,1275.79 1424.27,1275.79 "/>
   <polygon class="fil18" points="1435.26,1312.29 1438.87,1312.29 1438.87,1275.79 1435.26,1275.79 "/>
   <path class="fil19" d="M1508.27 1312.1c-0.86,-0.13 -1.73,-0.19 -2.63,-0.19l-66.77 -0 0 -17.87 85.02 0c0,9.15 -6.82,16.78 -15.62,18.06zm-73 -0.19l-4.31 0 0 -17.87 4.31 0 0 17.87zm-10.99 0l-4.25 0 0 -17.87 4.25 0 0 17.87z"/>
   <path class="fil2" d="M1420.02 1311.91l-54.75 0c1.2,-6.21 2,-12.18 2.49,-17.87l52.26 -0 0 17.87z"/>
   <polygon class="fil2" points="1430.95,1311.91 1424.27,1311.91 1424.27,1294.04 1430.95,1294.04 "/>
   <polygon class="fil2" points="1438.87,1311.91 1435.26,1311.91 1435.26,1294.04 1438.87,1294.04 "/>
   <path class="fil2" d="M1333.31 1348.41l172.33 0c10.04,0 18.25,-8.21 18.25,-18.25 0,-10.04 -8.21,-18.25 -18.25,-18.25l-172.33 -0c-10.04,0 -18.25,8.21 -18.25,18.25 0,10.04 8.22,18.25 18.25,18.25z"/>
   <polygon class="fil18" points="1335.39,1348.41 1420.02,1348.41 1420.02,1311.91 1335.39,1311.91 "/>
   <polygon class="fil18" points="1424.27,1348.41 1430.95,1348.41 1430.95,1311.91 1424.27,1311.91 "/>
   <polygon class="fil18" points="1435.26,1348.41 1438.87,1348.41 1438.87,1311.91 1435.26,1311.91 "/>
   <path class="fil19" d="M1507.36 1348.33c-0.57,-0.05 -1.14,-0.08 -1.72,-0.08l-66.77 0 0 -18.09 85.02 0c0,9.46 -7.29,17.29 -16.53,18.17zm-175.77 -0c-6.56,-0.62 -12.14,-4.75 -14.83,-10.48 2.69,5.74 8.3,9.88 14.89,10.47 -0.02,-0 -0.05,0.01 -0.06,0.01zm103.67 -0.08l-4.31 0 0 -18.09 4.31 0 0 18.09zm-10.99 0l-4.25 0 0 -18.09 4.25 0 0 18.09z"/>
   <path class="fil2" d="M1420.02 1348.25l-65.69 0c2.54,-6.2 4.66,-12.23 6.43,-18.09l59.26 0 0 18.09z"/>
   <polygon class="fil2" points="1430.95,1348.25 1424.27,1348.25 1424.27,1330.16 1430.95,1330.16 "/>
   <polygon class="fil2" points="1438.87,1348.25 1435.26,1348.25 1435.26,1330.16 1438.87,1330.16 "/>
   <path class="fil2" d="M1333.31 1384.75l172.33 0c10.04,0 18.25,-8.21 18.25,-18.25 0,-10.04 -8.21,-18.25 -18.25,-18.25l-172.33 0c-10.04,0 -18.25,8.21 -18.25,18.25 0,10.04 8.22,18.25 18.25,18.25z"/>
   <polygon class="fil18" points="1335.39,1384.75 1420.02,1384.75 1420.02,1348.25 1335.39,1348.25 "/>
   <polygon class="fil18" points="1424.27,1384.75 1430.95,1384.75 1430.95,1348.25 1424.27,1348.25 "/>
   <polygon class="fil18" points="1435.26,1384.75 1438.87,1384.75 1438.87,1348.25 1435.26,1348.25 "/>
   <path class="fil19" d="M1505.64 1384.75l-66.77 0 0 -18.25 85.02 0c0,10.04 -8.21,18.25 -18.25,18.25zm-70.38 0l-4.31 0 0 -18.25 4.31 0 0 18.25zm-10.99 0l-4.25 0 0 -18.25 4.25 0 0 18.25zm-90.97 0c-0.02,0 -0.05,0 -0.07,0 0.02,0 0.05,0 0.07,0zm-0.09 0c-0.01,0 -0.03,0 -0.04,0 0.01,0 0.03,0 0.04,0zm-0.07 0c-0.02,0 -0.03,0 -0.05,0 0.02,0 0.03,0 0.05,0zm-0.06 0c-0.02,0 -0.04,0 -0.06,0 0.02,0 0.04,0 0.06,0zm-0.07 0c-0.02,0 -0.04,0 -0.06,0 0.02,0 0.04,0 0.06,0zm-0.08 0c-0.02,0 -0.04,0 -0.05,0 0.02,0 0.03,0 0.05,0zm-0.07 -0.01c-0.02,0 -0.04,0 -0.05,0 0.02,0 0.03,0 0.05,0zm-0.07 0c-0.05,0 -0.09,0 -0.14,-0.01 0.05,0.01 0.09,0.01 0.14,0.01zm-0.16 -0.01c-0.02,0 -0.03,0 -0.05,0 0.02,-0 0.03,0 0.05,0zm-0.07 -0c-0.02,0 -0.04,0 -0.06,-0.01 0.02,0.01 0.04,0.01 0.06,0.01zm-0.07 -0.01c-0.05,0 -0.09,0 -0.14,-0.01 0.05,0.01 0.09,0.01 0.14,0.01zm-0.14 -0.01c-0.02,0 -0.05,0 -0.06,-0.01 0.02,0.01 0.04,0.01 0.06,0.01zm-0.07 -0.01c-0.02,0 -0.04,0 -0.06,0 0.02,-0 0.04,0 0.06,0zm-0.07 -0c-0.05,-0.01 -0.1,-0.01 -0.14,-0.01 0.05,0.01 0.1,0.01 0.14,0.01zm-0.14 -0.01c-0.02,0 -0.05,-0.01 -0.07,-0.01 0.03,0 0.05,0.01 0.07,0.01zm-0.07 -0.01c-9.41,-0.68 -16.9,-8.57 -16.94,-18.14 0.01,1.23 0.13,2.44 0.37,3.61 1.1,5.33 4.55,9.84 9.2,12.37 2.22,1.21 4.72,1.98 7.37,2.16z"/>
   <path class="fil2" d="M1420.02 1384.75l-84.63 0c3.9,-6.2 7.38,-12.28 10.48,-18.25l74.15 -0 0 18.25z"/>
   <polygon class="fil2" points="1430.95,1384.75 1424.27,1384.75 1424.27,1366.5 1430.95,1366.5 "/>
   <polygon class="fil2" points="1438.87,1384.75 1435.26,1384.75 1435.26,1366.5 1438.87,1366.5 "/>
   <path class="fil20" d="M1333.24 1384.75c-0.01,0 -0.01,0 -0.02,0 0.01,0 0.02,0 0.02,0zm-0.06 0c-0.01,0 -0.02,0 -0.03,0 0.01,0 0.02,0 0.03,0zm-0.07 0c-0.01,0 -0.01,0 -0.02,0 0.01,0 0.01,0 0.02,0zm-0.08 0c-0.01,0 -0.01,0 -0.01,0 0,0 0.01,0 0.01,0zm-0.07 0c-0.01,0 -0.01,0 -0.02,0 0.01,0 0.01,0 0.02,0zm-0.07 0c-0.01,-0.01 -0.01,-0.01 -0.02,-0.01 0.01,0 0.01,0 0.02,0.01zm-0.07 -0.01c-0.01,0 -0.01,0 -0.02,0 0.01,0 0.01,0 0.02,0zm-0.15 -0.01c-0.01,0 -0.01,0 -0.02,0 0.01,-0 0.01,0 0.02,0zm-0.07 -0c-0.01,0 -0.01,0 -0.02,0 0.01,-0 0.01,0 0.02,0zm-0.07 -0.01c-0.01,0 -0.01,0 -0.01,0 0.01,-0 0.01,0 0.01,0zm-0.15 -0.01c-0.01,0 -0.01,0 -0.01,0 0,-0 0.01,0 0.01,0zm-0.07 -0.01c-0.01,0 -0.01,0 -0.01,0 0.01,-0 0.01,0 0.01,0zm-0.07 -0c0,0 -0.01,0 -0.01,0 0,-0 0.01,0 0.01,0zm-0.15 -0.01c0,0 0,0 0,0zm-0.07 -0.01c0,0 -0,0 -0,0l0 0zm-16.94 -18.14c0,-0.02 0,-0.04 0,-0.06l0 -0c0,0.02 0,0.04 0,0.06zm0 -0.17c0,0 0,-0.01 0,-0.01 0,-0 0,0.01 0,0.01zm0.01 -0.11c0,0 -0,-0.01 -0,-0.01 0,0.01 0,0.01 0,0.01zm0 -0.11c0,-0.01 -0,-0.01 -0,-0.01 0,-0 0,0.01 0,0.01zm0 -0.12c0,0 -0,-0.01 -0,-0.01 0,0.01 0,0.01 0,0.01zm0.01 -0.11c0,-0.01 -0,-0.01 -0,-0.01 0,0.01 0,0.01 0,0.01zm0 -0.12c0,0 -0,-0.01 -0,-0.01 0,0 0,0.01 0,0.01zm0.01 -0.11c0,0 -0,-0.01 -0,-0.01 0,0 0,0.01 0,0.01z"/>
   <path class="fil21" d="M1362.72 1239.45l-5.97 0c0.6,-7.14 0.24,-13.25 -1.08,-18.06 0.23,0.41 3.77,6.8 7.05,18.06z"/>
   <path class="fil22" d="M1366.7 1257.7l-13.06 0c1.61,-6.61 2.65,-12.74 3.11,-18.25l5.97 0c1.49,5.11 2.93,11.24 3.98,18.25z"/>
   <path class="fil21" d="M1368.3 1275.79l-20.08 0c0.2,-0.56 0.38,-1.1 0.57,-1.65 0.15,-0.43 0.3,-0.87 0.45,-1.3 0.36,-1.09 0.72,-2.16 1.06,-3.23 0.06,-0.18 0.12,-0.36 0.18,-0.54l0 -0.01c1.14,-3.61 2.11,-7.1 2.96,-10.48l0.01 -0.01c0.07,-0.29 0.14,-0.58 0.21,-0.87l13.06 -0c0.82,5.49 1.41,11.54 1.6,18.09z"/>
   <path class="fil22" d="M1367.77 1294.04l-26.84 0c0.38,-0.86 0.75,-1.72 1.13,-2.58 0.18,-0.41 0.35,-0.82 0.53,-1.23 0.42,-1 0.84,-1.99 1.24,-2.97 0.18,-0.42 0.35,-0.84 0.52,-1.26 0.51,-1.24 0.99,-2.48 1.47,-3.7 0.04,-0.1 0.08,-0.21 0.12,-0.31 0.5,-1.3 0.98,-2.59 1.45,-3.88 0.15,-0.43 0.3,-0.84 0.45,-1.27 0.13,-0.34 0.25,-0.69 0.37,-1.03l20.09 -0c0.16,5.71 0.02,11.81 -0.53,18.25z"/>
   <path class="fil23" d="M1332.2 1311.95c0.02,-0.05 0.05,-0.1 0.07,-0.14 1.06,-1.99 2.1,-4.01 3.12,-6.04l0 6.15 -2.09 0c-0.37,0 -0.74,0.01 -1.11,0.03z"/>
   <path class="fil21" d="M1365.28 1311.91l-29.88 0 0 -6.15c0.92,-1.84 1.82,-3.69 2.71,-5.55 0.72,-1.53 1.43,-3.07 2.13,-4.61 0.24,-0.52 0.47,-1.04 0.7,-1.57l26.84 -0c-0.49,5.69 -1.29,11.66 -2.49,17.87z"/>
   <path class="fil24" d="M1335.39 1330.16l-13.72 0c0.2,-0.31 0.38,-0.62 0.58,-0.94 1.13,-1.8 2.24,-3.63 3.34,-5.49 1.34,-2.26 2.66,-4.55 3.95,-6.88 0.9,-1.63 1.79,-3.26 2.66,-4.91 0.37,-0.02 0.73,-0.03 1.11,-0.03l2.09 -0 29.88 0 -29.88 0 0 18.25z"/>
   <path class="fil22" d="M1360.77 1330.16l-25.37 0 0 -18.25 29.88 0c-1.13,5.87 -2.62,11.96 -4.51,18.25z"/>
   <path class="fil23" d="M1331.65 1348.32c-6.58,-0.6 -12.2,-4.73 -14.89,-10.47 1.53,-2.34 3.14,-4.86 4.9,-7.69l13.72 0 0 18.09 -2.09 0c-0.56,0 -1.11,0.02 -1.65,0.07z"/>
   <path class="fil21" d="M1354.33 1348.25l-18.94 0 0 -18.09 25.37 0c-1.77,5.86 -3.89,11.89 -6.43,18.09z"/>
   <path class="fil24" d="M1335.39 1366.5l-20.34 0c0,-0.03 0,-0.07 0,-0.11 0,-0 0,-0.01 0,-0.01 0,-0.03 0,-0.07 0.01,-0.1 0,-0 0,-0.01 0,-0.01 0,-0.03 0,-0.06 0,-0.1 0,-0.01 0,-0.01 0,-0.01 0,-0.03 0,-0.07 0,-0.1 0,-0 0,-0.01 0,-0.01 0,-0.03 0.01,-0.06 0.01,-0.1 0,-0.01 0,-0.01 0,-0.01 0,-0.03 0,-0.07 0,-0.1 0,0 0,-0.01 0,-0.01 0.01,-0.03 0.01,-0.07 0.01,-0.1 0,-0 0,-0.01 0,-0.01 0.39,-9.15 7.6,-16.6 16.64,-17.39 -0.02,-0 -0.04,-0.01 -0.06,-0.01 0.55,-0.05 1.1,-0.07 1.65,-0.07l2.09 0 18.94 0 -18.94 0 0 18.25z"/>
   <path class="fil22" d="M1345.87 1366.5l-10.48 0 0 -18.25 18.94 0c-2.43,5.94 -5.24,12.03 -8.46,18.25z"/>
   <path class="fil23" d="M1335.39 1384.75l-2.09 0c-0.02,0 -0.05,0 -0.07,0 -0.01,0 -0.01,0 -0.02,0 -0.01,0 -0.03,0 -0.04,0 -0.01,0 -0.02,0 -0.03,0 -0.02,0 -0.03,0 -0.05,0 -0.01,0 -0.01,0 -0.02,0 -0.02,0 -0.04,0 -0.06,0 -0,0 -0.01,0 -0.01,0 -0.02,0 -0.04,0 -0.06,0 -0,0 -0.01,0 -0.02,0 -0.02,0 -0.03,0 -0.05,0 -0.01,-0.01 -0.01,-0.01 -0.02,-0.01 -0.02,0 -0.03,0 -0.05,0 -0.01,0 -0.01,0 -0.02,0 -0.05,0 -0.09,0 -0.14,-0.01 -0.01,-0 -0.01,0 -0.02,0 -0.02,-0 -0.03,0 -0.05,0 -0,-0 -0.01,0 -0.02,0 -0.02,-0 -0.04,0 -0.06,-0.01 -0.01,-0 -0.01,0 -0.01,0 -0.05,-0 -0.09,0 -0.14,-0.01 0,-0 -0.01,0 -0.01,0 -0.02,-0 -0.04,0 -0.06,-0.01 -0.01,-0 -0.01,0 -0.01,0 -0.02,-0 -0.04,0 -0.06,0 0,-0 -0.01,0 -0.01,0 -0.05,-0.01 -0.1,-0.01 -0.14,-0.01 -0.02,-0 -0.05,-0.01 -0.07,-0.01l0 0c-2.65,-0.19 -5.15,-0.95 -7.37,-2.16 -4.65,-2.54 -8.1,-7.04 -9.2,-12.37 -0.24,-1.17 -0.37,-2.37 -0.37,-3.61 0,-0.02 0,-0.04 0,-0.06l0 -0 20.34 0 0 18.25z"/>
   <path class="fil21" d="M1335.39 1384.75l0 0 0 -18.25 10.48 0c-3.1,5.97 -6.58,12.05 -10.48,18.25z"/>
   <path class="fil2" d="M1349.88 1211.82l0 0 -0.07 -0.05c-0.14,-0.11 -0.28,-0.22 -0.43,-0.32l-19.37 -14.58 -3.19 17.45c-21.46,12.62 -48.68,47.57 -66.83,87.74 -2.16,4.79 -4.11,9.47 -5.86,14.04l0 0.01c-1.89,4.93 -3.52,9.7 -4.92,14.29 -0.02,0.07 -0.05,0.14 -0.06,0.21 -1.68,5.55 -3.01,10.82 -3.98,15.76 -0.02,0.08 -0.03,0.15 -0.05,0.23 -0.18,0.93 -0.34,1.85 -0.5,2.76 -0.02,0.1 -0.03,0.21 -0.06,0.3 -0.63,3.73 -1.04,7.26 -1.24,10.54 -0.01,0.12 -0.02,0.25 -0.02,0.37l-0 0.09c-2.76,0.49 -4.67,0.84 -4.67,0.84l-5.04 11.43c0,0 23.63,11.25 23.82,11.31 0.34,0.09 0.69,0.18 1.05,0.25 0.2,0.03 0.41,0.07 0.61,0.1 0.39,0.06 0.79,0.09 1.19,0.12 0.19,0.01 0.37,0.03 0.56,0.03 0.6,0.02 1.22,0.01 1.85,-0.05 5.54,-0.45 11.95,-3.38 18.79,-8.28 1.02,-0.74 2.06,-1.53 3.1,-2.35 1.38,-1.09 2.78,-2.26 4.19,-3.5 0.4,-0.36 0.81,-0.71 1.21,-1.08 3,-2.71 6.04,-5.74 9.1,-9.04 1.68,-1.82 3.36,-3.71 5.05,-5.7 7.2,-8.45 11.39,-14.7 18.13,-25.53 1.13,-1.8 2.24,-3.63 3.34,-5.49 1.34,-2.26 2.66,-4.55 3.95,-6.88 0.93,-1.67 1.84,-3.35 2.74,-5.05 2.02,-3.8 3.96,-7.66 5.83,-11.59 0.72,-1.53 1.43,-3.07 2.13,-4.61 0.63,-1.39 1.23,-2.77 1.83,-4.15 0.18,-0.41 0.35,-0.82 0.53,-1.23 0.42,-1 0.84,-1.99 1.24,-2.97 0.18,-0.42 0.35,-0.84 0.52,-1.26 0.51,-1.24 0.99,-2.48 1.47,-3.7 0.04,-0.1 0.08,-0.21 0.12,-0.31 0.5,-1.3 0.98,-2.59 1.45,-3.88 0.15,-0.43 0.3,-0.84 0.45,-1.27 0.32,-0.9 0.64,-1.8 0.94,-2.69 0.15,-0.43 0.3,-0.87 0.45,-1.3 0.36,-1.09 0.72,-2.16 1.06,-3.23 0.06,-0.18 0.12,-0.36 0.18,-0.54l0 -0.01c1.14,-3.61 2.11,-7.1 2.96,-10.48l0.01 -0.01c5.79,-23.21 4.62,-40.52 -3.55,-46.75z"/>
   <path class="fil0" d="M1332.15 1255.13l-12.73 6.03 -25.56 47.92c0,0 -27.67,22.97 -49.34,40.9 -0.6,3.62 -1,7.04 -1.19,10.24 -0.01,0.12 -0.02,0.25 -0.02,0.37l-0 0.09c-2.76,0.49 -4.67,0.84 -4.67,0.84l-5.04 11.43c0,0 23.63,11.25 23.82,11.31 0.34,0.09 0.69,0.18 1.05,0.25 0.2,0.03 0.41,0.07 0.61,0.1 0.39,0.06 0.79,0.09 1.19,0.12 0.19,0.01 0.37,0.03 0.56,0.03 0.6,0.02 1.22,0.01 1.85,-0.05 5.54,-0.45 11.95,-3.38 18.79,-8.28 1.02,-0.74 2.06,-1.53 3.1,-2.35 1.38,-1.09 2.78,-2.26 4.19,-3.5 0.4,-0.36 0.81,-0.71 1.21,-1.08 3,-2.71 6.04,-5.74 9.1,-9.04 1.68,-1.82 3.36,-3.71 5.05,-5.7 7.2,-8.45 11.39,-14.7 18.13,-25.53 1.13,-1.8 2.24,-3.63 3.34,-5.49 1.34,-2.26 2.66,-4.55 3.95,-6.88 0.93,-1.67 1.84,-3.35 2.74,-5.05 2.02,-3.8 3.96,-7.66 5.83,-11.59 0.72,-1.53 1.43,-3.07 2.13,-4.61 0.63,-1.39 1.23,-2.77 1.83,-4.15 0.18,-0.41 0.35,-0.82 0.53,-1.23 0.42,-1 0.84,-1.99 1.24,-2.97 0.18,-0.42 0.35,-0.84 0.52,-1.26 0.51,-1.24 0.99,-2.48 1.47,-3.7 0.04,-0.1 0.08,-0.21 0.12,-0.31 0.5,-1.3 0.98,-2.59 1.45,-3.88 0.15,-0.43 0.3,-0.84 0.45,-1.27 0.32,-0.9 0.64,-1.8 0.94,-2.69 0.15,-0.43 0.3,-0.87 0.45,-1.3 0.36,-1.09 0.72,-2.16 1.06,-3.23 0.06,-0.18 0.12,-0.36 0.18,-0.54l0 -0.01c0.18,-0.58 0.33,-1.14 0.51,-1.71l-18.83 -12.22z"/>
   <path class="fil2" d="M1321.91 1281.67c-22.32,49.42 -58.37,90.93 -80.53,92.71 -22.16,1.78 -22.02,-36.83 0.29,-86.25 22.32,-49.41 58.37,-90.92 80.53,-92.7 22.16,-1.79 22.02,36.83 -0.29,86.24z"/>
   <path class="fil25" d="M1321.24 1207.03c-1.27,-0.3 -2.65,-0.39 -4.16,-0.27 -19.32,1.56 -50.87,37.88 -70.32,80.96 -9.43,20.87 -14.65,40.2 -14.69,54.42 -0.05,14.22 5.08,21.63 14.43,20.89 9.36,-0.75 21.82,-9.59 35.11,-24.88 13.28,-15.29 25.79,-35.21 35.21,-56.08 17.94,-39.73 19.44,-71.55 4.42,-75.04zm-80.34 158.5c-6.92,-1.61 -10.64,-9 -10.6,-21.35 0.05,-14.73 5.45,-34.74 15.22,-56.36 20.15,-44.61 52.81,-82.22 72.82,-83.83 20,-1.59 19.89,33.38 -0.26,77.99 -9.76,21.61 -22.71,42.23 -36.47,58.07 -13.75,15.84 -26.66,24.99 -36.35,25.77 -1.57,0.12 -3.02,0.03 -4.35,-0.28z"/>
   <path class="fil25" d="M1276.02 1305.72c1.5,-3.32 2.38,-5.91 2.63,-7.79 0.25,-1.87 0.06,-3.59 -0.57,-5.16 -1.52,-2.5 -2.37,-4.95 -2.56,-7.34 -0.19,-2.39 0.12,-5.18 0.93,-8.34 0.81,-3.17 2.22,-6.98 4.22,-11.41 3,-6.64 6.3,-12.2 9.92,-16.67 3.61,-4.47 6.95,-7.22 10.02,-8.23l5.8 -12.84 4.06 -0.33 -5.91 13.08c2.17,0.94 2.89,3.82 2.16,8.62 -0.72,4.8 -2.8,10.98 -6.21,18.53l-7.61 0.61c2.16,-4.8 3.47,-8.35 3.92,-10.66 0.45,-2.31 0.18,-3.43 -0.81,-3.35 -0.95,0.07 -2.11,1.06 -3.48,2.94 -1.37,1.88 -2.8,4.47 -4.28,7.75 -1.28,2.84 -2.07,5.17 -2.36,7.01 -0.29,1.84 -0.12,3.71 0.52,5.63 1.5,2.81 2.31,5.41 2.45,7.81 0.14,2.4 -0.2,5.15 -1.02,8.26 -0.81,3.11 -2.2,6.83 -4.15,11.14 -3.05,6.76 -6.34,12.33 -9.86,16.7 -3.52,4.37 -6.88,7.09 -10.1,8.15l-5.39 11.94 -4.04 0.32 5.39 -11.94c-2.65,-0.75 -3.71,-3.51 -3.19,-8.27 0.53,-4.76 2.64,-11.22 6.32,-19.38l7.61 -0.61c-2.13,4.72 -3.43,8.33 -3.9,10.81 -0.46,2.49 -0.02,3.67 1.35,3.57 1.09,-0.09 2.36,-1.07 3.8,-2.94 1.44,-1.87 2.88,-4.4 4.33,-7.6z"/>
   <path class="fil26" d="M1240.65 1374.42c0.16,-0.01 0.32,-0.01 0.48,-0.02 -0.16,0.01 -0.32,0.02 -0.48,0.02zm81.33 -92.91c1.63,-3.62 3.15,-7.19 4.54,-10.68 -1.4,3.49 -2.91,7.06 -4.54,10.68zm4.55 -10.7c0.01,-0.03 0.03,-0.07 0.05,-0.11 -0.02,0.04 -0.03,0.08 -0.05,0.12zm0.1 -0.26c0.01,-0.01 0.01,-0.02 0.01,-0.02 -0.01,0.01 -0.01,0.01 -0.01,0.02z"/>
   <path class="fil0" d="M1239.94 1374.44c-16.95,0 -19.59,-25.51 -8,-61.29l4.77 -2.76c-4.15,12.78 -6.37,24.37 -6.41,33.8 -0.04,12.35 3.68,19.75 10.6,21.35 0.95,0.22 1.96,0.33 3.04,0.33 0.43,-0 0.87,-0.02 1.31,-0.05 9.69,-0.78 22.6,-9.93 36.35,-25.77 13.76,-15.84 26.7,-36.45 36.47,-58.07 3.81,-8.43 6.9,-16.52 9.28,-24.07l4.8 -2.78c-1.56,4.94 -3.39,10.09 -5.5,15.4 -0.01,0.01 -0.01,0.02 -0.01,0.02 -0.02,0.05 -0.04,0.1 -0.06,0.15 -0.02,0.04 -0.03,0.08 -0.05,0.12 -0.01,0.01 -0.01,0.01 -0.01,0.02 -1.4,3.49 -2.91,7.06 -4.54,10.68 -0.02,0.05 -0.05,0.11 -0.07,0.16l0 -0c-21.79,48.26 -56.69,88.97 -78.95,92.52 -0.53,0.09 -1.06,0.15 -1.58,0.2l0 -0c-0.09,0.01 -0.17,0.01 -0.25,0.02 -0.16,0.01 -0.32,0.02 -0.48,0.02 -0.24,0.01 -0.48,0.02 -0.72,0.02zm5.31 -11.35c-8.55,0 -13.22,-7.37 -13.17,-20.94 0.03,-9.11 2.18,-20.31 6.19,-32.66l37.63 -21.79c0.41,1.67 1.14,3.36 2.19,5.08 0.64,1.57 0.83,3.28 0.57,5.16 -0.26,1.87 -1.14,4.47 -2.64,7.79 -1.45,3.2 -2.89,5.74 -4.33,7.6 -1.44,1.87 -2.71,2.85 -3.8,2.94 -0.06,0.01 -0.12,0.01 -0.17,0.01 -1.23,-0 -1.62,-1.19 -1.18,-3.57 0.47,-2.48 1.77,-6.09 3.9,-10.81l-7.61 0.61c-3.69,8.16 -5.79,14.62 -6.32,19.38 -0.52,4.77 0.54,7.52 3.19,8.27l-5.39 11.94 4.04 -0.32 5.39 -11.94c3.22,-1.07 6.58,-3.78 10.1,-8.15 3.52,-4.37 6.8,-9.93 9.86,-16.7 1.95,-4.32 3.34,-8.03 4.15,-11.14 0.82,-3.11 1.16,-5.86 1.02,-8.26 -0.08,-1.51 -0.44,-3.1 -1.06,-4.77l37.99 -22c-2.3,7.31 -5.29,15.12 -8.97,23.27 -9.42,20.87 -21.93,40.79 -35.21,56.08 -13.29,15.29 -25.75,24.13 -35.11,24.88 -0.43,0.03 -0.85,0.05 -1.26,0.05z"/>
   <path class="fil27" d="M1243.94 1365.87c-1.07,0 -2.09,-0.11 -3.04,-0.33 -6.92,-1.61 -10.64,-9 -10.6,-21.35 0.04,-9.42 2.26,-21.01 6.41,-33.8l1.56 -0.9c-4.01,12.36 -6.17,23.56 -6.2,32.66 -0.05,13.57 4.62,20.94 13.17,20.94 0.41,-0 0.83,-0.02 1.26,-0.05 9.36,-0.75 21.82,-9.59 35.11,-24.88 13.28,-15.29 25.79,-35.21 35.21,-56.08 3.68,-8.15 6.67,-15.96 8.97,-23.27l1.56 -0.9c-2.38,7.56 -5.47,15.65 -9.28,24.08 -9.76,21.61 -22.71,42.23 -36.47,58.07 -13.75,15.84 -26.66,24.99 -36.35,25.77 -0.45,0.03 -0.88,0.05 -1.31,0.05z"/>
   <path class="fil27" d="M1254.3 1342.1l5.39 -11.94c-2.65,-0.75 -3.71,-3.51 -3.19,-8.27 0.53,-4.76 2.64,-11.22 6.32,-19.38l7.61 -0.61c-2.13,4.72 -3.43,8.33 -3.9,10.81 -0.44,2.38 -0.05,3.57 1.18,3.57 0.06,-0 0.11,0 0.17,-0.01 1.09,-0.09 2.36,-1.07 3.8,-2.94 1.44,-1.87 2.88,-4.4 4.33,-7.6 1.5,-3.32 2.38,-5.91 2.64,-7.79 0.25,-1.87 0.06,-3.59 -0.57,-5.16 -1.04,-1.72 -1.77,-3.41 -2.19,-5.08l11.9 -6.89c0.63,1.67 0.98,3.26 1.06,4.77 0.14,2.4 -0.2,5.15 -1.02,8.26 -0.81,3.11 -2.2,6.83 -4.15,11.14 -3.05,6.76 -6.34,12.33 -9.86,16.7 -3.52,4.37 -6.88,7.09 -10.1,8.15l-5.39 11.94 -4.04 0.32z"/>
   <path class="fil28" d="M1234.09 1306.84c0.56,-1.54 1.13,-3.1 1.73,-4.67l4.84 -2.81c-0.62,1.58 -1.21,3.15 -1.77,4.7l-4.8 2.78zm6.37 -3.69c0.56,-1.55 1.16,-3.12 1.78,-4.7l33.81 -19.59c-0.29,1.41 -0.47,2.74 -0.54,3.98l-35.05 20.31z"/>
   <path class="fil27" d="M1238.89 1304.06c0.56,-1.55 1.15,-3.12 1.77,-4.7l1.57 -0.91c-0.62,1.58 -1.22,3.15 -1.78,4.7l-1.56 0.91z"/>
   <path class="fil28" d="M1286.11 1276.7c-0.29,-1.17 -0.4,-2.34 -0.33,-3.48l8.41 -4.87 6.33 -0.51c0.65,-1.45 1.26,-2.86 1.82,-4.21l26.35 -15.27c-0.33,1.41 -0.7,2.85 -1.1,4.31l-41.48 24.03zm43.04 -24.94c0.4,-1.46 0.77,-2.9 1.11,-4.31l4.85 -2.81c-0.36,1.42 -0.74,2.87 -1.15,4.34l-4.81 2.79z"/>
   <path class="fil27" d="M1327.59 1252.66c0.4,-1.46 0.76,-2.89 1.1,-4.31l1.58 -0.91c-0.35,1.41 -0.71,2.85 -1.12,4.31l-1.56 0.9z"/>
   <path class="fil27" d="M1275.51 1282.84c0.07,-1.25 0.25,-2.57 0.54,-3.98l9.73 -5.64c-0.07,1.14 0.04,2.31 0.33,3.48l-10.6 6.14zm18.68 -14.49l8.15 -4.72c-0.56,1.35 -1.17,2.76 -1.82,4.21l-6.33 0.51z"/>
   <polygon class="fil29" points="1333.96,1248.97 1352.47,1262.23 1353.66,1257.66 1335.11,1244.64 "/>
   <g>
    <path class="fil30" d="M8.06 67.91c-5.86,-13.4 12.11,-24.28 21.34,-12.93 116.61,143.24 225.6,237.15 308.34,260.35 7.13,2 13.96,-4.05 13.14,-11.4l-2.17 -19.19c-3.74,-8.9 4.71,-13.8 4.71,-13.8l7.31 10.17c15.7,2.74 28.39,-21.22 28.39,-21.22l2.74 19.28 -13.15 15.4 -6.3 7.37c-2.51,0.28 -5.23,6.7 -5.32,9.22 -0.1,3.2 10.75,22.43 13.91,21.92 11.04,-1.76 36.18,-21.99 67.49,-39.08 29.76,-16.25 61.06,-39.39 61.06,-39.39 16.71,-59.82 32.78,-147.9 50.92,-205.82 3.89,-12.43 22.23,-9.3 21.76,3.71 -5.08,139.64 -12.64,210 -16.45,233.04 -1.25,7.56 -5.09,14.48 -10.83,19.56 -42.86,37.98 -57.59,56.18 -85.6,76.81 -18.43,13.59 -30.39,34.23 -32.79,57l-19.09 181.5c0,0 -42.04,63.85 -198.74,-4.25 1.7,-10.21 2.71,-15.71 2.71,-15.71 13.82,-64.98 20.2,-154.87 22.59,-197.38 0.72,-12.94 -4.3,-25.61 -13.95,-34.26 -111.28,-99.78 -187.83,-222.69 -222.01,-300.92z"/>
    <path id="_1" class="fil31" d="M34.76 50.61l-10.73 8.73 -0 -0 -0.48 -0.54 -0.46 -0.43 -0.45 -0.34 -0.44 -0.27 -0.43 -0.21 -0.43 -0.16 -0.43 -0.12 -0.44 -0.08 -0.46 -0.04 -0.47 0.01 -0.48 0.05 -0.49 0.09 -0.49 0.13 -0.49 0.18 -0.48 0.22 -0.46 0.26 -0.44 0.29 -0.41 0.32 -0.38 0.35 -0.34 0.37 -0.3 0.39 -0.26 0.4 -0.22 0.41 -0.18 0.42 -0.13 0.42 -0.09 0.43 -0.05 0.45 -0.01 0.47 0.04 0.51 0.1 0.55 0.17 0.61 0.26 0.67 -12.67 5.54 -0.7 -1.83 -0.52 -1.86 -0.34 -1.86 -0.15 -1.86 0.03 -1.83 0.2 -1.79 0.37 -1.73 0.53 -1.66 0.67 -1.58 0.8 -1.5 0.91 -1.41 1.02 -1.31 1.12 -1.21 1.2 -1.11 1.28 -1 1.35 -0.89 1.42 -0.79 1.48 -0.67 1.54 -0.55 1.59 -0.43 1.63 -0.3 1.67 -0.16 1.7 -0.02 1.71 0.14 1.72 0.3 1.71 0.47 1.68 0.64 1.64 0.82 1.58 0.99 1.5 1.15 1.41 1.32 1.3 1.46 -0 -0zm304.84 258.05l-3.73 13.32 -0 -0 -8.12 -2.47 -8.24 -2.88 -8.37 -3.29 -8.49 -3.7 -8.61 -4.09 -8.73 -4.49 -8.85 -4.88 -8.97 -5.26 -9.08 -5.64 -9.2 -6.02 -9.31 -6.39 -9.41 -6.76 -9.52 -7.13 -9.62 -7.49 -9.72 -7.85 -9.82 -8.2 -9.91 -8.55 -10 -8.89 -10.09 -9.24 -10.18 -9.57 -10.26 -9.91 -10.34 -10.24 -10.41 -10.56 -10.48 -10.89 -10.55 -11.21 -10.62 -11.52 -10.68 -11.83 -10.74 -12.14 -10.8 -12.44 -10.85 -12.74 -10.9 -13.04 -10.95 -13.33 10.73 -8.73 10.87 13.24 10.82 12.94 10.77 12.65 10.71 12.34 10.65 12.04 10.59 11.73 10.52 11.41 10.45 11.1 10.37 10.77 10.3 10.45 10.21 10.12 10.13 9.78 10.04 9.45 9.95 9.1 9.85 8.76 9.75 8.41 9.64 8.05 9.54 7.7 9.42 7.33 9.31 6.97 9.19 6.6 9.06 6.22 8.93 5.85 8.8 5.47 8.66 5.08 8.52 4.69 8.37 4.3 8.21 3.9 8.06 3.51 7.89 3.1 7.72 2.7 7.55 2.3 -0 -0zm4.4 -3.97l13.74 -1.55 0 0 0.09 1.12 0.02 1.11 -0.05 1.1 -0.12 1.09 -0.18 1.07 -0.25 1.04 -0.31 1.02 -0.37 0.99 -0.42 0.96 -0.47 0.92 -0.53 0.89 -0.58 0.86 -0.62 0.82 -0.67 0.78 -0.71 0.74 -0.75 0.69 -0.79 0.65 -0.83 0.6 -0.86 0.56 -0.9 0.51 -0.93 0.45 -0.96 0.4 -0.99 0.34 -1.02 0.28 -1.04 0.22 -1.06 0.16 -1.08 0.09 -1.09 0.02 -1.1 -0.05 -1.11 -0.12 -1.11 -0.2 -1.1 -0.27 3.73 -13.32 0.24 0.06 0.22 0.04 0.21 0.02 0.21 0.01 0.2 -0 0.2 -0.02 0.2 -0.03 0.19 -0.04 0.19 -0.05 0.19 -0.07 0.19 -0.08 0.19 -0.09 0.19 -0.1 0.18 -0.12 0.17 -0.13 0.17 -0.14 0.16 -0.15 0.15 -0.16 0.14 -0.17 0.14 -0.18 0.12 -0.18 0.11 -0.19 0.1 -0.2 0.09 -0.2 0.08 -0.21 0.06 -0.21 0.05 -0.21 0.04 -0.22 0.02 -0.22 0.01 -0.23 -0 -0.24 -0.02 -0.25 0 0zm11.58 -20.74l2.17 19.19 -13.74 1.55 -2.17 -19.19 13.25 -3.46 0.5 1.9zm-0.5 -1.9l0.39 0.92 0.11 0.99 -0.5 -1.9zm3.95 -15.15l-11.23 8.07 9.09 1.95 0.1 -0.06 0.02 -0.01 -0.01 0.01 -0.05 0.03 -0.07 0.05 -0.1 0.07 -0.12 0.09 -0.13 0.1 -0.15 0.12 -0.15 0.13 -0.16 0.15 -0.16 0.16 -0.16 0.17 -0.15 0.18 -0.15 0.18 -0.14 0.18 -0.12 0.19 -0.11 0.18 -0.1 0.18 -0.08 0.18 -0.07 0.17 -0.06 0.17 -0.04 0.17 -0.03 0.17 -0.02 0.17 -0.01 0.19 0 0.21 0.02 0.24 0.04 0.27 0.07 0.31 0.11 0.36 0.16 0.41 -12.75 5.36 -0.47 -1.23 -0.39 -1.24 -0.29 -1.24 -0.2 -1.23 -0.11 -1.22 -0.03 -1.19 0.06 -1.17 0.14 -1.13 0.21 -1.08 0.27 -1.04 0.33 -0.99 0.37 -0.93 0.41 -0.88 0.44 -0.83 0.46 -0.77 0.48 -0.72 0.49 -0.67 0.49 -0.61 0.49 -0.57 0.49 -0.52 0.48 -0.48 0.47 -0.44 0.45 -0.4 0.42 -0.35 0.4 -0.32 0.37 -0.28 0.33 -0.24 0.3 -0.2 0.25 -0.17 0.21 -0.14 0.16 -0.1 0.15 -0.09 9.09 1.95zm-9.09 -1.95l5.43 -3.15 3.66 5.09 -9.09 -1.95zm5.16 20.19l-7.31 -10.17 11.23 -8.07 7.31 10.17 -6.8 10.85 -4.43 -2.78zm4.43 2.78l-2.78 -0.48 -1.65 -2.29 4.43 2.78zm36.42 -29l-13.7 1.94 12.96 2.27 -0.08 0.14 -0.13 0.25 -0.21 0.38 -0.29 0.5 -0.36 0.6 -0.43 0.7 -0.49 0.79 -0.56 0.87 -0.62 0.94 -0.69 1.01 -0.75 1.06 -0.81 1.11 -0.88 1.14 -0.94 1.17 -1 1.19 -1.06 1.2 -1.12 1.2 -1.18 1.19 -1.25 1.17 -1.31 1.15 -1.38 1.11 -1.45 1.07 -1.52 1.01 -1.6 0.94 -1.68 0.85 -1.76 0.75 -1.85 0.63 -1.93 0.49 -2 0.33 -2.07 0.15 -2.12 -0.05 -2.15 -0.26 2.37 -13.63 0.78 0.1 0.76 0.02 0.77 -0.06 0.79 -0.13 0.82 -0.21 0.85 -0.29 0.88 -0.38 0.9 -0.46 0.92 -0.54 0.92 -0.61 0.93 -0.68 0.92 -0.74 0.91 -0.8 0.9 -0.85 0.88 -0.88 0.85 -0.91 0.82 -0.92 0.78 -0.93 0.75 -0.93 0.7 -0.92 0.66 -0.9 0.61 -0.86 0.56 -0.82 0.51 -0.77 0.46 -0.71 0.4 -0.64 0.34 -0.56 0.28 -0.47 0.21 -0.37 0.15 -0.26 0.08 -0.15 -0 0.01 12.96 2.27zm-12.96 -2.27l9.97 -18.82 2.99 21.08 -12.96 -2.27zm2 23.49l-2.74 -19.28 13.7 -1.94 2.74 19.28 -1.59 5.46 -12.11 -3.52zm13.7 -1.94l0.44 3.09 -2.03 2.37 1.59 -5.46zm-25.26 11.88l13.15 -15.4 10.52 8.98 -13.15 15.4 -0 0 -10.52 -8.98zm-6.3 7.37l6.3 -7.37 10.52 8.98 -6.3 7.37 -4.49 2.38 -6.03 -11.36zm10.52 8.98l-1.77 2.08 -2.71 0.31 4.49 -2.38zm-3.67 4.95l-13.83 -0.45 0 -0 0.04 -0.63 0.07 -0.59 0.09 -0.55 0.1 -0.53 0.12 -0.52 0.13 -0.51 0.14 -0.51 0.15 -0.5 0.17 -0.51 0.18 -0.5 0.19 -0.5 0.2 -0.51 0.21 -0.51 0.23 -0.51 0.24 -0.51 0.25 -0.51 0.27 -0.5 0.28 -0.5 0.3 -0.5 0.32 -0.5 0.34 -0.5 0.36 -0.5 0.39 -0.5 0.43 -0.5 0.47 -0.5 0.53 -0.5 0.6 -0.5 0.68 -0.49 0.79 -0.47 0.92 -0.43 1.06 -0.35 1.2 -0.22 1.55 13.75 0.73 -0.13 0.59 -0.19 0.45 -0.21 0.32 -0.19 0.21 -0.15 0.13 -0.11 0.06 -0.06 0.01 -0.01 -0.03 0.03 -0.05 0.07 -0.08 0.1 -0.09 0.14 -0.1 0.16 -0.11 0.18 -0.12 0.21 -0.12 0.22 -0.12 0.23 -0.11 0.24 -0.11 0.25 -0.11 0.25 -0.1 0.25 -0.09 0.24 -0.08 0.24 -0.07 0.22 -0.06 0.21 -0.05 0.18 -0.04 0.16 -0.03 0.13 -0.02 0.08 -0 0.02 0.01 -0.05 0.01 -0.14 0 -0zm5.91 14.87l2.18 13.66 0.01 -0 -2.69 -0.04 -1.91 -0.6 -1.33 -0.73 -1.02 -0.74 -0.85 -0.74 -0.76 -0.76 -0.72 -0.78 -0.69 -0.82 -0.68 -0.85 -0.67 -0.88 -0.66 -0.92 -0.66 -0.95 -0.65 -0.98 -0.65 -1 -0.64 -1.02 -0.63 -1.03 -0.62 -1.04 -0.6 -1.04 -0.59 -1.04 -0.57 -1.03 -0.54 -1.02 -0.52 -1.01 -0.49 -0.99 -0.46 -0.96 -0.43 -0.93 -0.4 -0.91 -0.36 -0.89 -0.32 -0.87 -0.29 -0.88 -0.25 -0.94 -0.21 -1.1 -0.08 -1.49 13.83 0.45 -0.04 -0.8 -0.04 -0.23 0.03 0.09 0.1 0.3 0.16 0.44 0.22 0.55 0.28 0.63 0.32 0.7 0.37 0.76 0.4 0.81 0.43 0.84 0.46 0.87 0.49 0.89 0.51 0.9 0.52 0.9 0.53 0.9 0.54 0.88 0.54 0.86 0.54 0.83 0.53 0.8 0.52 0.75 0.5 0.69 0.47 0.63 0.44 0.55 0.39 0.46 0.32 0.35 0.22 0.22 0.08 0.07 -0.15 -0.1 -0.54 -0.29 -1.19 -0.37 -2.06 -0.02 0.01 -0zm-0.01 0l0.01 -0 0.1 -0.02 -0.11 0.02zm65.27 -38.32l6.63 12.14 -0 0 -2.86 1.58 -2.82 1.59 -2.79 1.61 -2.75 1.62 -2.72 1.62 -2.68 1.62 -2.64 1.62 -2.59 1.61 -2.55 1.6 -2.51 1.59 -2.46 1.57 -2.41 1.54 -2.36 1.52 -2.31 1.49 -2.26 1.46 -2.21 1.42 -2.16 1.38 -2.1 1.33 -2.05 1.29 -2 1.23 -1.94 1.18 -1.89 1.12 -1.83 1.06 -1.78 1 -1.73 0.93 -1.69 0.86 -1.64 0.78 -1.61 0.71 -1.59 0.63 -1.58 0.54 -1.58 0.44 -1.62 0.33 -2.18 -13.66 0.54 -0.11 0.73 -0.2 0.9 -0.31 1.05 -0.41 1.17 -0.52 1.29 -0.62 1.4 -0.71 1.5 -0.8 1.59 -0.89 1.68 -0.97 1.76 -1.04 1.84 -1.12 1.91 -1.18 1.99 -1.25 2.06 -1.3 2.12 -1.36 2.19 -1.41 2.25 -1.45 2.32 -1.49 2.38 -1.53 2.43 -1.56 2.49 -1.59 2.55 -1.61 2.6 -1.63 2.65 -1.65 2.7 -1.66 2.75 -1.67 2.8 -1.67 2.85 -1.67 2.89 -1.66 2.93 -1.66 2.97 -1.64 -0 0zm57.71 -35.18l13.32 3.72 -2.55 3.7 -0.1 0.08 -0.28 0.2 -0.45 0.33 -0.62 0.45 -0.78 0.56 -0.93 0.67 -1.08 0.77 -1.22 0.87 -1.36 0.96 -1.48 1.05 -1.61 1.13 -1.73 1.21 -1.84 1.28 -1.95 1.34 -2.05 1.4 -2.14 1.45 -2.23 1.5 -2.31 1.55 -2.39 1.58 -2.46 1.62 -2.52 1.64 -2.58 1.66 -2.63 1.68 -2.68 1.69 -2.72 1.69 -2.76 1.69 -2.79 1.69 -2.81 1.67 -2.83 1.66 -2.84 1.63 -2.85 1.61 -2.85 1.57 -6.63 -12.14 2.74 -1.51 2.74 -1.55 2.74 -1.58 2.74 -1.6 2.73 -1.62 2.71 -1.64 2.69 -1.65 2.65 -1.65 2.62 -1.65 2.57 -1.64 2.52 -1.63 2.47 -1.61 2.41 -1.58 2.34 -1.55 2.27 -1.52 2.19 -1.47 2.1 -1.43 2.01 -1.37 1.91 -1.32 1.81 -1.25 1.69 -1.18 1.58 -1.11 1.46 -1.03 1.33 -0.94 1.19 -0.85 1.05 -0.76 0.91 -0.65 0.75 -0.55 0.59 -0.43 0.43 -0.31 0.26 -0.19 0.08 -0.06 -2.55 3.7zm13.32 3.72l-0.64 2.29 -1.91 1.41 2.55 -3.7zm37.66 -209.75l13.2 4.13 -0 0 -1.67 5.45 -1.66 5.62 -1.65 5.78 -1.65 5.93 -1.64 6.07 -1.63 6.2 -1.62 6.32 -1.62 6.42 -1.61 6.52 -1.6 6.6 -1.6 6.67 -1.59 6.74 -1.58 6.79 -1.58 6.83 -1.58 6.86 -1.57 6.88 -1.57 6.89 -1.56 6.88 -1.56 6.87 -1.56 6.85 -1.56 6.81 -1.56 6.77 -1.56 6.71 -1.56 6.65 -1.56 6.57 -1.56 6.48 -1.56 6.38 -1.56 6.28 -1.57 6.16 -1.57 6.03 -1.57 5.89 -1.58 5.74 -13.32 -3.72 1.55 -5.64 1.55 -5.8 1.55 -5.95 1.55 -6.09 1.55 -6.21 1.55 -6.33 1.55 -6.44 1.55 -6.53 1.55 -6.61 1.55 -6.68 1.55 -6.75 1.56 -6.8 1.56 -6.84 1.56 -6.87 1.56 -6.88 1.57 -6.89 1.57 -6.89 1.58 -6.88 1.59 -6.85 1.59 -6.82 1.6 -6.77 1.61 -6.72 1.61 -6.65 1.62 -6.57 1.63 -6.49 1.64 -6.39 1.65 -6.28 1.66 -6.16 1.68 -6.03 1.69 -5.89 1.7 -5.75 1.72 -5.59 -0 0zm35.27 6.03l-13.82 -0.5 0 -0 -0 -0.57 -0.05 -0.49 -0.08 -0.42 -0.11 -0.37 -0.13 -0.32 -0.16 -0.29 -0.18 -0.27 -0.2 -0.25 -0.23 -0.24 -0.26 -0.22 -0.29 -0.2 -0.32 -0.19 -0.34 -0.17 -0.36 -0.14 -0.38 -0.11 -0.39 -0.08 -0.4 -0.05 -0.4 -0.02 -0.39 0.01 -0.38 0.04 -0.36 0.07 -0.34 0.1 -0.32 0.12 -0.3 0.15 -0.28 0.17 -0.26 0.19 -0.24 0.23 -0.24 0.26 -0.23 0.31 -0.22 0.37 -0.21 0.45 -0.2 0.54 -13.2 -4.13 0.62 -1.7 0.76 -1.61 0.89 -1.51 1.02 -1.4 1.13 -1.27 1.23 -1.13 1.32 -1 1.38 -0.85 1.43 -0.71 1.47 -0.57 1.49 -0.43 1.51 -0.3 1.51 -0.17 1.51 -0.05 1.5 0.07 1.49 0.19 1.47 0.31 1.44 0.43 1.41 0.55 1.37 0.66 1.32 0.78 1.27 0.91 1.2 1.02 1.11 1.15 1.02 1.26 0.91 1.38 0.78 1.48 0.65 1.58 0.5 1.66 0.34 1.72 0.18 1.78 0.01 1.81 0 -0zm-16.53 233.92l-13.65 -2.26 -0 0 0.36 -2.23 0.38 -2.52 0.4 -2.81 0.42 -3.11 0.44 -3.41 0.46 -3.71 0.47 -4.01 0.49 -4.32 0.5 -4.63 0.51 -4.95 0.52 -5.27 0.53 -5.59 0.54 -5.91 0.55 -6.25 0.55 -6.58 0.56 -6.92 0.56 -7.26 0.57 -7.61 0.57 -7.96 0.57 -8.31 0.57 -8.67 0.56 -9.03 0.56 -9.4 0.56 -9.77 0.55 -10.14 0.55 -10.52 0.54 -10.9 0.53 -11.29 0.52 -11.68 0.51 -12.07 0.5 -12.47 0.48 -12.87 13.82 0.5 -0.48 12.9 -0.5 12.5 -0.51 12.11 -0.52 11.71 -0.53 11.32 -0.54 10.94 -0.55 10.56 -0.55 10.18 -0.56 9.8 -0.56 9.44 -0.57 9.07 -0.57 8.71 -0.57 8.35 -0.57 8 -0.57 7.65 -0.57 7.3 -0.56 6.96 -0.56 6.63 -0.55 6.29 -0.54 5.97 -0.54 5.64 -0.53 5.32 -0.52 5.01 -0.51 4.69 -0.49 4.39 -0.48 4.08 -0.47 3.78 -0.45 3.49 -0.43 3.2 -0.42 2.92 -0.4 2.64 -0.38 2.37 -0 0zm-13.06 23.61l-9.17 -10.35 0 0 0.42 -0.38 0.41 -0.39 0.4 -0.4 0.4 -0.41 0.39 -0.41 0.38 -0.42 0.37 -0.43 0.36 -0.44 0.35 -0.45 0.34 -0.45 0.33 -0.46 0.32 -0.47 0.31 -0.47 0.3 -0.48 0.29 -0.49 0.28 -0.49 0.27 -0.49 0.26 -0.5 0.25 -0.51 0.24 -0.51 0.22 -0.52 0.21 -0.52 0.2 -0.53 0.19 -0.53 0.18 -0.53 0.17 -0.54 0.16 -0.54 0.15 -0.55 0.13 -0.55 0.12 -0.55 0.11 -0.56 0.1 -0.56 13.65 2.26 -0.15 0.85 -0.17 0.85 -0.19 0.84 -0.2 0.84 -0.22 0.83 -0.24 0.83 -0.26 0.82 -0.27 0.81 -0.29 0.81 -0.31 0.8 -0.33 0.79 -0.34 0.79 -0.36 0.78 -0.37 0.77 -0.39 0.76 -0.41 0.75 -0.42 0.75 -0.44 0.73 -0.45 0.73 -0.47 0.72 -0.48 0.71 -0.5 0.7 -0.52 0.69 -0.53 0.67 -0.54 0.66 -0.56 0.65 -0.57 0.64 -0.59 0.63 -0.6 0.62 -0.62 0.61 -0.63 0.59 -0.64 0.58 0 0zm-86.08 77.2l-8.21 -11.13 0 -0 2.53 -1.88 2.46 -1.87 2.4 -1.87 2.34 -1.86 2.3 -1.87 2.26 -1.87 2.23 -1.89 2.21 -1.9 2.2 -1.92 2.19 -1.95 2.19 -1.98 2.2 -2.01 2.22 -2.05 2.25 -2.09 2.28 -2.14 2.32 -2.19 2.37 -2.24 2.42 -2.3 2.48 -2.36 2.55 -2.43 2.63 -2.5 2.71 -2.58 2.8 -2.65 2.9 -2.73 3.01 -2.82 3.12 -2.91 3.24 -3 3.37 -3.1 3.51 -3.2 3.65 -3.3 3.8 -3.41 3.96 -3.52 9.17 10.35 -3.92 3.48 -3.76 3.37 -3.61 3.26 -3.47 3.16 -3.33 3.06 -3.21 2.97 -3.09 2.88 -2.98 2.79 -2.88 2.71 -2.78 2.63 -2.7 2.56 -2.62 2.49 -2.55 2.43 -2.49 2.37 -2.43 2.31 -2.38 2.26 -2.34 2.21 -2.31 2.17 -2.29 2.13 -2.27 2.1 -2.26 2.07 -2.26 2.04 -2.27 2.02 -2.28 2 -2.3 1.98 -2.33 1.97 -2.36 1.96 -2.41 1.96 -2.46 1.95 -2.51 1.96 -2.58 1.96 -2.65 1.97 0 -0zm-30.02 52.16l-13.76 -1.45 0 -0 0.27 -2.31 0.33 -2.3 0.39 -2.28 0.45 -2.27 0.51 -2.25 0.57 -2.23 0.63 -2.21 0.68 -2.19 0.74 -2.17 0.79 -2.14 0.85 -2.12 0.9 -2.1 0.96 -2.07 1.01 -2.04 1.06 -2.02 1.11 -1.99 1.16 -1.96 1.21 -1.93 1.26 -1.9 1.31 -1.87 1.36 -1.83 1.41 -1.8 1.46 -1.76 1.5 -1.73 1.55 -1.69 1.59 -1.65 1.64 -1.61 1.68 -1.57 1.73 -1.53 1.77 -1.49 1.81 -1.45 1.85 -1.4 8.21 11.13 -1.57 1.19 -1.53 1.22 -1.49 1.26 -1.46 1.29 -1.42 1.33 -1.38 1.36 -1.35 1.4 -1.31 1.43 -1.27 1.46 -1.23 1.49 -1.19 1.52 -1.15 1.55 -1.11 1.57 -1.07 1.6 -1.02 1.63 -0.98 1.65 -0.94 1.68 -0.89 1.7 -0.85 1.72 -0.81 1.75 -0.76 1.77 -0.72 1.79 -0.67 1.81 -0.62 1.83 -0.58 1.84 -0.53 1.86 -0.48 1.88 -0.43 1.89 -0.38 1.91 -0.33 1.92 -0.28 1.93 -0.23 1.95 0 -0zm-32.84 180.05l19.09 -181.5 13.76 1.45 -19.09 181.5 -1.1 3.08 -12.65 -4.53zm13.76 1.45l-0.18 1.67 -0.93 1.41 1.1 -3.08zm-212.44 -6.11l13.64 2.27 -4.07 -7.48 14.18 5.93 13.51 5.19 12.85 4.49 12.2 3.83 11.57 3.21 10.95 2.62 10.35 2.07 9.75 1.55 9.17 1.08 8.61 0.64 8.06 0.23 7.52 -0.13 7 -0.46 6.49 -0.75 6 -1 5.52 -1.21 5.07 -1.39 4.62 -1.54 4.2 -1.65 3.79 -1.72 3.39 -1.76 3.01 -1.77 2.65 -1.74 2.3 -1.68 1.97 -1.59 1.65 -1.46 1.34 -1.3 1.04 -1.11 0.76 -0.88 0.5 -0.62 0.25 -0.35 -0.06 0.09 11.55 7.61 -0.31 0.45 -0.51 0.69 -0.82 1.02 -1.12 1.3 -1.44 1.53 -1.77 1.73 -2.12 1.88 -2.48 2 -2.85 2.08 -3.23 2.12 -3.63 2.13 -4.03 2.1 -4.45 2.02 -4.88 1.92 -5.32 1.77 -5.77 1.59 -6.23 1.37 -6.7 1.11 -7.18 0.82 -7.67 0.5 -8.17 0.14 -8.68 -0.25 -9.21 -0.68 -9.75 -1.14 -10.3 -1.64 -10.87 -2.17 -11.44 -2.73 -12.03 -3.33 -12.64 -3.97 -13.26 -4.64 -13.89 -5.34 -14.54 -6.08 -4.07 -7.48zm4.07 7.48l-4.95 -2.15 0.89 -5.33 4.07 7.48zm-1.3 -23.49l13.53 2.88 0.04 -0.19 -0 0.01 -0.01 0.04 -0.02 0.08 -0.02 0.11 -0.03 0.15 -0.03 0.17 -0.04 0.2 -0.04 0.24 -0.05 0.27 -0.05 0.3 -0.06 0.33 -0.06 0.35 -0.07 0.39 -0.07 0.42 -0.08 0.45 -0.08 0.48 -0.09 0.51 -0.09 0.54 -0.1 0.57 -0.1 0.6 -0.11 0.63 -0.11 0.66 -0.12 0.68 -0.12 0.71 -0.13 0.74 -0.13 0.77 -0.14 0.8 -0.14 0.83 -0.14 0.86 -0.15 0.88 -0.15 0.91 -0.16 0.94 -13.64 -2.27 0.16 -0.95 0.15 -0.92 0.15 -0.89 0.15 -0.86 0.14 -0.84 0.14 -0.81 0.13 -0.78 0.13 -0.75 0.12 -0.72 0.12 -0.69 0.11 -0.66 0.11 -0.63 0.1 -0.61 0.1 -0.58 0.09 -0.54 0.09 -0.51 0.09 -0.49 0.08 -0.46 0.07 -0.42 0.07 -0.39 0.07 -0.37 0.06 -0.34 0.05 -0.3 0.05 -0.27 0.04 -0.24 0.04 -0.21 0.03 -0.18 0.03 -0.14 0.02 -0.12 0.01 -0.08 0.01 -0.05 0.01 -0.03 0.04 -0.19zm-0.04 0.19l0.02 -0.09 0.02 -0.1 -0.04 0.19zm22.49 -196.51l13.81 0.77 -0 0 -0.24 4.14 -0.26 4.4 -0.29 4.65 -0.31 4.89 -0.34 5.12 -0.36 5.33 -0.39 5.53 -0.42 5.71 -0.45 5.89 -0.48 6.04 -0.51 6.19 -0.54 6.32 -0.57 6.44 -0.6 6.55 -0.63 6.64 -0.67 6.72 -0.7 6.79 -0.73 6.85 -0.77 6.89 -0.8 6.91 -0.84 6.93 -0.88 6.93 -0.92 6.92 -0.95 6.9 -0.99 6.86 -1.03 6.81 -1.07 6.75 -1.12 6.67 -1.16 6.58 -1.2 6.48 -1.24 6.37 -1.29 6.24 -13.53 -2.88 1.26 -6.09 1.22 -6.23 1.18 -6.35 1.14 -6.46 1.1 -6.56 1.06 -6.64 1.02 -6.71 0.98 -6.77 0.94 -6.81 0.91 -6.84 0.87 -6.86 0.83 -6.86 0.8 -6.85 0.76 -6.82 0.73 -6.79 0.69 -6.74 0.66 -6.67 0.63 -6.59 0.6 -6.5 0.56 -6.4 0.53 -6.28 0.5 -6.15 0.47 -6 0.44 -5.85 0.42 -5.68 0.39 -5.49 0.36 -5.29 0.33 -5.08 0.31 -4.86 0.28 -4.62 0.26 -4.37 0.24 -4.11 -0 0zm-11.66 -28.73l9.23 -10.3 -0 -0 1.04 0.96 1.01 0.99 0.98 1.01 0.94 1.04 0.91 1.06 0.88 1.08 0.84 1.11 0.81 1.13 0.78 1.15 0.74 1.17 0.71 1.19 0.67 1.21 0.64 1.22 0.61 1.24 0.57 1.26 0.53 1.27 0.5 1.28 0.46 1.3 0.43 1.31 0.39 1.32 0.36 1.33 0.32 1.34 0.28 1.35 0.24 1.36 0.21 1.37 0.17 1.38 0.13 1.38 0.09 1.39 0.06 1.39 0.02 1.4 -0.02 1.4 -0.06 1.4 -13.81 -0.77 0.04 -1.02 0.01 -1.02 -0.01 -1.02 -0.04 -1.01 -0.07 -1.01 -0.1 -1.01 -0.12 -1 -0.15 -0.99 -0.18 -0.99 -0.2 -0.98 -0.23 -0.97 -0.26 -0.96 -0.28 -0.96 -0.31 -0.95 -0.33 -0.94 -0.36 -0.93 -0.39 -0.92 -0.41 -0.9 -0.44 -0.89 -0.46 -0.88 -0.48 -0.87 -0.51 -0.85 -0.53 -0.84 -0.56 -0.82 -0.58 -0.81 -0.6 -0.79 -0.63 -0.78 -0.65 -0.76 -0.67 -0.74 -0.7 -0.72 -0.72 -0.7 -0.74 -0.69 -0 -0zm-223.73 -303.3l12.67 -5.54 0 0 3.29 7.37 3.53 7.62 3.78 7.86 4.02 8.09 4.27 8.31 4.51 8.51 4.75 8.7 4.99 8.87 5.22 9.04 5.46 9.19 5.69 9.33 5.92 9.45 6.15 9.57 6.38 9.67 6.61 9.76 6.84 9.83 7.06 9.89 7.28 9.94 7.51 9.98 7.73 10.01 7.94 10.02 8.16 10.02 8.38 10.01 8.59 9.98 8.8 9.95 9.01 9.9 9.22 9.84 9.43 9.76 9.64 9.68 9.84 9.58 10.04 9.47 10.25 9.34 -9.23 10.3 -10.42 -9.5 -10.21 -9.62 -10 -9.73 -9.79 -9.83 -9.58 -9.91 -9.36 -9.99 -9.15 -10.05 -8.93 -10.09 -8.71 -10.13 -8.5 -10.15 -8.28 -10.16 -8.06 -10.16 -7.83 -10.15 -7.61 -10.12 -7.39 -10.08 -7.16 -10.03 -6.93 -9.97 -6.7 -9.89 -6.47 -9.81 -6.24 -9.7 -6.01 -9.59 -5.78 -9.47 -5.54 -9.33 -5.31 -9.18 -5.07 -9.02 -4.83 -8.85 -4.59 -8.66 -4.35 -8.46 -4.11 -8.26 -3.86 -8.03 -3.62 -7.8 -3.37 -7.56 0 0z"/>
   </g>
   <path class="fil32" d="M567.94 103.71c0,0 5.94,-4.72 11.58,-9.01 -4.94,109.05 -11.28,168.99 -14.66,189.58 -1.25,7.62 -5.09,14.58 -10.87,19.71 -42.87,37.98 -61.18,49.93 -89.18,70.56l79.91 -84.94c9.09,-9.37 14.5,-21.7 15.23,-34.73l8 -151.17z"/>
   <path class="fil11" d="M406.47 241.48l12.38 -39.41c-0.01,-16.1 -83.55,-27.18 -122.25,7.35 0,0 -117.5,185.56 29.99,107.02l17.07 16.38 14.46 -16.41 39.29 -46 9.06 -28.94z"/>
   <path class="fil12" d="M342.42 298.53l-3.29 -29.2c-5.69,-13.53 7.17,-20.98 7.17,-20.98l11.12 15.47c23.89,4.17 43.19,-32.28 43.19,-32.28l25.76 43.66 -22.78 28.21 -17.39 1.95c-3.82,0.43 -6.74,3.59 -6.88,7.43 -0.16,4.87 4.13,8.67 8.94,7.9 0.66,22.92 -28.15,41.14 -28.15,41.14 -22.54,-14.61 -37.79,-45.97 -37.79,-45.97 10.89,3.06 21.37,-6.08 20.1,-17.32z"/>
   <path class="fil1" d="M416.53 619.27c0,0 44.93,59 87.63,142.03 35.43,68.88 46.79,123.45 46.79,123.45 -21.01,85.61 -89.15,288.82 -136.49,393.75 -7.85,17.4 -34.01,10.9 -32.75,-8.14 10.57,-159.87 35.51,-380.83 35.51,-380.83 -32.57,-42.41 -88.92,-135.29 -88.92,-135.29 2.94,61.57 -70.91,442.54 -100.19,621.37 -3.12,19.06 -30.56,19.22 -33.82,0.19 -49.63,-289.98 9.78,-678.54 23.5,-760.79 156.7,68.1 198.74,4.25 198.74,4.25z"/>
   <path class="fil12" d="M28.45 53.79c9.54,11.72 19.02,23.07 28.45,34.12 -2.28,8.62 -9.15,23.51 -29.26,21.2 -7.98,-15.16 -14.86,-29.42 -20.54,-42.42 -5.86,-13.41 12.11,-24.25 21.35,-12.9z"/>
   <path class="fil13" d="M235.81 1328.42c-2.75,16.94 -5.33,32.78 -7.69,47.2 -3.12,19.06 -30.56,19.22 -33.82,0.19 -2.89,-16.89 -5.4,-34.13 -7.58,-51.61 18.9,16.86 40.05,8.96 49.09,4.22z"/>
   <path class="fil11" d="M407.79 1275.06l-1.73 -36.29 144.9 -354.02c-20.73,84.45 -86.96,283.78 -134.52,389.37l-8.65 0.94z"/>
   <path class="fil10" d="M381.71 1270.35c1.06,-16.12 2.4,-32.66 3.94,-49.38 13.79,23.77 36.52,20.87 46.41,18.22 -6.21,13.96 -12.13,27.18 -17.6,39.3 -7.85,17.4 -34.01,10.9 -32.75,-8.14z"/>
   <path class="fil11" d="M417.71 883.26l-0.49 6.26c-32.57,-42.41 -88.92,-135.28 -88.92,-135.28 2.7,56.61 -61.15,380.92 -92.49,574.17l0 0.01 87.4 -632.92 94.5 187.76z"/>
   <path class="fil32" d="M27.64 109.11c0,0 3.56,-13.64 12.91,-1.19 35.77,47.57 131.05,188.81 200.12,240.66 24.25,18.2 38.9,46.39 40.49,76.66 2.67,50.77 1.77,129.38 -19.11,206.62l0 0c-13.62,-4.4 -28.34,-9.94 -44.25,-16.85 1.7,-10.21 2.7,-15.71 2.7,-15.71 13.86,-65.16 20.24,-155.37 22.61,-197.72 0.72,-12.93 -4.53,-25.45 -14.16,-34.1 -92.71,-83.18 -161.27,-182.38 -201.31,-258.38z"/>
   <path class="fil0" d="M364.93 343.74c0,0 18.83,202.85 -159.06,249.18l-32.8 -16.06 22.12 -28.17c0,0 159.97,-42.71 165.26,-204.73l4.47 -0.22z"/>
   <path class="fil14" d="M360.14 316.78c2.9,-5.5 8.32,-9.23 14.49,-10l11.47 -1.41c-3.77,0.46 -6.66,3.59 -6.78,7.4 -0.17,4.87 4.12,8.67 8.93,7.9 0.66,22.92 -28.15,41.14 -28.15,41.14 -5.96,-3.87 -11.39,-8.91 -16.19,-14.22l16.22 -30.81z"/>
   <path class="fil14" d="M6.86 57.01l33.69 50.91c-3.54,1.25 -7.8,1.78 -12.91,1.19 -7.98,-15.16 -14.86,-29.42 -20.54,-42.42 -1.54,-3.53 -1.4,-6.87 -0.24,-9.68z"/>
   <path class="fil13" d="M406.05 1238.73l0.01 0.03 -22.07 41.51c-1.63,-2.74 -2.54,-6.06 -2.28,-9.93 1.06,-16.12 2.4,-32.66 3.94,-49.38 5.77,9.94 13.1,15.17 20.39,17.76z"/>
   <path class="fil10" d="M214.74 1334.41c8.88,-0.42 16.51,-3.61 21.07,-5.99 -2.75,16.94 -5.33,32.78 -7.69,47.2 -1.46,8.97 -8.33,13.71 -15.52,14.27l2.14 -55.47z"/>
   <path class="fil12" d="M545.6 96.95c4.62,-17.72 9.34,-34.73 14.21,-50.19 3.86,-12.25 21.98,-9.09 21.51,3.75 -0.67,18.41 -1.38,35.4 -2.12,51.18 -0.02,0 -25.8,7.47 -33.59,-4.73z"/>
   <path class="fil14" d="M575.5 40.4c6.26,3.15 5.9,7.95 5.7,13.36 -0.63,17.16 -1.3,33.08 -2,47.93 -0.01,-0 -5.01,1.45 -11.26,2.03l7.56 -63.31z"/>
   <path class="fil0" d="M1035.96 714.08l70.2 96.32c3,4.12 9.15,4.12 12.15,0l70.2 -96.32c3.62,-4.97 0.07,-11.94 -6.07,-11.94l-29.35 -0 0 -109.08c0,-4.15 -3.37,-7.51 -7.52,-7.51l-66.68 0c-4.15,0 -7.52,3.36 -7.52,7.52l0 109.08 -29.34 0c-6.14,0 -9.69,6.98 -6.08,11.94z"/>
   <path class="fil1" d="M821.09 250.87l-70.2 -96.32c-3,-4.12 -9.14,-4.12 -12.14,0l-70.2 96.32c-3.62,4.97 -0.07,11.94 6.07,11.94l29.35 -0 0 109.08c0,4.15 3.36,7.52 7.52,7.52l66.68 -0c4.15,0 7.52,-3.36 7.52,-7.52l0 -109.08 29.35 0c6.14,0 9.69,-6.98 6.07,-11.94z"/>
   <path class="fil1" d="M1037.78 529.47l-70.2 -96.32c-3,-4.12 -9.14,-4.12 -12.14,0l-70.2 96.32c-3.62,4.97 -0.07,11.94 6.07,11.94l29.35 -0 0 109.08c0,4.15 3.36,7.52 7.52,7.52l66.68 -0c4.15,0 7.52,-3.36 7.52,-7.52l0 -109.08 29.35 0c6.14,0 9.69,-6.98 6.07,-11.94z"/>
   <path class="fil1" d="M1292.03 1052.35l-70.2 -96.32c-3,-4.12 -9.14,-4.12 -12.14,0l-70.2 96.32c-3.62,4.97 -0.07,11.94 6.07,11.94l29.35 -0 0 109.08c0,4.15 3.36,7.52 7.52,7.52l66.68 -0c4.15,0 7.52,-3.36 7.52,-7.52l0 -109.08 29.35 0c6.14,0 9.69,-6.98 6.07,-11.94z"/>
   <path class="fil0" d="M957.33 984.93l70.2 96.32c3,4.12 9.15,4.12 12.15,0l70.2 -96.32c3.62,-4.97 0.07,-11.94 -6.07,-11.94l-29.35 -0 0 -109.08c0,-4.15 -3.37,-7.51 -7.52,-7.51l-66.68 0c-4.15,0 -7.52,3.36 -7.52,7.52l0 109.08 -29.34 0c-6.14,0 -9.69,6.98 -6.08,11.94z"/>
   <path class="fil1" d="M1695.01 372.78c1.92,25.42 -25.52,43.19 -47.91,30.75 22.63,16.95 67.97,-4.32 47.91,-30.75z"/>
   <path class="fil1" d="M1647.11 403.53c6.21,6.66 15.14,11.08 24.97,11.08 13.28,0 26.8,-7.06 28.43,-21.26 -11.45,18.23 -36.06,22.71 -53.4,10.18z"/>
   <path class="fil1" d="M1647.11 403.53c7.71,13.44 25.05,19.01 38.61,11.73 -15.92,4.43 -28.75,-1.25 -38.61,-11.73z"/>
   <path class="fil1" d="M1669.24 367.25c1.67,0 3.3,0.17 4.88,0.48 -3.25,-2.24 -6.93,-3.9 -10.89,-4.84 -15.5,5.13 -23.48,22.2 -17.76,37.3 -0.82,-2.48 -1.27,-5.13 -1.27,-7.89 0,-13.83 11.21,-25.05 25.05,-25.05z"/>
   <path class="fil1" d="M1693.42 370.86c-2.59,-2.86 -5.76,-5.2 -9.31,-6.82 2.3,3.78 3.77,7.95 4.38,12.23 1.72,2.06 3.12,4.4 4.11,6.95 1.07,-4.05 1.34,-8.25 0.82,-12.36zm-21.17 -9.41l0 0c-0.01,-0 -0.02,-0 -0.03,-0 -1.9,0 -3.76,0.19 -5.55,0.54 0.88,0.39 1.76,0.81 2.62,1.27 2.72,1.45 5.21,3.18 7.44,5.13 0.95,0.3 1.88,0.65 2.78,1.06 -1.92,-3 -4.35,-5.72 -7.25,-8zm2.11 0.08l0 0c2.88,2.58 5.25,5.59 7.06,8.88 1.98,1.11 3.8,2.47 5.41,4.06 -0.88,-4.02 -2.52,-7.87 -4.85,-11.3 -2.41,-0.87 -4.96,-1.43 -7.62,-1.63z"/>
   <polygon class="fil1" points="1658.55,401.76 1662.97,380.95 1654.55,380.95 1655.99,374.26 1682.03,374.26 1680.58,380.95 1672.13,380.95 1667.71,401.76 "/>
   <polygon class="fil1" points="1657.21,408.09 1658.17,403.8 1667.33,403.8 1666.37,408.09 "/>
  </g>
 </g>
</svg>
