<?xml version="1.0" encoding="UTF-8"?>
<!DOCTYPE svg PUBLIC "-//W3C//DTD SVG 1.1//EN" "http://www.w3.org/Graphics/SVG/1.1/DTD/svg11.dtd">
<!-- Creator: CorelDRAW Standard 2021 (64 Bit) -->
<svg xmlns="http://www.w3.org/2000/svg" xml:space="preserve" width="415.023mm" height="363.061mm" version="1.1" style="shape-rendering:geometricPrecision; text-rendering:geometricPrecision; image-rendering:optimizeQuality; fill-rule:evenodd; clip-rule:evenodd"
viewBox="0 0 1871.77 1637.42"
 xmlns:xlink="http://www.w3.org/1999/xlink"
 xmlns:xodm="http://www.corel.com/coreldraw/odm/2003">
 <defs>
  <style type="text/css">
   <![CDATA[
    .fil1 {fill:#FEFEFE}
    .fil2 {fill:#BDBFC1}
    .fil10 {fill:#EDCD8B}
    .fil7 {fill:#E8E7E8}
    .fil11 {fill:#D9B362}
    .fil8 {fill:#D2D2D3}
    .fil5 {fill:#BCBFC1}
    .fil9 {fill:#A8AAAE}
    .fil13 {fill:#7C8588}
    .fil6 {fill:#616163}
    .fil3 {fill:#094561}
    .fil4 {fill:#094561}
    .fil12 {fill:#D98218}
    .fil0 {fill:#F59B2C}
    .fil14 {fill:#094561;fill-rule:nonzero}
   ]]>
  </style>
 </defs>
 <g id="Camada_x0020_1">
  <metadata id="CorelCorpID_0Corel-Layer"/>
  <g id="_1780630827120">
   <polygon class="fil0" points="875.2,1421.81 -0,1421.81 -0,287.53 875.2,287.53 "/>
   <polygon class="fil1" points="786.61,1324.37 88.61,1324.37 88.61,287.53 786.61,287.53 "/>
   <path class="fil2" d="M171.48 441.02c-7.74,0 -14.08,6.31 -14.08,14.07l0 187.59c0,7.77 6.33,14.07 14.07,14.07l187.59 0c7.76,0 14.07,-6.3 14.07,-14.07l0 -187.59c0,-7.77 -6.32,-14.07 -14.08,-14.07l-187.59 -0zm187.59 234.28l-187.59 0c-17.97,0 -32.61,-14.64 -32.61,-32.63l0 -187.59c0,-17.99 14.64,-32.65 32.61,-32.65l187.59 -0c17.99,0 32.62,14.67 32.62,32.66l0 187.59c0,17.99 -14.64,32.63 -32.63,32.63z"/>
   <polygon class="fil2" points="730.22,468.03 414.74,468.03 414.74,447.94 730.22,447.94 "/>
   <polygon class="fil2" points="730.22,502.07 414.74,502.07 414.74,481.96 730.22,481.96 "/>
   <polygon class="fil2" points="730.22,536.08 414.74,536.08 414.74,515.99 730.22,515.99 "/>
   <polygon class="fil2" points="730.22,570.09 414.74,570.09 414.74,550 730.22,550 "/>
   <polygon class="fil2" points="730.22,604.13 414.74,604.13 414.74,584.01 730.22,584.01 "/>
   <polygon class="fil2" points="730.22,638.14 414.74,638.14 414.74,618.04 730.22,618.04 "/>
   <path class="fil3" d="M326.05 204.75l0 -25.86c0,-27.98 22.71,-50.69 50.7,-50.69l121.68 0c28,0 50.72,22.71 50.72,50.7l0 25.85 41.53 0 0 -55.67c0,-38.44 -31.14,-69.58 -69.58,-69.58l-167.01 0c-38.45,0 -69.59,31.15 -69.59,69.58l0 55.67 41.54 0z"/>
   <path class="fil3" d="M410.76 279.78c-89.07,-3.25 -184.53,-24.99 -245.73,-86.45l0 147.92 545.12 0 0 -138.92c-89.51,53.42 -192.13,81.38 -299.39,77.46z"/>
   <g>
    <path class="fil2" d="M171.48 742.98c-7.74,0 -14.08,6.31 -14.08,14.07l0 187.59c0,7.77 6.33,14.07 14.07,14.07l187.59 0c7.76,0 14.07,-6.3 14.07,-14.07l0 -187.59c0,-7.77 -6.32,-14.07 -14.08,-14.07l-187.59 -0zm187.59 234.28l-187.59 0c-17.97,0 -32.61,-14.64 -32.61,-32.63l0 -187.59c0,-17.99 14.64,-32.65 32.61,-32.65l187.59 -0c17.99,0 32.62,14.67 32.62,32.66l0 187.59c0,17.99 -14.64,32.63 -32.63,32.63z"/>
    <polygon class="fil2" points="730.22,770 414.74,770 414.74,749.91 730.22,749.91 "/>
    <polygon class="fil2" points="730.22,804.04 414.74,804.04 414.74,783.92 730.22,783.92 "/>
    <polygon class="fil2" points="730.22,838.05 414.74,838.05 414.74,817.96 730.22,817.96 "/>
    <polygon class="fil2" points="730.22,872.06 414.74,872.06 414.74,851.96 730.22,851.96 "/>
    <polygon class="fil2" points="730.22,906.09 414.74,906.09 414.74,885.97 730.22,885.97 "/>
    <polygon class="fil2" points="730.22,940.1 414.74,940.1 414.74,920.01 730.22,920.01 "/>
    <polygon class="fil4" points="201.35,850.84 277.88,932.39 486.66,705.05 284.86,869.75 "/>
   </g>
   <g>
    <path class="fil2" d="M171.48 1044.95c-7.74,0 -14.08,6.31 -14.08,14.07l0 187.59c0,7.77 6.33,14.07 14.07,14.07l187.59 0c7.76,0 14.07,-6.3 14.07,-14.07l0 -187.59c0,-7.77 -6.32,-14.07 -14.08,-14.07l-187.59 -0zm187.59 234.28l-187.59 0c-17.97,0 -32.61,-14.64 -32.61,-32.63l0 -187.59c0,-17.99 14.64,-32.65 32.61,-32.65l187.59 -0c17.99,0 32.62,14.67 32.62,32.66l0 187.59c0,17.99 -14.64,32.63 -32.63,32.63z"/>
    <polygon class="fil2" points="730.22,1071.96 414.74,1071.96 414.74,1051.87 730.22,1051.87 "/>
    <polygon class="fil2" points="730.22,1106 414.74,1106 414.74,1085.89 730.22,1085.89 "/>
    <polygon class="fil2" points="730.22,1140.01 414.74,1140.01 414.74,1119.92 730.22,1119.92 "/>
    <polygon class="fil2" points="730.22,1174.02 414.74,1174.02 414.74,1153.93 730.22,1153.93 "/>
    <polygon class="fil2" points="730.22,1208.06 414.74,1208.06 414.74,1187.94 730.22,1187.94 "/>
    <polygon class="fil2" points="730.22,1242.07 414.74,1242.07 414.74,1221.97 730.22,1221.97 "/>
    <polygon class="fil4" points="201.35,1152.8 277.88,1234.36 486.66,1007.02 284.86,1171.72 "/>
   </g>
   <g>
    <polygon class="fil5" points="1053.05,0 1871.77,0 1871.77,1637.42 1824.55,1637.42 1824.55,47.23 1100.29,47.23 1100.29,1637.42 1053.05,1637.42 "/>
    <polygon class="fil6" points="1100.29,1637.42 1824.55,1637.42 1824.55,47.23 1100.29,47.23 "/>
    <path class="fil7" d="M1100.29 47.23c113.58,10.51 225.79,20.91 336.55,31.15 109.27,10.11 217.25,20.08 323.8,29.94 0.14,254.89 0.25,509.65 0.43,764.39 0.11,254.72 0.25,509.79 0.34,764.7 -106.69,0 -214.78,0 -324.2,0 -110.88,0 -223.18,0 -336.93,0 0,-265.09 0,-530.34 0,-795.26 0,-264.92 0,-530.01 0,-794.93z"/>
    <polygon class="fil8" points="1656.54,1131.77 1656.68,1465.08 1211.83,1460.46 1211.76,1118.27 "/>
    <polygon class="fil9" points="1656.54,1131.77 1656.68,1465.08 1634.28,1464.84 1634.28,1152.49 "/>
    <path class="fil8" d="M1656.36 676.92c0.04,110.31 0.07,220.67 0.14,330.82 -72.51,-2.74 -145.73,-5.53 -219.47,-8.31 -74.32,-2.81 -149.51,-5.66 -225.27,-8.5 0,-113.15 0,-226.42 0,-339.68 75.73,4.37 150.88,8.7 225.2,13.01 73.75,4.24 146.88,8.47 219.4,12.65z"/>
    <polygon class="fil9" points="1656.36,676.92 1656.5,1007.75 1634.35,1006.9 1634.28,701.43 "/>
    <path class="fil8" d="M1211.72 187.08c75.69,6.44 150.81,12.8 225.15,19.13 73.69,6.27 146.79,12.48 219.33,18.63 0.02,109.56 0.06,218.8 0.09,328.23 -72.49,-4.74 -145.62,-9.52 -219.35,-14.32 -74.33,-4.84 -149.49,-9.76 -225.22,-14.68 0,-112.33 0,-224.65 0,-337z"/>
    <polygon class="fil9" points="1656.2,224.84 1656.29,553.07 1634.28,551.62 1634.2,244.6 "/>
    <polygon class="fil10" points="645.86,1637.42 1536.31,1637.42 1536.71,880.31 645.86,880.31 "/>
    <polygon class="fil11" points="1327.4,1637.42 1536.64,1637.42 1536.71,880.31 1327.4,880.31 "/>
    <path class="fil3" d="M997.26 1375.62c41.56,1.88 76.52,30.63 89.42,70.17 -8.59,-7.34 -19.58,-11.72 -31.54,-11.72 -11.74,0 -22.54,4.26 -31.07,11.39 -7.52,-6.27 -16.74,-10.28 -26.81,-11.21l0 109.6c0,3.51 1.36,6.73 3.56,9.05 2.24,2.33 5.32,3.78 8.68,3.78l0 -0.02 0 0.02c3.42,0 6.46,-1.46 8.7,-3.78 2.2,-2.34 3.56,-5.55 3.56,-9.05l0 -0.04 8.77 0 0 0.04 -0.04 0c0,6.07 -2.32,11.6 -6.14,15.57 -3.81,3.99 -9.06,6.45 -14.86,6.45l0 0.02 0 -0.02c-5.81,0 -11.06,-2.46 -14.82,-6.45 -3.81,-3.97 -6.16,-9.5 -6.16,-15.57l-0.04 0 0 -109.56c-10.01,0.94 -19.18,4.94 -26.63,11.17 -8.54,-7.12 -19.35,-11.39 -31.09,-11.39 -11.95,0 -22.93,4.38 -31.5,11.72 12.87,-39.46 47.72,-68.23 89.23,-70.14l0 -15.18 8.77 0 0 15.14z"/>
    <path class="fil3" d="M1168.91 1535.31l0 -122.87 10.9 0 -20.76 -40.25 -20.77 40.25 10.9 0 0 122.87 19.72 0zm81.73 0l0 -122.87 10.88 0 -20.76 -40.25 -20.75 40.25 10.88 0 0 122.87 19.74 0 0 0zm-125.42 8.38l149.4 0 0 22.2 -149.4 0 0 -22.2z"/>
    <path class="fil3" d="M854.84 1374.77c-7.77,58.03 -36.68,102.06 -71.88,106.33l0 69.24 34.4 0 0 15.54 -80.11 0 0 -15.54 34.4 0 0 -69.24c-35.24,-4.28 -64.15,-48.3 -71.88,-106.33l111.83 0 9.02 21.03 -10.04 -1.07 10.29 39.02 -3.44 -32.92 7.99 0.33 -1.79 -26.4 31.22 0z"/>
    <polygon class="fil12" points="931.75,880.31 1028.47,880.31 1028.47,1025.38 1013.1,1028.9 996.28,1016.87 971.54,1031.57 952.84,1017.18 931.75,1029.65 "/>
    <polygon class="fil12" points="1407.5,880.31 1456.61,880.31 1456.61,1025.38 1448.79,1028.9 1440.29,1016.87 1427.67,1031.57 1418.2,1017.18 1407.5,1029.65 "/>
    <path class="fil13" d="M1715.55 868.23c12.14,0 22.06,-12.46 22.06,-27.78 0,-15.29 -9.92,-27.78 -22.06,-27.78 -12.14,0 -22.05,12.49 -22.05,27.78 0,15.32 9.91,27.78 22.05,27.78z"/>
    <path class="fil1" d="M1740.45 880.06c17.86,0 32.44,-18.35 32.44,-40.88 0,-22.52 -14.57,-40.88 -32.44,-40.88 -17.89,0 -32.48,18.36 -32.48,40.88 0,22.54 14.59,40.88 32.48,40.88z"/>
   </g>
   <path class="fil14" d="M227.22 602.16c-10.5,0 -19.03,-8.53 -19.03,-19.03 0,-10.5 8.53,-19.05 19.03,-19.05 10.48,0 19.03,8.55 19.03,19.05 0,10.5 -8.54,19.03 -19.03,19.03zm0 -30.46l0 0c-6.3,0 -11.43,5.12 -11.43,11.43 0,6.31 5.13,11.41 11.43,11.41 6.29,0 11.41,-5.1 11.41,-11.41 0,-6.31 -5.12,-11.43 -11.41,-11.43z"/>
   <path class="fil14" d="M280.5 579.33c-2.1,0 -3.8,-1.7 -3.8,-3.82l0 -72.33 -64.71 0c-10.51,0 -19.03,8.53 -19.03,19.03l0 49.49 6.15 0c4.63,-11.47 15.59,-19.03 28.1,-19.03 12.52,0 23.46,7.56 28.11,19.03l9.97 0c2.1,0 3.8,1.72 3.8,3.81 0,2.12 -1.7,3.82 -3.8,3.82l-12.66 0c-1.68,0 -3.18,-1.1 -3.66,-2.73 -2.93,-9.77 -11.67,-16.32 -21.76,-16.32 -10.09,0 -18.82,6.54 -21.75,16.32 -0.49,1.62 -1.98,2.73 -3.66,2.73l-12.65 0c-2.1,0 -3.8,-1.7 -3.8,-3.82l0 -53.3c0,-14.7 11.95,-26.64 26.64,-26.64l68.51 0c2.12,0 3.82,1.7 3.82,3.81l0 76.13c0,2.12 -1.7,3.82 -3.82,3.82z"/>
   <path class="fil14" d="M303.35 602.16c-10.51,0 -19.03,-8.53 -19.03,-19.03 0,-10.5 8.53,-19.05 19.03,-19.05 10.5,0 19.03,8.55 19.03,19.05 0,10.5 -8.53,19.03 -19.03,19.03zm0 -30.46l0 0c-6.29,0 -11.44,5.12 -11.44,11.43 0,6.31 5.14,11.41 11.44,11.41 6.29,0 11.41,-5.1 11.41,-11.41 0,-6.31 -5.13,-11.43 -11.41,-11.43z"/>
   <path class="fil14" d="M341.4 579.33l-12.64 0c-1.68,0 -3.17,-1.1 -3.64,-2.73 -2.93,-9.77 -11.69,-16.32 -21.78,-16.32 -1.98,0 -4.06,0.34 -6.53,1.09 -1.15,0.34 -2.39,0.12 -3.36,-0.61 -0.97,-0.71 -1.54,-1.84 -1.54,-3.05l0 -43.12c0,-2.08 1.72,-3.8 3.82,-3.8l22.84 0c1.19,0 2.34,0.56 3.05,1.52l22.83 30.46c0.49,0.65 0.77,1.46 0.77,2.27l0 30.46c0,2.12 -1.7,3.82 -3.82,3.82zm-9.95 -7.63l0 0 6.15 0 0 -25.38 -20.93 -27.91 -17.13 0 0 34.53c1.3,-0.2 2.55,-0.28 3.8,-0.28 12.5,0 23.47,7.56 28.1,19.03z"/>
  </g>
 </g>
</svg>
