<?xml version="1.0" encoding="UTF-8"?>
<!DOCTYPE svg PUBLIC "-//W3C//DTD SVG 1.1//EN" "http://www.w3.org/Graphics/SVG/1.1/DTD/svg11.dtd">
<!-- Creator: CorelDRAW Standard 2021 (64 Bit) -->
<svg xmlns="http://www.w3.org/2000/svg" xml:space="preserve" width="446.156mm" height="373.292mm" version="1.1" style="shape-rendering:geometricPrecision; text-rendering:geometricPrecision; image-rendering:optimizeQuality; fill-rule:evenodd; clip-rule:evenodd"
viewBox="0 0 1843.97 1542.82"
 xmlns:xlink="http://www.w3.org/1999/xlink"
 xmlns:xodm="http://www.corel.com/coreldraw/odm/2003">
 <defs>
  <style type="text/css">
   <![CDATA[
    .fil7 {fill:#FEFEFE}
    .fil3 {fill:#F9B184}
    .fil5 {fill:#D39773}
    .fil11 {fill:#D9997D}
    .fil9 {fill:#986452}
    .fil10 {fill:#2A3136}
    .fil2 {fill:#012E42}
    .fil8 {fill:#094561}
    .fil6 {fill:#9C6B4A}
    .fil4 {fill:#F59B2C}
    .fil12 {fill:white}
    .fil0 {fill:#094561;fill-rule:nonzero}
    .fil1 {fill:#094561;fill-rule:nonzero}
    .fil14 {fill:#F59B2C;fill-rule:nonzero}
    .fil13 {fill:white;fill-rule:nonzero}
   ]]>
  </style>
 </defs>
 <g id="Camada_x0020_1">
  <metadata id="CorelCorpID_0Corel-Layer"/>
  <g id="_1780417837008">
   <path class="fil0" d="M1558.47 226.03c-3.25,-1.32 -6.34,-2.7 -9.12,-4.13 -41.05,-21.16 -35.41,-64.04 9.1,-79.46l0.02 83.59zm-0.02 -185.66c-93.24,9.09 -181.21,51.31 -185.12,153.21 -4.41,114.6 91.05,148.15 185.15,171.03l0.02 127.18c-46.42,-20.29 -47.95,-74.48 -47.95,-74.48l-158.08 17.92c12.18,110.98 107.93,151.97 206.03,158.41l0.02 42.41 32.95 0 0 -636.04 -33.03 0 0 40.37z"/>
   <path class="fil0" d="M1634.23 495.83l-0.02 -110.48c37.77,13.03 50.79,25.54 56.87,46.82 7.29,25.48 -11.07,53.91 -56.84,63.66zm165.72 -174.03c-47.19,-41.77 -111.51,-60.31 -165.76,-74.13l0 -102.82c32.38,15.35 38.95,47.18 38.95,47.18l153.64 -25.36c-17.39,-70.85 -92.24,-117.91 -192.6,-126.74l-0.02 -39.93 -26.6 0 0 636.04 26.7 0 0 -43.8c54.46,-5.34 102.59,-19.22 128.45,-34.75 82.01,-49.23 114.82,-167.06 37.25,-235.68z"/>
   <path class="fil1" d="M668.81 1497.27c-368.82,0 -668.81,-299.99 -668.81,-668.81 0,-368.68 299.99,-668.81 668.81,-668.81 368.68,0 668.67,300.14 668.67,668.81 0,368.82 -299.99,668.81 -668.67,668.81zm0 -1273.94l0 0c-333.57,0 -605.08,271.51 -605.08,605.13 0,333.76 271.51,605.08 605.08,605.08 333.62,0 604.98,-271.32 604.98,-605.08 0,-333.61 -271.37,-605.13 -604.98,-605.13z"/>
   <path class="fil1" d="M678.57 1497.27c-196.54,0 -350.28,-293.7 -350.28,-668.81 0,-374.97 153.74,-668.81 350.28,-668.81 196.44,0 350.33,293.85 350.33,668.81 0,375.11 -153.89,668.81 -350.33,668.81zm0 -1273.94l0 0c-155.38,0 -286.59,277.18 -286.59,605.13 0,328.14 131.22,605.08 286.59,605.08 155.38,0 286.59,-276.94 286.59,-605.08 0,-327.95 -131.22,-605.13 -286.59,-605.13z"/>
   <path class="fil1" d="M678.57 667.45c-301.63,0 -577.46,-60.42 -580.1,-60.9 -17.24,-3.79 -27.95,-20.99 -24.35,-38.04 3.84,-17.05 20.89,-28 38.09,-24.35 2.64,0.67 271.85,59.75 566.37,59.75 294.9,0 563.58,-59.08 566.22,-59.75 17.39,-3.65 34.29,7.3 38.09,24.35 3.79,17.05 -7.11,34.25 -24.16,38.04 -2.64,0.48 -278.48,60.9 -580.15,60.9z"/>
   <path class="fil1" d="M105.24 1115.04c-14.55,0 -27.81,-9.94 -31.12,-24.83 -3.6,-17.19 7.11,-34.25 24.35,-38.04 2.64,-0.67 278.48,-61.09 580.1,-61.09 301.68,0 577.51,60.42 580.15,61.09 17.05,3.79 27.95,20.84 24.16,38.04 -3.79,17.05 -20.7,28.15 -38.09,24.16 -2.64,-0.67 -271.66,-59.56 -566.22,-59.56 -294.85,0 -563.73,58.88 -566.37,59.56 -2.31,0.48 -4.66,0.67 -6.96,0.67z"/>
   <path class="fil1" d="M678.57 1497.27c-17.67,0 -31.94,-14.26 -31.94,-31.8l0 -1273.89c0,-17.58 14.27,-31.94 31.94,-31.94 17.53,0 31.8,14.36 31.8,31.94l0 1273.89c0,17.53 -14.26,31.8 -31.8,31.8z"/>
   <polygon class="fil2" points="1206.18,1542.82 1206.18,1472.5 785.26,1472.5 785.19,1542.82 "/>
   <path class="fil3" d="M1270.55 750.44l-201.11 -68.98 -75.6 0 -0.54 0 -75.59 0 -201.1 68.98c0,0 -65.08,23.43 -85.91,100.21l-23.43 92.42 386.03 0 0.54 0 391.78 0 -29.18 -92.42c-26.78,-72.87 -85.9,-100.21 -85.9,-100.21z"/>
   <path class="fil4" d="M1270.55 750.44l-199.25 -68.98 -77.5 100.16 -1.25 0 -76.1 -100.03 -199.83 68.85c0,0 -65.08,23.43 -85.91,100.21l-23.43 92.42 384.55 0.13 -0.32 0 394.12 -0.13 -29.18 -92.42c-26.78,-72.87 -85.9,-100.21 -85.9,-100.21z"/>
   <polygon class="fil3" points="1070.01,700.98 917.73,700.98 917.73,554.55 1070.01,554.55 "/>
   <path class="fil5" d="M1020.73 665.08c16.39,-2.98 33.37,-6.85 49.28,-12.98l0 -97.55 -152.28 0 0 82.68c34.01,14.67 62.56,35.25 103,27.85z"/>
   <path class="fil3" d="M1175.1 353.37c0.52,-122.61 -80.11,-222.34 -180.1,-222.76 -99.96,-0.42 -181.43,98.62 -181.95,221.23l-0.46 107.74c0,0 9.76,116.17 113.75,161.02 0,0 23.84,16.56 66.49,25.58 0,0 63.24,-9.66 88.96,-35.18 0,0 78.77,-44.07 92.85,-146.48l0.47 -111.15z"/>
   <path class="fil3" d="M1175.12 393.48c0,0 24.83,-34.16 20.79,26.36 0,0 -3.04,58.57 -27.32,49.78l6.53 -76.13z"/>
   <path class="fil3" d="M817.59 396.4c0,0 -31.37,-37.08 -27.32,23.43 0,0 3.02,58.57 27.32,49.78l0 -73.21z"/>
   <path class="fil6" d="M1168.76 113.54c-5.37,17.54 -40.67,17.63 -40.67,17.63 0.16,-37.84 -26.03,-74.54 -26.03,-74.54 -4,22.45 -42.21,51.36 -42.21,51.36 1.09,-26.55 -17.63,-61.36 -17.63,-61.36 -4.31,21.46 -64.33,53.42 -64.33,53.42 10.43,-9.72 -14.45,-46.92 -14.45,-46.92 -8.9,29.22 -44.48,67.57 -44.53,67.64 -69.42,23.6 -147.57,89.27 -106.04,269.96l4.51 60.07 10.97 0.05 1.56 -63.14c0,0 -9.85,-137.02 57.9,-152.36 0,-0 115,-27.82 218.67,0.93 0,0 57.86,-2.85 55.29,165.22l-0.21 50.75 8.35 0.03 5 -55.49c0,0 6.96,-32.77 6.93,-76.24 51.16,-115.94 -13.08,-207.01 -13.08,-207.01z"/>
   <polygon class="fil7" points="916.4,681.45 823.94,700.98 992.55,781.62 "/>
   <polygon class="fil7" points="1071.3,681.45 1157.14,700.98 992.55,781.62 "/>
   <polygon class="fil8" points="764.05,941.43 765.94,1485.49 1225.15,1485.49 1225.15,941.43 "/>
   <path class="fil7" d="M738.02 743.59c0,0 36.46,111.94 26.03,197.84l-46.85 122.35 -161.4 -46.86c0,0 45.31,-255.12 182.22,-273.34z"/>
   <path class="fil7" d="M1253.04 743.59c0,0 -36.46,111.94 -26.04,197.84l46.88 122.35 161.39 -46.86c0,0 -45.31,-255.12 -182.23,-273.34z"/>
   <polygon class="fil3" points="597,1028.88 549.48,1204.56 670.34,1248.61 717.2,1063.78 "/>
   <polygon class="fil2" points="1105.33,1243.32 826.94,1378.92 620.61,955.33 899,819.74 "/>
   <path class="fil3" d="M555.8 1181.21l322.8 -68.63 29.65 54.68 -260.03 128.85c0,0 -150.43,13.56 -92.41,-114.9z"/>
   <path class="fil2" d="M1607.25 1346.9c0,11 -8.92,19.92 -19.92,19.92l-450.44 0c-11,0 -19.93,-8.92 -19.93,-19.92l0 -559.06c0,-11.01 8.92,-19.92 19.92,-19.92l450.44 0c11,0 19.92,8.91 19.92,19.92l0 559.06z"/>
   <path class="fil4" d="M1635.17 1361.78c0,11 -8.93,19.92 -19.92,19.92l-450.44 0c-11,0 -19.92,-8.92 -19.92,-19.92l0 -559.07c0,-11 8.92,-19.92 19.92,-19.92l450.44 0c11,0 19.92,8.92 19.92,19.92l0 559.07z"/>
   <polygon class="fil2" points="1511.27,826.17 1268.76,826.17 1268.76,732.14 1511.27,732.14 "/>
   <path class="fil2" d="M1331.37 736.07l0 -31.89c0,-7.43 6.02,-13.44 13.43,-13.44l90.44 0c7.42,0 13.43,6.01 13.43,13.44l0 31.89 13.93 0 0 -37.71c0,-9.18 -7.44,-16.63 -16.63,-16.63l-111.9 0c-9.18,0 -16.64,7.45 -16.64,16.63l0 37.71 13.93 0z"/>
   <g>
    <path class="fil3" d="M1080.98 1101.03c14.99,-16.71 -5.88,-17.76 -5.88,-17.76l-82.37 27.31c-6.18,-0.88 -2.77,-7.05 -2.77,-7.05l100.55 -33.34c13.13,-16.11 -6.08,-18.39 -6.08,-18.39l-95.25 31.6c-9.66,-1.25 -1.16,-8.59 -1.16,-8.59l15.24 -3.92c2.79,-0.91 5.54,-1.82 8.33,-2.73 12.11,-3.98 24.13,-8.25 36.3,-12.04 5.86,-1.83 11.59,-4.15 17.48,-5.85 18.16,-19.6 -7.57,-19.16 -7.57,-19.16 -19.81,6.63 -42.77,13.34 -62.57,20.03l-44.01 14.59c7.64,-9.95 39.17,-39.59 27.46,-51.77 -5.28,-5.51 -12.38,-1.91 -17.58,1.92l-38.38 41.75c0,0 -35.36,31.87 -38.5,52.75l-15.09 5c2.55,9.96 3.62,20.19 6.02,30.15 2.33,9.67 4.45,19.4 6.46,29.14l24.95 -8.27c0,0 13.47,12.02 25.12,10.55 25.58,-3.24 73.51,-20.59 73.51,-20.59l44.46 -14.56c22,-17.18 -6.08,-18.29 -6.08,-18.29l-43.32 13.54c-7.95,-2.42 -1.51,-8.32 -1.51,-8.32l82.24 -27.7z"/>
    <g>
     <path class="fil3" d="M1418.47 1382.16l-0.4 -20.64c-11.53,-30.19 -22.32,0.51 -22.32,0.51l0.11 20.13 22.61 0z"/>
     <path class="fil3" d="M1385.42 1382.16l-1.8 -69.2c-13.42,-22.28 -21.68,0.49 -21.68,0.49l1.5 68.71 21.98 0z"/>
     <path class="fil3" d="M1354.69 1382.16l-1.96 -90.24c-13.37,-20.01 -22.41,0.48 -22.41,0.48l1.96 89.76 22.42 0z"/>
     <path class="fil3" d="M1323.69 1382.16c-0.02,-1.18 -0.06,-2.37 -0.07,-3.56 -0.31,-14.76 -0.95,-29.52 -1,-44.27 -0.03,-7.13 -0.65,-14.23 -0.51,-21.34 -15.53,-26.78 -23.78,1.85 -23.78,1.85 0.52,21.34 0.31,45.33 0.72,67.33l24.64 0z"/>
     <path class="fil3" d="M1286.37 1381.48l132.11 -0.27c0,0 -0.51,56.52 -88.16,39.18 0,0 -46.2,-13.01 -43.95,-38.91z"/>
    </g>
   </g>
   <path class="fil9" d="M945 509.58c0,0 1.37,1.19 3.91,2.99 2.54,1.81 6.28,4.22 11.04,6.51 2.3,1.28 5.04,2.18 7.76,3.4 2.89,0.84 5.81,2.03 9.03,2.62 1.6,0.33 3.18,0.79 4.84,1.03 1.65,0.2 3.33,0.4 5.02,0.6 3.37,0.53 6.85,0.2 10.29,0.35 3.43,-0.39 6.91,-0.5 10.27,-1.11 3.32,-0.84 6.7,-1.22 9.82,-2.2 3.13,-1 6.16,-1.97 9.03,-2.89 2.78,-1.2 5.42,-2.33 7.85,-3.38 1.23,-0.52 2.4,-1.01 3.53,-1.48 1.07,-0.56 2.1,-1.09 3.06,-1.6 1.93,-1.01 3.6,-1.89 4.98,-2.62 2.79,-1.45 4.43,-2.22 4.43,-2.22 0,0 -1.38,1.14 -3.89,3.05 -1.26,0.95 -2.8,2.1 -4.56,3.42 -0.89,0.66 -1.84,1.36 -2.83,2.1 -1.07,0.61 -2.2,1.26 -3.38,1.93 -2.37,1.34 -4.94,2.83 -7.71,4.28 -2.92,1.17 -6.01,2.4 -9.19,3.67 -3.24,1.15 -6.75,1.87 -10.27,2.75 -3.56,0.71 -7.27,0.92 -10.94,1.36 -3.7,-0.2 -7.43,0.06 -11.04,-0.56 -1.8,-0.28 -3.59,-0.56 -5.35,-0.84 -1.75,-0.34 -3.43,-0.91 -5.1,-1.35 -3.39,-0.76 -6.4,-2.32 -9.35,-3.45 -2.8,-1.48 -5.5,-2.75 -7.74,-4.35 -2.34,-1.43 -4.3,-3.01 -6.01,-4.42 -1.7,-1.43 -3.12,-2.74 -4.24,-3.86 -2.24,-2.25 -3.27,-3.74 -3.27,-3.74z"/>
   <path class="fil10" d="M881.21 397.18c0,0 38.64,-31.32 77.27,7.77 0,0 -47.55,-24.88 -80.79,4.9 0,-0 -5.98,-4.9 3.52,-12.67z"/>
   <path class="fil10" d="M1110.18 397.18c0,0 -38.63,-31.32 -77.28,7.77 0,0 47.56,-24.88 80.77,4.9 0,-0 6,-4.9 -3.49,-12.67z"/>
   <path class="fil11" d="M1003.03 495.5c0,0 -27.97,-3.73 -14.47,-15.91 6.06,-5.49 30.74,-9.82 35.39,-8.59 0,0 3.09,19.26 -20.92,24.51z"/>
   <path class="fil9" d="M997.32 496.4c7.04,-1.25 13.84,-4.08 18.79,-8.77 2.48,-2.32 4.38,-5.14 5.64,-8.2 0.94,-2.33 3.44,-7.4 0.38,-8.02 -1.12,-0.25 -2.25,-0.52 -3.33,-0.92 -2.17,-0.78 -4.29,-1.86 -6.22,-3.26 -3.87,-2.79 -6.76,-7.24 -7.53,-11.92 -0.89,-4.67 -0.2,-9.29 1.13,-13.47 1.35,-4.2 3.4,-8.06 5.79,-11.63 -0.52,2.1 -1.16,4.12 -1.63,6.18 -0.45,2.06 -0.85,4.11 -1.17,6.14 -0.59,4.06 -0.66,8.14 0.3,11.79 0.96,3.65 3.02,6.76 6.04,8.97 1.48,1.13 3.16,2.05 4.96,2.75 0.89,0.35 1.81,0.69 2.75,0.96 0.91,0.26 1.94,0.5 2.76,0.62l2.1 0.32 -0.13 1.94c-0.25,3.79 -1.19,7.59 -2.85,11.06 -1.68,3.48 -4.18,6.52 -7.17,8.83 -2.96,2.38 -6.41,3.94 -9.9,5.02 -3.5,1.07 -7.13,1.68 -10.72,1.62z"/>
   <path class="fil6" d="M870.7 345.2c0,0 49.14,-23.14 92.1,0 0,0 -36.33,-47.49 -92.1,0z"/>
   <path class="fil6" d="M1024.84 345.2c0,0 49.18,-23.14 92.14,0 0,0 -36.36,-47.49 -92.14,0z"/>
   <polygon class="fil12" points="1434.34,904.04 1176.01,904.04 1176.01,880.04 1434.34,880.04 "/>
   <polygon class="fil12" points="1434.34,965.26 1176.01,965.26 1176.01,941.25 1434.34,941.25 "/>
   <polygon class="fil12" points="1434.34,1030.11 1176.01,1030.11 1176.01,1006.11 1434.34,1006.11 "/>
   <polygon class="fil12" points="1434.34,1091.34 1176.01,1091.34 1176.01,1067.32 1434.34,1067.32 "/>
   <polygon class="fil12" points="1434.34,1157.8 1176.01,1157.8 1176.01,1133.8 1434.34,1133.8 "/>
   <polygon class="fil12" points="1434.34,1219.02 1176.01,1219.02 1176.01,1195.01 1434.34,1195.01 "/>
   <path class="fil12" d="M1602.17 995.03c0,15.01 -11.73,27.19 -26.21,27.19l-81.7 0c-14.48,0 -26.23,-12.17 -26.23,-27.19l0 -87.81c0,-15.01 11.74,-27.18 26.22,-27.18l81.7 0c14.48,0 26.21,12.17 26.21,27.18l0 87.81z"/>
   <polygon class="fil13" points="1500.69,1349.21 1449.33,1304.85 1468.03,1288.7 1500.69,1316.9 1585.34,1243.78 1604.05,1259.9 "/>
   <path class="fil14" d="M1528.21 1008.51l0 -25.64 -32.37 0 0 -10.74 32.37 0 0 -11.22 -32.37 0 0 -11.54 26.5 0 -31.63 -55.61 15.71 0 22.54 40.41c2.51,4.62 4.51,8.63 5.98,12.02 1.31,-2.67 3.5,-6.89 6.54,-12.66l21.34 -39.77 16.67 0 -31.52 55.61 26.55 0 0 11.54 -32.21 0 0 11.22 32.21 0 0 10.74 -32.21 0 0 25.64 -14.1 0z"/>
   <path class="fil12" d="M1602.17 1190.52c0,15.01 -11.73,27.19 -26.21,27.19l-81.7 0c-14.48,0 -26.23,-12.17 -26.23,-27.19l0 -87.81c0,-15.01 11.74,-27.18 26.22,-27.18l81.7 0c14.48,0 26.21,12.17 26.21,27.18l0 87.81z"/>
   <path class="fil14" d="M1554.69 1100.3c-8.76,0 -16.11,2.11 -22.04,6.33 -3.55,2.48 -6.76,6.04 -9.62,10.6 -2.91,4.75 -4.65,9.24 -5.16,13.52l53.32 0 -2.11 10.58 -52.46 0c-0.05,1.1 -0.08,2.14 -0.08,3.1 0,4.01 0.03,6.38 0.08,7.16l50.4 0 -2.19 10.58 -46.56 0c2.16,11.91 7.43,20.38 15.76,25.38 6.01,3.61 12.47,5.4 19.47,5.4 9.75,0 17.34,-2.56 22.81,-7.69l0 16.13c-6.52,3.02 -13.7,4.54 -21.58,4.54 -23.59,0 -39.51,-9.8 -47.79,-29.38 -1.68,-3.95 -3.13,-8.73 -4.3,-14.37l-11.91 0 2.16 -10.58 8.17 0c-0.16,-2.16 -0.24,-4.54 -0.24,-7.08 0,-1.04 0.03,-2.08 0.08,-3.18l-10.18 0 2.16 -10.58 9.03 0c3.23,-16.99 11.67,-29.17 25.27,-36.57 8.39,-4.57 17.66,-6.86 27.78,-6.86 9.7,0 17.84,2.11 24.47,6.33l-3.13 14.5c-6.36,-5.24 -13.57,-7.85 -21.64,-7.85z"/>
  </g>
 </g>
</svg>
