<?xml version="1.0" encoding="UTF-8"?>
<!DOCTYPE svg PUBLIC "-//W3C//DTD SVG 1.1//EN" "http://www.w3.org/Graphics/SVG/1.1/DTD/svg11.dtd">
<!-- Creator: CorelDRAW Standard 2021 (64 Bit) -->
<svg xmlns="http://www.w3.org/2000/svg" xml:space="preserve" width="280.102mm" height="383.022mm" version="1.1" style="shape-rendering:geometricPrecision; text-rendering:geometricPrecision; image-rendering:optimizeQuality; fill-rule:evenodd; clip-rule:evenodd"
viewBox="0 0 623.18 852.16"
 xmlns:xlink="http://www.w3.org/1999/xlink"
 xmlns:xodm="http://www.corel.com/coreldraw/odm/2003">
 <defs>
  <style type="text/css">
   <![CDATA[
    .str0 {stroke:#094561;stroke-width:0.38;stroke-miterlimit:22.9256}
    .fil10 {fill:#E68039}
    .fil16 {fill:#E8E9EA}
    .fil11 {fill:#DB6D3A}
    .fil12 {fill:#D2D4D4}
    .fil13 {fill:#A7C5D1}
    .fil17 {fill:#A9ACAF}
    .fil14 {fill:#959798}
    .fil8 {fill:#094561}
    .fil9 {fill:#F59B2C}
    .fil15 {fill:white}
    .fil2 {fill:#FEFEFE;fill-rule:nonzero}
    .fil5 {fill:#B9D540;fill-rule:nonzero}
    .fil1 {fill:#28576D;fill-rule:nonzero}
    .fil3 {fill:#094561;fill-rule:nonzero}
    .fil7 {fill:#094561;fill-rule:nonzero}
    .fil6 {fill:#1A1A1A;fill-rule:nonzero}
    .fil4 {fill:#F59B2C;fill-rule:nonzero}
    .fil0 {fill:white;fill-rule:nonzero}
   ]]>
  </style>
 </defs>
 <g id="Camada_x0020_1">
  <metadata id="CorelCorpID_0Corel-Layer"/>
  <g id="_1780724988640">
   <path class="fil0 str0" d="M236.09 129.63c0.34,-3.7 0.55,-7.43 0.55,-11.22 0,-65.31 -52.94,-118.23 -118.24,-118.23 -65.29,0 -118.21,52.93 -118.21,118.23 0,244.47 0,489.04 0,733.55l621.64 0 0 -722.33 -385.73 0z"/>
   <polygon class="fil1" points="1.54,380.89 623.18,380.89 623.18,191.77 1.54,191.77 "/>
   <path class="fil1" d="M601.6 380.89l-316.68 0 0 -72.65c2.07,-6.41 3.19,-13.25 3.19,-20.36 0,-8.74 -1.68,-17.07 -4.77,-24.72l0 0c-9.78,-24.27 -33.55,-41.38 -61.31,-41.38 -10.33,0 -20.11,2.36 -28.82,6.59l0 0c-6.66,3.22 -12.68,7.54 -17.84,12.7l-152.26 0 0 -49.3 578.49 0 0 189.12zm-25.28 -124.35l0 5.55 16.2 15.76 0 0.15 -16.2 15.74 0 5.55 19.22 -19.2 0 -4.34 -19.22 -19.2zm-335.15 -14.49c-3.21,-0.65 -6.52,-0.99 -9.9,-0.99l-25.79 0c5.17,-1.84 10.73,-2.84 16.56,-2.84 6.78,0 13.25,1.35 19.14,3.83z"/>
   <polygon class="fil2" points="576.32,299.28 576.32,293.74 592.51,278 592.51,277.85 576.32,262.09 576.32,256.54 595.54,275.74 595.54,280.08 "/>
   <g>
    <polygon class="fil3" points="47.05,578.16 576.32,578.16 576.32,569.52 47.05,569.52 "/>
    <polygon class="fil3" points="47.71,597.72 576.99,597.72 576.99,589.1 47.71,589.1 "/>
    <polygon class="fil3" points="49.2,618.24 578.48,618.24 578.48,609.61 49.2,609.61 "/>
    <polygon class="fil3" points="49.87,637.8 579.14,637.8 579.14,629.16 49.87,629.16 "/>
   </g>
   <polygon class="fil4" points="47.05,536.95 180.45,536.95 180.45,432.26 47.05,432.26 "/>
   <polygon class="fil3" points="243.83,536.95 377.22,536.95 377.22,432.26 243.83,432.26 "/>
   <polygon class="fil4" points="442.92,536.95 576.32,536.95 576.32,432.26 442.92,432.26 "/>
   <polygon class="fil5" points="284.92,536.95 284.92,432.26 "/>
   <path class="fil3" d="M482.2 522.99c-7.56,0 -13.7,-6.14 -13.7,-13.7 0,-7.56 6.14,-13.72 13.7,-13.72 7.55,0 13.7,6.16 13.7,13.72 0,7.56 -6.15,13.7 -13.7,13.7zm0 -21.94l0 0c-4.54,0 -8.23,3.69 -8.23,8.23 0,4.54 3.69,8.22 8.23,8.22 4.53,0 8.22,-3.68 8.22,-8.22 0,-4.54 -3.69,-8.23 -8.22,-8.23z"/>
   <path class="fil3" d="M520.58 506.55c-1.51,0 -2.73,-1.22 -2.73,-2.75l0 -52.09 -46.61 0c-7.57,0 -13.7,6.14 -13.7,13.7l0 35.64 4.43 0c3.33,-8.26 11.23,-13.7 20.24,-13.7 9.02,0 16.9,5.44 20.24,13.7l7.18 0c1.51,0 2.74,1.24 2.74,2.75 0,1.53 -1.23,2.75 -2.74,2.75l-9.12 0c-1.21,0 -2.29,-0.79 -2.63,-1.96 -2.11,-7.04 -8.41,-11.75 -15.67,-11.75 -7.27,0 -13.56,4.71 -15.67,11.75 -0.36,1.17 -1.43,1.96 -2.64,1.96l-9.11 0c-1.51,0 -2.74,-1.22 -2.74,-2.75l0 -38.39c0,-10.59 8.6,-19.19 19.19,-19.19l49.34 0c1.53,0 2.75,1.22 2.75,2.75l0 54.83c0,1.53 -1.22,2.75 -2.75,2.75z"/>
   <path class="fil3" d="M537.04 522.99c-7.57,0 -13.71,-6.14 -13.71,-13.7 0,-7.56 6.14,-13.72 13.71,-13.72 7.56,0 13.7,6.16 13.7,13.72 0,7.56 -6.14,13.7 -13.7,13.7zm0 -21.94l0 0c-4.53,0 -8.24,3.69 -8.24,8.23 0,4.54 3.7,8.22 8.24,8.22 4.53,0 8.22,-3.68 8.22,-8.22 0,-4.54 -3.69,-8.23 -8.22,-8.23z"/>
   <path class="fil3" d="M564.45 506.55l-9.1 0c-1.21,0 -2.28,-0.79 -2.62,-1.96 -2.11,-7.04 -8.42,-11.75 -15.68,-11.75 -1.43,0 -2.92,0.24 -4.7,0.78 -0.83,0.24 -1.72,0.09 -2.42,-0.44 -0.7,-0.51 -1.11,-1.33 -1.11,-2.2l0 -31.05c0,-1.5 1.24,-2.74 2.75,-2.74l16.45 0c0.86,0 1.68,0.4 2.2,1.1l16.44 21.94c0.36,0.47 0.55,1.05 0.55,1.64l0 21.94c0,1.53 -1.22,2.75 -2.75,2.75zm-7.17 -5.5l0 0 4.43 0 0 -18.28 -15.07 -20.1 -12.34 0 0 24.87c0.94,-0.14 1.84,-0.2 2.74,-0.2 9,0 16.91,5.44 20.24,13.7z"/>
   <path class="fil4" d="M333.49 520.2c-0.92,0 -1.75,-0.68 -1.92,-1.62 -0.61,-3.37 -1.52,-6.69 -3.03,-11.02 -4.78,-3.21 -11.3,-5.49 -18.45,-6.43 -0.98,-0.12 -1.7,-0.96 -1.7,-1.94 -0.02,-0.51 -0.21,-3.55 -0.47,-4.75 -0.17,-0.75 0.11,-1.52 0.71,-1.98 3.24,-2.5 5.78,-8.93 5.78,-14.65 0,-7.83 -4.86,-13.09 -12.1,-13.09 -7.24,0 -12.11,5.26 -12.11,13.09 0,5.71 2.54,12.15 5.78,14.65 0.6,0.46 0.89,1.23 0.73,1.97 -0.27,1.2 -0.45,4.25 -0.47,4.81 -0.03,0.96 -0.75,1.76 -1.7,1.89 -7.25,0.97 -13.85,3.29 -18.65,6.57 -1.49,4.3 -2.39,7.58 -2.98,10.87 -0.19,1.07 -1.23,1.75 -2.29,1.58 -1.06,-0.2 -1.77,-1.21 -1.58,-2.29 0.66,-3.66 1.67,-7.26 3.36,-12.06 0.13,-0.38 0.37,-0.72 0.7,-0.94 5,-3.58 11.81,-6.18 19.3,-7.38 0.07,-0.83 0.15,-1.82 0.27,-2.69 -4.2,-3.97 -6.39,-11.35 -6.39,-16.97 0,-10.02 6.6,-17.02 16.03,-17.02 9.43,0 16.03,7.01 16.03,17.02 0,5.63 -2.2,13 -6.42,16.97 0.12,0.87 0.21,1.86 0.28,2.69 7.38,1.18 14.13,3.72 19.1,7.23 0.31,0.22 0.58,0.56 0.71,0.94 1.71,4.83 2.72,8.5 3.4,12.24 0.19,1.06 -0.51,2.09 -1.58,2.28 -0.11,0.02 -0.23,0.03 -0.36,0.03z"/>
   <path class="fil4" d="M350.05 508.42c-0.94,0 -1.76,-0.66 -1.94,-1.61 -0.6,-3.37 -1.51,-6.7 -3.03,-11.02 -4.78,-3.21 -11.29,-5.49 -18.44,-6.43 -0.98,-0.12 -1.7,-0.96 -1.7,-1.94 -0.02,-0.51 -0.22,-3.55 -0.48,-4.75 -0.17,-0.74 0.12,-1.51 0.71,-1.98 3.25,-2.5 5.8,-8.93 5.8,-14.65 0,-7.83 -4.88,-13.1 -12.12,-13.1 -4.35,0 -8.05,2.01 -10.16,5.5 -0.56,0.94 -1.76,1.23 -2.69,0.66 -0.93,-0.56 -1.22,-1.76 -0.66,-2.69 2.83,-4.7 7.76,-7.4 13.51,-7.4 9.44,0 16.04,7.01 16.04,17.02 0,5.63 -2.2,13.01 -6.42,16.97 0.12,0.87 0.22,1.87 0.28,2.69 7.39,1.18 14.12,3.72 19.1,7.23 0.32,0.22 0.57,0.56 0.71,0.95 1.71,4.83 2.72,8.49 3.41,12.23 0.18,1.07 -0.52,2.09 -1.59,2.28 -0.12,0.02 -0.24,0.03 -0.35,0.03z"/>
   <polygon class="fil3" points="95.2,522.21 58.57,490.57 71.91,479.04 95.2,499.16 155.59,447.01 168.93,458.51 "/>
   <g>
    <path class="fil0" d="M516.11 286.33c0,35.84 -29.06,64.92 -64.9,64.92 -35.87,0 -64.92,-29.07 -64.92,-64.92 0,-35.84 29.04,-64.92 64.92,-64.92 35.84,0 64.9,29.07 64.9,64.92z"/>
    <g>
     <polygon class="fil6" points="484.85,298.17 484.97,298.04 484.85,297.92 484.72,298.04 "/>
     <path class="fil3" d="M478.49 334.74c2.8,0 5.09,-2.27 5.09,-5.05l0 -47.93 -66.15 0 0 47.93c0,2.78 2.29,5.05 5.09,5.05l55.98 0z"/>
     <path class="fil3" d="M431.38 265.5c-0.03,-10.21 8.56,-18.52 19.12,-18.52 10.55,0 19.14,8.31 19.14,18.52l-0 13.84 9.15 0 0 -13.84 0.01 0c0,-15.25 -12.68,-27.59 -28.3,-27.59 -15.63,0 -28.3,12.34 -28.3,27.59l0.02 0 0 13.84 9.17 0 0 -13.84z"/>
     <path class="fil0" d="M457.83 299.8c0,-3.8 -3.11,-6.89 -6.95,-6.89 -3.84,0 -6.95,3.09 -6.95,6.89 0,1.89 1.48,3.59 2.72,4.82l-2.4 17.1 1.07 1.18 10.97 0 1.08 -1.18 -2.39 -16.96c1.32,-1.25 2.86,-3.01 2.86,-4.96z"/>
    </g>
   </g>
   <path class="fil7" d="M91.9 807.89c-8.17,0 -16.29,-1.09 -24.36,-3.28 -8.06,-2.18 -14.89,-5.29 -20.49,-9.32l10.58 -20.83c4.48,3.25 9.69,5.82 15.62,7.73 5.94,1.9 11.93,2.86 17.97,2.86 6.83,0 12.21,-1.34 16.13,-4.03 3.92,-2.69 5.88,-6.38 5.88,-11.09 0,-4.48 -1.74,-8.01 -5.21,-10.58 -3.47,-2.58 -9.07,-3.86 -16.8,-3.86l-12.43 0 0 -17.97 32.76 -37.12 3.02 9.74 -61.65 0 0 -21.84 82.31 0 0 17.64 -32.59 37.12 -13.77 -7.9 7.9 0c14.45,0 25.36,3.25 32.76,9.74 7.39,6.5 11.09,14.84 11.09,25.03 0,6.61 -1.74,12.79 -5.21,18.56 -3.47,5.77 -8.79,10.44 -15.96,14.03 -7.17,3.58 -16.35,5.38 -27.55,5.38zm79.45 -2.02l0 -107.51 11.76 11.76 -35.28 0 0 -21.84 50.73 0 0 117.59 -27.21 0z"/>
   <g>
    <g>
     <path class="fil3" d="M522.58 734.07c0,2.77 -2.16,5.02 -4.82,5.02 -2.66,0 -4.82,-2.25 -4.82,-5.02 0,-2.77 2.16,-5.01 4.82,-5.01 2.66,0 4.82,2.24 4.82,5.01z"/>
     <path class="fil3" d="M539.79 734.07c0,2.77 -2.16,5.02 -4.82,5.02 -2.66,0 -4.82,-2.25 -4.82,-5.02 0,-2.77 2.16,-5.01 4.82,-5.01 2.66,0 4.82,2.24 4.82,5.01z"/>
     <path class="fil3" d="M557.01 734.07c0,2.77 -2.16,5.02 -4.82,5.02 -2.66,0 -4.82,-2.25 -4.82,-5.02 0,-2.77 2.16,-5.01 4.82,-5.01 2.66,0 4.82,2.24 4.82,5.01z"/>
    </g>
    <path class="fil3" d="M567 703.29l-64.88 0c-5.14,0 -9.32,4.35 -9.32,9.7l0 39.95c0,5.35 4.18,9.7 9.32,9.7l2.7 0 -5.51 17.61c-0.34,1.09 0.02,2.28 0.9,2.98 0.46,0.36 1.01,0.54 1.56,0.54 0.5,0 1,-0.15 1.44,-0.45l29.68 -20.67 34.12 0c5.14,0 9.32,-4.35 9.32,-9.7l0 -39.95c0,-5.35 -4.18,-9.7 -9.32,-9.7zm3.74 49.64l0 0c0,2.15 -1.68,3.89 -3.74,3.89l-35.21 0 -8.21 5.81 0.01 0 -17.07 11.89 3.72 -11.89 0.01 0 1.84 -5.81 -9.98 0c-2.06,0 -3.74,-1.74 -3.74,-3.89l0 -39.95c0,-2.15 1.68,-3.89 3.74,-3.89l64.88 0c2.06,0 3.74,1.75 3.74,3.89l0 39.95z"/>
    <path class="fil3" d="M523.58 762.63l0.01 0 -2.77 1.94 0 24.07c0,1.99 -1.55,3.59 -3.46,3.59l-45.47 0c-1.91,0 -3.45,-1.61 -3.45,-3.59l0 -90.58c0,-1.99 1.55,-3.59 3.45,-3.59l45.47 0c1.91,0 3.46,1.61 3.46,3.59l0 11.04 8.44 0 0 -23.3c0,-2.62 -2.04,-4.75 -4.56,-4.75l-60.13 0c-2.52,0 -4.57,2.13 -4.57,4.75l0 124.58c0,2.62 2.04,4.75 4.57,4.75l60.13 0c2.52,0 4.56,-2.13 4.56,-4.75l0 -51.76 -5.68 4.01zm-39.42 -77.11l0 0 20.94 0c0.74,0 1.34,0.63 1.34,1.39 0,0.77 -0.6,1.4 -1.34,1.4l-20.94 0c-0.74,0 -1.34,-0.63 -1.34,-1.4 0,-0.77 0.6,-1.39 1.34,-1.39zm10.47 124.58l0 0c-2.82,0 -5.1,-2.38 -5.1,-5.31 0,-2.93 2.29,-5.31 5.1,-5.31 2.82,0 5.1,2.37 5.1,5.31 0,2.93 -2.29,5.31 -5.1,5.31z"/>
   </g>
   <g>
    <polygon class="fil8" points="292.78,699.03 281.09,699.03 270.88,718.7 285.08,718.7 285.08,711.57 292.78,711.57 "/>
    <polygon class="fil9" points="279.38,702.33 276.71,707.46 292.78,707.46 292.78,702.33 "/>
    <polygon class="fil10" points="308.73,728.61 376,728.61 376,760.67 356.12,760.67 356.12,759.67 351.67,759.67 351.67,760.67 344.59,760.67 344.59,759.67 340.14,759.67 340.14,760.67 333.06,760.67 333.06,759.67 328.6,759.67 328.6,760.67 308.73,760.67 "/>
    <polygon class="fil11" points="311.08,758.86 312.65,758.86 312.65,729.52 311.08,729.52 "/>
    <polygon class="fil11" points="314.13,758.86 315.7,758.86 315.7,729.52 314.13,729.52 "/>
    <polygon class="fil11" points="317.18,758.86 318.75,758.86 318.75,729.52 317.18,729.52 "/>
    <polygon class="fil11" points="320.23,758.86 321.8,758.86 321.8,729.52 320.23,729.52 "/>
    <polygon class="fil11" points="323.28,758.86 324.85,758.86 324.85,729.52 323.28,729.52 "/>
    <polygon class="fil11" points="326.33,758.86 327.9,758.86 327.9,729.52 326.33,729.52 "/>
    <polygon class="fil11" points="329.38,758.86 330.95,758.86 330.95,729.52 329.38,729.52 "/>
    <polygon class="fil11" points="332.43,758.86 334,758.86 334,729.52 332.43,729.52 "/>
    <polygon class="fil11" points="335.48,758.86 337.05,758.86 337.05,729.52 335.48,729.52 "/>
    <polygon class="fil11" points="338.53,758.86 340.1,758.86 340.1,729.52 338.53,729.52 "/>
    <polygon class="fil11" points="341.58,758.86 343.15,758.86 343.15,729.52 341.58,729.52 "/>
    <polygon class="fil11" points="344.63,758.86 346.2,758.86 346.2,729.52 344.63,729.52 "/>
    <polygon class="fil11" points="347.68,758.86 349.25,758.86 349.25,729.52 347.68,729.52 "/>
    <polygon class="fil11" points="350.73,758.86 352.3,758.86 352.3,729.52 350.73,729.52 "/>
    <polygon class="fil11" points="353.78,758.86 355.35,758.86 355.35,729.52 353.78,729.52 "/>
    <polygon class="fil11" points="356.83,758.86 358.4,758.86 358.4,729.52 356.83,729.52 "/>
    <polygon class="fil11" points="359.88,758.86 361.45,758.86 361.45,729.52 359.88,729.52 "/>
    <polygon class="fil11" points="362.93,758.86 364.5,758.86 364.5,729.52 362.93,729.52 "/>
    <polygon class="fil11" points="365.98,758.86 367.55,758.86 367.55,729.52 365.98,729.52 "/>
    <polygon class="fil11" points="369.03,758.86 370.6,758.86 370.6,729.52 369.03,729.52 "/>
    <polygon class="fil11" points="372.07,758.86 373.65,758.86 373.65,729.52 372.07,729.52 "/>
    <path class="fil8" d="M351.51 755.44l70.22 0 -3.01 6.04c-13.09,4.7 -32.41,20.06 -42.02,35.65l-120.49 0 -19.37 -31.27 0 -5.15 110.96 0c2.04,0 3.7,-1.67 3.7,-3.7l0 -1.57z"/>
    <path class="fil9" d="M384.68 786.53c-3.04,3.44 -5.77,7.02 -7.98,10.61l-120.49 0 -6.57 -10.61 135.04 0z"/>
    <path class="fil10" d="M391.61 762.28c1.08,0 1.69,1.11 1.36,2.48 -0.33,1.37 -1.48,2.48 -2.57,2.48 -1.09,0 -1.69,-1.11 -1.37,-2.48 0.33,-1.37 1.48,-2.48 2.57,-2.48z"/>
    <polygon class="fil9" points="254,760.72 285.08,760.72 285.08,718.7 254,718.7 "/>
    <polygon class="fil12" points="304.76,760.72 271.11,760.72 271.11,728.11 285.08,728.11 285.08,711.57 304.76,711.57 "/>
    <polygon class="fil13" points="289.07,722.28 304.76,722.28 304.76,716.99 289.07,716.99 "/>
    <polygon class="fil14" points="276.84,735.39 278.94,735.39 278.94,732.44 276.84,732.44 "/>
    <polygon class="fil14" points="276.84,741.84 278.94,741.84 278.94,738.9 276.84,738.9 "/>
    <polygon class="fil14" points="276.84,748.29 278.94,748.29 278.94,745.34 276.84,745.34 "/>
    <polygon class="fil14" points="282.72,735.39 284.83,735.39 284.83,732.44 282.72,732.44 "/>
    <polygon class="fil14" points="282.72,741.84 284.83,741.84 284.83,738.9 282.72,738.9 "/>
    <polygon class="fil14" points="282.72,748.29 284.83,748.29 284.83,745.34 282.72,745.34 "/>
    <polygon class="fil14" points="288.61,735.39 290.72,735.39 290.72,732.44 288.61,732.44 "/>
    <polygon class="fil14" points="288.61,741.84 290.72,741.84 290.72,738.9 288.61,738.9 "/>
    <polygon class="fil14" points="288.61,748.29 290.72,748.29 290.72,745.34 288.61,745.34 "/>
    <polygon class="fil14" points="294.5,735.39 296.61,735.39 296.61,732.44 294.5,732.44 "/>
    <polygon class="fil14" points="294.5,741.84 296.61,741.84 296.61,738.9 294.5,738.9 "/>
    <polygon class="fil14" points="294.5,748.29 296.61,748.29 296.61,745.34 294.5,745.34 "/>
    <path class="fil13" d="M275.18 774.81c1.87,0 3.39,-1.52 3.39,-3.39 0,-1.86 -1.52,-3.39 -3.39,-3.39 -1.87,0 -3.39,1.52 -3.39,3.39 0,1.87 1.52,3.39 3.39,3.39z"/>
    <path class="fil13" d="M289.29 774.81c1.87,0 3.39,-1.52 3.39,-3.39 0,-1.86 -1.52,-3.39 -3.39,-3.39 -1.87,0 -3.39,1.52 -3.39,3.39 0,1.87 1.52,3.39 3.39,3.39z"/>
    <path class="fil13" d="M303.39 774.81c1.87,0 3.39,-1.52 3.39,-3.39 0,-1.86 -1.52,-3.39 -3.39,-3.39 -1.87,0 -3.39,1.52 -3.39,3.39 0,1.87 1.52,3.39 3.39,3.39z"/>
    <path class="fil13" d="M317.5 774.81c1.87,0 3.39,-1.52 3.39,-3.39 0,-1.86 -1.52,-3.39 -3.39,-3.39 -1.87,0 -3.39,1.52 -3.39,3.39 0,1.87 1.52,3.39 3.39,3.39z"/>
    <path class="fil13" d="M331.6 774.81c1.87,0 3.39,-1.52 3.39,-3.39 0,-1.86 -1.52,-3.39 -3.39,-3.39 -1.87,0 -3.39,1.52 -3.39,3.39 0,1.87 1.52,3.39 3.39,3.39z"/>
    <path class="fil13" d="M345.71 774.81c1.87,0 3.39,-1.52 3.39,-3.39 0,-1.86 -1.52,-3.39 -3.39,-3.39 -1.86,0 -3.39,1.52 -3.39,3.39 0,1.87 1.52,3.39 3.39,3.39z"/>
    <path class="fil13" d="M359.82 774.81c1.87,0 3.39,-1.52 3.39,-3.39 0,-1.86 -1.52,-3.39 -3.39,-3.39 -1.87,0 -3.39,1.52 -3.39,3.39 0,1.87 1.52,3.39 3.39,3.39z"/>
   </g>
   <g>
    <path class="fil3" d="M175.01 98.97c0,30.95 -25.09,56.04 -56.04,56.04 -30.95,0 -56.04,-25.09 -56.04,-56.04 0,-30.95 25.09,-56.04 56.04,-56.04 30.95,0 56.04,25.09 56.04,56.04zm-128.61 0c0,40.08 32.49,72.57 72.57,72.57 40.08,0 72.57,-32.49 72.57,-72.57 0,-40.08 -32.49,-72.57 -72.57,-72.57 -40.08,0 -72.57,32.49 -72.57,72.57z"/>
    <path class="fil3" d="M116.39 56.18l0 42.52c0,1.24 1.01,2.26 2.26,2.26 1.24,0 2.25,-1.01 2.25,-2.26l0 -42.52c0,-1.25 -1.01,-2.26 -2.25,-2.26 -1.25,0 -2.26,1.01 -2.26,2.26z"/>
    <path class="fil3" d="M79.11 115.17c-1.15,0.48 -2,1.04 -1.91,1.27 0.09,0.22 1.1,0.01 2.25,-0.47l39.25 -16.36c1.15,-0.48 2.01,-1.04 1.91,-1.27 -0.09,-0.22 -1.1,-0.01 -2.25,0.47l-39.26 16.35z"/>
    <path class="fil3" d="M119.73 95.72c-1.82,0 -3.3,1.48 -3.3,3.3 0,1.82 1.48,3.3 3.3,3.3l27.88 0c1.82,0 3.3,-1.48 3.3,-3.3 0,-1.82 -1.48,-3.3 -3.3,-3.3l-27.88 0z"/>
    <path class="fil3" d="M113.69 98.59c0,3.1 2.51,5.62 5.62,5.62 3.1,0 5.62,-2.51 5.62,-5.62 0,-3.1 -2.51,-5.62 -5.62,-5.62 -3.1,0 -5.62,2.51 -5.62,5.62z"/>
   </g>
   <path class="fil15" d="M147.57 304.27l-0.32 4.61 -1.73 1.45 -0.33 1.08 -1.25 0.6c-0.32,1.63 -1.56,2.6 -2.1,4.17l0.64 2.12 -3.52 4.72 -0.76 1.79 -0.65 0.81 -2.06 0.6 -4.13 3.51 -1.14 0.82 0.44 2.07 -2.33 2.38 -1.29 2.87 -1.42 1.41 0 -0.43 0.33 -2.39 -0.86 1.57 -0.27 2.39 -2.44 1.14 -2.17 -0.48 -1.79 -0.99 0.81 1.62 1.14 0.76 -1.31 2.39c-1.56,0.32 -3.19,0.81 -4.76,1.14l-0.98 1.9 -0.49 0.76 -1.41 -0.43 -0.33 0.77 0.65 1.13 -1.14 0.43 -0.81 1.8 -1.58 1.25 0.33 1.62c-3.52,0.42 -3.69,3.79 -5.74,4.72l-0.16 -1.69 -0.66 -0.32 0.16 -3.69 0.65 -0.64 0.64 -1.1 1.09 -3.04 -1.09 -1.08c-0.16,-2.07 0.33,-3.97 1.09,-5.91l0.97 -1.4c0.97,-3.21 1.29,-4.62 1.14,-7.82 0.45,-4.01 1.73,-7.81 2.23,-11.82l0.16 -2.06c-1.14,-1.47 -1.94,-2.39 -3.52,-3.21l-2.22 -2.71 -0.49 -2.38c-1.57,-1.9 -2.22,-4.5 -3.54,-6.67l-1.08 -0.65 -0.16 -1.25 1.74 -2.39 -0.98 -0.81 0.48 -1.73 0 -1.58 1.47 -1.78 2.06 -1.63 -0.33 -0.92c0.65,-1.79 0,-3.37 -0.16,-5.26l0.49 -1.09 0.97 0.16 0.76 -1.03 2.27 -1.68 1.41 -0.32 -0.48 1.57 0.32 0.97 0.65 0.6 0.16 -0.11 0.16 -1.47 0.77 -0.97 2.87 0 0.97 0.97c1.73,-0.32 3.36,-0.65 4.94,-1.25l1.63 1.85 0 1.62 0.92 0.18 1.25 1.3 0.22 0.76 0.33 1.13 1.9 0.99c3.14,-0.54 5.41,0.32 6.07,3.47l0.33 0.16 0.32 0.97 -1.02 1.41 -0.6 1.14 -0.33 1.3 1.46 0.11 0.49 -0.65 1.25 -0.49 4.45 1.3 0.49 1.3c1.63,0 3.52,0.11 5.09,0.27 1.24,0.98 2.71,2.28 4.12,3.04l0.65 0.49 0 -0.16zm-43.81 -17.68l0 0 0.16 0.17 0.6 -0.98 -2.49 -0.92 -2.88 0.49 -2.71 -1.79 -0.16 -3.47 0.32 -2.45 -1.08 -0.92 -3.75 0.49c-0.1,-2.87 0.5,-5.59 1.14,-8.29l-3.2 1.3 -1.24 2.33 -3.2 0.65 -1.31 -1.3 -0.76 -5.26 0.16 -2.88 -0.32 -3.14 1.73 -2.12 5.75 -0.16 2.11 -1.08 4.45 0.65 0.27 2.55 1.3 4.02 1.25 -0.82 -1.09 -5.32c1.25,-3.15 3.96,-5.58 4.12,-9.05l0.33 -1.58 0.16 1.9 0.76 -0.81 0.16 -1.46 1.41 -1.25 2.28 -1.73 0.16 -1.3 1.47 -0.93 1.58 -0.33 0.98 0.49 -0.71 0.93 0 0.49 0.98 -0.64 1.73 -1.58 -1.56 -0.48 -1.31 -0.76 -0.27 -1.47 -1.3 0 -3.37 1.58 2.06 -2.22 1.19 -2.06 5.7 0 0.65 -0.66 1.41 -0.75 -0.65 -0.82 -0.76 -0.32 -0.49 -0.33 -1.14 0.98 -0.6 -0.16 0.76 -0.81 0 -0.97 -0.6 0c-1.73,-1.08 -3.36,-2.22 -4.44,-3.96l-1.03 -0.81 -0.6 0.81 -0.8 1.14 -0.99 -0.49 -1.24 -0.98 0.17 -1.14c-1.74,-1.68 -3.15,-2.39 -5.7,-2.23l-0.16 0.33 0.65 1.79 -0.81 1.9 0.65 0.16 0.59 2.22 -0.75 1.41 0.32 1.79 0.28 1.57 -0.77 -0.33 -2.1 -0.75 -0.76 -0.66 -0.33 -2.06 -3.29 0 -2.12 -0.82 -1.47 0.16 -0.6 -0.81 0.16 -1.73 -0.81 -0.97 1.08 -1.25 -0.11 -2.12 -1.73 -0.43 0.59 -1.15 1.41 0.82 1.63 0.16 0.91 -0.98 0.33 -1.13 1.95 0 0.16 -0.92 0.76 0.16 0.97 -0.98 -1.29 -1.47 -0.77 1.47 -1.78 0 -0.44 -1.47 -0.65 1.04 -0.32 -0.54 -0.98 -1.25 -0.76 -1.14 -0.81 0.65 -0.33 1.24 0.33 1.04 -2.22 0.26 -2.28 0.65 -2.39 -0.91 -1.25 0.91 -1.09 0 -2.11 -0.49 1.14 -1.57 -1.3 -0.49 -4.12 0.16 -0.66 -1.62 -0.92 0.65 -1.95 0.32 -1.24 0c-4.5,-0.81 -9.11,-1.73 -13.56,-1.73l-2.23 0.59 -2.28 0 -0.76 1.14 0 1.89 -1.95 0.66 -1.73 -0.66 -1.3 0.66 -0.43 0.98 0.26 0.92 0.81 1.46 -0.92 0.49 -1.47 0.76 -2.05 0.98 0.33 1.25 1.56 -0.11 0.49 0.11 -0.65 0.33 -1.08 0.65 -0.99 0.97 -1.57 0.92 -2.71 1.3 1.14 0.16 2.33 -0.49 5.26 -1.9 1.31 -0.82 2.22 -1.57 1.47 0.16 1.57 -0.33 0.97 -1.45c1.42,1.13 4.28,2.38 6.02,2.54l0.82 2.55 0 1.47 2.54 2.87 1.74 2.54 -0.43 1.09c-1.79,3.68 -3.53,7.22 -1.47,11.34 0,2.39 1.8,4.01 3.21,5.74l0.81 2.87 0.91 2.07 -0.43 1.14 1.91 1.24 1.4 3.69 1.63 0.76 0 -1.08 -0.98 -1.08 -0.65 -1.63 -0.48 -0.92 -0.92 -2.44 -0.99 -1.74 0.49 -1.88 0.97 1.88 0.59 2.4 0.98 0.32 0.82 1.47 1.41 2.71 1.79 2.01c0.43,1.62 1.09,3.68 1.58,5.26l2.54 1.95c2.23,0.49 3.85,1.79 5.91,2.71l1.41 -0.76 1.4 1.08 0.87 1.08 1.73 0.54 2.82 1.84 1.47 -0.44 -0.33 1.74 1.14 1.25c1.74,1.95 3.31,3.21 5.75,4.02l0.11 -0.66 1.78 -0.32 0.66 0.98 1.41 -0.33 0 0zm20.23 -59.31l0 0 -2.33 -0.92 -1.95 -0.17c-1.9,-1.95 -4.18,-3.95 -5.91,-6.07l0.16 -1.47 -0.76 0.16 -1.47 -0.76 -1.08 -1.57 -0.49 0.43 -0.49 -0.75c-3.04,-2.06 -5.47,-3.21 -9.1,-2.93l-0.33 -0.92 -1.24 -0.92 20.22 0.27 0.66 0.65 1.24 0.33 0.81 -0.5c1.3,0.81 1.9,1.63 2.71,2.88l-0.16 1.14 0.76 0.32 1.41 0.16 0.39 0.6 -1.47 0 -1.57 -0.16 1.9 1.14 1.47 0.26 -0.32 0.17 -2.12 0.97 -0.43 1.47 -1.57 1.41 0.16 2.44 0.92 2.33 0 0zm-31.77 -10.19l0 0 0.49 0.16 -0.49 -1.47 0.49 -0.92 1.08 -0.33 0.81 0.33 1.79 0.81 1.41 0.76 1.9 0.16 2.39 1.25 0.97 0.97 1.89 1.9 2.27 0.32 0 0.76 -0.66 0.16 -0.64 -0.33 -1.57 -0.43 0 0.43 1.57 1.14 1.15 0.82 0 0.32 -0.82 0 -1.14 -0.32 0.33 0.48 0.97 0.77 -0.16 0 -1.9 -0.77 -0.81 -0.32 -0.81 0.16 -0.81 -1.46 -1.09 0.16 -0.97 0.64 -1.09 -1.13 0.93 -0.5 0.98 0 0.47 -0.43 -1.29 -0.98 -0.16 -1.3 -2.22 -0.92 -0.99 -0.16 -2.22 -0.76 -0.49 0.76 -1.57 -0.76 0 0zm0.54 7.32l-0.16 0 1.25 -1.08 0.82 -0.81 0.59 0.49 0.54 0.64 0.59 0.43 -0.59 0.17 -0.98 -0.17 -0.81 0.66 -1.25 -0.33 0 0zm3.04 44.46l1.24 -1.08 2.06 0 1.9 0.59 1.95 0.82 1.25 0.92 1.14 0.81 -1.31 1.15 -1.24 0.42 -1.14 -0.26 0.49 -0.71 0 -0.76 -1.9 -1.25 -1.47 -0.32 -0.1 -0.33 -2.28 0.33 -0.76 -0.17 0.17 -0.16 0 0zm9.54 5.91l0 0 0.32 0.32 -0.16 -0.6 0.59 -0.64 0.81 0 0.6 -0.32 -0.28 -0.6 0.6 -0.33 0.97 0.16 1.41 0.43 1.3 0.49 -0.97 0.49 -1.74 0.76 -1.9 -0.16 -1.56 0 0 0zm89.73 -52.44l-0.92 0.59 -0.17 0.66 -0.65 0.65 1.57 0.76 1.52 -0.49 1.46 -0.44 0.82 -0.64 1.08 -0.77 0.16 -0.48 -0.81 0 -1.73 -0.33 -1.57 0.92 -0.17 -0.76 -2.49 2.23 1.89 -1.9 0 0zm38.22 62.3l-1.08 3.85 -1.96 1.9 -0.92 3.53 -1.95 2.38 -3.63 3.04c-1.25,2.23 -2.54,3.64 -4.5,5.26l-0.77 2.54 0.98 4.12 1.41 1.47c-0.6,6.18 -2.55,7.31 -6.99,10.78 0,2.23 0,4.35 -0.66,6.57l-1.89 1.25 -0.66 0.32 -0.32 3.52 -1.9 3.19 -2.39 0.93 -0.97 1.8 -3.69 0.48 -2.22 0.49 -2.07 -0.65 -0.32 -1.31 -1.41 -3.63 -1.08 -2.87 -1.25 -2.12 -0.49 -4.93 -1.47 -3.96c-0.64,-3.53 -0.76,-6.07 0.39,-9.39l0.11 -2.6c-0.32,-2.22 -0.82,-4.28 -0.82,-6.56l-0.93 -1.25 -1.3 -2.06 -1.41 -2.29 0.6 -1.08c1.95,-3.03 0.33,-6.01 -3.31,-5.59l-0.98 -1.4 -1.56 -0.16c-2.88,0.64 -9.44,3.04 -11.66,0.81l-2.7 -1.3c-0.92,-2.54 -4.62,-6.94 -4.62,-9.21l-0.32 -1.41 0.97 -1.63 1.41 -2.98 1.08 -3.52 1.31 -3.36c4.12,-4.93 8.94,-12.42 14.96,-14.97l0.66 -0.64 0.97 0.76 4.93 -0.12 3.52 -0.32 1.57 -0.16 2.82 0.32 1.47 0.44 -1.14 1.47 2.07 1.73 2.87 1.3 2.23 1.41 1.95 -1.25 2.06 -0.64 3.36 1.13 2.71 0.16 2.55 -0.16 0.16 2.99c0.16,2.87 0.33,6.07 0.76,8.78l1.79 3.69c1.58,6.39 2.87,10.67 10.36,11.76l3.3 -0.64 0 0zm-44.23 -48.91l1.4 0.33 1.74 -0.66 0.8 -1.08 2.06 -1.64 -1.63 -0.58 -1.24 0.97 -0.66 0 -1.08 0.92 0.59 0.33 -1.08 0.76 -0.91 0.65 0 0zm2.71 1.57l0 -0.32 0.59 -0.49 0.49 -0.43 0.91 -0.33 -0.43 -0.49 0.76 -0.16 0.54 -0.65 0.26 0 0.49 -0.16 0.59 -0.76 0.16 -1.14 0.12 -0.98 0.15 -0.6 0.66 -0.81 0.81 -0.49 0.82 -0.11 0.92 -0.17 -0.65 0.93 0.81 0.49 -1.25 0.76 -0.81 0.38 0.33 1.41 -0.33 1.25 0.33 0.81 -0.33 0.49 -0.48 0.66 -0.49 0.26 -1.52 0.17 -1.14 -0.17 -1.09 0.49 -1.24 0.16 0 0zm110.06 108.44l1.89 0.76 3.84 -1.57 2.39 0 1.41 -1.25 0.81 -0.16 0.76 -0.83 3.41 0 2.71 0.49 1.25 1.24 0.49 0.33 0.27 0.49 1.79 -1.25 0.65 -0.32 -0.98 2.98 0.82 0.16 0.58 0.93 0.17 0.86 -0.33 0.39c2.27,1.13 4.02,0.65 6.45,0.48l0.6 -0.64 2.12 -0.43c2.71,-2.99 5.05,-6.19 5.2,-10.3 -0.32,-1.9 -1.09,-2.88 -1.9,-4.5l-0.16 -1.58 -1.74 -0.64 -1.14 -2.55c-1.47,-2.07 -2.39,-5.21 -2.55,-7.65l-0.97 -0.16 -0.76 -2.39 -1.14 -2.54 0.16 1.57c-0.6,1.95 -0.92,4.34 -1.46,6.24l-0.76 0.64 -0.98 0.16 -1.4 -1.62 -1.58 -1.08 -1.47 -0.65 0.16 -0.43 0.32 -1.03 0 -0.76 0.27 -0.49 0.16 -1.31 -3.3 -0.59 -0.66 -0.16 -0.33 0.6 -1.45 -0.43 -0.45 0.93 -0.64 1.47 -0.33 0.32 -0.43 1.47 -0.16 0.75 -0.32 0.17 -0.81 -1.47 -0.81 -1.08 -1.47 1.62 -0.26 1.08 -0.97 0.93 -0.16 1.3 -0.43 -0.6 -0.49 0.6 0 1.09c-1.79,1.62 -4.17,3.36 -6.23,4.5l-1.08 1.09c0,1.3 -0.33,2.71 -0.33,4.01l0.33 0.17 0.16 0.64 -0.66 0.76c0.81,2.27 2.22,5.26 2.38,7.7l-0.32 1.09 -0.16 0.49 0 0zm26.19 8.08l0.49 -0.16 2 -0.16 0.16 0.6 -0.32 1.14 -1.41 0.59 -0.6 -1.41 -0.49 -0.76 0.16 0.16 0 0zm-49.29 -59.74l3.04 0.32 2.06 1.75 1.74 2.54 1.4 1.14 0.38 0.92 1.08 0.97 1.62 1.74 -0.54 3.04 -1.25 0.33 -1.08 -0.49 -1.14 -1.58 -2.12 -2.54 -1.41 -2.22 -0.6 -2.22 -1.62 -1.79 -0.76 -0.92 -0.65 -0.66 -0.16 -0.32 0 0zm14.36 4.11c0,1.41 -0.48,2.39 0.12,4.13l0.97 0.16 0 0.97 2.22 0.81 2.87 0.64 0.81 0.12 0.76 -2.72 1.14 -0.76 1.41 -1.96 -0.59 -2.49 0 -0.93 0.43 -1.62 -1.09 -0.92 -0.97 -1.47 -0.98 1.13c0,1.58 -1.56,2.88 -2.71,3.8 -1.4,0.16 -2.55,0.81 -3.96,0.81 -1.58,0.76 -0.76,2.82 -0.76,4.39l0.32 -4.13 0 0zm-3.04 10.26l0.77 -1.25 1.73 0.16 0.66 0.43 1.73 -0.59 2.12 1.74 1.25 0.92 -0.33 0.47 -1.24 -0.64 -1.31 0 -1.08 -0.49 -1.41 0.32 -1.46 -0.59 -1.9 -0.82 0.49 0.32 0 0zm52 52.37l2.65 0.43 3.05 -3.15 0.97 -0.32c0.59,-1.08 0.49,-2.22 0.49,-3.53l-1.63 0.82 -1.41 1.3 -0.97 1.73 -1.41 0.49 -1.31 2.5 -0.43 -0.27 0 0zm8.9 -10.35l0.64 0.81 -1.41 1.57 -0.82 -0.65 -0.43 -0.66 1.25 -1.25 0.28 -1.08 0.8 0.33 -0.32 0.93 0 0zm-122 -36.99l0.49 0 -0.33 0.97 -0.59 0.93 -0.33 1.15 -1.57 0.97 -1.31 0.75 -1.4 0.66 0 1.89 0.16 1.47 0.33 1.74 -1.15 1.62 -0.97 0.92 -0.32 1.63 0.64 1.56 -0.16 1.15 1.3 0.92 1.25 -0.16 1.3 -0.6 0.49 -2.71 0.76 -1.14 -0.16 -1.14 0.48 -1.57 0.66 -0.81 0.32 -1.41 0.28 -1.31 -0.43 -1.73 0.91 -1.73 1.09 -0.33 -1.73 -3.69 0 0zm82.46 -55.41l2.65 -0.81 1.31 0 1.95 -0.32 0.76 -0.44c-0.16,-2.27 -0.6,-3.85 -2.06,-5.58l-0.49 -0.65 -0.77 0.16 0 1.74 0.16 0.98 -0.16 0.81 -0.97 0 -0.49 -0.32 0.16 1.56 0.33 1.14 -1.47 0 -1.08 0.6 0.82 0.97 -0.65 0.16 0 0zm-48.96 30.74l1.09 0.33 1.24 1.56 -0.43 1.62 -1.14 0.17 -1.08 -1.63 0.49 -0.81 0.49 -1.08 -0.65 -0.17 0 0zm-182.83 -74l0 0 -1.51 0.32 1.68 -0.16 0 0.65 0.97 -0.32 0.43 0.49 1.14 0.44 0.81 -0.93 0.81 1.07 0.6 0.17 0.49 0.97 -0.66 0.97 -1.56 0 -1.63 -0.32 -1.08 0.49 -0.49 0.16 -1.41 -0.33 -0.75 -1.13 1.57 -0.32 0 -0.81 -0.92 -0.28 0.1 -0.97 1.41 -0.16 0 0zm152.19 45.92l0.17 3.36 0.65 1.89 0.76 1.47 1.14 -0.97 0.49 2.39 2.87 0 0.49 -1.58 0.76 -0.81 0 1.57 1.78 2.27 1.1 0.76 -0.17 1.63 -1.41 2.38c-1.45,0.98 -2.55,2.38 -4,3.35 -2.88,0.44 -6.45,3.32 -9.17,4.62l-0.82 -0.82c-1.45,-3.46 -3.2,-7.31 -4.49,-10.84l-0.12 -2.55c-0.82,-2.07 -1.47,-4.28 -2.11,-6.35l-0.16 -1.57 -0.93 1.57 -1.3 -1.57 -1.08 0.27 0.27 -2.98 1.63 -0.32 0.66 -0.49 0.32 -0.76 1.08 -1.79 1.14 -2.06 -0.15 -0.33c-1.8,0.33 -2.67,0.28 -4.34,-0.16l-1.74 0.82 -1.29 -2.71 0.33 -0.64 0.32 -2.07 -0.65 -0.64 -2.06 -0.17 -0.32 1.47 -0.77 0.27 -0.32 1.79 0 1.41 -0.81 0.98 -1.14 -0.49 -0.16 -1.41 0.64 -0.49 -0.49 -0.49 -0.28 -1.57 -0.32 -0.81 -0.33 -1.62 -0.81 -2.07 -0.82 -0.49 -0.76 -0.6 -1.14 -0.33 -0.49 0.93 0.83 1.63 0.97 0.92 0.92 0.96 0.82 0.81 0 0.66 -0.82 -0.33 -0.32 0 -0.33 0.44 0.16 0.97 -0.92 0.81 -0.32 0.16 0 -0.81 -0.16 -1.41 -0.83 -1.63 -1.08 -1.08 -1.25 -0.98 -0.87 -0.98 -0.76 0.33c-2.11,1.3 -3.79,0.81 -5.69,2.07l-1.79 0.48 -0.93 0.65 -0.64 0.49 -0.81 0.93c-1.9,3.04 -9.06,4.82 -8.46,-0.44l1.63 -1.62 0.64 -1.73 0.76 -0.65 1.31 -0.33c1.79,0.33 3.03,0.49 4.93,0l1.31 -1.73 0.27 -0.98 -0.6 -0.93 -0.33 -0.97 0.5 -0.32 1.08 0.16 0.82 0.16 0 -1.3 0.97 0c2.01,-0.17 5.2,-1.25 6.94,-2.98l0.32 0.27 1.41 -0.76 1.63 -0.49 2.71 0.16 2.22 0 1.41 -0.16 1.79 0 0.32 0.65 0.93 -0.65 0.8 -1.14 0.49 -0.15 1.25 -1.58 -0.6 -1.47 -1.62 0.33 -1.58 0.54 -1.62 1.41 -0.6 0.6 -1.79 0.32 0 -1.4 0.81 -1.47 0.33 -0.92 -1.3 0.59 -1.73 0.33 -0.82 -0.43 1.15 -1.3c1.68,-1.52 3.03,-2.71 5.25,-3.31 3.69,-1.3 7.65,-3.26 11.01,-5.16l1.57 -0.43 2.23 -0.38c2.44,0.71 4.5,2.01 6.82,2.87l0.49 1.31 -2.39 0.64 -1.41 -0.49 -0.92 -0.33 0.76 1.42 0.49 0.97 1.57 0 2.06 -1.14 1.08 -0.59 0.49 -0.16 0.48 -1.95 0.66 -0.16 -0.33 2.11 1.75 -1.25 4.11 -0.22 1.04 -0.16 1.73 -0.65 3.05 0.65 2.38 -3.21 0.16 0.99 0.97 2.87 -1.29 0.92 0.81 0.71 2.22 -1.04 1.63 0.17 1.24 0.64 -1.24 -1.73 -2.11 -0.64 -0.16 -1.58 0.81 -0.64 0.33 0.92 1.14 -0.44 -0.81 -0.97 1.56 -0.27 1.95 0.27 -0.7 -0.81 4.01 -0.6 3.69 -1.47 4.01 0.16 0 2.44 1.74 -0.87 1.73 1.14 2.88 0.33 0.97 0.97 2.38 -0.33 0.76 0.44 1.63 -0.77 1.62 0.77 4.12 -0.11 -0.49 -0.97 1.95 0 2.98 -0.16 1.29 1.41c2.83,0.17 5.11,0.65 7.82,1.79l0.75 0.49 3.2 0.43 4.66 0 -0.32 -0.43 2.22 0.16 1.41 0.44 1.63 0.64 3.48 0.49 3.19 0.82 1.79 -0.16 0.6 0.49 1.78 0.93 1.58 0.97 1.47 0.65 -0.98 0.32 -3.03 -0.81 -2.4 -0.81 0.82 0.97 1.42 0.93 0.32 0.97 -1.41 0.98 0.28 0.6 -1.74 0.32 -2.28 0.16 -0.27 0.82 1.74 1.9 0.82 0.49 0.8 1.73 1.41 0.81 0 1.31 0.65 1.74 -1.3 -0.49 -1.41 -0.77 -0.98 -1.3c-1.08,-1.14 -2.38,-2.06 -2.87,-3.52l-0.6 -1.73 -1.47 -1.58 -1.41 -1.47 -0.98 0.33 -0.65 -0.33 0 0.33 -0.17 0.97 -0.16 0.92 -1.08 0.17c-2.06,-1.09 -5.91,-0.81 -8.3,-0.17l-0.49 0.17 1.15 4.34 1.24 -0.33 1.63 0.6 1.74 2.7 1.41 0.66 -1.57 -3.21 0.65 -0.26 0.76 0.92 3.2 3.53 0.17 1.9 1.12 2.06 0.66 1.96 -1.3 -1.79 -2.38 -3.47 0.48 1.08 -0.16 1.14 -4.34 4.61 -0.92 -0.97 -1.3 0.81 -0.65 1.47c-0.43,2.01 2.44,4.72 2.87,7l-1.08 0.76 -0.82 -0.92c-0.97,-1.57 -1.4,-2.88 -3.04,-3.68l0.16 -1.14 -0.65 -0.28 -1.73 -0.16 -0.97 0.43 -0.32 -1.08 0 -1.63 -0.76 -0.11 -0.81 1.74 -1.14 1.08 -0.28 0.7 0.6 0.93 1.79 0.64 1.25 -0.16 1.47 1.14 -0.81 0.32 -0.97 1.09 2.27 3.79 0.92 1.9 1.15 1.14 -1.47 4.12 -2.4 4.5 -2.06 1.41 -1.73 0.49 -2.87 1.9 -0.97 -1.09 -2.23 1.41 -0.97 1.62 0.97 1.41 1.58 2.21 1.13 1.96 0.33 3.3 -1.63 1.41 -0.76 1.31 -1.14 0.16 -0.16 -1.63 -2.55 -2 -0.98 -0.39 -0.59 -1.08 -0.81 0.32 -0.33 1.73 -0.43 1.74 -0.22 1.14 1.14 1.25 1.25 1.45 1.95 2.56 0.16 2.06 0.28 1.79 -0.28 0.93 -0.64 -0.93 -1.47 -2.27 -0.59 -1.57 -0.98 -1.57 -0.6 -0.81 -1.31 -1.73 0.33 -2.12 0 -4.12 -0.65 -1.63 -0.82 -2 -0.98 1.25 -0.92 -0.32 -0.48 -1.79 -0.45 -1.24 -1.02 -1.09 -2.01 -2.38 -1.62 -1.79 -2.21 0.49 -0.99 0.6c-1.47,2.44 -2.22,4.5 -4.61,6.4l-1.24 0.32 -0.49 3.37 -0.98 0.76 -0.65 2.54 -0.59 1.96 -1.04 0.65 -0.92 -0.82 -3.04 -8.61 -0.76 -3.31 -0.49 -4.01 -1.62 1.14 -0.77 -0.97 -0.33 -1.4 -1.45 -1.47 -1.91 -2.87 -3.52 -0.49 -1.42 -1.08 -2.05 1.08 -2.12 -0.59 0 -1.96 -1.9 0.81 -2.06 -0.32 -1.79 -2.06 -0.6 -3.21 -1.96 0.82z"/>
   <g>
    <path class="fil8" d="M297.29 182.45c11.9,0 21.58,-9.69 21.58,-21.57 0,-11.89 -9.69,-21.58 -21.58,-21.58 -11.87,0 -21.56,9.69 -21.56,21.58 0,11.88 9.7,21.57 21.56,21.57z"/>
    <path class="fil16" d="M297.35 62.75l0 0c7.49,0 13.62,6.13 13.62,13.63l0 83.27c0,7.49 -6.13,13.64 -13.62,13.64l0 0c-7.5,0 -13.63,-6.15 -13.63,-13.64l0 -83.27c0,-7.5 6.13,-13.63 13.63,-13.63z"/>
    <path class="fil17" d="M297.35 62.75l0 0c7.49,0 13.62,6.13 13.62,13.63l0 2.12 -0.31 0.31c-10.11,-15.43 -22.4,-1.58 -26.4,59.88l-0.54 -0.16 0 -62.15c0,-7.5 6.13,-13.63 13.63,-13.63z"/>
    <path class="fil8" d="M364.2 182.45c11.88,0 21.58,-9.69 21.58,-21.57 0,-11.89 -9.7,-21.58 -21.58,-21.58 -11.89,0 -21.58,9.69 -21.58,21.58 0,11.88 9.69,21.57 21.58,21.57z"/>
    <path class="fil16" d="M364.26 62.75l0 0c7.49,0 13.63,6.13 13.63,13.63l0 83.27c0,7.49 -6.14,13.64 -13.63,13.64l0 0c-7.5,0 -13.63,-6.15 -13.63,-13.64l0 -83.27c0,-7.5 6.13,-13.63 13.63,-13.63z"/>
    <path class="fil17" d="M364.26 62.75l0 0c7.49,0 13.63,6.13 13.63,13.63l0 2.12 -0.33 0.31c-10.1,-15.43 -22.39,-1.58 -26.38,59.88l-0.54 -0.16 0 -62.15c0,-7.5 6.13,-13.63 13.63,-13.63z"/>
    <path class="fil8" d="M431.1 182.45c11.88,0 21.58,-9.69 21.58,-21.57 0,-11.89 -9.7,-21.58 -21.58,-21.58 -11.89,0 -21.58,9.69 -21.58,21.58 0,11.88 9.7,21.57 21.58,21.57z"/>
    <path class="fil16" d="M431.15 62.75l0 0c7.51,0 13.64,6.13 13.64,13.63l0 83.27c0,7.49 -6.13,13.64 -13.64,13.64l0 0c-7.5,0 -13.63,-6.15 -13.63,-13.64l0 -83.27c0,-7.5 6.13,-13.63 13.63,-13.63z"/>
    <path class="fil17" d="M431.15 62.75l0 0c7.51,0 13.64,6.13 13.64,13.63l0 2.12 -0.32 0.31c-10.11,-15.43 -22.4,-1.58 -26.41,59.88l-0.54 -0.16 0 -62.15c0,-7.5 6.13,-13.63 13.63,-13.63z"/>
    <path class="fil8" d="M498 182.45c11.88,0 21.58,-9.69 21.58,-21.57 0,-11.89 -9.7,-21.58 -21.58,-21.58 -11.89,0 -21.58,9.69 -21.58,21.58 0,11.88 9.69,21.57 21.58,21.57z"/>
    <path class="fil16" d="M498.06 62.75l0 0c7.49,0 13.64,6.13 13.64,13.63l0 83.27c0,7.49 -6.15,13.64 -13.64,13.64l0 0c-7.5,0 -13.63,-6.15 -13.63,-13.64l0 -83.27c0,-7.5 6.13,-13.63 13.63,-13.63z"/>
    <path class="fil17" d="M498.06 62.75l0 0c7.49,0 13.64,6.13 13.64,13.63l0 2.12 -0.33 0.31c-10.1,-15.43 -22.4,-1.58 -26.4,59.88l-0.54 -0.16 0 -62.15c0,-7.5 6.13,-13.63 13.63,-13.63z"/>
    <path class="fil8" d="M564.91 182.45c11.89,0 21.57,-9.69 21.57,-21.57 0,-11.89 -9.69,-21.58 -21.57,-21.58 -11.89,0 -21.58,9.69 -21.58,21.58 0,11.88 9.69,21.57 21.58,21.57z"/>
    <path class="fil16" d="M564.97 62.75l0 0c7.49,0 13.61,6.13 13.61,13.63l0 83.27c0,7.49 -6.12,13.64 -13.62,13.64l0.01 0c-7.51,0 -13.64,-6.15 -13.64,-13.64l0 -83.27c0,-7.5 6.13,-13.63 13.64,-13.63z"/>
    <path class="fil17" d="M564.97 62.75l0 0c7.49,0 13.61,6.13 13.61,13.63l0 2.12 -0.31 0.31c-10.11,-15.43 -22.4,-1.58 -26.39,59.88l-0.54 -0.16 0 -62.15c0,-7.5 6.13,-13.63 13.64,-13.63z"/>
   </g>
  </g>
 </g>
</svg>
